<?xml version="1.0" encoding="UTF-8" standalone="no"?>
<!DOCTYPE svg PUBLIC "-//W3C//DTD SVG 1.1//EN"
 "http://www.w3.org/Graphics/SVG/1.1/DTD/svg11.dtd">
<!-- Generated by graphviz version 2.43.0 (0)
 -->
<!-- Title: Data_Preparation_Flow Pages: 1 -->
<svg width="281pt" height="947pt"
 viewBox="0.00 0.00 280.98 946.74" xmlns="http://www.w3.org/2000/svg" xmlns:xlink="http://www.w3.org/1999/xlink">
<g id="graph0" class="graph" transform="scale(1 1) rotate(0) translate(4 942.74)">
<title>Data_Preparation_Flow</title>
<polygon fill="white" stroke="transparent" points="-4,4 -4,-942.74 276.98,-942.74 276.98,4 -4,4"/>
<!-- start -->
<g id="node1" class="node">
<title>start</title>
<ellipse fill="lightgray" stroke="black" cx="136.49" cy="-911.87" rx="77.56" ry="26.74"/>
<text text-anchor="middle" x="136.49" y="-915.67" font-family="Times,serif" font-size="14.00">Start</text>
<text text-anchor="middle" x="136.49" y="-900.67" font-family="Times,serif" font-size="14.00">(CSV Raw Files)</text>
</g>
<!-- prep -->
<g id="node2" class="node">
<title>prep</title>
<path fill="lightblue" stroke="black" d="M210.49,-849C210.49,-849 62.49,-849 62.49,-849 56.49,-849 50.49,-843 50.49,-837 50.49,-837 50.49,-823 50.49,-823 50.49,-817 56.49,-811 62.49,-811 62.49,-811 210.49,-811 210.49,-811 216.49,-811 222.49,-817 222.49,-823 222.49,-823 222.49,-837 222.49,-837 222.49,-843 216.49,-849 210.49,-849"/>
<text text-anchor="middle" x="136.49" y="-833.8" font-family="Times,serif" font-size="14.00">3.1 Data Preparation</text>
<text text-anchor="middle" x="136.49" y="-818.8" font-family="Times,serif" font-size="14.00">(Python / Jupyter Notebook)</text>
</g>
<!-- start&#45;&gt;prep -->
<g id="edge1" class="edge">
<title>start&#45;&gt;prep</title>
<path fill="none" stroke="black" d="M136.49,-884.72C136.49,-876.53 136.49,-867.46 136.49,-859.14"/>
<polygon fill="black" stroke="black" points="139.99,-859.12 136.49,-849.12 132.99,-859.12 139.99,-859.12"/>
</g>
<!-- imp -->
<g id="node3" class="node">
<title>imp</title>
<path fill="lightcyan" stroke="black" d="M225.49,-775C225.49,-775 47.49,-775 47.49,-775 41.49,-775 35.49,-769 35.49,-763 35.49,-763 35.49,-749 35.49,-749 35.49,-743 41.49,-737 47.49,-737 47.49,-737 225.49,-737 225.49,-737 231.49,-737 237.49,-743 237.49,-749 237.49,-749 237.49,-763 237.49,-763 237.49,-769 231.49,-775 225.49,-775"/>
<text text-anchor="middle" x="136.49" y="-759.8" font-family="Times,serif" font-size="14.00">3.1.1 Import &amp; Initial Loading</text>
<text text-anchor="middle" x="136.49" y="-744.8" font-family="Times,serif" font-size="14.00">(read CSV → pandas DataFrame)</text>
</g>
<!-- prep&#45;&gt;imp -->
<g id="edge2" class="edge">
<title>prep&#45;&gt;imp</title>
<path fill="none" stroke="black" d="M136.49,-810.83C136.49,-803.13 136.49,-793.97 136.49,-785.42"/>
<polygon fill="black" stroke="black" points="139.99,-785.41 136.49,-775.41 132.99,-785.41 139.99,-785.41"/>
</g>
<!-- dtype -->
<g id="node4" class="node">
<title>dtype</title>
<path fill="lightgreen" stroke="black" d="M211.99,-701C211.99,-701 60.99,-701 60.99,-701 54.99,-701 48.99,-695 48.99,-689 48.99,-689 48.99,-645 48.99,-645 48.99,-639 54.99,-633 60.99,-633 60.99,-633 211.99,-633 211.99,-633 217.99,-633 223.99,-639 223.99,-645 223.99,-645 223.99,-689 223.99,-689 223.99,-695 217.99,-701 211.99,-701"/>
<text text-anchor="middle" x="136.49" y="-685.8" font-family="Times,serif" font-size="14.00">3.1.2 Data Typing &amp; Parsing</text>
<text text-anchor="middle" x="136.49" y="-670.8" font-family="Times,serif" font-size="14.00">• convert date_collected</text>
<text text-anchor="middle" x="136.49" y="-655.8" font-family="Times,serif" font-size="14.00">• numeric cleaning</text>
<text text-anchor="middle" x="136.49" y="-640.8" font-family="Times,serif" font-size="14.00">• strip whitespace</text>
</g>
<!-- imp&#45;&gt;dtype -->
<g id="edge3" class="edge">
<title>imp&#45;&gt;dtype</title>
<path fill="none" stroke="black" d="M136.49,-736.97C136.49,-729.45 136.49,-720.36 136.49,-711.28"/>
<polygon fill="black" stroke="black" points="139.99,-711.12 136.49,-701.12 132.99,-711.12 139.99,-711.12"/>
</g>
<!-- clean -->
<g id="node5" class="node">
<title>clean</title>
<path fill="honeydew" stroke="black" d="M248.49,-597C248.49,-597 24.49,-597 24.49,-597 18.49,-597 12.49,-591 12.49,-585 12.49,-585 12.49,-556 12.49,-556 12.49,-550 18.49,-544 24.49,-544 24.49,-544 248.49,-544 248.49,-544 254.49,-544 260.49,-550 260.49,-556 260.49,-556 260.49,-585 260.49,-585 260.49,-591 254.49,-597 248.49,-597"/>
<text text-anchor="middle" x="136.49" y="-581.8" font-family="Times,serif" font-size="14.00">3.1.3 Missing Value + Duplicate Handling</text>
<text text-anchor="middle" x="136.49" y="-566.8" font-family="Times,serif" font-size="14.00">• drop/flag duplicates</text>
<text text-anchor="middle" x="136.49" y="-551.8" font-family="Times,serif" font-size="14.00">• NaN processing</text>
</g>
<!-- dtype&#45;&gt;clean -->
<g id="edge4" class="edge">
<title>dtype&#45;&gt;clean</title>
<path fill="none" stroke="black" d="M136.49,-632.95C136.49,-624.72 136.49,-615.85 136.49,-607.48"/>
<polygon fill="black" stroke="black" points="139.99,-607.24 136.49,-597.24 132.99,-607.24 139.99,-607.24"/>
</g>
<!-- cls -->
<g id="node6" class="node">
<title>cls</title>
<path fill="lightyellow" stroke="black" d="M224.99,-508C224.99,-508 47.99,-508 47.99,-508 41.99,-508 35.99,-502 35.99,-496 35.99,-496 35.99,-482 35.99,-482 35.99,-476 41.99,-470 47.99,-470 47.99,-470 224.99,-470 224.99,-470 230.99,-470 236.99,-476 236.99,-482 236.99,-482 236.99,-496 236.99,-496 236.99,-502 230.99,-508 224.99,-508"/>
<text text-anchor="middle" x="136.49" y="-492.8" font-family="Times,serif" font-size="14.00">3.1.4 Collar Classification</text>
<text text-anchor="middle" x="136.49" y="-477.8" font-family="Times,serif" font-size="14.00">(old vs twin using date_collected)</text>
</g>
<!-- clean&#45;&gt;cls -->
<g id="edge5" class="edge">
<title>clean&#45;&gt;cls</title>
<path fill="none" stroke="black" d="M136.49,-543.91C136.49,-535.74 136.49,-526.65 136.49,-518.3"/>
<polygon fill="black" stroke="black" points="139.99,-518.24 136.49,-508.24 132.99,-518.24 139.99,-518.24"/>
</g>
<!-- coord -->
<g id="node7" class="node">
<title>coord</title>
<path fill="lavender" stroke="black" d="M205.49,-434C205.49,-434 67.49,-434 67.49,-434 61.49,-434 55.49,-428 55.49,-422 55.49,-422 55.49,-393 55.49,-393 55.49,-387 61.49,-381 67.49,-381 67.49,-381 205.49,-381 205.49,-381 211.49,-381 217.49,-387 217.49,-393 217.49,-393 217.49,-422 217.49,-422 217.49,-428 211.49,-434 205.49,-434"/>
<text text-anchor="middle" x="136.49" y="-418.8" font-family="Times,serif" font-size="14.00">3.1.5 Spatial Validation</text>
<text text-anchor="middle" x="136.49" y="-403.8" font-family="Times,serif" font-size="14.00">• check coordinate range</text>
<text text-anchor="middle" x="136.49" y="-388.8" font-family="Times,serif" font-size="14.00">• ensure UTM consistency</text>
</g>
<!-- cls&#45;&gt;coord -->
<g id="edge6" class="edge">
<title>cls&#45;&gt;coord</title>
<path fill="none" stroke="black" d="M136.49,-469.96C136.49,-462.32 136.49,-453.14 136.49,-444.23"/>
<polygon fill="black" stroke="black" points="139.99,-444 136.49,-434 132.99,-444 139.99,-444"/>
</g>
<!-- master -->
<g id="node8" class="node">
<title>master</title>
<path fill="lightsteelblue" stroke="black" d="M237.99,-345C237.99,-345 34.99,-345 34.99,-345 28.99,-345 22.99,-339 22.99,-333 22.99,-333 22.99,-319 22.99,-319 22.99,-313 28.99,-307 34.99,-307 34.99,-307 237.99,-307 237.99,-307 243.99,-307 249.99,-313 249.99,-319 249.99,-319 249.99,-333 249.99,-333 249.99,-339 243.99,-345 237.99,-345"/>
<text text-anchor="middle" x="136.49" y="-329.8" font-family="Times,serif" font-size="14.00">3.1.6 Master Data Consolidation</text>
<text text-anchor="middle" x="136.49" y="-314.8" font-family="Times,serif" font-size="14.00">(merged, validated, final master table)</text>
</g>
<!-- coord&#45;&gt;master -->
<g id="edge7" class="edge">
<title>coord&#45;&gt;master</title>
<path fill="none" stroke="black" d="M136.49,-380.91C136.49,-372.74 136.49,-363.65 136.49,-355.3"/>
<polygon fill="black" stroke="black" points="139.99,-355.24 136.49,-345.24 132.99,-355.24 139.99,-355.24"/>
</g>
<!-- export -->
<g id="node9" class="node">
<title>export</title>
<path fill="mistyrose" stroke="black" d="M228.49,-271C228.49,-271 44.49,-271 44.49,-271 38.49,-271 32.49,-265 32.49,-259 32.49,-259 32.49,-247 32.49,-247 32.49,-241 38.49,-235 44.49,-235 44.49,-235 228.49,-235 228.49,-235 234.49,-235 240.49,-241 240.49,-247 240.49,-247 240.49,-259 240.49,-259 240.49,-265 234.49,-271 228.49,-271"/>
<text text-anchor="middle" x="136.49" y="-249.3" font-family="Times,serif" font-size="14.00">Export Clean Master Data → CSV</text>
</g>
<!-- master&#45;&gt;export -->
<g id="edge8" class="edge">
<title>master&#45;&gt;export</title>
<path fill="none" stroke="black" d="M136.49,-306.72C136.49,-298.97 136.49,-289.79 136.49,-281.27"/>
<polygon fill="black" stroke="black" points="139.99,-281 136.49,-271 132.99,-281 139.99,-281"/>
</g>
<!-- importpg -->
<g id="node10" class="node">
<title>importpg</title>
<path fill="peachpuff" stroke="black" d="M228.99,-199C228.99,-199 43.99,-199 43.99,-199 37.99,-199 31.99,-193 31.99,-187 31.99,-187 31.99,-173 31.99,-173 31.99,-167 37.99,-161 43.99,-161 43.99,-161 228.99,-161 228.99,-161 234.99,-161 240.99,-167 240.99,-173 240.99,-173 240.99,-187 240.99,-187 240.99,-193 234.99,-199 228.99,-199"/>
<text text-anchor="middle" x="136.49" y="-183.8" font-family="Times,serif" font-size="14.00">Import to PostgreSQL via DBeaver</text>
<text text-anchor="middle" x="136.49" y="-168.8" font-family="Times,serif" font-size="14.00">(select data types → load table)</text>
</g>
<!-- export&#45;&gt;importpg -->
<g id="edge9" class="edge">
<title>export&#45;&gt;importpg</title>
<path fill="none" stroke="black" d="M136.49,-234.81C136.49,-227.11 136.49,-217.82 136.49,-209.15"/>
<polygon fill="black" stroke="black" points="139.99,-209.02 136.49,-199.02 132.99,-209.02 139.99,-209.02"/>
</g>
<!-- geom -->
<g id="node11" class="node">
<title>geom</title>
<path fill="thistle" stroke="black" d="M220.49,-125C220.49,-125 52.49,-125 52.49,-125 46.49,-125 40.49,-119 40.49,-113 40.49,-113 40.49,-84 40.49,-84 40.49,-78 46.49,-72 52.49,-72 52.49,-72 220.49,-72 220.49,-72 226.49,-72 232.49,-78 232.49,-84 232.49,-84 232.49,-113 232.49,-113 232.49,-119 226.49,-125 220.49,-125"/>
<text text-anchor="middle" x="136.49" y="-109.8" font-family="Times,serif" font-size="14.00">Post&#45;Import Processing</text>
<text text-anchor="middle" x="136.49" y="-94.8" font-family="Times,serif" font-size="14.00">Create geom Column (PostGIS)</text>
<text text-anchor="middle" x="136.49" y="-79.8" font-family="Times,serif" font-size="14.00">ST_MakePoint / ST_SetSRID</text>
</g>
<!-- importpg&#45;&gt;geom -->
<g id="edge10" class="edge">
<title>importpg&#45;&gt;geom</title>
<path fill="none" stroke="black" d="M136.49,-160.96C136.49,-153.32 136.49,-144.14 136.49,-135.23"/>
<polygon fill="black" stroke="black" points="139.99,-135 136.49,-125 132.99,-135 139.99,-135"/>
</g>
<!-- end -->
<g id="node12" class="node">
<title>end</title>
<ellipse fill="lightgray" stroke="black" cx="136.49" cy="-18" rx="136.48" ry="18"/>
<text text-anchor="middle" x="136.49" y="-14.3" font-family="Times,serif" font-size="14.00">Final Spatial&#45;Enabled Master Table</text>
</g>
<!-- geom&#45;&gt;end -->
<g id="edge11" class="edge">
<title>geom&#45;&gt;end</title>
<path fill="none" stroke="black" d="M136.49,-71.8C136.49,-63.71 136.49,-54.76 136.49,-46.55"/>
<polygon fill="black" stroke="black" points="139.99,-46.33 136.49,-36.33 132.99,-46.33 139.99,-46.33"/>
</g>
</g>
</svg>
