<?xml version="1.0" encoding="utf-8" standalone="no"?>
<!DOCTYPE svg PUBLIC "-//W3C//DTD SVG 1.1//EN"
  "http://www.w3.org/Graphics/SVG/1.1/DTD/svg11.dtd">
<svg xmlns:xlink="http://www.w3.org/1999/xlink" width="510.405937pt" height="342.477813pt" viewBox="0 0 510.405937 342.477813" xmlns="http://www.w3.org/2000/svg" version="1.1">
 <metadata>
  <rdf:RDF xmlns:dc="http://purl.org/dc/elements/1.1/" xmlns:cc="http://creativecommons.org/ns#" xmlns:rdf="http://www.w3.org/1999/02/22-rdf-syntax-ns#">
   <cc:Work>
    <dc:type rdf:resource="http://purl.org/dc/dcmitype/StillImage"/>
    <dc:date>2025-10-22T08:42:24.355247</dc:date>
    <dc:format>image/svg+xml</dc:format>
    <dc:creator>
     <cc:Agent>
      <dc:title>Matplotlib v3.10.6, https://matplotlib.org/</dc:title>
     </cc:Agent>
    </dc:creator>
   </cc:Work>
  </rdf:RDF>
 </metadata>
 <defs>
  <style type="text/css">*{stroke-linejoin: round; stroke-linecap: butt}</style>
 </defs>
 <g id="figure_1">
  <g id="patch_1">
   <path d="M 0 342.477813 
L 510.405937 342.477813 
L 510.405937 0 
L 0 0 
z
" style="fill: #ffffff"/>
  </g>
  <g id="axes_1">
   <g id="patch_2">
    <path d="M 56.805938 299.518125 
L 503.205938 299.518125 
L 503.205938 22.318125 
L 56.805938 22.318125 
z
" style="fill: #ffffff"/>
   </g>
   <g id="FillBetweenPolyCollection_1">
    <defs>
     <path id="m468bd808a0" d="M 94.997282 -42.959688 
L 94.997282 -42.996115 
L 96.753771 -43.022815 
L 98.510261 -43.067184 
L 100.26675 -43.139534 
L 102.02324 -43.255294 
L 103.779729 -43.436993 
L 105.536218 -43.716737 
L 107.292708 -44.139128 
L 109.049197 -44.764522 
L 110.805687 -45.672364 
L 112.562176 -46.964228 
L 114.318665 -48.766013 
L 116.075155 -51.22861 
L 117.831644 -54.526282 
L 119.588134 -58.851972 
L 121.344623 -64.408942 
L 123.101113 -71.398375 
L 124.857602 -80.003097 
L 126.614091 -90.368112 
L 128.370581 -102.579346 
L 130.12707 -116.642621 
L 131.88356 -132.465347 
L 133.640049 -149.843665 
L 135.396539 -168.457572 
L 137.153028 -187.875976 
L 138.909517 -207.572646 
L 140.666007 -226.952706 
L 142.422496 -245.387932 
L 144.178986 -262.257803 
L 145.935475 -276.992273 
L 147.691964 -289.111806 
L 149.448454 -298.260358 
L 151.204943 -304.227819 
L 152.961433 -306.959688 
L 154.717922 -306.553362 
L 156.474412 -303.242067 
L 158.230901 -297.368826 
L 159.98739 -289.353912 
L 161.74388 -279.65963 
L 163.500369 -268.756175 
L 165.256859 -257.091729 
L 167.013348 -245.06901 
L 168.769837 -233.029413 
L 170.526327 -221.244849 
L 172.282816 -209.916521 
L 174.039306 -199.179259 
L 175.795795 -189.109793 
L 177.552285 -179.737261 
L 179.308774 -171.054492 
L 181.065263 -163.028883 
L 182.821753 -155.612094 
L 184.578242 -148.748122 
L 186.334732 -142.3796 
L 188.091221 -136.452395 
L 189.847711 -130.918682 
L 191.6042 -125.738729 
L 193.360689 -120.881627 
L 195.117179 -116.325166 
L 196.873668 -112.055029 
L 198.630158 -108.063463 
L 200.386647 -104.347549 
L 202.143136 -100.90724 
L 203.899626 -97.743314 
L 205.656115 -94.855435 
L 207.412605 -92.240474 
L 209.169094 -89.891278 
L 210.925584 -87.795978 
L 212.682073 -85.937897 
L 214.438562 -84.296057 
L 216.195052 -82.846183 
L 217.951541 -81.562075 
L 219.708031 -80.417154 
L 221.46452 -79.386002 
L 223.22101 -78.445716 
L 224.977499 -77.57692 
L 226.733988 -76.764376 
L 228.490478 -75.997137 
L 230.246967 -75.268306 
L 232.003457 -74.574449 
L 233.759946 -73.914801 
L 235.516435 -73.29037 
L 237.272925 -72.703063 
L 239.029414 -72.154931 
L 240.785904 -71.647601 
L 242.542393 -71.181922 
L 244.298883 -70.757823 
L 246.055372 -70.374353 
L 247.811861 -70.029859 
L 249.568351 -69.722237 
L 251.32484 -69.449212 
L 253.08133 -69.208595 
L 254.837819 -68.998483 
L 256.594308 -68.817395 
L 258.350798 -68.664333 
L 260.107287 -68.538777 
L 261.863777 -68.440638 
L 263.620266 -68.370176 
L 265.376756 -68.327916 
L 267.133245 -68.314551 
L 268.889734 -68.330862 
L 270.646224 -68.377635 
L 272.402713 -68.455573 
L 274.159203 -68.565184 
L 275.915692 -68.706645 
L 277.672182 -68.879616 
L 279.428671 -69.083027 
L 281.18516 -69.314844 
L 282.94165 -69.571834 
L 284.698139 -69.849385 
L 286.454629 -70.1414 
L 288.211118 -70.44031 
L 289.967607 -70.737232 
L 291.724097 -71.02226 
L 293.480586 -71.28489 
L 295.237076 -71.514528 
L 296.993565 -71.701035 
L 298.750055 -71.835252 
L 300.506544 -71.909464 
L 302.263033 -71.917741 
L 304.019523 -71.856177 
L 305.776012 -71.722989 
L 307.532502 -71.518523 
L 309.288991 -71.245178 
L 311.04548 -70.907283 
L 312.80197 -70.510932 
L 314.558459 -70.063798 
L 316.314949 -69.574912 
L 318.071438 -69.054386 
L 319.827928 -68.513074 
L 321.584417 -67.962159 
L 323.340906 -67.412656 
L 325.097396 -66.874881 
L 326.853885 -66.357887 
L 328.610375 -65.868958 
L 330.366864 -65.413196 
L 332.123354 -64.993271 
L 333.879843 -64.609363 
L 335.636332 -64.259329 
L 337.392822 -63.93908 
L 339.149311 -63.643123 
L 340.905801 -63.365212 
L 342.66229 -63.09902 
L 344.418779 -62.838745 
L 346.175269 -62.579563 
L 347.931758 -62.317883 
L 349.688248 -62.051357 
L 351.444737 -61.778674 
L 353.201227 -61.499169 
L 354.957716 -61.212328 
L 356.714205 -60.917278 
L 358.470695 -60.61236 
L 360.227184 -60.294855 
L 361.983674 -59.960924 
L 363.740163 -59.605762 
L 365.496653 -59.223967 
L 367.253142 -58.810054 
L 369.009631 -58.359049 
L 370.766121 -57.867068 
L 372.52261 -57.331824 
L 374.2791 -56.75297 
L 376.035589 -56.132263 
L 377.792078 -55.473524 
L 379.548568 -54.78242 
L 381.305057 -54.066088 
L 383.061547 -53.332669 
L 384.818036 -52.590806 
L 386.574526 -51.84915 
L 388.331015 -51.115927 
L 390.087504 -50.39861 
L 391.843994 -49.703681 
L 393.600483 -49.036524 
L 395.356973 -48.401406 
L 397.113462 -47.801538 
L 398.869951 -47.239189 
L 400.626441 -46.715826 
L 402.38293 -46.232251 
L 404.13942 -45.788722 
L 405.895909 -45.385047 
L 407.652399 -45.020645 
L 409.408888 -44.694582 
L 411.165377 -44.40559 
L 412.921867 -44.152073 
L 414.678356 -43.93212 
L 416.434846 -43.743528 
L 418.191335 -43.583843 
L 419.947825 -43.450411 
L 421.704314 -43.340451 
L 423.460803 -43.251133 
L 425.217293 -43.179658 
L 426.973782 -43.123337 
L 428.730272 -43.079652 
L 430.486761 -43.046313 
L 432.24325 -43.021284 
L 433.99974 -43.002807 
L 435.756229 -42.989396 
L 437.512719 -42.979829 
L 439.269208 -42.973121 
L 441.025698 -42.9685 
L 442.782187 -42.965373 
L 444.538676 -42.963294 
L 444.538676 -42.959688 
L 444.538676 -42.959688 
L 442.782187 -42.959688 
L 441.025698 -42.959688 
L 439.269208 -42.959688 
L 437.512719 -42.959688 
L 435.756229 -42.959688 
L 433.99974 -42.959688 
L 432.24325 -42.959688 
L 430.486761 -42.959688 
L 428.730272 -42.959688 
L 426.973782 -42.959688 
L 425.217293 -42.959688 
L 423.460803 -42.959688 
L 421.704314 -42.959688 
L 419.947825 -42.959688 
L 418.191335 -42.959688 
L 416.434846 -42.959688 
L 414.678356 -42.959688 
L 412.921867 -42.959688 
L 411.165377 -42.959688 
L 409.408888 -42.959688 
L 407.652399 -42.959688 
L 405.895909 -42.959688 
L 404.13942 -42.959688 
L 402.38293 -42.959688 
L 400.626441 -42.959688 
L 398.869951 -42.959688 
L 397.113462 -42.959688 
L 395.356973 -42.959688 
L 393.600483 -42.959688 
L 391.843994 -42.959688 
L 390.087504 -42.959688 
L 388.331015 -42.959688 
L 386.574526 -42.959688 
L 384.818036 -42.959688 
L 383.061547 -42.959688 
L 381.305057 -42.959688 
L 379.548568 -42.959688 
L 377.792078 -42.959688 
L 376.035589 -42.959688 
L 374.2791 -42.959688 
L 372.52261 -42.959688 
L 370.766121 -42.959688 
L 369.009631 -42.959688 
L 367.253142 -42.959688 
L 365.496653 -42.959688 
L 363.740163 -42.959688 
L 361.983674 -42.959688 
L 360.227184 -42.959688 
L 358.470695 -42.959688 
L 356.714205 -42.959688 
L 354.957716 -42.959688 
L 353.201227 -42.959688 
L 351.444737 -42.959688 
L 349.688248 -42.959688 
L 347.931758 -42.959688 
L 346.175269 -42.959688 
L 344.418779 -42.959688 
L 342.66229 -42.959688 
L 340.905801 -42.959688 
L 339.149311 -42.959688 
L 337.392822 -42.959688 
L 335.636332 -42.959688 
L 333.879843 -42.959688 
L 332.123354 -42.959688 
L 330.366864 -42.959688 
L 328.610375 -42.959688 
L 326.853885 -42.959688 
L 325.097396 -42.959688 
L 323.340906 -42.959688 
L 321.584417 -42.959688 
L 319.827928 -42.959688 
L 318.071438 -42.959688 
L 316.314949 -42.959688 
L 314.558459 -42.959688 
L 312.80197 -42.959688 
L 311.04548 -42.959688 
L 309.288991 -42.959688 
L 307.532502 -42.959688 
L 305.776012 -42.959688 
L 304.019523 -42.959688 
L 302.263033 -42.959688 
L 300.506544 -42.959688 
L 298.750055 -42.959688 
L 296.993565 -42.959688 
L 295.237076 -42.959688 
L 293.480586 -42.959688 
L 291.724097 -42.959688 
L 289.967607 -42.959688 
L 288.211118 -42.959688 
L 286.454629 -42.959688 
L 284.698139 -42.959688 
L 282.94165 -42.959688 
L 281.18516 -42.959688 
L 279.428671 -42.959688 
L 277.672182 -42.959688 
L 275.915692 -42.959688 
L 274.159203 -42.959688 
L 272.402713 -42.959688 
L 270.646224 -42.959688 
L 268.889734 -42.959688 
L 267.133245 -42.959688 
L 265.376756 -42.959688 
L 263.620266 -42.959688 
L 261.863777 -42.959688 
L 260.107287 -42.959688 
L 258.350798 -42.959688 
L 256.594308 -42.959688 
L 254.837819 -42.959688 
L 253.08133 -42.959688 
L 251.32484 -42.959688 
L 249.568351 -42.959688 
L 247.811861 -42.959688 
L 246.055372 -42.959688 
L 244.298883 -42.959688 
L 242.542393 -42.959688 
L 240.785904 -42.959688 
L 239.029414 -42.959688 
L 237.272925 -42.959688 
L 235.516435 -42.959688 
L 233.759946 -42.959688 
L 232.003457 -42.959688 
L 230.246967 -42.959688 
L 228.490478 -42.959688 
L 226.733988 -42.959688 
L 224.977499 -42.959688 
L 223.22101 -42.959688 
L 221.46452 -42.959688 
L 219.708031 -42.959688 
L 217.951541 -42.959688 
L 216.195052 -42.959688 
L 214.438562 -42.959688 
L 212.682073 -42.959688 
L 210.925584 -42.959688 
L 209.169094 -42.959688 
L 207.412605 -42.959688 
L 205.656115 -42.959688 
L 203.899626 -42.959688 
L 202.143136 -42.959688 
L 200.386647 -42.959688 
L 198.630158 -42.959688 
L 196.873668 -42.959688 
L 195.117179 -42.959688 
L 193.360689 -42.959688 
L 191.6042 -42.959688 
L 189.847711 -42.959688 
L 188.091221 -42.959688 
L 186.334732 -42.959688 
L 184.578242 -42.959688 
L 182.821753 -42.959688 
L 181.065263 -42.959688 
L 179.308774 -42.959688 
L 177.552285 -42.959688 
L 175.795795 -42.959688 
L 174.039306 -42.959688 
L 172.282816 -42.959688 
L 170.526327 -42.959688 
L 168.769837 -42.959688 
L 167.013348 -42.959688 
L 165.256859 -42.959688 
L 163.500369 -42.959688 
L 161.74388 -42.959688 
L 159.98739 -42.959688 
L 158.230901 -42.959688 
L 156.474412 -42.959688 
L 154.717922 -42.959688 
L 152.961433 -42.959688 
L 151.204943 -42.959688 
L 149.448454 -42.959688 
L 147.691964 -42.959688 
L 145.935475 -42.959688 
L 144.178986 -42.959688 
L 142.422496 -42.959688 
L 140.666007 -42.959688 
L 138.909517 -42.959688 
L 137.153028 -42.959688 
L 135.396539 -42.959688 
L 133.640049 -42.959688 
L 131.88356 -42.959688 
L 130.12707 -42.959688 
L 128.370581 -42.959688 
L 126.614091 -42.959688 
L 124.857602 -42.959688 
L 123.101113 -42.959688 
L 121.344623 -42.959688 
L 119.588134 -42.959688 
L 117.831644 -42.959688 
L 116.075155 -42.959688 
L 114.318665 -42.959688 
L 112.562176 -42.959688 
L 110.805687 -42.959688 
L 109.049197 -42.959688 
L 107.292708 -42.959688 
L 105.536218 -42.959688 
L 103.779729 -42.959688 
L 102.02324 -42.959688 
L 100.26675 -42.959688 
L 98.510261 -42.959688 
L 96.753771 -42.959688 
L 94.997282 -42.959688 
z
" style="stroke: #ffffff"/>
    </defs>
    <g clip-path="url(#p674338103e)">
     <use xlink:href="#m468bd808a0" x="0" y="342.477813" style="fill: #ffffff; stroke: #ffffff"/>
    </g>
   </g>
   <g id="matplotlib.axis_1">
    <g id="xtick_1">
     <g id="line2d_1">
      <path d="M 112.429603 299.518125 
L 112.429603 22.318125 
" clip-path="url(#p674338103e)" style="fill: none; stroke: #cccccc; stroke-linecap: round"/>
     </g>
     <g id="text_1">
      <!-- 0 -->
      <g style="fill: #262626" transform="translate(108.930228 317.376406) scale(0.11 -0.11)">
       <defs>
        <path id="DejaVuSans-30" d="M 2034 4250 
Q 1547 4250 1301 3770 
Q 1056 3291 1056 2328 
Q 1056 1369 1301 889 
Q 1547 409 2034 409 
Q 2525 409 2770 889 
Q 3016 1369 3016 2328 
Q 3016 3291 2770 3770 
Q 2525 4250 2034 4250 
z
M 2034 4750 
Q 2819 4750 3233 4129 
Q 3647 3509 3647 2328 
Q 3647 1150 3233 529 
Q 2819 -91 2034 -91 
Q 1250 -91 836 529 
Q 422 1150 422 2328 
Q 422 3509 836 4129 
Q 1250 4750 2034 4750 
z
" transform="scale(0.015625)"/>
       </defs>
       <use xlink:href="#DejaVuSans-30"/>
      </g>
     </g>
    </g>
    <g id="xtick_2">
     <g id="line2d_2">
      <path d="M 170.395 299.518125 
L 170.395 22.318125 
" clip-path="url(#p674338103e)" style="fill: none; stroke: #cccccc; stroke-linecap: round"/>
     </g>
     <g id="text_2">
      <!-- 10 -->
      <g style="fill: #262626" transform="translate(163.39625 317.376406) scale(0.11 -0.11)">
       <defs>
        <path id="DejaVuSans-31" d="M 794 531 
L 1825 531 
L 1825 4091 
L 703 3866 
L 703 4441 
L 1819 4666 
L 2450 4666 
L 2450 531 
L 3481 531 
L 3481 0 
L 794 0 
L 794 531 
z
" transform="scale(0.015625)"/>
       </defs>
       <use xlink:href="#DejaVuSans-31"/>
       <use xlink:href="#DejaVuSans-30" transform="translate(63.623047 0)"/>
      </g>
     </g>
    </g>
    <g id="xtick_3">
     <g id="line2d_3">
      <path d="M 228.360398 299.518125 
L 228.360398 22.318125 
" clip-path="url(#p674338103e)" style="fill: none; stroke: #cccccc; stroke-linecap: round"/>
     </g>
     <g id="text_3">
      <!-- 20 -->
      <g style="fill: #262626" transform="translate(221.361648 317.376406) scale(0.11 -0.11)">
       <defs>
        <path id="DejaVuSans-32" d="M 1228 531 
L 3431 531 
L 3431 0 
L 469 0 
L 469 531 
Q 828 903 1448 1529 
Q 2069 2156 2228 2338 
Q 2531 2678 2651 2914 
Q 2772 3150 2772 3378 
Q 2772 3750 2511 3984 
Q 2250 4219 1831 4219 
Q 1534 4219 1204 4116 
Q 875 4013 500 3803 
L 500 4441 
Q 881 4594 1212 4672 
Q 1544 4750 1819 4750 
Q 2544 4750 2975 4387 
Q 3406 4025 3406 3419 
Q 3406 3131 3298 2873 
Q 3191 2616 2906 2266 
Q 2828 2175 2409 1742 
Q 1991 1309 1228 531 
z
" transform="scale(0.015625)"/>
       </defs>
       <use xlink:href="#DejaVuSans-32"/>
       <use xlink:href="#DejaVuSans-30" transform="translate(63.623047 0)"/>
      </g>
     </g>
    </g>
    <g id="xtick_4">
     <g id="line2d_4">
      <path d="M 286.325795 299.518125 
L 286.325795 22.318125 
" clip-path="url(#p674338103e)" style="fill: none; stroke: #cccccc; stroke-linecap: round"/>
     </g>
     <g id="text_4">
      <!-- 30 -->
      <g style="fill: #262626" transform="translate(279.327045 317.376406) scale(0.11 -0.11)">
       <defs>
        <path id="DejaVuSans-33" d="M 2597 2516 
Q 3050 2419 3304 2112 
Q 3559 1806 3559 1356 
Q 3559 666 3084 287 
Q 2609 -91 1734 -91 
Q 1441 -91 1130 -33 
Q 819 25 488 141 
L 488 750 
Q 750 597 1062 519 
Q 1375 441 1716 441 
Q 2309 441 2620 675 
Q 2931 909 2931 1356 
Q 2931 1769 2642 2001 
Q 2353 2234 1838 2234 
L 1294 2234 
L 1294 2753 
L 1863 2753 
Q 2328 2753 2575 2939 
Q 2822 3125 2822 3475 
Q 2822 3834 2567 4026 
Q 2313 4219 1838 4219 
Q 1578 4219 1281 4162 
Q 984 4106 628 3988 
L 628 4550 
Q 988 4650 1302 4700 
Q 1616 4750 1894 4750 
Q 2613 4750 3031 4423 
Q 3450 4097 3450 3541 
Q 3450 3153 3228 2886 
Q 3006 2619 2597 2516 
z
" transform="scale(0.015625)"/>
       </defs>
       <use xlink:href="#DejaVuSans-33"/>
       <use xlink:href="#DejaVuSans-30" transform="translate(63.623047 0)"/>
      </g>
     </g>
    </g>
    <g id="xtick_5">
     <g id="line2d_5">
      <path d="M 344.291192 299.518125 
L 344.291192 22.318125 
" clip-path="url(#p674338103e)" style="fill: none; stroke: #cccccc; stroke-linecap: round"/>
     </g>
     <g id="text_5">
      <!-- 40 -->
      <g style="fill: #262626" transform="translate(337.292442 317.376406) scale(0.11 -0.11)">
       <defs>
        <path id="DejaVuSans-34" d="M 2419 4116 
L 825 1625 
L 2419 1625 
L 2419 4116 
z
M 2253 4666 
L 3047 4666 
L 3047 1625 
L 3713 1625 
L 3713 1100 
L 3047 1100 
L 3047 0 
L 2419 0 
L 2419 1100 
L 313 1100 
L 313 1709 
L 2253 4666 
z
" transform="scale(0.015625)"/>
       </defs>
       <use xlink:href="#DejaVuSans-34"/>
       <use xlink:href="#DejaVuSans-30" transform="translate(63.623047 0)"/>
      </g>
     </g>
    </g>
    <g id="xtick_6">
     <g id="line2d_6">
      <path d="M 402.256589 299.518125 
L 402.256589 22.318125 
" clip-path="url(#p674338103e)" style="fill: none; stroke: #cccccc; stroke-linecap: round"/>
     </g>
     <g id="text_6">
      <!-- 50 -->
      <g style="fill: #262626" transform="translate(395.257839 317.376406) scale(0.11 -0.11)">
       <defs>
        <path id="DejaVuSans-35" d="M 691 4666 
L 3169 4666 
L 3169 4134 
L 1269 4134 
L 1269 2991 
Q 1406 3038 1543 3061 
Q 1681 3084 1819 3084 
Q 2600 3084 3056 2656 
Q 3513 2228 3513 1497 
Q 3513 744 3044 326 
Q 2575 -91 1722 -91 
Q 1428 -91 1123 -41 
Q 819 9 494 109 
L 494 744 
Q 775 591 1075 516 
Q 1375 441 1709 441 
Q 2250 441 2565 725 
Q 2881 1009 2881 1497 
Q 2881 1984 2565 2268 
Q 2250 2553 1709 2553 
Q 1456 2553 1204 2497 
Q 953 2441 691 2322 
L 691 4666 
z
" transform="scale(0.015625)"/>
       </defs>
       <use xlink:href="#DejaVuSans-35"/>
       <use xlink:href="#DejaVuSans-30" transform="translate(63.623047 0)"/>
      </g>
     </g>
    </g>
    <g id="xtick_7">
     <g id="line2d_7">
      <path d="M 460.221987 299.518125 
L 460.221987 22.318125 
" clip-path="url(#p674338103e)" style="fill: none; stroke: #cccccc; stroke-linecap: round"/>
     </g>
     <g id="text_7">
      <!-- 60 -->
      <g style="fill: #262626" transform="translate(453.223237 317.376406) scale(0.11 -0.11)">
       <defs>
        <path id="DejaVuSans-36" d="M 2113 2584 
Q 1688 2584 1439 2293 
Q 1191 2003 1191 1497 
Q 1191 994 1439 701 
Q 1688 409 2113 409 
Q 2538 409 2786 701 
Q 3034 994 3034 1497 
Q 3034 2003 2786 2293 
Q 2538 2584 2113 2584 
z
M 3366 4563 
L 3366 3988 
Q 3128 4100 2886 4159 
Q 2644 4219 2406 4219 
Q 1781 4219 1451 3797 
Q 1122 3375 1075 2522 
Q 1259 2794 1537 2939 
Q 1816 3084 2150 3084 
Q 2853 3084 3261 2657 
Q 3669 2231 3669 1497 
Q 3669 778 3244 343 
Q 2819 -91 2113 -91 
Q 1303 -91 875 529 
Q 447 1150 447 2328 
Q 447 3434 972 4092 
Q 1497 4750 2381 4750 
Q 2619 4750 2861 4703 
Q 3103 4656 3366 4563 
z
" transform="scale(0.015625)"/>
       </defs>
       <use xlink:href="#DejaVuSans-36"/>
       <use xlink:href="#DejaVuSans-30" transform="translate(63.623047 0)"/>
      </g>
     </g>
    </g>
    <g id="text_8">
     <!-- FE -->
     <g style="fill: #262626" transform="translate(272.76375 332.782188) scale(0.12 -0.12)">
      <defs>
       <path id="DejaVuSans-46" d="M 628 4666 
L 3309 4666 
L 3309 4134 
L 1259 4134 
L 1259 2759 
L 3109 2759 
L 3109 2228 
L 1259 2228 
L 1259 0 
L 628 0 
L 628 4666 
z
" transform="scale(0.015625)"/>
       <path id="DejaVuSans-45" d="M 628 4666 
L 3578 4666 
L 3578 4134 
L 1259 4134 
L 1259 2753 
L 3481 2753 
L 3481 2222 
L 1259 2222 
L 1259 531 
L 3634 531 
L 3634 0 
L 628 0 
L 628 4666 
z
" transform="scale(0.015625)"/>
      </defs>
      <use xlink:href="#DejaVuSans-46"/>
      <use xlink:href="#DejaVuSans-45" transform="translate(57.519531 0)"/>
     </g>
    </g>
   </g>
   <g id="matplotlib.axis_2">
    <g id="ytick_1">
     <g id="line2d_8">
      <path d="M 56.805938 299.518125 
L 503.205938 299.518125 
" clip-path="url(#p674338103e)" style="fill: none; stroke: #cccccc; stroke-linecap: round"/>
     </g>
     <g id="text_9">
      <!-- 0.00 -->
      <g style="fill: #262626" transform="translate(22.81375 303.697266) scale(0.11 -0.11)">
       <defs>
        <path id="DejaVuSans-2e" d="M 684 794 
L 1344 794 
L 1344 0 
L 684 0 
L 684 794 
z
" transform="scale(0.015625)"/>
       </defs>
       <use xlink:href="#DejaVuSans-30"/>
       <use xlink:href="#DejaVuSans-2e" transform="translate(63.623047 0)"/>
       <use xlink:href="#DejaVuSans-30" transform="translate(95.410156 0)"/>
       <use xlink:href="#DejaVuSans-30" transform="translate(159.033203 0)"/>
      </g>
     </g>
    </g>
    <g id="ytick_2">
     <g id="line2d_9">
      <path d="M 56.805938 240.597642 
L 503.205938 240.597642 
" clip-path="url(#p674338103e)" style="fill: none; stroke: #cccccc; stroke-linecap: round"/>
     </g>
     <g id="text_10">
      <!-- 0.02 -->
      <g style="fill: #262626" transform="translate(22.81375 244.776783) scale(0.11 -0.11)">
       <use xlink:href="#DejaVuSans-30"/>
       <use xlink:href="#DejaVuSans-2e" transform="translate(63.623047 0)"/>
       <use xlink:href="#DejaVuSans-30" transform="translate(95.410156 0)"/>
       <use xlink:href="#DejaVuSans-32" transform="translate(159.033203 0)"/>
      </g>
     </g>
    </g>
    <g id="ytick_3">
     <g id="line2d_10">
      <path d="M 56.805938 181.677159 
L 503.205938 181.677159 
" clip-path="url(#p674338103e)" style="fill: none; stroke: #cccccc; stroke-linecap: round"/>
     </g>
     <g id="text_11">
      <!-- 0.04 -->
      <g style="fill: #262626" transform="translate(22.81375 185.8563) scale(0.11 -0.11)">
       <use xlink:href="#DejaVuSans-30"/>
       <use xlink:href="#DejaVuSans-2e" transform="translate(63.623047 0)"/>
       <use xlink:href="#DejaVuSans-30" transform="translate(95.410156 0)"/>
       <use xlink:href="#DejaVuSans-34" transform="translate(159.033203 0)"/>
      </g>
     </g>
    </g>
    <g id="ytick_4">
     <g id="line2d_11">
      <path d="M 56.805938 122.756677 
L 503.205938 122.756677 
" clip-path="url(#p674338103e)" style="fill: none; stroke: #cccccc; stroke-linecap: round"/>
     </g>
     <g id="text_12">
      <!-- 0.06 -->
      <g style="fill: #262626" transform="translate(22.81375 126.935817) scale(0.11 -0.11)">
       <use xlink:href="#DejaVuSans-30"/>
       <use xlink:href="#DejaVuSans-2e" transform="translate(63.623047 0)"/>
       <use xlink:href="#DejaVuSans-30" transform="translate(95.410156 0)"/>
       <use xlink:href="#DejaVuSans-36" transform="translate(159.033203 0)"/>
      </g>
     </g>
    </g>
    <g id="ytick_5">
     <g id="line2d_12">
      <path d="M 56.805938 63.836194 
L 503.205938 63.836194 
" clip-path="url(#p674338103e)" style="fill: none; stroke: #cccccc; stroke-linecap: round"/>
     </g>
     <g id="text_13">
      <!-- 0.08 -->
      <g style="fill: #262626" transform="translate(22.81375 68.015335) scale(0.11 -0.11)">
       <defs>
        <path id="DejaVuSans-38" d="M 2034 2216 
Q 1584 2216 1326 1975 
Q 1069 1734 1069 1313 
Q 1069 891 1326 650 
Q 1584 409 2034 409 
Q 2484 409 2743 651 
Q 3003 894 3003 1313 
Q 3003 1734 2745 1975 
Q 2488 2216 2034 2216 
z
M 1403 2484 
Q 997 2584 770 2862 
Q 544 3141 544 3541 
Q 544 4100 942 4425 
Q 1341 4750 2034 4750 
Q 2731 4750 3128 4425 
Q 3525 4100 3525 3541 
Q 3525 3141 3298 2862 
Q 3072 2584 2669 2484 
Q 3125 2378 3379 2068 
Q 3634 1759 3634 1313 
Q 3634 634 3220 271 
Q 2806 -91 2034 -91 
Q 1263 -91 848 271 
Q 434 634 434 1313 
Q 434 1759 690 2068 
Q 947 2378 1403 2484 
z
M 1172 3481 
Q 1172 3119 1398 2916 
Q 1625 2713 2034 2713 
Q 2441 2713 2670 2916 
Q 2900 3119 2900 3481 
Q 2900 3844 2670 4047 
Q 2441 4250 2034 4250 
Q 1625 4250 1398 4047 
Q 1172 3844 1172 3481 
z
" transform="scale(0.015625)"/>
       </defs>
       <use xlink:href="#DejaVuSans-30"/>
       <use xlink:href="#DejaVuSans-2e" transform="translate(63.623047 0)"/>
       <use xlink:href="#DejaVuSans-30" transform="translate(95.410156 0)"/>
       <use xlink:href="#DejaVuSans-38" transform="translate(159.033203 0)"/>
      </g>
     </g>
    </g>
    <g id="text_14">
     <!-- Density -->
     <g style="fill: #262626" transform="translate(16.318125 183.728438) rotate(-90) scale(0.12 -0.12)">
      <defs>
       <path id="DejaVuSans-44" d="M 1259 4147 
L 1259 519 
L 2022 519 
Q 2988 519 3436 956 
Q 3884 1394 3884 2338 
Q 3884 3275 3436 3711 
Q 2988 4147 2022 4147 
L 1259 4147 
z
M 628 4666 
L 1925 4666 
Q 3281 4666 3915 4102 
Q 4550 3538 4550 2338 
Q 4550 1131 3912 565 
Q 3275 0 1925 0 
L 628 0 
L 628 4666 
z
" transform="scale(0.015625)"/>
       <path id="DejaVuSans-65" d="M 3597 1894 
L 3597 1613 
L 953 1613 
Q 991 1019 1311 708 
Q 1631 397 2203 397 
Q 2534 397 2845 478 
Q 3156 559 3463 722 
L 3463 178 
Q 3153 47 2828 -22 
Q 2503 -91 2169 -91 
Q 1331 -91 842 396 
Q 353 884 353 1716 
Q 353 2575 817 3079 
Q 1281 3584 2069 3584 
Q 2775 3584 3186 3129 
Q 3597 2675 3597 1894 
z
M 3022 2063 
Q 3016 2534 2758 2815 
Q 2500 3097 2075 3097 
Q 1594 3097 1305 2825 
Q 1016 2553 972 2059 
L 3022 2063 
z
" transform="scale(0.015625)"/>
       <path id="DejaVuSans-6e" d="M 3513 2113 
L 3513 0 
L 2938 0 
L 2938 2094 
Q 2938 2591 2744 2837 
Q 2550 3084 2163 3084 
Q 1697 3084 1428 2787 
Q 1159 2491 1159 1978 
L 1159 0 
L 581 0 
L 581 3500 
L 1159 3500 
L 1159 2956 
Q 1366 3272 1645 3428 
Q 1925 3584 2291 3584 
Q 2894 3584 3203 3211 
Q 3513 2838 3513 2113 
z
" transform="scale(0.015625)"/>
       <path id="DejaVuSans-73" d="M 2834 3397 
L 2834 2853 
Q 2591 2978 2328 3040 
Q 2066 3103 1784 3103 
Q 1356 3103 1142 2972 
Q 928 2841 928 2578 
Q 928 2378 1081 2264 
Q 1234 2150 1697 2047 
L 1894 2003 
Q 2506 1872 2764 1633 
Q 3022 1394 3022 966 
Q 3022 478 2636 193 
Q 2250 -91 1575 -91 
Q 1294 -91 989 -36 
Q 684 19 347 128 
L 347 722 
Q 666 556 975 473 
Q 1284 391 1588 391 
Q 1994 391 2212 530 
Q 2431 669 2431 922 
Q 2431 1156 2273 1281 
Q 2116 1406 1581 1522 
L 1381 1569 
Q 847 1681 609 1914 
Q 372 2147 372 2553 
Q 372 3047 722 3315 
Q 1072 3584 1716 3584 
Q 2034 3584 2315 3537 
Q 2597 3491 2834 3397 
z
" transform="scale(0.015625)"/>
       <path id="DejaVuSans-69" d="M 603 3500 
L 1178 3500 
L 1178 0 
L 603 0 
L 603 3500 
z
M 603 4863 
L 1178 4863 
L 1178 4134 
L 603 4134 
L 603 4863 
z
" transform="scale(0.015625)"/>
       <path id="DejaVuSans-74" d="M 1172 4494 
L 1172 3500 
L 2356 3500 
L 2356 3053 
L 1172 3053 
L 1172 1153 
Q 1172 725 1289 603 
Q 1406 481 1766 481 
L 2356 481 
L 2356 0 
L 1766 0 
Q 1100 0 847 248 
Q 594 497 594 1153 
L 594 3053 
L 172 3053 
L 172 3500 
L 594 3500 
L 594 4494 
L 1172 4494 
z
" transform="scale(0.015625)"/>
       <path id="DejaVuSans-79" d="M 2059 -325 
Q 1816 -950 1584 -1140 
Q 1353 -1331 966 -1331 
L 506 -1331 
L 506 -850 
L 844 -850 
Q 1081 -850 1212 -737 
Q 1344 -625 1503 -206 
L 1606 56 
L 191 3500 
L 800 3500 
L 1894 763 
L 2988 3500 
L 3597 3500 
L 2059 -325 
z
" transform="scale(0.015625)"/>
      </defs>
      <use xlink:href="#DejaVuSans-44"/>
      <use xlink:href="#DejaVuSans-65" transform="translate(77.001953 0)"/>
      <use xlink:href="#DejaVuSans-6e" transform="translate(138.525391 0)"/>
      <use xlink:href="#DejaVuSans-73" transform="translate(201.904297 0)"/>
      <use xlink:href="#DejaVuSans-69" transform="translate(254.003906 0)"/>
      <use xlink:href="#DejaVuSans-74" transform="translate(281.787109 0)"/>
      <use xlink:href="#DejaVuSans-79" transform="translate(320.996094 0)"/>
     </g>
    </g>
   </g>
   <g id="FillBetweenPolyCollection_2">
    <defs>
     <path id="mec59d5e217" d="M 77.096847 -42.9622 
L 77.096847 -42.959688 
L 79.136134 -42.959688 
L 81.175421 -42.959688 
L 83.214709 -42.959688 
L 85.253996 -42.959688 
L 87.293283 -42.959688 
L 89.332571 -42.959688 
L 91.371858 -42.959688 
L 93.411145 -42.959688 
L 95.450433 -42.959688 
L 97.48972 -42.959688 
L 99.529007 -42.959688 
L 101.568295 -42.959688 
L 103.607582 -42.959688 
L 105.646869 -42.959688 
L 107.686157 -42.959688 
L 109.725444 -42.959688 
L 111.764731 -42.959688 
L 113.804019 -42.959688 
L 115.843306 -42.959688 
L 117.882594 -42.959688 
L 119.921881 -42.959688 
L 121.961168 -42.959688 
L 124.000456 -42.959688 
L 126.039743 -42.959688 
L 128.07903 -42.959688 
L 130.118318 -42.959688 
L 132.157605 -42.959688 
L 134.196892 -42.959688 
L 136.23618 -42.959688 
L 138.275467 -42.959688 
L 140.314754 -42.959688 
L 142.354042 -42.959688 
L 144.393329 -42.959688 
L 146.432616 -42.959688 
L 148.471904 -42.959688 
L 150.511191 -42.959688 
L 152.550478 -42.959688 
L 154.589766 -42.959688 
L 156.629053 -42.959688 
L 158.66834 -42.959688 
L 160.707628 -42.959688 
L 162.746915 -42.959688 
L 164.786202 -42.959688 
L 166.82549 -42.959688 
L 168.864777 -42.959688 
L 170.904064 -42.959688 
L 172.943352 -42.959688 
L 174.982639 -42.959688 
L 177.021927 -42.959688 
L 179.061214 -42.959688 
L 181.100501 -42.959688 
L 183.139789 -42.959688 
L 185.179076 -42.959688 
L 187.218363 -42.959688 
L 189.257651 -42.959688 
L 191.296938 -42.959688 
L 193.336225 -42.959688 
L 195.375513 -42.959688 
L 197.4148 -42.959688 
L 199.454087 -42.959688 
L 201.493375 -42.959688 
L 203.532662 -42.959688 
L 205.571949 -42.959688 
L 207.611237 -42.959688 
L 209.650524 -42.959688 
L 211.689811 -42.959688 
L 213.729099 -42.959688 
L 215.768386 -42.959688 
L 217.807673 -42.959688 
L 219.846961 -42.959688 
L 221.886248 -42.959688 
L 223.925535 -42.959688 
L 225.964823 -42.959688 
L 228.00411 -42.959688 
L 230.043398 -42.959688 
L 232.082685 -42.959688 
L 234.121972 -42.959688 
L 236.16126 -42.959688 
L 238.200547 -42.959688 
L 240.239834 -42.959688 
L 242.279122 -42.959688 
L 244.318409 -42.959688 
L 246.357696 -42.959688 
L 248.396984 -42.959688 
L 250.436271 -42.959688 
L 252.475558 -42.959688 
L 254.514846 -42.959688 
L 256.554133 -42.959688 
L 258.59342 -42.959688 
L 260.632708 -42.959688 
L 262.671995 -42.959688 
L 264.711282 -42.959688 
L 266.75057 -42.959688 
L 268.789857 -42.959688 
L 270.829144 -42.959688 
L 272.868432 -42.959688 
L 274.907719 -42.959688 
L 276.947006 -42.959688 
L 278.986294 -42.959688 
L 281.025581 -42.959688 
L 283.064869 -42.959688 
L 285.104156 -42.959688 
L 287.143443 -42.959688 
L 289.182731 -42.959688 
L 291.222018 -42.959688 
L 293.261305 -42.959688 
L 295.300593 -42.959688 
L 297.33988 -42.959688 
L 299.379167 -42.959688 
L 301.418455 -42.959688 
L 303.457742 -42.959688 
L 305.497029 -42.959688 
L 307.536317 -42.959688 
L 309.575604 -42.959688 
L 311.614891 -42.959688 
L 313.654179 -42.959688 
L 315.693466 -42.959688 
L 317.732753 -42.959688 
L 319.772041 -42.959688 
L 321.811328 -42.959688 
L 323.850615 -42.959688 
L 325.889903 -42.959688 
L 327.92919 -42.959688 
L 329.968477 -42.959688 
L 332.007765 -42.959688 
L 334.047052 -42.959688 
L 336.08634 -42.959688 
L 338.125627 -42.959688 
L 340.164914 -42.959688 
L 342.204202 -42.959688 
L 344.243489 -42.959688 
L 346.282776 -42.959688 
L 348.322064 -42.959688 
L 350.361351 -42.959688 
L 352.400638 -42.959688 
L 354.439926 -42.959688 
L 356.479213 -42.959688 
L 358.5185 -42.959688 
L 360.557788 -42.959688 
L 362.597075 -42.959688 
L 364.636362 -42.959688 
L 366.67565 -42.959688 
L 368.714937 -42.959688 
L 370.754224 -42.959688 
L 372.793512 -42.959688 
L 374.832799 -42.959688 
L 376.872086 -42.959688 
L 378.911374 -42.959688 
L 380.950661 -42.959688 
L 382.989948 -42.959688 
L 385.029236 -42.959688 
L 387.068523 -42.959688 
L 389.107811 -42.959688 
L 391.147098 -42.959688 
L 393.186385 -42.959688 
L 395.225673 -42.959688 
L 397.26496 -42.959688 
L 399.304247 -42.959688 
L 401.343535 -42.959688 
L 403.382822 -42.959688 
L 405.422109 -42.959688 
L 407.461397 -42.959688 
L 409.500684 -42.959688 
L 411.539971 -42.959688 
L 413.579259 -42.959688 
L 415.618546 -42.959688 
L 417.657833 -42.959688 
L 419.697121 -42.959688 
L 421.736408 -42.959688 
L 423.775695 -42.959688 
L 425.814983 -42.959688 
L 427.85427 -42.959688 
L 429.893557 -42.959688 
L 431.932845 -42.959688 
L 433.972132 -42.959688 
L 436.011419 -42.959688 
L 438.050707 -42.959688 
L 440.089994 -42.959688 
L 442.129281 -42.959688 
L 444.168569 -42.959688 
L 446.207856 -42.959688 
L 448.247144 -42.959688 
L 450.286431 -42.959688 
L 452.325718 -42.959688 
L 454.365006 -42.959688 
L 456.404293 -42.959688 
L 458.44358 -42.959688 
L 460.482868 -42.959688 
L 462.522155 -42.959688 
L 464.561442 -42.959688 
L 466.60073 -42.959688 
L 468.640017 -42.959688 
L 470.679304 -42.959688 
L 472.718592 -42.959688 
L 474.757879 -42.959688 
L 476.797166 -42.959688 
L 478.836454 -42.959688 
L 480.875741 -42.959688 
L 482.915028 -42.959688 
L 482.915028 -42.960911 
L 482.915028 -42.960911 
L 480.875741 -42.961703 
L 478.836454 -42.96294 
L 476.797166 -42.964835 
L 474.757879 -42.967685 
L 472.718592 -42.971896 
L 470.679304 -42.978015 
L 468.640017 -42.986773 
L 466.60073 -42.999129 
L 464.561442 -43.01633 
L 462.522155 -43.039973 
L 460.482868 -43.072077 
L 458.44358 -43.115147 
L 456.404293 -43.172233 
L 454.365006 -43.246957 
L 452.325718 -43.34351 
L 450.286431 -43.466589 
L 448.247144 -43.621263 
L 446.207856 -43.812778 
L 444.168569 -44.046286 
L 442.129281 -44.326522 
L 440.089994 -44.657468 
L 438.050707 -45.042013 
L 436.011419 -45.481677 
L 433.972132 -45.976413 
L 431.932845 -46.524521 
L 429.893557 -47.122678 
L 427.85427 -47.766072 
L 425.814983 -48.448619 
L 423.775695 -49.163225 
L 421.736408 -49.902051 
L 419.697121 -50.656764 
L 417.657833 -51.418762 
L 415.618546 -52.179371 
L 413.579259 -52.930052 
L 411.539971 -53.662632 
L 409.500684 -54.369607 
L 407.461397 -55.044508 
L 405.422109 -55.682329 
L 403.382822 -56.27997 
L 401.343535 -56.836632 
L 399.304247 -57.354089 
L 397.26496 -57.836751 
L 395.225673 -58.291465 
L 393.186385 -58.727027 
L 391.147098 -59.153409 
L 389.107811 -59.580774 
L 387.068523 -60.018374 
L 385.029236 -60.473463 
L 382.989948 -60.95037 
L 380.950661 -61.449886 
L 378.911374 -61.969053 
L 376.872086 -62.501427 
L 374.832799 -63.037794 
L 372.793512 -63.567267 
L 370.754224 -64.078597 
L 368.714937 -64.561524 
L 366.67565 -65.007957 
L 364.636362 -65.41279 
L 362.597075 -65.774257 
L 360.557788 -66.093745 
L 358.5185 -66.375147 
L 356.479213 -66.623852 
L 354.439926 -66.845592 
L 352.400638 -67.045327 
L 350.361351 -67.226402 
L 348.322064 -67.390107 
L 346.282776 -67.535716 
L 344.243489 -67.660996 
L 342.204202 -67.763057 
L 340.164914 -67.839386 
L 338.125627 -67.888832 
L 336.08634 -67.912347 
L 334.047052 -67.913305 
L 332.007765 -67.897323 
L 329.968477 -67.871585 
L 327.92919 -67.843783 
L 325.889903 -67.82085 
L 323.850615 -67.807715 
L 321.811328 -67.806313 
L 319.772041 -67.815026 
L 317.732753 -67.828693 
L 315.693466 -67.8392 
L 313.654179 -67.836571 
L 311.614891 -67.810409 
L 309.575604 -67.751459 
L 307.536317 -67.653039 
L 305.497029 -67.512135 
L 303.457742 -67.329968 
L 301.418455 -67.111973 
L 299.379167 -66.867206 
L 297.33988 -66.607302 
L 295.300593 -66.345169 
L 293.261305 -66.093669 
L 291.222018 -65.864488 
L 289.182731 -65.667382 
L 287.143443 -65.509883 
L 285.104156 -65.397451 
L 283.064869 -65.333985 
L 281.025581 -65.3225 
L 278.986294 -65.365803 
L 276.947006 -65.466964 
L 274.907719 -65.629482 
L 272.868432 -65.857101 
L 270.829144 -66.153349 
L 268.789857 -66.52092 
L 266.75057 -66.961081 
L 264.711282 -67.473273 
L 262.671995 -68.055011 
L 260.632708 -68.702115 
L 258.59342 -69.40922 
L 256.554133 -70.17041 
L 254.514846 -70.979825 
L 252.475558 -71.832083 
L 250.436271 -72.722415 
L 248.396984 -73.646557 
L 246.357696 -74.600473 
L 244.318409 -75.580119 
L 242.279122 -76.581447 
L 240.239834 -77.600797 
L 238.200547 -78.63576 
L 236.16126 -79.686432 
L 234.121972 -80.756851 
L 232.082685 -81.856345 
L 230.043398 -83.000434 
L 228.00411 -84.211039 
L 225.964823 -85.515828 
L 223.925535 -86.946704 
L 221.886248 -88.537621 
L 219.846961 -90.322029 
L 217.807673 -92.330339 
L 215.768386 -94.58779 
L 213.729099 -97.113011 
L 211.689811 -99.917458 
L 209.650524 -103.00575 
L 207.611237 -106.376786 
L 205.571949 -110.02544 
L 203.532662 -113.944571 
L 201.493375 -118.127069 
L 199.454087 -122.567732 
L 197.4148 -127.264779 
L 195.375513 -132.220904 
L 193.336225 -137.443801 
L 191.296938 -142.946144 
L 189.257651 -148.74498 
L 187.218363 -154.860496 
L 185.179076 -161.314048 
L 183.139789 -168.125279 
L 181.100501 -175.308122 
L 179.061214 -182.86549 
L 177.021927 -190.78252 
L 174.982639 -199.018483 
L 172.943352 -207.497776 
L 170.904064 -216.100819 
L 168.864777 -224.656182 
L 166.82549 -232.9356 
L 164.786202 -240.653772 
L 162.746915 -247.474709 
L 160.707628 -253.025868 
L 158.66834 -256.920405 
L 156.629053 -258.786564 
L 154.589766 -258.301836 
L 152.550478 -255.22818 
L 150.511191 -249.443741 
L 148.471904 -240.966297 
L 146.432616 -229.964331 
L 144.393329 -216.753097 
L 142.354042 -201.775179 
L 140.314754 -185.567351 
L 138.275467 -168.717695 
L 136.23618 -151.818411 
L 134.196892 -135.420296 
L 132.157605 -119.994372 
L 130.118318 -105.90477 
L 128.07903 -93.394994 
L 126.039743 -82.58757 
L 124.000456 -73.495225 
L 121.961168 -66.040407 
L 119.921881 -60.079397 
L 117.882594 -55.427329 
L 115.843306 -51.881137 
L 113.804019 -49.238363 
L 111.764731 -47.310859 
L 109.725444 -45.933297 
L 107.686157 -44.967118 
L 105.646869 -44.300906 
L 103.607582 -43.848334 
L 101.568295 -43.544715 
L 99.529007 -43.343031 
L 97.48972 -43.210021 
L 95.450433 -43.122712 
L 93.411145 -43.065553 
L 91.371858 -43.028184 
L 89.332571 -43.003781 
L 87.293283 -42.987873 
L 85.253996 -42.97754 
L 83.214709 -42.970867 
L 81.175421 -42.966594 
L 79.136134 -42.963889 
L 77.096847 -42.9622 
z
" style="stroke: #ff0000"/>
    </defs>
    <g clip-path="url(#p674338103e)">
     <use xlink:href="#mec59d5e217" x="0" y="342.477813" style="fill: #ff0000; fill-opacity: 0.3; stroke: #ff0000"/>
    </g>
   </g>
   <g id="line2d_13">
    <path d="M 94.997282 299.481698 
L 100.26675 299.338278 
L 103.779729 299.040819 
L 105.536218 298.761076 
L 107.292708 298.338684 
L 109.049197 297.71329 
L 110.805687 296.805448 
L 112.562176 295.513584 
L 114.318665 293.7118 
L 116.075155 291.249202 
L 117.831644 287.951531 
L 119.588134 283.62584 
L 121.344623 278.068871 
L 123.101113 271.079437 
L 124.857602 262.474715 
L 126.614091 252.109701 
L 128.370581 239.898466 
L 130.12707 225.835192 
L 131.88356 210.012466 
L 133.640049 192.634147 
L 137.153028 154.601836 
L 140.666007 115.525107 
L 142.422496 97.089881 
L 144.178986 80.22001 
L 145.935475 65.485539 
L 147.691964 53.366007 
L 149.448454 44.217455 
L 151.204943 38.249994 
L 152.961433 35.518125 
L 154.717922 35.92445 
L 156.474412 39.235745 
L 158.230901 45.108987 
L 159.98739 53.1239 
L 161.74388 62.818182 
L 163.500369 73.721637 
L 168.769837 109.4484 
L 172.282816 132.561292 
L 175.795795 153.36802 
L 177.552285 162.740551 
L 179.308774 171.42332 
L 181.065263 179.448929 
L 182.821753 186.865718 
L 184.578242 193.72969 
L 186.334732 200.098212 
L 188.091221 206.025417 
L 191.6042 216.739083 
L 195.117179 226.152647 
L 198.630158 234.41435 
L 200.386647 238.130264 
L 202.143136 241.570573 
L 203.899626 244.734498 
L 205.656115 247.622378 
L 207.412605 250.237339 
L 209.169094 252.586534 
L 210.925584 254.681835 
L 212.682073 256.539916 
L 214.438562 258.181756 
L 216.195052 259.631629 
L 217.951541 260.915737 
L 221.46452 263.09181 
L 224.977499 264.900892 
L 228.490478 266.480675 
L 233.759946 268.563011 
L 239.029414 270.322882 
L 242.542393 271.29589 
L 246.055372 272.103459 
L 251.32484 273.028601 
L 256.594308 273.660417 
L 261.863777 274.037175 
L 267.133245 274.163262 
L 272.402713 274.02224 
L 277.672182 273.598197 
L 282.94165 272.905978 
L 296.993565 270.776778 
L 300.506544 270.568349 
L 304.019523 270.621635 
L 307.532502 270.95929 
L 311.04548 271.570529 
L 314.558459 272.414014 
L 319.827928 273.964738 
L 328.610375 276.608855 
L 333.879843 277.868449 
L 339.149311 278.834689 
L 361.983674 282.516888 
L 367.253142 283.667758 
L 370.766121 284.610744 
L 374.2791 285.724843 
L 379.548568 287.695392 
L 395.356973 294.076406 
L 400.626441 295.761986 
L 404.13942 296.68909 
L 407.652399 297.457168 
L 412.921867 298.32574 
L 418.191335 298.89397 
L 423.460803 299.22668 
L 430.486761 299.4315 
L 442.782187 299.51244 
L 444.538676 299.514519 
L 444.538676 299.514519 
" clip-path="url(#p674338103e)" style="fill: none; stroke: #000000; stroke-linecap: round"/>
   </g>
   <g id="patch_3">
    <path d="M 56.805938 299.518125 
L 56.805938 22.318125 
" style="fill: none; stroke: #cccccc; stroke-width: 1.25; stroke-linejoin: miter; stroke-linecap: square"/>
   </g>
   <g id="patch_4">
    <path d="M 503.205938 299.518125 
L 503.205938 22.318125 
" style="fill: none; stroke: #cccccc; stroke-width: 1.25; stroke-linejoin: miter; stroke-linecap: square"/>
   </g>
   <g id="patch_5">
    <path d="M 56.805938 299.518125 
L 503.205937 299.518125 
" style="fill: none; stroke: #cccccc; stroke-width: 1.25; stroke-linejoin: miter; stroke-linecap: square"/>
   </g>
   <g id="patch_6">
    <path d="M 56.805938 22.318125 
L 503.205937 22.318125 
" style="fill: none; stroke: #cccccc; stroke-width: 1.25; stroke-linejoin: miter; stroke-linecap: square"/>
   </g>
   <g id="text_15">
    <!-- Density Plot FE -->
    <g style="fill: #262626" transform="translate(234.831563 16.318125) scale(0.12 -0.12)">
     <defs>
      <path id="DejaVuSans-20" transform="scale(0.015625)"/>
      <path id="DejaVuSans-50" d="M 1259 4147 
L 1259 2394 
L 2053 2394 
Q 2494 2394 2734 2622 
Q 2975 2850 2975 3272 
Q 2975 3691 2734 3919 
Q 2494 4147 2053 4147 
L 1259 4147 
z
M 628 4666 
L 2053 4666 
Q 2838 4666 3239 4311 
Q 3641 3956 3641 3272 
Q 3641 2581 3239 2228 
Q 2838 1875 2053 1875 
L 1259 1875 
L 1259 0 
L 628 0 
L 628 4666 
z
" transform="scale(0.015625)"/>
      <path id="DejaVuSans-6c" d="M 603 4863 
L 1178 4863 
L 1178 0 
L 603 0 
L 603 4863 
z
" transform="scale(0.015625)"/>
      <path id="DejaVuSans-6f" d="M 1959 3097 
Q 1497 3097 1228 2736 
Q 959 2375 959 1747 
Q 959 1119 1226 758 
Q 1494 397 1959 397 
Q 2419 397 2687 759 
Q 2956 1122 2956 1747 
Q 2956 2369 2687 2733 
Q 2419 3097 1959 3097 
z
M 1959 3584 
Q 2709 3584 3137 3096 
Q 3566 2609 3566 1747 
Q 3566 888 3137 398 
Q 2709 -91 1959 -91 
Q 1206 -91 779 398 
Q 353 888 353 1747 
Q 353 2609 779 3096 
Q 1206 3584 1959 3584 
z
" transform="scale(0.015625)"/>
     </defs>
     <use xlink:href="#DejaVuSans-44"/>
     <use xlink:href="#DejaVuSans-65" transform="translate(77.001953 0)"/>
     <use xlink:href="#DejaVuSans-6e" transform="translate(138.525391 0)"/>
     <use xlink:href="#DejaVuSans-73" transform="translate(201.904297 0)"/>
     <use xlink:href="#DejaVuSans-69" transform="translate(254.003906 0)"/>
     <use xlink:href="#DejaVuSans-74" transform="translate(281.787109 0)"/>
     <use xlink:href="#DejaVuSans-79" transform="translate(320.996094 0)"/>
     <use xlink:href="#DejaVuSans-20" transform="translate(380.175781 0)"/>
     <use xlink:href="#DejaVuSans-50" transform="translate(411.962891 0)"/>
     <use xlink:href="#DejaVuSans-6c" transform="translate(472.265625 0)"/>
     <use xlink:href="#DejaVuSans-6f" transform="translate(500.048828 0)"/>
     <use xlink:href="#DejaVuSans-74" transform="translate(561.230469 0)"/>
     <use xlink:href="#DejaVuSans-20" transform="translate(600.439453 0)"/>
     <use xlink:href="#DejaVuSans-46" transform="translate(632.226562 0)"/>
     <use xlink:href="#DejaVuSans-45" transform="translate(689.746094 0)"/>
    </g>
   </g>
   <g id="legend_1">
    <g id="patch_7">
     <path d="M 436.312187 63.41 
L 495.505938 63.41 
Q 497.705938 63.41 497.705938 61.21 
L 497.705938 30.018125 
Q 497.705938 27.818125 495.505938 27.818125 
L 436.312187 27.818125 
Q 434.112188 27.818125 434.112188 30.018125 
L 434.112188 61.21 
Q 434.112188 63.41 436.312187 63.41 
z
" style="fill: #ffffff; opacity: 0.8; stroke: #cccccc; stroke-linejoin: miter"/>
    </g>
    <g id="patch_8">
     <path d="M 438.512187 40.576406 
L 460.512187 40.576406 
L 460.512187 32.876406 
L 438.512187 32.876406 
z
" style="fill: #ff0000; fill-opacity: 0.3; stroke: #ff0000; stroke-linejoin: miter"/>
    </g>
    <g id="text_16">
     <!-- Old -->
     <g style="fill: #262626" transform="translate(469.312187 40.576406) scale(0.11 -0.11)">
      <defs>
       <path id="DejaVuSans-4f" d="M 2522 4238 
Q 1834 4238 1429 3725 
Q 1025 3213 1025 2328 
Q 1025 1447 1429 934 
Q 1834 422 2522 422 
Q 3209 422 3611 934 
Q 4013 1447 4013 2328 
Q 4013 3213 3611 3725 
Q 3209 4238 2522 4238 
z
M 2522 4750 
Q 3503 4750 4090 4092 
Q 4678 3434 4678 2328 
Q 4678 1225 4090 567 
Q 3503 -91 2522 -91 
Q 1538 -91 948 565 
Q 359 1222 359 2328 
Q 359 3434 948 4092 
Q 1538 4750 2522 4750 
z
" transform="scale(0.015625)"/>
       <path id="DejaVuSans-64" d="M 2906 2969 
L 2906 4863 
L 3481 4863 
L 3481 0 
L 2906 0 
L 2906 525 
Q 2725 213 2448 61 
Q 2172 -91 1784 -91 
Q 1150 -91 751 415 
Q 353 922 353 1747 
Q 353 2572 751 3078 
Q 1150 3584 1784 3584 
Q 2172 3584 2448 3432 
Q 2725 3281 2906 2969 
z
M 947 1747 
Q 947 1113 1208 752 
Q 1469 391 1925 391 
Q 2381 391 2643 752 
Q 2906 1113 2906 1747 
Q 2906 2381 2643 2742 
Q 2381 3103 1925 3103 
Q 1469 3103 1208 2742 
Q 947 2381 947 1747 
z
" transform="scale(0.015625)"/>
      </defs>
      <use xlink:href="#DejaVuSans-4f"/>
      <use xlink:href="#DejaVuSans-6c" transform="translate(78.710938 0)"/>
      <use xlink:href="#DejaVuSans-64" transform="translate(106.494141 0)"/>
     </g>
    </g>
    <g id="line2d_14">
     <path d="M 438.512187 52.872344 
L 449.512187 52.872344 
L 460.512187 52.872344 
" style="fill: none; stroke: #000000; stroke-linecap: round"/>
    </g>
    <g id="text_17">
     <!-- New -->
     <g style="fill: #262626" transform="translate(469.312187 56.722344) scale(0.11 -0.11)">
      <defs>
       <path id="DejaVuSans-4e" d="M 628 4666 
L 1478 4666 
L 3547 763 
L 3547 4666 
L 4159 4666 
L 4159 0 
L 3309 0 
L 1241 3903 
L 1241 0 
L 628 0 
L 628 4666 
z
" transform="scale(0.015625)"/>
       <path id="DejaVuSans-77" d="M 269 3500 
L 844 3500 
L 1563 769 
L 2278 3500 
L 2956 3500 
L 3675 769 
L 4391 3500 
L 4966 3500 
L 4050 0 
L 3372 0 
L 2619 2869 
L 1863 0 
L 1184 0 
L 269 3500 
z
" transform="scale(0.015625)"/>
      </defs>
      <use xlink:href="#DejaVuSans-4e"/>
      <use xlink:href="#DejaVuSans-65" transform="translate(74.804688 0)"/>
      <use xlink:href="#DejaVuSans-77" transform="translate(136.328125 0)"/>
     </g>
    </g>
   </g>
  </g>
 </g>
 <defs>
  <clipPath id="p674338103e">
   <rect x="56.805938" y="22.318125" width="446.4" height="277.2"/>
  </clipPath>
 </defs>
</svg>
