<?xml version="1.0" encoding="utf-8" standalone="no"?>
<!DOCTYPE svg PUBLIC "-//W3C//DTD SVG 1.1//EN"
  "http://www.w3.org/Graphics/SVG/1.1/DTD/svg11.dtd">
<svg xmlns:xlink="http://www.w3.org/1999/xlink" width="510.405937pt" height="342.477813pt" viewBox="0 0 510.405937 342.477813" xmlns="http://www.w3.org/2000/svg" version="1.1">
 <metadata>
  <rdf:RDF xmlns:dc="http://purl.org/dc/elements/1.1/" xmlns:cc="http://creativecommons.org/ns#" xmlns:rdf="http://www.w3.org/1999/02/22-rdf-syntax-ns#">
   <cc:Work>
    <dc:type rdf:resource="http://purl.org/dc/dcmitype/StillImage"/>
    <dc:date>2025-10-22T08:42:24.729485</dc:date>
    <dc:format>image/svg+xml</dc:format>
    <dc:creator>
     <cc:Agent>
      <dc:title>Matplotlib v3.10.6, https://matplotlib.org/</dc:title>
     </cc:Agent>
    </dc:creator>
   </cc:Work>
  </rdf:RDF>
 </metadata>
 <defs>
  <style type="text/css">*{stroke-linejoin: round; stroke-linecap: butt}</style>
 </defs>
 <g id="figure_1">
  <g id="patch_1">
   <path d="M 0 342.477813 
L 510.405937 342.477813 
L 510.405937 0 
L 0 0 
z
" style="fill: #ffffff"/>
  </g>
  <g id="axes_1">
   <g id="patch_2">
    <path d="M 56.805938 299.518125 
L 503.205938 299.518125 
L 503.205938 22.318125 
L 56.805938 22.318125 
z
" style="fill: #ffffff"/>
   </g>
   <g id="FillBetweenPolyCollection_1">
    <defs>
     <path id="m46bad71a14" d="M 77.096847 -42.959688 
L 77.096847 -43.327342 
L 78.094024 -43.486859 
L 79.091202 -43.706467 
L 80.08838 -44.004819 
L 81.085558 -44.404787 
L 82.082736 -44.933855 
L 83.079914 -45.624349 
L 84.077092 -46.513418 
L 85.07427 -47.642698 
L 86.071447 -49.057565 
L 87.068625 -50.805918 
L 88.065803 -52.936445 
L 89.062981 -55.496356 
L 90.060159 -58.528634 
L 91.057337 -62.068879 
L 92.054515 -66.1419 
L 93.051693 -70.758263 
L 94.04887 -75.911034 
L 95.046048 -81.573021 
L 96.043226 -87.694785 
L 97.040404 -94.20371 
L 98.037582 -101.004353 
L 99.03476 -107.98021 
L 100.031938 -114.996954 
L 101.029116 -121.90706 
L 102.026293 -128.555612 
L 103.023471 -134.786983 
L 104.020649 -140.451958 
L 105.017827 -145.414837 
L 106.015005 -149.560012 
L 107.012183 -152.79755 
L 108.009361 -155.067369 
L 109.006539 -156.341736 
L 110.003716 -156.625898 
L 111.000894 -155.956863 
L 111.998072 -154.400458 
L 112.99525 -152.046935 
L 113.992428 -149.005493 
L 114.989606 -145.398155 
L 115.986784 -141.353444 
L 116.983962 -137.000295 
L 117.981139 -132.462588 
L 118.978317 -127.854567 
L 119.975495 -123.277372 
L 120.972673 -118.816737 
L 121.969851 -114.541862 
L 122.967029 -110.505352 
L 123.964207 -106.744056 
L 124.961385 -103.280604 
L 125.958562 -100.125421 
L 126.95574 -97.278988 
L 127.952918 -94.734157 
L 128.950096 -92.478355 
L 129.947274 -90.495548 
L 130.944452 -88.767887 
L 131.94163 -87.276983 
L 132.938808 -86.004835 
L 133.935985 -84.934394 
L 134.933163 -84.049853 
L 135.930341 -83.33668 
L 136.927519 -82.781494 
L 137.924697 -82.371821 
L 138.921875 -82.095803 
L 139.919053 -81.941908 
L 140.916231 -81.898673 
L 141.913408 -81.954527 
L 142.910586 -82.097689 
L 143.907764 -82.316174 
L 144.904942 -82.597887 
L 145.90212 -82.930804 
L 146.899298 -83.303228 
L 147.896476 -83.704091 
L 148.893654 -84.123279 
L 149.890831 -84.551958 
L 150.888009 -84.982868 
L 151.885187 -85.41057 
L 152.882365 -85.831611 
L 153.879543 -86.244613 
L 154.876721 -86.650269 
L 155.873899 -87.05125 
L 156.871077 -87.452034 
L 157.868254 -87.85868 
L 158.865432 -88.278552 
L 159.86261 -88.720031 
L 160.859788 -89.192224 
L 161.856966 -89.704688 
L 162.854144 -90.267174 
L 163.851322 -90.889413 
L 164.8485 -91.58091 
L 165.845677 -92.350769 
L 166.842855 -93.207531 
L 167.840033 -94.15901 
L 168.837211 -95.212135 
L 169.834389 -96.372798 
L 170.831567 -97.645711 
L 171.828745 -99.034298 
L 172.825923 -100.540618 
L 173.8231 -102.165359 
L 174.820278 -103.907905 
L 175.817456 -105.766485 
L 176.814634 -107.738406 
L 177.811812 -109.820351 
L 178.80899 -112.008736 
L 179.806168 -114.300068 
L 180.803346 -116.691297 
L 181.800523 -119.180098 
L 182.797701 -121.765068 
L 183.794879 -124.445793 
L 184.792057 -127.222795 
L 185.789235 -130.097335 
L 186.786413 -133.07111 
L 187.783591 -136.145863 
L 188.780769 -139.322954 
L 189.777946 -142.602947 
L 190.775124 -145.98526 
L 191.772302 -149.467926 
L 192.76948 -153.047521 
L 193.766658 -156.719254 
L 194.763836 -160.477265 
L 195.761014 -164.315093 
L 196.758192 -168.226289 
L 197.755369 -172.205146 
L 198.752547 -176.247464 
L 199.749725 -180.351284 
L 200.746903 -184.517534 
L 201.744081 -188.75049 
L 202.741259 -193.058003 
L 203.738437 -197.451433 
L 204.735615 -201.945251 
L 205.732792 -206.556291 
L 206.72997 -211.302659 
L 207.727148 -216.202316 
L 208.724326 -221.271396 
L 209.721504 -226.522311 
L 210.718682 -231.961738 
L 211.71586 -237.588574 
L 212.713038 -243.391978 
L 213.710215 -249.349598 
L 214.707393 -255.426102 
L 215.704571 -261.572108 
L 216.701749 -267.723612 
L 217.698927 -273.801992 
L 218.696105 -279.714646 
L 219.693283 -285.356301 
L 220.69046 -290.611006 
L 221.687638 -295.354783 
L 222.684816 -299.45889 
L 223.681994 -302.793615 
L 224.679172 -305.232477 
L 225.67635 -306.656684 
L 226.673528 -306.959688 
L 227.670706 -306.051623 
L 228.667883 -303.863435 
L 229.665061 -300.350468 
L 230.662239 -295.49534 
L 231.659417 -289.309898 
L 232.656595 -281.836135 
L 233.653773 -273.145954 
L 234.650951 -263.339759 
L 235.648129 -252.543894 
L 236.645306 -240.907009 
L 237.642484 -228.595529 
L 238.639662 -215.788405 
L 239.63684 -202.67142 
L 240.634018 -189.431318 
L 241.631196 -176.25003 
L 242.628374 -163.299287 
L 243.625552 -150.735859 
L 244.622729 -138.697622 
L 245.619907 -127.300601 
L 246.617085 -116.637081 
L 247.614263 -106.774785 
L 248.611441 -97.757101 
L 249.608619 -89.604236 
L 250.605797 -82.315165 
L 251.602975 -75.870192 
L 252.600152 -70.23394 
L 253.59733 -65.358566 
L 254.594508 -61.187013 
L 255.591686 -57.656162 
L 256.588864 -54.699713 
L 257.586042 -52.250733 
L 258.58322 -50.243779 
L 259.580398 -48.616591 
L 260.577575 -47.311333 
L 261.574753 -46.275421 
L 262.571931 -45.461982 
L 263.569109 -44.829992 
L 264.566287 -44.344161 
L 265.563465 -43.974624 
L 266.560643 -43.696506 
L 267.557821 -43.489392 
L 268.554998 -43.336777 
L 269.552176 -43.225501 
L 270.549354 -43.14522 
L 271.546532 -43.087907 
L 272.54371 -43.047421 
L 273.540888 -43.019122 
L 274.538066 -42.99955 
L 275.535244 -42.986155 
L 275.535244 -42.959688 
L 275.535244 -42.959688 
L 274.538066 -42.959688 
L 273.540888 -42.959688 
L 272.54371 -42.959688 
L 271.546532 -42.959688 
L 270.549354 -42.959688 
L 269.552176 -42.959688 
L 268.554998 -42.959688 
L 267.557821 -42.959688 
L 266.560643 -42.959688 
L 265.563465 -42.959688 
L 264.566287 -42.959688 
L 263.569109 -42.959688 
L 262.571931 -42.959688 
L 261.574753 -42.959688 
L 260.577575 -42.959688 
L 259.580398 -42.959688 
L 258.58322 -42.959688 
L 257.586042 -42.959688 
L 256.588864 -42.959688 
L 255.591686 -42.959688 
L 254.594508 -42.959688 
L 253.59733 -42.959688 
L 252.600152 -42.959688 
L 251.602975 -42.959688 
L 250.605797 -42.959688 
L 249.608619 -42.959688 
L 248.611441 -42.959688 
L 247.614263 -42.959688 
L 246.617085 -42.959688 
L 245.619907 -42.959688 
L 244.622729 -42.959688 
L 243.625552 -42.959688 
L 242.628374 -42.959688 
L 241.631196 -42.959688 
L 240.634018 -42.959688 
L 239.63684 -42.959688 
L 238.639662 -42.959688 
L 237.642484 -42.959688 
L 236.645306 -42.959688 
L 235.648129 -42.959688 
L 234.650951 -42.959688 
L 233.653773 -42.959688 
L 232.656595 -42.959688 
L 231.659417 -42.959688 
L 230.662239 -42.959688 
L 229.665061 -42.959688 
L 228.667883 -42.959688 
L 227.670706 -42.959688 
L 226.673528 -42.959688 
L 225.67635 -42.959688 
L 224.679172 -42.959688 
L 223.681994 -42.959688 
L 222.684816 -42.959688 
L 221.687638 -42.959688 
L 220.69046 -42.959688 
L 219.693283 -42.959688 
L 218.696105 -42.959688 
L 217.698927 -42.959688 
L 216.701749 -42.959688 
L 215.704571 -42.959688 
L 214.707393 -42.959688 
L 213.710215 -42.959688 
L 212.713038 -42.959688 
L 211.71586 -42.959688 
L 210.718682 -42.959688 
L 209.721504 -42.959688 
L 208.724326 -42.959688 
L 207.727148 -42.959688 
L 206.72997 -42.959688 
L 205.732792 -42.959688 
L 204.735615 -42.959688 
L 203.738437 -42.959688 
L 202.741259 -42.959688 
L 201.744081 -42.959688 
L 200.746903 -42.959688 
L 199.749725 -42.959688 
L 198.752547 -42.959688 
L 197.755369 -42.959688 
L 196.758192 -42.959688 
L 195.761014 -42.959688 
L 194.763836 -42.959688 
L 193.766658 -42.959688 
L 192.76948 -42.959688 
L 191.772302 -42.959688 
L 190.775124 -42.959688 
L 189.777946 -42.959688 
L 188.780769 -42.959688 
L 187.783591 -42.959688 
L 186.786413 -42.959688 
L 185.789235 -42.959688 
L 184.792057 -42.959688 
L 183.794879 -42.959688 
L 182.797701 -42.959688 
L 181.800523 -42.959688 
L 180.803346 -42.959688 
L 179.806168 -42.959688 
L 178.80899 -42.959688 
L 177.811812 -42.959688 
L 176.814634 -42.959688 
L 175.817456 -42.959688 
L 174.820278 -42.959688 
L 173.8231 -42.959688 
L 172.825923 -42.959688 
L 171.828745 -42.959688 
L 170.831567 -42.959688 
L 169.834389 -42.959688 
L 168.837211 -42.959688 
L 167.840033 -42.959688 
L 166.842855 -42.959688 
L 165.845677 -42.959688 
L 164.8485 -42.959688 
L 163.851322 -42.959688 
L 162.854144 -42.959688 
L 161.856966 -42.959688 
L 160.859788 -42.959688 
L 159.86261 -42.959688 
L 158.865432 -42.959688 
L 157.868254 -42.959688 
L 156.871077 -42.959688 
L 155.873899 -42.959688 
L 154.876721 -42.959688 
L 153.879543 -42.959688 
L 152.882365 -42.959688 
L 151.885187 -42.959688 
L 150.888009 -42.959688 
L 149.890831 -42.959688 
L 148.893654 -42.959688 
L 147.896476 -42.959688 
L 146.899298 -42.959688 
L 145.90212 -42.959688 
L 144.904942 -42.959688 
L 143.907764 -42.959688 
L 142.910586 -42.959688 
L 141.913408 -42.959688 
L 140.916231 -42.959688 
L 139.919053 -42.959688 
L 138.921875 -42.959688 
L 137.924697 -42.959688 
L 136.927519 -42.959688 
L 135.930341 -42.959688 
L 134.933163 -42.959688 
L 133.935985 -42.959688 
L 132.938808 -42.959688 
L 131.94163 -42.959688 
L 130.944452 -42.959688 
L 129.947274 -42.959688 
L 128.950096 -42.959688 
L 127.952918 -42.959688 
L 126.95574 -42.959688 
L 125.958562 -42.959688 
L 124.961385 -42.959688 
L 123.964207 -42.959688 
L 122.967029 -42.959688 
L 121.969851 -42.959688 
L 120.972673 -42.959688 
L 119.975495 -42.959688 
L 118.978317 -42.959688 
L 117.981139 -42.959688 
L 116.983962 -42.959688 
L 115.986784 -42.959688 
L 114.989606 -42.959688 
L 113.992428 -42.959688 
L 112.99525 -42.959688 
L 111.998072 -42.959688 
L 111.000894 -42.959688 
L 110.003716 -42.959688 
L 109.006539 -42.959688 
L 108.009361 -42.959688 
L 107.012183 -42.959688 
L 106.015005 -42.959688 
L 105.017827 -42.959688 
L 104.020649 -42.959688 
L 103.023471 -42.959688 
L 102.026293 -42.959688 
L 101.029116 -42.959688 
L 100.031938 -42.959688 
L 99.03476 -42.959688 
L 98.037582 -42.959688 
L 97.040404 -42.959688 
L 96.043226 -42.959688 
L 95.046048 -42.959688 
L 94.04887 -42.959688 
L 93.051693 -42.959688 
L 92.054515 -42.959688 
L 91.057337 -42.959688 
L 90.060159 -42.959688 
L 89.062981 -42.959688 
L 88.065803 -42.959688 
L 87.068625 -42.959688 
L 86.071447 -42.959688 
L 85.07427 -42.959688 
L 84.077092 -42.959688 
L 83.079914 -42.959688 
L 82.082736 -42.959688 
L 81.085558 -42.959688 
L 80.08838 -42.959688 
L 79.091202 -42.959688 
L 78.094024 -42.959688 
L 77.096847 -42.959688 
z
" style="stroke: #ffffff"/>
    </defs>
    <g clip-path="url(#p9d24d7b305)">
     <use xlink:href="#m46bad71a14" x="0" y="342.477813" style="fill: #ffffff; stroke: #ffffff"/>
    </g>
   </g>
   <g id="matplotlib.axis_1">
    <g id="xtick_1">
     <g id="line2d_1">
      <path d="M 101.057292 299.518125 
L 101.057292 22.318125 
" clip-path="url(#p9d24d7b305)" style="fill: none; stroke: #cccccc; stroke-linecap: round"/>
     </g>
     <g id="text_1">
      <!-- 0 -->
      <g style="fill: #262626" transform="translate(97.557917 317.376406) scale(0.11 -0.11)">
       <defs>
        <path id="DejaVuSans-30" d="M 2034 4250 
Q 1547 4250 1301 3770 
Q 1056 3291 1056 2328 
Q 1056 1369 1301 889 
Q 1547 409 2034 409 
Q 2525 409 2770 889 
Q 3016 1369 3016 2328 
Q 3016 3291 2770 3770 
Q 2525 4250 2034 4250 
z
M 2034 4750 
Q 2819 4750 3233 4129 
Q 3647 3509 3647 2328 
Q 3647 1150 3233 529 
Q 2819 -91 2034 -91 
Q 1250 -91 836 529 
Q 422 1150 422 2328 
Q 422 3509 836 4129 
Q 1250 4750 2034 4750 
z
" transform="scale(0.015625)"/>
       </defs>
       <use xlink:href="#DejaVuSans-30"/>
      </g>
     </g>
    </g>
    <g id="xtick_2">
     <g id="line2d_2">
      <path d="M 182.214117 299.518125 
L 182.214117 22.318125 
" clip-path="url(#p9d24d7b305)" style="fill: none; stroke: #cccccc; stroke-linecap: round"/>
     </g>
     <g id="text_2">
      <!-- 20 -->
      <g style="fill: #262626" transform="translate(175.215367 317.376406) scale(0.11 -0.11)">
       <defs>
        <path id="DejaVuSans-32" d="M 1228 531 
L 3431 531 
L 3431 0 
L 469 0 
L 469 531 
Q 828 903 1448 1529 
Q 2069 2156 2228 2338 
Q 2531 2678 2651 2914 
Q 2772 3150 2772 3378 
Q 2772 3750 2511 3984 
Q 2250 4219 1831 4219 
Q 1534 4219 1204 4116 
Q 875 4013 500 3803 
L 500 4441 
Q 881 4594 1212 4672 
Q 1544 4750 1819 4750 
Q 2544 4750 2975 4387 
Q 3406 4025 3406 3419 
Q 3406 3131 3298 2873 
Q 3191 2616 2906 2266 
Q 2828 2175 2409 1742 
Q 1991 1309 1228 531 
z
" transform="scale(0.015625)"/>
       </defs>
       <use xlink:href="#DejaVuSans-32"/>
       <use xlink:href="#DejaVuSans-30" transform="translate(63.623047 0)"/>
      </g>
     </g>
    </g>
    <g id="xtick_3">
     <g id="line2d_3">
      <path d="M 263.370942 299.518125 
L 263.370942 22.318125 
" clip-path="url(#p9d24d7b305)" style="fill: none; stroke: #cccccc; stroke-linecap: round"/>
     </g>
     <g id="text_3">
      <!-- 40 -->
      <g style="fill: #262626" transform="translate(256.372192 317.376406) scale(0.11 -0.11)">
       <defs>
        <path id="DejaVuSans-34" d="M 2419 4116 
L 825 1625 
L 2419 1625 
L 2419 4116 
z
M 2253 4666 
L 3047 4666 
L 3047 1625 
L 3713 1625 
L 3713 1100 
L 3047 1100 
L 3047 0 
L 2419 0 
L 2419 1100 
L 313 1100 
L 313 1709 
L 2253 4666 
z
" transform="scale(0.015625)"/>
       </defs>
       <use xlink:href="#DejaVuSans-34"/>
       <use xlink:href="#DejaVuSans-30" transform="translate(63.623047 0)"/>
      </g>
     </g>
    </g>
    <g id="xtick_4">
     <g id="line2d_4">
      <path d="M 344.527767 299.518125 
L 344.527767 22.318125 
" clip-path="url(#p9d24d7b305)" style="fill: none; stroke: #cccccc; stroke-linecap: round"/>
     </g>
     <g id="text_4">
      <!-- 60 -->
      <g style="fill: #262626" transform="translate(337.529017 317.376406) scale(0.11 -0.11)">
       <defs>
        <path id="DejaVuSans-36" d="M 2113 2584 
Q 1688 2584 1439 2293 
Q 1191 2003 1191 1497 
Q 1191 994 1439 701 
Q 1688 409 2113 409 
Q 2538 409 2786 701 
Q 3034 994 3034 1497 
Q 3034 2003 2786 2293 
Q 2538 2584 2113 2584 
z
M 3366 4563 
L 3366 3988 
Q 3128 4100 2886 4159 
Q 2644 4219 2406 4219 
Q 1781 4219 1451 3797 
Q 1122 3375 1075 2522 
Q 1259 2794 1537 2939 
Q 1816 3084 2150 3084 
Q 2853 3084 3261 2657 
Q 3669 2231 3669 1497 
Q 3669 778 3244 343 
Q 2819 -91 2113 -91 
Q 1303 -91 875 529 
Q 447 1150 447 2328 
Q 447 3434 972 4092 
Q 1497 4750 2381 4750 
Q 2619 4750 2861 4703 
Q 3103 4656 3366 4563 
z
" transform="scale(0.015625)"/>
       </defs>
       <use xlink:href="#DejaVuSans-36"/>
       <use xlink:href="#DejaVuSans-30" transform="translate(63.623047 0)"/>
      </g>
     </g>
    </g>
    <g id="xtick_5">
     <g id="line2d_5">
      <path d="M 425.684593 299.518125 
L 425.684593 22.318125 
" clip-path="url(#p9d24d7b305)" style="fill: none; stroke: #cccccc; stroke-linecap: round"/>
     </g>
     <g id="text_5">
      <!-- 80 -->
      <g style="fill: #262626" transform="translate(418.685843 317.376406) scale(0.11 -0.11)">
       <defs>
        <path id="DejaVuSans-38" d="M 2034 2216 
Q 1584 2216 1326 1975 
Q 1069 1734 1069 1313 
Q 1069 891 1326 650 
Q 1584 409 2034 409 
Q 2484 409 2743 651 
Q 3003 894 3003 1313 
Q 3003 1734 2745 1975 
Q 2488 2216 2034 2216 
z
M 1403 2484 
Q 997 2584 770 2862 
Q 544 3141 544 3541 
Q 544 4100 942 4425 
Q 1341 4750 2034 4750 
Q 2731 4750 3128 4425 
Q 3525 4100 3525 3541 
Q 3525 3141 3298 2862 
Q 3072 2584 2669 2484 
Q 3125 2378 3379 2068 
Q 3634 1759 3634 1313 
Q 3634 634 3220 271 
Q 2806 -91 2034 -91 
Q 1263 -91 848 271 
Q 434 634 434 1313 
Q 434 1759 690 2068 
Q 947 2378 1403 2484 
z
M 1172 3481 
Q 1172 3119 1398 2916 
Q 1625 2713 2034 2713 
Q 2441 2713 2670 2916 
Q 2900 3119 2900 3481 
Q 2900 3844 2670 4047 
Q 2441 4250 2034 4250 
Q 1625 4250 1398 4047 
Q 1172 3844 1172 3481 
z
" transform="scale(0.015625)"/>
       </defs>
       <use xlink:href="#DejaVuSans-38"/>
       <use xlink:href="#DejaVuSans-30" transform="translate(63.623047 0)"/>
      </g>
     </g>
    </g>
    <g id="text_6">
     <!-- MGO -->
     <g style="fill: #262626" transform="translate(265.456875 332.782188) scale(0.12 -0.12)">
      <defs>
       <path id="DejaVuSans-4d" d="M 628 4666 
L 1569 4666 
L 2759 1491 
L 3956 4666 
L 4897 4666 
L 4897 0 
L 4281 0 
L 4281 4097 
L 3078 897 
L 2444 897 
L 1241 4097 
L 1241 0 
L 628 0 
L 628 4666 
z
" transform="scale(0.015625)"/>
       <path id="DejaVuSans-47" d="M 3809 666 
L 3809 1919 
L 2778 1919 
L 2778 2438 
L 4434 2438 
L 4434 434 
Q 4069 175 3628 42 
Q 3188 -91 2688 -91 
Q 1594 -91 976 548 
Q 359 1188 359 2328 
Q 359 3472 976 4111 
Q 1594 4750 2688 4750 
Q 3144 4750 3555 4637 
Q 3966 4525 4313 4306 
L 4313 3634 
Q 3963 3931 3569 4081 
Q 3175 4231 2741 4231 
Q 1884 4231 1454 3753 
Q 1025 3275 1025 2328 
Q 1025 1384 1454 906 
Q 1884 428 2741 428 
Q 3075 428 3337 486 
Q 3600 544 3809 666 
z
" transform="scale(0.015625)"/>
       <path id="DejaVuSans-4f" d="M 2522 4238 
Q 1834 4238 1429 3725 
Q 1025 3213 1025 2328 
Q 1025 1447 1429 934 
Q 1834 422 2522 422 
Q 3209 422 3611 934 
Q 4013 1447 4013 2328 
Q 4013 3213 3611 3725 
Q 3209 4238 2522 4238 
z
M 2522 4750 
Q 3503 4750 4090 4092 
Q 4678 3434 4678 2328 
Q 4678 1225 4090 567 
Q 3503 -91 2522 -91 
Q 1538 -91 948 565 
Q 359 1222 359 2328 
Q 359 3434 948 4092 
Q 1538 4750 2522 4750 
z
" transform="scale(0.015625)"/>
      </defs>
      <use xlink:href="#DejaVuSans-4d"/>
      <use xlink:href="#DejaVuSans-47" transform="translate(86.279297 0)"/>
      <use xlink:href="#DejaVuSans-4f" transform="translate(163.769531 0)"/>
     </g>
    </g>
   </g>
   <g id="matplotlib.axis_2">
    <g id="ytick_1">
     <g id="line2d_6">
      <path d="M 56.805938 299.518125 
L 503.205938 299.518125 
" clip-path="url(#p9d24d7b305)" style="fill: none; stroke: #cccccc; stroke-linecap: round"/>
     </g>
     <g id="text_7">
      <!-- 0.00 -->
      <g style="fill: #262626" transform="translate(22.81375 303.697266) scale(0.11 -0.11)">
       <defs>
        <path id="DejaVuSans-2e" d="M 684 794 
L 1344 794 
L 1344 0 
L 684 0 
L 684 794 
z
" transform="scale(0.015625)"/>
       </defs>
       <use xlink:href="#DejaVuSans-30"/>
       <use xlink:href="#DejaVuSans-2e" transform="translate(63.623047 0)"/>
       <use xlink:href="#DejaVuSans-30" transform="translate(95.410156 0)"/>
       <use xlink:href="#DejaVuSans-30" transform="translate(159.033203 0)"/>
      </g>
     </g>
    </g>
    <g id="ytick_2">
     <g id="line2d_7">
      <path d="M 56.805938 257.399373 
L 503.205938 257.399373 
" clip-path="url(#p9d24d7b305)" style="fill: none; stroke: #cccccc; stroke-linecap: round"/>
     </g>
     <g id="text_8">
      <!-- 0.01 -->
      <g style="fill: #262626" transform="translate(22.81375 261.578513) scale(0.11 -0.11)">
       <defs>
        <path id="DejaVuSans-31" d="M 794 531 
L 1825 531 
L 1825 4091 
L 703 3866 
L 703 4441 
L 1819 4666 
L 2450 4666 
L 2450 531 
L 3481 531 
L 3481 0 
L 794 0 
L 794 531 
z
" transform="scale(0.015625)"/>
       </defs>
       <use xlink:href="#DejaVuSans-30"/>
       <use xlink:href="#DejaVuSans-2e" transform="translate(63.623047 0)"/>
       <use xlink:href="#DejaVuSans-30" transform="translate(95.410156 0)"/>
       <use xlink:href="#DejaVuSans-31" transform="translate(159.033203 0)"/>
      </g>
     </g>
    </g>
    <g id="ytick_3">
     <g id="line2d_8">
      <path d="M 56.805938 215.280621 
L 503.205938 215.280621 
" clip-path="url(#p9d24d7b305)" style="fill: none; stroke: #cccccc; stroke-linecap: round"/>
     </g>
     <g id="text_9">
      <!-- 0.02 -->
      <g style="fill: #262626" transform="translate(22.81375 219.459761) scale(0.11 -0.11)">
       <use xlink:href="#DejaVuSans-30"/>
       <use xlink:href="#DejaVuSans-2e" transform="translate(63.623047 0)"/>
       <use xlink:href="#DejaVuSans-30" transform="translate(95.410156 0)"/>
       <use xlink:href="#DejaVuSans-32" transform="translate(159.033203 0)"/>
      </g>
     </g>
    </g>
    <g id="ytick_4">
     <g id="line2d_9">
      <path d="M 56.805938 173.161868 
L 503.205938 173.161868 
" clip-path="url(#p9d24d7b305)" style="fill: none; stroke: #cccccc; stroke-linecap: round"/>
     </g>
     <g id="text_10">
      <!-- 0.03 -->
      <g style="fill: #262626" transform="translate(22.81375 177.341009) scale(0.11 -0.11)">
       <defs>
        <path id="DejaVuSans-33" d="M 2597 2516 
Q 3050 2419 3304 2112 
Q 3559 1806 3559 1356 
Q 3559 666 3084 287 
Q 2609 -91 1734 -91 
Q 1441 -91 1130 -33 
Q 819 25 488 141 
L 488 750 
Q 750 597 1062 519 
Q 1375 441 1716 441 
Q 2309 441 2620 675 
Q 2931 909 2931 1356 
Q 2931 1769 2642 2001 
Q 2353 2234 1838 2234 
L 1294 2234 
L 1294 2753 
L 1863 2753 
Q 2328 2753 2575 2939 
Q 2822 3125 2822 3475 
Q 2822 3834 2567 4026 
Q 2313 4219 1838 4219 
Q 1578 4219 1281 4162 
Q 984 4106 628 3988 
L 628 4550 
Q 988 4650 1302 4700 
Q 1616 4750 1894 4750 
Q 2613 4750 3031 4423 
Q 3450 4097 3450 3541 
Q 3450 3153 3228 2886 
Q 3006 2619 2597 2516 
z
" transform="scale(0.015625)"/>
       </defs>
       <use xlink:href="#DejaVuSans-30"/>
       <use xlink:href="#DejaVuSans-2e" transform="translate(63.623047 0)"/>
       <use xlink:href="#DejaVuSans-30" transform="translate(95.410156 0)"/>
       <use xlink:href="#DejaVuSans-33" transform="translate(159.033203 0)"/>
      </g>
     </g>
    </g>
    <g id="ytick_5">
     <g id="line2d_10">
      <path d="M 56.805938 131.043116 
L 503.205938 131.043116 
" clip-path="url(#p9d24d7b305)" style="fill: none; stroke: #cccccc; stroke-linecap: round"/>
     </g>
     <g id="text_11">
      <!-- 0.04 -->
      <g style="fill: #262626" transform="translate(22.81375 135.222257) scale(0.11 -0.11)">
       <use xlink:href="#DejaVuSans-30"/>
       <use xlink:href="#DejaVuSans-2e" transform="translate(63.623047 0)"/>
       <use xlink:href="#DejaVuSans-30" transform="translate(95.410156 0)"/>
       <use xlink:href="#DejaVuSans-34" transform="translate(159.033203 0)"/>
      </g>
     </g>
    </g>
    <g id="ytick_6">
     <g id="line2d_11">
      <path d="M 56.805938 88.924364 
L 503.205938 88.924364 
" clip-path="url(#p9d24d7b305)" style="fill: none; stroke: #cccccc; stroke-linecap: round"/>
     </g>
     <g id="text_12">
      <!-- 0.05 -->
      <g style="fill: #262626" transform="translate(22.81375 93.103505) scale(0.11 -0.11)">
       <defs>
        <path id="DejaVuSans-35" d="M 691 4666 
L 3169 4666 
L 3169 4134 
L 1269 4134 
L 1269 2991 
Q 1406 3038 1543 3061 
Q 1681 3084 1819 3084 
Q 2600 3084 3056 2656 
Q 3513 2228 3513 1497 
Q 3513 744 3044 326 
Q 2575 -91 1722 -91 
Q 1428 -91 1123 -41 
Q 819 9 494 109 
L 494 744 
Q 775 591 1075 516 
Q 1375 441 1709 441 
Q 2250 441 2565 725 
Q 2881 1009 2881 1497 
Q 2881 1984 2565 2268 
Q 2250 2553 1709 2553 
Q 1456 2553 1204 2497 
Q 953 2441 691 2322 
L 691 4666 
z
" transform="scale(0.015625)"/>
       </defs>
       <use xlink:href="#DejaVuSans-30"/>
       <use xlink:href="#DejaVuSans-2e" transform="translate(63.623047 0)"/>
       <use xlink:href="#DejaVuSans-30" transform="translate(95.410156 0)"/>
       <use xlink:href="#DejaVuSans-35" transform="translate(159.033203 0)"/>
      </g>
     </g>
    </g>
    <g id="ytick_7">
     <g id="line2d_12">
      <path d="M 56.805938 46.805612 
L 503.205938 46.805612 
" clip-path="url(#p9d24d7b305)" style="fill: none; stroke: #cccccc; stroke-linecap: round"/>
     </g>
     <g id="text_13">
      <!-- 0.06 -->
      <g style="fill: #262626" transform="translate(22.81375 50.984753) scale(0.11 -0.11)">
       <use xlink:href="#DejaVuSans-30"/>
       <use xlink:href="#DejaVuSans-2e" transform="translate(63.623047 0)"/>
       <use xlink:href="#DejaVuSans-30" transform="translate(95.410156 0)"/>
       <use xlink:href="#DejaVuSans-36" transform="translate(159.033203 0)"/>
      </g>
     </g>
    </g>
    <g id="text_14">
     <!-- Density -->
     <g style="fill: #262626" transform="translate(16.318125 183.728438) rotate(-90) scale(0.12 -0.12)">
      <defs>
       <path id="DejaVuSans-44" d="M 1259 4147 
L 1259 519 
L 2022 519 
Q 2988 519 3436 956 
Q 3884 1394 3884 2338 
Q 3884 3275 3436 3711 
Q 2988 4147 2022 4147 
L 1259 4147 
z
M 628 4666 
L 1925 4666 
Q 3281 4666 3915 4102 
Q 4550 3538 4550 2338 
Q 4550 1131 3912 565 
Q 3275 0 1925 0 
L 628 0 
L 628 4666 
z
" transform="scale(0.015625)"/>
       <path id="DejaVuSans-65" d="M 3597 1894 
L 3597 1613 
L 953 1613 
Q 991 1019 1311 708 
Q 1631 397 2203 397 
Q 2534 397 2845 478 
Q 3156 559 3463 722 
L 3463 178 
Q 3153 47 2828 -22 
Q 2503 -91 2169 -91 
Q 1331 -91 842 396 
Q 353 884 353 1716 
Q 353 2575 817 3079 
Q 1281 3584 2069 3584 
Q 2775 3584 3186 3129 
Q 3597 2675 3597 1894 
z
M 3022 2063 
Q 3016 2534 2758 2815 
Q 2500 3097 2075 3097 
Q 1594 3097 1305 2825 
Q 1016 2553 972 2059 
L 3022 2063 
z
" transform="scale(0.015625)"/>
       <path id="DejaVuSans-6e" d="M 3513 2113 
L 3513 0 
L 2938 0 
L 2938 2094 
Q 2938 2591 2744 2837 
Q 2550 3084 2163 3084 
Q 1697 3084 1428 2787 
Q 1159 2491 1159 1978 
L 1159 0 
L 581 0 
L 581 3500 
L 1159 3500 
L 1159 2956 
Q 1366 3272 1645 3428 
Q 1925 3584 2291 3584 
Q 2894 3584 3203 3211 
Q 3513 2838 3513 2113 
z
" transform="scale(0.015625)"/>
       <path id="DejaVuSans-73" d="M 2834 3397 
L 2834 2853 
Q 2591 2978 2328 3040 
Q 2066 3103 1784 3103 
Q 1356 3103 1142 2972 
Q 928 2841 928 2578 
Q 928 2378 1081 2264 
Q 1234 2150 1697 2047 
L 1894 2003 
Q 2506 1872 2764 1633 
Q 3022 1394 3022 966 
Q 3022 478 2636 193 
Q 2250 -91 1575 -91 
Q 1294 -91 989 -36 
Q 684 19 347 128 
L 347 722 
Q 666 556 975 473 
Q 1284 391 1588 391 
Q 1994 391 2212 530 
Q 2431 669 2431 922 
Q 2431 1156 2273 1281 
Q 2116 1406 1581 1522 
L 1381 1569 
Q 847 1681 609 1914 
Q 372 2147 372 2553 
Q 372 3047 722 3315 
Q 1072 3584 1716 3584 
Q 2034 3584 2315 3537 
Q 2597 3491 2834 3397 
z
" transform="scale(0.015625)"/>
       <path id="DejaVuSans-69" d="M 603 3500 
L 1178 3500 
L 1178 0 
L 603 0 
L 603 3500 
z
M 603 4863 
L 1178 4863 
L 1178 4134 
L 603 4134 
L 603 4863 
z
" transform="scale(0.015625)"/>
       <path id="DejaVuSans-74" d="M 1172 4494 
L 1172 3500 
L 2356 3500 
L 2356 3053 
L 1172 3053 
L 1172 1153 
Q 1172 725 1289 603 
Q 1406 481 1766 481 
L 2356 481 
L 2356 0 
L 1766 0 
Q 1100 0 847 248 
Q 594 497 594 1153 
L 594 3053 
L 172 3053 
L 172 3500 
L 594 3500 
L 594 4494 
L 1172 4494 
z
" transform="scale(0.015625)"/>
       <path id="DejaVuSans-79" d="M 2059 -325 
Q 1816 -950 1584 -1140 
Q 1353 -1331 966 -1331 
L 506 -1331 
L 506 -850 
L 844 -850 
Q 1081 -850 1212 -737 
Q 1344 -625 1503 -206 
L 1606 56 
L 191 3500 
L 800 3500 
L 1894 763 
L 2988 3500 
L 3597 3500 
L 2059 -325 
z
" transform="scale(0.015625)"/>
      </defs>
      <use xlink:href="#DejaVuSans-44"/>
      <use xlink:href="#DejaVuSans-65" transform="translate(77.001953 0)"/>
      <use xlink:href="#DejaVuSans-6e" transform="translate(138.525391 0)"/>
      <use xlink:href="#DejaVuSans-73" transform="translate(201.904297 0)"/>
      <use xlink:href="#DejaVuSans-69" transform="translate(254.003906 0)"/>
      <use xlink:href="#DejaVuSans-74" transform="translate(281.787109 0)"/>
      <use xlink:href="#DejaVuSans-79" transform="translate(320.996094 0)"/>
     </g>
    </g>
   </g>
   <g id="FillBetweenPolyCollection_2">
    <defs>
     <path id="m27ffcd3121" d="M 77.709831 -43.118107 
L 77.709831 -42.959688 
L 79.746038 -42.959688 
L 81.782245 -42.959688 
L 83.818452 -42.959688 
L 85.854659 -42.959688 
L 87.890866 -42.959688 
L 89.927073 -42.959688 
L 91.96328 -42.959688 
L 93.999487 -42.959688 
L 96.035694 -42.959688 
L 98.071901 -42.959688 
L 100.108108 -42.959688 
L 102.144315 -42.959688 
L 104.180522 -42.959688 
L 106.216729 -42.959688 
L 108.252936 -42.959688 
L 110.289143 -42.959688 
L 112.32535 -42.959688 
L 114.361557 -42.959688 
L 116.397764 -42.959688 
L 118.433971 -42.959688 
L 120.470178 -42.959688 
L 122.506385 -42.959688 
L 124.542592 -42.959688 
L 126.578799 -42.959688 
L 128.615006 -42.959688 
L 130.651213 -42.959688 
L 132.687421 -42.959688 
L 134.723628 -42.959688 
L 136.759835 -42.959688 
L 138.796042 -42.959688 
L 140.832249 -42.959688 
L 142.868456 -42.959688 
L 144.904663 -42.959688 
L 146.94087 -42.959688 
L 148.977077 -42.959688 
L 151.013284 -42.959688 
L 153.049491 -42.959688 
L 155.085698 -42.959688 
L 157.121905 -42.959688 
L 159.158112 -42.959688 
L 161.194319 -42.959688 
L 163.230526 -42.959688 
L 165.266733 -42.959688 
L 167.30294 -42.959688 
L 169.339147 -42.959688 
L 171.375354 -42.959688 
L 173.411561 -42.959688 
L 175.447768 -42.959688 
L 177.483975 -42.959688 
L 179.520182 -42.959688 
L 181.556389 -42.959688 
L 183.592596 -42.959688 
L 185.628803 -42.959688 
L 187.66501 -42.959688 
L 189.701217 -42.959688 
L 191.737424 -42.959688 
L 193.773631 -42.959688 
L 195.809838 -42.959688 
L 197.846045 -42.959688 
L 199.882252 -42.959688 
L 201.918459 -42.959688 
L 203.954666 -42.959688 
L 205.990873 -42.959688 
L 208.02708 -42.959688 
L 210.063287 -42.959688 
L 212.099494 -42.959688 
L 214.135701 -42.959688 
L 216.171908 -42.959688 
L 218.208115 -42.959688 
L 220.244322 -42.959688 
L 222.28053 -42.959688 
L 224.316737 -42.959688 
L 226.352944 -42.959688 
L 228.389151 -42.959688 
L 230.425358 -42.959688 
L 232.461565 -42.959688 
L 234.497772 -42.959688 
L 236.533979 -42.959688 
L 238.570186 -42.959688 
L 240.606393 -42.959688 
L 242.6426 -42.959688 
L 244.678807 -42.959688 
L 246.715014 -42.959688 
L 248.751221 -42.959688 
L 250.787428 -42.959688 
L 252.823635 -42.959688 
L 254.859842 -42.959688 
L 256.896049 -42.959688 
L 258.932256 -42.959688 
L 260.968463 -42.959688 
L 263.00467 -42.959688 
L 265.040877 -42.959688 
L 267.077084 -42.959688 
L 269.113291 -42.959688 
L 271.149498 -42.959688 
L 273.185705 -42.959688 
L 275.221912 -42.959688 
L 277.258119 -42.959688 
L 279.294326 -42.959688 
L 281.330533 -42.959688 
L 283.36674 -42.959688 
L 285.402947 -42.959688 
L 287.439154 -42.959688 
L 289.475361 -42.959688 
L 291.511568 -42.959688 
L 293.547775 -42.959688 
L 295.583982 -42.959688 
L 297.620189 -42.959688 
L 299.656396 -42.959688 
L 301.692603 -42.959688 
L 303.72881 -42.959688 
L 305.765017 -42.959688 
L 307.801224 -42.959688 
L 309.837431 -42.959688 
L 311.873639 -42.959688 
L 313.909846 -42.959688 
L 315.946053 -42.959688 
L 317.98226 -42.959688 
L 320.018467 -42.959688 
L 322.054674 -42.959688 
L 324.090881 -42.959688 
L 326.127088 -42.959688 
L 328.163295 -42.959688 
L 330.199502 -42.959688 
L 332.235709 -42.959688 
L 334.271916 -42.959688 
L 336.308123 -42.959688 
L 338.34433 -42.959688 
L 340.380537 -42.959688 
L 342.416744 -42.959688 
L 344.452951 -42.959688 
L 346.489158 -42.959688 
L 348.525365 -42.959688 
L 350.561572 -42.959688 
L 352.597779 -42.959688 
L 354.633986 -42.959688 
L 356.670193 -42.959688 
L 358.7064 -42.959688 
L 360.742607 -42.959688 
L 362.778814 -42.959688 
L 364.815021 -42.959688 
L 366.851228 -42.959688 
L 368.887435 -42.959688 
L 370.923642 -42.959688 
L 372.959849 -42.959688 
L 374.996056 -42.959688 
L 377.032263 -42.959688 
L 379.06847 -42.959688 
L 381.104677 -42.959688 
L 383.140884 -42.959688 
L 385.177091 -42.959688 
L 387.213298 -42.959688 
L 389.249505 -42.959688 
L 391.285712 -42.959688 
L 393.321919 -42.959688 
L 395.358126 -42.959688 
L 397.394333 -42.959688 
L 399.43054 -42.959688 
L 401.466748 -42.959688 
L 403.502955 -42.959688 
L 405.539162 -42.959688 
L 407.575369 -42.959688 
L 409.611576 -42.959688 
L 411.647783 -42.959688 
L 413.68399 -42.959688 
L 415.720197 -42.959688 
L 417.756404 -42.959688 
L 419.792611 -42.959688 
L 421.828818 -42.959688 
L 423.865025 -42.959688 
L 425.901232 -42.959688 
L 427.937439 -42.959688 
L 429.973646 -42.959688 
L 432.009853 -42.959688 
L 434.04606 -42.959688 
L 436.082267 -42.959688 
L 438.118474 -42.959688 
L 440.154681 -42.959688 
L 442.190888 -42.959688 
L 444.227095 -42.959688 
L 446.263302 -42.959688 
L 448.299509 -42.959688 
L 450.335716 -42.959688 
L 452.371923 -42.959688 
L 454.40813 -42.959688 
L 456.444337 -42.959688 
L 458.480544 -42.959688 
L 460.516751 -42.959688 
L 462.552958 -42.959688 
L 464.589165 -42.959688 
L 466.625372 -42.959688 
L 468.661579 -42.959688 
L 470.697786 -42.959688 
L 472.733993 -42.959688 
L 474.7702 -42.959688 
L 476.806407 -42.959688 
L 478.842614 -42.959688 
L 480.878821 -42.959688 
L 482.915028 -42.959688 
L 482.915028 -42.961335 
L 482.915028 -42.961335 
L 480.878821 -42.96317 
L 478.842614 -42.966562 
L 476.806407 -42.972369 
L 474.7702 -42.981542 
L 472.733993 -42.994875 
L 470.697786 -43.012618 
L 468.661579 -43.034076 
L 466.625372 -43.057363 
L 464.589165 -43.079514 
L 462.552958 -43.097034 
L 460.516751 -43.106792 
L 458.480544 -43.106952 
L 456.444337 -43.097583 
L 454.40813 -43.080702 
L 452.371923 -43.059749 
L 450.335716 -43.038724 
L 448.299509 -43.02135 
L 446.263302 -43.010514 
L 444.227095 -43.008055 
L 442.190888 -43.014816 
L 440.154681 -43.030833 
L 438.118474 -43.055602 
L 436.082267 -43.088473 
L 434.04606 -43.129177 
L 432.009853 -43.178348 
L 429.973646 -43.237672 
L 427.937439 -43.309258 
L 425.901232 -43.394107 
L 423.865025 -43.490096 
L 421.828818 -43.590465 
L 419.792611 -43.683843 
L 417.756404 -43.75636 
L 415.720197 -43.795324 
L 413.68399 -43.793082 
L 411.647783 -43.749462 
L 409.611576 -43.671824 
L 407.575369 -43.572843 
L 405.539162 -43.467093 
L 403.502955 -43.367735 
L 401.466748 -43.284245 
L 399.43054 -43.22148 
L 397.394333 -43.179868 
L 395.358126 -43.156405 
L 393.321919 -43.146152 
L 391.285712 -43.144035 
L 389.249505 -43.146616 
L 387.213298 -43.153405 
L 385.177091 -43.167195 
L 383.140884 -43.193122 
L 381.104677 -43.236522 
L 379.06847 -43.300163 
L 377.032263 -43.381818 
L 374.996056 -43.473204 
L 372.959849 -43.560985 
L 370.923642 -43.629755 
L 368.887435 -43.666147 
L 366.851228 -43.66261 
L 364.815021 -43.619506 
L 362.778814 -43.544858 
L 360.742607 -43.452003 
L 358.7064 -43.356199 
L 356.670193 -43.271376 
L 354.633986 -43.207908 
L 352.597779 -43.171667 
L 350.561572 -43.164188 
L 348.525365 -43.183572 
L 346.489158 -43.225808 
L 344.452951 -43.286255 
L 342.416744 -43.360941 
L 340.380537 -43.447184 
L 338.34433 -43.543125 
L 336.308123 -43.64613 
L 334.271916 -43.750808 
L 332.235709 -43.847888 
L 330.199502 -43.925141 
L 328.163295 -43.970598 
L 326.127088 -43.976924 
L 324.090881 -43.94496 
L 322.054674 -43.884609 
L 320.018467 -43.812529 
L 317.98226 -43.747698 
L 315.946053 -43.706828 
L 313.909846 -43.70142 
L 311.873639 -43.737154 
L 309.837431 -43.815209 
L 307.801224 -43.934476 
L 305.765017 -44.093759 
L 303.72881 -44.293466 
L 301.692603 -44.536704 
L 299.656396 -44.829927 
L 297.620189 -45.183447 
L 295.583982 -45.612222 
L 293.547775 -46.137284 
L 291.511568 -46.787869 
L 289.475361 -47.603661 
L 287.439154 -48.636074 
L 285.402947 -49.947234 
L 283.36674 -51.605624 
L 281.330533 -53.678129 
L 279.294326 -56.219457 
L 277.258119 -59.261424 
L 275.221912 -62.805729 
L 273.185705 -66.823753 
L 271.149498 -71.264606 
L 269.113291 -76.068757 
L 267.077084 -81.180851 
L 265.040877 -86.554424 
L 263.00467 -92.144659 
L 260.968463 -97.892081 
L 258.932256 -103.706619 
L 256.896049 -109.463697 
L 254.859842 -115.019647 
L 252.823635 -120.24404 
L 250.787428 -125.056327 
L 248.751221 -129.449411 
L 246.715014 -133.487038 
L 244.678807 -137.273928 
L 242.6426 -140.911118 
L 240.606393 -144.456442 
L 238.570186 -147.907181 
L 236.533979 -151.210578 
L 234.497772 -154.295059 
L 232.461565 -157.107565 
L 230.425358 -159.643243 
L 228.389151 -161.960368 
L 226.352944 -164.18059 
L 224.316737 -166.47851 
L 222.28053 -169.064413 
L 220.244322 -172.161822 
L 218.208115 -175.980029 
L 216.171908 -180.682149 
L 214.135701 -186.35102 
L 212.099494 -192.956888 
L 210.063287 -200.331688 
L 208.02708 -208.155132 
L 205.990873 -215.958694 
L 203.954666 -223.154098 
L 201.918459 -229.090983 
L 199.882252 -233.141668 
L 197.846045 -234.800328 
L 195.809838 -233.773945 
L 193.773631 -230.039352 
L 191.737424 -223.848097 
L 189.701217 -215.676544 
L 187.66501 -206.135843 
L 185.628803 -195.867702 
L 183.592596 -185.453241 
L 181.556389 -175.35458 
L 179.520182 -165.896304 
L 177.483975 -157.281522 
L 175.447768 -149.628389 
L 173.411561 -143.009645 
L 171.375354 -137.480095 
L 169.339147 -133.083644 
L 167.30294 -129.839924 
L 165.266733 -127.717794 
L 163.230526 -126.606817 
L 161.194319 -126.297865 
L 159.158112 -126.481072 
L 157.121905 -126.765276 
L 155.085698 -126.718874 
L 153.049491 -125.927987 
L 151.013284 -124.063702 
L 148.977077 -120.9459 
L 146.94087 -116.588214 
L 144.904663 -111.209294 
L 142.868456 -105.201797 
L 140.832249 -99.062033 
L 138.796042 -93.296498 
L 136.759835 -88.330847 
L 134.723628 -84.447428 
L 132.687421 -81.76807 
L 130.651213 -80.282808 
L 128.615006 -79.909129 
L 126.578799 -80.556323 
L 124.542592 -82.168697 
L 122.506385 -84.729333 
L 120.470178 -88.219607 
L 118.433971 -92.545366 
L 116.397764 -97.455032 
L 114.361557 -102.484196 
L 112.32535 -106.960848 
L 110.289143 -110.091242 
L 108.252936 -111.118906 
L 106.216729 -109.516569 
L 104.180522 -105.147624 
L 102.144315 -98.334709 
L 100.108108 -89.802643 
L 98.071901 -80.510286 
L 96.035694 -71.428717 
L 93.999487 -63.340452 
L 91.96328 -56.718999 
L 89.927073 -51.710249 
L 87.890866 -48.197488 
L 85.854659 -45.908226 
L 83.818452 -44.519701 
L 81.782245 -43.73499 
L 79.746038 -43.321452 
L 77.709831 -43.118107 
z
" style="stroke: #0000ff"/>
    </defs>
    <g clip-path="url(#p9d24d7b305)">
     <use xlink:href="#m27ffcd3121" x="0" y="342.477813" style="fill: #0000ff; fill-opacity: 0.3; stroke: #0000ff"/>
    </g>
   </g>
   <g id="line2d_13">
    <path d="M 77.096847 299.150471 
L 79.091202 298.771345 
L 81.085558 298.073026 
L 82.082736 297.543957 
L 83.079914 296.853463 
L 84.077092 295.964395 
L 85.07427 294.835115 
L 86.071447 293.420248 
L 87.068625 291.671894 
L 88.065803 289.541368 
L 89.062981 286.981457 
L 90.060159 283.949179 
L 91.057337 280.408934 
L 92.054515 276.335912 
L 93.051693 271.71955 
L 95.046048 260.904791 
L 97.040404 248.274102 
L 103.023471 207.690829 
L 104.020649 202.025854 
L 105.017827 197.062976 
L 106.015005 192.9178 
L 107.012183 189.680263 
L 108.009361 187.410443 
L 109.006539 186.136076 
L 110.003716 185.851914 
L 111.000894 186.520949 
L 111.998072 188.077354 
L 112.99525 190.430877 
L 113.992428 193.472319 
L 114.989606 197.079657 
L 116.983962 205.477517 
L 121.969851 227.93595 
L 123.964207 235.733757 
L 125.958562 242.352391 
L 127.952918 247.743656 
L 129.947274 251.982264 
L 130.944452 253.709926 
L 131.94163 255.200829 
L 132.938808 256.472978 
L 133.935985 257.543418 
L 134.933163 258.42796 
L 135.930341 259.141133 
L 136.927519 259.696319 
L 137.924697 260.105992 
L 138.921875 260.382009 
L 140.916231 260.579139 
L 142.910586 260.380123 
L 144.904942 259.879926 
L 147.896476 258.773721 
L 160.859788 253.285588 
L 162.854144 252.210638 
L 164.8485 250.896903 
L 166.842855 249.270281 
L 168.837211 247.265677 
L 170.831567 244.832101 
L 172.825923 241.937195 
L 174.820278 238.569907 
L 176.814634 234.739407 
L 178.80899 230.469077 
L 180.803346 225.786516 
L 183.794879 218.03202 
L 186.786413 209.406702 
L 189.777946 199.874865 
L 192.76948 189.430292 
L 195.761014 178.16272 
L 199.749725 162.126528 
L 203.738437 145.02638 
L 206.72997 131.175154 
L 209.721504 115.955501 
L 212.713038 99.085834 
L 220.69046 51.866806 
L 221.687638 47.12303 
L 222.684816 43.018923 
L 223.681994 39.684197 
L 224.679172 37.245335 
L 225.67635 35.821129 
L 226.673528 35.518125 
L 227.670706 36.426189 
L 228.667883 38.614378 
L 229.665061 42.127345 
L 230.662239 46.982473 
L 231.659417 53.167914 
L 232.656595 60.641677 
L 233.653773 69.331859 
L 235.648129 89.933919 
L 237.642484 113.882283 
L 245.619907 215.177211 
L 247.614263 235.703027 
L 249.608619 252.873576 
L 250.605797 260.162648 
L 251.602975 266.607621 
L 252.600152 272.243872 
L 253.59733 277.119247 
L 254.594508 281.290799 
L 255.591686 284.82165 
L 256.588864 287.778099 
L 257.586042 290.22708 
L 258.58322 292.234034 
L 259.580398 293.861221 
L 260.577575 295.166479 
L 261.574753 296.202391 
L 262.571931 297.01583 
L 263.569109 297.64782 
L 265.563465 298.503188 
L 267.557821 298.98842 
L 269.552176 299.252311 
L 272.54371 299.430391 
L 275.535244 299.491658 
L 275.535244 299.491658 
" clip-path="url(#p9d24d7b305)" style="fill: none; stroke: #000000; stroke-linecap: round"/>
   </g>
   <g id="patch_3">
    <path d="M 56.805938 299.518125 
L 56.805938 22.318125 
" style="fill: none; stroke: #cccccc; stroke-width: 1.25; stroke-linejoin: miter; stroke-linecap: square"/>
   </g>
   <g id="patch_4">
    <path d="M 503.205938 299.518125 
L 503.205938 22.318125 
" style="fill: none; stroke: #cccccc; stroke-width: 1.25; stroke-linejoin: miter; stroke-linecap: square"/>
   </g>
   <g id="patch_5">
    <path d="M 56.805938 299.518125 
L 503.205938 299.518125 
" style="fill: none; stroke: #cccccc; stroke-width: 1.25; stroke-linejoin: miter; stroke-linecap: square"/>
   </g>
   <g id="patch_6">
    <path d="M 56.805938 22.318125 
L 503.205938 22.318125 
" style="fill: none; stroke: #cccccc; stroke-width: 1.25; stroke-linejoin: miter; stroke-linecap: square"/>
   </g>
   <g id="text_15">
    <!-- Density Plot MGO -->
    <g style="fill: #262626" transform="translate(227.524688 16.318125) scale(0.12 -0.12)">
     <defs>
      <path id="DejaVuSans-20" transform="scale(0.015625)"/>
      <path id="DejaVuSans-50" d="M 1259 4147 
L 1259 2394 
L 2053 2394 
Q 2494 2394 2734 2622 
Q 2975 2850 2975 3272 
Q 2975 3691 2734 3919 
Q 2494 4147 2053 4147 
L 1259 4147 
z
M 628 4666 
L 2053 4666 
Q 2838 4666 3239 4311 
Q 3641 3956 3641 3272 
Q 3641 2581 3239 2228 
Q 2838 1875 2053 1875 
L 1259 1875 
L 1259 0 
L 628 0 
L 628 4666 
z
" transform="scale(0.015625)"/>
      <path id="DejaVuSans-6c" d="M 603 4863 
L 1178 4863 
L 1178 0 
L 603 0 
L 603 4863 
z
" transform="scale(0.015625)"/>
      <path id="DejaVuSans-6f" d="M 1959 3097 
Q 1497 3097 1228 2736 
Q 959 2375 959 1747 
Q 959 1119 1226 758 
Q 1494 397 1959 397 
Q 2419 397 2687 759 
Q 2956 1122 2956 1747 
Q 2956 2369 2687 2733 
Q 2419 3097 1959 3097 
z
M 1959 3584 
Q 2709 3584 3137 3096 
Q 3566 2609 3566 1747 
Q 3566 888 3137 398 
Q 2709 -91 1959 -91 
Q 1206 -91 779 398 
Q 353 888 353 1747 
Q 353 2609 779 3096 
Q 1206 3584 1959 3584 
z
" transform="scale(0.015625)"/>
     </defs>
     <use xlink:href="#DejaVuSans-44"/>
     <use xlink:href="#DejaVuSans-65" transform="translate(77.001953 0)"/>
     <use xlink:href="#DejaVuSans-6e" transform="translate(138.525391 0)"/>
     <use xlink:href="#DejaVuSans-73" transform="translate(201.904297 0)"/>
     <use xlink:href="#DejaVuSans-69" transform="translate(254.003906 0)"/>
     <use xlink:href="#DejaVuSans-74" transform="translate(281.787109 0)"/>
     <use xlink:href="#DejaVuSans-79" transform="translate(320.996094 0)"/>
     <use xlink:href="#DejaVuSans-20" transform="translate(380.175781 0)"/>
     <use xlink:href="#DejaVuSans-50" transform="translate(411.962891 0)"/>
     <use xlink:href="#DejaVuSans-6c" transform="translate(472.265625 0)"/>
     <use xlink:href="#DejaVuSans-6f" transform="translate(500.048828 0)"/>
     <use xlink:href="#DejaVuSans-74" transform="translate(561.230469 0)"/>
     <use xlink:href="#DejaVuSans-20" transform="translate(600.439453 0)"/>
     <use xlink:href="#DejaVuSans-4d" transform="translate(632.226562 0)"/>
     <use xlink:href="#DejaVuSans-47" transform="translate(718.505859 0)"/>
     <use xlink:href="#DejaVuSans-4f" transform="translate(795.996094 0)"/>
    </g>
   </g>
   <g id="legend_1">
    <g id="patch_7">
     <path d="M 436.312187 63.41 
L 495.505938 63.41 
Q 497.705938 63.41 497.705938 61.21 
L 497.705938 30.018125 
Q 497.705938 27.818125 495.505938 27.818125 
L 436.312187 27.818125 
Q 434.112188 27.818125 434.112188 30.018125 
L 434.112188 61.21 
Q 434.112188 63.41 436.312187 63.41 
z
" style="fill: #ffffff; opacity: 0.8; stroke: #cccccc; stroke-linejoin: miter"/>
    </g>
    <g id="patch_8">
     <path d="M 438.512187 40.576406 
L 460.512187 40.576406 
L 460.512187 32.876406 
L 438.512187 32.876406 
z
" style="fill: #0000ff; fill-opacity: 0.3; stroke: #0000ff; stroke-linejoin: miter"/>
    </g>
    <g id="text_16">
     <!-- Old -->
     <g style="fill: #262626" transform="translate(469.312187 40.576406) scale(0.11 -0.11)">
      <defs>
       <path id="DejaVuSans-64" d="M 2906 2969 
L 2906 4863 
L 3481 4863 
L 3481 0 
L 2906 0 
L 2906 525 
Q 2725 213 2448 61 
Q 2172 -91 1784 -91 
Q 1150 -91 751 415 
Q 353 922 353 1747 
Q 353 2572 751 3078 
Q 1150 3584 1784 3584 
Q 2172 3584 2448 3432 
Q 2725 3281 2906 2969 
z
M 947 1747 
Q 947 1113 1208 752 
Q 1469 391 1925 391 
Q 2381 391 2643 752 
Q 2906 1113 2906 1747 
Q 2906 2381 2643 2742 
Q 2381 3103 1925 3103 
Q 1469 3103 1208 2742 
Q 947 2381 947 1747 
z
" transform="scale(0.015625)"/>
      </defs>
      <use xlink:href="#DejaVuSans-4f"/>
      <use xlink:href="#DejaVuSans-6c" transform="translate(78.710938 0)"/>
      <use xlink:href="#DejaVuSans-64" transform="translate(106.494141 0)"/>
     </g>
    </g>
    <g id="line2d_14">
     <path d="M 438.512187 52.872344 
L 449.512187 52.872344 
L 460.512187 52.872344 
" style="fill: none; stroke: #000000; stroke-linecap: round"/>
    </g>
    <g id="text_17">
     <!-- New -->
     <g style="fill: #262626" transform="translate(469.312187 56.722344) scale(0.11 -0.11)">
      <defs>
       <path id="DejaVuSans-4e" d="M 628 4666 
L 1478 4666 
L 3547 763 
L 3547 4666 
L 4159 4666 
L 4159 0 
L 3309 0 
L 1241 3903 
L 1241 0 
L 628 0 
L 628 4666 
z
" transform="scale(0.015625)"/>
       <path id="DejaVuSans-77" d="M 269 3500 
L 844 3500 
L 1563 769 
L 2278 3500 
L 2956 3500 
L 3675 769 
L 4391 3500 
L 4966 3500 
L 4050 0 
L 3372 0 
L 2619 2869 
L 1863 0 
L 1184 0 
L 269 3500 
z
" transform="scale(0.015625)"/>
      </defs>
      <use xlink:href="#DejaVuSans-4e"/>
      <use xlink:href="#DejaVuSans-65" transform="translate(74.804688 0)"/>
      <use xlink:href="#DejaVuSans-77" transform="translate(136.328125 0)"/>
     </g>
    </g>
   </g>
  </g>
 </g>
 <defs>
  <clipPath id="p9d24d7b305">
   <rect x="56.805938" y="22.318125" width="446.4" height="277.2"/>
  </clipPath>
 </defs>
</svg>
