<?xml version="1.0" encoding="utf-8" standalone="no"?>
<!DOCTYPE svg PUBLIC "-//W3C//DTD SVG 1.1//EN"
  "http://www.w3.org/Graphics/SVG/1.1/DTD/svg11.dtd">
<svg xmlns:xlink="http://www.w3.org/1999/xlink" width="503.407187pt" height="342.477813pt" viewBox="0 0 503.407187 342.477813" xmlns="http://www.w3.org/2000/svg" version="1.1">
 <metadata>
  <rdf:RDF xmlns:dc="http://purl.org/dc/elements/1.1/" xmlns:cc="http://creativecommons.org/ns#" xmlns:rdf="http://www.w3.org/1999/02/22-rdf-syntax-ns#">
   <cc:Work>
    <dc:type rdf:resource="http://purl.org/dc/dcmitype/StillImage"/>
    <dc:date>2025-10-22T08:42:23.948225</dc:date>
    <dc:format>image/svg+xml</dc:format>
    <dc:creator>
     <cc:Agent>
      <dc:title>Matplotlib v3.10.6, https://matplotlib.org/</dc:title>
     </cc:Agent>
    </dc:creator>
   </cc:Work>
  </rdf:RDF>
 </metadata>
 <defs>
  <style type="text/css">*{stroke-linejoin: round; stroke-linecap: butt}</style>
 </defs>
 <g id="figure_1">
  <g id="patch_1">
   <path d="M 0 342.477813 
L 503.407187 342.477813 
L 503.407187 0 
L 0 0 
z
" style="fill: #ffffff"/>
  </g>
  <g id="axes_1">
   <g id="patch_2">
    <path d="M 49.807188 299.518125 
L 496.207187 299.518125 
L 496.207187 22.318125 
L 49.807188 22.318125 
z
" style="fill: #ffffff"/>
   </g>
   <g id="FillBetweenPolyCollection_1">
    <defs>
     <path id="m9ddbb26bf2" d="M 79.009708 -42.959688 
L 79.009708 -43.079596 
L 80.649022 -43.173287 
L 82.288336 -43.331506 
L 83.927651 -43.592166 
L 85.566965 -44.011034 
L 87.20628 -44.667486 
L 88.845594 -45.670676 
L 90.484908 -47.165319 
L 92.124223 -49.335919 
L 93.763537 -52.407843 
L 95.402852 -56.643461 
L 97.042166 -62.331563 
L 98.68148 -69.76873 
L 100.320795 -79.232265 
L 101.960109 -90.945657 
L 103.599424 -105.039283 
L 105.238738 -121.510811 
L 106.878052 -140.191158 
L 108.517367 -160.722502 
L 110.156681 -182.554344 
L 111.795996 -204.96182 
L 113.43531 -227.087501 
L 115.074624 -248.004217 
L 116.713939 -266.792636 
L 118.353253 -282.624256 
L 119.992567 -294.838855 
L 121.631882 -303.005658 
L 123.271196 -306.959688 
L 124.910511 -306.808543 
L 126.549825 -302.909415 
L 128.189139 -295.820702 
L 129.828454 -286.236132 
L 131.467768 -274.911331 
L 133.107083 -262.592889 
L 134.746397 -249.958478 
L 136.385711 -237.573779 
L 138.025026 -225.868726 
L 139.66434 -215.132346 
L 141.303655 -205.523012 
L 142.942969 -197.089411 
L 144.582283 -189.797083 
L 146.221598 -183.555849 
L 147.860912 -178.244538 
L 149.500227 -173.730788 
L 151.139541 -169.88504 
L 152.778855 -166.588945 
L 154.41817 -163.739156 
L 156.057484 -161.247836 
L 157.696798 -159.041223 
L 159.336113 -157.05742 
L 160.975427 -155.244242 
L 162.614742 -153.55757 
L 164.254056 -151.960382 
L 165.89337 -150.422375 
L 167.532685 -148.919982 
L 169.171999 -147.436525 
L 170.811314 -145.962297 
L 172.450628 -144.494421 
L 174.089942 -143.036397 
L 175.729257 -141.597337 
L 177.368571 -140.190905 
L 179.007886 -138.834033 
L 180.6472 -137.545475 
L 182.286514 -136.344283 
L 183.925829 -135.2483 
L 185.565143 -134.272754 
L 187.204458 -133.429065 
L 188.843772 -132.723929 
L 190.483086 -132.158756 
L 192.122401 -131.729455 
L 193.761715 -131.426561 
L 195.40103 -131.23562 
L 197.040344 -131.137793 
L 198.679658 -131.110577 
L 200.318973 -131.128649 
L 201.958287 -131.164791 
L 203.597601 -131.190936 
L 205.236916 -131.179337 
L 206.87623 -131.103821 
L 208.515545 -130.941077 
L 210.154859 -130.671823 
L 211.794173 -130.281715 
L 213.433488 -129.761832 
L 215.072802 -129.108644 
L 216.712117 -128.323471 
L 218.351431 -127.411504 
L 219.990745 -126.380613 
L 221.63006 -125.240144 
L 223.269374 -123.999964 
L 224.908689 -122.669883 
L 226.548003 -121.259513 
L 228.187317 -119.778491 
L 229.826632 -118.236902 
L 231.465946 -116.645683 
L 233.105261 -115.016824 
L 234.744575 -113.363235 
L 236.383889 -111.698256 
L 238.023204 -110.03488 
L 239.662518 -108.384835 
L 241.301832 -106.757705 
L 242.941147 -105.160248 
L 244.580461 -103.596022 
L 246.219776 -102.065361 
L 247.85909 -100.565674 
L 249.498404 -99.091997 
L 251.137719 -97.637718 
L 252.777033 -96.195361 
L 254.416348 -94.757386 
L 256.055662 -93.316926 
L 257.694976 -91.868435 
L 259.334291 -90.408225 
L 260.973605 -88.934854 
L 262.61292 -87.449352 
L 264.252234 -85.955259 
L 265.891548 -84.458482 
L 267.530863 -82.96695 
L 269.170177 -81.490122 
L 270.809492 -80.038348 
L 272.448806 -78.622163 
L 274.08812 -77.251517 
L 275.727435 -75.935023 
L 277.366749 -74.679231 
L 279.006063 -73.487994 
L 280.645378 -72.361954 
L 282.284692 -71.298228 
L 283.924007 -70.290335 
L 285.563321 -69.328421 
L 287.202635 -68.399817 
L 288.84195 -67.489922 
L 290.481264 -66.583351 
L 292.120579 -65.665254 
L 293.759893 -64.722666 
L 295.399207 -63.745728 
L 297.038522 -62.728644 
L 298.677836 -61.670242 
L 300.317151 -60.574098 
L 301.956465 -59.448207 
L 303.595779 -58.30426 
L 305.235094 -57.156639 
L 306.874408 -56.021235 
L 308.513723 -54.91424 
L 310.153037 -53.851029 
L 311.792351 -52.845212 
L 313.431666 -51.907945 
L 315.07098 -51.047501 
L 316.710294 -50.26911 
L 318.349609 -49.575041 
L 319.988923 -48.96485 
L 321.628238 -48.435754 
L 323.267552 -47.983048 
L 324.906866 -47.600517 
L 326.546181 -47.280797 
L 328.185495 -47.015688 
L 329.82481 -46.79641 
L 331.464124 -46.613845 
L 333.103438 -46.45879 
L 334.742753 -46.32226 
L 336.382067 -46.195835 
L 338.021382 -46.072045 
L 339.660696 -45.944756 
L 341.30001 -45.80949 
L 342.939325 -45.663635 
L 344.578639 -45.506485 
L 346.217954 -45.339118 
L 347.857268 -45.164085 
L 349.496582 -44.984988 
L 351.135897 -44.80598 
L 352.775211 -44.631265 
L 354.414526 -44.464663 
L 356.05384 -44.309272 
L 357.693154 -44.167261 
L 359.332469 -44.039797 
L 360.971783 -43.927078 
L 362.611097 -43.828465 
L 364.250412 -43.742661 
L 365.889726 -43.667924 
L 367.529041 -43.602288 
L 369.168355 -43.54376 
L 370.807669 -43.490495 
L 372.446984 -43.440928 
L 374.086298 -43.393865 
L 375.725613 -43.348527 
L 377.364927 -43.304541 
L 379.004241 -43.261897 
L 380.643556 -43.220868 
L 382.28287 -43.181913 
L 383.922185 -43.145565 
L 385.561499 -43.112339 
L 387.200813 -43.082645 
L 388.840128 -43.056741 
L 390.479442 -43.034701 
L 392.118757 -43.016425 
L 393.758071 -43.001662 
L 395.397385 -42.990047 
L 397.0367 -42.981148 
L 398.676014 -42.974508 
L 400.315328 -42.969685 
L 401.954643 -42.966274 
L 403.593957 -42.963924 
L 405.233272 -42.962347 
L 405.233272 -42.959688 
L 405.233272 -42.959688 
L 403.593957 -42.959688 
L 401.954643 -42.959688 
L 400.315328 -42.959688 
L 398.676014 -42.959688 
L 397.0367 -42.959688 
L 395.397385 -42.959688 
L 393.758071 -42.959688 
L 392.118757 -42.959688 
L 390.479442 -42.959688 
L 388.840128 -42.959688 
L 387.200813 -42.959688 
L 385.561499 -42.959688 
L 383.922185 -42.959688 
L 382.28287 -42.959688 
L 380.643556 -42.959688 
L 379.004241 -42.959688 
L 377.364927 -42.959688 
L 375.725613 -42.959688 
L 374.086298 -42.959688 
L 372.446984 -42.959688 
L 370.807669 -42.959688 
L 369.168355 -42.959688 
L 367.529041 -42.959688 
L 365.889726 -42.959688 
L 364.250412 -42.959688 
L 362.611097 -42.959688 
L 360.971783 -42.959688 
L 359.332469 -42.959688 
L 357.693154 -42.959688 
L 356.05384 -42.959688 
L 354.414526 -42.959688 
L 352.775211 -42.959688 
L 351.135897 -42.959688 
L 349.496582 -42.959688 
L 347.857268 -42.959688 
L 346.217954 -42.959688 
L 344.578639 -42.959688 
L 342.939325 -42.959688 
L 341.30001 -42.959688 
L 339.660696 -42.959688 
L 338.021382 -42.959688 
L 336.382067 -42.959688 
L 334.742753 -42.959688 
L 333.103438 -42.959688 
L 331.464124 -42.959688 
L 329.82481 -42.959688 
L 328.185495 -42.959688 
L 326.546181 -42.959688 
L 324.906866 -42.959688 
L 323.267552 -42.959688 
L 321.628238 -42.959688 
L 319.988923 -42.959688 
L 318.349609 -42.959688 
L 316.710294 -42.959688 
L 315.07098 -42.959688 
L 313.431666 -42.959688 
L 311.792351 -42.959688 
L 310.153037 -42.959688 
L 308.513723 -42.959688 
L 306.874408 -42.959688 
L 305.235094 -42.959688 
L 303.595779 -42.959688 
L 301.956465 -42.959688 
L 300.317151 -42.959688 
L 298.677836 -42.959688 
L 297.038522 -42.959688 
L 295.399207 -42.959688 
L 293.759893 -42.959688 
L 292.120579 -42.959688 
L 290.481264 -42.959688 
L 288.84195 -42.959688 
L 287.202635 -42.959688 
L 285.563321 -42.959688 
L 283.924007 -42.959688 
L 282.284692 -42.959688 
L 280.645378 -42.959688 
L 279.006063 -42.959688 
L 277.366749 -42.959688 
L 275.727435 -42.959688 
L 274.08812 -42.959688 
L 272.448806 -42.959688 
L 270.809492 -42.959688 
L 269.170177 -42.959688 
L 267.530863 -42.959688 
L 265.891548 -42.959688 
L 264.252234 -42.959688 
L 262.61292 -42.959688 
L 260.973605 -42.959688 
L 259.334291 -42.959688 
L 257.694976 -42.959688 
L 256.055662 -42.959688 
L 254.416348 -42.959688 
L 252.777033 -42.959688 
L 251.137719 -42.959688 
L 249.498404 -42.959688 
L 247.85909 -42.959688 
L 246.219776 -42.959688 
L 244.580461 -42.959688 
L 242.941147 -42.959688 
L 241.301832 -42.959688 
L 239.662518 -42.959688 
L 238.023204 -42.959688 
L 236.383889 -42.959688 
L 234.744575 -42.959688 
L 233.105261 -42.959688 
L 231.465946 -42.959688 
L 229.826632 -42.959688 
L 228.187317 -42.959688 
L 226.548003 -42.959688 
L 224.908689 -42.959688 
L 223.269374 -42.959688 
L 221.63006 -42.959688 
L 219.990745 -42.959688 
L 218.351431 -42.959688 
L 216.712117 -42.959688 
L 215.072802 -42.959688 
L 213.433488 -42.959688 
L 211.794173 -42.959688 
L 210.154859 -42.959688 
L 208.515545 -42.959688 
L 206.87623 -42.959688 
L 205.236916 -42.959688 
L 203.597601 -42.959688 
L 201.958287 -42.959688 
L 200.318973 -42.959688 
L 198.679658 -42.959688 
L 197.040344 -42.959688 
L 195.40103 -42.959688 
L 193.761715 -42.959688 
L 192.122401 -42.959688 
L 190.483086 -42.959688 
L 188.843772 -42.959688 
L 187.204458 -42.959688 
L 185.565143 -42.959688 
L 183.925829 -42.959688 
L 182.286514 -42.959688 
L 180.6472 -42.959688 
L 179.007886 -42.959688 
L 177.368571 -42.959688 
L 175.729257 -42.959688 
L 174.089942 -42.959688 
L 172.450628 -42.959688 
L 170.811314 -42.959688 
L 169.171999 -42.959688 
L 167.532685 -42.959688 
L 165.89337 -42.959688 
L 164.254056 -42.959688 
L 162.614742 -42.959688 
L 160.975427 -42.959688 
L 159.336113 -42.959688 
L 157.696798 -42.959688 
L 156.057484 -42.959688 
L 154.41817 -42.959688 
L 152.778855 -42.959688 
L 151.139541 -42.959688 
L 149.500227 -42.959688 
L 147.860912 -42.959688 
L 146.221598 -42.959688 
L 144.582283 -42.959688 
L 142.942969 -42.959688 
L 141.303655 -42.959688 
L 139.66434 -42.959688 
L 138.025026 -42.959688 
L 136.385711 -42.959688 
L 134.746397 -42.959688 
L 133.107083 -42.959688 
L 131.467768 -42.959688 
L 129.828454 -42.959688 
L 128.189139 -42.959688 
L 126.549825 -42.959688 
L 124.910511 -42.959688 
L 123.271196 -42.959688 
L 121.631882 -42.959688 
L 119.992567 -42.959688 
L 118.353253 -42.959688 
L 116.713939 -42.959688 
L 115.074624 -42.959688 
L 113.43531 -42.959688 
L 111.795996 -42.959688 
L 110.156681 -42.959688 
L 108.517367 -42.959688 
L 106.878052 -42.959688 
L 105.238738 -42.959688 
L 103.599424 -42.959688 
L 101.960109 -42.959688 
L 100.320795 -42.959688 
L 98.68148 -42.959688 
L 97.042166 -42.959688 
L 95.402852 -42.959688 
L 93.763537 -42.959688 
L 92.124223 -42.959688 
L 90.484908 -42.959688 
L 88.845594 -42.959688 
L 87.20628 -42.959688 
L 85.566965 -42.959688 
L 83.927651 -42.959688 
L 82.288336 -42.959688 
L 80.649022 -42.959688 
L 79.009708 -42.959688 
z
" style="stroke: #ffffff"/>
    </defs>
    <g clip-path="url(#p834639a628)">
     <use xlink:href="#m9ddbb26bf2" x="0" y="342.477813" style="fill: #ffffff; stroke: #ffffff"/>
    </g>
   </g>
   <g id="matplotlib.axis_1">
    <g id="xtick_1">
     <g id="line2d_1">
      <path d="M 91.388725 299.518125 
L 91.388725 22.318125 
" clip-path="url(#p834639a628)" style="fill: none; stroke: #cccccc; stroke-linecap: round"/>
     </g>
     <g id="text_1">
      <!-- 0.0 -->
      <g style="fill: #262626" transform="translate(82.642006 317.376406) scale(0.11 -0.11)">
       <defs>
        <path id="DejaVuSans-30" d="M 2034 4250 
Q 1547 4250 1301 3770 
Q 1056 3291 1056 2328 
Q 1056 1369 1301 889 
Q 1547 409 2034 409 
Q 2525 409 2770 889 
Q 3016 1369 3016 2328 
Q 3016 3291 2770 3770 
Q 2525 4250 2034 4250 
z
M 2034 4750 
Q 2819 4750 3233 4129 
Q 3647 3509 3647 2328 
Q 3647 1150 3233 529 
Q 2819 -91 2034 -91 
Q 1250 -91 836 529 
Q 422 1150 422 2328 
Q 422 3509 836 4129 
Q 1250 4750 2034 4750 
z
" transform="scale(0.015625)"/>
        <path id="DejaVuSans-2e" d="M 684 794 
L 1344 794 
L 1344 0 
L 684 0 
L 684 794 
z
" transform="scale(0.015625)"/>
       </defs>
       <use xlink:href="#DejaVuSans-30"/>
       <use xlink:href="#DejaVuSans-2e" transform="translate(63.623047 0)"/>
       <use xlink:href="#DejaVuSans-30" transform="translate(95.410156 0)"/>
      </g>
     </g>
    </g>
    <g id="xtick_2">
     <g id="line2d_2">
      <path d="M 144.18479 299.518125 
L 144.18479 22.318125 
" clip-path="url(#p834639a628)" style="fill: none; stroke: #cccccc; stroke-linecap: round"/>
     </g>
     <g id="text_2">
      <!-- 0.5 -->
      <g style="fill: #262626" transform="translate(135.438071 317.376406) scale(0.11 -0.11)">
       <defs>
        <path id="DejaVuSans-35" d="M 691 4666 
L 3169 4666 
L 3169 4134 
L 1269 4134 
L 1269 2991 
Q 1406 3038 1543 3061 
Q 1681 3084 1819 3084 
Q 2600 3084 3056 2656 
Q 3513 2228 3513 1497 
Q 3513 744 3044 326 
Q 2575 -91 1722 -91 
Q 1428 -91 1123 -41 
Q 819 9 494 109 
L 494 744 
Q 775 591 1075 516 
Q 1375 441 1709 441 
Q 2250 441 2565 725 
Q 2881 1009 2881 1497 
Q 2881 1984 2565 2268 
Q 2250 2553 1709 2553 
Q 1456 2553 1204 2497 
Q 953 2441 691 2322 
L 691 4666 
z
" transform="scale(0.015625)"/>
       </defs>
       <use xlink:href="#DejaVuSans-30"/>
       <use xlink:href="#DejaVuSans-2e" transform="translate(63.623047 0)"/>
       <use xlink:href="#DejaVuSans-35" transform="translate(95.410156 0)"/>
      </g>
     </g>
    </g>
    <g id="xtick_3">
     <g id="line2d_3">
      <path d="M 196.980854 299.518125 
L 196.980854 22.318125 
" clip-path="url(#p834639a628)" style="fill: none; stroke: #cccccc; stroke-linecap: round"/>
     </g>
     <g id="text_3">
      <!-- 1.0 -->
      <g style="fill: #262626" transform="translate(188.234136 317.376406) scale(0.11 -0.11)">
       <defs>
        <path id="DejaVuSans-31" d="M 794 531 
L 1825 531 
L 1825 4091 
L 703 3866 
L 703 4441 
L 1819 4666 
L 2450 4666 
L 2450 531 
L 3481 531 
L 3481 0 
L 794 0 
L 794 531 
z
" transform="scale(0.015625)"/>
       </defs>
       <use xlink:href="#DejaVuSans-31"/>
       <use xlink:href="#DejaVuSans-2e" transform="translate(63.623047 0)"/>
       <use xlink:href="#DejaVuSans-30" transform="translate(95.410156 0)"/>
      </g>
     </g>
    </g>
    <g id="xtick_4">
     <g id="line2d_4">
      <path d="M 249.776919 299.518125 
L 249.776919 22.318125 
" clip-path="url(#p834639a628)" style="fill: none; stroke: #cccccc; stroke-linecap: round"/>
     </g>
     <g id="text_4">
      <!-- 1.5 -->
      <g style="fill: #262626" transform="translate(241.0302 317.376406) scale(0.11 -0.11)">
       <use xlink:href="#DejaVuSans-31"/>
       <use xlink:href="#DejaVuSans-2e" transform="translate(63.623047 0)"/>
       <use xlink:href="#DejaVuSans-35" transform="translate(95.410156 0)"/>
      </g>
     </g>
    </g>
    <g id="xtick_5">
     <g id="line2d_5">
      <path d="M 302.572984 299.518125 
L 302.572984 22.318125 
" clip-path="url(#p834639a628)" style="fill: none; stroke: #cccccc; stroke-linecap: round"/>
     </g>
     <g id="text_5">
      <!-- 2.0 -->
      <g style="fill: #262626" transform="translate(293.826265 317.376406) scale(0.11 -0.11)">
       <defs>
        <path id="DejaVuSans-32" d="M 1228 531 
L 3431 531 
L 3431 0 
L 469 0 
L 469 531 
Q 828 903 1448 1529 
Q 2069 2156 2228 2338 
Q 2531 2678 2651 2914 
Q 2772 3150 2772 3378 
Q 2772 3750 2511 3984 
Q 2250 4219 1831 4219 
Q 1534 4219 1204 4116 
Q 875 4013 500 3803 
L 500 4441 
Q 881 4594 1212 4672 
Q 1544 4750 1819 4750 
Q 2544 4750 2975 4387 
Q 3406 4025 3406 3419 
Q 3406 3131 3298 2873 
Q 3191 2616 2906 2266 
Q 2828 2175 2409 1742 
Q 1991 1309 1228 531 
z
" transform="scale(0.015625)"/>
       </defs>
       <use xlink:href="#DejaVuSans-32"/>
       <use xlink:href="#DejaVuSans-2e" transform="translate(63.623047 0)"/>
       <use xlink:href="#DejaVuSans-30" transform="translate(95.410156 0)"/>
      </g>
     </g>
    </g>
    <g id="xtick_6">
     <g id="line2d_6">
      <path d="M 355.369048 299.518125 
L 355.369048 22.318125 
" clip-path="url(#p834639a628)" style="fill: none; stroke: #cccccc; stroke-linecap: round"/>
     </g>
     <g id="text_6">
      <!-- 2.5 -->
      <g style="fill: #262626" transform="translate(346.62233 317.376406) scale(0.11 -0.11)">
       <use xlink:href="#DejaVuSans-32"/>
       <use xlink:href="#DejaVuSans-2e" transform="translate(63.623047 0)"/>
       <use xlink:href="#DejaVuSans-35" transform="translate(95.410156 0)"/>
      </g>
     </g>
    </g>
    <g id="xtick_7">
     <g id="line2d_7">
      <path d="M 408.165113 299.518125 
L 408.165113 22.318125 
" clip-path="url(#p834639a628)" style="fill: none; stroke: #cccccc; stroke-linecap: round"/>
     </g>
     <g id="text_7">
      <!-- 3.0 -->
      <g style="fill: #262626" transform="translate(399.418394 317.376406) scale(0.11 -0.11)">
       <defs>
        <path id="DejaVuSans-33" d="M 2597 2516 
Q 3050 2419 3304 2112 
Q 3559 1806 3559 1356 
Q 3559 666 3084 287 
Q 2609 -91 1734 -91 
Q 1441 -91 1130 -33 
Q 819 25 488 141 
L 488 750 
Q 750 597 1062 519 
Q 1375 441 1716 441 
Q 2309 441 2620 675 
Q 2931 909 2931 1356 
Q 2931 1769 2642 2001 
Q 2353 2234 1838 2234 
L 1294 2234 
L 1294 2753 
L 1863 2753 
Q 2328 2753 2575 2939 
Q 2822 3125 2822 3475 
Q 2822 3834 2567 4026 
Q 2313 4219 1838 4219 
Q 1578 4219 1281 4162 
Q 984 4106 628 3988 
L 628 4550 
Q 988 4650 1302 4700 
Q 1616 4750 1894 4750 
Q 2613 4750 3031 4423 
Q 3450 4097 3450 3541 
Q 3450 3153 3228 2886 
Q 3006 2619 2597 2516 
z
" transform="scale(0.015625)"/>
       </defs>
       <use xlink:href="#DejaVuSans-33"/>
       <use xlink:href="#DejaVuSans-2e" transform="translate(63.623047 0)"/>
       <use xlink:href="#DejaVuSans-30" transform="translate(95.410156 0)"/>
      </g>
     </g>
    </g>
    <g id="xtick_8">
     <g id="line2d_8">
      <path d="M 460.961178 299.518125 
L 460.961178 22.318125 
" clip-path="url(#p834639a628)" style="fill: none; stroke: #cccccc; stroke-linecap: round"/>
     </g>
     <g id="text_8">
      <!-- 3.5 -->
      <g style="fill: #262626" transform="translate(452.214459 317.376406) scale(0.11 -0.11)">
       <use xlink:href="#DejaVuSans-33"/>
       <use xlink:href="#DejaVuSans-2e" transform="translate(63.623047 0)"/>
       <use xlink:href="#DejaVuSans-35" transform="translate(95.410156 0)"/>
      </g>
     </g>
    </g>
    <g id="text_9">
     <!-- NI -->
     <g style="fill: #262626" transform="translate(266.748437 332.782188) scale(0.12 -0.12)">
      <defs>
       <path id="DejaVuSans-4e" d="M 628 4666 
L 1478 4666 
L 3547 763 
L 3547 4666 
L 4159 4666 
L 4159 0 
L 3309 0 
L 1241 3903 
L 1241 0 
L 628 0 
L 628 4666 
z
" transform="scale(0.015625)"/>
       <path id="DejaVuSans-49" d="M 628 4666 
L 1259 4666 
L 1259 0 
L 628 0 
L 628 4666 
z
" transform="scale(0.015625)"/>
      </defs>
      <use xlink:href="#DejaVuSans-4e"/>
      <use xlink:href="#DejaVuSans-49" transform="translate(74.804688 0)"/>
     </g>
    </g>
   </g>
   <g id="matplotlib.axis_2">
    <g id="ytick_1">
     <g id="line2d_9">
      <path d="M 49.807188 299.518125 
L 496.207187 299.518125 
" clip-path="url(#p834639a628)" style="fill: none; stroke: #cccccc; stroke-linecap: round"/>
     </g>
     <g id="text_10">
      <!-- 0.0 -->
      <g style="fill: #262626" transform="translate(22.81375 303.697266) scale(0.11 -0.11)">
       <use xlink:href="#DejaVuSans-30"/>
       <use xlink:href="#DejaVuSans-2e" transform="translate(63.623047 0)"/>
       <use xlink:href="#DejaVuSans-30" transform="translate(95.410156 0)"/>
      </g>
     </g>
    </g>
    <g id="ytick_2">
     <g id="line2d_10">
      <path d="M 49.807188 261.44831 
L 496.207187 261.44831 
" clip-path="url(#p834639a628)" style="fill: none; stroke: #cccccc; stroke-linecap: round"/>
     </g>
     <g id="text_11">
      <!-- 0.2 -->
      <g style="fill: #262626" transform="translate(22.81375 265.627451) scale(0.11 -0.11)">
       <use xlink:href="#DejaVuSans-30"/>
       <use xlink:href="#DejaVuSans-2e" transform="translate(63.623047 0)"/>
       <use xlink:href="#DejaVuSans-32" transform="translate(95.410156 0)"/>
      </g>
     </g>
    </g>
    <g id="ytick_3">
     <g id="line2d_11">
      <path d="M 49.807188 223.378495 
L 496.207187 223.378495 
" clip-path="url(#p834639a628)" style="fill: none; stroke: #cccccc; stroke-linecap: round"/>
     </g>
     <g id="text_12">
      <!-- 0.4 -->
      <g style="fill: #262626" transform="translate(22.81375 227.557636) scale(0.11 -0.11)">
       <defs>
        <path id="DejaVuSans-34" d="M 2419 4116 
L 825 1625 
L 2419 1625 
L 2419 4116 
z
M 2253 4666 
L 3047 4666 
L 3047 1625 
L 3713 1625 
L 3713 1100 
L 3047 1100 
L 3047 0 
L 2419 0 
L 2419 1100 
L 313 1100 
L 313 1709 
L 2253 4666 
z
" transform="scale(0.015625)"/>
       </defs>
       <use xlink:href="#DejaVuSans-30"/>
       <use xlink:href="#DejaVuSans-2e" transform="translate(63.623047 0)"/>
       <use xlink:href="#DejaVuSans-34" transform="translate(95.410156 0)"/>
      </g>
     </g>
    </g>
    <g id="ytick_4">
     <g id="line2d_12">
      <path d="M 49.807188 185.308681 
L 496.207187 185.308681 
" clip-path="url(#p834639a628)" style="fill: none; stroke: #cccccc; stroke-linecap: round"/>
     </g>
     <g id="text_13">
      <!-- 0.6 -->
      <g style="fill: #262626" transform="translate(22.81375 189.487821) scale(0.11 -0.11)">
       <defs>
        <path id="DejaVuSans-36" d="M 2113 2584 
Q 1688 2584 1439 2293 
Q 1191 2003 1191 1497 
Q 1191 994 1439 701 
Q 1688 409 2113 409 
Q 2538 409 2786 701 
Q 3034 994 3034 1497 
Q 3034 2003 2786 2293 
Q 2538 2584 2113 2584 
z
M 3366 4563 
L 3366 3988 
Q 3128 4100 2886 4159 
Q 2644 4219 2406 4219 
Q 1781 4219 1451 3797 
Q 1122 3375 1075 2522 
Q 1259 2794 1537 2939 
Q 1816 3084 2150 3084 
Q 2853 3084 3261 2657 
Q 3669 2231 3669 1497 
Q 3669 778 3244 343 
Q 2819 -91 2113 -91 
Q 1303 -91 875 529 
Q 447 1150 447 2328 
Q 447 3434 972 4092 
Q 1497 4750 2381 4750 
Q 2619 4750 2861 4703 
Q 3103 4656 3366 4563 
z
" transform="scale(0.015625)"/>
       </defs>
       <use xlink:href="#DejaVuSans-30"/>
       <use xlink:href="#DejaVuSans-2e" transform="translate(63.623047 0)"/>
       <use xlink:href="#DejaVuSans-36" transform="translate(95.410156 0)"/>
      </g>
     </g>
    </g>
    <g id="ytick_5">
     <g id="line2d_13">
      <path d="M 49.807188 147.238866 
L 496.207187 147.238866 
" clip-path="url(#p834639a628)" style="fill: none; stroke: #cccccc; stroke-linecap: round"/>
     </g>
     <g id="text_14">
      <!-- 0.8 -->
      <g style="fill: #262626" transform="translate(22.81375 151.418006) scale(0.11 -0.11)">
       <defs>
        <path id="DejaVuSans-38" d="M 2034 2216 
Q 1584 2216 1326 1975 
Q 1069 1734 1069 1313 
Q 1069 891 1326 650 
Q 1584 409 2034 409 
Q 2484 409 2743 651 
Q 3003 894 3003 1313 
Q 3003 1734 2745 1975 
Q 2488 2216 2034 2216 
z
M 1403 2484 
Q 997 2584 770 2862 
Q 544 3141 544 3541 
Q 544 4100 942 4425 
Q 1341 4750 2034 4750 
Q 2731 4750 3128 4425 
Q 3525 4100 3525 3541 
Q 3525 3141 3298 2862 
Q 3072 2584 2669 2484 
Q 3125 2378 3379 2068 
Q 3634 1759 3634 1313 
Q 3634 634 3220 271 
Q 2806 -91 2034 -91 
Q 1263 -91 848 271 
Q 434 634 434 1313 
Q 434 1759 690 2068 
Q 947 2378 1403 2484 
z
M 1172 3481 
Q 1172 3119 1398 2916 
Q 1625 2713 2034 2713 
Q 2441 2713 2670 2916 
Q 2900 3119 2900 3481 
Q 2900 3844 2670 4047 
Q 2441 4250 2034 4250 
Q 1625 4250 1398 4047 
Q 1172 3844 1172 3481 
z
" transform="scale(0.015625)"/>
       </defs>
       <use xlink:href="#DejaVuSans-30"/>
       <use xlink:href="#DejaVuSans-2e" transform="translate(63.623047 0)"/>
       <use xlink:href="#DejaVuSans-38" transform="translate(95.410156 0)"/>
      </g>
     </g>
    </g>
    <g id="ytick_6">
     <g id="line2d_14">
      <path d="M 49.807188 109.169051 
L 496.207187 109.169051 
" clip-path="url(#p834639a628)" style="fill: none; stroke: #cccccc; stroke-linecap: round"/>
     </g>
     <g id="text_15">
      <!-- 1.0 -->
      <g style="fill: #262626" transform="translate(22.81375 113.348192) scale(0.11 -0.11)">
       <use xlink:href="#DejaVuSans-31"/>
       <use xlink:href="#DejaVuSans-2e" transform="translate(63.623047 0)"/>
       <use xlink:href="#DejaVuSans-30" transform="translate(95.410156 0)"/>
      </g>
     </g>
    </g>
    <g id="ytick_7">
     <g id="line2d_15">
      <path d="M 49.807188 71.099236 
L 496.207187 71.099236 
" clip-path="url(#p834639a628)" style="fill: none; stroke: #cccccc; stroke-linecap: round"/>
     </g>
     <g id="text_16">
      <!-- 1.2 -->
      <g style="fill: #262626" transform="translate(22.81375 75.278377) scale(0.11 -0.11)">
       <use xlink:href="#DejaVuSans-31"/>
       <use xlink:href="#DejaVuSans-2e" transform="translate(63.623047 0)"/>
       <use xlink:href="#DejaVuSans-32" transform="translate(95.410156 0)"/>
      </g>
     </g>
    </g>
    <g id="ytick_8">
     <g id="line2d_16">
      <path d="M 49.807188 33.029421 
L 496.207187 33.029421 
" clip-path="url(#p834639a628)" style="fill: none; stroke: #cccccc; stroke-linecap: round"/>
     </g>
     <g id="text_17">
      <!-- 1.4 -->
      <g style="fill: #262626" transform="translate(22.81375 37.208562) scale(0.11 -0.11)">
       <use xlink:href="#DejaVuSans-31"/>
       <use xlink:href="#DejaVuSans-2e" transform="translate(63.623047 0)"/>
       <use xlink:href="#DejaVuSans-34" transform="translate(95.410156 0)"/>
      </g>
     </g>
    </g>
    <g id="text_18">
     <!-- Density -->
     <g style="fill: #262626" transform="translate(16.318125 183.728438) rotate(-90) scale(0.12 -0.12)">
      <defs>
       <path id="DejaVuSans-44" d="M 1259 4147 
L 1259 519 
L 2022 519 
Q 2988 519 3436 956 
Q 3884 1394 3884 2338 
Q 3884 3275 3436 3711 
Q 2988 4147 2022 4147 
L 1259 4147 
z
M 628 4666 
L 1925 4666 
Q 3281 4666 3915 4102 
Q 4550 3538 4550 2338 
Q 4550 1131 3912 565 
Q 3275 0 1925 0 
L 628 0 
L 628 4666 
z
" transform="scale(0.015625)"/>
       <path id="DejaVuSans-65" d="M 3597 1894 
L 3597 1613 
L 953 1613 
Q 991 1019 1311 708 
Q 1631 397 2203 397 
Q 2534 397 2845 478 
Q 3156 559 3463 722 
L 3463 178 
Q 3153 47 2828 -22 
Q 2503 -91 2169 -91 
Q 1331 -91 842 396 
Q 353 884 353 1716 
Q 353 2575 817 3079 
Q 1281 3584 2069 3584 
Q 2775 3584 3186 3129 
Q 3597 2675 3597 1894 
z
M 3022 2063 
Q 3016 2534 2758 2815 
Q 2500 3097 2075 3097 
Q 1594 3097 1305 2825 
Q 1016 2553 972 2059 
L 3022 2063 
z
" transform="scale(0.015625)"/>
       <path id="DejaVuSans-6e" d="M 3513 2113 
L 3513 0 
L 2938 0 
L 2938 2094 
Q 2938 2591 2744 2837 
Q 2550 3084 2163 3084 
Q 1697 3084 1428 2787 
Q 1159 2491 1159 1978 
L 1159 0 
L 581 0 
L 581 3500 
L 1159 3500 
L 1159 2956 
Q 1366 3272 1645 3428 
Q 1925 3584 2291 3584 
Q 2894 3584 3203 3211 
Q 3513 2838 3513 2113 
z
" transform="scale(0.015625)"/>
       <path id="DejaVuSans-73" d="M 2834 3397 
L 2834 2853 
Q 2591 2978 2328 3040 
Q 2066 3103 1784 3103 
Q 1356 3103 1142 2972 
Q 928 2841 928 2578 
Q 928 2378 1081 2264 
Q 1234 2150 1697 2047 
L 1894 2003 
Q 2506 1872 2764 1633 
Q 3022 1394 3022 966 
Q 3022 478 2636 193 
Q 2250 -91 1575 -91 
Q 1294 -91 989 -36 
Q 684 19 347 128 
L 347 722 
Q 666 556 975 473 
Q 1284 391 1588 391 
Q 1994 391 2212 530 
Q 2431 669 2431 922 
Q 2431 1156 2273 1281 
Q 2116 1406 1581 1522 
L 1381 1569 
Q 847 1681 609 1914 
Q 372 2147 372 2553 
Q 372 3047 722 3315 
Q 1072 3584 1716 3584 
Q 2034 3584 2315 3537 
Q 2597 3491 2834 3397 
z
" transform="scale(0.015625)"/>
       <path id="DejaVuSans-69" d="M 603 3500 
L 1178 3500 
L 1178 0 
L 603 0 
L 603 3500 
z
M 603 4863 
L 1178 4863 
L 1178 4134 
L 603 4134 
L 603 4863 
z
" transform="scale(0.015625)"/>
       <path id="DejaVuSans-74" d="M 1172 4494 
L 1172 3500 
L 2356 3500 
L 2356 3053 
L 1172 3053 
L 1172 1153 
Q 1172 725 1289 603 
Q 1406 481 1766 481 
L 2356 481 
L 2356 0 
L 1766 0 
Q 1100 0 847 248 
Q 594 497 594 1153 
L 594 3053 
L 172 3053 
L 172 3500 
L 594 3500 
L 594 4494 
L 1172 4494 
z
" transform="scale(0.015625)"/>
       <path id="DejaVuSans-79" d="M 2059 -325 
Q 1816 -950 1584 -1140 
Q 1353 -1331 966 -1331 
L 506 -1331 
L 506 -850 
L 844 -850 
Q 1081 -850 1212 -737 
Q 1344 -625 1503 -206 
L 1606 56 
L 191 3500 
L 800 3500 
L 1894 763 
L 2988 3500 
L 3597 3500 
L 2059 -325 
z
" transform="scale(0.015625)"/>
      </defs>
      <use xlink:href="#DejaVuSans-44"/>
      <use xlink:href="#DejaVuSans-65" transform="translate(77.001953 0)"/>
      <use xlink:href="#DejaVuSans-6e" transform="translate(138.525391 0)"/>
      <use xlink:href="#DejaVuSans-73" transform="translate(201.904297 0)"/>
      <use xlink:href="#DejaVuSans-69" transform="translate(254.003906 0)"/>
      <use xlink:href="#DejaVuSans-74" transform="translate(281.787109 0)"/>
      <use xlink:href="#DejaVuSans-79" transform="translate(320.996094 0)"/>
     </g>
    </g>
   </g>
   <g id="FillBetweenPolyCollection_2">
    <defs>
     <path id="m7d9fc9e60d" d="M 70.098097 -42.962326 
L 70.098097 -42.959688 
L 72.137384 -42.959688 
L 74.176671 -42.959688 
L 76.215959 -42.959688 
L 78.255246 -42.959688 
L 80.294533 -42.959688 
L 82.333821 -42.959688 
L 84.373108 -42.959688 
L 86.412395 -42.959688 
L 88.451683 -42.959688 
L 90.49097 -42.959688 
L 92.530257 -42.959688 
L 94.569545 -42.959688 
L 96.608832 -42.959688 
L 98.648119 -42.959688 
L 100.687407 -42.959688 
L 102.726694 -42.959688 
L 104.765981 -42.959688 
L 106.805269 -42.959688 
L 108.844556 -42.959688 
L 110.883844 -42.959688 
L 112.923131 -42.959688 
L 114.962418 -42.959688 
L 117.001706 -42.959688 
L 119.040993 -42.959688 
L 121.08028 -42.959688 
L 123.119568 -42.959688 
L 125.158855 -42.959688 
L 127.198142 -42.959688 
L 129.23743 -42.959688 
L 131.276717 -42.959688 
L 133.316004 -42.959688 
L 135.355292 -42.959688 
L 137.394579 -42.959688 
L 139.433866 -42.959688 
L 141.473154 -42.959688 
L 143.512441 -42.959688 
L 145.551728 -42.959688 
L 147.591016 -42.959688 
L 149.630303 -42.959688 
L 151.66959 -42.959688 
L 153.708878 -42.959688 
L 155.748165 -42.959688 
L 157.787452 -42.959688 
L 159.82674 -42.959688 
L 161.866027 -42.959688 
L 163.905314 -42.959688 
L 165.944602 -42.959688 
L 167.983889 -42.959688 
L 170.023177 -42.959688 
L 172.062464 -42.959688 
L 174.101751 -42.959688 
L 176.141039 -42.959688 
L 178.180326 -42.959688 
L 180.219613 -42.959688 
L 182.258901 -42.959688 
L 184.298188 -42.959688 
L 186.337475 -42.959688 
L 188.376763 -42.959688 
L 190.41605 -42.959688 
L 192.455337 -42.959688 
L 194.494625 -42.959688 
L 196.533912 -42.959688 
L 198.573199 -42.959688 
L 200.612487 -42.959688 
L 202.651774 -42.959688 
L 204.691061 -42.959688 
L 206.730349 -42.959688 
L 208.769636 -42.959688 
L 210.808923 -42.959688 
L 212.848211 -42.959688 
L 214.887498 -42.959688 
L 216.926785 -42.959688 
L 218.966073 -42.959688 
L 221.00536 -42.959688 
L 223.044648 -42.959688 
L 225.083935 -42.959688 
L 227.123222 -42.959688 
L 229.16251 -42.959688 
L 231.201797 -42.959688 
L 233.241084 -42.959688 
L 235.280372 -42.959688 
L 237.319659 -42.959688 
L 239.358946 -42.959688 
L 241.398234 -42.959688 
L 243.437521 -42.959688 
L 245.476808 -42.959688 
L 247.516096 -42.959688 
L 249.555383 -42.959688 
L 251.59467 -42.959688 
L 253.633958 -42.959688 
L 255.673245 -42.959688 
L 257.712532 -42.959688 
L 259.75182 -42.959688 
L 261.791107 -42.959688 
L 263.830394 -42.959688 
L 265.869682 -42.959688 
L 267.908969 -42.959688 
L 269.948256 -42.959688 
L 271.987544 -42.959688 
L 274.026831 -42.959688 
L 276.066119 -42.959688 
L 278.105406 -42.959688 
L 280.144693 -42.959688 
L 282.183981 -42.959688 
L 284.223268 -42.959688 
L 286.262555 -42.959688 
L 288.301843 -42.959688 
L 290.34113 -42.959688 
L 292.380417 -42.959688 
L 294.419705 -42.959688 
L 296.458992 -42.959688 
L 298.498279 -42.959688 
L 300.537567 -42.959688 
L 302.576854 -42.959688 
L 304.616141 -42.959688 
L 306.655429 -42.959688 
L 308.694716 -42.959688 
L 310.734003 -42.959688 
L 312.773291 -42.959688 
L 314.812578 -42.959688 
L 316.851865 -42.959688 
L 318.891153 -42.959688 
L 320.93044 -42.959688 
L 322.969727 -42.959688 
L 325.009015 -42.959688 
L 327.048302 -42.959688 
L 329.08759 -42.959688 
L 331.126877 -42.959688 
L 333.166164 -42.959688 
L 335.205452 -42.959688 
L 337.244739 -42.959688 
L 339.284026 -42.959688 
L 341.323314 -42.959688 
L 343.362601 -42.959688 
L 345.401888 -42.959688 
L 347.441176 -42.959688 
L 349.480463 -42.959688 
L 351.51975 -42.959688 
L 353.559038 -42.959688 
L 355.598325 -42.959688 
L 357.637612 -42.959688 
L 359.6769 -42.959688 
L 361.716187 -42.959688 
L 363.755474 -42.959688 
L 365.794762 -42.959688 
L 367.834049 -42.959688 
L 369.873336 -42.959688 
L 371.912624 -42.959688 
L 373.951911 -42.959688 
L 375.991198 -42.959688 
L 378.030486 -42.959688 
L 380.069773 -42.959688 
L 382.109061 -42.959688 
L 384.148348 -42.959688 
L 386.187635 -42.959688 
L 388.226923 -42.959688 
L 390.26621 -42.959688 
L 392.305497 -42.959688 
L 394.344785 -42.959688 
L 396.384072 -42.959688 
L 398.423359 -42.959688 
L 400.462647 -42.959688 
L 402.501934 -42.959688 
L 404.541221 -42.959688 
L 406.580509 -42.959688 
L 408.619796 -42.959688 
L 410.659083 -42.959688 
L 412.698371 -42.959688 
L 414.737658 -42.959688 
L 416.776945 -42.959688 
L 418.816233 -42.959688 
L 420.85552 -42.959688 
L 422.894807 -42.959688 
L 424.934095 -42.959688 
L 426.973382 -42.959688 
L 429.012669 -42.959688 
L 431.051957 -42.959688 
L 433.091244 -42.959688 
L 435.130531 -42.959688 
L 437.169819 -42.959688 
L 439.209106 -42.959688 
L 441.248394 -42.959688 
L 443.287681 -42.959688 
L 445.326968 -42.959688 
L 447.366256 -42.959688 
L 449.405543 -42.959688 
L 451.44483 -42.959688 
L 453.484118 -42.959688 
L 455.523405 -42.959688 
L 457.562692 -42.959688 
L 459.60198 -42.959688 
L 461.641267 -42.959688 
L 463.680554 -42.959688 
L 465.719842 -42.959688 
L 467.759129 -42.959688 
L 469.798416 -42.959688 
L 471.837704 -42.959688 
L 473.876991 -42.959688 
L 475.916278 -42.959688 
L 475.916278 -42.961214 
L 475.916278 -42.961214 
L 473.876991 -42.962458 
L 471.837704 -42.964508 
L 469.798416 -42.967726 
L 467.759129 -42.972536 
L 465.719842 -42.979375 
L 463.680554 -42.988603 
L 461.641267 -43.000398 
L 459.60198 -43.01463 
L 457.562692 -43.030768 
L 455.523405 -43.047843 
L 453.484118 -43.064508 
L 451.44483 -43.079198 
L 449.405543 -43.090389 
L 447.366256 -43.096884 
L 445.326968 -43.098087 
L 443.287681 -43.094185 
L 441.248394 -43.086183 
L 439.209106 -43.07581 
L 437.169819 -43.065282 
L 435.130531 -43.057 
L 433.091244 -43.05321 
L 431.051957 -43.055684 
L 429.012669 -43.065449 
L 426.973382 -43.082589 
L 424.934095 -43.106133 
L 422.894807 -43.134088 
L 420.85552 -43.163615 
L 418.816233 -43.191369 
L 416.776945 -43.213988 
L 414.737658 -43.228637 
L 412.698371 -43.233515 
L 410.659083 -43.22821 
L 408.619796 -43.213801 
L 406.580509 -43.192696 
L 404.541221 -43.168232 
L 402.501934 -43.144138 
L 400.462647 -43.123988 
L 398.423359 -43.110761 
L 396.384072 -43.106574 
L 394.344785 -43.112625 
L 392.305497 -43.129307 
L 390.26621 -43.156428 
L 388.226923 -43.193458 
L 386.187635 -43.239728 
L 384.148348 -43.29456 
L 382.109061 -43.357342 
L 380.069773 -43.427607 
L 378.030486 -43.505219 
L 375.991198 -43.590695 
L 373.951911 -43.68564 
L 371.912624 -43.793151 
L 369.873336 -43.917964 
L 367.834049 -44.066108 
L 365.794762 -44.24396 
L 363.755474 -44.456789 
L 361.716187 -44.707127 
L 359.6769 -44.993495 
L 357.637612 -45.309992 
L 355.598325 -45.647093 
L 353.559038 -45.993641 
L 351.51975 -46.339607 
L 349.480463 -46.678907 
L 347.441176 -47.011468 
L 345.401888 -47.343911 
L 343.362601 -47.688602 
L 341.323314 -48.061296 
L 339.284026 -48.478007 
L 337.244739 -48.95196 
L 335.205452 -49.49147 
L 333.166164 -50.099362 
L 331.126877 -50.774108 
L 329.08759 -51.512424 
L 327.048302 -52.312651 
L 325.009015 -53.177973 
L 322.969727 -54.118537 
L 320.93044 -55.151718 
L 318.891153 -56.300265 
L 316.851865 -57.588528 
L 314.812578 -59.037542 
L 312.773291 -60.659997 
L 310.734003 -62.456242 
L 308.694716 -64.412239 
L 306.655429 -66.49999 
L 304.616141 -68.680433 
L 302.576854 -70.908287 
L 300.537567 -73.137916 
L 298.498279 -75.329028 
L 296.458992 -77.451053 
L 294.419705 -79.485288 
L 292.380417 -81.424443 
L 290.34113 -83.269911 
L 288.301843 -85.027699 
L 286.262555 -86.704433 
L 284.223268 -88.304803 
L 282.183981 -89.831401 
L 280.144693 -91.287032 
L 278.105406 -92.678717 
L 276.066119 -94.021879 
L 274.026831 -95.343025 
L 271.987544 -96.679653 
L 269.948256 -98.076922 
L 267.908969 -99.581669 
L 265.869682 -101.23511 
L 263.830394 -103.065905 
L 261.791107 -105.085066 
L 259.75182 -107.283618 
L 257.712532 -109.633199 
L 255.673245 -112.089212 
L 253.633958 -114.59581 
L 251.59467 -117.091854 
L 249.555383 -119.517048 
L 247.516096 -121.817502 
L 245.476808 -123.95007 
L 243.437521 -125.88498 
L 241.398234 -127.606484 
L 239.358946 -129.111662 
L 237.319659 -130.407869 
L 235.280372 -131.509577 
L 233.241084 -132.435481 
L 231.201797 -133.206482 
L 229.16251 -133.844828 
L 227.123222 -134.374256 
L 225.083935 -134.8206 
L 223.044648 -135.212242 
L 221.00536 -135.579814 
L 218.966073 -135.954821 
L 216.926785 -136.367212 
L 214.887498 -136.842255 
L 212.848211 -137.397405 
L 210.808923 -138.039985 
L 208.769636 -138.766521 
L 206.730349 -139.56428 
L 204.691061 -140.415102 
L 202.651774 -141.300887 
L 200.612487 -142.209488 
L 198.573199 -143.139291 
L 196.533912 -144.100793 
L 194.494625 -145.114127 
L 192.455337 -146.202559 
L 190.41605 -147.383344 
L 188.376763 -148.658423 
L 186.337475 -150.007882 
L 184.298188 -151.388616 
L 182.258901 -152.73924 
L 180.219613 -153.990442 
L 178.180326 -155.078215 
L 176.141039 -155.95651 
L 174.101751 -156.606035 
L 172.062464 -157.037248 
L 170.023177 -157.287551 
L 167.983889 -157.41449 
L 165.944602 -157.487835 
L 163.905314 -157.583345 
L 161.866027 -157.779968 
L 159.82674 -158.16072 
L 157.787452 -158.816071 
L 155.748165 -159.847867 
L 153.708878 -161.371688 
L 151.66959 -163.515923 
L 149.630303 -166.416264 
L 147.591016 -170.20466 
L 145.551728 -174.991904 
L 143.512441 -180.843321 
L 141.473154 -187.747928 
L 139.433866 -195.583324 
L 137.394579 -204.081365 
L 135.355292 -212.802905 
L 133.316004 -221.132159 
L 131.276717 -228.301214 
L 129.23743 -233.45146 
L 127.198142 -235.73105 
L 125.158855 -234.417169 
L 123.119568 -229.041863 
L 121.08028 -219.494067 
L 119.040993 -206.07156 
L 117.001706 -189.465763 
L 114.962418 -170.677689 
L 112.923131 -150.880562 
L 110.883844 -131.257883 
L 108.844556 -112.850967 
L 106.805269 -96.445532 
L 104.765981 -82.514857 
L 102.726694 -71.221718 
L 100.687407 -62.467709 
L 98.648119 -55.970418 
L 96.608832 -51.347429 
L 94.569545 -48.190202 
L 92.530257 -46.117939 
L 90.49097 -44.808812 
L 88.451683 -44.011412 
L 86.412395 -43.542115 
L 84.373108 -43.274564 
L 82.333821 -43.126357 
L 80.294533 -43.046312 
L 78.255246 -43.004005 
L 76.215959 -42.982045 
L 74.176671 -42.970816 
L 72.137384 -42.96515 
L 70.098097 -42.962326 
z
" style="stroke: #008000"/>
    </defs>
    <g clip-path="url(#p834639a628)">
     <use xlink:href="#m7d9fc9e60d" x="0" y="342.477813" style="fill: #008000; fill-opacity: 0.3; stroke: #008000"/>
    </g>
   </g>
   <g id="line2d_17">
    <path d="M 79.009708 299.398216 
L 82.288336 299.146306 
L 83.927651 298.885647 
L 85.566965 298.466779 
L 87.20628 297.810326 
L 88.845594 296.807136 
L 90.484908 295.312493 
L 92.124223 293.141894 
L 93.763537 290.06997 
L 95.402852 285.834351 
L 97.042166 280.146249 
L 98.68148 272.709082 
L 100.320795 263.245547 
L 101.960109 251.532155 
L 103.599424 237.438529 
L 105.238738 220.967001 
L 106.878052 202.286655 
L 110.156681 159.923468 
L 113.43531 115.390312 
L 115.074624 94.473595 
L 116.713939 75.685177 
L 118.353253 59.853557 
L 119.992567 47.638957 
L 121.631882 39.472154 
L 123.271196 35.518125 
L 124.910511 35.66927 
L 126.549825 39.568397 
L 128.189139 46.65711 
L 129.828454 56.24168 
L 131.467768 67.566482 
L 138.025026 116.609086 
L 139.66434 127.345466 
L 141.303655 136.954801 
L 142.942969 145.388401 
L 144.582283 152.680729 
L 146.221598 158.921964 
L 147.860912 164.233275 
L 149.500227 168.747024 
L 151.139541 172.592772 
L 152.778855 175.888868 
L 154.41817 178.738656 
L 156.057484 181.229976 
L 157.696798 183.43659 
L 160.975427 187.233571 
L 164.254056 190.517431 
L 169.171999 195.041287 
L 177.368571 202.286907 
L 180.6472 204.932338 
L 183.925829 207.229513 
L 185.565143 208.205058 
L 187.204458 209.048747 
L 188.843772 209.753883 
L 190.483086 210.319057 
L 192.122401 210.748357 
L 195.40103 211.242192 
L 198.679658 211.367235 
L 206.87623 211.373991 
L 210.154859 211.805989 
L 211.794173 212.196097 
L 213.433488 212.715981 
L 215.072802 213.369168 
L 216.712117 214.154342 
L 219.990745 216.0972 
L 223.269374 218.477848 
L 226.548003 221.2183 
L 229.826632 224.24091 
L 234.744575 229.114578 
L 242.941147 237.317565 
L 247.85909 241.912139 
L 257.694976 250.609378 
L 267.530863 259.510862 
L 272.448806 263.85565 
L 275.727435 266.54279 
L 279.006063 268.989819 
L 282.284692 271.179584 
L 287.202635 274.077995 
L 295.399207 278.732084 
L 300.317151 281.903714 
L 310.153037 288.626784 
L 313.431666 290.569867 
L 316.710294 292.208702 
L 319.988923 293.512963 
L 323.267552 294.494764 
L 326.546181 295.197015 
L 329.82481 295.681402 
L 334.742753 296.155552 
L 346.217954 297.138694 
L 359.332469 298.438016 
L 365.889726 298.809888 
L 377.364927 299.173272 
L 392.118757 299.461387 
L 405.233272 299.515465 
L 405.233272 299.515465 
" clip-path="url(#p834639a628)" style="fill: none; stroke: #000000; stroke-linecap: round"/>
   </g>
   <g id="patch_3">
    <path d="M 49.807188 299.518125 
L 49.807188 22.318125 
" style="fill: none; stroke: #cccccc; stroke-width: 1.25; stroke-linejoin: miter; stroke-linecap: square"/>
   </g>
   <g id="patch_4">
    <path d="M 496.207187 299.518125 
L 496.207187 22.318125 
" style="fill: none; stroke: #cccccc; stroke-width: 1.25; stroke-linejoin: miter; stroke-linecap: square"/>
   </g>
   <g id="patch_5">
    <path d="M 49.807187 299.518125 
L 496.207187 299.518125 
" style="fill: none; stroke: #cccccc; stroke-width: 1.25; stroke-linejoin: miter; stroke-linecap: square"/>
   </g>
   <g id="patch_6">
    <path d="M 49.807187 22.318125 
L 496.207187 22.318125 
" style="fill: none; stroke: #cccccc; stroke-width: 1.25; stroke-linejoin: miter; stroke-linecap: square"/>
   </g>
   <g id="text_19">
    <!-- Density Plot NI -->
    <g style="fill: #262626" transform="translate(228.81625 16.318125) scale(0.12 -0.12)">
     <defs>
      <path id="DejaVuSans-20" transform="scale(0.015625)"/>
      <path id="DejaVuSans-50" d="M 1259 4147 
L 1259 2394 
L 2053 2394 
Q 2494 2394 2734 2622 
Q 2975 2850 2975 3272 
Q 2975 3691 2734 3919 
Q 2494 4147 2053 4147 
L 1259 4147 
z
M 628 4666 
L 2053 4666 
Q 2838 4666 3239 4311 
Q 3641 3956 3641 3272 
Q 3641 2581 3239 2228 
Q 2838 1875 2053 1875 
L 1259 1875 
L 1259 0 
L 628 0 
L 628 4666 
z
" transform="scale(0.015625)"/>
      <path id="DejaVuSans-6c" d="M 603 4863 
L 1178 4863 
L 1178 0 
L 603 0 
L 603 4863 
z
" transform="scale(0.015625)"/>
      <path id="DejaVuSans-6f" d="M 1959 3097 
Q 1497 3097 1228 2736 
Q 959 2375 959 1747 
Q 959 1119 1226 758 
Q 1494 397 1959 397 
Q 2419 397 2687 759 
Q 2956 1122 2956 1747 
Q 2956 2369 2687 2733 
Q 2419 3097 1959 3097 
z
M 1959 3584 
Q 2709 3584 3137 3096 
Q 3566 2609 3566 1747 
Q 3566 888 3137 398 
Q 2709 -91 1959 -91 
Q 1206 -91 779 398 
Q 353 888 353 1747 
Q 353 2609 779 3096 
Q 1206 3584 1959 3584 
z
" transform="scale(0.015625)"/>
     </defs>
     <use xlink:href="#DejaVuSans-44"/>
     <use xlink:href="#DejaVuSans-65" transform="translate(77.001953 0)"/>
     <use xlink:href="#DejaVuSans-6e" transform="translate(138.525391 0)"/>
     <use xlink:href="#DejaVuSans-73" transform="translate(201.904297 0)"/>
     <use xlink:href="#DejaVuSans-69" transform="translate(254.003906 0)"/>
     <use xlink:href="#DejaVuSans-74" transform="translate(281.787109 0)"/>
     <use xlink:href="#DejaVuSans-79" transform="translate(320.996094 0)"/>
     <use xlink:href="#DejaVuSans-20" transform="translate(380.175781 0)"/>
     <use xlink:href="#DejaVuSans-50" transform="translate(411.962891 0)"/>
     <use xlink:href="#DejaVuSans-6c" transform="translate(472.265625 0)"/>
     <use xlink:href="#DejaVuSans-6f" transform="translate(500.048828 0)"/>
     <use xlink:href="#DejaVuSans-74" transform="translate(561.230469 0)"/>
     <use xlink:href="#DejaVuSans-20" transform="translate(600.439453 0)"/>
     <use xlink:href="#DejaVuSans-4e" transform="translate(632.226562 0)"/>
     <use xlink:href="#DejaVuSans-49" transform="translate(707.03125 0)"/>
    </g>
   </g>
   <g id="legend_1">
    <g id="patch_7">
     <path d="M 429.313437 63.41 
L 488.507187 63.41 
Q 490.707187 63.41 490.707187 61.21 
L 490.707187 30.018125 
Q 490.707187 27.818125 488.507187 27.818125 
L 429.313437 27.818125 
Q 427.113437 27.818125 427.113437 30.018125 
L 427.113437 61.21 
Q 427.113437 63.41 429.313437 63.41 
z
" style="fill: #ffffff; opacity: 0.8; stroke: #cccccc; stroke-linejoin: miter"/>
    </g>
    <g id="patch_8">
     <path d="M 431.513437 40.576406 
L 453.513437 40.576406 
L 453.513437 32.876406 
L 431.513437 32.876406 
z
" style="fill: #008000; fill-opacity: 0.3; stroke: #008000; stroke-linejoin: miter"/>
    </g>
    <g id="text_20">
     <!-- Old -->
     <g style="fill: #262626" transform="translate(462.313437 40.576406) scale(0.11 -0.11)">
      <defs>
       <path id="DejaVuSans-4f" d="M 2522 4238 
Q 1834 4238 1429 3725 
Q 1025 3213 1025 2328 
Q 1025 1447 1429 934 
Q 1834 422 2522 422 
Q 3209 422 3611 934 
Q 4013 1447 4013 2328 
Q 4013 3213 3611 3725 
Q 3209 4238 2522 4238 
z
M 2522 4750 
Q 3503 4750 4090 4092 
Q 4678 3434 4678 2328 
Q 4678 1225 4090 567 
Q 3503 -91 2522 -91 
Q 1538 -91 948 565 
Q 359 1222 359 2328 
Q 359 3434 948 4092 
Q 1538 4750 2522 4750 
z
" transform="scale(0.015625)"/>
       <path id="DejaVuSans-64" d="M 2906 2969 
L 2906 4863 
L 3481 4863 
L 3481 0 
L 2906 0 
L 2906 525 
Q 2725 213 2448 61 
Q 2172 -91 1784 -91 
Q 1150 -91 751 415 
Q 353 922 353 1747 
Q 353 2572 751 3078 
Q 1150 3584 1784 3584 
Q 2172 3584 2448 3432 
Q 2725 3281 2906 2969 
z
M 947 1747 
Q 947 1113 1208 752 
Q 1469 391 1925 391 
Q 2381 391 2643 752 
Q 2906 1113 2906 1747 
Q 2906 2381 2643 2742 
Q 2381 3103 1925 3103 
Q 1469 3103 1208 2742 
Q 947 2381 947 1747 
z
" transform="scale(0.015625)"/>
      </defs>
      <use xlink:href="#DejaVuSans-4f"/>
      <use xlink:href="#DejaVuSans-6c" transform="translate(78.710938 0)"/>
      <use xlink:href="#DejaVuSans-64" transform="translate(106.494141 0)"/>
     </g>
    </g>
    <g id="line2d_18">
     <path d="M 431.513437 52.872344 
L 442.513437 52.872344 
L 453.513437 52.872344 
" style="fill: none; stroke: #000000; stroke-linecap: round"/>
    </g>
    <g id="text_21">
     <!-- New -->
     <g style="fill: #262626" transform="translate(462.313437 56.722344) scale(0.11 -0.11)">
      <defs>
       <path id="DejaVuSans-77" d="M 269 3500 
L 844 3500 
L 1563 769 
L 2278 3500 
L 2956 3500 
L 3675 769 
L 4391 3500 
L 4966 3500 
L 4050 0 
L 3372 0 
L 2619 2869 
L 1863 0 
L 1184 0 
L 269 3500 
z
" transform="scale(0.015625)"/>
      </defs>
      <use xlink:href="#DejaVuSans-4e"/>
      <use xlink:href="#DejaVuSans-65" transform="translate(74.804688 0)"/>
      <use xlink:href="#DejaVuSans-77" transform="translate(136.328125 0)"/>
     </g>
    </g>
   </g>
  </g>
 </g>
 <defs>
  <clipPath id="p834639a628">
   <rect x="49.807188" y="22.318125" width="446.4" height="277.2"/>
  </clipPath>
 </defs>
</svg>
