<?xml version="1.0" encoding="utf-8" standalone="no"?>
<!DOCTYPE svg PUBLIC "-//W3C//DTD SVG 1.1//EN"
  "http://www.w3.org/Graphics/SVG/1.1/DTD/svg11.dtd">
<svg xmlns:xlink="http://www.w3.org/1999/xlink" width="511.74189pt" height="342.477813pt" viewBox="0 0 511.74189 342.477813" xmlns="http://www.w3.org/2000/svg" version="1.1">
 <metadata>
  <rdf:RDF xmlns:dc="http://purl.org/dc/elements/1.1/" xmlns:cc="http://creativecommons.org/ns#" xmlns:rdf="http://www.w3.org/1999/02/22-rdf-syntax-ns#">
   <cc:Work>
    <dc:type rdf:resource="http://purl.org/dc/dcmitype/StillImage"/>
    <dc:date>2025-10-22T08:42:25.143222</dc:date>
    <dc:format>image/svg+xml</dc:format>
    <dc:creator>
     <cc:Agent>
      <dc:title>Matplotlib v3.10.6, https://matplotlib.org/</dc:title>
     </cc:Agent>
    </dc:creator>
   </cc:Work>
  </rdf:RDF>
 </metadata>
 <defs>
  <style type="text/css">*{stroke-linejoin: round; stroke-linecap: butt}</style>
 </defs>
 <g id="figure_1">
  <g id="patch_1">
   <path d="M 0 342.477813 
L 511.74189 342.477813 
L 511.74189 0 
L 0 0 
z
" style="fill: #ffffff"/>
  </g>
  <g id="axes_1">
   <g id="patch_2">
    <path d="M 56.805938 299.518125 
L 503.205938 299.518125 
L 503.205938 22.318125 
L 56.805938 22.318125 
z
" style="fill: #ffffff"/>
   </g>
   <g id="FillBetweenPolyCollection_1">
    <defs>
     <path id="mea007f9ce2" d="M 77.096847 -42.959688 
L 77.096847 -42.968928 
L 78.332423 -42.977017 
L 79.568 -42.991103 
L 80.803577 -43.014755 
L 82.039154 -43.053045 
L 83.27473 -43.112827 
L 84.510307 -43.202849 
L 85.745884 -43.333632 
L 86.981461 -43.516992 
L 88.217037 -43.76521 
L 89.452614 -44.089868 
L 90.688191 -44.500543 
L 91.923768 -45.003596 
L 93.159344 -45.601364 
L 94.394921 -46.292013 
L 95.630498 -47.070157 
L 96.866075 -47.928166 
L 98.101651 -48.857835 
L 99.337228 -49.851945 
L 100.572805 -50.905219 
L 101.808382 -52.014307 
L 103.043958 -53.176722 
L 104.279535 -54.388974 
L 105.515112 -55.644433 
L 106.750689 -56.931596 
L 107.986265 -58.233351 
L 109.221842 -59.527591 
L 110.457419 -60.789154 
L 111.692996 -61.992691 
L 112.928573 -63.115812 
L 114.164149 -64.141762 
L 115.399726 -65.061041 
L 116.635303 -65.871614 
L 117.87088 -66.577779 
L 119.106456 -67.188048 
L 120.342033 -67.712625 
L 121.57761 -68.161121 
L 122.813187 -68.540988 
L 124.048763 -68.856932 
L 125.28434 -69.111272 
L 126.519917 -69.305 
L 127.755494 -69.439121 
L 128.99107 -69.515897 
L 130.226647 -69.539672 
L 131.462224 -69.517119 
L 132.697801 -69.456911 
L 133.933377 -69.368927 
L 135.168954 -69.263178 
L 136.404531 -69.148641 
L 137.640108 -69.032161 
L 138.875684 -68.91754 
L 140.111261 -68.804887 
L 141.346838 -68.690324 
L 142.582415 -68.566148 
L 143.817991 -68.421576 
L 145.053568 -68.244151 
L 146.289145 -68.021811 
L 147.524722 -67.745388 
L 148.760298 -67.411097 
L 149.995875 -67.0224 
L 151.231452 -66.590581 
L 152.467029 -66.133604 
L 153.702605 -65.673216 
L 154.938182 -65.230825 
L 156.173759 -64.823139 
L 157.409336 -64.458784 
L 158.644913 -64.13696 
L 159.880489 -63.84866 
L 161.116066 -63.580239 
L 162.351643 -63.318393 
L 163.58722 -63.055152 
L 164.822796 -62.791485 
L 166.058373 -62.538506 
L 167.29395 -62.315979 
L 168.529527 -62.148565 
L 169.765103 -62.060835 
L 171.00068 -62.072373 
L 172.236257 -62.1942 
L 173.471834 -62.427471 
L 174.70741 -62.764849 
L 175.942987 -63.194489 
L 177.178564 -63.706031 
L 178.414141 -64.297673 
L 179.649717 -64.983167 
L 180.885294 -65.797577 
L 182.120871 -66.800836 
L 183.356448 -68.078478 
L 184.592024 -69.7394 
L 185.827601 -71.910928 
L 187.063178 -74.731843 
L 188.298755 -78.344168 
L 189.534331 -82.884551 
L 190.769908 -88.475927 
L 192.005485 -95.219937 
L 193.241062 -103.190298 
L 194.476638 -112.427111 
L 195.712215 -122.931863 
L 196.947792 -134.662771 
L 198.183369 -147.530124 
L 199.418945 -161.391513 
L 200.654522 -176.047229 
L 201.890099 -191.236661 
L 203.125676 -206.637071 
L 204.361252 -221.866449 
L 205.596829 -236.492073 
L 206.832406 -250.045836 
L 208.067983 -262.046381 
L 209.30356 -272.026817 
L 210.539136 -279.565556 
L 211.774713 -284.316959 
L 213.01029 -286.038204 
L 214.245867 -284.609175 
L 215.481443 -280.043096 
L 216.71702 -272.486918 
L 217.952597 -262.211718 
L 219.188174 -249.594498 
L 220.42375 -235.093471 
L 221.659327 -219.219292 
L 222.894904 -202.50472 
L 224.130481 -185.474979 
L 225.366057 -168.620749 
L 226.601634 -152.375345 
L 227.837211 -137.097227 
L 229.072788 -123.058576 
L 230.308364 -110.440331 
L 231.543941 -99.333637 
L 232.779518 -89.747275 
L 234.015095 -81.620163 
L 235.250671 -74.837584 
L 236.486248 -69.249406 
L 237.721825 -64.688313 
L 238.957402 -60.986123 
L 240.192978 -57.986604 
L 241.428555 -55.553811 
L 242.664132 -53.575756 
L 243.899709 -51.964004 
L 245.135285 -50.650375 
L 246.370862 -49.582191 
L 247.606439 -48.717447 
L 248.842016 -48.02091 
L 250.077592 -47.461641 
L 251.313169 -47.011923 
L 252.548746 -46.647209 
L 253.784323 -46.346558 
L 255.019899 -46.093037 
L 256.255476 -45.873787 
L 257.491053 -45.679643 
L 258.72663 -45.504425 
L 259.962207 -45.34409 
L 261.197783 -45.195958 
L 262.43336 -45.058127 
L 263.668937 -44.929115 
L 264.904514 -44.807662 
L 266.14009 -44.69263 
L 267.375667 -44.58292 
L 268.611244 -44.477408 
L 269.846821 -44.374924 
L 271.082397 -44.274308 
L 272.317974 -44.174559 
L 273.553551 -44.07504 
L 274.789128 -43.975679 
L 276.024704 -43.877087 
L 277.260281 -43.780533 
L 278.495858 -43.687791 
L 279.731435 -43.600874 
L 280.967011 -43.521746 
L 282.202588 -43.452065 
L 283.438165 -43.393013 
L 284.673742 -43.345217 
L 285.909318 -43.308757 
L 287.144895 -43.283221 
L 288.380472 -43.267807 
L 289.616049 -43.261418 
L 290.851625 -43.262763 
L 292.087202 -43.270422 
L 293.322779 -43.282882 
L 294.558356 -43.29853 
L 295.793932 -43.315617 
L 297.029509 -43.332231 
L 298.265086 -43.346311 
L 299.500663 -43.355752 
L 300.736239 -43.3586 
L 301.971816 -43.353318 
L 303.207393 -43.339057 
L 304.44297 -43.315861 
L 305.678546 -43.284728 
L 306.914123 -43.247502 
L 308.1497 -43.206613 
L 309.385277 -43.16471 
L 310.620854 -43.124288 
L 311.85643 -43.087377 
L 313.092007 -43.05535 
L 314.327584 -43.028873 
L 315.563161 -43.007975 
L 316.798737 -42.992204 
L 318.034314 -42.980809 
L 319.269891 -42.97292 
L 320.505468 -42.967683 
L 321.741044 -42.964346 
L 322.976621 -42.962305 
L 322.976621 -42.959688 
L 322.976621 -42.959688 
L 321.741044 -42.959688 
L 320.505468 -42.959688 
L 319.269891 -42.959688 
L 318.034314 -42.959688 
L 316.798737 -42.959688 
L 315.563161 -42.959688 
L 314.327584 -42.959688 
L 313.092007 -42.959688 
L 311.85643 -42.959688 
L 310.620854 -42.959688 
L 309.385277 -42.959688 
L 308.1497 -42.959688 
L 306.914123 -42.959688 
L 305.678546 -42.959688 
L 304.44297 -42.959688 
L 303.207393 -42.959688 
L 301.971816 -42.959688 
L 300.736239 -42.959688 
L 299.500663 -42.959688 
L 298.265086 -42.959688 
L 297.029509 -42.959688 
L 295.793932 -42.959688 
L 294.558356 -42.959688 
L 293.322779 -42.959688 
L 292.087202 -42.959688 
L 290.851625 -42.959688 
L 289.616049 -42.959688 
L 288.380472 -42.959688 
L 287.144895 -42.959688 
L 285.909318 -42.959688 
L 284.673742 -42.959688 
L 283.438165 -42.959688 
L 282.202588 -42.959688 
L 280.967011 -42.959688 
L 279.731435 -42.959688 
L 278.495858 -42.959688 
L 277.260281 -42.959688 
L 276.024704 -42.959688 
L 274.789128 -42.959688 
L 273.553551 -42.959688 
L 272.317974 -42.959688 
L 271.082397 -42.959688 
L 269.846821 -42.959688 
L 268.611244 -42.959688 
L 267.375667 -42.959688 
L 266.14009 -42.959688 
L 264.904514 -42.959688 
L 263.668937 -42.959688 
L 262.43336 -42.959688 
L 261.197783 -42.959688 
L 259.962207 -42.959688 
L 258.72663 -42.959688 
L 257.491053 -42.959688 
L 256.255476 -42.959688 
L 255.019899 -42.959688 
L 253.784323 -42.959688 
L 252.548746 -42.959688 
L 251.313169 -42.959688 
L 250.077592 -42.959688 
L 248.842016 -42.959688 
L 247.606439 -42.959688 
L 246.370862 -42.959688 
L 245.135285 -42.959688 
L 243.899709 -42.959688 
L 242.664132 -42.959688 
L 241.428555 -42.959688 
L 240.192978 -42.959688 
L 238.957402 -42.959688 
L 237.721825 -42.959688 
L 236.486248 -42.959688 
L 235.250671 -42.959688 
L 234.015095 -42.959688 
L 232.779518 -42.959688 
L 231.543941 -42.959688 
L 230.308364 -42.959688 
L 229.072788 -42.959688 
L 227.837211 -42.959688 
L 226.601634 -42.959688 
L 225.366057 -42.959688 
L 224.130481 -42.959688 
L 222.894904 -42.959688 
L 221.659327 -42.959688 
L 220.42375 -42.959688 
L 219.188174 -42.959688 
L 217.952597 -42.959688 
L 216.71702 -42.959688 
L 215.481443 -42.959688 
L 214.245867 -42.959688 
L 213.01029 -42.959688 
L 211.774713 -42.959688 
L 210.539136 -42.959688 
L 209.30356 -42.959688 
L 208.067983 -42.959688 
L 206.832406 -42.959688 
L 205.596829 -42.959688 
L 204.361252 -42.959688 
L 203.125676 -42.959688 
L 201.890099 -42.959688 
L 200.654522 -42.959688 
L 199.418945 -42.959688 
L 198.183369 -42.959688 
L 196.947792 -42.959688 
L 195.712215 -42.959688 
L 194.476638 -42.959688 
L 193.241062 -42.959688 
L 192.005485 -42.959688 
L 190.769908 -42.959688 
L 189.534331 -42.959688 
L 188.298755 -42.959688 
L 187.063178 -42.959688 
L 185.827601 -42.959688 
L 184.592024 -42.959688 
L 183.356448 -42.959688 
L 182.120871 -42.959688 
L 180.885294 -42.959688 
L 179.649717 -42.959688 
L 178.414141 -42.959688 
L 177.178564 -42.959688 
L 175.942987 -42.959688 
L 174.70741 -42.959688 
L 173.471834 -42.959688 
L 172.236257 -42.959688 
L 171.00068 -42.959688 
L 169.765103 -42.959688 
L 168.529527 -42.959688 
L 167.29395 -42.959688 
L 166.058373 -42.959688 
L 164.822796 -42.959688 
L 163.58722 -42.959688 
L 162.351643 -42.959688 
L 161.116066 -42.959688 
L 159.880489 -42.959688 
L 158.644913 -42.959688 
L 157.409336 -42.959688 
L 156.173759 -42.959688 
L 154.938182 -42.959688 
L 153.702605 -42.959688 
L 152.467029 -42.959688 
L 151.231452 -42.959688 
L 149.995875 -42.959688 
L 148.760298 -42.959688 
L 147.524722 -42.959688 
L 146.289145 -42.959688 
L 145.053568 -42.959688 
L 143.817991 -42.959688 
L 142.582415 -42.959688 
L 141.346838 -42.959688 
L 140.111261 -42.959688 
L 138.875684 -42.959688 
L 137.640108 -42.959688 
L 136.404531 -42.959688 
L 135.168954 -42.959688 
L 133.933377 -42.959688 
L 132.697801 -42.959688 
L 131.462224 -42.959688 
L 130.226647 -42.959688 
L 128.99107 -42.959688 
L 127.755494 -42.959688 
L 126.519917 -42.959688 
L 125.28434 -42.959688 
L 124.048763 -42.959688 
L 122.813187 -42.959688 
L 121.57761 -42.959688 
L 120.342033 -42.959688 
L 119.106456 -42.959688 
L 117.87088 -42.959688 
L 116.635303 -42.959688 
L 115.399726 -42.959688 
L 114.164149 -42.959688 
L 112.928573 -42.959688 
L 111.692996 -42.959688 
L 110.457419 -42.959688 
L 109.221842 -42.959688 
L 107.986265 -42.959688 
L 106.750689 -42.959688 
L 105.515112 -42.959688 
L 104.279535 -42.959688 
L 103.043958 -42.959688 
L 101.808382 -42.959688 
L 100.572805 -42.959688 
L 99.337228 -42.959688 
L 98.101651 -42.959688 
L 96.866075 -42.959688 
L 95.630498 -42.959688 
L 94.394921 -42.959688 
L 93.159344 -42.959688 
L 91.923768 -42.959688 
L 90.688191 -42.959688 
L 89.452614 -42.959688 
L 88.217037 -42.959688 
L 86.981461 -42.959688 
L 85.745884 -42.959688 
L 84.510307 -42.959688 
L 83.27473 -42.959688 
L 82.039154 -42.959688 
L 80.803577 -42.959688 
L 79.568 -42.959688 
L 78.332423 -42.959688 
L 77.096847 -42.959688 
z
" style="stroke: #ffffff"/>
    </defs>
    <g clip-path="url(#p7216bcfe55)">
     <use xlink:href="#mea007f9ce2" x="0" y="342.477813" style="fill: #ffffff; stroke: #ffffff"/>
    </g>
   </g>
   <g id="matplotlib.axis_1">
    <g id="xtick_1">
     <g id="line2d_1">
      <path d="M 85.570655 299.518125 
L 85.570655 22.318125 
" clip-path="url(#p7216bcfe55)" style="fill: none; stroke: #cccccc; stroke-linecap: round"/>
     </g>
     <g id="text_1">
      <!-- 0 -->
      <g style="fill: #262626" transform="translate(82.07128 317.376406) scale(0.11 -0.11)">
       <defs>
        <path id="DejaVuSans-30" d="M 2034 4250 
Q 1547 4250 1301 3770 
Q 1056 3291 1056 2328 
Q 1056 1369 1301 889 
Q 1547 409 2034 409 
Q 2525 409 2770 889 
Q 3016 1369 3016 2328 
Q 3016 3291 2770 3770 
Q 2525 4250 2034 4250 
z
M 2034 4750 
Q 2819 4750 3233 4129 
Q 3647 3509 3647 2328 
Q 3647 1150 3233 529 
Q 2819 -91 2034 -91 
Q 1250 -91 836 529 
Q 422 1150 422 2328 
Q 422 3509 836 4129 
Q 1250 4750 2034 4750 
z
" transform="scale(0.015625)"/>
       </defs>
       <use xlink:href="#DejaVuSans-30"/>
      </g>
     </g>
    </g>
    <g id="xtick_2">
     <g id="line2d_2">
      <path d="M 153.649506 299.518125 
L 153.649506 22.318125 
" clip-path="url(#p7216bcfe55)" style="fill: none; stroke: #cccccc; stroke-linecap: round"/>
     </g>
     <g id="text_2">
      <!-- 20 -->
      <g style="fill: #262626" transform="translate(146.650756 317.376406) scale(0.11 -0.11)">
       <defs>
        <path id="DejaVuSans-32" d="M 1228 531 
L 3431 531 
L 3431 0 
L 469 0 
L 469 531 
Q 828 903 1448 1529 
Q 2069 2156 2228 2338 
Q 2531 2678 2651 2914 
Q 2772 3150 2772 3378 
Q 2772 3750 2511 3984 
Q 2250 4219 1831 4219 
Q 1534 4219 1204 4116 
Q 875 4013 500 3803 
L 500 4441 
Q 881 4594 1212 4672 
Q 1544 4750 1819 4750 
Q 2544 4750 2975 4387 
Q 3406 4025 3406 3419 
Q 3406 3131 3298 2873 
Q 3191 2616 2906 2266 
Q 2828 2175 2409 1742 
Q 1991 1309 1228 531 
z
" transform="scale(0.015625)"/>
       </defs>
       <use xlink:href="#DejaVuSans-32"/>
       <use xlink:href="#DejaVuSans-30" transform="translate(63.623047 0)"/>
      </g>
     </g>
    </g>
    <g id="xtick_3">
     <g id="line2d_3">
      <path d="M 221.728358 299.518125 
L 221.728358 22.318125 
" clip-path="url(#p7216bcfe55)" style="fill: none; stroke: #cccccc; stroke-linecap: round"/>
     </g>
     <g id="text_3">
      <!-- 40 -->
      <g style="fill: #262626" transform="translate(214.729608 317.376406) scale(0.11 -0.11)">
       <defs>
        <path id="DejaVuSans-34" d="M 2419 4116 
L 825 1625 
L 2419 1625 
L 2419 4116 
z
M 2253 4666 
L 3047 4666 
L 3047 1625 
L 3713 1625 
L 3713 1100 
L 3047 1100 
L 3047 0 
L 2419 0 
L 2419 1100 
L 313 1100 
L 313 1709 
L 2253 4666 
z
" transform="scale(0.015625)"/>
       </defs>
       <use xlink:href="#DejaVuSans-34"/>
       <use xlink:href="#DejaVuSans-30" transform="translate(63.623047 0)"/>
      </g>
     </g>
    </g>
    <g id="xtick_4">
     <g id="line2d_4">
      <path d="M 289.80721 299.518125 
L 289.80721 22.318125 
" clip-path="url(#p7216bcfe55)" style="fill: none; stroke: #cccccc; stroke-linecap: round"/>
     </g>
     <g id="text_4">
      <!-- 60 -->
      <g style="fill: #262626" transform="translate(282.80846 317.376406) scale(0.11 -0.11)">
       <defs>
        <path id="DejaVuSans-36" d="M 2113 2584 
Q 1688 2584 1439 2293 
Q 1191 2003 1191 1497 
Q 1191 994 1439 701 
Q 1688 409 2113 409 
Q 2538 409 2786 701 
Q 3034 994 3034 1497 
Q 3034 2003 2786 2293 
Q 2538 2584 2113 2584 
z
M 3366 4563 
L 3366 3988 
Q 3128 4100 2886 4159 
Q 2644 4219 2406 4219 
Q 1781 4219 1451 3797 
Q 1122 3375 1075 2522 
Q 1259 2794 1537 2939 
Q 1816 3084 2150 3084 
Q 2853 3084 3261 2657 
Q 3669 2231 3669 1497 
Q 3669 778 3244 343 
Q 2819 -91 2113 -91 
Q 1303 -91 875 529 
Q 447 1150 447 2328 
Q 447 3434 972 4092 
Q 1497 4750 2381 4750 
Q 2619 4750 2861 4703 
Q 3103 4656 3366 4563 
z
" transform="scale(0.015625)"/>
       </defs>
       <use xlink:href="#DejaVuSans-36"/>
       <use xlink:href="#DejaVuSans-30" transform="translate(63.623047 0)"/>
      </g>
     </g>
    </g>
    <g id="xtick_5">
     <g id="line2d_5">
      <path d="M 357.886061 299.518125 
L 357.886061 22.318125 
" clip-path="url(#p7216bcfe55)" style="fill: none; stroke: #cccccc; stroke-linecap: round"/>
     </g>
     <g id="text_5">
      <!-- 80 -->
      <g style="fill: #262626" transform="translate(350.887311 317.376406) scale(0.11 -0.11)">
       <defs>
        <path id="DejaVuSans-38" d="M 2034 2216 
Q 1584 2216 1326 1975 
Q 1069 1734 1069 1313 
Q 1069 891 1326 650 
Q 1584 409 2034 409 
Q 2484 409 2743 651 
Q 3003 894 3003 1313 
Q 3003 1734 2745 1975 
Q 2488 2216 2034 2216 
z
M 1403 2484 
Q 997 2584 770 2862 
Q 544 3141 544 3541 
Q 544 4100 942 4425 
Q 1341 4750 2034 4750 
Q 2731 4750 3128 4425 
Q 3525 4100 3525 3541 
Q 3525 3141 3298 2862 
Q 3072 2584 2669 2484 
Q 3125 2378 3379 2068 
Q 3634 1759 3634 1313 
Q 3634 634 3220 271 
Q 2806 -91 2034 -91 
Q 1263 -91 848 271 
Q 434 634 434 1313 
Q 434 1759 690 2068 
Q 947 2378 1403 2484 
z
M 1172 3481 
Q 1172 3119 1398 2916 
Q 1625 2713 2034 2713 
Q 2441 2713 2670 2916 
Q 2900 3119 2900 3481 
Q 2900 3844 2670 4047 
Q 2441 4250 2034 4250 
Q 1625 4250 1398 4047 
Q 1172 3844 1172 3481 
z
" transform="scale(0.015625)"/>
       </defs>
       <use xlink:href="#DejaVuSans-38"/>
       <use xlink:href="#DejaVuSans-30" transform="translate(63.623047 0)"/>
      </g>
     </g>
    </g>
    <g id="xtick_6">
     <g id="line2d_6">
      <path d="M 425.964913 299.518125 
L 425.964913 22.318125 
" clip-path="url(#p7216bcfe55)" style="fill: none; stroke: #cccccc; stroke-linecap: round"/>
     </g>
     <g id="text_6">
      <!-- 100 -->
      <g style="fill: #262626" transform="translate(415.466788 317.376406) scale(0.11 -0.11)">
       <defs>
        <path id="DejaVuSans-31" d="M 794 531 
L 1825 531 
L 1825 4091 
L 703 3866 
L 703 4441 
L 1819 4666 
L 2450 4666 
L 2450 531 
L 3481 531 
L 3481 0 
L 794 0 
L 794 531 
z
" transform="scale(0.015625)"/>
       </defs>
       <use xlink:href="#DejaVuSans-31"/>
       <use xlink:href="#DejaVuSans-30" transform="translate(63.623047 0)"/>
       <use xlink:href="#DejaVuSans-30" transform="translate(127.246094 0)"/>
      </g>
     </g>
    </g>
    <g id="xtick_7">
     <g id="line2d_7">
      <path d="M 494.043765 299.518125 
L 494.043765 22.318125 
" clip-path="url(#p7216bcfe55)" style="fill: none; stroke: #cccccc; stroke-linecap: round"/>
     </g>
     <g id="text_7">
      <!-- 120 -->
      <g style="fill: #262626" transform="translate(483.54564 317.376406) scale(0.11 -0.11)">
       <use xlink:href="#DejaVuSans-31"/>
       <use xlink:href="#DejaVuSans-32" transform="translate(63.623047 0)"/>
       <use xlink:href="#DejaVuSans-30" transform="translate(127.246094 0)"/>
      </g>
     </g>
    </g>
    <g id="text_8">
     <!-- SIO2 -->
     <g style="fill: #262626" transform="translate(265.88625 332.782188) scale(0.12 -0.12)">
      <defs>
       <path id="DejaVuSans-53" d="M 3425 4513 
L 3425 3897 
Q 3066 4069 2747 4153 
Q 2428 4238 2131 4238 
Q 1616 4238 1336 4038 
Q 1056 3838 1056 3469 
Q 1056 3159 1242 3001 
Q 1428 2844 1947 2747 
L 2328 2669 
Q 3034 2534 3370 2195 
Q 3706 1856 3706 1288 
Q 3706 609 3251 259 
Q 2797 -91 1919 -91 
Q 1588 -91 1214 -16 
Q 841 59 441 206 
L 441 856 
Q 825 641 1194 531 
Q 1563 422 1919 422 
Q 2459 422 2753 634 
Q 3047 847 3047 1241 
Q 3047 1584 2836 1778 
Q 2625 1972 2144 2069 
L 1759 2144 
Q 1053 2284 737 2584 
Q 422 2884 422 3419 
Q 422 4038 858 4394 
Q 1294 4750 2059 4750 
Q 2388 4750 2728 4690 
Q 3069 4631 3425 4513 
z
" transform="scale(0.015625)"/>
       <path id="DejaVuSans-49" d="M 628 4666 
L 1259 4666 
L 1259 0 
L 628 0 
L 628 4666 
z
" transform="scale(0.015625)"/>
       <path id="DejaVuSans-4f" d="M 2522 4238 
Q 1834 4238 1429 3725 
Q 1025 3213 1025 2328 
Q 1025 1447 1429 934 
Q 1834 422 2522 422 
Q 3209 422 3611 934 
Q 4013 1447 4013 2328 
Q 4013 3213 3611 3725 
Q 3209 4238 2522 4238 
z
M 2522 4750 
Q 3503 4750 4090 4092 
Q 4678 3434 4678 2328 
Q 4678 1225 4090 567 
Q 3503 -91 2522 -91 
Q 1538 -91 948 565 
Q 359 1222 359 2328 
Q 359 3434 948 4092 
Q 1538 4750 2522 4750 
z
" transform="scale(0.015625)"/>
      </defs>
      <use xlink:href="#DejaVuSans-53"/>
      <use xlink:href="#DejaVuSans-49" transform="translate(63.476562 0)"/>
      <use xlink:href="#DejaVuSans-4f" transform="translate(92.96875 0)"/>
      <use xlink:href="#DejaVuSans-32" transform="translate(171.679688 0)"/>
     </g>
    </g>
   </g>
   <g id="matplotlib.axis_2">
    <g id="ytick_1">
     <g id="line2d_8">
      <path d="M 56.805938 299.518125 
L 503.205938 299.518125 
" clip-path="url(#p7216bcfe55)" style="fill: none; stroke: #cccccc; stroke-linecap: round"/>
     </g>
     <g id="text_9">
      <!-- 0.00 -->
      <g style="fill: #262626" transform="translate(22.81375 303.697266) scale(0.11 -0.11)">
       <defs>
        <path id="DejaVuSans-2e" d="M 684 794 
L 1344 794 
L 1344 0 
L 684 0 
L 684 794 
z
" transform="scale(0.015625)"/>
       </defs>
       <use xlink:href="#DejaVuSans-30"/>
       <use xlink:href="#DejaVuSans-2e" transform="translate(63.623047 0)"/>
       <use xlink:href="#DejaVuSans-30" transform="translate(95.410156 0)"/>
       <use xlink:href="#DejaVuSans-30" transform="translate(159.033203 0)"/>
      </g>
     </g>
    </g>
    <g id="ytick_2">
     <g id="line2d_9">
      <path d="M 56.805938 247.619062 
L 503.205938 247.619062 
" clip-path="url(#p7216bcfe55)" style="fill: none; stroke: #cccccc; stroke-linecap: round"/>
     </g>
     <g id="text_10">
      <!-- 0.02 -->
      <g style="fill: #262626" transform="translate(22.81375 251.798203) scale(0.11 -0.11)">
       <use xlink:href="#DejaVuSans-30"/>
       <use xlink:href="#DejaVuSans-2e" transform="translate(63.623047 0)"/>
       <use xlink:href="#DejaVuSans-30" transform="translate(95.410156 0)"/>
       <use xlink:href="#DejaVuSans-32" transform="translate(159.033203 0)"/>
      </g>
     </g>
    </g>
    <g id="ytick_3">
     <g id="line2d_10">
      <path d="M 56.805938 195.719999 
L 503.205938 195.719999 
" clip-path="url(#p7216bcfe55)" style="fill: none; stroke: #cccccc; stroke-linecap: round"/>
     </g>
     <g id="text_11">
      <!-- 0.04 -->
      <g style="fill: #262626" transform="translate(22.81375 199.89914) scale(0.11 -0.11)">
       <use xlink:href="#DejaVuSans-30"/>
       <use xlink:href="#DejaVuSans-2e" transform="translate(63.623047 0)"/>
       <use xlink:href="#DejaVuSans-30" transform="translate(95.410156 0)"/>
       <use xlink:href="#DejaVuSans-34" transform="translate(159.033203 0)"/>
      </g>
     </g>
    </g>
    <g id="ytick_4">
     <g id="line2d_11">
      <path d="M 56.805938 143.820936 
L 503.205938 143.820936 
" clip-path="url(#p7216bcfe55)" style="fill: none; stroke: #cccccc; stroke-linecap: round"/>
     </g>
     <g id="text_12">
      <!-- 0.06 -->
      <g style="fill: #262626" transform="translate(22.81375 148.000077) scale(0.11 -0.11)">
       <use xlink:href="#DejaVuSans-30"/>
       <use xlink:href="#DejaVuSans-2e" transform="translate(63.623047 0)"/>
       <use xlink:href="#DejaVuSans-30" transform="translate(95.410156 0)"/>
       <use xlink:href="#DejaVuSans-36" transform="translate(159.033203 0)"/>
      </g>
     </g>
    </g>
    <g id="ytick_5">
     <g id="line2d_12">
      <path d="M 56.805938 91.921873 
L 503.205938 91.921873 
" clip-path="url(#p7216bcfe55)" style="fill: none; stroke: #cccccc; stroke-linecap: round"/>
     </g>
     <g id="text_13">
      <!-- 0.08 -->
      <g style="fill: #262626" transform="translate(22.81375 96.101014) scale(0.11 -0.11)">
       <use xlink:href="#DejaVuSans-30"/>
       <use xlink:href="#DejaVuSans-2e" transform="translate(63.623047 0)"/>
       <use xlink:href="#DejaVuSans-30" transform="translate(95.410156 0)"/>
       <use xlink:href="#DejaVuSans-38" transform="translate(159.033203 0)"/>
      </g>
     </g>
    </g>
    <g id="ytick_6">
     <g id="line2d_13">
      <path d="M 56.805938 40.02281 
L 503.205938 40.02281 
" clip-path="url(#p7216bcfe55)" style="fill: none; stroke: #cccccc; stroke-linecap: round"/>
     </g>
     <g id="text_14">
      <!-- 0.10 -->
      <g style="fill: #262626" transform="translate(22.81375 44.201951) scale(0.11 -0.11)">
       <use xlink:href="#DejaVuSans-30"/>
       <use xlink:href="#DejaVuSans-2e" transform="translate(63.623047 0)"/>
       <use xlink:href="#DejaVuSans-31" transform="translate(95.410156 0)"/>
       <use xlink:href="#DejaVuSans-30" transform="translate(159.033203 0)"/>
      </g>
     </g>
    </g>
    <g id="text_15">
     <!-- Density -->
     <g style="fill: #262626" transform="translate(16.318125 183.728438) rotate(-90) scale(0.12 -0.12)">
      <defs>
       <path id="DejaVuSans-44" d="M 1259 4147 
L 1259 519 
L 2022 519 
Q 2988 519 3436 956 
Q 3884 1394 3884 2338 
Q 3884 3275 3436 3711 
Q 2988 4147 2022 4147 
L 1259 4147 
z
M 628 4666 
L 1925 4666 
Q 3281 4666 3915 4102 
Q 4550 3538 4550 2338 
Q 4550 1131 3912 565 
Q 3275 0 1925 0 
L 628 0 
L 628 4666 
z
" transform="scale(0.015625)"/>
       <path id="DejaVuSans-65" d="M 3597 1894 
L 3597 1613 
L 953 1613 
Q 991 1019 1311 708 
Q 1631 397 2203 397 
Q 2534 397 2845 478 
Q 3156 559 3463 722 
L 3463 178 
Q 3153 47 2828 -22 
Q 2503 -91 2169 -91 
Q 1331 -91 842 396 
Q 353 884 353 1716 
Q 353 2575 817 3079 
Q 1281 3584 2069 3584 
Q 2775 3584 3186 3129 
Q 3597 2675 3597 1894 
z
M 3022 2063 
Q 3016 2534 2758 2815 
Q 2500 3097 2075 3097 
Q 1594 3097 1305 2825 
Q 1016 2553 972 2059 
L 3022 2063 
z
" transform="scale(0.015625)"/>
       <path id="DejaVuSans-6e" d="M 3513 2113 
L 3513 0 
L 2938 0 
L 2938 2094 
Q 2938 2591 2744 2837 
Q 2550 3084 2163 3084 
Q 1697 3084 1428 2787 
Q 1159 2491 1159 1978 
L 1159 0 
L 581 0 
L 581 3500 
L 1159 3500 
L 1159 2956 
Q 1366 3272 1645 3428 
Q 1925 3584 2291 3584 
Q 2894 3584 3203 3211 
Q 3513 2838 3513 2113 
z
" transform="scale(0.015625)"/>
       <path id="DejaVuSans-73" d="M 2834 3397 
L 2834 2853 
Q 2591 2978 2328 3040 
Q 2066 3103 1784 3103 
Q 1356 3103 1142 2972 
Q 928 2841 928 2578 
Q 928 2378 1081 2264 
Q 1234 2150 1697 2047 
L 1894 2003 
Q 2506 1872 2764 1633 
Q 3022 1394 3022 966 
Q 3022 478 2636 193 
Q 2250 -91 1575 -91 
Q 1294 -91 989 -36 
Q 684 19 347 128 
L 347 722 
Q 666 556 975 473 
Q 1284 391 1588 391 
Q 1994 391 2212 530 
Q 2431 669 2431 922 
Q 2431 1156 2273 1281 
Q 2116 1406 1581 1522 
L 1381 1569 
Q 847 1681 609 1914 
Q 372 2147 372 2553 
Q 372 3047 722 3315 
Q 1072 3584 1716 3584 
Q 2034 3584 2315 3537 
Q 2597 3491 2834 3397 
z
" transform="scale(0.015625)"/>
       <path id="DejaVuSans-69" d="M 603 3500 
L 1178 3500 
L 1178 0 
L 603 0 
L 603 3500 
z
M 603 4863 
L 1178 4863 
L 1178 4134 
L 603 4134 
L 603 4863 
z
" transform="scale(0.015625)"/>
       <path id="DejaVuSans-74" d="M 1172 4494 
L 1172 3500 
L 2356 3500 
L 2356 3053 
L 1172 3053 
L 1172 1153 
Q 1172 725 1289 603 
Q 1406 481 1766 481 
L 2356 481 
L 2356 0 
L 1766 0 
Q 1100 0 847 248 
Q 594 497 594 1153 
L 594 3053 
L 172 3053 
L 172 3500 
L 594 3500 
L 594 4494 
L 1172 4494 
z
" transform="scale(0.015625)"/>
       <path id="DejaVuSans-79" d="M 2059 -325 
Q 1816 -950 1584 -1140 
Q 1353 -1331 966 -1331 
L 506 -1331 
L 506 -850 
L 844 -850 
Q 1081 -850 1212 -737 
Q 1344 -625 1503 -206 
L 1606 56 
L 191 3500 
L 800 3500 
L 1894 763 
L 2988 3500 
L 3597 3500 
L 2059 -325 
z
" transform="scale(0.015625)"/>
      </defs>
      <use xlink:href="#DejaVuSans-44"/>
      <use xlink:href="#DejaVuSans-65" transform="translate(77.001953 0)"/>
      <use xlink:href="#DejaVuSans-6e" transform="translate(138.525391 0)"/>
      <use xlink:href="#DejaVuSans-73" transform="translate(201.904297 0)"/>
      <use xlink:href="#DejaVuSans-69" transform="translate(254.003906 0)"/>
      <use xlink:href="#DejaVuSans-74" transform="translate(281.787109 0)"/>
      <use xlink:href="#DejaVuSans-79" transform="translate(320.996094 0)"/>
     </g>
    </g>
   </g>
   <g id="FillBetweenPolyCollection_2">
    <defs>
     <path id="mc6de5103f5" d="M 98.060968 -42.961171 
L 98.060968 -42.959688 
L 99.994908 -42.959688 
L 101.928848 -42.959688 
L 103.862788 -42.959688 
L 105.796728 -42.959688 
L 107.730668 -42.959688 
L 109.664608 -42.959688 
L 111.598548 -42.959688 
L 113.532488 -42.959688 
L 115.466428 -42.959688 
L 117.400368 -42.959688 
L 119.334308 -42.959688 
L 121.268248 -42.959688 
L 123.202188 -42.959688 
L 125.136128 -42.959688 
L 127.070068 -42.959688 
L 129.004008 -42.959688 
L 130.937948 -42.959688 
L 132.871888 -42.959688 
L 134.805828 -42.959688 
L 136.739768 -42.959688 
L 138.673708 -42.959688 
L 140.607648 -42.959688 
L 142.541588 -42.959688 
L 144.475528 -42.959688 
L 146.409468 -42.959688 
L 148.343408 -42.959688 
L 150.277348 -42.959688 
L 152.211288 -42.959688 
L 154.145228 -42.959688 
L 156.079168 -42.959688 
L 158.013108 -42.959688 
L 159.947048 -42.959688 
L 161.880988 -42.959688 
L 163.814928 -42.959688 
L 165.748868 -42.959688 
L 167.682808 -42.959688 
L 169.616748 -42.959688 
L 171.550688 -42.959688 
L 173.484628 -42.959688 
L 175.418568 -42.959688 
L 177.352508 -42.959688 
L 179.286448 -42.959688 
L 181.220388 -42.959688 
L 183.154328 -42.959688 
L 185.088268 -42.959688 
L 187.022208 -42.959688 
L 188.956148 -42.959688 
L 190.890088 -42.959688 
L 192.824028 -42.959688 
L 194.757968 -42.959688 
L 196.691908 -42.959688 
L 198.625848 -42.959688 
L 200.559788 -42.959688 
L 202.493728 -42.959688 
L 204.427668 -42.959688 
L 206.361608 -42.959688 
L 208.295548 -42.959688 
L 210.229488 -42.959688 
L 212.163428 -42.959688 
L 214.097368 -42.959688 
L 216.031308 -42.959688 
L 217.965248 -42.959688 
L 219.899188 -42.959688 
L 221.833128 -42.959688 
L 223.767068 -42.959688 
L 225.701008 -42.959688 
L 227.634948 -42.959688 
L 229.568888 -42.959688 
L 231.502828 -42.959688 
L 233.436768 -42.959688 
L 235.370708 -42.959688 
L 237.304648 -42.959688 
L 239.238588 -42.959688 
L 241.172528 -42.959688 
L 243.106468 -42.959688 
L 245.040408 -42.959688 
L 246.974348 -42.959688 
L 248.908288 -42.959688 
L 250.842228 -42.959688 
L 252.776168 -42.959688 
L 254.710108 -42.959688 
L 256.644048 -42.959688 
L 258.577988 -42.959688 
L 260.511928 -42.959688 
L 262.445868 -42.959688 
L 264.379808 -42.959688 
L 266.313748 -42.959688 
L 268.247688 -42.959688 
L 270.181628 -42.959688 
L 272.115568 -42.959688 
L 274.049508 -42.959688 
L 275.983448 -42.959688 
L 277.917388 -42.959688 
L 279.851328 -42.959688 
L 281.785268 -42.959688 
L 283.719208 -42.959688 
L 285.653148 -42.959688 
L 287.587088 -42.959688 
L 289.521028 -42.959688 
L 291.454968 -42.959688 
L 293.388908 -42.959688 
L 295.322848 -42.959688 
L 297.256788 -42.959688 
L 299.190728 -42.959688 
L 301.124668 -42.959688 
L 303.058608 -42.959688 
L 304.992548 -42.959688 
L 306.926488 -42.959688 
L 308.860428 -42.959688 
L 310.794368 -42.959688 
L 312.728308 -42.959688 
L 314.662248 -42.959688 
L 316.596188 -42.959688 
L 318.530128 -42.959688 
L 320.464068 -42.959688 
L 322.398008 -42.959688 
L 324.331948 -42.959688 
L 326.265888 -42.959688 
L 328.199828 -42.959688 
L 330.133768 -42.959688 
L 332.067708 -42.959688 
L 334.001648 -42.959688 
L 335.935588 -42.959688 
L 337.869528 -42.959688 
L 339.803468 -42.959688 
L 341.737408 -42.959688 
L 343.671348 -42.959688 
L 345.605288 -42.959688 
L 347.539228 -42.959688 
L 349.473168 -42.959688 
L 351.407108 -42.959688 
L 353.341048 -42.959688 
L 355.274988 -42.959688 
L 357.208928 -42.959688 
L 359.142868 -42.959688 
L 361.076808 -42.959688 
L 363.010748 -42.959688 
L 364.944688 -42.959688 
L 366.878628 -42.959688 
L 368.812568 -42.959688 
L 370.746508 -42.959688 
L 372.680448 -42.959688 
L 374.614388 -42.959688 
L 376.548328 -42.959688 
L 378.482268 -42.959688 
L 380.416208 -42.959688 
L 382.350148 -42.959688 
L 384.284088 -42.959688 
L 386.218028 -42.959688 
L 388.151968 -42.959688 
L 390.085908 -42.959688 
L 392.019848 -42.959688 
L 393.953788 -42.959688 
L 395.887728 -42.959688 
L 397.821668 -42.959688 
L 399.755608 -42.959688 
L 401.689548 -42.959688 
L 403.623488 -42.959688 
L 405.557428 -42.959688 
L 407.491368 -42.959688 
L 409.425308 -42.959688 
L 411.359248 -42.959688 
L 413.293188 -42.959688 
L 415.227128 -42.959688 
L 417.161068 -42.959688 
L 419.095008 -42.959688 
L 421.028948 -42.959688 
L 422.962888 -42.959688 
L 424.896828 -42.959688 
L 426.830768 -42.959688 
L 428.764708 -42.959688 
L 430.698648 -42.959688 
L 432.632588 -42.959688 
L 434.566528 -42.959688 
L 436.500468 -42.959688 
L 438.434408 -42.959688 
L 440.368348 -42.959688 
L 442.302288 -42.959688 
L 444.236228 -42.959688 
L 446.170168 -42.959688 
L 448.104108 -42.959688 
L 450.038048 -42.959688 
L 451.971988 -42.959688 
L 453.905928 -42.959688 
L 455.839868 -42.959688 
L 457.773808 -42.959688 
L 459.707748 -42.959688 
L 461.641688 -42.959688 
L 463.575628 -42.959688 
L 465.509568 -42.959688 
L 467.443508 -42.959688 
L 469.377448 -42.959688 
L 471.311388 -42.959688 
L 473.245328 -42.959688 
L 475.179268 -42.959688 
L 477.113208 -42.959688 
L 479.047148 -42.959688 
L 480.981088 -42.959688 
L 482.915028 -42.959688 
L 482.915028 -42.961171 
L 482.915028 -42.961171 
L 480.981088 -42.96462 
L 479.047148 -42.973299 
L 477.113208 -42.99087 
L 475.179268 -43.018991 
L 473.245328 -43.053319 
L 471.311388 -43.082411 
L 469.377448 -43.093227 
L 467.443508 -43.080349 
L 465.509568 -43.05036 
L 463.575628 -43.016949 
L 461.641688 -42.992165 
L 459.707748 -42.982092 
L 457.773808 -42.988311 
L 455.839868 -43.009913 
L 453.905928 -43.042153 
L 451.971988 -43.074277 
L 450.038048 -43.092249 
L 448.104108 -43.087049 
L 446.170168 -43.061276 
L 444.236228 -43.026957 
L 442.302288 -42.996666 
L 440.368348 -42.976563 
L 438.434408 -42.966081 
L 436.500468 -42.961698 
L 434.566528 -42.960212 
L 432.632588 -42.959801 
L 430.698648 -42.959708 
L 428.764708 -42.959691 
L 426.830768 -42.959688 
L 424.896828 -42.959688 
L 422.962888 -42.959688 
L 421.028948 -42.959688 
L 419.095008 -42.959688 
L 417.161068 -42.959688 
L 415.227128 -42.959688 
L 413.293188 -42.959688 
L 411.359248 -42.959688 
L 409.425308 -42.959688 
L 407.491368 -42.959688 
L 405.557428 -42.95969 
L 403.623488 -42.959702 
L 401.689548 -42.959769 
L 399.755608 -42.960076 
L 397.821668 -42.961235 
L 395.887728 -42.9648 
L 393.953788 -42.973712 
L 392.019848 -42.991623 
L 390.085908 -43.020067 
L 388.151968 -43.054499 
L 386.218028 -43.083489 
L 384.284088 -43.094784 
L 382.350148 -43.085278 
L 380.416208 -43.066218 
L 378.482268 -43.058426 
L 376.548328 -43.080982 
L 374.614388 -43.140138 
L 372.680448 -43.223011 
L 370.746508 -43.299699 
L 368.812568 -43.336441 
L 366.878628 -43.314884 
L 364.944688 -43.243641 
L 363.010748 -43.151777 
L 361.076808 -43.069869 
L 359.142868 -43.015108 
L 357.208928 -42.990476 
L 355.274988 -42.993476 
L 353.341048 -43.022992 
L 351.407108 -43.077224 
L 349.473168 -43.14542 
L 347.539228 -43.204138 
L 345.605288 -43.227062 
L 343.671348 -43.203226 
L 341.737408 -43.146471 
L 339.803468 -43.086423 
L 337.869528 -43.050451 
L 335.935588 -43.05221 
L 334.001648 -43.090898 
L 332.067708 -43.155164 
L 330.133768 -43.227318 
L 328.199828 -43.28837 
L 326.265888 -43.324562 
L 324.331948 -43.333183 
L 322.398008 -43.323166 
L 320.464068 -43.307483 
L 318.530128 -43.291793 
L 316.596188 -43.270648 
L 314.662248 -43.237213 
L 312.728308 -43.197744 
L 310.794368 -43.175472 
L 308.860428 -43.197489 
L 306.926488 -43.272665 
L 304.992548 -43.376961 
L 303.058608 -43.460855 
L 301.124668 -43.479633 
L 299.190728 -43.42659 
L 297.256788 -43.342095 
L 295.322848 -43.290182 
L 293.388908 -43.320221 
L 291.454968 -43.439038 
L 289.521028 -43.609665 
L 287.587088 -43.779453 
L 285.653148 -43.922719 
L 283.719208 -44.066981 
L 281.785268 -44.277859 
L 279.851328 -44.609785 
L 277.917388 -45.060237 
L 275.983448 -45.567105 
L 274.049508 -46.056138 
L 272.115568 -46.497933 
L 270.181628 -46.92121 
L 268.247688 -47.379215 
L 266.313748 -47.920706 
L 264.379808 -48.598099 
L 262.445868 -49.48438 
L 260.511928 -50.661083 
L 258.577988 -52.189849 
L 256.644048 -54.123345 
L 254.710108 -56.602877 
L 252.776168 -60.021462 
L 250.842228 -65.146717 
L 248.908288 -73.091599 
L 246.974348 -85.110572 
L 245.040408 -102.281545 
L 243.106468 -125.140816 
L 241.172528 -153.329509 
L 239.238588 -185.371532 
L 237.304648 -218.768301 
L 235.370708 -250.458999 
L 233.436768 -277.392306 
L 231.502828 -296.906696 
L 229.568888 -306.959688 
L 227.634948 -306.439458 
L 225.701008 -295.501982 
L 223.767068 -275.632312 
L 221.833128 -249.363916 
L 219.899188 -219.853227 
L 217.965248 -190.374616 
L 216.031308 -163.679045 
L 214.097368 -141.411008 
L 212.163428 -123.960799 
L 210.229488 -110.820415 
L 208.295548 -101.097522 
L 206.361608 -93.857003 
L 204.427668 -88.269307 
L 202.493728 -83.695853 
L 200.559788 -79.761183 
L 198.625848 -76.377752 
L 196.691908 -73.685864 
L 194.757968 -71.897761 
L 192.824028 -71.10608 
L 190.890088 -71.196923 
L 188.956148 -71.947117 
L 187.022208 -73.193299 
L 185.088268 -74.88547 
L 183.154328 -77.000077 
L 181.220388 -79.467501 
L 179.286448 -82.224033 
L 177.352508 -85.309124 
L 175.418568 -88.851952 
L 173.484628 -92.906505 
L 171.550688 -97.245744 
L 169.616748 -101.249566 
L 167.682808 -103.937467 
L 165.748868 -104.152281 
L 163.814928 -100.926128 
L 161.880988 -93.987092 
L 159.947048 -84.132547 
L 158.013108 -73.093193 
L 156.079168 -62.834263 
L 154.145228 -54.740877 
L 152.211288 -49.236262 
L 150.277348 -45.967132 
L 148.343408 -44.254459 
L 146.409468 -43.458366 
L 144.475528 -43.130149 
L 142.541588 -43.010871 
L 140.607648 -42.973042 
L 138.673708 -42.962685 
L 136.739768 -42.960262 
L 134.805828 -42.959781 
L 132.871888 -42.959702 
L 130.937948 -42.9597 
L 129.004008 -42.959753 
L 127.070068 -42.96001 
L 125.136128 -42.961002 
L 123.202188 -42.964134 
L 121.268248 -42.972171 
L 119.334308 -42.988785 
L 117.400368 -43.015993 
L 115.466428 -43.050136 
L 113.532488 -43.080305 
L 111.598548 -43.09322 
L 109.664608 -43.08241 
L 107.730668 -43.053319 
L 105.796728 -43.018991 
L 103.862788 -42.99087 
L 101.928848 -42.973299 
L 99.994908 -42.96462 
L 98.060968 -42.961171 
z
" style="stroke: #800080"/>
    </defs>
    <g clip-path="url(#p7216bcfe55)">
     <use xlink:href="#mc6de5103f5" x="0" y="342.477813" style="fill: #800080; fill-opacity: 0.3; stroke: #800080"/>
    </g>
   </g>
   <g id="line2d_14">
    <path d="M 77.096847 299.508885 
L 83.27473 299.364986 
L 85.745884 299.144181 
L 88.217037 298.712602 
L 90.688191 297.97727 
L 93.159344 296.876448 
L 95.630498 295.407656 
L 98.101651 293.619978 
L 100.572805 291.572593 
L 103.043958 289.30109 
L 106.750689 285.546217 
L 111.692996 280.485121 
L 114.164149 278.336051 
L 116.635303 276.606199 
L 119.106456 275.289765 
L 121.57761 274.316691 
L 124.048763 273.620881 
L 126.519917 273.172812 
L 128.99107 272.961915 
L 131.462224 272.960694 
L 135.168954 273.214634 
L 145.053568 274.233662 
L 147.524722 274.732424 
L 149.995875 275.455413 
L 157.409336 278.019029 
L 161.116066 278.897574 
L 167.29395 280.161834 
L 169.765103 280.416977 
L 172.236257 280.283612 
L 174.70741 279.712964 
L 177.178564 278.771782 
L 179.649717 277.494645 
L 180.885294 276.680235 
L 182.120871 275.676977 
L 183.356448 274.399335 
L 184.592024 272.738413 
L 185.827601 270.566884 
L 187.063178 267.745969 
L 188.298755 264.133644 
L 189.534331 259.593262 
L 190.769908 254.001885 
L 192.005485 247.257875 
L 193.241062 239.287514 
L 194.476638 230.050702 
L 195.712215 219.545949 
L 196.947792 207.815041 
L 199.418945 181.0863 
L 203.125676 135.840742 
L 205.596829 105.985739 
L 206.832406 92.431976 
L 208.067983 80.431431 
L 209.30356 70.450995 
L 210.539136 62.912256 
L 211.774713 58.160854 
L 213.01029 56.439608 
L 214.245867 57.868638 
L 215.481443 62.434716 
L 216.71702 69.990895 
L 217.952597 80.266095 
L 219.188174 92.883314 
L 220.42375 107.384342 
L 222.894904 139.973092 
L 226.601634 190.102467 
L 229.072788 219.419237 
L 230.308364 232.037482 
L 231.543941 243.144175 
L 232.779518 252.730537 
L 234.015095 260.85765 
L 235.250671 267.640229 
L 236.486248 273.228406 
L 237.721825 277.7895 
L 238.957402 281.49169 
L 240.192978 284.491208 
L 241.428555 286.924001 
L 242.664132 288.902057 
L 243.899709 290.513809 
L 245.135285 291.827438 
L 246.370862 292.895622 
L 247.606439 293.760366 
L 248.842016 294.456903 
L 251.313169 295.46589 
L 253.784323 296.131255 
L 257.491053 296.798169 
L 262.43336 297.419685 
L 269.846821 298.102889 
L 282.202588 299.025748 
L 288.380472 299.210006 
L 297.029509 299.145582 
L 304.44297 299.161951 
L 321.741044 299.513467 
L 322.976621 299.515508 
L 322.976621 299.515508 
" clip-path="url(#p7216bcfe55)" style="fill: none; stroke: #000000; stroke-linecap: round"/>
   </g>
   <g id="patch_3">
    <path d="M 56.805938 299.518125 
L 56.805938 22.318125 
" style="fill: none; stroke: #cccccc; stroke-width: 1.25; stroke-linejoin: miter; stroke-linecap: square"/>
   </g>
   <g id="patch_4">
    <path d="M 503.205938 299.518125 
L 503.205938 22.318125 
" style="fill: none; stroke: #cccccc; stroke-width: 1.25; stroke-linejoin: miter; stroke-linecap: square"/>
   </g>
   <g id="patch_5">
    <path d="M 56.805938 299.518125 
L 503.205938 299.518125 
" style="fill: none; stroke: #cccccc; stroke-width: 1.25; stroke-linejoin: miter; stroke-linecap: square"/>
   </g>
   <g id="patch_6">
    <path d="M 56.805938 22.318125 
L 503.205938 22.318125 
" style="fill: none; stroke: #cccccc; stroke-width: 1.25; stroke-linejoin: miter; stroke-linecap: square"/>
   </g>
   <g id="text_16">
    <!-- Density Plot SIO2 -->
    <g style="fill: #262626" transform="translate(227.954063 16.318125) scale(0.12 -0.12)">
     <defs>
      <path id="DejaVuSans-20" transform="scale(0.015625)"/>
      <path id="DejaVuSans-50" d="M 1259 4147 
L 1259 2394 
L 2053 2394 
Q 2494 2394 2734 2622 
Q 2975 2850 2975 3272 
Q 2975 3691 2734 3919 
Q 2494 4147 2053 4147 
L 1259 4147 
z
M 628 4666 
L 2053 4666 
Q 2838 4666 3239 4311 
Q 3641 3956 3641 3272 
Q 3641 2581 3239 2228 
Q 2838 1875 2053 1875 
L 1259 1875 
L 1259 0 
L 628 0 
L 628 4666 
z
" transform="scale(0.015625)"/>
      <path id="DejaVuSans-6c" d="M 603 4863 
L 1178 4863 
L 1178 0 
L 603 0 
L 603 4863 
z
" transform="scale(0.015625)"/>
      <path id="DejaVuSans-6f" d="M 1959 3097 
Q 1497 3097 1228 2736 
Q 959 2375 959 1747 
Q 959 1119 1226 758 
Q 1494 397 1959 397 
Q 2419 397 2687 759 
Q 2956 1122 2956 1747 
Q 2956 2369 2687 2733 
Q 2419 3097 1959 3097 
z
M 1959 3584 
Q 2709 3584 3137 3096 
Q 3566 2609 3566 1747 
Q 3566 888 3137 398 
Q 2709 -91 1959 -91 
Q 1206 -91 779 398 
Q 353 888 353 1747 
Q 353 2609 779 3096 
Q 1206 3584 1959 3584 
z
" transform="scale(0.015625)"/>
     </defs>
     <use xlink:href="#DejaVuSans-44"/>
     <use xlink:href="#DejaVuSans-65" transform="translate(77.001953 0)"/>
     <use xlink:href="#DejaVuSans-6e" transform="translate(138.525391 0)"/>
     <use xlink:href="#DejaVuSans-73" transform="translate(201.904297 0)"/>
     <use xlink:href="#DejaVuSans-69" transform="translate(254.003906 0)"/>
     <use xlink:href="#DejaVuSans-74" transform="translate(281.787109 0)"/>
     <use xlink:href="#DejaVuSans-79" transform="translate(320.996094 0)"/>
     <use xlink:href="#DejaVuSans-20" transform="translate(380.175781 0)"/>
     <use xlink:href="#DejaVuSans-50" transform="translate(411.962891 0)"/>
     <use xlink:href="#DejaVuSans-6c" transform="translate(472.265625 0)"/>
     <use xlink:href="#DejaVuSans-6f" transform="translate(500.048828 0)"/>
     <use xlink:href="#DejaVuSans-74" transform="translate(561.230469 0)"/>
     <use xlink:href="#DejaVuSans-20" transform="translate(600.439453 0)"/>
     <use xlink:href="#DejaVuSans-53" transform="translate(632.226562 0)"/>
     <use xlink:href="#DejaVuSans-49" transform="translate(695.703125 0)"/>
     <use xlink:href="#DejaVuSans-4f" transform="translate(725.195312 0)"/>
     <use xlink:href="#DejaVuSans-32" transform="translate(803.90625 0)"/>
    </g>
   </g>
   <g id="legend_1">
    <g id="patch_7">
     <path d="M 436.312187 63.41 
L 495.505938 63.41 
Q 497.705938 63.41 497.705938 61.21 
L 497.705938 30.018125 
Q 497.705938 27.818125 495.505938 27.818125 
L 436.312187 27.818125 
Q 434.112188 27.818125 434.112188 30.018125 
L 434.112188 61.21 
Q 434.112188 63.41 436.312187 63.41 
z
" style="fill: #ffffff; opacity: 0.8; stroke: #cccccc; stroke-linejoin: miter"/>
    </g>
    <g id="patch_8">
     <path d="M 438.512187 40.576406 
L 460.512187 40.576406 
L 460.512187 32.876406 
L 438.512187 32.876406 
z
" style="fill: #800080; fill-opacity: 0.3; stroke: #800080; stroke-linejoin: miter"/>
    </g>
    <g id="text_17">
     <!-- Old -->
     <g style="fill: #262626" transform="translate(469.312187 40.576406) scale(0.11 -0.11)">
      <defs>
       <path id="DejaVuSans-64" d="M 2906 2969 
L 2906 4863 
L 3481 4863 
L 3481 0 
L 2906 0 
L 2906 525 
Q 2725 213 2448 61 
Q 2172 -91 1784 -91 
Q 1150 -91 751 415 
Q 353 922 353 1747 
Q 353 2572 751 3078 
Q 1150 3584 1784 3584 
Q 2172 3584 2448 3432 
Q 2725 3281 2906 2969 
z
M 947 1747 
Q 947 1113 1208 752 
Q 1469 391 1925 391 
Q 2381 391 2643 752 
Q 2906 1113 2906 1747 
Q 2906 2381 2643 2742 
Q 2381 3103 1925 3103 
Q 1469 3103 1208 2742 
Q 947 2381 947 1747 
z
" transform="scale(0.015625)"/>
      </defs>
      <use xlink:href="#DejaVuSans-4f"/>
      <use xlink:href="#DejaVuSans-6c" transform="translate(78.710938 0)"/>
      <use xlink:href="#DejaVuSans-64" transform="translate(106.494141 0)"/>
     </g>
    </g>
    <g id="line2d_15">
     <path d="M 438.512187 52.872344 
L 449.512187 52.872344 
L 460.512187 52.872344 
" style="fill: none; stroke: #000000; stroke-linecap: round"/>
    </g>
    <g id="text_18">
     <!-- New -->
     <g style="fill: #262626" transform="translate(469.312187 56.722344) scale(0.11 -0.11)">
      <defs>
       <path id="DejaVuSans-4e" d="M 628 4666 
L 1478 4666 
L 3547 763 
L 3547 4666 
L 4159 4666 
L 4159 0 
L 3309 0 
L 1241 3903 
L 1241 0 
L 628 0 
L 628 4666 
z
" transform="scale(0.015625)"/>
       <path id="DejaVuSans-77" d="M 269 3500 
L 844 3500 
L 1563 769 
L 2278 3500 
L 2956 3500 
L 3675 769 
L 4391 3500 
L 4966 3500 
L 4050 0 
L 3372 0 
L 2619 2869 
L 1863 0 
L 1184 0 
L 269 3500 
z
" transform="scale(0.015625)"/>
      </defs>
      <use xlink:href="#DejaVuSans-4e"/>
      <use xlink:href="#DejaVuSans-65" transform="translate(74.804688 0)"/>
      <use xlink:href="#DejaVuSans-77" transform="translate(136.328125 0)"/>
     </g>
    </g>
   </g>
  </g>
 </g>
 <defs>
  <clipPath id="p7216bcfe55">
   <rect x="56.805938" y="22.318125" width="446.4" height="277.2"/>
  </clipPath>
 </defs>
</svg>
