<?xml version="1.0" encoding="utf-8" standalone="no"?>
<!DOCTYPE svg PUBLIC "-//W3C//DTD SVG 1.1//EN"
  "http://www.w3.org/Graphics/SVG/1.1/DTD/svg11.dtd">
<svg xmlns:xlink="http://www.w3.org/1999/xlink" width="503.407187pt" height="342.477813pt" viewBox="0 0 503.407187 342.477813" xmlns="http://www.w3.org/2000/svg" version="1.1">
 <metadata>
  <rdf:RDF xmlns:dc="http://purl.org/dc/elements/1.1/" xmlns:cc="http://creativecommons.org/ns#" xmlns:rdf="http://www.w3.org/1999/02/22-rdf-syntax-ns#">
   <cc:Work>
    <dc:type rdf:resource="http://purl.org/dc/dcmitype/StillImage"/>
    <dc:date>2025-10-22T08:42:13.070372</dc:date>
    <dc:format>image/svg+xml</dc:format>
    <dc:creator>
     <cc:Agent>
      <dc:title>Matplotlib v3.10.6, https://matplotlib.org/</dc:title>
     </cc:Agent>
    </dc:creator>
   </cc:Work>
  </rdf:RDF>
 </metadata>
 <defs>
  <style type="text/css">*{stroke-linejoin: round; stroke-linecap: butt}</style>
 </defs>
 <g id="figure_1">
  <g id="patch_1">
   <path d="M 0 342.477813 
L 503.407187 342.477813 
L 503.407187 0 
L 0 0 
z
" style="fill: #ffffff"/>
  </g>
  <g id="axes_1">
   <g id="patch_2">
    <path d="M 49.807188 299.518125 
L 496.207187 299.518125 
L 496.207187 22.318125 
L 49.807188 22.318125 
z
" style="fill: #ffffff"/>
   </g>
   <g id="matplotlib.axis_1">
    <g id="xtick_1">
     <g id="line2d_1">
      <path d="M 58.41106 299.518125 
L 58.41106 22.318125 
" clip-path="url(#p30e6e06586)" style="fill: none; stroke-dasharray: 3.7,1.6; stroke-dashoffset: 0; stroke: #cccccc; stroke-opacity: 0.6"/>
     </g>
     <g id="text_1">
      <!-- 0 -->
      <g style="fill: #262626" transform="translate(54.911685 317.376406) scale(0.11 -0.11)">
       <defs>
        <path id="DejaVuSans-30" d="M 2034 4250 
Q 1547 4250 1301 3770 
Q 1056 3291 1056 2328 
Q 1056 1369 1301 889 
Q 1547 409 2034 409 
Q 2525 409 2770 889 
Q 3016 1369 3016 2328 
Q 3016 3291 2770 3770 
Q 2525 4250 2034 4250 
z
M 2034 4750 
Q 2819 4750 3233 4129 
Q 3647 3509 3647 2328 
Q 3647 1150 3233 529 
Q 2819 -91 2034 -91 
Q 1250 -91 836 529 
Q 422 1150 422 2328 
Q 422 3509 836 4129 
Q 1250 4750 2034 4750 
z
" transform="scale(0.015625)"/>
       </defs>
       <use xlink:href="#DejaVuSans-30"/>
      </g>
     </g>
    </g>
    <g id="xtick_2">
     <g id="line2d_2">
      <path d="M 132.449935 299.518125 
L 132.449935 22.318125 
" clip-path="url(#p30e6e06586)" style="fill: none; stroke-dasharray: 3.7,1.6; stroke-dashoffset: 0; stroke: #cccccc; stroke-opacity: 0.6"/>
     </g>
     <g id="text_2">
      <!-- 20 -->
      <g style="fill: #262626" transform="translate(125.451185 317.376406) scale(0.11 -0.11)">
       <defs>
        <path id="DejaVuSans-32" d="M 1228 531 
L 3431 531 
L 3431 0 
L 469 0 
L 469 531 
Q 828 903 1448 1529 
Q 2069 2156 2228 2338 
Q 2531 2678 2651 2914 
Q 2772 3150 2772 3378 
Q 2772 3750 2511 3984 
Q 2250 4219 1831 4219 
Q 1534 4219 1204 4116 
Q 875 4013 500 3803 
L 500 4441 
Q 881 4594 1212 4672 
Q 1544 4750 1819 4750 
Q 2544 4750 2975 4387 
Q 3406 4025 3406 3419 
Q 3406 3131 3298 2873 
Q 3191 2616 2906 2266 
Q 2828 2175 2409 1742 
Q 1991 1309 1228 531 
z
" transform="scale(0.015625)"/>
       </defs>
       <use xlink:href="#DejaVuSans-32"/>
       <use xlink:href="#DejaVuSans-30" transform="translate(63.623047 0)"/>
      </g>
     </g>
    </g>
    <g id="xtick_3">
     <g id="line2d_3">
      <path d="M 206.488811 299.518125 
L 206.488811 22.318125 
" clip-path="url(#p30e6e06586)" style="fill: none; stroke-dasharray: 3.7,1.6; stroke-dashoffset: 0; stroke: #cccccc; stroke-opacity: 0.6"/>
     </g>
     <g id="text_3">
      <!-- 40 -->
      <g style="fill: #262626" transform="translate(199.490061 317.376406) scale(0.11 -0.11)">
       <defs>
        <path id="DejaVuSans-34" d="M 2419 4116 
L 825 1625 
L 2419 1625 
L 2419 4116 
z
M 2253 4666 
L 3047 4666 
L 3047 1625 
L 3713 1625 
L 3713 1100 
L 3047 1100 
L 3047 0 
L 2419 0 
L 2419 1100 
L 313 1100 
L 313 1709 
L 2253 4666 
z
" transform="scale(0.015625)"/>
       </defs>
       <use xlink:href="#DejaVuSans-34"/>
       <use xlink:href="#DejaVuSans-30" transform="translate(63.623047 0)"/>
      </g>
     </g>
    </g>
    <g id="xtick_4">
     <g id="line2d_4">
      <path d="M 280.527686 299.518125 
L 280.527686 22.318125 
" clip-path="url(#p30e6e06586)" style="fill: none; stroke-dasharray: 3.7,1.6; stroke-dashoffset: 0; stroke: #cccccc; stroke-opacity: 0.6"/>
     </g>
     <g id="text_4">
      <!-- 60 -->
      <g style="fill: #262626" transform="translate(273.528936 317.376406) scale(0.11 -0.11)">
       <defs>
        <path id="DejaVuSans-36" d="M 2113 2584 
Q 1688 2584 1439 2293 
Q 1191 2003 1191 1497 
Q 1191 994 1439 701 
Q 1688 409 2113 409 
Q 2538 409 2786 701 
Q 3034 994 3034 1497 
Q 3034 2003 2786 2293 
Q 2538 2584 2113 2584 
z
M 3366 4563 
L 3366 3988 
Q 3128 4100 2886 4159 
Q 2644 4219 2406 4219 
Q 1781 4219 1451 3797 
Q 1122 3375 1075 2522 
Q 1259 2794 1537 2939 
Q 1816 3084 2150 3084 
Q 2853 3084 3261 2657 
Q 3669 2231 3669 1497 
Q 3669 778 3244 343 
Q 2819 -91 2113 -91 
Q 1303 -91 875 529 
Q 447 1150 447 2328 
Q 447 3434 972 4092 
Q 1497 4750 2381 4750 
Q 2619 4750 2861 4703 
Q 3103 4656 3366 4563 
z
" transform="scale(0.015625)"/>
       </defs>
       <use xlink:href="#DejaVuSans-36"/>
       <use xlink:href="#DejaVuSans-30" transform="translate(63.623047 0)"/>
      </g>
     </g>
    </g>
    <g id="xtick_5">
     <g id="line2d_5">
      <path d="M 354.566562 299.518125 
L 354.566562 22.318125 
" clip-path="url(#p30e6e06586)" style="fill: none; stroke-dasharray: 3.7,1.6; stroke-dashoffset: 0; stroke: #cccccc; stroke-opacity: 0.6"/>
     </g>
     <g id="text_5">
      <!-- 80 -->
      <g style="fill: #262626" transform="translate(347.567812 317.376406) scale(0.11 -0.11)">
       <defs>
        <path id="DejaVuSans-38" d="M 2034 2216 
Q 1584 2216 1326 1975 
Q 1069 1734 1069 1313 
Q 1069 891 1326 650 
Q 1584 409 2034 409 
Q 2484 409 2743 651 
Q 3003 894 3003 1313 
Q 3003 1734 2745 1975 
Q 2488 2216 2034 2216 
z
M 1403 2484 
Q 997 2584 770 2862 
Q 544 3141 544 3541 
Q 544 4100 942 4425 
Q 1341 4750 2034 4750 
Q 2731 4750 3128 4425 
Q 3525 4100 3525 3541 
Q 3525 3141 3298 2862 
Q 3072 2584 2669 2484 
Q 3125 2378 3379 2068 
Q 3634 1759 3634 1313 
Q 3634 634 3220 271 
Q 2806 -91 2034 -91 
Q 1263 -91 848 271 
Q 434 634 434 1313 
Q 434 1759 690 2068 
Q 947 2378 1403 2484 
z
M 1172 3481 
Q 1172 3119 1398 2916 
Q 1625 2713 2034 2713 
Q 2441 2713 2670 2916 
Q 2900 3119 2900 3481 
Q 2900 3844 2670 4047 
Q 2441 4250 2034 4250 
Q 1625 4250 1398 4047 
Q 1172 3844 1172 3481 
z
" transform="scale(0.015625)"/>
       </defs>
       <use xlink:href="#DejaVuSans-38"/>
       <use xlink:href="#DejaVuSans-30" transform="translate(63.623047 0)"/>
      </g>
     </g>
    </g>
    <g id="xtick_6">
     <g id="line2d_6">
      <path d="M 428.605437 299.518125 
L 428.605437 22.318125 
" clip-path="url(#p30e6e06586)" style="fill: none; stroke-dasharray: 3.7,1.6; stroke-dashoffset: 0; stroke: #cccccc; stroke-opacity: 0.6"/>
     </g>
     <g id="text_6">
      <!-- 100 -->
      <g style="fill: #262626" transform="translate(418.107312 317.376406) scale(0.11 -0.11)">
       <defs>
        <path id="DejaVuSans-31" d="M 794 531 
L 1825 531 
L 1825 4091 
L 703 3866 
L 703 4441 
L 1819 4666 
L 2450 4666 
L 2450 531 
L 3481 531 
L 3481 0 
L 794 0 
L 794 531 
z
" transform="scale(0.015625)"/>
       </defs>
       <use xlink:href="#DejaVuSans-31"/>
       <use xlink:href="#DejaVuSans-30" transform="translate(63.623047 0)"/>
       <use xlink:href="#DejaVuSans-30" transform="translate(127.246094 0)"/>
      </g>
     </g>
    </g>
    <g id="text_7">
     <!-- SIO2 -->
     <g style="fill: #262626" transform="translate(258.8875 332.782188) scale(0.12 -0.12)">
      <defs>
       <path id="DejaVuSans-53" d="M 3425 4513 
L 3425 3897 
Q 3066 4069 2747 4153 
Q 2428 4238 2131 4238 
Q 1616 4238 1336 4038 
Q 1056 3838 1056 3469 
Q 1056 3159 1242 3001 
Q 1428 2844 1947 2747 
L 2328 2669 
Q 3034 2534 3370 2195 
Q 3706 1856 3706 1288 
Q 3706 609 3251 259 
Q 2797 -91 1919 -91 
Q 1588 -91 1214 -16 
Q 841 59 441 206 
L 441 856 
Q 825 641 1194 531 
Q 1563 422 1919 422 
Q 2459 422 2753 634 
Q 3047 847 3047 1241 
Q 3047 1584 2836 1778 
Q 2625 1972 2144 2069 
L 1759 2144 
Q 1053 2284 737 2584 
Q 422 2884 422 3419 
Q 422 4038 858 4394 
Q 1294 4750 2059 4750 
Q 2388 4750 2728 4690 
Q 3069 4631 3425 4513 
z
" transform="scale(0.015625)"/>
       <path id="DejaVuSans-49" d="M 628 4666 
L 1259 4666 
L 1259 0 
L 628 0 
L 628 4666 
z
" transform="scale(0.015625)"/>
       <path id="DejaVuSans-4f" d="M 2522 4238 
Q 1834 4238 1429 3725 
Q 1025 3213 1025 2328 
Q 1025 1447 1429 934 
Q 1834 422 2522 422 
Q 3209 422 3611 934 
Q 4013 1447 4013 2328 
Q 4013 3213 3611 3725 
Q 3209 4238 2522 4238 
z
M 2522 4750 
Q 3503 4750 4090 4092 
Q 4678 3434 4678 2328 
Q 4678 1225 4090 567 
Q 3503 -91 2522 -91 
Q 1538 -91 948 565 
Q 359 1222 359 2328 
Q 359 3434 948 4092 
Q 1538 4750 2522 4750 
z
" transform="scale(0.015625)"/>
      </defs>
      <use xlink:href="#DejaVuSans-53"/>
      <use xlink:href="#DejaVuSans-49" transform="translate(63.476562 0)"/>
      <use xlink:href="#DejaVuSans-4f" transform="translate(92.96875 0)"/>
      <use xlink:href="#DejaVuSans-32" transform="translate(171.679688 0)"/>
     </g>
    </g>
   </g>
   <g id="matplotlib.axis_2">
    <g id="ytick_1">
     <g id="line2d_7">
      <path d="M 49.807188 286.960946 
L 496.207187 286.960946 
" clip-path="url(#p30e6e06586)" style="fill: none; stroke-dasharray: 3.7,1.6; stroke-dashoffset: 0; stroke: #cccccc; stroke-opacity: 0.6"/>
     </g>
     <g id="text_8">
      <!-- 0.0 -->
      <g style="fill: #262626" transform="translate(22.81375 291.140086) scale(0.11 -0.11)">
       <defs>
        <path id="DejaVuSans-2e" d="M 684 794 
L 1344 794 
L 1344 0 
L 684 0 
L 684 794 
z
" transform="scale(0.015625)"/>
       </defs>
       <use xlink:href="#DejaVuSans-30"/>
       <use xlink:href="#DejaVuSans-2e" transform="translate(63.623047 0)"/>
       <use xlink:href="#DejaVuSans-30" transform="translate(95.410156 0)"/>
      </g>
     </g>
    </g>
    <g id="ytick_2">
     <g id="line2d_8">
      <path d="M 49.807188 236.552382 
L 496.207187 236.552382 
" clip-path="url(#p30e6e06586)" style="fill: none; stroke-dasharray: 3.7,1.6; stroke-dashoffset: 0; stroke: #cccccc; stroke-opacity: 0.6"/>
     </g>
     <g id="text_9">
      <!-- 0.2 -->
      <g style="fill: #262626" transform="translate(22.81375 240.731522) scale(0.11 -0.11)">
       <use xlink:href="#DejaVuSans-30"/>
       <use xlink:href="#DejaVuSans-2e" transform="translate(63.623047 0)"/>
       <use xlink:href="#DejaVuSans-32" transform="translate(95.410156 0)"/>
      </g>
     </g>
    </g>
    <g id="ytick_3">
     <g id="line2d_9">
      <path d="M 49.807188 186.143817 
L 496.207187 186.143817 
" clip-path="url(#p30e6e06586)" style="fill: none; stroke-dasharray: 3.7,1.6; stroke-dashoffset: 0; stroke: #cccccc; stroke-opacity: 0.6"/>
     </g>
     <g id="text_10">
      <!-- 0.4 -->
      <g style="fill: #262626" transform="translate(22.81375 190.322958) scale(0.11 -0.11)">
       <use xlink:href="#DejaVuSans-30"/>
       <use xlink:href="#DejaVuSans-2e" transform="translate(63.623047 0)"/>
       <use xlink:href="#DejaVuSans-34" transform="translate(95.410156 0)"/>
      </g>
     </g>
    </g>
    <g id="ytick_4">
     <g id="line2d_10">
      <path d="M 49.807188 135.735253 
L 496.207187 135.735253 
" clip-path="url(#p30e6e06586)" style="fill: none; stroke-dasharray: 3.7,1.6; stroke-dashoffset: 0; stroke: #cccccc; stroke-opacity: 0.6"/>
     </g>
     <g id="text_11">
      <!-- 0.6 -->
      <g style="fill: #262626" transform="translate(22.81375 139.914394) scale(0.11 -0.11)">
       <use xlink:href="#DejaVuSans-30"/>
       <use xlink:href="#DejaVuSans-2e" transform="translate(63.623047 0)"/>
       <use xlink:href="#DejaVuSans-36" transform="translate(95.410156 0)"/>
      </g>
     </g>
    </g>
    <g id="ytick_5">
     <g id="line2d_11">
      <path d="M 49.807188 85.326689 
L 496.207187 85.326689 
" clip-path="url(#p30e6e06586)" style="fill: none; stroke-dasharray: 3.7,1.6; stroke-dashoffset: 0; stroke: #cccccc; stroke-opacity: 0.6"/>
     </g>
     <g id="text_12">
      <!-- 0.8 -->
      <g style="fill: #262626" transform="translate(22.81375 89.50583) scale(0.11 -0.11)">
       <use xlink:href="#DejaVuSans-30"/>
       <use xlink:href="#DejaVuSans-2e" transform="translate(63.623047 0)"/>
       <use xlink:href="#DejaVuSans-38" transform="translate(95.410156 0)"/>
      </g>
     </g>
    </g>
    <g id="ytick_6">
     <g id="line2d_12">
      <path d="M 49.807188 34.918125 
L 496.207187 34.918125 
" clip-path="url(#p30e6e06586)" style="fill: none; stroke-dasharray: 3.7,1.6; stroke-dashoffset: 0; stroke: #cccccc; stroke-opacity: 0.6"/>
     </g>
     <g id="text_13">
      <!-- 1.0 -->
      <g style="fill: #262626" transform="translate(22.81375 39.097266) scale(0.11 -0.11)">
       <use xlink:href="#DejaVuSans-31"/>
       <use xlink:href="#DejaVuSans-2e" transform="translate(63.623047 0)"/>
       <use xlink:href="#DejaVuSans-30" transform="translate(95.410156 0)"/>
      </g>
     </g>
    </g>
    <g id="text_14">
     <!-- Cumulative Probability -->
     <g style="fill: #262626" transform="translate(16.318125 228.784688) rotate(-90) scale(0.12 -0.12)">
      <defs>
       <path id="DejaVuSans-43" d="M 4122 4306 
L 4122 3641 
Q 3803 3938 3442 4084 
Q 3081 4231 2675 4231 
Q 1875 4231 1450 3742 
Q 1025 3253 1025 2328 
Q 1025 1406 1450 917 
Q 1875 428 2675 428 
Q 3081 428 3442 575 
Q 3803 722 4122 1019 
L 4122 359 
Q 3791 134 3420 21 
Q 3050 -91 2638 -91 
Q 1578 -91 968 557 
Q 359 1206 359 2328 
Q 359 3453 968 4101 
Q 1578 4750 2638 4750 
Q 3056 4750 3426 4639 
Q 3797 4528 4122 4306 
z
" transform="scale(0.015625)"/>
       <path id="DejaVuSans-75" d="M 544 1381 
L 544 3500 
L 1119 3500 
L 1119 1403 
Q 1119 906 1312 657 
Q 1506 409 1894 409 
Q 2359 409 2629 706 
Q 2900 1003 2900 1516 
L 2900 3500 
L 3475 3500 
L 3475 0 
L 2900 0 
L 2900 538 
Q 2691 219 2414 64 
Q 2138 -91 1772 -91 
Q 1169 -91 856 284 
Q 544 659 544 1381 
z
M 1991 3584 
L 1991 3584 
z
" transform="scale(0.015625)"/>
       <path id="DejaVuSans-6d" d="M 3328 2828 
Q 3544 3216 3844 3400 
Q 4144 3584 4550 3584 
Q 5097 3584 5394 3201 
Q 5691 2819 5691 2113 
L 5691 0 
L 5113 0 
L 5113 2094 
Q 5113 2597 4934 2840 
Q 4756 3084 4391 3084 
Q 3944 3084 3684 2787 
Q 3425 2491 3425 1978 
L 3425 0 
L 2847 0 
L 2847 2094 
Q 2847 2600 2669 2842 
Q 2491 3084 2119 3084 
Q 1678 3084 1418 2786 
Q 1159 2488 1159 1978 
L 1159 0 
L 581 0 
L 581 3500 
L 1159 3500 
L 1159 2956 
Q 1356 3278 1631 3431 
Q 1906 3584 2284 3584 
Q 2666 3584 2933 3390 
Q 3200 3197 3328 2828 
z
" transform="scale(0.015625)"/>
       <path id="DejaVuSans-6c" d="M 603 4863 
L 1178 4863 
L 1178 0 
L 603 0 
L 603 4863 
z
" transform="scale(0.015625)"/>
       <path id="DejaVuSans-61" d="M 2194 1759 
Q 1497 1759 1228 1600 
Q 959 1441 959 1056 
Q 959 750 1161 570 
Q 1363 391 1709 391 
Q 2188 391 2477 730 
Q 2766 1069 2766 1631 
L 2766 1759 
L 2194 1759 
z
M 3341 1997 
L 3341 0 
L 2766 0 
L 2766 531 
Q 2569 213 2275 61 
Q 1981 -91 1556 -91 
Q 1019 -91 701 211 
Q 384 513 384 1019 
Q 384 1609 779 1909 
Q 1175 2209 1959 2209 
L 2766 2209 
L 2766 2266 
Q 2766 2663 2505 2880 
Q 2244 3097 1772 3097 
Q 1472 3097 1187 3025 
Q 903 2953 641 2809 
L 641 3341 
Q 956 3463 1253 3523 
Q 1550 3584 1831 3584 
Q 2591 3584 2966 3190 
Q 3341 2797 3341 1997 
z
" transform="scale(0.015625)"/>
       <path id="DejaVuSans-74" d="M 1172 4494 
L 1172 3500 
L 2356 3500 
L 2356 3053 
L 1172 3053 
L 1172 1153 
Q 1172 725 1289 603 
Q 1406 481 1766 481 
L 2356 481 
L 2356 0 
L 1766 0 
Q 1100 0 847 248 
Q 594 497 594 1153 
L 594 3053 
L 172 3053 
L 172 3500 
L 594 3500 
L 594 4494 
L 1172 4494 
z
" transform="scale(0.015625)"/>
       <path id="DejaVuSans-69" d="M 603 3500 
L 1178 3500 
L 1178 0 
L 603 0 
L 603 3500 
z
M 603 4863 
L 1178 4863 
L 1178 4134 
L 603 4134 
L 603 4863 
z
" transform="scale(0.015625)"/>
       <path id="DejaVuSans-76" d="M 191 3500 
L 800 3500 
L 1894 563 
L 2988 3500 
L 3597 3500 
L 2284 0 
L 1503 0 
L 191 3500 
z
" transform="scale(0.015625)"/>
       <path id="DejaVuSans-65" d="M 3597 1894 
L 3597 1613 
L 953 1613 
Q 991 1019 1311 708 
Q 1631 397 2203 397 
Q 2534 397 2845 478 
Q 3156 559 3463 722 
L 3463 178 
Q 3153 47 2828 -22 
Q 2503 -91 2169 -91 
Q 1331 -91 842 396 
Q 353 884 353 1716 
Q 353 2575 817 3079 
Q 1281 3584 2069 3584 
Q 2775 3584 3186 3129 
Q 3597 2675 3597 1894 
z
M 3022 2063 
Q 3016 2534 2758 2815 
Q 2500 3097 2075 3097 
Q 1594 3097 1305 2825 
Q 1016 2553 972 2059 
L 3022 2063 
z
" transform="scale(0.015625)"/>
       <path id="DejaVuSans-20" transform="scale(0.015625)"/>
       <path id="DejaVuSans-50" d="M 1259 4147 
L 1259 2394 
L 2053 2394 
Q 2494 2394 2734 2622 
Q 2975 2850 2975 3272 
Q 2975 3691 2734 3919 
Q 2494 4147 2053 4147 
L 1259 4147 
z
M 628 4666 
L 2053 4666 
Q 2838 4666 3239 4311 
Q 3641 3956 3641 3272 
Q 3641 2581 3239 2228 
Q 2838 1875 2053 1875 
L 1259 1875 
L 1259 0 
L 628 0 
L 628 4666 
z
" transform="scale(0.015625)"/>
       <path id="DejaVuSans-72" d="M 2631 2963 
Q 2534 3019 2420 3045 
Q 2306 3072 2169 3072 
Q 1681 3072 1420 2755 
Q 1159 2438 1159 1844 
L 1159 0 
L 581 0 
L 581 3500 
L 1159 3500 
L 1159 2956 
Q 1341 3275 1631 3429 
Q 1922 3584 2338 3584 
Q 2397 3584 2469 3576 
Q 2541 3569 2628 3553 
L 2631 2963 
z
" transform="scale(0.015625)"/>
       <path id="DejaVuSans-6f" d="M 1959 3097 
Q 1497 3097 1228 2736 
Q 959 2375 959 1747 
Q 959 1119 1226 758 
Q 1494 397 1959 397 
Q 2419 397 2687 759 
Q 2956 1122 2956 1747 
Q 2956 2369 2687 2733 
Q 2419 3097 1959 3097 
z
M 1959 3584 
Q 2709 3584 3137 3096 
Q 3566 2609 3566 1747 
Q 3566 888 3137 398 
Q 2709 -91 1959 -91 
Q 1206 -91 779 398 
Q 353 888 353 1747 
Q 353 2609 779 3096 
Q 1206 3584 1959 3584 
z
" transform="scale(0.015625)"/>
       <path id="DejaVuSans-62" d="M 3116 1747 
Q 3116 2381 2855 2742 
Q 2594 3103 2138 3103 
Q 1681 3103 1420 2742 
Q 1159 2381 1159 1747 
Q 1159 1113 1420 752 
Q 1681 391 2138 391 
Q 2594 391 2855 752 
Q 3116 1113 3116 1747 
z
M 1159 2969 
Q 1341 3281 1617 3432 
Q 1894 3584 2278 3584 
Q 2916 3584 3314 3078 
Q 3713 2572 3713 1747 
Q 3713 922 3314 415 
Q 2916 -91 2278 -91 
Q 1894 -91 1617 61 
Q 1341 213 1159 525 
L 1159 0 
L 581 0 
L 581 4863 
L 1159 4863 
L 1159 2969 
z
" transform="scale(0.015625)"/>
       <path id="DejaVuSans-79" d="M 2059 -325 
Q 1816 -950 1584 -1140 
Q 1353 -1331 966 -1331 
L 506 -1331 
L 506 -850 
L 844 -850 
Q 1081 -850 1212 -737 
Q 1344 -625 1503 -206 
L 1606 56 
L 191 3500 
L 800 3500 
L 1894 763 
L 2988 3500 
L 3597 3500 
L 2059 -325 
z
" transform="scale(0.015625)"/>
      </defs>
      <use xlink:href="#DejaVuSans-43"/>
      <use xlink:href="#DejaVuSans-75" transform="translate(69.824219 0)"/>
      <use xlink:href="#DejaVuSans-6d" transform="translate(133.203125 0)"/>
      <use xlink:href="#DejaVuSans-75" transform="translate(230.615234 0)"/>
      <use xlink:href="#DejaVuSans-6c" transform="translate(293.994141 0)"/>
      <use xlink:href="#DejaVuSans-61" transform="translate(321.777344 0)"/>
      <use xlink:href="#DejaVuSans-74" transform="translate(383.056641 0)"/>
      <use xlink:href="#DejaVuSans-69" transform="translate(422.265625 0)"/>
      <use xlink:href="#DejaVuSans-76" transform="translate(450.048828 0)"/>
      <use xlink:href="#DejaVuSans-65" transform="translate(509.228516 0)"/>
      <use xlink:href="#DejaVuSans-20" transform="translate(570.751953 0)"/>
      <use xlink:href="#DejaVuSans-50" transform="translate(602.539062 0)"/>
      <use xlink:href="#DejaVuSans-72" transform="translate(661.091797 0)"/>
      <use xlink:href="#DejaVuSans-6f" transform="translate(699.955078 0)"/>
      <use xlink:href="#DejaVuSans-62" transform="translate(761.136719 0)"/>
      <use xlink:href="#DejaVuSans-61" transform="translate(824.613281 0)"/>
      <use xlink:href="#DejaVuSans-62" transform="translate(885.892578 0)"/>
      <use xlink:href="#DejaVuSans-69" transform="translate(949.369141 0)"/>
      <use xlink:href="#DejaVuSans-6c" transform="translate(977.152344 0)"/>
      <use xlink:href="#DejaVuSans-69" transform="translate(1004.935547 0)"/>
      <use xlink:href="#DejaVuSans-74" transform="translate(1032.71875 0)"/>
      <use xlink:href="#DejaVuSans-79" transform="translate(1071.927734 0)"/>
     </g>
    </g>
   </g>
   <g id="line2d_13">
    <path d="M 86.619872 286.918125 
L 86.619872 286.875304 
L 133.042246 286.789663 
L 133.116285 286.704021 
L 134.523024 286.61838 
L 134.523024 286.575559 
L 135.226393 286.489918 
L 135.226393 286.447097 
L 135.781685 286.361456 
L 135.781685 286.318635 
L 136.188899 286.275814 
L 136.188899 286.232993 
L 136.188899 286.190173 
L 136.78121 286.104531 
L 136.78121 286.06171 
L 137.114385 285.976069 
L 137.114385 285.890427 
L 137.484579 285.804786 
L 137.484579 285.761965 
L 137.743715 285.676324 
L 137.854773 285.590682 
L 138.07689 285.547862 
L 138.07689 285.505041 
L 138.187948 285.333758 
L 138.299007 285.248117 
L 138.410065 285.119654 
L 138.558143 285.034013 
L 138.669201 284.86273 
L 138.817279 284.777088 
L 138.928337 284.691447 
L 139.113434 284.605806 
L 139.224493 284.26324 
L 139.446609 284.220419 
L 139.446609 284.177598 
L 139.557668 284.006315 
L 139.631706 283.920674 
L 139.705745 283.70657 
L 139.890842 283.620929 
L 140.001901 283.406825 
L 140.07594 283.406825 
L 140.07594 283.321184 
L 140.186998 283.149901 
L 140.298056 283.064259 
L 140.372095 282.978618 
L 140.520173 282.892976 
L 140.631231 282.55041 
L 140.668251 282.55041 
L 140.668251 282.464769 
L 140.779309 282.122203 
L 140.853348 282.036562 
L 140.964406 281.565534 
L 141.038445 281.522713 
L 141.038445 281.479892 
L 141.149503 281.051685 
L 141.223542 280.966043 
L 141.334601 280.666298 
L 141.37162 280.666298 
L 141.37162 280.580657 
L 141.482678 280.452195 
L 141.630756 280.366553 
L 141.741814 279.981167 
L 141.815853 279.938346 
L 141.815853 279.895525 
L 141.926912 279.59578 
L 142.074989 279.510139 
L 142.186048 278.99629 
L 142.223067 278.99629 
L 142.223067 278.910648 
L 142.297106 278.782186 
L 142.445184 278.696545 
L 142.556242 278.525262 
L 142.630281 278.43962 
L 142.741339 278.139875 
L 142.889417 278.054234 
L 143.000475 277.754489 
L 143.037495 277.754489 
L 143.037495 277.668847 
L 143.111534 277.454744 
L 143.185572 277.454744 
L 143.185572 277.369102 
L 143.296631 277.069357 
L 143.444708 276.983715 
L 143.555767 276.68397 
L 143.592786 276.68397 
L 143.592786 276.598329 
L 143.703845 276.298584 
L 143.777883 276.255763 
L 143.777883 276.212942 
L 143.851922 275.870376 
L 144.148078 275.784735 
L 144.259136 275.228066 
L 144.333175 275.142424 
L 144.444233 274.92832 
L 144.518272 274.8855 
L 144.518272 274.842679 
L 144.592311 274.671396 
L 144.703369 274.585755 
L 144.777408 274.371651 
L 144.888467 274.32883 
L 144.888467 274.286009 
L 144.999525 273.986264 
L 145.110583 273.900623 
L 145.221642 273.600878 
L 145.258661 273.600878 
L 145.258661 273.515236 
L 145.369719 273.215491 
L 145.480778 273.12985 
L 145.591836 272.787284 
L 145.665875 272.701642 
L 145.776933 272.273435 
L 145.925011 272.187794 
L 146.036069 271.930869 
L 146.110108 271.888049 
L 146.110108 271.845228 
L 146.221166 271.631124 
L 146.295205 271.588303 
L 146.295205 271.545483 
L 146.406264 271.245738 
L 146.443283 271.245738 
L 146.443283 271.160096 
L 146.554341 270.77471 
L 146.591361 270.77471 
L 146.591361 270.689068 
L 146.6654 270.474964 
L 146.813477 270.389323 
L 146.887516 270.175219 
L 147.035594 270.132399 
L 147.035594 270.089578 
L 147.146652 269.747012 
L 147.257711 269.747012 
L 147.257711 269.661371 
L 147.368769 269.447267 
L 147.442808 269.361625 
L 147.553866 269.06188 
L 147.664924 268.976239 
L 147.738963 268.847777 
L 147.850022 268.762135 
L 147.96108 268.505211 
L 148.035119 268.419569 
L 148.146177 268.248286 
L 148.294255 268.162645 
L 148.405313 268.034183 
L 148.479352 267.991362 
L 148.479352 267.948541 
L 148.59041 267.691617 
L 148.62743 267.691617 
L 148.62743 267.605975 
L 148.738488 267.349051 
L 148.812527 267.26341 
L 148.923585 267.092127 
L 148.960605 267.092127 
L 148.960605 267.006485 
L 149.071663 266.792382 
L 149.182721 266.749561 
L 149.182721 266.70674 
L 149.29378 266.449816 
L 149.330799 266.449816 
L 149.330799 266.364174 
L 149.404838 266.064429 
L 149.478877 266.064429 
L 149.478877 265.978788 
L 149.589935 265.636222 
L 149.738013 265.55058 
L 149.849071 265.293656 
L 149.96013 265.250835 
L 149.96013 265.208015 
L 150.071188 264.993911 
L 150.182246 264.908269 
L 150.293304 264.651345 
L 150.330324 264.651345 
L 150.330324 264.565704 
L 150.404363 264.437241 
L 150.552441 264.3516 
L 150.663499 264.009034 
L 150.811577 263.923393 
L 150.848596 263.709289 
L 150.996674 263.623648 
L 151.107732 263.281082 
L 151.21879 263.19544 
L 151.329849 262.852874 
L 151.477926 262.767233 
L 151.551965 262.467488 
L 151.774082 262.424667 
L 151.774082 262.381846 
L 151.88514 262.124922 
L 151.959179 262.082101 
L 151.959179 262.03928 
L 152.070237 261.739535 
L 152.144276 261.653894 
L 152.255335 261.525432 
L 152.514471 261.43979 
L 152.625529 261.268507 
L 152.699568 261.182866 
L 152.810626 261.054404 
L 153.032743 260.968762 
L 153.032743 260.883121 
L 153.291879 260.8403 
L 153.291879 260.797479 
L 153.365918 260.583376 
L 153.513996 260.583376 
L 153.513996 260.497734 
L 153.625054 260.112348 
L 153.773132 260.026706 
L 153.88419 259.68414 
L 153.995248 259.598499 
L 154.069287 259.341574 
L 154.217365 259.341574 
L 154.217365 259.255933 
L 154.328423 258.999009 
L 154.439481 258.913367 
L 154.55054 258.613622 
L 154.587559 258.613622 
L 154.587559 258.527981 
L 154.698618 258.228235 
L 154.809676 258.142594 
L 154.883715 257.971311 
L 155.105831 257.92849 
L 155.105831 257.88567 
L 155.21689 257.757207 
L 155.364967 257.671566 
L 155.476026 257.543104 
L 155.661123 257.457462 
L 155.772181 257.371821 
L 155.88324 257.329 
L 155.88324 257.286179 
L 155.88324 257.243359 
L 156.068337 257.157717 
L 156.179395 257.029255 
L 156.290453 256.986434 
L 156.290453 256.943614 
L 156.364492 256.815151 
L 156.586609 256.72951 
L 156.586609 256.686689 
L 156.808725 256.601048 
L 156.919784 256.472585 
L 157.067862 256.429765 
L 157.067862 256.386944 
L 157.17892 256.13002 
L 157.252959 256.044378 
L 157.364017 255.830275 
L 157.438056 255.744633 
L 157.438056 255.616171 
L 157.660173 255.530529 
L 157.771231 255.359246 
L 157.882289 255.316426 
L 157.882289 255.273605 
L 157.993348 255.102322 
L 158.067386 255.059501 
L 158.067386 255.016681 
L 158.141425 254.802577 
L 158.252484 254.716936 
L 158.363542 254.502832 
L 158.51162 254.41719 
L 158.622678 254.245907 
L 158.807775 254.160266 
L 158.918833 253.946162 
L 159.029892 253.860521 
L 159.14095 253.646417 
L 159.252008 253.560776 
L 159.363067 253.432314 
L 159.474125 253.346672 
L 159.585183 253.132569 
L 159.659222 253.089748 
L 159.659222 253.046927 
L 159.733261 252.918465 
L 159.881339 252.832823 
L 159.955378 252.61872 
L 160.103455 252.575899 
L 160.103455 252.533078 
L 160.214514 252.447437 
L 160.43663 252.361795 
L 160.547689 252.233333 
L 160.732786 252.147692 
L 160.806825 251.976409 
L 160.954903 251.890767 
L 161.065961 251.676664 
L 161.214039 251.591022 
L 161.325097 251.419739 
L 161.510194 251.334098 
L 161.621252 251.205636 
L 161.843369 251.119994 
L 161.917408 250.991532 
L 162.065486 250.905891 
L 162.139525 250.820249 
L 162.287602 250.734608 
L 162.398661 250.563325 
L 162.546738 250.477683 
L 162.657797 250.092297 
L 162.768855 250.006655 
L 162.879913 249.878193 
L 162.990972 249.792552 
L 162.990972 249.749731 
L 163.324147 249.664089 
L 163.324147 249.578448 
L 163.509244 249.535627 
L 163.509244 249.492806 
L 163.620302 249.235882 
L 163.76838 249.150241 
L 163.76838 249.064599 
L 163.953477 248.978958 
L 164.064535 248.764854 
L 164.138574 248.722033 
L 164.138574 248.679213 
L 164.249632 248.379467 
L 164.43473 248.293826 
L 164.471749 248.122543 
L 164.804924 248.036902 
L 164.804924 247.994081 
L 165.138099 247.908439 
L 165.212138 247.822798 
L 165.397235 247.737156 
L 165.471274 247.651515 
L 165.619352 247.565874 
L 165.73041 247.308949 
L 165.915507 247.308949 
L 165.915507 247.223308 
L 165.989546 247.094845 
L 166.174643 247.009204 
L 166.211663 246.923563 
L 166.507818 246.837921 
L 166.618876 246.709459 
L 166.692915 246.623817 
L 166.766954 246.495355 
L 166.989071 246.409714 
L 167.06311 246.324072 
L 167.359265 246.281252 
L 167.359265 246.238431 
L 167.470324 246.067148 
L 167.72946 246.024327 
L 167.72946 245.981506 
L 167.840518 245.810224 
L 168.210712 245.724582 
L 168.321771 245.553299 
L 168.432829 245.467658 
L 168.506868 245.382016 
L 168.728984 245.339196 
L 168.728984 245.296375 
L 168.803023 245.167913 
L 168.98812 245.082271 
L 169.099179 244.953809 
L 169.210237 244.868167 
L 169.321295 244.782526 
L 169.69149 244.696885 
L 169.69149 244.654064 
L 169.839568 244.654064 
L 169.839568 244.568422 
L 169.950626 244.268677 
L 170.098704 244.225857 
L 170.098704 244.183036 
L 170.172743 244.097394 
L 170.35784 244.054574 
L 170.35784 244.011753 
L 170.35784 243.968932 
L 170.542937 243.926111 
L 170.542937 243.883291 
L 170.653995 243.669187 
L 170.876112 243.583546 
L 170.913131 243.412263 
L 171.098228 243.326621 
L 171.209287 243.155338 
L 171.283326 243.155338 
L 171.283326 243.069697 
L 171.283326 243.026876 
L 171.505442 242.984055 
L 171.505442 242.941235 
L 171.616501 242.812772 
L 171.801598 242.727131 
L 171.801598 242.68431 
L 172.097753 242.598669 
L 172.208812 242.513027 
L 172.393909 242.427386 
L 172.430928 242.298924 
L 172.690064 242.298924 
L 172.690064 242.213282 
L 172.801123 242.041999 
L 172.875161 242.041999 
L 172.875161 241.956358 
L 172.9492 241.742254 
L 173.282375 241.656613 
L 173.393434 241.442509 
L 173.61555 241.356868 
L 173.726609 241.185585 
L 174.133822 241.099943 
L 174.170842 241.014302 
L 174.31892 240.971481 
L 174.31892 240.92866 
L 174.392958 240.843019 
L 174.578056 240.800198 
L 174.578056 240.757377 
L 174.689114 240.586094 
L 175.022289 240.500453 
L 175.022289 240.457632 
L 175.355464 240.371991 
L 175.466522 240.286349 
L 175.6146 240.243529 
L 175.6146 240.200708 
L 175.688639 240.072246 
L 175.873736 239.986604 
L 175.984794 239.72968 
L 176.429027 239.644038 
L 176.540086 239.472755 
L 176.762202 239.387114 
L 176.799222 239.301472 
L 177.021338 239.215831 
L 177.095377 239.13019 
L 177.354513 239.044548 
L 177.391533 238.958907 
L 177.761727 238.873265 
L 177.872786 238.659162 
L 178.168941 238.616341 
L 178.168941 238.57352 
L 178.279999 238.487879 
L 178.391058 238.487879 
L 178.391058 238.402237 
L 178.428077 238.316596 
L 178.576155 238.230954 
L 178.687213 238.059671 
L 179.020388 237.97403 
L 179.131446 237.845568 
L 179.464621 237.759926 
L 179.464621 237.674285 
L 179.760777 237.631464 
L 179.760777 237.588643 
L 179.871835 237.460181 
L 180.167991 237.37454 
L 180.167991 237.331719 
L 180.501166 237.246077 
L 180.612224 237.117615 
L 180.760302 237.117615 
L 180.760302 237.031974 
L 180.87136 236.732229 
L 180.908379 236.732229 
L 180.908379 236.646587 
L 181.019438 236.389663 
L 181.241554 236.304021 
L 181.352613 236.047097 
L 181.389632 236.047097 
L 181.389632 235.961456 
L 181.50069 235.832993 
L 181.574729 235.747352 
L 181.685788 235.576069 
L 181.870885 235.490427 
L 181.981943 235.319145 
L 182.16704 235.233503 
L 182.278099 235.06222 
L 182.389157 234.976579 
L 182.500215 234.890937 
L 182.648293 234.848117 
L 182.648293 234.805296 
L 182.685312 234.676834 
L 182.944449 234.591192 
L 183.018487 234.46273 
L 183.240604 234.377088 
L 183.314643 234.205806 
L 183.573779 234.120164 
L 183.684837 233.820419 
L 183.906954 233.734778 
L 184.018012 233.649136 
L 184.129071 233.563495 
L 184.240129 233.435032 
L 184.314168 233.435032 
L 184.314168 233.349391 
L 184.351187 233.263749 
L 184.499265 233.263749 
L 184.499265 233.178108 
L 184.610323 233.006825 
L 184.684362 232.921184 
L 184.758401 232.749901 
L 185.017537 232.70708 
L 185.017537 232.664259 
L 185.128595 232.407335 
L 185.387731 232.321693 
L 185.49879 232.15041 
L 185.831965 232.064769 
L 185.943023 231.722203 
L 186.16514 231.636562 
L 186.239178 231.55092 
L 186.387256 231.465279 
L 186.498315 231.379637 
L 186.535334 231.379637 
L 186.535334 231.293996 
L 186.609373 231.122713 
L 186.942548 231.079892 
L 186.942548 231.037071 
L 187.053606 230.608864 
L 187.164664 230.523223 
L 187.164664 230.437581 
L 187.312742 230.437581 
L 187.312742 230.35194 
L 187.4238 229.923732 
L 187.534859 229.880912 
L 187.534859 229.838091 
L 187.608898 229.666808 
L 187.793995 229.666808 
L 187.793995 229.581167 
L 187.905053 229.409884 
L 188.053131 229.324242 
L 188.164189 229.110139 
L 188.275248 229.024497 
L 188.312267 228.938856 
L 188.423325 228.938856 
L 188.423325 228.853214 
L 188.534384 228.681931 
L 188.719481 228.59629 
L 188.830539 228.339365 
L 188.904578 228.253724 
L 189.015636 228.125262 
L 189.089675 228.082441 
L 189.089675 228.03962 
L 189.163714 227.697054 
L 189.274772 227.611413 
L 189.385831 227.482951 
L 189.45987 227.44013 
L 189.45987 227.397309 
L 189.570928 227.226026 
L 189.681986 227.140385 
L 189.719006 226.969102 
L 189.978142 226.883461 
L 190.052181 226.669357 
L 190.126219 226.669357 
L 190.126219 226.583715 
L 190.126219 226.540895 
L 190.385355 226.455253 
L 190.422375 226.326791 
L 190.607472 226.24115 
L 190.644492 226.155508 
L 190.829589 226.069867 
L 190.940647 225.855763 
L 190.977666 225.855763 
L 190.977666 225.770122 
L 191.088725 225.384735 
L 191.162764 225.341914 
L 191.162764 225.299094 
L 191.273822 225.170631 
L 191.347861 225.08499 
L 191.4219 224.956528 
L 191.532958 224.913707 
L 191.532958 224.870886 
L 191.606997 224.742424 
L 191.866133 224.656783 
L 191.940172 224.4855 
L 192.08825 224.399858 
L 192.199308 224.014472 
L 192.421425 223.92883 
L 192.532483 223.714727 
L 192.625031 223.629085 
L 192.71758 223.372161 
L 192.828638 223.32934 
L 192.828638 223.286519 
L 192.902677 223.072416 
L 193.050755 223.029595 
L 193.050755 222.986774 
L 193.161813 222.77267 
L 193.198833 222.77267 
L 193.198833 222.687029 
L 193.309891 222.515746 
L 193.420949 222.430105 
L 193.457969 222.301642 
L 193.606047 222.216001 
L 193.680085 222.044718 
L 193.754124 222.044718 
L 193.754124 221.959077 
L 193.865183 221.787794 
L 193.939222 221.744973 
L 193.939222 221.702152 
L 194.01326 221.57369 
L 194.124319 221.530869 
L 194.124319 221.488049 
L 194.235377 221.145483 
L 194.346435 221.102662 
L 194.346435 221.059841 
L 194.420474 220.845738 
L 194.531533 220.802917 
L 194.531533 220.760096 
L 194.642591 220.37471 
L 194.790669 220.289068 
L 194.864707 220.160606 
L 195.049805 220.074964 
L 195.123844 219.903681 
L 195.197882 219.903681 
L 195.197882 219.81804 
L 195.271921 219.475474 
L 195.34596 219.475474 
L 195.34596 219.389833 
L 195.457018 219.004446 
L 195.494038 219.004446 
L 195.494038 218.918805 
L 195.568077 218.66188 
L 195.679135 218.61906 
L 195.679135 218.576239 
L 195.790193 218.362135 
L 195.938271 218.276494 
L 195.975291 218.190852 
L 196.086349 218.190852 
L 196.086349 218.105211 
L 196.197407 217.762645 
L 196.308466 217.677004 
L 196.382504 217.377258 
L 196.493563 217.291617 
L 196.604621 216.86341 
L 196.64164 216.86341 
L 196.64164 216.777768 
L 196.715679 216.520844 
L 196.826738 216.435202 
L 196.937796 216.135457 
L 197.011835 216.092636 
L 197.011835 216.049816 
L 197.085874 215.750071 
L 197.196932 215.664429 
L 197.30799 215.535967 
L 197.382029 215.450326 
L 197.493088 215.193401 
L 197.567126 215.15058 
L 197.567126 215.10776 
L 197.678185 214.508269 
L 197.752224 214.508269 
L 197.752224 214.422628 
L 197.826262 214.336987 
L 197.97434 214.251345 
L 198.085399 213.908779 
L 198.159437 213.865958 
L 198.159437 213.823138 
L 198.270496 213.566213 
L 198.344535 213.480572 
L 198.455593 212.923902 
L 198.492612 212.923902 
L 198.492612 212.838261 
L 198.603671 212.666978 
L 198.67771 212.581337 
L 198.788768 212.19595 
L 198.899826 212.110309 
L 198.973865 211.682101 
L 199.084923 211.63928 
L 199.084923 211.59646 
L 199.195982 211.168252 
L 199.344059 211.125432 
L 199.344059 211.082611 
L 199.455118 210.525941 
L 199.603195 210.4403 
L 199.714254 209.969272 
L 199.862332 209.926451 
L 199.862332 209.883631 
L 199.97339 209.498244 
L 200.084448 209.455423 
L 200.084448 209.412602 
L 200.195506 208.941574 
L 200.232526 208.941574 
L 200.232526 208.855933 
L 200.343584 208.384905 
L 200.417623 208.299263 
L 200.528681 207.785415 
L 200.565701 207.785415 
L 200.565701 207.699773 
L 200.676759 207.357207 
L 200.713779 207.357207 
L 200.713779 207.271566 
L 200.824837 206.757717 
L 200.898876 206.672076 
L 200.935895 206.415151 
L 201.083973 206.372331 
L 201.083973 206.32951 
L 201.195031 206.115406 
L 201.26907 206.072585 
L 201.26907 206.029765 
L 201.380128 205.515916 
L 201.417148 205.515916 
L 201.417148 205.430275 
L 201.528206 205.002067 
L 201.565226 205.002067 
L 201.565226 204.916426 
L 201.676284 204.488218 
L 201.787342 204.402577 
L 201.898401 204.102832 
L 201.972439 204.01719 
L 202.083498 203.374879 
L 202.120517 203.374879 
L 202.120517 203.289238 
L 202.231576 203.032314 
L 202.268595 203.032314 
L 202.268595 202.946672 
L 202.379653 202.475644 
L 202.416673 202.475644 
L 202.416673 202.390003 
L 202.527731 202.004616 
L 202.60177 201.961795 
L 202.60177 201.918975 
L 202.712828 201.490767 
L 202.749848 201.490767 
L 202.749848 201.405126 
L 202.860906 201.06256 
L 202.897925 201.06256 
L 202.897925 200.976919 
L 203.008984 200.291787 
L 203.046003 200.291787 
L 203.046003 200.206145 
L 203.157061 199.777938 
L 203.194081 199.777938 
L 203.194081 199.692297 
L 203.305139 199.007165 
L 203.379178 198.964344 
L 203.379178 198.921523 
L 203.490236 198.664599 
L 203.564275 198.621778 
L 203.564275 198.578958 
L 203.675334 198.10793 
L 203.712353 198.10793 
L 203.712353 198.022288 
L 203.823411 197.294336 
L 203.860431 197.294336 
L 203.860431 197.208694 
L 203.971489 196.3951 
L 204.082547 196.309459 
L 204.193606 195.79561 
L 204.267645 195.709969 
L 204.378703 194.767913 
L 204.415722 194.767913 
L 204.415722 194.682271 
L 204.526781 194.296885 
L 204.5638 194.296885 
L 204.5638 194.211243 
L 204.674858 193.568932 
L 204.711878 193.568932 
L 204.711878 193.483291 
L 204.822936 192.669697 
L 204.859956 192.669697 
L 204.859956 192.584055 
L 204.971014 191.941744 
L 205.008033 191.941744 
L 205.008033 191.856103 
L 205.119092 191.042509 
L 205.156111 191.042509 
L 205.156111 190.956868 
L 205.267169 190.357377 
L 205.341208 190.271736 
L 205.452267 189.415321 
L 205.489286 189.415321 
L 205.489286 189.32968 
L 205.600344 188.687369 
L 205.637364 188.687369 
L 205.637364 188.601727 
L 205.748422 187.830954 
L 205.785442 187.830954 
L 205.785442 187.745313 
L 205.8965 186.717615 
L 205.933519 186.717615 
L 205.933519 186.631974 
L 206.044578 185.946842 
L 206.081597 185.946842 
L 206.081597 185.861201 
L 206.192655 184.961965 
L 206.229675 184.961965 
L 206.229675 184.876324 
L 206.340733 183.891447 
L 206.377753 183.891447 
L 206.377753 183.805806 
L 206.488811 182.949391 
L 206.52583 182.949391 
L 206.52583 182.863749 
L 206.636889 181.921693 
L 206.710928 181.836052 
L 206.821986 181.279382 
L 206.859005 181.279382 
L 206.859005 181.193741 
L 206.970064 180.166043 
L 207.007083 180.166043 
L 207.007083 180.080402 
L 207.118141 179.523732 
L 207.155161 179.523732 
L 207.155161 179.438091 
L 207.266219 178.752959 
L 207.303239 178.752959 
L 207.303239 178.667318 
L 207.414297 177.896545 
L 207.451316 177.896545 
L 207.451316 177.810903 
L 207.562375 177.211413 
L 207.599394 177.211413 
L 207.599394 177.125772 
L 207.710452 176.269357 
L 207.747472 176.269357 
L 207.747472 176.183715 
L 207.85853 174.984735 
L 207.89555 174.984735 
L 207.89555 174.899094 
L 208.006608 173.871396 
L 208.043627 173.871396 
L 208.043627 173.785755 
L 208.154686 173.229085 
L 208.191705 173.229085 
L 208.191705 173.143444 
L 208.302763 172.32985 
L 208.339783 172.32985 
L 208.339783 172.244208 
L 208.450841 171.387794 
L 208.487861 171.387794 
L 208.487861 171.302152 
L 208.598919 170.317275 
L 208.672958 170.231634 
L 208.784016 169.546502 
L 208.821035 169.546502 
L 208.821035 169.460861 
L 208.932094 168.561625 
L 208.969113 168.561625 
L 208.969113 168.475984 
L 209.080172 167.405466 
L 209.117191 167.405466 
L 209.117191 167.319824 
L 209.228249 166.46341 
L 209.265269 166.46341 
L 209.265269 166.377768 
L 209.376327 165.435712 
L 209.413346 165.435712 
L 209.413346 165.350071 
L 209.524405 164.022628 
L 209.561424 164.022628 
L 209.561424 163.936987 
L 209.672483 162.738006 
L 209.709502 162.738006 
L 209.709502 162.652365 
L 209.82056 161.967233 
L 209.85758 161.967233 
L 209.85758 161.881591 
L 209.968638 160.682611 
L 210.005657 160.682611 
L 210.005657 160.59697 
L 210.116716 160.168762 
L 210.153735 160.168762 
L 210.153735 160.083121 
L 210.264794 159.183885 
L 210.301813 159.183885 
L 210.301813 159.098244 
L 210.412871 157.984905 
L 210.449891 157.984905 
L 210.449891 157.899263 
L 210.560949 156.871566 
L 210.597968 156.871566 
L 210.597968 156.785924 
L 210.709027 155.92951 
L 210.746046 155.92951 
L 210.746046 155.843868 
L 210.857105 155.115916 
L 210.894124 155.115916 
L 210.894124 155.030275 
L 211.005182 154.216681 
L 211.042202 154.216681 
L 211.042202 154.131039 
L 211.15326 153.317445 
L 211.227299 153.231804 
L 211.338357 152.289748 
L 211.375377 152.289748 
L 211.375377 152.204106 
L 211.486435 151.561795 
L 211.523454 151.561795 
L 211.523454 151.476154 
L 211.634513 149.977428 
L 211.671532 149.977428 
L 211.671532 149.891787 
L 211.78259 148.478703 
L 211.81961 148.478703 
L 211.81961 148.393061 
L 211.930668 147.408184 
L 211.967688 147.408184 
L 211.967688 147.322543 
L 212.078746 146.166383 
L 212.115765 146.166383 
L 212.115765 146.080742 
L 212.226824 144.79612 
L 212.263843 144.79612 
L 212.263843 144.710478 
L 212.374901 143.511498 
L 212.411921 143.511498 
L 212.411921 143.425857 
L 212.522979 142.098414 
L 212.559999 142.098414 
L 212.559999 142.012772 
L 212.671057 141.027896 
L 212.708076 141.027896 
L 212.708076 140.942254 
L 212.819135 139.828915 
L 212.856154 139.828915 
L 212.856154 139.743274 
L 212.967212 139.229425 
L 213.004232 139.229425 
L 213.004232 139.143783 
L 213.11529 138.158907 
L 213.15231 138.158907 
L 213.15231 138.073265 
L 213.263368 136.531719 
L 213.300387 136.531719 
L 213.300387 136.446077 
L 213.411446 135.589663 
L 213.448465 135.589663 
L 213.448465 135.504021 
L 213.559523 133.876834 
L 213.633562 133.791192 
L 213.744621 132.635032 
L 213.78164 132.635032 
L 213.78164 132.549391 
L 213.892698 131.607335 
L 213.929718 131.607335 
L 213.929718 131.521693 
L 214.040776 130.536817 
L 214.077796 130.536817 
L 214.077796 130.451175 
L 214.188854 128.99527 
L 214.225873 128.99527 
L 214.225873 128.909629 
L 214.336932 127.667828 
L 214.373951 127.667828 
L 214.373951 127.582186 
L 214.485009 126.297564 
L 214.522029 126.297564 
L 214.522029 126.211923 
L 214.633087 125.012942 
L 214.670107 125.012942 
L 214.670107 124.927301 
L 214.781165 123.942424 
L 214.818184 123.942424 
L 214.818184 123.856783 
L 214.929243 122.829085 
L 214.966262 122.829085 
L 214.966262 122.743444 
L 215.07732 121.458822 
L 215.11434 121.458822 
L 215.11434 121.37318 
L 215.225398 120.602407 
L 215.262418 120.602407 
L 215.262418 120.516766 
L 215.373476 119.57471 
L 215.447515 119.489068 
L 215.558573 117.990343 
L 215.595593 117.990343 
L 215.595593 117.904701 
L 215.706651 117.133928 
L 215.74367 117.133928 
L 215.74367 117.048286 
L 215.854729 115.892127 
L 215.891748 115.892127 
L 215.891748 115.806485 
L 216.002806 114.90725 
L 216.076845 114.90725 
L 216.076845 114.821608 
L 216.187904 113.108779 
L 216.224923 113.108779 
L 216.224923 113.023138 
L 216.335981 111.610054 
L 216.373001 111.610054 
L 216.373001 111.524412 
L 216.484059 110.582356 
L 216.521078 110.582356 
L 216.521078 110.496715 
L 216.632137 109.383376 
L 216.669156 109.383376 
L 216.669156 109.297734 
L 216.780215 108.398499 
L 216.817234 108.398499 
L 216.817234 108.312857 
L 216.928292 107.156698 
L 216.965312 107.156698 
L 216.965312 107.071056 
L 217.07637 106.214642 
L 217.113389 106.214642 
L 217.113389 106.129 
L 217.224448 105.315406 
L 217.261467 105.315406 
L 217.261467 105.229765 
L 217.372526 104.416171 
L 217.409545 104.416171 
L 217.409545 104.330529 
L 217.520603 103.474115 
L 217.557623 103.474115 
L 217.557623 103.388473 
L 217.668681 102.317955 
L 217.705701 102.317955 
L 217.705701 102.232314 
L 217.816759 101.290258 
L 217.853778 101.290258 
L 217.853778 101.204616 
L 217.964837 100.519484 
L 218.001856 100.519484 
L 218.001856 100.433843 
L 218.112914 99.149221 
L 218.186953 99.06358 
L 218.298012 98.121523 
L 218.335031 98.121523 
L 218.335031 98.035882 
L 218.446089 97.393571 
L 218.520128 97.35075 
L 218.520128 97.30793 
L 218.631186 95.723563 
L 218.668206 95.723563 
L 218.668206 95.637921 
L 218.779264 94.310478 
L 218.853303 94.267658 
L 218.853303 94.224837 
L 218.964361 93.710988 
L 219.001381 93.710988 
L 219.001381 93.625347 
L 219.112439 92.768932 
L 219.149459 92.768932 
L 219.149459 92.683291 
L 219.260517 91.826876 
L 219.297536 91.826876 
L 219.297536 91.741235 
L 219.408595 90.713537 
L 219.482634 90.627896 
L 219.593692 89.814302 
L 219.630711 89.814302 
L 219.630711 89.72866 
L 219.74177 88.401218 
L 219.778789 88.401218 
L 219.778789 88.315576 
L 219.889847 87.330699 
L 219.926867 87.330699 
L 219.926867 87.245058 
L 220.037925 86.474285 
L 220.074945 86.474285 
L 220.074945 86.388643 
L 220.186003 85.831974 
L 220.223022 85.831974 
L 220.223022 85.746332 
L 220.334081 84.932738 
L 220.3711 84.932738 
L 220.3711 84.847097 
L 220.482158 83.391192 
L 220.519178 83.391192 
L 220.519178 83.305551 
L 220.630236 82.66324 
L 220.667256 82.66324 
L 220.667256 82.577598 
L 220.778314 81.935287 
L 220.815333 81.935287 
L 220.815333 81.849646 
L 220.926392 80.90759 
L 221.00043 80.821948 
L 221.111489 80.265279 
L 221.148508 80.265279 
L 221.148508 80.179637 
L 221.259567 79.366043 
L 221.296586 79.366043 
L 221.296586 79.280402 
L 221.407644 78.723732 
L 221.444664 78.723732 
L 221.444664 78.638091 
L 221.555722 77.952959 
L 221.592741 77.952959 
L 221.592741 77.867318 
L 221.7038 77.053724 
L 221.740819 77.053724 
L 221.740819 76.968083 
L 221.851878 76.197309 
L 221.888897 76.197309 
L 221.888897 76.111668 
L 221.999955 75.255253 
L 222.073994 75.255253 
L 222.073994 75.169612 
L 222.185052 74.313197 
L 222.222072 74.313197 
L 222.222072 74.227556 
L 222.33313 72.985755 
L 222.407169 72.942934 
L 222.407169 72.900113 
L 222.518227 72.214981 
L 222.555247 72.214981 
L 222.555247 72.12934 
L 222.666305 70.97318 
L 222.703325 70.97318 
L 222.703325 70.887539 
L 222.814383 69.731379 
L 222.851402 69.731379 
L 222.851402 69.645738 
L 222.962461 68.960606 
L 222.99948 68.960606 
L 222.99948 68.874964 
L 223.110538 67.890088 
L 223.184577 67.847267 
L 223.184577 67.804446 
L 223.295636 67.033673 
L 223.332655 67.033673 
L 223.332655 66.948032 
L 223.443713 66.434183 
L 223.480733 66.434183 
L 223.480733 66.348541 
L 223.591791 65.492127 
L 223.66583 65.406485 
L 223.776888 64.764174 
L 223.850927 64.678533 
L 223.961985 64.079043 
L 223.999005 64.079043 
L 223.999005 63.993401 
L 224.110063 63.479552 
L 224.221122 63.393911 
L 224.33218 62.580317 
L 224.369199 62.580317 
L 224.369199 62.494676 
L 224.480258 61.938006 
L 224.591316 61.852365 
L 224.702374 61.466978 
L 224.776413 61.381337 
L 224.887471 60.910309 
L 224.924491 60.910309 
L 224.924491 60.824667 
L 225.035549 60.139535 
L 225.072569 60.139535 
L 225.072569 60.053894 
L 225.183627 59.497224 
L 225.257666 59.411583 
L 225.368724 58.812093 
L 225.442763 58.726451 
L 225.553821 58.212602 
L 225.62786 58.126961 
L 225.738918 57.613112 
L 225.775938 57.613112 
L 225.775938 57.527471 
L 225.886996 57.313367 
L 225.998055 57.227726 
L 226.109113 56.756698 
L 226.183152 56.713877 
L 226.183152 56.671056 
L 226.29421 55.900283 
L 226.368249 55.814642 
L 226.479307 55.343614 
L 226.516327 55.343614 
L 226.516327 55.257972 
L 226.590366 54.958227 
L 226.701424 54.958227 
L 226.701424 54.872585 
L 226.775463 54.53002 
L 226.849502 54.53002 
L 226.849502 54.444378 
L 226.96056 54.230275 
L 226.997579 54.230275 
L 226.997579 54.144633 
L 227.108638 53.759246 
L 227.145657 53.759246 
L 227.145657 53.673605 
L 227.256715 53.245398 
L 227.330754 53.159756 
L 227.441813 52.81719 
L 227.515851 52.81719 
L 227.515851 52.731549 
L 227.62691 52.346162 
L 227.663929 52.346162 
L 227.663929 52.260521 
L 227.774988 51.789493 
L 227.812007 51.789493 
L 227.812007 51.703851 
L 227.923065 51.489748 
L 228.034124 51.404106 
L 228.145182 51.318465 
L 228.219221 51.275644 
L 228.219221 51.232823 
L 228.29326 50.890258 
L 228.404318 50.847437 
L 228.404318 50.804616 
L 228.515376 50.676154 
L 228.626435 50.633333 
L 228.626435 50.590512 
L 228.737493 50.076664 
L 228.811532 49.991022 
L 228.92259 49.734098 
L 228.996629 49.691277 
L 228.996629 49.648456 
L 229.107687 49.348711 
L 229.144707 49.348711 
L 229.144707 49.26307 
L 229.255765 49.134608 
L 229.292785 49.134608 
L 229.292785 49.048966 
L 229.329804 48.792042 
L 229.514901 48.749221 
L 229.514901 48.7064 
L 229.58894 48.492297 
L 229.699998 48.492297 
L 229.699998 48.406655 
L 229.811057 47.978448 
L 229.848076 47.978448 
L 229.848076 47.892806 
L 229.959134 47.50742 
L 229.996154 47.50742 
L 229.996154 47.421778 
L 230.107212 47.207675 
L 230.144232 47.207675 
L 230.144232 47.122033 
L 230.21827 46.865109 
L 230.292309 46.865109 
L 230.292309 46.779467 
L 230.366348 46.565364 
L 230.662504 46.479722 
L 230.773562 46.265619 
L 230.810581 46.265619 
L 230.810581 46.179977 
L 230.92164 45.880232 
L 230.995679 45.880232 
L 230.995679 45.794591 
L 231.106737 45.452025 
L 231.291834 45.366383 
L 231.402892 45.280742 
L 231.58799 45.237921 
L 231.58799 45.1951 
L 231.58799 45.15228 
L 231.810106 45.066638 
L 231.810106 44.980997 
L 232.365398 44.895355 
L 232.439437 44.766893 
L 232.550495 44.766893 
L 232.550495 44.681252 
L 232.624534 44.552789 
L 232.88367 44.467148 
L 232.957709 44.338686 
L 233.105787 44.338686 
L 233.105787 44.253044 
L 233.179825 44.038941 
L 233.290884 44.038941 
L 233.290884 43.953299 
L 233.290884 43.824837 
L 233.55002 43.739196 
L 233.55002 43.653554 
L 233.920214 43.567913 
L 234.031273 43.353809 
L 234.475506 43.310988 
L 234.475506 43.268167 
L 234.586564 43.096885 
L 234.734642 43.054064 
L 234.734642 43.011243 
L 234.8457 42.83996 
L 235.030797 42.754319 
L 235.104836 42.540215 
L 235.326953 42.454574 
L 235.400992 42.368932 
L 235.919264 42.283291 
L 235.956283 42.112008 
L 236.215419 42.026366 
L 236.326478 41.855083 
L 236.548594 41.769442 
L 236.622633 41.64098 
L 237.363022 41.555338 
L 237.363022 41.512518 
L 237.955333 41.469697 
L 237.955333 41.426876 
L 238.066391 41.298414 
L 238.362547 41.212772 
L 238.362547 41.169952 
L 238.547644 41.169952 
L 238.547644 41.08431 
L 238.584663 40.998669 
L 239.065916 40.913027 
L 239.176974 40.784565 
L 239.362072 40.741744 
L 239.362072 40.698924 
L 239.362072 40.656103 
L 240.10246 40.570461 
L 240.10246 40.527641 
L 240.509674 40.441999 
L 240.546694 40.313537 
L 241.176024 40.227896 
L 241.213043 40.142254 
L 241.620257 40.056613 
L 241.694296 39.970971 
L 242.027471 39.92815 
L 242.027471 39.88533 
L 242.138529 39.671226 
L 242.286607 39.585585 
L 242.286607 39.499943 
L 242.915938 39.414302 
L 242.989976 39.243019 
L 243.693346 39.157377 
L 243.693346 39.071736 
L 243.915462 39.028915 
L 243.915462 38.986094 
L 244.026521 38.857632 
L 244.952007 38.771991 
L 244.952007 38.72917 
L 245.655376 38.686349 
L 245.655376 38.643529 
L 245.655376 38.600708 
L 246.72894 38.515066 
L 246.72894 38.472246 
L 247.39529 38.386604 
L 247.432309 38.300963 
L 248.394814 38.215321 
L 248.431834 38.12968 
L 248.727989 38.086859 
L 248.727989 38.044038 
L 248.727989 38.001218 
L 249.616456 37.915576 
L 249.727514 37.829935 
L 250.356845 37.787114 
L 250.356845 37.744293 
L 250.356845 37.658652 
L 251.245311 37.57301 
L 251.245311 37.53019 
L 254.021769 37.444548 
L 254.021769 37.401727 
L 254.910235 37.316086 
L 254.910235 37.187624 
L 255.24341 37.101982 
L 255.26192 37.016341 
L 256.316974 36.930699 
L 256.428032 36.845058 
L 258.019868 36.759416 
L 258.019868 36.716596 
L 260.685268 36.630954 
L 260.685268 36.588133 
L 261.980948 36.502492 
L 261.980948 36.459671 
L 262.721337 36.37403 
L 262.721337 36.331209 
L 263.7949 36.245568 
L 263.7949 36.202747 
L 265.053561 36.117105 
L 265.053561 36.074285 
L 266.608378 35.988643 
L 266.608378 35.945823 
L 272.087254 35.860181 
L 272.087254 35.81736 
L 277.64017 35.731719 
L 277.64017 35.688898 
L 291.966693 35.603257 
L 291.966693 35.560436 
L 294.891228 35.474794 
L 294.891228 35.431974 
L 317.13991 35.346332 
L 317.13991 35.303512 
L 341.202545 35.21787 
L 341.313603 35.132229 
L 368.48587 35.046587 
L 368.48587 35.003766 
L 475.916278 34.918125 
L 475.916278 34.918125 
" clip-path="url(#p30e6e06586)" style="fill: none; stroke: #800080; stroke-linecap: round"/>
   </g>
   <g id="line2d_14">
    <path d="M 70.098097 286.884685 
L 70.098097 286.808424 
L 71.719548 286.732163 
L 71.812097 286.57964 
L 72.7709 286.503379 
L 72.7709 286.427118 
L 73.092969 286.350857 
L 73.092969 286.274596 
L 73.807444 286.198335 
L 73.807444 286.122074 
L 74.136917 286.045813 
L 74.136917 285.969552 
L 74.858796 285.893291 
L 74.858796 285.81703 
L 75.947168 285.740769 
L 75.947168 285.664508 
L 76.42842 285.588247 
L 76.42842 285.511985 
L 77.424243 285.435724 
L 77.453859 285.283202 
L 77.727803 285.206941 
L 77.727803 285.13068 
L 78.264585 285.054419 
L 78.264585 284.978158 
L 79.082714 284.901897 
L 79.119734 284.749375 
L 80.892965 284.673114 
L 80.892965 284.596853 
L 81.485276 284.520592 
L 81.555613 284.36807 
L 81.770325 284.291808 
L 81.770325 284.215547 
L 82.066481 284.139286 
L 82.066481 284.063025 
L 82.803168 283.986764 
L 82.803168 283.910503 
L 83.114131 283.834242 
L 83.114131 283.757981 
L 83.754567 283.68172 
L 83.847116 283.529198 
L 83.96928 283.452937 
L 83.96928 283.376676 
L 84.361686 283.300415 
L 84.454235 283.147892 
L 84.820727 283.071631 
L 84.820727 282.99537 
L 85.139094 282.919109 
L 85.172412 282.766587 
L 85.524096 282.690326 
L 85.524096 282.614065 
L 85.731405 282.537804 
L 85.742511 282.385282 
L 86.127513 282.309021 
L 86.171936 282.156499 
L 86.494006 282.080238 
L 86.542131 281.927715 
L 86.88271 281.851454 
L 86.88271 281.775193 
L 87.338049 281.698932 
L 87.352856 281.54641 
L 87.763772 281.470149 
L 87.852619 281.317627 
L 88.06363 281.241366 
L 88.06363 281.165105 
L 88.27464 281.088844 
L 88.27464 281.012583 
L 88.770701 280.936322 
L 88.86325 280.783799 
L 89.048347 280.707538 
L 89.048347 280.555016 
L 89.177915 280.478755 
L 89.177915 280.402494 
L 89.425945 280.326233 
L 89.425945 280.249972 
L 89.822053 280.173711 
L 89.822053 280.09745 
L 90.029362 280.021189 
L 90.033064 279.868667 
L 90.614269 279.792406 
L 90.614269 279.716145 
L 90.973358 279.639883 
L 91.043694 279.4111 
L 91.158455 279.334839 
L 91.158455 279.258578 
L 91.49163 279.182317 
L 91.584178 279.029795 
L 91.632303 278.953534 
L 91.632303 278.877273 
L 91.983988 278.801012 
L 92.072835 278.343445 
L 92.535578 278.267184 
L 92.617021 278.114662 
L 92.872455 278.038401 
L 92.983513 277.809618 
L 93.087167 277.733357 
L 93.198226 277.504574 
L 93.398131 277.428313 
L 93.398131 277.352052 
L 93.794239 277.27579 
L 93.823854 277.123268 
L 93.938614 277.047007 
L 93.979336 276.894485 
L 94.978861 276.818224 
L 94.978861 276.741963 
L 95.241699 276.665702 
L 95.289824 276.436919 
L 95.856221 276.360658 
L 95.856221 276.284397 
L 96.204204 276.208136 
L 96.204204 276.131874 
L 96.585504 276.055613 
L 96.585504 275.979352 
L 96.852044 275.903091 
L 96.940891 275.598047 
L 97.100074 275.521786 
L 97.100074 275.445525 
L 97.41474 275.369264 
L 97.41474 275.293003 
L 97.703491 275.216742 
L 97.703491 275.140481 
L 97.881185 275.06422 
L 97.977435 274.759175 
L 98.414264 274.682914 
L 98.503111 274.454131 
L 98.788161 274.37787 
L 98.817776 274.149087 
L 99.065807 274.072826 
L 99.065807 273.996565 
L 99.454511 273.920304 
L 99.561867 273.69152 
L 99.772878 273.615259 
L 99.828407 273.462737 
L 99.969081 273.386476 
L 100.0061 273.233954 
L 100.461439 273.157693 
L 100.561392 272.852649 
L 100.676152 272.776388 
L 100.705768 272.623865 
L 101.538705 272.547604 
L 101.597936 272.318821 
L 101.786735 272.24256 
L 101.786735 272.166299 
L 102.15693 272.090038 
L 102.197651 271.861255 
L 102.419768 271.784994 
L 102.438277 271.632472 
L 102.727029 271.556211 
L 102.764048 271.403688 
L 102.930636 271.327427 
L 102.930636 271.251166 
L 103.256407 271.174905 
L 103.33785 271.022383 
L 103.522947 270.946122 
L 103.522947 270.869861 
L 103.730256 270.7936 
L 103.796891 270.564817 
L 103.907949 270.488556 
L 103.907949 270.412295 
L 104.370692 270.336034 
L 104.389202 270.183511 
L 104.566895 270.10725 
L 104.666848 269.954728 
L 104.726079 269.878467 
L 104.726079 269.802206 
L 105.140696 269.725945 
L 105.140696 269.649684 
L 105.5294 269.573423 
L 105.629353 269.420901 
L 106.073586 269.34464 
L 106.155029 269.039595 
L 106.36604 268.963334 
L 106.46229 268.810812 
L 106.525223 268.810812 
L 106.525223 268.734551 
L 106.617772 268.505768 
L 106.850994 268.429507 
L 106.850994 268.353246 
L 107.113832 268.276985 
L 107.187871 268.124463 
L 107.595085 268.048202 
L 107.595085 267.97194 
L 107.739461 267.895679 
L 107.739461 267.819418 
L 107.950472 267.743157 
L 108.028212 267.590635 
L 108.179992 267.514374 
L 108.276243 267.20933 
L 108.372493 267.133069 
L 108.372493 267.056808 
L 108.750091 266.980547 
L 108.750091 266.904286 
L 109.064757 266.828024 
L 109.064757 266.751763 
L 109.438653 266.675502 
L 109.464567 266.52298 
L 110.090195 266.446719 
L 110.090195 266.370458 
L 110.253081 266.294197 
L 110.30861 266.065414 
L 110.493707 265.989153 
L 110.519621 265.836631 
L 110.878709 265.76037 
L 110.963854 265.531586 
L 111.060104 265.455325 
L 111.163759 265.226542 
L 111.50804 265.150281 
L 111.526549 264.997759 
L 111.989292 264.921498 
L 112.092947 264.768976 
L 112.218813 264.692715 
L 112.28915 264.463931 
L 112.614921 264.38767 
L 112.614921 264.311409 
L 112.862951 264.235148 
L 112.91848 264.006365 
L 113.281271 263.930104 
L 113.281271 263.853843 
L 113.618148 263.777582 
L 113.69959 263.62506 
L 113.83286 263.548799 
L 113.86988 263.396277 
L 114.077189 263.320015 
L 114.091996 263.167493 
L 115.272916 263.091232 
L 115.272916 263.014971 
L 115.572774 262.93871 
L 115.676428 262.481144 
L 115.817102 262.404883 
L 115.902247 262.1761 
L 116.131767 262.099838 
L 116.131767 262.023577 
L 116.335374 261.947316 
L 116.335374 261.871055 
L 116.61302 261.794794 
L 116.712973 261.413489 
L 116.883262 261.337228 
L 116.883262 261.260967 
L 117.068359 261.184706 
L 117.179417 261.032184 
L 117.449659 260.955922 
L 117.449659 260.879661 
L 117.83096 260.8034 
L 117.83096 260.727139 
L 118.330722 260.650878 
L 118.330722 260.574617 
L 118.700916 260.498356 
L 118.700916 260.422095 
L 118.930437 260.345834 
L 118.930437 260.269573 
L 119.078515 260.193312 
L 119.130342 260.04079 
L 119.400584 259.964529 
L 119.50794 259.812006 
L 119.711547 259.735745 
L 119.822605 259.506962 
L 119.885538 259.430701 
L 119.959577 259.278179 
L 120.603715 259.201918 
L 120.677754 259.049396 
L 120.873957 258.973135 
L 120.933188 258.744352 
L 121.129391 258.668091 
L 121.129391 258.591829 
L 121.466268 258.515568 
L 121.521797 258.363046 
L 121.810549 258.286785 
L 121.810549 258.210524 
L 122.080791 258.134263 
L 122.184445 257.90548 
L 122.258484 257.829219 
L 122.258484 257.752958 
L 122.458389 257.676697 
L 122.51762 257.524175 
L 122.932238 257.447913 
L 122.932238 257.371652 
L 123.291327 257.295391 
L 123.33575 257.142869 
L 123.546761 257.066608 
L 123.624502 256.914086 
L 124.368592 256.837825 
L 124.479651 256.685303 
L 124.590709 256.609042 
L 124.590709 256.532781 
L 124.809124 256.45652 
L 124.883162 256.151475 
L 125.234847 256.075214 
L 125.29778 255.77017 
L 125.41254 255.693909 
L 125.46807 255.541387 
L 125.797543 255.465126 
L 125.819754 255.312604 
L 126.267689 255.236343 
L 126.326921 255.08382 
L 126.845193 255.007559 
L 126.845193 254.931298 
L 127.222791 254.855037 
L 127.319041 254.702515 
L 127.65962 254.626254 
L 127.770679 254.473732 
L 127.929862 254.397471 
L 127.937266 254.244949 
L 128.181594 254.168688 
L 128.288951 253.939904 
L 128.696165 253.863643 
L 128.696165 253.711121 
L 128.873858 253.63486 
L 128.977512 253.406077 
L 129.10708 253.329816 
L 129.170013 253.177294 
L 129.529102 253.101033 
L 129.573525 252.87225 
L 129.880787 252.795988 
L 129.880787 252.719727 
L 130.02146 252.719727 
L 130.02146 252.643466 
L 130.114009 252.262161 
L 130.262087 252.1859 
L 130.350933 251.957117 
L 130.721128 251.880856 
L 130.721128 251.804595 
L 130.987668 251.728334 
L 130.987668 251.652073 
L 131.568873 251.575811 
L 131.598488 251.423289 
L 131.776182 251.347028 
L 131.802095 251.194506 
L 132.161184 251.118245 
L 132.161184 251.041984 
L 132.560994 250.965723 
L 132.586907 250.813201 
L 132.772005 250.73694 
L 132.853447 250.584418 
L 133.023737 250.508157 
L 133.116285 250.355634 
L 133.571624 250.279373 
L 133.645663 250.126851 
L 133.834462 250.05059 
L 133.834462 249.974329 
L 134.297205 249.898068 
L 134.297205 249.821807 
L 134.626678 249.745546 
L 134.730333 249.593024 
L 135.104229 249.516763 
L 135.104229 249.440502 
L 135.618799 249.364241 
L 135.618799 249.287979 
L 136.24813 249.211718 
L 136.251832 249.059196 
L 136.899672 248.982935 
L 136.899672 248.906674 
L 138.062082 248.830413 
L 138.0954 248.677891 
L 138.402661 248.60163 
L 138.4767 248.296586 
L 138.795067 248.220325 
L 138.795067 248.144064 
L 139.024588 248.067802 
L 139.024588 247.991541 
L 139.29483 247.91528 
L 139.29483 247.839019 
L 139.690938 247.762758 
L 139.727957 247.610236 
L 140.146277 247.533975 
L 140.257335 247.381453 
L 140.409115 247.305192 
L 140.409115 247.228931 
L 140.631231 247.15267 
L 140.653443 247.000148 
L 141.338302 246.923886 
L 141.345706 246.771364 
L 141.515996 246.695103 
L 141.615948 246.390059 
L 141.708497 246.313798 
L 141.812151 246.085015 
L 141.982441 246.008754 
L 141.982441 245.932493 
L 142.300808 245.856232 
L 142.348933 245.627448 
L 142.556242 245.551187 
L 142.57105 245.398665 
L 142.889417 245.322404 
L 142.904225 245.169882 
L 143.252207 245.093621 
L 143.252207 245.01736 
L 143.800095 244.941099 
L 143.911153 244.636055 
L 144.081443 244.559793 
L 144.081443 244.483532 
L 144.466445 244.407271 
L 144.466445 244.33101 
L 144.903274 244.254749 
L 144.988419 244.102227 
L 145.236449 244.025966 
L 145.269767 243.797183 
L 145.706596 243.720922 
L 145.791741 243.492139 
L 145.84727 243.415877 
L 145.850972 243.263355 
L 146.487706 243.187094 
L 146.487706 243.110833 
L 147.350259 243.034572 
L 147.376173 242.88205 
L 147.824108 242.805789 
L 147.824108 242.729528 
L 148.668151 242.653267 
L 148.756998 242.500745 
L 148.831037 242.424484 
L 148.831037 242.348223 
L 149.575127 242.271961 
L 149.575127 242.1957 
L 150.334026 242.119439 
L 150.389555 241.890656 
L 150.452488 241.814395 
L 150.452488 241.738134 
L 150.81898 241.661873 
L 150.878212 241.509351 
L 151.677831 241.43309 
L 151.677831 241.356829 
L 151.90365 241.280568 
L 151.977689 241.128046 
L 152.03692 241.051784 
L 152.03692 240.975523 
L 152.251633 240.899262 
L 152.310864 240.74674 
L 152.70327 240.670479 
L 152.710674 240.517957 
L 152.917983 240.441696 
L 152.917983 240.365435 
L 153.654669 240.289174 
L 153.654669 240.212913 
L 154.465395 240.136652 
L 154.465395 240.060391 
L 154.787464 239.98413 
L 154.868907 239.755346 
L 155.231697 239.679085 
L 155.268717 239.526563 
L 155.44641 239.450302 
L 155.44641 239.374041 
L 155.757373 239.29778 
L 155.757373 239.221519 
L 156.801322 239.145258 
L 156.801322 239.068997 
L 157.04565 238.992736 
L 157.138198 238.840214 
L 157.730509 238.763952 
L 157.834164 238.458908 
L 157.919309 238.382647 
L 157.97854 238.230125 
L 158.437581 238.153864 
L 158.437581 238.077603 
L 158.693015 238.001342 
L 158.693015 237.925081 
L 159.218691 237.84882 
L 159.300134 237.696298 
L 159.748069 237.620036 
L 159.859127 237.391253 
L 159.90355 237.314992 
L 159.90355 237.238731 
L 160.377399 237.16247 
L 160.488458 237.009948 
L 160.614324 236.933687 
L 160.70317 236.628643 
L 160.862354 236.552382 
L 160.895671 236.399859 
L 161.262164 236.323598 
L 161.288077 236.171076 
L 161.536108 236.094815 
L 161.573127 235.866032 
L 161.943322 235.789771 
L 162.05438 235.484727 
L 162.439382 235.408466 
L 162.520825 235.255943 
L 162.635585 235.179682 
L 162.635585 235.103421 
L 162.924337 235.02716 
L 162.972462 234.874638 
L 163.10203 234.798377 
L 163.10203 234.722116 
L 163.390782 234.645855 
L 163.390782 234.569594 
L 164.075641 234.493333 
L 164.094151 234.340811 
L 164.375499 234.26455 
L 164.486557 234.035766 
L 164.79752 233.959505 
L 164.79752 233.883244 
L 165.293581 233.806983 
L 165.345408 233.654461 
L 165.537909 233.5782 
L 165.648967 233.273156 
L 166.485607 233.196895 
L 166.485607 233.120634 
L 166.707723 233.044373 
L 166.77806 232.89185 
L 166.952051 232.815589 
L 166.952051 232.739328 
L 167.237101 232.663067 
L 167.237101 232.586806 
L 167.407391 232.510545 
L 167.407391 232.434284 
L 167.814604 232.358023 
L 167.814604 232.281762 
L 168.366194 232.205501 
L 168.373598 232.052979 
L 168.691965 231.976718 
L 168.691965 231.900457 
L 169.069563 231.824196 
L 169.069563 231.747934 
L 169.395334 231.671673 
L 169.395334 231.595412 
L 169.702596 231.519151 
L 169.754423 231.366629 
L 169.961732 231.290368 
L 170.002453 231.137846 
L 170.146829 231.061585 
L 170.146829 230.985324 
L 170.742842 230.909063 
L 170.846496 230.756541 
L 171.016786 230.68028 
L 171.016786 230.604018 
L 171.379576 230.527757 
L 171.461019 230.375235 
L 171.664626 230.298974 
L 171.664626 230.222713 
L 171.853425 230.146452 
L 171.927464 229.99393 
L 172.153282 229.917669 
L 172.153282 229.841408 
L 172.534583 229.765147 
L 172.545688 229.612625 
L 172.712276 229.536364 
L 172.712276 229.460103 
L 172.886267 229.383841 
L 172.930691 229.155058 
L 173.108384 229.078797 
L 173.108384 229.002536 
L 173.678483 228.926275 
L 173.774734 228.773753 
L 174.048678 228.697492 
L 174.152332 228.316187 
L 174.26339 228.239925 
L 174.278198 228.087403 
L 174.455891 228.011142 
L 174.470699 227.782359 
L 174.863105 227.706098 
L 174.922336 227.553576 
L 175.066712 227.477315 
L 175.17777 227.324793 
L 175.237002 227.248532 
L 175.314742 227.019748 
L 175.636812 226.943487 
L 175.636812 226.867226 
L 175.847822 226.790965 
L 175.873736 226.562182 
L 176.084747 226.485921 
L 176.155084 226.104616 
L 176.284652 226.028355 
L 176.284652 225.952094 
L 176.525278 225.875832 
L 176.617827 225.647049 
L 176.780712 225.570788 
L 176.780712 225.494527 
L 177.058358 225.418266 
L 177.058358 225.342005 
L 177.380427 225.265744 
L 177.421148 225.036961 
L 177.561822 224.9607 
L 177.561822 224.884439 
L 177.865382 224.808178 
L 177.932017 224.426872 
L 178.009757 224.350611 
L 178.10971 224.045567 
L 178.250384 223.969306 
L 178.302211 223.664262 
L 178.442885 223.588 
L 178.535433 223.359217 
L 178.646492 223.282956 
L 178.724233 223.054173 
L 178.824185 222.977912 
L 178.931541 222.596607 
L 179.00558 222.520346 
L 179.116639 222.367823 
L 179.220293 222.291562 
L 179.286928 222.062779 
L 179.4239 221.986518 
L 179.516449 221.452691 
L 179.631209 221.37643 
L 179.646017 221.223907 
L 179.927364 221.147646 
L 180.001403 220.613819 
L 180.142077 220.537558 
L 180.219818 220.232514 
L 180.308665 220.156253 
L 180.3753 219.927469 
L 180.552993 219.851208 
L 180.652945 219.622425 
L 180.730686 219.546164 
L 180.830639 219.24112 
L 180.875062 219.164859 
L 180.982418 218.478509 
L 181.037947 218.402248 
L 181.126794 218.097204 
L 181.182323 218.020943 
L 181.278574 217.639637 
L 181.326699 217.563376 
L 181.42295 216.953288 
L 181.50069 216.953288 
L 181.50069 216.877027 
L 181.611749 216.266938 
L 181.63396 216.190677 
L 181.63396 216.114416 
L 181.763528 216.038155 
L 181.856077 215.580589 
L 181.907904 215.504328 
L 181.967135 215.275544 
L 182.085598 215.199283 
L 182.196656 214.894239 
L 182.296608 214.817978 
L 182.389157 214.512934 
L 182.4706 214.436673 
L 182.570552 214.055367 
L 182.651995 213.979106 
L 182.763053 213.52154 
L 182.840794 213.445279 
L 182.892621 213.216496 
L 183.018487 213.140235 
L 183.129546 212.377624 
L 183.21469 212.301363 
L 183.296133 211.996319 
L 183.359066 211.920058 
L 183.447913 211.233708 
L 183.492336 211.157447 
L 183.592289 210.852403 
L 183.684837 210.776142 
L 183.773684 210.547358 
L 183.821809 210.471097 
L 183.932867 209.93727 
L 184.010608 209.861009 
L 184.095753 209.479703 
L 184.151282 209.403442 
L 184.254937 208.945876 
L 184.284552 208.869615 
L 184.377101 208.412048 
L 184.447438 208.335787 
L 184.473351 208.183265 
L 184.58441 208.107004 
L 184.654747 207.649438 
L 184.702872 207.573177 
L 184.79542 207.344394 
L 184.880565 207.268133 
L 184.910181 206.734305 
L 185.047153 206.734305 
L 185.047153 206.658044 
L 185.121191 206.047955 
L 185.187826 205.971694 
L 185.280375 205.514128 
L 185.309991 205.514128 
L 185.309991 205.437867 
L 185.406241 204.751517 
L 185.450664 204.675256 
L 185.561723 204.293951 
L 185.635762 204.21769 
L 185.743118 203.760124 
L 185.776435 203.683862 
L 185.887494 203.302557 
L 185.906004 203.226296 
L 186.005956 202.311163 
L 186.057783 202.234902 
L 186.142928 201.853597 
L 186.176245 201.853597 
L 186.176245 201.777336 
L 186.2799 200.938464 
L 186.313217 200.862203 
L 186.405766 200.63342 
L 186.457593 200.557159 
L 186.542738 199.794548 
L 186.627883 199.718287 
L 186.731537 199.489504 
L 186.790768 199.413243 
L 186.872211 199.031937 
L 186.964759 198.955676 
L 187.068414 198.269327 
L 187.172068 198.193066 
L 187.272021 197.506716 
L 187.316444 197.430455 
L 187.416397 196.744106 
L 187.471926 196.667844 
L 187.545965 196.057756 
L 187.597792 195.981495 
L 187.705148 195.295145 
L 187.723658 195.218884 
L 187.786591 194.837579 
L 187.868034 194.761318 
L 187.942073 193.922446 
L 188.023515 193.922446 
L 188.023515 193.846185 
L 188.12717 193.159835 
L 188.153083 193.083574 
L 188.264142 192.626008 
L 188.286353 192.549747 
L 188.390008 191.939658 
L 188.423325 191.863397 
L 188.530682 191.177048 
L 188.612124 191.100787 
L 188.712077 190.490698 
L 188.7565 190.414437 
L 188.863857 189.575565 
L 188.87126 189.575565 
L 188.87126 189.499304 
L 188.978617 188.812955 
L 188.997127 188.736694 
L 189.093377 188.050344 
L 189.115589 188.050344 
L 189.115589 187.974083 
L 189.208137 187.516517 
L 189.245157 187.440256 
L 189.330302 186.830167 
L 189.378427 186.753906 
L 189.478379 186.372601 
L 189.511697 186.29634 
L 189.615351 185.762512 
L 189.630159 185.686251 
L 189.737515 184.999901 
L 189.759727 184.92364 
L 189.859679 184.389813 
L 189.881891 184.389813 
L 189.881891 184.313552 
L 189.992949 183.398419 
L 190.007757 183.322158 
L 190.104008 182.330764 
L 190.148431 182.254503 
L 190.252086 181.568154 
L 190.281701 181.491892 
L 190.389057 180.881804 
L 190.426077 180.805543 
L 190.537135 179.966671 
L 190.570453 179.89041 
L 190.677809 179.127799 
L 190.688915 179.051538 
L 190.788867 178.060145 
L 190.874012 177.983883 
L 190.966561 177.373795 
L 190.992474 177.297534 
L 191.099831 176.687445 
L 191.125744 176.611184 
L 191.236803 175.696051 
L 191.273822 175.61979 
L 191.366371 174.85718 
L 191.407092 174.780919 
L 191.507044 173.942047 
L 191.581083 173.865786 
L 191.692142 173.179436 
L 191.736565 173.103175 
L 191.836517 172.188042 
L 191.858729 172.188042 
L 191.858729 172.111781 
L 191.958682 171.196649 
L 191.991999 171.120388 
L 192.103057 169.900211 
L 192.110461 169.900211 
L 192.110461 169.823949 
L 192.217818 168.908817 
L 192.251135 168.832556 
L 192.358492 168.298728 
L 192.377001 168.222467 
L 192.48806 167.536118 
L 192.532483 167.459856 
L 192.632435 166.773507 
L 192.658349 166.697246 
L 192.765705 165.705852 
L 192.773109 165.705852 
L 192.773109 165.629591 
L 192.884168 164.86698 
L 192.898975 164.790719 
L 193.006332 163.723064 
L 193.058159 163.646803 
L 193.165515 162.884193 
L 193.195131 162.807931 
L 193.265468 162.121582 
L 193.320997 162.045321 
L 193.417247 161.206449 
L 193.494988 161.130188 
L 193.594941 159.910011 
L 193.61345 159.910011 
L 193.61345 159.83375 
L 193.720807 158.537312 
L 193.743018 158.537312 
L 193.743018 158.461051 
L 193.824461 157.927223 
L 193.91701 157.850962 
L 194.002155 156.935829 
L 194.05028 156.935829 
L 194.05028 156.859568 
L 194.124319 156.173219 
L 194.20206 156.096958 
L 194.309416 155.029303 
L 194.324224 155.029303 
L 194.324224 154.953042 
L 194.424176 153.580343 
L 194.45009 153.504082 
L 194.550042 152.360166 
L 194.587062 152.283904 
L 194.69812 151.445033 
L 194.701822 151.445033 
L 194.701822 151.368772 
L 194.81288 150.072334 
L 194.838794 149.996072 
L 194.942448 148.928418 
L 195.005381 148.852157 
L 195.094228 148.089546 
L 195.123844 148.013285 
L 195.234902 147.021891 
L 195.24971 146.94563 
L 195.360768 146.183019 
L 195.379278 146.106758 
L 195.490336 144.734059 
L 195.508846 144.657798 
L 195.619904 143.818926 
L 195.653221 143.742665 
L 195.760578 142.67501 
L 195.775386 142.67501 
L 195.775386 142.598749 
L 195.856828 141.454833 
L 195.919761 141.378572 
L 196.03082 140.234656 
L 196.071541 140.158395 
L 196.160388 139.77709 
L 196.190003 139.700829 
L 196.301062 138.633174 
L 196.345485 138.556913 
L 196.445437 137.794302 
L 196.471351 137.718041 
L 196.582409 136.726647 
L 196.600919 136.650386 
L 196.711977 135.811514 
L 196.730487 135.735253 
L 196.83044 134.667598 
L 196.852651 134.667598 
L 196.852651 134.591337 
L 196.96371 133.828727 
L 196.993325 133.752466 
L 197.104383 132.913594 
L 197.122893 132.837333 
L 197.219144 131.159589 
L 197.252461 131.083328 
L 197.356116 130.015673 
L 197.370923 129.939412 
L 197.481982 128.490452 
L 197.500491 128.414191 
L 197.61155 127.270275 
L 197.641165 127.194014 
L 197.748522 126.20262 
L 197.774435 126.126359 
L 197.87809 125.134965 
L 197.915109 125.058704 
L 198.018764 124.06731 
L 198.052081 123.991049 
L 198.159437 122.542089 
L 198.214967 122.465828 
L 198.318621 121.016868 
L 198.333429 120.940607 
L 198.440785 120.177996 
L 198.54444 120.101735 
L 198.655498 119.415385 
L 198.707325 119.415385 
L 198.707325 119.339124 
L 198.807278 118.805297 
L 198.822085 118.805297 
L 198.822085 118.729036 
L 198.92574 117.58512 
L 198.951653 117.508859 
L 199.044202 116.517465 
L 199.070116 116.441204 
L 199.151558 115.831115 
L 199.203386 115.754854 
L 199.281126 115.221027 
L 199.340357 115.144766 
L 199.451416 113.543283 
L 199.462522 113.543283 
L 199.462522 113.467022 
L 199.57358 112.551889 
L 199.588388 112.551889 
L 199.588388 112.475628 
L 199.695744 111.789279 
L 199.717956 111.713018 
L 199.829014 110.645363 
L 199.884543 110.569102 
L 199.962284 109.272664 
L 200.010409 109.196403 
L 200.121468 108.433792 
L 200.158487 108.357531 
L 200.269545 107.442398 
L 200.295459 107.366137 
L 200.402815 106.679787 
L 200.421325 106.679787 
L 200.421325 106.603526 
L 200.532383 105.383349 
L 200.587913 105.307088 
L 200.680461 104.163172 
L 200.73599 104.086911 
L 200.847049 103.019256 
L 200.876664 103.019256 
L 200.876664 102.942995 
L 200.987722 102.332907 
L 201.013636 102.256646 
L 201.120992 101.265252 
L 201.132098 101.265252 
L 201.132098 101.188991 
L 201.202435 100.42638 
L 201.28758 100.350119 
L 201.365321 99.587508 
L 201.406042 99.511247 
L 201.502293 98.672376 
L 201.53561 98.596115 
L 201.624457 98.062287 
L 201.665178 97.986026 
L 201.757727 97.52846 
L 201.809554 97.452199 
L 201.898401 96.232021 
L 201.946526 96.15576 
L 202.039074 95.469411 
L 202.102008 95.39315 
L 202.205662 93.94419 
L 202.235277 93.867928 
L 202.338932 93.029057 
L 202.362995 92.952796 
L 202.457394 92.113924 
L 202.501817 92.037663 
L 202.609174 91.198791 
L 202.62028 91.198791 
L 202.62028 91.12253 
L 202.727636 90.359919 
L 202.738742 90.283658 
L 202.846098 89.292265 
L 202.857204 89.216003 
L 202.968262 87.995826 
L 202.986772 87.919565 
L 203.094128 86.546866 
L 203.127446 86.546866 
L 203.127446 86.470605 
L 203.234802 85.479211 
L 203.24961 85.40295 
L 203.360668 84.792862 
L 203.405092 84.716601 
L 203.51615 84.335295 
L 203.527256 84.335295 
L 203.527256 84.259034 
L 203.627208 83.343901 
L 203.653122 83.26764 
L 203.749372 82.657552 
L 203.786392 82.581291 
L 203.89745 81.666158 
L 203.927066 81.589897 
L 204.023316 80.979808 
L 204.06774 80.903547 
L 204.178798 80.140937 
L 204.204712 80.064676 
L 204.312068 79.378326 
L 204.33428 79.302065 
L 204.41202 78.997021 
L 204.486059 78.92076 
L 204.578608 78.158149 
L 204.615627 78.081888 
L 204.719282 77.395538 
L 204.741493 77.319277 
L 204.84885 76.861711 
L 204.874763 76.78545 
L 204.971014 76.175361 
L 205.037649 76.0991 
L 205.137601 75.412751 
L 205.167217 75.412751 
L 205.167217 75.33649 
L 205.237554 74.65014 
L 205.311593 74.573879 
L 205.374526 73.887529 
L 205.489286 73.811268 
L 205.600344 72.972397 
L 205.62996 72.896136 
L 205.741018 71.981003 
L 205.766932 71.904742 
L 205.87799 71.370914 
L 205.91501 71.294653 
L 206.018664 70.837087 
L 206.074193 70.760826 
L 206.177848 70.150737 
L 206.192655 70.074476 
L 206.29631 69.464388 
L 206.31482 69.464388 
L 206.31482 69.388127 
L 206.422176 68.625516 
L 206.499917 68.549255 
L 206.599869 67.634122 
L 206.622081 67.557861 
L 206.733139 67.100295 
L 206.759053 67.024033 
L 206.855303 66.337684 
L 206.907131 66.261423 
L 206.992275 66.03264 
L 207.081122 65.956379 
L 207.19218 64.812463 
L 207.21069 64.736202 
L 207.288431 64.354896 
L 207.351364 64.278635 
L 207.462422 63.516024 
L 207.480932 63.439763 
L 207.566077 63.058458 
L 207.625308 62.982197 
L 207.714154 62.44837 
L 207.769683 62.372108 
L 207.85853 61.76202 
L 207.89555 61.685759 
L 208.006608 60.694365 
L 208.065839 60.618104 
L 208.162089 60.008015 
L 208.202811 59.931754 
L 208.287956 59.62671 
L 208.347187 59.550449 
L 208.454543 59.092883 
L 208.54339 59.016622 
L 208.63964 58.559055 
L 208.672958 58.482794 
L 208.77291 58.17775 
L 208.88767 58.101489 
L 208.995027 57.872706 
L 209.028344 57.796445 
L 209.135701 57.415139 
L 209.17272 57.338878 
L 209.265269 56.881312 
L 209.320798 56.805051 
L 209.391135 56.347484 
L 209.442962 56.271223 
L 209.546616 55.813657 
L 209.683588 55.737396 
L 209.783541 55.127307 
L 209.82056 55.051046 
L 209.927917 54.822263 
L 209.968638 54.746002 
L 210.057485 54.212175 
L 210.101908 54.135913 
L 210.190755 53.754608 
L 210.231476 53.678347 
L 210.324025 53.220781 
L 210.438785 53.14452 
L 210.48691 52.915736 
L 210.583161 52.839475 
L 210.679411 52.534431 
L 210.731238 52.45817 
L 210.816383 52.076865 
L 210.934845 52.000604 
L 210.968163 51.77182 
L 211.057009 51.695559 
L 211.131048 51.390515 
L 211.360569 51.314254 
L 211.460521 50.856688 
L 211.567878 50.780427 
L 211.66783 50.399121 
L 211.78259 50.32286 
L 211.875139 50.017816 
L 211.938072 49.941555 
L 212.026919 49.636511 
L 212.075044 49.56025 
L 212.186102 48.8739 
L 212.337882 48.797639 
L 212.426729 48.340072 
L 212.489662 48.340072 
L 212.489662 48.263811 
L 212.585912 47.958767 
L 212.659951 47.882506 
L 212.763606 47.501201 
L 212.98202 47.42494 
L 213.074569 47.043634 
L 213.348513 46.967373 
L 213.452167 46.662329 
L 213.500292 46.586068 
L 213.585437 46.357285 
L 213.674284 46.281024 
L 213.78164 46.052241 
L 213.866785 45.975979 
L 213.970439 45.670935 
L 214.096305 45.594674 
L 214.129623 45.28963 
L 214.311018 45.213369 
L 214.377653 44.984586 
L 214.610876 44.908325 
L 214.69602 44.755802 
L 214.795973 44.679541 
L 214.884819 44.450758 
L 214.99958 44.374497 
L 215.088426 43.916931 
L 215.177273 43.84067 
L 215.277225 43.611886 
L 215.747372 43.535625 
L 215.758478 43.383103 
L 215.939873 43.306842 
L 215.939873 43.230581 
L 216.406318 43.15432 
L 216.509973 42.925537 
L 216.643243 42.849276 
L 216.735791 42.544232 
L 216.931994 42.46797 
L 217.031947 42.315448 
L 217.19113 42.239187 
L 217.265169 42.086665 
L 218.327627 42.010404 
L 218.431281 41.857882 
L 218.579359 41.781621 
L 218.683014 41.629099 
L 218.890323 41.552838 
L 218.890323 41.476577 
L 219.049506 41.400316 
L 219.049506 41.324054 
L 219.345662 41.247793 
L 219.345662 41.171532 
L 219.867636 41.095271 
L 219.867636 41.01901 
L 220.037925 40.942749 
L 220.134176 40.713966 
L 220.437735 40.637705 
L 220.437735 40.561444 
L 221.078171 40.485183 
L 221.078171 40.408922 
L 221.992551 40.332661 
L 221.992551 40.2564 
L 222.33313 40.180139 
L 222.33313 40.103877 
L 222.758854 40.027616 
L 222.758854 39.951355 
L 222.984672 39.875094 
L 222.984672 39.798833 
L 223.428906 39.722572 
L 223.428906 39.646311 
L 223.628811 39.57005 
L 223.628811 39.493789 
L 223.947178 39.417528 
L 223.947178 39.341267 
L 224.069342 39.341267 
L 224.069342 39.265006 
L 224.069342 39.188745 
L 224.287757 39.112484 
L 224.395113 38.959961 
L 225.013338 38.8837 
L 225.013338 38.807439 
L 225.483484 38.731178 
L 225.539014 38.578656 
L 225.694495 38.502395 
L 225.801852 38.349873 
L 226.268296 38.349873 
L 226.268296 38.273612 
L 226.29421 38.12109 
L 227.149359 38.044829 
L 227.149359 37.968568 
L 227.567679 37.892307 
L 227.567679 37.816045 
L 228.411722 37.739784 
L 228.411722 37.663523 
L 229.222448 37.587262 
L 229.307592 37.43474 
L 230.666206 37.358479 
L 230.666206 37.282218 
L 233.598145 37.205957 
L 233.7018 37.053435 
L 236.307968 36.977174 
L 236.307968 36.900913 
L 237.844275 36.824652 
L 237.888698 36.67213 
L 238.821588 36.595868 
L 238.821588 36.519607 
L 241.912711 36.443346 
L 242.016365 36.290824 
L 243.826616 36.214563 
L 243.826616 36.138302 
L 245.177825 36.062041 
L 245.177825 35.98578 
L 249.975544 35.909519 
L 249.975544 35.833258 
L 252.107864 35.756997 
L 252.107864 35.680736 
L 253.099985 35.604475 
L 253.099985 35.528214 
L 261.022145 35.451952 
L 261.022145 35.375691 
L 263.135954 35.29943 
L 263.135954 35.223169 
L 272.501872 35.146908 
L 272.501872 35.070647 
L 293.739924 34.994386 
L 293.739924 34.918125 
L 295.698252 34.918125 
L 295.698252 34.918125 
" clip-path="url(#p30e6e06586)" style="fill: none; stroke: #000000; stroke-linecap: round"/>
   </g>
   <g id="patch_3">
    <path d="M 49.807188 299.518125 
L 49.807188 22.318125 
" style="fill: none; stroke: #cccccc; stroke-width: 1.25; stroke-linejoin: miter; stroke-linecap: square"/>
   </g>
   <g id="patch_4">
    <path d="M 496.207187 299.518125 
L 496.207187 22.318125 
" style="fill: none; stroke: #cccccc; stroke-width: 1.25; stroke-linejoin: miter; stroke-linecap: square"/>
   </g>
   <g id="patch_5">
    <path d="M 49.807188 299.518125 
L 496.207187 299.518125 
" style="fill: none; stroke: #cccccc; stroke-width: 1.25; stroke-linejoin: miter; stroke-linecap: square"/>
   </g>
   <g id="patch_6">
    <path d="M 49.807188 22.318125 
L 496.207187 22.318125 
" style="fill: none; stroke: #cccccc; stroke-width: 1.25; stroke-linejoin: miter; stroke-linecap: square"/>
   </g>
   <g id="text_15">
    <!-- ECDF Comparison for SIO2 -->
    <g style="fill: #262626" transform="translate(192.940937 16.318125) scale(0.12 -0.12)">
     <defs>
      <path id="DejaVuSans-45" d="M 628 4666 
L 3578 4666 
L 3578 4134 
L 1259 4134 
L 1259 2753 
L 3481 2753 
L 3481 2222 
L 1259 2222 
L 1259 531 
L 3634 531 
L 3634 0 
L 628 0 
L 628 4666 
z
" transform="scale(0.015625)"/>
      <path id="DejaVuSans-44" d="M 1259 4147 
L 1259 519 
L 2022 519 
Q 2988 519 3436 956 
Q 3884 1394 3884 2338 
Q 3884 3275 3436 3711 
Q 2988 4147 2022 4147 
L 1259 4147 
z
M 628 4666 
L 1925 4666 
Q 3281 4666 3915 4102 
Q 4550 3538 4550 2338 
Q 4550 1131 3912 565 
Q 3275 0 1925 0 
L 628 0 
L 628 4666 
z
" transform="scale(0.015625)"/>
      <path id="DejaVuSans-46" d="M 628 4666 
L 3309 4666 
L 3309 4134 
L 1259 4134 
L 1259 2759 
L 3109 2759 
L 3109 2228 
L 1259 2228 
L 1259 0 
L 628 0 
L 628 4666 
z
" transform="scale(0.015625)"/>
      <path id="DejaVuSans-70" d="M 1159 525 
L 1159 -1331 
L 581 -1331 
L 581 3500 
L 1159 3500 
L 1159 2969 
Q 1341 3281 1617 3432 
Q 1894 3584 2278 3584 
Q 2916 3584 3314 3078 
Q 3713 2572 3713 1747 
Q 3713 922 3314 415 
Q 2916 -91 2278 -91 
Q 1894 -91 1617 61 
Q 1341 213 1159 525 
z
M 3116 1747 
Q 3116 2381 2855 2742 
Q 2594 3103 2138 3103 
Q 1681 3103 1420 2742 
Q 1159 2381 1159 1747 
Q 1159 1113 1420 752 
Q 1681 391 2138 391 
Q 2594 391 2855 752 
Q 3116 1113 3116 1747 
z
" transform="scale(0.015625)"/>
      <path id="DejaVuSans-73" d="M 2834 3397 
L 2834 2853 
Q 2591 2978 2328 3040 
Q 2066 3103 1784 3103 
Q 1356 3103 1142 2972 
Q 928 2841 928 2578 
Q 928 2378 1081 2264 
Q 1234 2150 1697 2047 
L 1894 2003 
Q 2506 1872 2764 1633 
Q 3022 1394 3022 966 
Q 3022 478 2636 193 
Q 2250 -91 1575 -91 
Q 1294 -91 989 -36 
Q 684 19 347 128 
L 347 722 
Q 666 556 975 473 
Q 1284 391 1588 391 
Q 1994 391 2212 530 
Q 2431 669 2431 922 
Q 2431 1156 2273 1281 
Q 2116 1406 1581 1522 
L 1381 1569 
Q 847 1681 609 1914 
Q 372 2147 372 2553 
Q 372 3047 722 3315 
Q 1072 3584 1716 3584 
Q 2034 3584 2315 3537 
Q 2597 3491 2834 3397 
z
" transform="scale(0.015625)"/>
      <path id="DejaVuSans-6e" d="M 3513 2113 
L 3513 0 
L 2938 0 
L 2938 2094 
Q 2938 2591 2744 2837 
Q 2550 3084 2163 3084 
Q 1697 3084 1428 2787 
Q 1159 2491 1159 1978 
L 1159 0 
L 581 0 
L 581 3500 
L 1159 3500 
L 1159 2956 
Q 1366 3272 1645 3428 
Q 1925 3584 2291 3584 
Q 2894 3584 3203 3211 
Q 3513 2838 3513 2113 
z
" transform="scale(0.015625)"/>
      <path id="DejaVuSans-66" d="M 2375 4863 
L 2375 4384 
L 1825 4384 
Q 1516 4384 1395 4259 
Q 1275 4134 1275 3809 
L 1275 3500 
L 2222 3500 
L 2222 3053 
L 1275 3053 
L 1275 0 
L 697 0 
L 697 3053 
L 147 3053 
L 147 3500 
L 697 3500 
L 697 3744 
Q 697 4328 969 4595 
Q 1241 4863 1831 4863 
L 2375 4863 
z
" transform="scale(0.015625)"/>
     </defs>
     <use xlink:href="#DejaVuSans-45"/>
     <use xlink:href="#DejaVuSans-43" transform="translate(63.183594 0)"/>
     <use xlink:href="#DejaVuSans-44" transform="translate(133.007812 0)"/>
     <use xlink:href="#DejaVuSans-46" transform="translate(210.009766 0)"/>
     <use xlink:href="#DejaVuSans-20" transform="translate(267.529297 0)"/>
     <use xlink:href="#DejaVuSans-43" transform="translate(299.316406 0)"/>
     <use xlink:href="#DejaVuSans-6f" transform="translate(369.140625 0)"/>
     <use xlink:href="#DejaVuSans-6d" transform="translate(430.322266 0)"/>
     <use xlink:href="#DejaVuSans-70" transform="translate(527.734375 0)"/>
     <use xlink:href="#DejaVuSans-61" transform="translate(591.210938 0)"/>
     <use xlink:href="#DejaVuSans-72" transform="translate(652.490234 0)"/>
     <use xlink:href="#DejaVuSans-69" transform="translate(693.603516 0)"/>
     <use xlink:href="#DejaVuSans-73" transform="translate(721.386719 0)"/>
     <use xlink:href="#DejaVuSans-6f" transform="translate(773.486328 0)"/>
     <use xlink:href="#DejaVuSans-6e" transform="translate(834.667969 0)"/>
     <use xlink:href="#DejaVuSans-20" transform="translate(898.046875 0)"/>
     <use xlink:href="#DejaVuSans-66" transform="translate(929.833984 0)"/>
     <use xlink:href="#DejaVuSans-6f" transform="translate(965.039062 0)"/>
     <use xlink:href="#DejaVuSans-72" transform="translate(1026.220703 0)"/>
     <use xlink:href="#DejaVuSans-20" transform="translate(1067.333984 0)"/>
     <use xlink:href="#DejaVuSans-53" transform="translate(1099.121094 0)"/>
     <use xlink:href="#DejaVuSans-49" transform="translate(1162.597656 0)"/>
     <use xlink:href="#DejaVuSans-4f" transform="translate(1192.089844 0)"/>
     <use xlink:href="#DejaVuSans-32" transform="translate(1270.800781 0)"/>
    </g>
   </g>
   <g id="legend_1">
    <g id="patch_7">
     <path d="M 57.507188 63.41 
L 152.43375 63.41 
Q 154.63375 63.41 154.63375 61.21 
L 154.63375 30.018125 
Q 154.63375 27.818125 152.43375 27.818125 
L 57.507188 27.818125 
Q 55.307188 27.818125 55.307188 30.018125 
L 55.307188 61.21 
Q 55.307188 63.41 57.507188 63.41 
z
" style="fill: #ffffff; opacity: 0.8; stroke: #cccccc; stroke-linejoin: miter"/>
    </g>
    <g id="line2d_15">
     <path d="M 59.707188 36.726406 
L 59.707188 36.726406 
L 70.707188 36.726406 
L 70.707188 36.726406 
L 81.707188 36.726406 
" style="fill: none; stroke: #800080; stroke-linecap: round"/>
    </g>
    <g id="text_16">
     <!-- Old Assay -->
     <g style="fill: #262626" transform="translate(90.507188 40.576406) scale(0.11 -0.11)">
      <defs>
       <path id="DejaVuSans-64" d="M 2906 2969 
L 2906 4863 
L 3481 4863 
L 3481 0 
L 2906 0 
L 2906 525 
Q 2725 213 2448 61 
Q 2172 -91 1784 -91 
Q 1150 -91 751 415 
Q 353 922 353 1747 
Q 353 2572 751 3078 
Q 1150 3584 1784 3584 
Q 2172 3584 2448 3432 
Q 2725 3281 2906 2969 
z
M 947 1747 
Q 947 1113 1208 752 
Q 1469 391 1925 391 
Q 2381 391 2643 752 
Q 2906 1113 2906 1747 
Q 2906 2381 2643 2742 
Q 2381 3103 1925 3103 
Q 1469 3103 1208 2742 
Q 947 2381 947 1747 
z
" transform="scale(0.015625)"/>
       <path id="DejaVuSans-41" d="M 2188 4044 
L 1331 1722 
L 3047 1722 
L 2188 4044 
z
M 1831 4666 
L 2547 4666 
L 4325 0 
L 3669 0 
L 3244 1197 
L 1141 1197 
L 716 0 
L 50 0 
L 1831 4666 
z
" transform="scale(0.015625)"/>
      </defs>
      <use xlink:href="#DejaVuSans-4f"/>
      <use xlink:href="#DejaVuSans-6c" transform="translate(78.710938 0)"/>
      <use xlink:href="#DejaVuSans-64" transform="translate(106.494141 0)"/>
      <use xlink:href="#DejaVuSans-20" transform="translate(169.970703 0)"/>
      <use xlink:href="#DejaVuSans-41" transform="translate(201.757812 0)"/>
      <use xlink:href="#DejaVuSans-73" transform="translate(270.166016 0)"/>
      <use xlink:href="#DejaVuSans-73" transform="translate(322.265625 0)"/>
      <use xlink:href="#DejaVuSans-61" transform="translate(374.365234 0)"/>
      <use xlink:href="#DejaVuSans-79" transform="translate(435.644531 0)"/>
     </g>
    </g>
    <g id="line2d_16">
     <path d="M 59.707188 52.872344 
L 59.707188 52.872344 
L 70.707188 52.872344 
L 70.707188 52.872344 
L 81.707188 52.872344 
" style="fill: none; stroke: #000000; stroke-linecap: round"/>
    </g>
    <g id="text_17">
     <!-- New Assay -->
     <g style="fill: #262626" transform="translate(90.507188 56.722344) scale(0.11 -0.11)">
      <defs>
       <path id="DejaVuSans-4e" d="M 628 4666 
L 1478 4666 
L 3547 763 
L 3547 4666 
L 4159 4666 
L 4159 0 
L 3309 0 
L 1241 3903 
L 1241 0 
L 628 0 
L 628 4666 
z
" transform="scale(0.015625)"/>
       <path id="DejaVuSans-77" d="M 269 3500 
L 844 3500 
L 1563 769 
L 2278 3500 
L 2956 3500 
L 3675 769 
L 4391 3500 
L 4966 3500 
L 4050 0 
L 3372 0 
L 2619 2869 
L 1863 0 
L 1184 0 
L 269 3500 
z
" transform="scale(0.015625)"/>
      </defs>
      <use xlink:href="#DejaVuSans-4e"/>
      <use xlink:href="#DejaVuSans-65" transform="translate(74.804688 0)"/>
      <use xlink:href="#DejaVuSans-77" transform="translate(136.328125 0)"/>
      <use xlink:href="#DejaVuSans-20" transform="translate(218.115234 0)"/>
      <use xlink:href="#DejaVuSans-41" transform="translate(249.902344 0)"/>
      <use xlink:href="#DejaVuSans-73" transform="translate(318.310547 0)"/>
      <use xlink:href="#DejaVuSans-73" transform="translate(370.410156 0)"/>
      <use xlink:href="#DejaVuSans-61" transform="translate(422.509766 0)"/>
      <use xlink:href="#DejaVuSans-79" transform="translate(483.789062 0)"/>
     </g>
    </g>
   </g>
  </g>
 </g>
 <defs>
  <clipPath id="p30e6e06586">
   <rect x="49.807188" y="22.318125" width="446.4" height="277.2"/>
  </clipPath>
 </defs>
</svg>
