<?xml version="1.0" encoding="utf-8" standalone="no"?>
<!DOCTYPE svg PUBLIC "-//W3C//DTD SVG 1.1//EN"
  "http://www.w3.org/Graphics/SVG/1.1/DTD/svg11.dtd">
<svg xmlns:xlink="http://www.w3.org/1999/xlink" width="510.405937pt" height="342.477813pt" viewBox="0 0 510.405937 342.477813" xmlns="http://www.w3.org/2000/svg" version="1.1">
 <metadata>
  <rdf:RDF xmlns:dc="http://purl.org/dc/elements/1.1/" xmlns:cc="http://creativecommons.org/ns#" xmlns:rdf="http://www.w3.org/1999/02/22-rdf-syntax-ns#">
   <cc:Work>
    <dc:type rdf:resource="http://purl.org/dc/dcmitype/StillImage"/>
    <dc:date>2025-10-22T08:42:39.210327</dc:date>
    <dc:format>image/svg+xml</dc:format>
    <dc:creator>
     <cc:Agent>
      <dc:title>Matplotlib v3.10.6, https://matplotlib.org/</dc:title>
     </cc:Agent>
    </dc:creator>
   </cc:Work>
  </rdf:RDF>
 </metadata>
 <defs>
  <style type="text/css">*{stroke-linejoin: round; stroke-linecap: butt}</style>
 </defs>
 <g id="figure_1">
  <g id="patch_1">
   <path d="M 0 342.477813 
L 510.405937 342.477813 
L 510.405937 0 
L 0 0 
z
" style="fill: #ffffff"/>
  </g>
  <g id="axes_1">
   <g id="patch_2">
    <path d="M 56.805938 299.518125 
L 503.205938 299.518125 
L 503.205938 22.318125 
L 56.805938 22.318125 
z
" style="fill: #ffffff"/>
   </g>
   <g id="matplotlib.axis_1">
    <g id="xtick_1">
     <g id="line2d_1">
      <path d="M 65.449865 299.518125 
L 65.449865 22.318125 
" clip-path="url(#p5d521342a3)" style="fill: none; stroke: #cccccc; stroke-linecap: round"/>
     </g>
     <g id="text_1">
      <!-- 0 -->
      <g style="fill: #262626" transform="translate(61.95049 317.376406) scale(0.11 -0.11)">
       <defs>
        <path id="DejaVuSans-30" d="M 2034 4250 
Q 1547 4250 1301 3770 
Q 1056 3291 1056 2328 
Q 1056 1369 1301 889 
Q 1547 409 2034 409 
Q 2525 409 2770 889 
Q 3016 1369 3016 2328 
Q 3016 3291 2770 3770 
Q 2525 4250 2034 4250 
z
M 2034 4750 
Q 2819 4750 3233 4129 
Q 3647 3509 3647 2328 
Q 3647 1150 3233 529 
Q 2819 -91 2034 -91 
Q 1250 -91 836 529 
Q 422 1150 422 2328 
Q 422 3509 836 4129 
Q 1250 4750 2034 4750 
z
" transform="scale(0.015625)"/>
       </defs>
       <use xlink:href="#DejaVuSans-30"/>
      </g>
     </g>
    </g>
    <g id="xtick_2">
     <g id="line2d_2">
      <path d="M 139.234989 299.518125 
L 139.234989 22.318125 
" clip-path="url(#p5d521342a3)" style="fill: none; stroke: #cccccc; stroke-linecap: round"/>
     </g>
     <g id="text_2">
      <!-- 20 -->
      <g style="fill: #262626" transform="translate(132.236239 317.376406) scale(0.11 -0.11)">
       <defs>
        <path id="DejaVuSans-32" d="M 1228 531 
L 3431 531 
L 3431 0 
L 469 0 
L 469 531 
Q 828 903 1448 1529 
Q 2069 2156 2228 2338 
Q 2531 2678 2651 2914 
Q 2772 3150 2772 3378 
Q 2772 3750 2511 3984 
Q 2250 4219 1831 4219 
Q 1534 4219 1204 4116 
Q 875 4013 500 3803 
L 500 4441 
Q 881 4594 1212 4672 
Q 1544 4750 1819 4750 
Q 2544 4750 2975 4387 
Q 3406 4025 3406 3419 
Q 3406 3131 3298 2873 
Q 3191 2616 2906 2266 
Q 2828 2175 2409 1742 
Q 1991 1309 1228 531 
z
" transform="scale(0.015625)"/>
       </defs>
       <use xlink:href="#DejaVuSans-32"/>
       <use xlink:href="#DejaVuSans-30" transform="translate(63.623047 0)"/>
      </g>
     </g>
    </g>
    <g id="xtick_3">
     <g id="line2d_3">
      <path d="M 213.020113 299.518125 
L 213.020113 22.318125 
" clip-path="url(#p5d521342a3)" style="fill: none; stroke: #cccccc; stroke-linecap: round"/>
     </g>
     <g id="text_3">
      <!-- 40 -->
      <g style="fill: #262626" transform="translate(206.021363 317.376406) scale(0.11 -0.11)">
       <defs>
        <path id="DejaVuSans-34" d="M 2419 4116 
L 825 1625 
L 2419 1625 
L 2419 4116 
z
M 2253 4666 
L 3047 4666 
L 3047 1625 
L 3713 1625 
L 3713 1100 
L 3047 1100 
L 3047 0 
L 2419 0 
L 2419 1100 
L 313 1100 
L 313 1709 
L 2253 4666 
z
" transform="scale(0.015625)"/>
       </defs>
       <use xlink:href="#DejaVuSans-34"/>
       <use xlink:href="#DejaVuSans-30" transform="translate(63.623047 0)"/>
      </g>
     </g>
    </g>
    <g id="xtick_4">
     <g id="line2d_4">
      <path d="M 286.805237 299.518125 
L 286.805237 22.318125 
" clip-path="url(#p5d521342a3)" style="fill: none; stroke: #cccccc; stroke-linecap: round"/>
     </g>
     <g id="text_4">
      <!-- 60 -->
      <g style="fill: #262626" transform="translate(279.806487 317.376406) scale(0.11 -0.11)">
       <defs>
        <path id="DejaVuSans-36" d="M 2113 2584 
Q 1688 2584 1439 2293 
Q 1191 2003 1191 1497 
Q 1191 994 1439 701 
Q 1688 409 2113 409 
Q 2538 409 2786 701 
Q 3034 994 3034 1497 
Q 3034 2003 2786 2293 
Q 2538 2584 2113 2584 
z
M 3366 4563 
L 3366 3988 
Q 3128 4100 2886 4159 
Q 2644 4219 2406 4219 
Q 1781 4219 1451 3797 
Q 1122 3375 1075 2522 
Q 1259 2794 1537 2939 
Q 1816 3084 2150 3084 
Q 2853 3084 3261 2657 
Q 3669 2231 3669 1497 
Q 3669 778 3244 343 
Q 2819 -91 2113 -91 
Q 1303 -91 875 529 
Q 447 1150 447 2328 
Q 447 3434 972 4092 
Q 1497 4750 2381 4750 
Q 2619 4750 2861 4703 
Q 3103 4656 3366 4563 
z
" transform="scale(0.015625)"/>
       </defs>
       <use xlink:href="#DejaVuSans-36"/>
       <use xlink:href="#DejaVuSans-30" transform="translate(63.623047 0)"/>
      </g>
     </g>
    </g>
    <g id="xtick_5">
     <g id="line2d_5">
      <path d="M 360.590361 299.518125 
L 360.590361 22.318125 
" clip-path="url(#p5d521342a3)" style="fill: none; stroke: #cccccc; stroke-linecap: round"/>
     </g>
     <g id="text_5">
      <!-- 80 -->
      <g style="fill: #262626" transform="translate(353.591611 317.376406) scale(0.11 -0.11)">
       <defs>
        <path id="DejaVuSans-38" d="M 2034 2216 
Q 1584 2216 1326 1975 
Q 1069 1734 1069 1313 
Q 1069 891 1326 650 
Q 1584 409 2034 409 
Q 2484 409 2743 651 
Q 3003 894 3003 1313 
Q 3003 1734 2745 1975 
Q 2488 2216 2034 2216 
z
M 1403 2484 
Q 997 2584 770 2862 
Q 544 3141 544 3541 
Q 544 4100 942 4425 
Q 1341 4750 2034 4750 
Q 2731 4750 3128 4425 
Q 3525 4100 3525 3541 
Q 3525 3141 3298 2862 
Q 3072 2584 2669 2484 
Q 3125 2378 3379 2068 
Q 3634 1759 3634 1313 
Q 3634 634 3220 271 
Q 2806 -91 2034 -91 
Q 1263 -91 848 271 
Q 434 634 434 1313 
Q 434 1759 690 2068 
Q 947 2378 1403 2484 
z
M 1172 3481 
Q 1172 3119 1398 2916 
Q 1625 2713 2034 2713 
Q 2441 2713 2670 2916 
Q 2900 3119 2900 3481 
Q 2900 3844 2670 4047 
Q 2441 4250 2034 4250 
Q 1625 4250 1398 4047 
Q 1172 3844 1172 3481 
z
" transform="scale(0.015625)"/>
       </defs>
       <use xlink:href="#DejaVuSans-38"/>
       <use xlink:href="#DejaVuSans-30" transform="translate(63.623047 0)"/>
      </g>
     </g>
    </g>
    <g id="xtick_6">
     <g id="line2d_6">
      <path d="M 434.375485 299.518125 
L 434.375485 22.318125 
" clip-path="url(#p5d521342a3)" style="fill: none; stroke: #cccccc; stroke-linecap: round"/>
     </g>
     <g id="text_6">
      <!-- 100 -->
      <g style="fill: #262626" transform="translate(423.87736 317.376406) scale(0.11 -0.11)">
       <defs>
        <path id="DejaVuSans-31" d="M 794 531 
L 1825 531 
L 1825 4091 
L 703 3866 
L 703 4441 
L 1819 4666 
L 2450 4666 
L 2450 531 
L 3481 531 
L 3481 0 
L 794 0 
L 794 531 
z
" transform="scale(0.015625)"/>
       </defs>
       <use xlink:href="#DejaVuSans-31"/>
       <use xlink:href="#DejaVuSans-30" transform="translate(63.623047 0)"/>
       <use xlink:href="#DejaVuSans-30" transform="translate(127.246094 0)"/>
      </g>
     </g>
    </g>
    <g id="text_7">
     <!-- SIO2 -->
     <g style="fill: #262626" transform="translate(265.88625 332.782188) scale(0.12 -0.12)">
      <defs>
       <path id="DejaVuSans-53" d="M 3425 4513 
L 3425 3897 
Q 3066 4069 2747 4153 
Q 2428 4238 2131 4238 
Q 1616 4238 1336 4038 
Q 1056 3838 1056 3469 
Q 1056 3159 1242 3001 
Q 1428 2844 1947 2747 
L 2328 2669 
Q 3034 2534 3370 2195 
Q 3706 1856 3706 1288 
Q 3706 609 3251 259 
Q 2797 -91 1919 -91 
Q 1588 -91 1214 -16 
Q 841 59 441 206 
L 441 856 
Q 825 641 1194 531 
Q 1563 422 1919 422 
Q 2459 422 2753 634 
Q 3047 847 3047 1241 
Q 3047 1584 2836 1778 
Q 2625 1972 2144 2069 
L 1759 2144 
Q 1053 2284 737 2584 
Q 422 2884 422 3419 
Q 422 4038 858 4394 
Q 1294 4750 2059 4750 
Q 2388 4750 2728 4690 
Q 3069 4631 3425 4513 
z
" transform="scale(0.015625)"/>
       <path id="DejaVuSans-49" d="M 628 4666 
L 1259 4666 
L 1259 0 
L 628 0 
L 628 4666 
z
" transform="scale(0.015625)"/>
       <path id="DejaVuSans-4f" d="M 2522 4238 
Q 1834 4238 1429 3725 
Q 1025 3213 1025 2328 
Q 1025 1447 1429 934 
Q 1834 422 2522 422 
Q 3209 422 3611 934 
Q 4013 1447 4013 2328 
Q 4013 3213 3611 3725 
Q 3209 4238 2522 4238 
z
M 2522 4750 
Q 3503 4750 4090 4092 
Q 4678 3434 4678 2328 
Q 4678 1225 4090 567 
Q 3503 -91 2522 -91 
Q 1538 -91 948 565 
Q 359 1222 359 2328 
Q 359 3434 948 4092 
Q 1538 4750 2522 4750 
z
" transform="scale(0.015625)"/>
      </defs>
      <use xlink:href="#DejaVuSans-53"/>
      <use xlink:href="#DejaVuSans-49" transform="translate(63.476562 0)"/>
      <use xlink:href="#DejaVuSans-4f" transform="translate(92.96875 0)"/>
      <use xlink:href="#DejaVuSans-32" transform="translate(171.679688 0)"/>
     </g>
    </g>
   </g>
   <g id="matplotlib.axis_2">
    <g id="ytick_1">
     <g id="line2d_7">
      <path d="M 56.805938 299.518125 
L 503.205938 299.518125 
" clip-path="url(#p5d521342a3)" style="fill: none; stroke: #cccccc; stroke-linecap: round"/>
     </g>
     <g id="text_8">
      <!-- 0.00 -->
      <g style="fill: #262626" transform="translate(22.81375 303.697266) scale(0.11 -0.11)">
       <defs>
        <path id="DejaVuSans-2e" d="M 684 794 
L 1344 794 
L 1344 0 
L 684 0 
L 684 794 
z
" transform="scale(0.015625)"/>
       </defs>
       <use xlink:href="#DejaVuSans-30"/>
       <use xlink:href="#DejaVuSans-2e" transform="translate(63.623047 0)"/>
       <use xlink:href="#DejaVuSans-30" transform="translate(95.410156 0)"/>
       <use xlink:href="#DejaVuSans-30" transform="translate(159.033203 0)"/>
      </g>
     </g>
    </g>
    <g id="ytick_2">
     <g id="line2d_8">
      <path d="M 56.805938 253.132931 
L 503.205938 253.132931 
" clip-path="url(#p5d521342a3)" style="fill: none; stroke: #cccccc; stroke-linecap: round"/>
     </g>
     <g id="text_9">
      <!-- 0.02 -->
      <g style="fill: #262626" transform="translate(22.81375 257.312072) scale(0.11 -0.11)">
       <use xlink:href="#DejaVuSans-30"/>
       <use xlink:href="#DejaVuSans-2e" transform="translate(63.623047 0)"/>
       <use xlink:href="#DejaVuSans-30" transform="translate(95.410156 0)"/>
       <use xlink:href="#DejaVuSans-32" transform="translate(159.033203 0)"/>
      </g>
     </g>
    </g>
    <g id="ytick_3">
     <g id="line2d_9">
      <path d="M 56.805938 206.747737 
L 503.205938 206.747737 
" clip-path="url(#p5d521342a3)" style="fill: none; stroke: #cccccc; stroke-linecap: round"/>
     </g>
     <g id="text_10">
      <!-- 0.04 -->
      <g style="fill: #262626" transform="translate(22.81375 210.926878) scale(0.11 -0.11)">
       <use xlink:href="#DejaVuSans-30"/>
       <use xlink:href="#DejaVuSans-2e" transform="translate(63.623047 0)"/>
       <use xlink:href="#DejaVuSans-30" transform="translate(95.410156 0)"/>
       <use xlink:href="#DejaVuSans-34" transform="translate(159.033203 0)"/>
      </g>
     </g>
    </g>
    <g id="ytick_4">
     <g id="line2d_10">
      <path d="M 56.805938 160.362543 
L 503.205938 160.362543 
" clip-path="url(#p5d521342a3)" style="fill: none; stroke: #cccccc; stroke-linecap: round"/>
     </g>
     <g id="text_11">
      <!-- 0.06 -->
      <g style="fill: #262626" transform="translate(22.81375 164.541684) scale(0.11 -0.11)">
       <use xlink:href="#DejaVuSans-30"/>
       <use xlink:href="#DejaVuSans-2e" transform="translate(63.623047 0)"/>
       <use xlink:href="#DejaVuSans-30" transform="translate(95.410156 0)"/>
       <use xlink:href="#DejaVuSans-36" transform="translate(159.033203 0)"/>
      </g>
     </g>
    </g>
    <g id="ytick_5">
     <g id="line2d_11">
      <path d="M 56.805938 113.977349 
L 503.205938 113.977349 
" clip-path="url(#p5d521342a3)" style="fill: none; stroke: #cccccc; stroke-linecap: round"/>
     </g>
     <g id="text_12">
      <!-- 0.08 -->
      <g style="fill: #262626" transform="translate(22.81375 118.15649) scale(0.11 -0.11)">
       <use xlink:href="#DejaVuSans-30"/>
       <use xlink:href="#DejaVuSans-2e" transform="translate(63.623047 0)"/>
       <use xlink:href="#DejaVuSans-30" transform="translate(95.410156 0)"/>
       <use xlink:href="#DejaVuSans-38" transform="translate(159.033203 0)"/>
      </g>
     </g>
    </g>
    <g id="ytick_6">
     <g id="line2d_12">
      <path d="M 56.805938 67.592155 
L 503.205938 67.592155 
" clip-path="url(#p5d521342a3)" style="fill: none; stroke: #cccccc; stroke-linecap: round"/>
     </g>
     <g id="text_13">
      <!-- 0.10 -->
      <g style="fill: #262626" transform="translate(22.81375 71.771295) scale(0.11 -0.11)">
       <use xlink:href="#DejaVuSans-30"/>
       <use xlink:href="#DejaVuSans-2e" transform="translate(63.623047 0)"/>
       <use xlink:href="#DejaVuSans-31" transform="translate(95.410156 0)"/>
       <use xlink:href="#DejaVuSans-30" transform="translate(159.033203 0)"/>
      </g>
     </g>
    </g>
    <g id="text_14">
     <!-- Density -->
     <g style="fill: #262626" transform="translate(16.318125 183.728438) rotate(-90) scale(0.12 -0.12)">
      <defs>
       <path id="DejaVuSans-44" d="M 1259 4147 
L 1259 519 
L 2022 519 
Q 2988 519 3436 956 
Q 3884 1394 3884 2338 
Q 3884 3275 3436 3711 
Q 2988 4147 2022 4147 
L 1259 4147 
z
M 628 4666 
L 1925 4666 
Q 3281 4666 3915 4102 
Q 4550 3538 4550 2338 
Q 4550 1131 3912 565 
Q 3275 0 1925 0 
L 628 0 
L 628 4666 
z
" transform="scale(0.015625)"/>
       <path id="DejaVuSans-65" d="M 3597 1894 
L 3597 1613 
L 953 1613 
Q 991 1019 1311 708 
Q 1631 397 2203 397 
Q 2534 397 2845 478 
Q 3156 559 3463 722 
L 3463 178 
Q 3153 47 2828 -22 
Q 2503 -91 2169 -91 
Q 1331 -91 842 396 
Q 353 884 353 1716 
Q 353 2575 817 3079 
Q 1281 3584 2069 3584 
Q 2775 3584 3186 3129 
Q 3597 2675 3597 1894 
z
M 3022 2063 
Q 3016 2534 2758 2815 
Q 2500 3097 2075 3097 
Q 1594 3097 1305 2825 
Q 1016 2553 972 2059 
L 3022 2063 
z
" transform="scale(0.015625)"/>
       <path id="DejaVuSans-6e" d="M 3513 2113 
L 3513 0 
L 2938 0 
L 2938 2094 
Q 2938 2591 2744 2837 
Q 2550 3084 2163 3084 
Q 1697 3084 1428 2787 
Q 1159 2491 1159 1978 
L 1159 0 
L 581 0 
L 581 3500 
L 1159 3500 
L 1159 2956 
Q 1366 3272 1645 3428 
Q 1925 3584 2291 3584 
Q 2894 3584 3203 3211 
Q 3513 2838 3513 2113 
z
" transform="scale(0.015625)"/>
       <path id="DejaVuSans-73" d="M 2834 3397 
L 2834 2853 
Q 2591 2978 2328 3040 
Q 2066 3103 1784 3103 
Q 1356 3103 1142 2972 
Q 928 2841 928 2578 
Q 928 2378 1081 2264 
Q 1234 2150 1697 2047 
L 1894 2003 
Q 2506 1872 2764 1633 
Q 3022 1394 3022 966 
Q 3022 478 2636 193 
Q 2250 -91 1575 -91 
Q 1294 -91 989 -36 
Q 684 19 347 128 
L 347 722 
Q 666 556 975 473 
Q 1284 391 1588 391 
Q 1994 391 2212 530 
Q 2431 669 2431 922 
Q 2431 1156 2273 1281 
Q 2116 1406 1581 1522 
L 1381 1569 
Q 847 1681 609 1914 
Q 372 2147 372 2553 
Q 372 3047 722 3315 
Q 1072 3584 1716 3584 
Q 2034 3584 2315 3537 
Q 2597 3491 2834 3397 
z
" transform="scale(0.015625)"/>
       <path id="DejaVuSans-69" d="M 603 3500 
L 1178 3500 
L 1178 0 
L 603 0 
L 603 3500 
z
M 603 4863 
L 1178 4863 
L 1178 4134 
L 603 4134 
L 603 4863 
z
" transform="scale(0.015625)"/>
       <path id="DejaVuSans-74" d="M 1172 4494 
L 1172 3500 
L 2356 3500 
L 2356 3053 
L 1172 3053 
L 1172 1153 
Q 1172 725 1289 603 
Q 1406 481 1766 481 
L 2356 481 
L 2356 0 
L 1766 0 
Q 1100 0 847 248 
Q 594 497 594 1153 
L 594 3053 
L 172 3053 
L 172 3500 
L 594 3500 
L 594 4494 
L 1172 4494 
z
" transform="scale(0.015625)"/>
       <path id="DejaVuSans-79" d="M 2059 -325 
Q 1816 -950 1584 -1140 
Q 1353 -1331 966 -1331 
L 506 -1331 
L 506 -850 
L 844 -850 
Q 1081 -850 1212 -737 
Q 1344 -625 1503 -206 
L 1606 56 
L 191 3500 
L 800 3500 
L 1894 763 
L 2988 3500 
L 3597 3500 
L 2059 -325 
z
" transform="scale(0.015625)"/>
      </defs>
      <use xlink:href="#DejaVuSans-44"/>
      <use xlink:href="#DejaVuSans-65" transform="translate(77.001953 0)"/>
      <use xlink:href="#DejaVuSans-6e" transform="translate(138.525391 0)"/>
      <use xlink:href="#DejaVuSans-73" transform="translate(201.904297 0)"/>
      <use xlink:href="#DejaVuSans-69" transform="translate(254.003906 0)"/>
      <use xlink:href="#DejaVuSans-74" transform="translate(281.787109 0)"/>
      <use xlink:href="#DejaVuSans-79" transform="translate(320.996094 0)"/>
     </g>
    </g>
   </g>
   <g id="patch_3">
    <path d="M 77.096847 299.518125 
L 80.786103 299.518125 
L 80.786103 299.518125 
L 77.096847 299.518125 
z
" clip-path="url(#p5d521342a3)" style="fill: #800080; fill-opacity: 0.5; stroke: #ffffff; stroke-width: 0.368926; stroke-linejoin: miter"/>
   </g>
   <g id="patch_4">
    <path d="M 80.786103 299.518125 
L 84.475359 299.518125 
L 84.475359 299.518125 
L 80.786103 299.518125 
z
" clip-path="url(#p5d521342a3)" style="fill: #800080; fill-opacity: 0.5; stroke: #ffffff; stroke-width: 0.368926; stroke-linejoin: miter"/>
   </g>
   <g id="patch_5">
    <path d="M 84.475359 299.518125 
L 88.164615 299.518125 
L 88.164615 299.518125 
L 84.475359 299.518125 
z
" clip-path="url(#p5d521342a3)" style="fill: #800080; fill-opacity: 0.5; stroke: #ffffff; stroke-width: 0.368926; stroke-linejoin: miter"/>
   </g>
   <g id="patch_6">
    <path d="M 88.164615 299.518125 
L 91.853871 299.518125 
L 91.853871 299.518125 
L 88.164615 299.518125 
z
" clip-path="url(#p5d521342a3)" style="fill: #800080; fill-opacity: 0.5; stroke: #ffffff; stroke-width: 0.368926; stroke-linejoin: miter"/>
   </g>
   <g id="patch_7">
    <path d="M 91.853871 299.518125 
L 95.543128 299.518125 
L 95.543128 299.124095 
L 91.853871 299.124095 
z
" clip-path="url(#p5d521342a3)" style="fill: #800080; fill-opacity: 0.5; stroke: #ffffff; stroke-width: 0.368926; stroke-linejoin: miter"/>
   </g>
   <g id="patch_8">
    <path d="M 95.543128 299.518125 
L 99.232384 299.518125 
L 99.232384 299.518125 
L 95.543128 299.518125 
z
" clip-path="url(#p5d521342a3)" style="fill: #800080; fill-opacity: 0.5; stroke: #ffffff; stroke-width: 0.368926; stroke-linejoin: miter"/>
   </g>
   <g id="patch_9">
    <path d="M 99.232384 299.518125 
L 102.92164 299.518125 
L 102.92164 299.518125 
L 99.232384 299.518125 
z
" clip-path="url(#p5d521342a3)" style="fill: #800080; fill-opacity: 0.5; stroke: #ffffff; stroke-width: 0.368926; stroke-linejoin: miter"/>
   </g>
   <g id="patch_10">
    <path d="M 102.92164 299.518125 
L 106.610896 299.518125 
L 106.610896 299.518125 
L 102.92164 299.518125 
z
" clip-path="url(#p5d521342a3)" style="fill: #800080; fill-opacity: 0.5; stroke: #ffffff; stroke-width: 0.368926; stroke-linejoin: miter"/>
   </g>
   <g id="patch_11">
    <path d="M 106.610896 299.518125 
L 110.300152 299.518125 
L 110.300152 299.518125 
L 106.610896 299.518125 
z
" clip-path="url(#p5d521342a3)" style="fill: #800080; fill-opacity: 0.5; stroke: #ffffff; stroke-width: 0.368926; stroke-linejoin: miter"/>
   </g>
   <g id="patch_12">
    <path d="M 110.300152 299.518125 
L 113.989409 299.518125 
L 113.989409 299.518125 
L 110.300152 299.518125 
z
" clip-path="url(#p5d521342a3)" style="fill: #800080; fill-opacity: 0.5; stroke: #ffffff; stroke-width: 0.368926; stroke-linejoin: miter"/>
   </g>
   <g id="patch_13">
    <path d="M 113.989409 299.518125 
L 117.678665 299.518125 
L 117.678665 299.518125 
L 113.989409 299.518125 
z
" clip-path="url(#p5d521342a3)" style="fill: #800080; fill-opacity: 0.5; stroke: #ffffff; stroke-width: 0.368926; stroke-linejoin: miter"/>
   </g>
   <g id="patch_14">
    <path d="M 117.678665 299.518125 
L 121.367921 299.518125 
L 121.367921 299.518125 
L 117.678665 299.518125 
z
" clip-path="url(#p5d521342a3)" style="fill: #800080; fill-opacity: 0.5; stroke: #ffffff; stroke-width: 0.368926; stroke-linejoin: miter"/>
   </g>
   <g id="patch_15">
    <path d="M 121.367921 299.518125 
L 125.057177 299.518125 
L 125.057177 299.518125 
L 121.367921 299.518125 
z
" clip-path="url(#p5d521342a3)" style="fill: #800080; fill-opacity: 0.5; stroke: #ffffff; stroke-width: 0.368926; stroke-linejoin: miter"/>
   </g>
   <g id="patch_16">
    <path d="M 125.057177 299.518125 
L 128.746433 299.518125 
L 128.746433 299.518125 
L 125.057177 299.518125 
z
" clip-path="url(#p5d521342a3)" style="fill: #800080; fill-opacity: 0.5; stroke: #ffffff; stroke-width: 0.368926; stroke-linejoin: miter"/>
   </g>
   <g id="patch_17">
    <path d="M 128.746433 299.518125 
L 132.43569 299.518125 
L 132.43569 299.518125 
L 128.746433 299.518125 
z
" clip-path="url(#p5d521342a3)" style="fill: #800080; fill-opacity: 0.5; stroke: #ffffff; stroke-width: 0.368926; stroke-linejoin: miter"/>
   </g>
   <g id="patch_18">
    <path d="M 132.43569 299.518125 
L 136.124946 299.518125 
L 136.124946 299.518125 
L 132.43569 299.518125 
z
" clip-path="url(#p5d521342a3)" style="fill: #800080; fill-opacity: 0.5; stroke: #ffffff; stroke-width: 0.368926; stroke-linejoin: miter"/>
   </g>
   <g id="patch_19">
    <path d="M 136.124946 299.518125 
L 139.814202 299.518125 
L 139.814202 298.730065 
L 136.124946 298.730065 
z
" clip-path="url(#p5d521342a3)" style="fill: #800080; fill-opacity: 0.5; stroke: #ffffff; stroke-width: 0.368926; stroke-linejoin: miter"/>
   </g>
   <g id="patch_20">
    <path d="M 139.814202 299.518125 
L 143.503458 299.518125 
L 143.503458 293.213647 
L 139.814202 293.213647 
z
" clip-path="url(#p5d521342a3)" style="fill: #800080; fill-opacity: 0.5; stroke: #ffffff; stroke-width: 0.368926; stroke-linejoin: miter"/>
   </g>
   <g id="patch_21">
    <path d="M 143.503458 299.518125 
L 147.192714 299.518125 
L 147.192714 270.753946 
L 143.503458 270.753946 
z
" clip-path="url(#p5d521342a3)" style="fill: #800080; fill-opacity: 0.5; stroke: #ffffff; stroke-width: 0.368926; stroke-linejoin: miter"/>
   </g>
   <g id="patch_22">
    <path d="M 147.192714 299.518125 
L 150.881971 299.518125 
L 150.881971 233.32111 
L 147.192714 233.32111 
z
" clip-path="url(#p5d521342a3)" style="fill: #800080; fill-opacity: 0.5; stroke: #ffffff; stroke-width: 0.368926; stroke-linejoin: miter"/>
   </g>
   <g id="patch_23">
    <path d="M 150.881971 299.518125 
L 154.571227 299.518125 
L 154.571227 234.897229 
L 150.881971 234.897229 
z
" clip-path="url(#p5d521342a3)" style="fill: #800080; fill-opacity: 0.5; stroke: #ffffff; stroke-width: 0.368926; stroke-linejoin: miter"/>
   </g>
   <g id="patch_24">
    <path d="M 154.571227 299.518125 
L 158.260483 299.518125 
L 158.260483 243.565886 
L 154.571227 243.565886 
z
" clip-path="url(#p5d521342a3)" style="fill: #800080; fill-opacity: 0.5; stroke: #ffffff; stroke-width: 0.368926; stroke-linejoin: miter"/>
   </g>
   <g id="patch_25">
    <path d="M 158.260483 299.518125 
L 161.949739 299.518125 
L 161.949739 254.204692 
L 158.260483 254.204692 
z
" clip-path="url(#p5d521342a3)" style="fill: #800080; fill-opacity: 0.5; stroke: #ffffff; stroke-width: 0.368926; stroke-linejoin: miter"/>
   </g>
   <g id="patch_26">
    <path d="M 161.949739 299.518125 
L 165.638995 299.518125 
L 165.638995 264.449468 
L 161.949739 264.449468 
z
" clip-path="url(#p5d521342a3)" style="fill: #800080; fill-opacity: 0.5; stroke: #ffffff; stroke-width: 0.368926; stroke-linejoin: miter"/>
   </g>
   <g id="patch_27">
    <path d="M 165.638995 299.518125 
L 169.328252 299.518125 
L 169.328252 265.631558 
L 165.638995 265.631558 
z
" clip-path="url(#p5d521342a3)" style="fill: #800080; fill-opacity: 0.5; stroke: #ffffff; stroke-width: 0.368926; stroke-linejoin: miter"/>
   </g>
   <g id="patch_28">
    <path d="M 169.328252 299.518125 
L 173.017508 299.518125 
L 173.017508 268.783797 
L 169.328252 268.783797 
z
" clip-path="url(#p5d521342a3)" style="fill: #800080; fill-opacity: 0.5; stroke: #ffffff; stroke-width: 0.368926; stroke-linejoin: miter"/>
   </g>
   <g id="patch_29">
    <path d="M 173.017508 299.518125 
L 176.706764 299.518125 
L 176.706764 274.694244 
L 173.017508 274.694244 
z
" clip-path="url(#p5d521342a3)" style="fill: #800080; fill-opacity: 0.5; stroke: #ffffff; stroke-width: 0.368926; stroke-linejoin: miter"/>
   </g>
   <g id="patch_30">
    <path d="M 176.706764 299.518125 
L 180.39602 299.518125 
L 180.39602 271.542006 
L 176.706764 271.542006 
z
" clip-path="url(#p5d521342a3)" style="fill: #800080; fill-opacity: 0.5; stroke: #ffffff; stroke-width: 0.368926; stroke-linejoin: miter"/>
   </g>
   <g id="patch_31">
    <path d="M 180.39602 299.518125 
L 184.085276 299.518125 
L 184.085276 279.028573 
L 180.39602 279.028573 
z
" clip-path="url(#p5d521342a3)" style="fill: #800080; fill-opacity: 0.5; stroke: #ffffff; stroke-width: 0.368926; stroke-linejoin: miter"/>
   </g>
   <g id="patch_32">
    <path d="M 184.085276 299.518125 
L 187.774533 299.518125 
L 187.774533 275.482304 
L 184.085276 275.482304 
z
" clip-path="url(#p5d521342a3)" style="fill: #800080; fill-opacity: 0.5; stroke: #ffffff; stroke-width: 0.368926; stroke-linejoin: miter"/>
   </g>
   <g id="patch_33">
    <path d="M 187.774533 299.518125 
L 191.463789 299.518125 
L 191.463789 266.025588 
L 187.774533 266.025588 
z
" clip-path="url(#p5d521342a3)" style="fill: #800080; fill-opacity: 0.5; stroke: #ffffff; stroke-width: 0.368926; stroke-linejoin: miter"/>
   </g>
   <g id="patch_34">
    <path d="M 191.463789 299.518125 
L 195.153045 299.518125 
L 195.153045 262.479319 
L 191.463789 262.479319 
z
" clip-path="url(#p5d521342a3)" style="fill: #800080; fill-opacity: 0.5; stroke: #ffffff; stroke-width: 0.368926; stroke-linejoin: miter"/>
   </g>
   <g id="patch_35">
    <path d="M 195.153045 299.518125 
L 198.842301 299.518125 
L 198.842301 256.568871 
L 195.153045 256.568871 
z
" clip-path="url(#p5d521342a3)" style="fill: #800080; fill-opacity: 0.5; stroke: #ffffff; stroke-width: 0.368926; stroke-linejoin: miter"/>
   </g>
   <g id="patch_36">
    <path d="M 198.842301 299.518125 
L 202.531557 299.518125 
L 202.531557 246.324095 
L 198.842301 246.324095 
z
" clip-path="url(#p5d521342a3)" style="fill: #800080; fill-opacity: 0.5; stroke: #ffffff; stroke-width: 0.368926; stroke-linejoin: miter"/>
   </g>
   <g id="patch_37">
    <path d="M 202.531557 299.518125 
L 206.220814 299.518125 
L 206.220814 226.228573 
L 202.531557 226.228573 
z
" clip-path="url(#p5d521342a3)" style="fill: #800080; fill-opacity: 0.5; stroke: #ffffff; stroke-width: 0.368926; stroke-linejoin: miter"/>
   </g>
   <g id="patch_38">
    <path d="M 206.220814 299.518125 
L 209.91007 299.518125 
L 209.91007 195.494244 
L 206.220814 195.494244 
z
" clip-path="url(#p5d521342a3)" style="fill: #800080; fill-opacity: 0.5; stroke: #ffffff; stroke-width: 0.368926; stroke-linejoin: miter"/>
   </g>
   <g id="patch_39">
    <path d="M 209.91007 299.518125 
L 213.599326 299.518125 
L 213.599326 124.962901 
L 209.91007 124.962901 
z
" clip-path="url(#p5d521342a3)" style="fill: #800080; fill-opacity: 0.5; stroke: #ffffff; stroke-width: 0.368926; stroke-linejoin: miter"/>
   </g>
   <g id="patch_40">
    <path d="M 213.599326 299.518125 
L 217.288582 299.518125 
L 217.288582 74.92111 
L 213.599326 74.92111 
z
" clip-path="url(#p5d521342a3)" style="fill: #800080; fill-opacity: 0.5; stroke: #ffffff; stroke-width: 0.368926; stroke-linejoin: miter"/>
   </g>
   <g id="patch_41">
    <path d="M 217.288582 299.518125 
L 220.977838 299.518125 
L 220.977838 35.518125 
L 217.288582 35.518125 
z
" clip-path="url(#p5d521342a3)" style="fill: #800080; fill-opacity: 0.5; stroke: #ffffff; stroke-width: 0.368926; stroke-linejoin: miter"/>
   </g>
   <g id="patch_42">
    <path d="M 220.977838 299.518125 
L 224.667095 299.518125 
L 224.667095 43.398722 
L 220.977838 43.398722 
z
" clip-path="url(#p5d521342a3)" style="fill: #800080; fill-opacity: 0.5; stroke: #ffffff; stroke-width: 0.368926; stroke-linejoin: miter"/>
   </g>
   <g id="patch_43">
    <path d="M 224.667095 299.518125 
L 228.356351 299.518125 
L 228.356351 89.106185 
L 224.667095 89.106185 
z
" clip-path="url(#p5d521342a3)" style="fill: #800080; fill-opacity: 0.5; stroke: #ffffff; stroke-width: 0.368926; stroke-linejoin: miter"/>
   </g>
   <g id="patch_44">
    <path d="M 228.356351 299.518125 
L 232.045607 299.518125 
L 232.045607 134.025588 
L 228.356351 134.025588 
z
" clip-path="url(#p5d521342a3)" style="fill: #800080; fill-opacity: 0.5; stroke: #ffffff; stroke-width: 0.368926; stroke-linejoin: miter"/>
   </g>
   <g id="patch_45">
    <path d="M 232.045607 299.518125 
L 235.734863 299.518125 
L 235.734863 215.983797 
L 232.045607 215.983797 
z
" clip-path="url(#p5d521342a3)" style="fill: #800080; fill-opacity: 0.5; stroke: #ffffff; stroke-width: 0.368926; stroke-linejoin: miter"/>
   </g>
   <g id="patch_46">
    <path d="M 235.734863 299.518125 
L 239.424119 299.518125 
L 239.424119 255.386782 
L 235.734863 255.386782 
z
" clip-path="url(#p5d521342a3)" style="fill: #800080; fill-opacity: 0.5; stroke: #ffffff; stroke-width: 0.368926; stroke-linejoin: miter"/>
   </g>
   <g id="patch_47">
    <path d="M 239.424119 299.518125 
L 243.113376 299.518125 
L 243.113376 274.694244 
L 239.424119 274.694244 
z
" clip-path="url(#p5d521342a3)" style="fill: #800080; fill-opacity: 0.5; stroke: #ffffff; stroke-width: 0.368926; stroke-linejoin: miter"/>
   </g>
   <g id="patch_48">
    <path d="M 243.113376 299.518125 
L 246.802632 299.518125 
L 246.802632 288.485289 
L 243.113376 288.485289 
z
" clip-path="url(#p5d521342a3)" style="fill: #800080; fill-opacity: 0.5; stroke: #ffffff; stroke-width: 0.368926; stroke-linejoin: miter"/>
   </g>
   <g id="patch_49">
    <path d="M 246.802632 299.518125 
L 250.491888 299.518125 
L 250.491888 284.939021 
L 246.802632 284.939021 
z
" clip-path="url(#p5d521342a3)" style="fill: #800080; fill-opacity: 0.5; stroke: #ffffff; stroke-width: 0.368926; stroke-linejoin: miter"/>
   </g>
   <g id="patch_50">
    <path d="M 250.491888 299.518125 
L 254.181144 299.518125 
L 254.181144 294.395737 
L 250.491888 294.395737 
z
" clip-path="url(#p5d521342a3)" style="fill: #800080; fill-opacity: 0.5; stroke: #ffffff; stroke-width: 0.368926; stroke-linejoin: miter"/>
   </g>
   <g id="patch_51">
    <path d="M 254.181144 299.518125 
L 257.8704 299.518125 
L 257.8704 292.425588 
L 254.181144 292.425588 
z
" clip-path="url(#p5d521342a3)" style="fill: #800080; fill-opacity: 0.5; stroke: #ffffff; stroke-width: 0.368926; stroke-linejoin: miter"/>
   </g>
   <g id="patch_52">
    <path d="M 257.8704 299.518125 
L 261.559657 299.518125 
L 261.559657 295.971856 
L 257.8704 295.971856 
z
" clip-path="url(#p5d521342a3)" style="fill: #800080; fill-opacity: 0.5; stroke: #ffffff; stroke-width: 0.368926; stroke-linejoin: miter"/>
   </g>
   <g id="patch_53">
    <path d="M 261.559657 299.518125 
L 265.248913 299.518125 
L 265.248913 295.577826 
L 261.559657 295.577826 
z
" clip-path="url(#p5d521342a3)" style="fill: #800080; fill-opacity: 0.5; stroke: #ffffff; stroke-width: 0.368926; stroke-linejoin: miter"/>
   </g>
   <g id="patch_54">
    <path d="M 265.248913 299.518125 
L 268.938169 299.518125 
L 268.938169 296.365886 
L 265.248913 296.365886 
z
" clip-path="url(#p5d521342a3)" style="fill: #800080; fill-opacity: 0.5; stroke: #ffffff; stroke-width: 0.368926; stroke-linejoin: miter"/>
   </g>
   <g id="patch_55">
    <path d="M 268.938169 299.518125 
L 272.627425 299.518125 
L 272.627425 295.971856 
L 268.938169 295.971856 
z
" clip-path="url(#p5d521342a3)" style="fill: #800080; fill-opacity: 0.5; stroke: #ffffff; stroke-width: 0.368926; stroke-linejoin: miter"/>
   </g>
   <g id="patch_56">
    <path d="M 272.627425 299.518125 
L 276.316681 299.518125 
L 276.316681 298.730065 
L 272.627425 298.730065 
z
" clip-path="url(#p5d521342a3)" style="fill: #800080; fill-opacity: 0.5; stroke: #ffffff; stroke-width: 0.368926; stroke-linejoin: miter"/>
   </g>
   <g id="patch_57">
    <path d="M 276.316681 299.518125 
L 280.005937 299.518125 
L 280.005937 298.730065 
L 276.316681 298.730065 
z
" clip-path="url(#p5d521342a3)" style="fill: #800080; fill-opacity: 0.5; stroke: #ffffff; stroke-width: 0.368926; stroke-linejoin: miter"/>
   </g>
   <g id="patch_58">
    <path d="M 280.005938 299.518125 
L 283.695194 299.518125 
L 283.695194 298.730065 
L 280.005938 298.730065 
z
" clip-path="url(#p5d521342a3)" style="fill: #800080; fill-opacity: 0.5; stroke: #ffffff; stroke-width: 0.368926; stroke-linejoin: miter"/>
   </g>
   <g id="patch_59">
    <path d="M 283.695194 299.518125 
L 287.38445 299.518125 
L 287.38445 298.336035 
L 283.695194 298.336035 
z
" clip-path="url(#p5d521342a3)" style="fill: #800080; fill-opacity: 0.5; stroke: #ffffff; stroke-width: 0.368926; stroke-linejoin: miter"/>
   </g>
   <g id="patch_60">
    <path d="M 287.38445 299.518125 
L 291.073706 299.518125 
L 291.073706 299.518125 
L 287.38445 299.518125 
z
" clip-path="url(#p5d521342a3)" style="fill: #800080; fill-opacity: 0.5; stroke: #ffffff; stroke-width: 0.368926; stroke-linejoin: miter"/>
   </g>
   <g id="patch_61">
    <path d="M 291.073706 299.518125 
L 294.762962 299.518125 
L 294.762962 299.518125 
L 291.073706 299.518125 
z
" clip-path="url(#p5d521342a3)" style="fill: #800080; fill-opacity: 0.5; stroke: #ffffff; stroke-width: 0.368926; stroke-linejoin: miter"/>
   </g>
   <g id="patch_62">
    <path d="M 294.762962 299.518125 
L 298.452218 299.518125 
L 298.452218 299.124095 
L 294.762962 299.124095 
z
" clip-path="url(#p5d521342a3)" style="fill: #800080; fill-opacity: 0.5; stroke: #ffffff; stroke-width: 0.368926; stroke-linejoin: miter"/>
   </g>
   <g id="patch_63">
    <path d="M 298.452218 299.518125 
L 302.141475 299.518125 
L 302.141475 298.336035 
L 298.452218 298.336035 
z
" clip-path="url(#p5d521342a3)" style="fill: #800080; fill-opacity: 0.5; stroke: #ffffff; stroke-width: 0.368926; stroke-linejoin: miter"/>
   </g>
   <g id="patch_64">
    <path d="M 302.141475 299.518125 
L 305.830731 299.518125 
L 305.830731 299.518125 
L 302.141475 299.518125 
z
" clip-path="url(#p5d521342a3)" style="fill: #800080; fill-opacity: 0.5; stroke: #ffffff; stroke-width: 0.368926; stroke-linejoin: miter"/>
   </g>
   <g id="patch_65">
    <path d="M 305.830731 299.518125 
L 309.519987 299.518125 
L 309.519987 299.518125 
L 305.830731 299.518125 
z
" clip-path="url(#p5d521342a3)" style="fill: #800080; fill-opacity: 0.5; stroke: #ffffff; stroke-width: 0.368926; stroke-linejoin: miter"/>
   </g>
   <g id="patch_66">
    <path d="M 309.519987 299.518125 
L 313.209243 299.518125 
L 313.209243 299.518125 
L 309.519987 299.518125 
z
" clip-path="url(#p5d521342a3)" style="fill: #800080; fill-opacity: 0.5; stroke: #ffffff; stroke-width: 0.368926; stroke-linejoin: miter"/>
   </g>
   <g id="patch_67">
    <path d="M 313.209243 299.518125 
L 316.898499 299.518125 
L 316.898499 298.730065 
L 313.209243 298.730065 
z
" clip-path="url(#p5d521342a3)" style="fill: #800080; fill-opacity: 0.5; stroke: #ffffff; stroke-width: 0.368926; stroke-linejoin: miter"/>
   </g>
   <g id="patch_68">
    <path d="M 316.898499 299.518125 
L 320.587756 299.518125 
L 320.587756 299.518125 
L 316.898499 299.518125 
z
" clip-path="url(#p5d521342a3)" style="fill: #800080; fill-opacity: 0.5; stroke: #ffffff; stroke-width: 0.368926; stroke-linejoin: miter"/>
   </g>
   <g id="patch_69">
    <path d="M 320.587756 299.518125 
L 324.277012 299.518125 
L 324.277012 299.124095 
L 320.587756 299.124095 
z
" clip-path="url(#p5d521342a3)" style="fill: #800080; fill-opacity: 0.5; stroke: #ffffff; stroke-width: 0.368926; stroke-linejoin: miter"/>
   </g>
   <g id="patch_70">
    <path d="M 324.277012 299.518125 
L 327.966268 299.518125 
L 327.966268 299.124095 
L 324.277012 299.124095 
z
" clip-path="url(#p5d521342a3)" style="fill: #800080; fill-opacity: 0.5; stroke: #ffffff; stroke-width: 0.368926; stroke-linejoin: miter"/>
   </g>
   <g id="patch_71">
    <path d="M 327.966268 299.518125 
L 331.655524 299.518125 
L 331.655524 299.124095 
L 327.966268 299.124095 
z
" clip-path="url(#p5d521342a3)" style="fill: #800080; fill-opacity: 0.5; stroke: #ffffff; stroke-width: 0.368926; stroke-linejoin: miter"/>
   </g>
   <g id="patch_72">
    <path d="M 331.655524 299.518125 
L 335.34478 299.518125 
L 335.34478 299.518125 
L 331.655524 299.518125 
z
" clip-path="url(#p5d521342a3)" style="fill: #800080; fill-opacity: 0.5; stroke: #ffffff; stroke-width: 0.368926; stroke-linejoin: miter"/>
   </g>
   <g id="patch_73">
    <path d="M 335.34478 299.518125 
L 339.034037 299.518125 
L 339.034037 299.518125 
L 335.34478 299.518125 
z
" clip-path="url(#p5d521342a3)" style="fill: #800080; fill-opacity: 0.5; stroke: #ffffff; stroke-width: 0.368926; stroke-linejoin: miter"/>
   </g>
   <g id="patch_74">
    <path d="M 339.034037 299.518125 
L 342.723293 299.518125 
L 342.723293 299.518125 
L 339.034037 299.518125 
z
" clip-path="url(#p5d521342a3)" style="fill: #800080; fill-opacity: 0.5; stroke: #ffffff; stroke-width: 0.368926; stroke-linejoin: miter"/>
   </g>
   <g id="patch_75">
    <path d="M 342.723293 299.518125 
L 346.412549 299.518125 
L 346.412549 299.518125 
L 342.723293 299.518125 
z
" clip-path="url(#p5d521342a3)" style="fill: #800080; fill-opacity: 0.5; stroke: #ffffff; stroke-width: 0.368926; stroke-linejoin: miter"/>
   </g>
   <g id="patch_76">
    <path d="M 346.412549 299.518125 
L 350.101805 299.518125 
L 350.101805 298.730065 
L 346.412549 298.730065 
z
" clip-path="url(#p5d521342a3)" style="fill: #800080; fill-opacity: 0.5; stroke: #ffffff; stroke-width: 0.368926; stroke-linejoin: miter"/>
   </g>
   <g id="patch_77">
    <path d="M 350.101805 299.518125 
L 353.791061 299.518125 
L 353.791061 299.518125 
L 350.101805 299.518125 
z
" clip-path="url(#p5d521342a3)" style="fill: #800080; fill-opacity: 0.5; stroke: #ffffff; stroke-width: 0.368926; stroke-linejoin: miter"/>
   </g>
   <g id="patch_78">
    <path d="M 353.791061 299.518125 
L 357.480318 299.518125 
L 357.480318 299.518125 
L 353.791061 299.518125 
z
" clip-path="url(#p5d521342a3)" style="fill: #800080; fill-opacity: 0.5; stroke: #ffffff; stroke-width: 0.368926; stroke-linejoin: miter"/>
   </g>
   <g id="patch_79">
    <path d="M 357.480318 299.518125 
L 361.169574 299.518125 
L 361.169574 299.518125 
L 357.480318 299.518125 
z
" clip-path="url(#p5d521342a3)" style="fill: #800080; fill-opacity: 0.5; stroke: #ffffff; stroke-width: 0.368926; stroke-linejoin: miter"/>
   </g>
   <g id="patch_80">
    <path d="M 361.169574 299.518125 
L 364.85883 299.518125 
L 364.85883 299.518125 
L 361.169574 299.518125 
z
" clip-path="url(#p5d521342a3)" style="fill: #800080; fill-opacity: 0.5; stroke: #ffffff; stroke-width: 0.368926; stroke-linejoin: miter"/>
   </g>
   <g id="patch_81">
    <path d="M 364.85883 299.518125 
L 368.548086 299.518125 
L 368.548086 299.518125 
L 364.85883 299.518125 
z
" clip-path="url(#p5d521342a3)" style="fill: #800080; fill-opacity: 0.5; stroke: #ffffff; stroke-width: 0.368926; stroke-linejoin: miter"/>
   </g>
   <g id="patch_82">
    <path d="M 368.548086 299.518125 
L 372.237342 299.518125 
L 372.237342 298.730065 
L 368.548086 298.730065 
z
" clip-path="url(#p5d521342a3)" style="fill: #800080; fill-opacity: 0.5; stroke: #ffffff; stroke-width: 0.368926; stroke-linejoin: miter"/>
   </g>
   <g id="patch_83">
    <path d="M 372.237342 299.518125 
L 375.926599 299.518125 
L 375.926599 299.124095 
L 372.237342 299.124095 
z
" clip-path="url(#p5d521342a3)" style="fill: #800080; fill-opacity: 0.5; stroke: #ffffff; stroke-width: 0.368926; stroke-linejoin: miter"/>
   </g>
   <g id="patch_84">
    <path d="M 375.926599 299.518125 
L 379.615855 299.518125 
L 379.615855 299.518125 
L 375.926599 299.518125 
z
" clip-path="url(#p5d521342a3)" style="fill: #800080; fill-opacity: 0.5; stroke: #ffffff; stroke-width: 0.368926; stroke-linejoin: miter"/>
   </g>
   <g id="patch_85">
    <path d="M 379.615855 299.518125 
L 383.305111 299.518125 
L 383.305111 299.518125 
L 379.615855 299.518125 
z
" clip-path="url(#p5d521342a3)" style="fill: #800080; fill-opacity: 0.5; stroke: #ffffff; stroke-width: 0.368926; stroke-linejoin: miter"/>
   </g>
   <g id="patch_86">
    <path d="M 383.305111 299.518125 
L 386.994367 299.518125 
L 386.994367 299.518125 
L 383.305111 299.518125 
z
" clip-path="url(#p5d521342a3)" style="fill: #800080; fill-opacity: 0.5; stroke: #ffffff; stroke-width: 0.368926; stroke-linejoin: miter"/>
   </g>
   <g id="patch_87">
    <path d="M 386.994367 299.518125 
L 390.683623 299.518125 
L 390.683623 299.124095 
L 386.994367 299.124095 
z
" clip-path="url(#p5d521342a3)" style="fill: #800080; fill-opacity: 0.5; stroke: #ffffff; stroke-width: 0.368926; stroke-linejoin: miter"/>
   </g>
   <g id="patch_88">
    <path d="M 390.683623 299.518125 
L 394.37288 299.518125 
L 394.37288 299.518125 
L 390.683623 299.518125 
z
" clip-path="url(#p5d521342a3)" style="fill: #800080; fill-opacity: 0.5; stroke: #ffffff; stroke-width: 0.368926; stroke-linejoin: miter"/>
   </g>
   <g id="patch_89">
    <path d="M 394.37288 299.518125 
L 398.062136 299.518125 
L 398.062136 299.518125 
L 394.37288 299.518125 
z
" clip-path="url(#p5d521342a3)" style="fill: #800080; fill-opacity: 0.5; stroke: #ffffff; stroke-width: 0.368926; stroke-linejoin: miter"/>
   </g>
   <g id="patch_90">
    <path d="M 398.062136 299.518125 
L 401.751392 299.518125 
L 401.751392 299.518125 
L 398.062136 299.518125 
z
" clip-path="url(#p5d521342a3)" style="fill: #800080; fill-opacity: 0.5; stroke: #ffffff; stroke-width: 0.368926; stroke-linejoin: miter"/>
   </g>
   <g id="patch_91">
    <path d="M 401.751392 299.518125 
L 405.440648 299.518125 
L 405.440648 299.518125 
L 401.751392 299.518125 
z
" clip-path="url(#p5d521342a3)" style="fill: #800080; fill-opacity: 0.5; stroke: #ffffff; stroke-width: 0.368926; stroke-linejoin: miter"/>
   </g>
   <g id="patch_92">
    <path d="M 405.440648 299.518125 
L 409.129904 299.518125 
L 409.129904 299.518125 
L 405.440648 299.518125 
z
" clip-path="url(#p5d521342a3)" style="fill: #800080; fill-opacity: 0.5; stroke: #ffffff; stroke-width: 0.368926; stroke-linejoin: miter"/>
   </g>
   <g id="patch_93">
    <path d="M 409.129904 299.518125 
L 412.819161 299.518125 
L 412.819161 299.518125 
L 409.129904 299.518125 
z
" clip-path="url(#p5d521342a3)" style="fill: #800080; fill-opacity: 0.5; stroke: #ffffff; stroke-width: 0.368926; stroke-linejoin: miter"/>
   </g>
   <g id="patch_94">
    <path d="M 412.819161 299.518125 
L 416.508417 299.518125 
L 416.508417 299.518125 
L 412.819161 299.518125 
z
" clip-path="url(#p5d521342a3)" style="fill: #800080; fill-opacity: 0.5; stroke: #ffffff; stroke-width: 0.368926; stroke-linejoin: miter"/>
   </g>
   <g id="patch_95">
    <path d="M 416.508417 299.518125 
L 420.197673 299.518125 
L 420.197673 299.518125 
L 416.508417 299.518125 
z
" clip-path="url(#p5d521342a3)" style="fill: #800080; fill-opacity: 0.5; stroke: #ffffff; stroke-width: 0.368926; stroke-linejoin: miter"/>
   </g>
   <g id="patch_96">
    <path d="M 420.197673 299.518125 
L 423.886929 299.518125 
L 423.886929 299.518125 
L 420.197673 299.518125 
z
" clip-path="url(#p5d521342a3)" style="fill: #800080; fill-opacity: 0.5; stroke: #ffffff; stroke-width: 0.368926; stroke-linejoin: miter"/>
   </g>
   <g id="patch_97">
    <path d="M 423.886929 299.518125 
L 427.576185 299.518125 
L 427.576185 299.518125 
L 423.886929 299.518125 
z
" clip-path="url(#p5d521342a3)" style="fill: #800080; fill-opacity: 0.5; stroke: #ffffff; stroke-width: 0.368926; stroke-linejoin: miter"/>
   </g>
   <g id="patch_98">
    <path d="M 427.576185 299.518125 
L 431.265442 299.518125 
L 431.265442 299.518125 
L 427.576185 299.518125 
z
" clip-path="url(#p5d521342a3)" style="fill: #800080; fill-opacity: 0.5; stroke: #ffffff; stroke-width: 0.368926; stroke-linejoin: miter"/>
   </g>
   <g id="patch_99">
    <path d="M 431.265442 299.518125 
L 434.954698 299.518125 
L 434.954698 299.518125 
L 431.265442 299.518125 
z
" clip-path="url(#p5d521342a3)" style="fill: #800080; fill-opacity: 0.5; stroke: #ffffff; stroke-width: 0.368926; stroke-linejoin: miter"/>
   </g>
   <g id="patch_100">
    <path d="M 434.954698 299.518125 
L 438.643954 299.518125 
L 438.643954 299.518125 
L 434.954698 299.518125 
z
" clip-path="url(#p5d521342a3)" style="fill: #800080; fill-opacity: 0.5; stroke: #ffffff; stroke-width: 0.368926; stroke-linejoin: miter"/>
   </g>
   <g id="patch_101">
    <path d="M 438.643954 299.518125 
L 442.33321 299.518125 
L 442.33321 299.518125 
L 438.643954 299.518125 
z
" clip-path="url(#p5d521342a3)" style="fill: #800080; fill-opacity: 0.5; stroke: #ffffff; stroke-width: 0.368926; stroke-linejoin: miter"/>
   </g>
   <g id="patch_102">
    <path d="M 442.33321 299.518125 
L 446.022466 299.518125 
L 446.022466 299.518125 
L 442.33321 299.518125 
z
" clip-path="url(#p5d521342a3)" style="fill: #800080; fill-opacity: 0.5; stroke: #ffffff; stroke-width: 0.368926; stroke-linejoin: miter"/>
   </g>
   <g id="patch_103">
    <path d="M 446.022466 299.518125 
L 449.711723 299.518125 
L 449.711723 299.518125 
L 446.022466 299.518125 
z
" clip-path="url(#p5d521342a3)" style="fill: #800080; fill-opacity: 0.5; stroke: #ffffff; stroke-width: 0.368926; stroke-linejoin: miter"/>
   </g>
   <g id="patch_104">
    <path d="M 449.711723 299.518125 
L 453.400979 299.518125 
L 453.400979 299.518125 
L 449.711723 299.518125 
z
" clip-path="url(#p5d521342a3)" style="fill: #800080; fill-opacity: 0.5; stroke: #ffffff; stroke-width: 0.368926; stroke-linejoin: miter"/>
   </g>
   <g id="patch_105">
    <path d="M 453.400979 299.518125 
L 457.090235 299.518125 
L 457.090235 299.518125 
L 453.400979 299.518125 
z
" clip-path="url(#p5d521342a3)" style="fill: #800080; fill-opacity: 0.5; stroke: #ffffff; stroke-width: 0.368926; stroke-linejoin: miter"/>
   </g>
   <g id="patch_106">
    <path d="M 457.090235 299.518125 
L 460.779491 299.518125 
L 460.779491 299.124095 
L 457.090235 299.124095 
z
" clip-path="url(#p5d521342a3)" style="fill: #800080; fill-opacity: 0.5; stroke: #ffffff; stroke-width: 0.368926; stroke-linejoin: miter"/>
   </g>
   <g id="patch_107">
    <path d="M 460.779491 299.518125 
L 464.468747 299.518125 
L 464.468747 299.518125 
L 460.779491 299.518125 
z
" clip-path="url(#p5d521342a3)" style="fill: #800080; fill-opacity: 0.5; stroke: #ffffff; stroke-width: 0.368926; stroke-linejoin: miter"/>
   </g>
   <g id="patch_108">
    <path d="M 464.468747 299.518125 
L 468.158004 299.518125 
L 468.158004 299.518125 
L 464.468747 299.518125 
z
" clip-path="url(#p5d521342a3)" style="fill: #800080; fill-opacity: 0.5; stroke: #ffffff; stroke-width: 0.368926; stroke-linejoin: miter"/>
   </g>
   <g id="patch_109">
    <path d="M 468.158004 299.518125 
L 471.84726 299.518125 
L 471.84726 299.518125 
L 468.158004 299.518125 
z
" clip-path="url(#p5d521342a3)" style="fill: #800080; fill-opacity: 0.5; stroke: #ffffff; stroke-width: 0.368926; stroke-linejoin: miter"/>
   </g>
   <g id="patch_110">
    <path d="M 471.84726 299.518125 
L 475.536516 299.518125 
L 475.536516 299.518125 
L 471.84726 299.518125 
z
" clip-path="url(#p5d521342a3)" style="fill: #800080; fill-opacity: 0.5; stroke: #ffffff; stroke-width: 0.368926; stroke-linejoin: miter"/>
   </g>
   <g id="patch_111">
    <path d="M 475.536516 299.518125 
L 479.225772 299.518125 
L 479.225772 299.518125 
L 475.536516 299.518125 
z
" clip-path="url(#p5d521342a3)" style="fill: #800080; fill-opacity: 0.5; stroke: #ffffff; stroke-width: 0.368926; stroke-linejoin: miter"/>
   </g>
   <g id="patch_112">
    <path d="M 479.225772 299.518125 
L 482.915028 299.518125 
L 482.915028 299.124095 
L 479.225772 299.124095 
z
" clip-path="url(#p5d521342a3)" style="fill: #800080; fill-opacity: 0.5; stroke: #ffffff; stroke-width: 0.368926; stroke-linejoin: miter"/>
   </g>
   <g id="patch_113">
    <path d="M 77.096847 299.518125 
L 80.786103 299.518125 
L 80.786103 293.20244 
L 77.096847 293.20244 
z
" clip-path="url(#p5d521342a3)" style="fill: #ffffff; fill-opacity: 0.5; stroke: #000000; stroke-width: 0.368926; stroke-linejoin: miter"/>
   </g>
   <g id="patch_114">
    <path d="M 80.786103 299.518125 
L 84.475359 299.518125 
L 84.475359 291.097212 
L 80.786103 291.097212 
z
" clip-path="url(#p5d521342a3)" style="fill: #ffffff; fill-opacity: 0.5; stroke: #000000; stroke-width: 0.368926; stroke-linejoin: miter"/>
   </g>
   <g id="patch_115">
    <path d="M 84.475359 299.518125 
L 88.164615 299.518125 
L 88.164615 293.20244 
L 84.475359 293.20244 
z
" clip-path="url(#p5d521342a3)" style="fill: #ffffff; fill-opacity: 0.5; stroke: #000000; stroke-width: 0.368926; stroke-linejoin: miter"/>
   </g>
   <g id="patch_116">
    <path d="M 88.164615 299.518125 
L 91.853871 299.518125 
L 91.853871 284.781528 
L 88.164615 284.781528 
z
" clip-path="url(#p5d521342a3)" style="fill: #ffffff; fill-opacity: 0.5; stroke: #000000; stroke-width: 0.368926; stroke-linejoin: miter"/>
   </g>
   <g id="patch_117">
    <path d="M 91.853871 299.518125 
L 95.543128 299.518125 
L 95.543128 281.272814 
L 91.853871 281.272814 
z
" clip-path="url(#p5d521342a3)" style="fill: #ffffff; fill-opacity: 0.5; stroke: #000000; stroke-width: 0.368926; stroke-linejoin: miter"/>
   </g>
   <g id="patch_118">
    <path d="M 95.543128 299.518125 
L 99.232384 299.518125 
L 99.232384 274.95713 
L 95.543128 274.95713 
z
" clip-path="url(#p5d521342a3)" style="fill: #ffffff; fill-opacity: 0.5; stroke: #000000; stroke-width: 0.368926; stroke-linejoin: miter"/>
   </g>
   <g id="patch_119">
    <path d="M 99.232384 299.518125 
L 102.92164 299.518125 
L 102.92164 280.571071 
L 99.232384 280.571071 
z
" clip-path="url(#p5d521342a3)" style="fill: #ffffff; fill-opacity: 0.5; stroke: #000000; stroke-width: 0.368926; stroke-linejoin: miter"/>
   </g>
   <g id="patch_120">
    <path d="M 102.92164 299.518125 
L 106.610896 299.518125 
L 106.610896 274.95713 
L 102.92164 274.95713 
z
" clip-path="url(#p5d521342a3)" style="fill: #ffffff; fill-opacity: 0.5; stroke: #000000; stroke-width: 0.368926; stroke-linejoin: miter"/>
   </g>
   <g id="patch_121">
    <path d="M 106.610896 299.518125 
L 110.300152 299.518125 
L 110.300152 275.658872 
L 106.610896 275.658872 
z
" clip-path="url(#p5d521342a3)" style="fill: #ffffff; fill-opacity: 0.5; stroke: #000000; stroke-width: 0.368926; stroke-linejoin: miter"/>
   </g>
   <g id="patch_122">
    <path d="M 110.300152 299.518125 
L 113.989409 299.518125 
L 113.989409 273.553644 
L 110.300152 273.553644 
z
" clip-path="url(#p5d521342a3)" style="fill: #ffffff; fill-opacity: 0.5; stroke: #000000; stroke-width: 0.368926; stroke-linejoin: miter"/>
   </g>
   <g id="patch_123">
    <path d="M 113.989409 299.518125 
L 117.678665 299.518125 
L 117.678665 277.062358 
L 113.989409 277.062358 
z
" clip-path="url(#p5d521342a3)" style="fill: #ffffff; fill-opacity: 0.5; stroke: #000000; stroke-width: 0.368926; stroke-linejoin: miter"/>
   </g>
   <g id="patch_124">
    <path d="M 117.678665 299.518125 
L 121.367921 299.518125 
L 121.367921 275.658872 
L 117.678665 275.658872 
z
" clip-path="url(#p5d521342a3)" style="fill: #ffffff; fill-opacity: 0.5; stroke: #000000; stroke-width: 0.368926; stroke-linejoin: miter"/>
   </g>
   <g id="patch_125">
    <path d="M 121.367921 299.518125 
L 125.057177 299.518125 
L 125.057177 277.062358 
L 121.367921 277.062358 
z
" clip-path="url(#p5d521342a3)" style="fill: #ffffff; fill-opacity: 0.5; stroke: #000000; stroke-width: 0.368926; stroke-linejoin: miter"/>
   </g>
   <g id="patch_126">
    <path d="M 125.057177 299.518125 
L 128.746433 299.518125 
L 128.746433 276.360615 
L 125.057177 276.360615 
z
" clip-path="url(#p5d521342a3)" style="fill: #ffffff; fill-opacity: 0.5; stroke: #000000; stroke-width: 0.368926; stroke-linejoin: miter"/>
   </g>
   <g id="patch_127">
    <path d="M 128.746433 299.518125 
L 132.43569 299.518125 
L 132.43569 274.95713 
L 128.746433 274.95713 
z
" clip-path="url(#p5d521342a3)" style="fill: #ffffff; fill-opacity: 0.5; stroke: #000000; stroke-width: 0.368926; stroke-linejoin: miter"/>
   </g>
   <g id="patch_128">
    <path d="M 132.43569 299.518125 
L 136.124946 299.518125 
L 136.124946 277.062358 
L 132.43569 277.062358 
z
" clip-path="url(#p5d521342a3)" style="fill: #ffffff; fill-opacity: 0.5; stroke: #000000; stroke-width: 0.368926; stroke-linejoin: miter"/>
   </g>
   <g id="patch_129">
    <path d="M 136.124946 299.518125 
L 139.814202 299.518125 
L 139.814202 274.95713 
L 136.124946 274.95713 
z
" clip-path="url(#p5d521342a3)" style="fill: #ffffff; fill-opacity: 0.5; stroke: #000000; stroke-width: 0.368926; stroke-linejoin: miter"/>
   </g>
   <g id="patch_130">
    <path d="M 139.814202 299.518125 
L 143.503458 299.518125 
L 143.503458 286.185013 
L 139.814202 286.185013 
z
" clip-path="url(#p5d521342a3)" style="fill: #ffffff; fill-opacity: 0.5; stroke: #000000; stroke-width: 0.368926; stroke-linejoin: miter"/>
   </g>
   <g id="patch_131">
    <path d="M 143.503458 299.518125 
L 147.192714 299.518125 
L 147.192714 283.378042 
L 143.503458 283.378042 
z
" clip-path="url(#p5d521342a3)" style="fill: #ffffff; fill-opacity: 0.5; stroke: #000000; stroke-width: 0.368926; stroke-linejoin: miter"/>
   </g>
   <g id="patch_132">
    <path d="M 147.192714 299.518125 
L 150.881971 299.518125 
L 150.881971 274.255387 
L 147.192714 274.255387 
z
" clip-path="url(#p5d521342a3)" style="fill: #ffffff; fill-opacity: 0.5; stroke: #000000; stroke-width: 0.368926; stroke-linejoin: miter"/>
   </g>
   <g id="patch_133">
    <path d="M 150.881971 299.518125 
L 154.571227 299.518125 
L 154.571227 283.378042 
L 150.881971 283.378042 
z
" clip-path="url(#p5d521342a3)" style="fill: #ffffff; fill-opacity: 0.5; stroke: #000000; stroke-width: 0.368926; stroke-linejoin: miter"/>
   </g>
   <g id="patch_134">
    <path d="M 154.571227 299.518125 
L 158.260483 299.518125 
L 158.260483 287.588499 
L 154.571227 287.588499 
z
" clip-path="url(#p5d521342a3)" style="fill: #ffffff; fill-opacity: 0.5; stroke: #000000; stroke-width: 0.368926; stroke-linejoin: miter"/>
   </g>
   <g id="patch_135">
    <path d="M 158.260483 299.518125 
L 161.949739 299.518125 
L 161.949739 282.6763 
L 158.260483 282.6763 
z
" clip-path="url(#p5d521342a3)" style="fill: #ffffff; fill-opacity: 0.5; stroke: #000000; stroke-width: 0.368926; stroke-linejoin: miter"/>
   </g>
   <g id="patch_136">
    <path d="M 161.949739 299.518125 
L 165.638995 299.518125 
L 165.638995 284.079785 
L 161.949739 284.079785 
z
" clip-path="url(#p5d521342a3)" style="fill: #ffffff; fill-opacity: 0.5; stroke: #000000; stroke-width: 0.368926; stroke-linejoin: miter"/>
   </g>
   <g id="patch_137">
    <path d="M 165.638995 299.518125 
L 169.328252 299.518125 
L 169.328252 273.553644 
L 165.638995 273.553644 
z
" clip-path="url(#p5d521342a3)" style="fill: #ffffff; fill-opacity: 0.5; stroke: #000000; stroke-width: 0.368926; stroke-linejoin: miter"/>
   </g>
   <g id="patch_138">
    <path d="M 169.328252 299.518125 
L 173.017508 299.518125 
L 173.017508 281.974557 
L 169.328252 281.974557 
z
" clip-path="url(#p5d521342a3)" style="fill: #ffffff; fill-opacity: 0.5; stroke: #000000; stroke-width: 0.368926; stroke-linejoin: miter"/>
   </g>
   <g id="patch_139">
    <path d="M 173.017508 299.518125 
L 176.706764 299.518125 
L 176.706764 280.571071 
L 173.017508 280.571071 
z
" clip-path="url(#p5d521342a3)" style="fill: #ffffff; fill-opacity: 0.5; stroke: #000000; stroke-width: 0.368926; stroke-linejoin: miter"/>
   </g>
   <g id="patch_140">
    <path d="M 176.706764 299.518125 
L 180.39602 299.518125 
L 180.39602 278.465843 
L 176.706764 278.465843 
z
" clip-path="url(#p5d521342a3)" style="fill: #ffffff; fill-opacity: 0.5; stroke: #000000; stroke-width: 0.368926; stroke-linejoin: miter"/>
   </g>
   <g id="patch_141">
    <path d="M 180.39602 299.518125 
L 184.085276 299.518125 
L 184.085276 264.430989 
L 180.39602 264.430989 
z
" clip-path="url(#p5d521342a3)" style="fill: #ffffff; fill-opacity: 0.5; stroke: #000000; stroke-width: 0.368926; stroke-linejoin: miter"/>
   </g>
   <g id="patch_142">
    <path d="M 184.085276 299.518125 
L 187.774533 299.518125 
L 187.774533 234.957794 
L 184.085276 234.957794 
z
" clip-path="url(#p5d521342a3)" style="fill: #ffffff; fill-opacity: 0.5; stroke: #000000; stroke-width: 0.368926; stroke-linejoin: miter"/>
   </g>
   <g id="patch_143">
    <path d="M 187.774533 299.518125 
L 191.463789 299.518125 
L 191.463789 200.572401 
L 187.774533 200.572401 
z
" clip-path="url(#p5d521342a3)" style="fill: #ffffff; fill-opacity: 0.5; stroke: #000000; stroke-width: 0.368926; stroke-linejoin: miter"/>
   </g>
   <g id="patch_144">
    <path d="M 191.463789 299.518125 
L 195.153045 299.518125 
L 195.153045 151.45041 
L 191.463789 151.45041 
z
" clip-path="url(#p5d521342a3)" style="fill: #ffffff; fill-opacity: 0.5; stroke: #000000; stroke-width: 0.368926; stroke-linejoin: miter"/>
   </g>
   <g id="patch_145">
    <path d="M 195.153045 299.518125 
L 198.842301 299.518125 
L 198.842301 93.205764 
L 195.153045 93.205764 
z
" clip-path="url(#p5d521342a3)" style="fill: #ffffff; fill-opacity: 0.5; stroke: #000000; stroke-width: 0.368926; stroke-linejoin: miter"/>
   </g>
   <g id="patch_146">
    <path d="M 198.842301 299.518125 
L 202.531557 299.518125 
L 202.531557 41.978545 
L 198.842301 41.978545 
z
" clip-path="url(#p5d521342a3)" style="fill: #ffffff; fill-opacity: 0.5; stroke: #000000; stroke-width: 0.368926; stroke-linejoin: miter"/>
   </g>
   <g id="patch_147">
    <path d="M 202.531557 299.518125 
L 206.220814 299.518125 
L 206.220814 35.662861 
L 202.531557 35.662861 
z
" clip-path="url(#p5d521342a3)" style="fill: #ffffff; fill-opacity: 0.5; stroke: #000000; stroke-width: 0.368926; stroke-linejoin: miter"/>
   </g>
   <g id="patch_148">
    <path d="M 206.220814 299.518125 
L 209.91007 299.518125 
L 209.91007 48.29423 
L 206.220814 48.29423 
z
" clip-path="url(#p5d521342a3)" style="fill: #ffffff; fill-opacity: 0.5; stroke: #000000; stroke-width: 0.368926; stroke-linejoin: miter"/>
   </g>
   <g id="patch_149">
    <path d="M 209.91007 299.518125 
L 213.599326 299.518125 
L 213.599326 126.187672 
L 209.91007 126.187672 
z
" clip-path="url(#p5d521342a3)" style="fill: #ffffff; fill-opacity: 0.5; stroke: #000000; stroke-width: 0.368926; stroke-linejoin: miter"/>
   </g>
   <g id="patch_150">
    <path d="M 213.599326 299.518125 
L 217.288582 299.518125 
L 217.288582 174.60792 
L 213.599326 174.60792 
z
" clip-path="url(#p5d521342a3)" style="fill: #ffffff; fill-opacity: 0.5; stroke: #000000; stroke-width: 0.368926; stroke-linejoin: miter"/>
   </g>
   <g id="patch_151">
    <path d="M 217.288582 299.518125 
L 220.977838 299.518125 
L 220.977838 231.449081 
L 217.288582 231.449081 
z
" clip-path="url(#p5d521342a3)" style="fill: #ffffff; fill-opacity: 0.5; stroke: #000000; stroke-width: 0.368926; stroke-linejoin: miter"/>
   </g>
   <g id="patch_152">
    <path d="M 220.977838 299.518125 
L 224.667095 299.518125 
L 224.667095 272.150159 
L 220.977838 272.150159 
z
" clip-path="url(#p5d521342a3)" style="fill: #ffffff; fill-opacity: 0.5; stroke: #000000; stroke-width: 0.368926; stroke-linejoin: miter"/>
   </g>
   <g id="patch_153">
    <path d="M 224.667095 299.518125 
L 228.356351 299.518125 
L 228.356351 284.079785 
L 224.667095 284.079785 
z
" clip-path="url(#p5d521342a3)" style="fill: #ffffff; fill-opacity: 0.5; stroke: #000000; stroke-width: 0.368926; stroke-linejoin: miter"/>
   </g>
   <g id="patch_154">
    <path d="M 228.356351 299.518125 
L 232.045607 299.518125 
L 232.045607 283.378042 
L 228.356351 283.378042 
z
" clip-path="url(#p5d521342a3)" style="fill: #ffffff; fill-opacity: 0.5; stroke: #000000; stroke-width: 0.368926; stroke-linejoin: miter"/>
   </g>
   <g id="patch_155">
    <path d="M 232.045607 299.518125 
L 235.734863 299.518125 
L 235.734863 289.693727 
L 232.045607 289.693727 
z
" clip-path="url(#p5d521342a3)" style="fill: #ffffff; fill-opacity: 0.5; stroke: #000000; stroke-width: 0.368926; stroke-linejoin: miter"/>
   </g>
   <g id="patch_156">
    <path d="M 235.734863 299.518125 
L 239.424119 299.518125 
L 239.424119 296.711154 
L 235.734863 296.711154 
z
" clip-path="url(#p5d521342a3)" style="fill: #ffffff; fill-opacity: 0.5; stroke: #000000; stroke-width: 0.368926; stroke-linejoin: miter"/>
   </g>
   <g id="patch_157">
    <path d="M 239.424119 299.518125 
L 243.113376 299.518125 
L 243.113376 296.711154 
L 239.424119 296.711154 
z
" clip-path="url(#p5d521342a3)" style="fill: #ffffff; fill-opacity: 0.5; stroke: #000000; stroke-width: 0.368926; stroke-linejoin: miter"/>
   </g>
   <g id="patch_158">
    <path d="M 243.113376 299.518125 
L 246.802632 299.518125 
L 246.802632 295.307669 
L 243.113376 295.307669 
z
" clip-path="url(#p5d521342a3)" style="fill: #ffffff; fill-opacity: 0.5; stroke: #000000; stroke-width: 0.368926; stroke-linejoin: miter"/>
   </g>
   <g id="patch_159">
    <path d="M 246.802632 299.518125 
L 250.491888 299.518125 
L 250.491888 296.009411 
L 246.802632 296.009411 
z
" clip-path="url(#p5d521342a3)" style="fill: #ffffff; fill-opacity: 0.5; stroke: #000000; stroke-width: 0.368926; stroke-linejoin: miter"/>
   </g>
   <g id="patch_160">
    <path d="M 250.491888 299.518125 
L 254.181144 299.518125 
L 254.181144 298.816382 
L 250.491888 298.816382 
z
" clip-path="url(#p5d521342a3)" style="fill: #ffffff; fill-opacity: 0.5; stroke: #000000; stroke-width: 0.368926; stroke-linejoin: miter"/>
   </g>
   <g id="patch_161">
    <path d="M 254.181144 299.518125 
L 257.8704 299.518125 
L 257.8704 297.412897 
L 254.181144 297.412897 
z
" clip-path="url(#p5d521342a3)" style="fill: #ffffff; fill-opacity: 0.5; stroke: #000000; stroke-width: 0.368926; stroke-linejoin: miter"/>
   </g>
   <g id="patch_162">
    <path d="M 257.8704 299.518125 
L 261.559657 299.518125 
L 261.559657 297.412897 
L 257.8704 297.412897 
z
" clip-path="url(#p5d521342a3)" style="fill: #ffffff; fill-opacity: 0.5; stroke: #000000; stroke-width: 0.368926; stroke-linejoin: miter"/>
   </g>
   <g id="patch_163">
    <path d="M 261.559657 299.518125 
L 265.248913 299.518125 
L 265.248913 298.816382 
L 261.559657 298.816382 
z
" clip-path="url(#p5d521342a3)" style="fill: #ffffff; fill-opacity: 0.5; stroke: #000000; stroke-width: 0.368926; stroke-linejoin: miter"/>
   </g>
   <g id="patch_164">
    <path d="M 265.248913 299.518125 
L 268.938169 299.518125 
L 268.938169 298.11464 
L 265.248913 298.11464 
z
" clip-path="url(#p5d521342a3)" style="fill: #ffffff; fill-opacity: 0.5; stroke: #000000; stroke-width: 0.368926; stroke-linejoin: miter"/>
   </g>
   <g id="patch_165">
    <path d="M 268.938169 299.518125 
L 272.627425 299.518125 
L 272.627425 298.11464 
L 268.938169 298.11464 
z
" clip-path="url(#p5d521342a3)" style="fill: #ffffff; fill-opacity: 0.5; stroke: #000000; stroke-width: 0.368926; stroke-linejoin: miter"/>
   </g>
   <g id="patch_166">
    <path d="M 272.627425 299.518125 
L 276.316681 299.518125 
L 276.316681 299.518125 
L 272.627425 299.518125 
z
" clip-path="url(#p5d521342a3)" style="fill: #ffffff; fill-opacity: 0.5; stroke: #000000; stroke-width: 0.368926; stroke-linejoin: miter"/>
   </g>
   <g id="patch_167">
    <path d="M 276.316681 299.518125 
L 280.005937 299.518125 
L 280.005937 298.816382 
L 276.316681 298.816382 
z
" clip-path="url(#p5d521342a3)" style="fill: #ffffff; fill-opacity: 0.5; stroke: #000000; stroke-width: 0.368926; stroke-linejoin: miter"/>
   </g>
   <g id="patch_168">
    <path d="M 280.005938 299.518125 
L 283.695194 299.518125 
L 283.695194 299.518125 
L 280.005938 299.518125 
z
" clip-path="url(#p5d521342a3)" style="fill: #ffffff; fill-opacity: 0.5; stroke: #000000; stroke-width: 0.368926; stroke-linejoin: miter"/>
   </g>
   <g id="patch_169">
    <path d="M 283.695194 299.518125 
L 287.38445 299.518125 
L 287.38445 299.518125 
L 283.695194 299.518125 
z
" clip-path="url(#p5d521342a3)" style="fill: #ffffff; fill-opacity: 0.5; stroke: #000000; stroke-width: 0.368926; stroke-linejoin: miter"/>
   </g>
   <g id="patch_170">
    <path d="M 287.38445 299.518125 
L 291.073706 299.518125 
L 291.073706 298.816382 
L 287.38445 298.816382 
z
" clip-path="url(#p5d521342a3)" style="fill: #ffffff; fill-opacity: 0.5; stroke: #000000; stroke-width: 0.368926; stroke-linejoin: miter"/>
   </g>
   <g id="patch_171">
    <path d="M 291.073706 299.518125 
L 294.762962 299.518125 
L 294.762962 299.518125 
L 291.073706 299.518125 
z
" clip-path="url(#p5d521342a3)" style="fill: #ffffff; fill-opacity: 0.5; stroke: #000000; stroke-width: 0.368926; stroke-linejoin: miter"/>
   </g>
   <g id="patch_172">
    <path d="M 294.762962 299.518125 
L 298.452218 299.518125 
L 298.452218 299.518125 
L 294.762962 299.518125 
z
" clip-path="url(#p5d521342a3)" style="fill: #ffffff; fill-opacity: 0.5; stroke: #000000; stroke-width: 0.368926; stroke-linejoin: miter"/>
   </g>
   <g id="patch_173">
    <path d="M 298.452218 299.518125 
L 302.141475 299.518125 
L 302.141475 298.11464 
L 298.452218 298.11464 
z
" clip-path="url(#p5d521342a3)" style="fill: #ffffff; fill-opacity: 0.5; stroke: #000000; stroke-width: 0.368926; stroke-linejoin: miter"/>
   </g>
   <g id="patch_174">
    <path d="M 302.141475 299.518125 
L 305.830731 299.518125 
L 305.830731 299.518125 
L 302.141475 299.518125 
z
" clip-path="url(#p5d521342a3)" style="fill: #ffffff; fill-opacity: 0.5; stroke: #000000; stroke-width: 0.368926; stroke-linejoin: miter"/>
   </g>
   <g id="patch_175">
    <path d="M 305.830731 299.518125 
L 309.519987 299.518125 
L 309.519987 299.518125 
L 305.830731 299.518125 
z
" clip-path="url(#p5d521342a3)" style="fill: #ffffff; fill-opacity: 0.5; stroke: #000000; stroke-width: 0.368926; stroke-linejoin: miter"/>
   </g>
   <g id="patch_176">
    <path d="M 309.519987 299.518125 
L 313.209243 299.518125 
L 313.209243 299.518125 
L 309.519987 299.518125 
z
" clip-path="url(#p5d521342a3)" style="fill: #ffffff; fill-opacity: 0.5; stroke: #000000; stroke-width: 0.368926; stroke-linejoin: miter"/>
   </g>
   <g id="patch_177">
    <path d="M 313.209243 299.518125 
L 316.898499 299.518125 
L 316.898499 299.518125 
L 313.209243 299.518125 
z
" clip-path="url(#p5d521342a3)" style="fill: #ffffff; fill-opacity: 0.5; stroke: #000000; stroke-width: 0.368926; stroke-linejoin: miter"/>
   </g>
   <g id="patch_178">
    <path d="M 316.898499 299.518125 
L 320.587756 299.518125 
L 320.587756 299.518125 
L 316.898499 299.518125 
z
" clip-path="url(#p5d521342a3)" style="fill: #ffffff; fill-opacity: 0.5; stroke: #000000; stroke-width: 0.368926; stroke-linejoin: miter"/>
   </g>
   <g id="patch_179">
    <path d="M 320.587756 299.518125 
L 324.277012 299.518125 
L 324.277012 299.518125 
L 320.587756 299.518125 
z
" clip-path="url(#p5d521342a3)" style="fill: #ffffff; fill-opacity: 0.5; stroke: #000000; stroke-width: 0.368926; stroke-linejoin: miter"/>
   </g>
   <g id="patch_180">
    <path d="M 324.277012 299.518125 
L 327.966268 299.518125 
L 327.966268 299.518125 
L 324.277012 299.518125 
z
" clip-path="url(#p5d521342a3)" style="fill: #ffffff; fill-opacity: 0.5; stroke: #000000; stroke-width: 0.368926; stroke-linejoin: miter"/>
   </g>
   <g id="patch_181">
    <path d="M 327.966268 299.518125 
L 331.655524 299.518125 
L 331.655524 299.518125 
L 327.966268 299.518125 
z
" clip-path="url(#p5d521342a3)" style="fill: #ffffff; fill-opacity: 0.5; stroke: #000000; stroke-width: 0.368926; stroke-linejoin: miter"/>
   </g>
   <g id="patch_182">
    <path d="M 331.655524 299.518125 
L 335.34478 299.518125 
L 335.34478 299.518125 
L 331.655524 299.518125 
z
" clip-path="url(#p5d521342a3)" style="fill: #ffffff; fill-opacity: 0.5; stroke: #000000; stroke-width: 0.368926; stroke-linejoin: miter"/>
   </g>
   <g id="patch_183">
    <path d="M 335.34478 299.518125 
L 339.034037 299.518125 
L 339.034037 299.518125 
L 335.34478 299.518125 
z
" clip-path="url(#p5d521342a3)" style="fill: #ffffff; fill-opacity: 0.5; stroke: #000000; stroke-width: 0.368926; stroke-linejoin: miter"/>
   </g>
   <g id="patch_184">
    <path d="M 339.034037 299.518125 
L 342.723293 299.518125 
L 342.723293 299.518125 
L 339.034037 299.518125 
z
" clip-path="url(#p5d521342a3)" style="fill: #ffffff; fill-opacity: 0.5; stroke: #000000; stroke-width: 0.368926; stroke-linejoin: miter"/>
   </g>
   <g id="patch_185">
    <path d="M 342.723293 299.518125 
L 346.412549 299.518125 
L 346.412549 299.518125 
L 342.723293 299.518125 
z
" clip-path="url(#p5d521342a3)" style="fill: #ffffff; fill-opacity: 0.5; stroke: #000000; stroke-width: 0.368926; stroke-linejoin: miter"/>
   </g>
   <g id="patch_186">
    <path d="M 346.412549 299.518125 
L 350.101805 299.518125 
L 350.101805 299.518125 
L 346.412549 299.518125 
z
" clip-path="url(#p5d521342a3)" style="fill: #ffffff; fill-opacity: 0.5; stroke: #000000; stroke-width: 0.368926; stroke-linejoin: miter"/>
   </g>
   <g id="patch_187">
    <path d="M 350.101805 299.518125 
L 353.791061 299.518125 
L 353.791061 299.518125 
L 350.101805 299.518125 
z
" clip-path="url(#p5d521342a3)" style="fill: #ffffff; fill-opacity: 0.5; stroke: #000000; stroke-width: 0.368926; stroke-linejoin: miter"/>
   </g>
   <g id="patch_188">
    <path d="M 353.791061 299.518125 
L 357.480318 299.518125 
L 357.480318 299.518125 
L 353.791061 299.518125 
z
" clip-path="url(#p5d521342a3)" style="fill: #ffffff; fill-opacity: 0.5; stroke: #000000; stroke-width: 0.368926; stroke-linejoin: miter"/>
   </g>
   <g id="patch_189">
    <path d="M 357.480318 299.518125 
L 361.169574 299.518125 
L 361.169574 299.518125 
L 357.480318 299.518125 
z
" clip-path="url(#p5d521342a3)" style="fill: #ffffff; fill-opacity: 0.5; stroke: #000000; stroke-width: 0.368926; stroke-linejoin: miter"/>
   </g>
   <g id="patch_190">
    <path d="M 361.169574 299.518125 
L 364.85883 299.518125 
L 364.85883 299.518125 
L 361.169574 299.518125 
z
" clip-path="url(#p5d521342a3)" style="fill: #ffffff; fill-opacity: 0.5; stroke: #000000; stroke-width: 0.368926; stroke-linejoin: miter"/>
   </g>
   <g id="patch_191">
    <path d="M 364.85883 299.518125 
L 368.548086 299.518125 
L 368.548086 299.518125 
L 364.85883 299.518125 
z
" clip-path="url(#p5d521342a3)" style="fill: #ffffff; fill-opacity: 0.5; stroke: #000000; stroke-width: 0.368926; stroke-linejoin: miter"/>
   </g>
   <g id="patch_192">
    <path d="M 368.548086 299.518125 
L 372.237342 299.518125 
L 372.237342 299.518125 
L 368.548086 299.518125 
z
" clip-path="url(#p5d521342a3)" style="fill: #ffffff; fill-opacity: 0.5; stroke: #000000; stroke-width: 0.368926; stroke-linejoin: miter"/>
   </g>
   <g id="patch_193">
    <path d="M 372.237342 299.518125 
L 375.926599 299.518125 
L 375.926599 299.518125 
L 372.237342 299.518125 
z
" clip-path="url(#p5d521342a3)" style="fill: #ffffff; fill-opacity: 0.5; stroke: #000000; stroke-width: 0.368926; stroke-linejoin: miter"/>
   </g>
   <g id="patch_194">
    <path d="M 375.926599 299.518125 
L 379.615855 299.518125 
L 379.615855 299.518125 
L 375.926599 299.518125 
z
" clip-path="url(#p5d521342a3)" style="fill: #ffffff; fill-opacity: 0.5; stroke: #000000; stroke-width: 0.368926; stroke-linejoin: miter"/>
   </g>
   <g id="patch_195">
    <path d="M 379.615855 299.518125 
L 383.305111 299.518125 
L 383.305111 299.518125 
L 379.615855 299.518125 
z
" clip-path="url(#p5d521342a3)" style="fill: #ffffff; fill-opacity: 0.5; stroke: #000000; stroke-width: 0.368926; stroke-linejoin: miter"/>
   </g>
   <g id="patch_196">
    <path d="M 383.305111 299.518125 
L 386.994367 299.518125 
L 386.994367 299.518125 
L 383.305111 299.518125 
z
" clip-path="url(#p5d521342a3)" style="fill: #ffffff; fill-opacity: 0.5; stroke: #000000; stroke-width: 0.368926; stroke-linejoin: miter"/>
   </g>
   <g id="patch_197">
    <path d="M 386.994367 299.518125 
L 390.683623 299.518125 
L 390.683623 299.518125 
L 386.994367 299.518125 
z
" clip-path="url(#p5d521342a3)" style="fill: #ffffff; fill-opacity: 0.5; stroke: #000000; stroke-width: 0.368926; stroke-linejoin: miter"/>
   </g>
   <g id="patch_198">
    <path d="M 390.683623 299.518125 
L 394.37288 299.518125 
L 394.37288 299.518125 
L 390.683623 299.518125 
z
" clip-path="url(#p5d521342a3)" style="fill: #ffffff; fill-opacity: 0.5; stroke: #000000; stroke-width: 0.368926; stroke-linejoin: miter"/>
   </g>
   <g id="patch_199">
    <path d="M 394.37288 299.518125 
L 398.062136 299.518125 
L 398.062136 299.518125 
L 394.37288 299.518125 
z
" clip-path="url(#p5d521342a3)" style="fill: #ffffff; fill-opacity: 0.5; stroke: #000000; stroke-width: 0.368926; stroke-linejoin: miter"/>
   </g>
   <g id="patch_200">
    <path d="M 398.062136 299.518125 
L 401.751392 299.518125 
L 401.751392 299.518125 
L 398.062136 299.518125 
z
" clip-path="url(#p5d521342a3)" style="fill: #ffffff; fill-opacity: 0.5; stroke: #000000; stroke-width: 0.368926; stroke-linejoin: miter"/>
   </g>
   <g id="patch_201">
    <path d="M 401.751392 299.518125 
L 405.440648 299.518125 
L 405.440648 299.518125 
L 401.751392 299.518125 
z
" clip-path="url(#p5d521342a3)" style="fill: #ffffff; fill-opacity: 0.5; stroke: #000000; stroke-width: 0.368926; stroke-linejoin: miter"/>
   </g>
   <g id="patch_202">
    <path d="M 405.440648 299.518125 
L 409.129904 299.518125 
L 409.129904 299.518125 
L 405.440648 299.518125 
z
" clip-path="url(#p5d521342a3)" style="fill: #ffffff; fill-opacity: 0.5; stroke: #000000; stroke-width: 0.368926; stroke-linejoin: miter"/>
   </g>
   <g id="patch_203">
    <path d="M 409.129904 299.518125 
L 412.819161 299.518125 
L 412.819161 299.518125 
L 409.129904 299.518125 
z
" clip-path="url(#p5d521342a3)" style="fill: #ffffff; fill-opacity: 0.5; stroke: #000000; stroke-width: 0.368926; stroke-linejoin: miter"/>
   </g>
   <g id="patch_204">
    <path d="M 412.819161 299.518125 
L 416.508417 299.518125 
L 416.508417 299.518125 
L 412.819161 299.518125 
z
" clip-path="url(#p5d521342a3)" style="fill: #ffffff; fill-opacity: 0.5; stroke: #000000; stroke-width: 0.368926; stroke-linejoin: miter"/>
   </g>
   <g id="patch_205">
    <path d="M 416.508417 299.518125 
L 420.197673 299.518125 
L 420.197673 299.518125 
L 416.508417 299.518125 
z
" clip-path="url(#p5d521342a3)" style="fill: #ffffff; fill-opacity: 0.5; stroke: #000000; stroke-width: 0.368926; stroke-linejoin: miter"/>
   </g>
   <g id="patch_206">
    <path d="M 420.197673 299.518125 
L 423.886929 299.518125 
L 423.886929 299.518125 
L 420.197673 299.518125 
z
" clip-path="url(#p5d521342a3)" style="fill: #ffffff; fill-opacity: 0.5; stroke: #000000; stroke-width: 0.368926; stroke-linejoin: miter"/>
   </g>
   <g id="patch_207">
    <path d="M 423.886929 299.518125 
L 427.576185 299.518125 
L 427.576185 299.518125 
L 423.886929 299.518125 
z
" clip-path="url(#p5d521342a3)" style="fill: #ffffff; fill-opacity: 0.5; stroke: #000000; stroke-width: 0.368926; stroke-linejoin: miter"/>
   </g>
   <g id="patch_208">
    <path d="M 427.576185 299.518125 
L 431.265442 299.518125 
L 431.265442 299.518125 
L 427.576185 299.518125 
z
" clip-path="url(#p5d521342a3)" style="fill: #ffffff; fill-opacity: 0.5; stroke: #000000; stroke-width: 0.368926; stroke-linejoin: miter"/>
   </g>
   <g id="patch_209">
    <path d="M 431.265442 299.518125 
L 434.954698 299.518125 
L 434.954698 299.518125 
L 431.265442 299.518125 
z
" clip-path="url(#p5d521342a3)" style="fill: #ffffff; fill-opacity: 0.5; stroke: #000000; stroke-width: 0.368926; stroke-linejoin: miter"/>
   </g>
   <g id="patch_210">
    <path d="M 434.954698 299.518125 
L 438.643954 299.518125 
L 438.643954 299.518125 
L 434.954698 299.518125 
z
" clip-path="url(#p5d521342a3)" style="fill: #ffffff; fill-opacity: 0.5; stroke: #000000; stroke-width: 0.368926; stroke-linejoin: miter"/>
   </g>
   <g id="patch_211">
    <path d="M 438.643954 299.518125 
L 442.33321 299.518125 
L 442.33321 299.518125 
L 438.643954 299.518125 
z
" clip-path="url(#p5d521342a3)" style="fill: #ffffff; fill-opacity: 0.5; stroke: #000000; stroke-width: 0.368926; stroke-linejoin: miter"/>
   </g>
   <g id="patch_212">
    <path d="M 442.33321 299.518125 
L 446.022466 299.518125 
L 446.022466 299.518125 
L 442.33321 299.518125 
z
" clip-path="url(#p5d521342a3)" style="fill: #ffffff; fill-opacity: 0.5; stroke: #000000; stroke-width: 0.368926; stroke-linejoin: miter"/>
   </g>
   <g id="patch_213">
    <path d="M 446.022466 299.518125 
L 449.711723 299.518125 
L 449.711723 299.518125 
L 446.022466 299.518125 
z
" clip-path="url(#p5d521342a3)" style="fill: #ffffff; fill-opacity: 0.5; stroke: #000000; stroke-width: 0.368926; stroke-linejoin: miter"/>
   </g>
   <g id="patch_214">
    <path d="M 449.711723 299.518125 
L 453.400979 299.518125 
L 453.400979 299.518125 
L 449.711723 299.518125 
z
" clip-path="url(#p5d521342a3)" style="fill: #ffffff; fill-opacity: 0.5; stroke: #000000; stroke-width: 0.368926; stroke-linejoin: miter"/>
   </g>
   <g id="patch_215">
    <path d="M 453.400979 299.518125 
L 457.090235 299.518125 
L 457.090235 299.518125 
L 453.400979 299.518125 
z
" clip-path="url(#p5d521342a3)" style="fill: #ffffff; fill-opacity: 0.5; stroke: #000000; stroke-width: 0.368926; stroke-linejoin: miter"/>
   </g>
   <g id="patch_216">
    <path d="M 457.090235 299.518125 
L 460.779491 299.518125 
L 460.779491 299.518125 
L 457.090235 299.518125 
z
" clip-path="url(#p5d521342a3)" style="fill: #ffffff; fill-opacity: 0.5; stroke: #000000; stroke-width: 0.368926; stroke-linejoin: miter"/>
   </g>
   <g id="patch_217">
    <path d="M 460.779491 299.518125 
L 464.468747 299.518125 
L 464.468747 299.518125 
L 460.779491 299.518125 
z
" clip-path="url(#p5d521342a3)" style="fill: #ffffff; fill-opacity: 0.5; stroke: #000000; stroke-width: 0.368926; stroke-linejoin: miter"/>
   </g>
   <g id="patch_218">
    <path d="M 464.468747 299.518125 
L 468.158004 299.518125 
L 468.158004 299.518125 
L 464.468747 299.518125 
z
" clip-path="url(#p5d521342a3)" style="fill: #ffffff; fill-opacity: 0.5; stroke: #000000; stroke-width: 0.368926; stroke-linejoin: miter"/>
   </g>
   <g id="patch_219">
    <path d="M 468.158004 299.518125 
L 471.84726 299.518125 
L 471.84726 299.518125 
L 468.158004 299.518125 
z
" clip-path="url(#p5d521342a3)" style="fill: #ffffff; fill-opacity: 0.5; stroke: #000000; stroke-width: 0.368926; stroke-linejoin: miter"/>
   </g>
   <g id="patch_220">
    <path d="M 471.84726 299.518125 
L 475.536516 299.518125 
L 475.536516 299.518125 
L 471.84726 299.518125 
z
" clip-path="url(#p5d521342a3)" style="fill: #ffffff; fill-opacity: 0.5; stroke: #000000; stroke-width: 0.368926; stroke-linejoin: miter"/>
   </g>
   <g id="patch_221">
    <path d="M 475.536516 299.518125 
L 479.225772 299.518125 
L 479.225772 299.518125 
L 475.536516 299.518125 
z
" clip-path="url(#p5d521342a3)" style="fill: #ffffff; fill-opacity: 0.5; stroke: #000000; stroke-width: 0.368926; stroke-linejoin: miter"/>
   </g>
   <g id="patch_222">
    <path d="M 479.225772 299.518125 
L 482.915028 299.518125 
L 482.915028 299.518125 
L 479.225772 299.518125 
z
" clip-path="url(#p5d521342a3)" style="fill: #ffffff; fill-opacity: 0.5; stroke: #000000; stroke-width: 0.368926; stroke-linejoin: miter"/>
   </g>
   <g id="patch_223">
    <path d="M 56.805938 299.518125 
L 56.805938 22.318125 
" style="fill: none; stroke: #cccccc; stroke-width: 1.25; stroke-linejoin: miter; stroke-linecap: square"/>
   </g>
   <g id="patch_224">
    <path d="M 503.205938 299.518125 
L 503.205938 22.318125 
" style="fill: none; stroke: #cccccc; stroke-width: 1.25; stroke-linejoin: miter; stroke-linecap: square"/>
   </g>
   <g id="patch_225">
    <path d="M 56.805938 299.518125 
L 503.205938 299.518125 
" style="fill: none; stroke: #cccccc; stroke-width: 1.25; stroke-linejoin: miter; stroke-linecap: square"/>
   </g>
   <g id="patch_226">
    <path d="M 56.805938 22.318125 
L 503.205938 22.318125 
" style="fill: none; stroke: #cccccc; stroke-width: 1.25; stroke-linejoin: miter; stroke-linecap: square"/>
   </g>
   <g id="text_15">
    <!-- Histogram SIO2 (Fixed Interval 1%) -->
    <g style="fill: #262626" transform="translate(174.407813 16.318125) scale(0.12 -0.12)">
     <defs>
      <path id="DejaVuSans-48" d="M 628 4666 
L 1259 4666 
L 1259 2753 
L 3553 2753 
L 3553 4666 
L 4184 4666 
L 4184 0 
L 3553 0 
L 3553 2222 
L 1259 2222 
L 1259 0 
L 628 0 
L 628 4666 
z
" transform="scale(0.015625)"/>
      <path id="DejaVuSans-6f" d="M 1959 3097 
Q 1497 3097 1228 2736 
Q 959 2375 959 1747 
Q 959 1119 1226 758 
Q 1494 397 1959 397 
Q 2419 397 2687 759 
Q 2956 1122 2956 1747 
Q 2956 2369 2687 2733 
Q 2419 3097 1959 3097 
z
M 1959 3584 
Q 2709 3584 3137 3096 
Q 3566 2609 3566 1747 
Q 3566 888 3137 398 
Q 2709 -91 1959 -91 
Q 1206 -91 779 398 
Q 353 888 353 1747 
Q 353 2609 779 3096 
Q 1206 3584 1959 3584 
z
" transform="scale(0.015625)"/>
      <path id="DejaVuSans-67" d="M 2906 1791 
Q 2906 2416 2648 2759 
Q 2391 3103 1925 3103 
Q 1463 3103 1205 2759 
Q 947 2416 947 1791 
Q 947 1169 1205 825 
Q 1463 481 1925 481 
Q 2391 481 2648 825 
Q 2906 1169 2906 1791 
z
M 3481 434 
Q 3481 -459 3084 -895 
Q 2688 -1331 1869 -1331 
Q 1566 -1331 1297 -1286 
Q 1028 -1241 775 -1147 
L 775 -588 
Q 1028 -725 1275 -790 
Q 1522 -856 1778 -856 
Q 2344 -856 2625 -561 
Q 2906 -266 2906 331 
L 2906 616 
Q 2728 306 2450 153 
Q 2172 0 1784 0 
Q 1141 0 747 490 
Q 353 981 353 1791 
Q 353 2603 747 3093 
Q 1141 3584 1784 3584 
Q 2172 3584 2450 3431 
Q 2728 3278 2906 2969 
L 2906 3500 
L 3481 3500 
L 3481 434 
z
" transform="scale(0.015625)"/>
      <path id="DejaVuSans-72" d="M 2631 2963 
Q 2534 3019 2420 3045 
Q 2306 3072 2169 3072 
Q 1681 3072 1420 2755 
Q 1159 2438 1159 1844 
L 1159 0 
L 581 0 
L 581 3500 
L 1159 3500 
L 1159 2956 
Q 1341 3275 1631 3429 
Q 1922 3584 2338 3584 
Q 2397 3584 2469 3576 
Q 2541 3569 2628 3553 
L 2631 2963 
z
" transform="scale(0.015625)"/>
      <path id="DejaVuSans-61" d="M 2194 1759 
Q 1497 1759 1228 1600 
Q 959 1441 959 1056 
Q 959 750 1161 570 
Q 1363 391 1709 391 
Q 2188 391 2477 730 
Q 2766 1069 2766 1631 
L 2766 1759 
L 2194 1759 
z
M 3341 1997 
L 3341 0 
L 2766 0 
L 2766 531 
Q 2569 213 2275 61 
Q 1981 -91 1556 -91 
Q 1019 -91 701 211 
Q 384 513 384 1019 
Q 384 1609 779 1909 
Q 1175 2209 1959 2209 
L 2766 2209 
L 2766 2266 
Q 2766 2663 2505 2880 
Q 2244 3097 1772 3097 
Q 1472 3097 1187 3025 
Q 903 2953 641 2809 
L 641 3341 
Q 956 3463 1253 3523 
Q 1550 3584 1831 3584 
Q 2591 3584 2966 3190 
Q 3341 2797 3341 1997 
z
" transform="scale(0.015625)"/>
      <path id="DejaVuSans-6d" d="M 3328 2828 
Q 3544 3216 3844 3400 
Q 4144 3584 4550 3584 
Q 5097 3584 5394 3201 
Q 5691 2819 5691 2113 
L 5691 0 
L 5113 0 
L 5113 2094 
Q 5113 2597 4934 2840 
Q 4756 3084 4391 3084 
Q 3944 3084 3684 2787 
Q 3425 2491 3425 1978 
L 3425 0 
L 2847 0 
L 2847 2094 
Q 2847 2600 2669 2842 
Q 2491 3084 2119 3084 
Q 1678 3084 1418 2786 
Q 1159 2488 1159 1978 
L 1159 0 
L 581 0 
L 581 3500 
L 1159 3500 
L 1159 2956 
Q 1356 3278 1631 3431 
Q 1906 3584 2284 3584 
Q 2666 3584 2933 3390 
Q 3200 3197 3328 2828 
z
" transform="scale(0.015625)"/>
      <path id="DejaVuSans-20" transform="scale(0.015625)"/>
      <path id="DejaVuSans-28" d="M 1984 4856 
Q 1566 4138 1362 3434 
Q 1159 2731 1159 2009 
Q 1159 1288 1364 580 
Q 1569 -128 1984 -844 
L 1484 -844 
Q 1016 -109 783 600 
Q 550 1309 550 2009 
Q 550 2706 781 3412 
Q 1013 4119 1484 4856 
L 1984 4856 
z
" transform="scale(0.015625)"/>
      <path id="DejaVuSans-46" d="M 628 4666 
L 3309 4666 
L 3309 4134 
L 1259 4134 
L 1259 2759 
L 3109 2759 
L 3109 2228 
L 1259 2228 
L 1259 0 
L 628 0 
L 628 4666 
z
" transform="scale(0.015625)"/>
      <path id="DejaVuSans-78" d="M 3513 3500 
L 2247 1797 
L 3578 0 
L 2900 0 
L 1881 1375 
L 863 0 
L 184 0 
L 1544 1831 
L 300 3500 
L 978 3500 
L 1906 2253 
L 2834 3500 
L 3513 3500 
z
" transform="scale(0.015625)"/>
      <path id="DejaVuSans-64" d="M 2906 2969 
L 2906 4863 
L 3481 4863 
L 3481 0 
L 2906 0 
L 2906 525 
Q 2725 213 2448 61 
Q 2172 -91 1784 -91 
Q 1150 -91 751 415 
Q 353 922 353 1747 
Q 353 2572 751 3078 
Q 1150 3584 1784 3584 
Q 2172 3584 2448 3432 
Q 2725 3281 2906 2969 
z
M 947 1747 
Q 947 1113 1208 752 
Q 1469 391 1925 391 
Q 2381 391 2643 752 
Q 2906 1113 2906 1747 
Q 2906 2381 2643 2742 
Q 2381 3103 1925 3103 
Q 1469 3103 1208 2742 
Q 947 2381 947 1747 
z
" transform="scale(0.015625)"/>
      <path id="DejaVuSans-76" d="M 191 3500 
L 800 3500 
L 1894 563 
L 2988 3500 
L 3597 3500 
L 2284 0 
L 1503 0 
L 191 3500 
z
" transform="scale(0.015625)"/>
      <path id="DejaVuSans-6c" d="M 603 4863 
L 1178 4863 
L 1178 0 
L 603 0 
L 603 4863 
z
" transform="scale(0.015625)"/>
      <path id="DejaVuSans-25" d="M 4653 2053 
Q 4381 2053 4226 1822 
Q 4072 1591 4072 1178 
Q 4072 772 4226 539 
Q 4381 306 4653 306 
Q 4919 306 5073 539 
Q 5228 772 5228 1178 
Q 5228 1588 5073 1820 
Q 4919 2053 4653 2053 
z
M 4653 2450 
Q 5147 2450 5437 2106 
Q 5728 1763 5728 1178 
Q 5728 594 5436 251 
Q 5144 -91 4653 -91 
Q 4153 -91 3862 251 
Q 3572 594 3572 1178 
Q 3572 1766 3864 2108 
Q 4156 2450 4653 2450 
z
M 1428 4353 
Q 1159 4353 1004 4120 
Q 850 3888 850 3481 
Q 850 3069 1003 2837 
Q 1156 2606 1428 2606 
Q 1700 2606 1854 2837 
Q 2009 3069 2009 3481 
Q 2009 3884 1853 4118 
Q 1697 4353 1428 4353 
z
M 4250 4750 
L 4750 4750 
L 1831 -91 
L 1331 -91 
L 4250 4750 
z
M 1428 4750 
Q 1922 4750 2215 4408 
Q 2509 4066 2509 3481 
Q 2509 2891 2217 2550 
Q 1925 2209 1428 2209 
Q 931 2209 642 2551 
Q 353 2894 353 3481 
Q 353 4063 643 4406 
Q 934 4750 1428 4750 
z
" transform="scale(0.015625)"/>
      <path id="DejaVuSans-29" d="M 513 4856 
L 1013 4856 
Q 1481 4119 1714 3412 
Q 1947 2706 1947 2009 
Q 1947 1309 1714 600 
Q 1481 -109 1013 -844 
L 513 -844 
Q 928 -128 1133 580 
Q 1338 1288 1338 2009 
Q 1338 2731 1133 3434 
Q 928 4138 513 4856 
z
" transform="scale(0.015625)"/>
     </defs>
     <use xlink:href="#DejaVuSans-48"/>
     <use xlink:href="#DejaVuSans-69" transform="translate(75.195312 0)"/>
     <use xlink:href="#DejaVuSans-73" transform="translate(102.978516 0)"/>
     <use xlink:href="#DejaVuSans-74" transform="translate(155.078125 0)"/>
     <use xlink:href="#DejaVuSans-6f" transform="translate(194.287109 0)"/>
     <use xlink:href="#DejaVuSans-67" transform="translate(255.46875 0)"/>
     <use xlink:href="#DejaVuSans-72" transform="translate(318.945312 0)"/>
     <use xlink:href="#DejaVuSans-61" transform="translate(360.058594 0)"/>
     <use xlink:href="#DejaVuSans-6d" transform="translate(421.337891 0)"/>
     <use xlink:href="#DejaVuSans-20" transform="translate(518.75 0)"/>
     <use xlink:href="#DejaVuSans-53" transform="translate(550.537109 0)"/>
     <use xlink:href="#DejaVuSans-49" transform="translate(614.013672 0)"/>
     <use xlink:href="#DejaVuSans-4f" transform="translate(643.505859 0)"/>
     <use xlink:href="#DejaVuSans-32" transform="translate(722.216797 0)"/>
     <use xlink:href="#DejaVuSans-20" transform="translate(785.839844 0)"/>
     <use xlink:href="#DejaVuSans-28" transform="translate(817.626953 0)"/>
     <use xlink:href="#DejaVuSans-46" transform="translate(856.640625 0)"/>
     <use xlink:href="#DejaVuSans-69" transform="translate(906.910156 0)"/>
     <use xlink:href="#DejaVuSans-78" transform="translate(934.693359 0)"/>
     <use xlink:href="#DejaVuSans-65" transform="translate(990.748047 0)"/>
     <use xlink:href="#DejaVuSans-64" transform="translate(1052.271484 0)"/>
     <use xlink:href="#DejaVuSans-20" transform="translate(1115.748047 0)"/>
     <use xlink:href="#DejaVuSans-49" transform="translate(1147.535156 0)"/>
     <use xlink:href="#DejaVuSans-6e" transform="translate(1177.027344 0)"/>
     <use xlink:href="#DejaVuSans-74" transform="translate(1240.40625 0)"/>
     <use xlink:href="#DejaVuSans-65" transform="translate(1279.615234 0)"/>
     <use xlink:href="#DejaVuSans-72" transform="translate(1341.138672 0)"/>
     <use xlink:href="#DejaVuSans-76" transform="translate(1382.251953 0)"/>
     <use xlink:href="#DejaVuSans-61" transform="translate(1441.431641 0)"/>
     <use xlink:href="#DejaVuSans-6c" transform="translate(1502.710938 0)"/>
     <use xlink:href="#DejaVuSans-20" transform="translate(1530.494141 0)"/>
     <use xlink:href="#DejaVuSans-31" transform="translate(1562.28125 0)"/>
     <use xlink:href="#DejaVuSans-25" transform="translate(1625.904297 0)"/>
     <use xlink:href="#DejaVuSans-29" transform="translate(1720.923828 0)"/>
    </g>
   </g>
   <g id="legend_1">
    <g id="patch_227">
     <path d="M 436.312187 63.41 
L 495.505938 63.41 
Q 497.705938 63.41 497.705938 61.21 
L 497.705938 30.018125 
Q 497.705938 27.818125 495.505938 27.818125 
L 436.312187 27.818125 
Q 434.112188 27.818125 434.112188 30.018125 
L 434.112188 61.21 
Q 434.112188 63.41 436.312187 63.41 
z
" style="fill: #ffffff; opacity: 0.8; stroke: #cccccc; stroke-linejoin: miter"/>
    </g>
    <g id="patch_228">
     <path d="M 438.512187 40.576406 
L 460.512187 40.576406 
L 460.512187 32.876406 
L 438.512187 32.876406 
z
" style="fill: #800080; fill-opacity: 0.5; stroke: #ffffff; stroke-width: 0.368926; stroke-linejoin: miter"/>
    </g>
    <g id="text_16">
     <!-- Old -->
     <g style="fill: #262626" transform="translate(469.312187 40.576406) scale(0.11 -0.11)">
      <use xlink:href="#DejaVuSans-4f"/>
      <use xlink:href="#DejaVuSans-6c" transform="translate(78.710938 0)"/>
      <use xlink:href="#DejaVuSans-64" transform="translate(106.494141 0)"/>
     </g>
    </g>
    <g id="patch_229">
     <path d="M 438.512187 56.722344 
L 460.512187 56.722344 
L 460.512187 49.022344 
L 438.512187 49.022344 
z
" style="fill: #ffffff; fill-opacity: 0.5; stroke: #000000; stroke-width: 0.368926; stroke-linejoin: miter"/>
    </g>
    <g id="text_17">
     <!-- New -->
     <g style="fill: #262626" transform="translate(469.312187 56.722344) scale(0.11 -0.11)">
      <defs>
       <path id="DejaVuSans-4e" d="M 628 4666 
L 1478 4666 
L 3547 763 
L 3547 4666 
L 4159 4666 
L 4159 0 
L 3309 0 
L 1241 3903 
L 1241 0 
L 628 0 
L 628 4666 
z
" transform="scale(0.015625)"/>
       <path id="DejaVuSans-77" d="M 269 3500 
L 844 3500 
L 1563 769 
L 2278 3500 
L 2956 3500 
L 3675 769 
L 4391 3500 
L 4966 3500 
L 4050 0 
L 3372 0 
L 2619 2869 
L 1863 0 
L 1184 0 
L 269 3500 
z
" transform="scale(0.015625)"/>
      </defs>
      <use xlink:href="#DejaVuSans-4e"/>
      <use xlink:href="#DejaVuSans-65" transform="translate(74.804688 0)"/>
      <use xlink:href="#DejaVuSans-77" transform="translate(136.328125 0)"/>
     </g>
    </g>
   </g>
  </g>
 </g>
 <defs>
  <clipPath id="p5d521342a3">
   <rect x="56.805938" y="22.318125" width="446.4" height="277.2"/>
  </clipPath>
 </defs>
</svg>
