<?xml version="1.0" encoding="utf-8" standalone="no"?>
<!DOCTYPE svg PUBLIC "-//W3C//DTD SVG 1.1//EN"
  "http://www.w3.org/Graphics/SVG/1.1/DTD/svg11.dtd">
<svg xmlns:xlink="http://www.w3.org/1999/xlink" width="424.318814pt" height="352.474375pt" viewBox="0 0 424.318814 352.474375" xmlns="http://www.w3.org/2000/svg" version="1.1">
 <metadata>
  <rdf:RDF xmlns:dc="http://purl.org/dc/elements/1.1/" xmlns:cc="http://creativecommons.org/ns#" xmlns:rdf="http://www.w3.org/1999/02/22-rdf-syntax-ns#">
   <cc:Work>
    <dc:type rdf:resource="http://purl.org/dc/dcmitype/StillImage"/>
    <dc:date>2025-11-04T10:24:53.871723</dc:date>
    <dc:format>image/svg+xml</dc:format>
    <dc:creator>
     <cc:Agent>
      <dc:title>Matplotlib v3.10.6, https://matplotlib.org/</dc:title>
     </cc:Agent>
    </dc:creator>
   </cc:Work>
  </rdf:RDF>
 </metadata>
 <defs>
  <style type="text/css">*{stroke-linejoin: round; stroke-linecap: butt}</style>
 </defs>
 <g id="figure_1">
  <g id="patch_1">
   <path d="M 0 352.474375 
L 424.318814 352.474375 
L 424.318814 0 
L 0 0 
z
" style="fill: #ffffff"/>
  </g>
  <g id="axes_1">
   <g id="patch_2">
    <path d="M 43.78125 314.918125 
L 411.03847 314.918125 
L 411.03847 22.318125 
L 43.78125 22.318125 
z
" style="fill: #ffffff"/>
   </g>
   <g id="matplotlib.axis_1">
    <g id="xtick_1">
     <g id="line2d_1">
      <path d="M 44.022149 314.918125 
L 44.022149 22.318125 
" clip-path="url(#pc3b9e53173)" style="fill: none; stroke: #b0b0b0; stroke-opacity: 0.3; stroke-width: 0.8; stroke-linecap: square"/>
     </g>
     <g id="line2d_2">
      <defs>
       <path id="m6413852988" d="M 0 0 
L 0 3.5 
" style="stroke: #000000; stroke-width: 0.8"/>
      </defs>
      <g>
       <use xlink:href="#m6413852988" x="44.022149" y="314.918125" style="stroke: #000000; stroke-width: 0.8"/>
      </g>
     </g>
     <g id="text_1">
      <!-- 0 -->
      <g transform="translate(40.840899 329.516563) scale(0.1 -0.1)">
       <defs>
        <path id="DejaVuSans-30" d="M 2034 4250 
Q 1547 4250 1301 3770 
Q 1056 3291 1056 2328 
Q 1056 1369 1301 889 
Q 1547 409 2034 409 
Q 2525 409 2770 889 
Q 3016 1369 3016 2328 
Q 3016 3291 2770 3770 
Q 2525 4250 2034 4250 
z
M 2034 4750 
Q 2819 4750 3233 4129 
Q 3647 3509 3647 2328 
Q 3647 1150 3233 529 
Q 2819 -91 2034 -91 
Q 1250 -91 836 529 
Q 422 1150 422 2328 
Q 422 3509 836 4129 
Q 1250 4750 2034 4750 
z
" transform="scale(0.015625)"/>
       </defs>
       <use xlink:href="#DejaVuSans-30"/>
      </g>
     </g>
    </g>
    <g id="xtick_2">
     <g id="line2d_3">
      <path d="M 89.863919 314.918125 
L 89.863919 22.318125 
" clip-path="url(#pc3b9e53173)" style="fill: none; stroke: #b0b0b0; stroke-opacity: 0.3; stroke-width: 0.8; stroke-linecap: square"/>
     </g>
     <g id="line2d_4">
      <g>
       <use xlink:href="#m6413852988" x="89.863919" y="314.918125" style="stroke: #000000; stroke-width: 0.8"/>
      </g>
     </g>
     <g id="text_2">
      <!-- 10 -->
      <g transform="translate(83.501419 329.516563) scale(0.1 -0.1)">
       <defs>
        <path id="DejaVuSans-31" d="M 794 531 
L 1825 531 
L 1825 4091 
L 703 3866 
L 703 4441 
L 1819 4666 
L 2450 4666 
L 2450 531 
L 3481 531 
L 3481 0 
L 794 0 
L 794 531 
z
" transform="scale(0.015625)"/>
       </defs>
       <use xlink:href="#DejaVuSans-31"/>
       <use xlink:href="#DejaVuSans-30" transform="translate(63.623047 0)"/>
      </g>
     </g>
    </g>
    <g id="xtick_3">
     <g id="line2d_5">
      <path d="M 135.70569 314.918125 
L 135.70569 22.318125 
" clip-path="url(#pc3b9e53173)" style="fill: none; stroke: #b0b0b0; stroke-opacity: 0.3; stroke-width: 0.8; stroke-linecap: square"/>
     </g>
     <g id="line2d_6">
      <g>
       <use xlink:href="#m6413852988" x="135.70569" y="314.918125" style="stroke: #000000; stroke-width: 0.8"/>
      </g>
     </g>
     <g id="text_3">
      <!-- 20 -->
      <g transform="translate(129.34319 329.516563) scale(0.1 -0.1)">
       <defs>
        <path id="DejaVuSans-32" d="M 1228 531 
L 3431 531 
L 3431 0 
L 469 0 
L 469 531 
Q 828 903 1448 1529 
Q 2069 2156 2228 2338 
Q 2531 2678 2651 2914 
Q 2772 3150 2772 3378 
Q 2772 3750 2511 3984 
Q 2250 4219 1831 4219 
Q 1534 4219 1204 4116 
Q 875 4013 500 3803 
L 500 4441 
Q 881 4594 1212 4672 
Q 1544 4750 1819 4750 
Q 2544 4750 2975 4387 
Q 3406 4025 3406 3419 
Q 3406 3131 3298 2873 
Q 3191 2616 2906 2266 
Q 2828 2175 2409 1742 
Q 1991 1309 1228 531 
z
" transform="scale(0.015625)"/>
       </defs>
       <use xlink:href="#DejaVuSans-32"/>
       <use xlink:href="#DejaVuSans-30" transform="translate(63.623047 0)"/>
      </g>
     </g>
    </g>
    <g id="xtick_4">
     <g id="line2d_7">
      <path d="M 181.54746 314.918125 
L 181.54746 22.318125 
" clip-path="url(#pc3b9e53173)" style="fill: none; stroke: #b0b0b0; stroke-opacity: 0.3; stroke-width: 0.8; stroke-linecap: square"/>
     </g>
     <g id="line2d_8">
      <g>
       <use xlink:href="#m6413852988" x="181.54746" y="314.918125" style="stroke: #000000; stroke-width: 0.8"/>
      </g>
     </g>
     <g id="text_4">
      <!-- 30 -->
      <g transform="translate(175.18496 329.516563) scale(0.1 -0.1)">
       <defs>
        <path id="DejaVuSans-33" d="M 2597 2516 
Q 3050 2419 3304 2112 
Q 3559 1806 3559 1356 
Q 3559 666 3084 287 
Q 2609 -91 1734 -91 
Q 1441 -91 1130 -33 
Q 819 25 488 141 
L 488 750 
Q 750 597 1062 519 
Q 1375 441 1716 441 
Q 2309 441 2620 675 
Q 2931 909 2931 1356 
Q 2931 1769 2642 2001 
Q 2353 2234 1838 2234 
L 1294 2234 
L 1294 2753 
L 1863 2753 
Q 2328 2753 2575 2939 
Q 2822 3125 2822 3475 
Q 2822 3834 2567 4026 
Q 2313 4219 1838 4219 
Q 1578 4219 1281 4162 
Q 984 4106 628 3988 
L 628 4550 
Q 988 4650 1302 4700 
Q 1616 4750 1894 4750 
Q 2613 4750 3031 4423 
Q 3450 4097 3450 3541 
Q 3450 3153 3228 2886 
Q 3006 2619 2597 2516 
z
" transform="scale(0.015625)"/>
       </defs>
       <use xlink:href="#DejaVuSans-33"/>
       <use xlink:href="#DejaVuSans-30" transform="translate(63.623047 0)"/>
      </g>
     </g>
    </g>
    <g id="xtick_5">
     <g id="line2d_9">
      <path d="M 227.389231 314.918125 
L 227.389231 22.318125 
" clip-path="url(#pc3b9e53173)" style="fill: none; stroke: #b0b0b0; stroke-opacity: 0.3; stroke-width: 0.8; stroke-linecap: square"/>
     </g>
     <g id="line2d_10">
      <g>
       <use xlink:href="#m6413852988" x="227.389231" y="314.918125" style="stroke: #000000; stroke-width: 0.8"/>
      </g>
     </g>
     <g id="text_5">
      <!-- 40 -->
      <g transform="translate(221.026731 329.516563) scale(0.1 -0.1)">
       <defs>
        <path id="DejaVuSans-34" d="M 2419 4116 
L 825 1625 
L 2419 1625 
L 2419 4116 
z
M 2253 4666 
L 3047 4666 
L 3047 1625 
L 3713 1625 
L 3713 1100 
L 3047 1100 
L 3047 0 
L 2419 0 
L 2419 1100 
L 313 1100 
L 313 1709 
L 2253 4666 
z
" transform="scale(0.015625)"/>
       </defs>
       <use xlink:href="#DejaVuSans-34"/>
       <use xlink:href="#DejaVuSans-30" transform="translate(63.623047 0)"/>
      </g>
     </g>
    </g>
    <g id="xtick_6">
     <g id="line2d_11">
      <path d="M 273.231002 314.918125 
L 273.231002 22.318125 
" clip-path="url(#pc3b9e53173)" style="fill: none; stroke: #b0b0b0; stroke-opacity: 0.3; stroke-width: 0.8; stroke-linecap: square"/>
     </g>
     <g id="line2d_12">
      <g>
       <use xlink:href="#m6413852988" x="273.231002" y="314.918125" style="stroke: #000000; stroke-width: 0.8"/>
      </g>
     </g>
     <g id="text_6">
      <!-- 50 -->
      <g transform="translate(266.868502 329.516563) scale(0.1 -0.1)">
       <defs>
        <path id="DejaVuSans-35" d="M 691 4666 
L 3169 4666 
L 3169 4134 
L 1269 4134 
L 1269 2991 
Q 1406 3038 1543 3061 
Q 1681 3084 1819 3084 
Q 2600 3084 3056 2656 
Q 3513 2228 3513 1497 
Q 3513 744 3044 326 
Q 2575 -91 1722 -91 
Q 1428 -91 1123 -41 
Q 819 9 494 109 
L 494 744 
Q 775 591 1075 516 
Q 1375 441 1709 441 
Q 2250 441 2565 725 
Q 2881 1009 2881 1497 
Q 2881 1984 2565 2268 
Q 2250 2553 1709 2553 
Q 1456 2553 1204 2497 
Q 953 2441 691 2322 
L 691 4666 
z
" transform="scale(0.015625)"/>
       </defs>
       <use xlink:href="#DejaVuSans-35"/>
       <use xlink:href="#DejaVuSans-30" transform="translate(63.623047 0)"/>
      </g>
     </g>
    </g>
    <g id="xtick_7">
     <g id="line2d_13">
      <path d="M 319.072772 314.918125 
L 319.072772 22.318125 
" clip-path="url(#pc3b9e53173)" style="fill: none; stroke: #b0b0b0; stroke-opacity: 0.3; stroke-width: 0.8; stroke-linecap: square"/>
     </g>
     <g id="line2d_14">
      <g>
       <use xlink:href="#m6413852988" x="319.072772" y="314.918125" style="stroke: #000000; stroke-width: 0.8"/>
      </g>
     </g>
     <g id="text_7">
      <!-- 60 -->
      <g transform="translate(312.710272 329.516563) scale(0.1 -0.1)">
       <defs>
        <path id="DejaVuSans-36" d="M 2113 2584 
Q 1688 2584 1439 2293 
Q 1191 2003 1191 1497 
Q 1191 994 1439 701 
Q 1688 409 2113 409 
Q 2538 409 2786 701 
Q 3034 994 3034 1497 
Q 3034 2003 2786 2293 
Q 2538 2584 2113 2584 
z
M 3366 4563 
L 3366 3988 
Q 3128 4100 2886 4159 
Q 2644 4219 2406 4219 
Q 1781 4219 1451 3797 
Q 1122 3375 1075 2522 
Q 1259 2794 1537 2939 
Q 1816 3084 2150 3084 
Q 2853 3084 3261 2657 
Q 3669 2231 3669 1497 
Q 3669 778 3244 343 
Q 2819 -91 2113 -91 
Q 1303 -91 875 529 
Q 447 1150 447 2328 
Q 447 3434 972 4092 
Q 1497 4750 2381 4750 
Q 2619 4750 2861 4703 
Q 3103 4656 3366 4563 
z
" transform="scale(0.015625)"/>
       </defs>
       <use xlink:href="#DejaVuSans-36"/>
       <use xlink:href="#DejaVuSans-30" transform="translate(63.623047 0)"/>
      </g>
     </g>
    </g>
    <g id="xtick_8">
     <g id="line2d_15">
      <path d="M 364.914543 314.918125 
L 364.914543 22.318125 
" clip-path="url(#pc3b9e53173)" style="fill: none; stroke: #b0b0b0; stroke-opacity: 0.3; stroke-width: 0.8; stroke-linecap: square"/>
     </g>
     <g id="line2d_16">
      <g>
       <use xlink:href="#m6413852988" x="364.914543" y="314.918125" style="stroke: #000000; stroke-width: 0.8"/>
      </g>
     </g>
     <g id="text_8">
      <!-- 70 -->
      <g transform="translate(358.552043 329.516563) scale(0.1 -0.1)">
       <defs>
        <path id="DejaVuSans-37" d="M 525 4666 
L 3525 4666 
L 3525 4397 
L 1831 0 
L 1172 0 
L 2766 4134 
L 525 4134 
L 525 4666 
z
" transform="scale(0.015625)"/>
       </defs>
       <use xlink:href="#DejaVuSans-37"/>
       <use xlink:href="#DejaVuSans-30" transform="translate(63.623047 0)"/>
      </g>
     </g>
    </g>
    <g id="xtick_9">
     <g id="line2d_17">
      <path d="M 410.756314 314.918125 
L 410.756314 22.318125 
" clip-path="url(#pc3b9e53173)" style="fill: none; stroke: #b0b0b0; stroke-opacity: 0.3; stroke-width: 0.8; stroke-linecap: square"/>
     </g>
     <g id="line2d_18">
      <g>
       <use xlink:href="#m6413852988" x="410.756314" y="314.918125" style="stroke: #000000; stroke-width: 0.8"/>
      </g>
     </g>
     <g id="text_9">
      <!-- 80 -->
      <g transform="translate(404.393814 329.516563) scale(0.1 -0.1)">
       <defs>
        <path id="DejaVuSans-38" d="M 2034 2216 
Q 1584 2216 1326 1975 
Q 1069 1734 1069 1313 
Q 1069 891 1326 650 
Q 1584 409 2034 409 
Q 2484 409 2743 651 
Q 3003 894 3003 1313 
Q 3003 1734 2745 1975 
Q 2488 2216 2034 2216 
z
M 1403 2484 
Q 997 2584 770 2862 
Q 544 3141 544 3541 
Q 544 4100 942 4425 
Q 1341 4750 2034 4750 
Q 2731 4750 3128 4425 
Q 3525 4100 3525 3541 
Q 3525 3141 3298 2862 
Q 3072 2584 2669 2484 
Q 3125 2378 3379 2068 
Q 3634 1759 3634 1313 
Q 3634 634 3220 271 
Q 2806 -91 2034 -91 
Q 1263 -91 848 271 
Q 434 634 434 1313 
Q 434 1759 690 2068 
Q 947 2378 1403 2484 
z
M 1172 3481 
Q 1172 3119 1398 2916 
Q 1625 2713 2034 2713 
Q 2441 2713 2670 2916 
Q 2900 3119 2900 3481 
Q 2900 3844 2670 4047 
Q 2441 4250 2034 4250 
Q 1625 4250 1398 4047 
Q 1172 3844 1172 3481 
z
" transform="scale(0.015625)"/>
       </defs>
       <use xlink:href="#DejaVuSans-38"/>
       <use xlink:href="#DejaVuSans-30" transform="translate(63.623047 0)"/>
      </g>
     </g>
    </g>
    <g id="text_10">
     <!-- SIO2 -->
     <g transform="translate(215.643454 343.194687) scale(0.1 -0.1)">
      <defs>
       <path id="DejaVuSans-53" d="M 3425 4513 
L 3425 3897 
Q 3066 4069 2747 4153 
Q 2428 4238 2131 4238 
Q 1616 4238 1336 4038 
Q 1056 3838 1056 3469 
Q 1056 3159 1242 3001 
Q 1428 2844 1947 2747 
L 2328 2669 
Q 3034 2534 3370 2195 
Q 3706 1856 3706 1288 
Q 3706 609 3251 259 
Q 2797 -91 1919 -91 
Q 1588 -91 1214 -16 
Q 841 59 441 206 
L 441 856 
Q 825 641 1194 531 
Q 1563 422 1919 422 
Q 2459 422 2753 634 
Q 3047 847 3047 1241 
Q 3047 1584 2836 1778 
Q 2625 1972 2144 2069 
L 1759 2144 
Q 1053 2284 737 2584 
Q 422 2884 422 3419 
Q 422 4038 858 4394 
Q 1294 4750 2059 4750 
Q 2388 4750 2728 4690 
Q 3069 4631 3425 4513 
z
" transform="scale(0.015625)"/>
       <path id="DejaVuSans-49" d="M 628 4666 
L 1259 4666 
L 1259 0 
L 628 0 
L 628 4666 
z
" transform="scale(0.015625)"/>
       <path id="DejaVuSans-4f" d="M 2522 4238 
Q 1834 4238 1429 3725 
Q 1025 3213 1025 2328 
Q 1025 1447 1429 934 
Q 1834 422 2522 422 
Q 3209 422 3611 934 
Q 4013 1447 4013 2328 
Q 4013 3213 3611 3725 
Q 3209 4238 2522 4238 
z
M 2522 4750 
Q 3503 4750 4090 4092 
Q 4678 3434 4678 2328 
Q 4678 1225 4090 567 
Q 3503 -91 2522 -91 
Q 1538 -91 948 565 
Q 359 1222 359 2328 
Q 359 3434 948 4092 
Q 1538 4750 2522 4750 
z
" transform="scale(0.015625)"/>
      </defs>
      <use xlink:href="#DejaVuSans-53"/>
      <use xlink:href="#DejaVuSans-49" transform="translate(63.476562 0)"/>
      <use xlink:href="#DejaVuSans-4f" transform="translate(92.96875 0)"/>
      <use xlink:href="#DejaVuSans-32" transform="translate(171.679688 0)"/>
     </g>
    </g>
   </g>
   <g id="matplotlib.axis_2">
    <g id="ytick_1">
     <g id="line2d_19">
      <path d="M 43.78125 314.918125 
L 411.03847 314.918125 
" clip-path="url(#pc3b9e53173)" style="fill: none; stroke: #b0b0b0; stroke-opacity: 0.3; stroke-width: 0.8; stroke-linecap: square"/>
     </g>
     <g id="line2d_20">
      <defs>
       <path id="mdd7248a547" d="M 0 0 
L -3.5 0 
" style="stroke: #000000; stroke-width: 0.8"/>
      </defs>
      <g>
       <use xlink:href="#mdd7248a547" x="43.78125" y="314.918125" style="stroke: #000000; stroke-width: 0.8"/>
      </g>
     </g>
     <g id="text_11">
      <!-- 0.0 -->
      <g transform="translate(20.878125 318.717344) scale(0.1 -0.1)">
       <defs>
        <path id="DejaVuSans-2e" d="M 684 794 
L 1344 794 
L 1344 0 
L 684 0 
L 684 794 
z
" transform="scale(0.015625)"/>
       </defs>
       <use xlink:href="#DejaVuSans-30"/>
       <use xlink:href="#DejaVuSans-2e" transform="translate(63.623047 0)"/>
       <use xlink:href="#DejaVuSans-30" transform="translate(95.410156 0)"/>
      </g>
     </g>
    </g>
    <g id="ytick_2">
     <g id="line2d_21">
      <path d="M 43.78125 256.398125 
L 411.03847 256.398125 
" clip-path="url(#pc3b9e53173)" style="fill: none; stroke: #b0b0b0; stroke-opacity: 0.3; stroke-width: 0.8; stroke-linecap: square"/>
     </g>
     <g id="line2d_22">
      <g>
       <use xlink:href="#mdd7248a547" x="43.78125" y="256.398125" style="stroke: #000000; stroke-width: 0.8"/>
      </g>
     </g>
     <g id="text_12">
      <!-- 0.2 -->
      <g transform="translate(20.878125 260.197344) scale(0.1 -0.1)">
       <use xlink:href="#DejaVuSans-30"/>
       <use xlink:href="#DejaVuSans-2e" transform="translate(63.623047 0)"/>
       <use xlink:href="#DejaVuSans-32" transform="translate(95.410156 0)"/>
      </g>
     </g>
    </g>
    <g id="ytick_3">
     <g id="line2d_23">
      <path d="M 43.78125 197.878125 
L 411.03847 197.878125 
" clip-path="url(#pc3b9e53173)" style="fill: none; stroke: #b0b0b0; stroke-opacity: 0.3; stroke-width: 0.8; stroke-linecap: square"/>
     </g>
     <g id="line2d_24">
      <g>
       <use xlink:href="#mdd7248a547" x="43.78125" y="197.878125" style="stroke: #000000; stroke-width: 0.8"/>
      </g>
     </g>
     <g id="text_13">
      <!-- 0.4 -->
      <g transform="translate(20.878125 201.677344) scale(0.1 -0.1)">
       <use xlink:href="#DejaVuSans-30"/>
       <use xlink:href="#DejaVuSans-2e" transform="translate(63.623047 0)"/>
       <use xlink:href="#DejaVuSans-34" transform="translate(95.410156 0)"/>
      </g>
     </g>
    </g>
    <g id="ytick_4">
     <g id="line2d_25">
      <path d="M 43.78125 139.358125 
L 411.03847 139.358125 
" clip-path="url(#pc3b9e53173)" style="fill: none; stroke: #b0b0b0; stroke-opacity: 0.3; stroke-width: 0.8; stroke-linecap: square"/>
     </g>
     <g id="line2d_26">
      <g>
       <use xlink:href="#mdd7248a547" x="43.78125" y="139.358125" style="stroke: #000000; stroke-width: 0.8"/>
      </g>
     </g>
     <g id="text_14">
      <!-- 0.6 -->
      <g transform="translate(20.878125 143.157344) scale(0.1 -0.1)">
       <use xlink:href="#DejaVuSans-30"/>
       <use xlink:href="#DejaVuSans-2e" transform="translate(63.623047 0)"/>
       <use xlink:href="#DejaVuSans-36" transform="translate(95.410156 0)"/>
      </g>
     </g>
    </g>
    <g id="ytick_5">
     <g id="line2d_27">
      <path d="M 43.78125 80.838125 
L 411.03847 80.838125 
" clip-path="url(#pc3b9e53173)" style="fill: none; stroke: #b0b0b0; stroke-opacity: 0.3; stroke-width: 0.8; stroke-linecap: square"/>
     </g>
     <g id="line2d_28">
      <g>
       <use xlink:href="#mdd7248a547" x="43.78125" y="80.838125" style="stroke: #000000; stroke-width: 0.8"/>
      </g>
     </g>
     <g id="text_15">
      <!-- 0.8 -->
      <g transform="translate(20.878125 84.637344) scale(0.1 -0.1)">
       <use xlink:href="#DejaVuSans-30"/>
       <use xlink:href="#DejaVuSans-2e" transform="translate(63.623047 0)"/>
       <use xlink:href="#DejaVuSans-38" transform="translate(95.410156 0)"/>
      </g>
     </g>
    </g>
    <g id="ytick_6">
     <g id="line2d_29">
      <path d="M 43.78125 22.318125 
L 411.03847 22.318125 
" clip-path="url(#pc3b9e53173)" style="fill: none; stroke: #b0b0b0; stroke-opacity: 0.3; stroke-width: 0.8; stroke-linecap: square"/>
     </g>
     <g id="line2d_30">
      <g>
       <use xlink:href="#mdd7248a547" x="43.78125" y="22.318125" style="stroke: #000000; stroke-width: 0.8"/>
      </g>
     </g>
     <g id="text_16">
      <!-- 1.0 -->
      <g transform="translate(20.878125 26.117344) scale(0.1 -0.1)">
       <use xlink:href="#DejaVuSans-31"/>
       <use xlink:href="#DejaVuSans-2e" transform="translate(63.623047 0)"/>
       <use xlink:href="#DejaVuSans-30" transform="translate(95.410156 0)"/>
      </g>
     </g>
    </g>
    <g id="text_17">
     <!-- Cumulative Probability -->
     <g transform="translate(14.798438 225.173594) rotate(-90) scale(0.1 -0.1)">
      <defs>
       <path id="DejaVuSans-43" d="M 4122 4306 
L 4122 3641 
Q 3803 3938 3442 4084 
Q 3081 4231 2675 4231 
Q 1875 4231 1450 3742 
Q 1025 3253 1025 2328 
Q 1025 1406 1450 917 
Q 1875 428 2675 428 
Q 3081 428 3442 575 
Q 3803 722 4122 1019 
L 4122 359 
Q 3791 134 3420 21 
Q 3050 -91 2638 -91 
Q 1578 -91 968 557 
Q 359 1206 359 2328 
Q 359 3453 968 4101 
Q 1578 4750 2638 4750 
Q 3056 4750 3426 4639 
Q 3797 4528 4122 4306 
z
" transform="scale(0.015625)"/>
       <path id="DejaVuSans-75" d="M 544 1381 
L 544 3500 
L 1119 3500 
L 1119 1403 
Q 1119 906 1312 657 
Q 1506 409 1894 409 
Q 2359 409 2629 706 
Q 2900 1003 2900 1516 
L 2900 3500 
L 3475 3500 
L 3475 0 
L 2900 0 
L 2900 538 
Q 2691 219 2414 64 
Q 2138 -91 1772 -91 
Q 1169 -91 856 284 
Q 544 659 544 1381 
z
M 1991 3584 
L 1991 3584 
z
" transform="scale(0.015625)"/>
       <path id="DejaVuSans-6d" d="M 3328 2828 
Q 3544 3216 3844 3400 
Q 4144 3584 4550 3584 
Q 5097 3584 5394 3201 
Q 5691 2819 5691 2113 
L 5691 0 
L 5113 0 
L 5113 2094 
Q 5113 2597 4934 2840 
Q 4756 3084 4391 3084 
Q 3944 3084 3684 2787 
Q 3425 2491 3425 1978 
L 3425 0 
L 2847 0 
L 2847 2094 
Q 2847 2600 2669 2842 
Q 2491 3084 2119 3084 
Q 1678 3084 1418 2786 
Q 1159 2488 1159 1978 
L 1159 0 
L 581 0 
L 581 3500 
L 1159 3500 
L 1159 2956 
Q 1356 3278 1631 3431 
Q 1906 3584 2284 3584 
Q 2666 3584 2933 3390 
Q 3200 3197 3328 2828 
z
" transform="scale(0.015625)"/>
       <path id="DejaVuSans-6c" d="M 603 4863 
L 1178 4863 
L 1178 0 
L 603 0 
L 603 4863 
z
" transform="scale(0.015625)"/>
       <path id="DejaVuSans-61" d="M 2194 1759 
Q 1497 1759 1228 1600 
Q 959 1441 959 1056 
Q 959 750 1161 570 
Q 1363 391 1709 391 
Q 2188 391 2477 730 
Q 2766 1069 2766 1631 
L 2766 1759 
L 2194 1759 
z
M 3341 1997 
L 3341 0 
L 2766 0 
L 2766 531 
Q 2569 213 2275 61 
Q 1981 -91 1556 -91 
Q 1019 -91 701 211 
Q 384 513 384 1019 
Q 384 1609 779 1909 
Q 1175 2209 1959 2209 
L 2766 2209 
L 2766 2266 
Q 2766 2663 2505 2880 
Q 2244 3097 1772 3097 
Q 1472 3097 1187 3025 
Q 903 2953 641 2809 
L 641 3341 
Q 956 3463 1253 3523 
Q 1550 3584 1831 3584 
Q 2591 3584 2966 3190 
Q 3341 2797 3341 1997 
z
" transform="scale(0.015625)"/>
       <path id="DejaVuSans-74" d="M 1172 4494 
L 1172 3500 
L 2356 3500 
L 2356 3053 
L 1172 3053 
L 1172 1153 
Q 1172 725 1289 603 
Q 1406 481 1766 481 
L 2356 481 
L 2356 0 
L 1766 0 
Q 1100 0 847 248 
Q 594 497 594 1153 
L 594 3053 
L 172 3053 
L 172 3500 
L 594 3500 
L 594 4494 
L 1172 4494 
z
" transform="scale(0.015625)"/>
       <path id="DejaVuSans-69" d="M 603 3500 
L 1178 3500 
L 1178 0 
L 603 0 
L 603 3500 
z
M 603 4863 
L 1178 4863 
L 1178 4134 
L 603 4134 
L 603 4863 
z
" transform="scale(0.015625)"/>
       <path id="DejaVuSans-76" d="M 191 3500 
L 800 3500 
L 1894 563 
L 2988 3500 
L 3597 3500 
L 2284 0 
L 1503 0 
L 191 3500 
z
" transform="scale(0.015625)"/>
       <path id="DejaVuSans-65" d="M 3597 1894 
L 3597 1613 
L 953 1613 
Q 991 1019 1311 708 
Q 1631 397 2203 397 
Q 2534 397 2845 478 
Q 3156 559 3463 722 
L 3463 178 
Q 3153 47 2828 -22 
Q 2503 -91 2169 -91 
Q 1331 -91 842 396 
Q 353 884 353 1716 
Q 353 2575 817 3079 
Q 1281 3584 2069 3584 
Q 2775 3584 3186 3129 
Q 3597 2675 3597 1894 
z
M 3022 2063 
Q 3016 2534 2758 2815 
Q 2500 3097 2075 3097 
Q 1594 3097 1305 2825 
Q 1016 2553 972 2059 
L 3022 2063 
z
" transform="scale(0.015625)"/>
       <path id="DejaVuSans-20" transform="scale(0.015625)"/>
       <path id="DejaVuSans-50" d="M 1259 4147 
L 1259 2394 
L 2053 2394 
Q 2494 2394 2734 2622 
Q 2975 2850 2975 3272 
Q 2975 3691 2734 3919 
Q 2494 4147 2053 4147 
L 1259 4147 
z
M 628 4666 
L 2053 4666 
Q 2838 4666 3239 4311 
Q 3641 3956 3641 3272 
Q 3641 2581 3239 2228 
Q 2838 1875 2053 1875 
L 1259 1875 
L 1259 0 
L 628 0 
L 628 4666 
z
" transform="scale(0.015625)"/>
       <path id="DejaVuSans-72" d="M 2631 2963 
Q 2534 3019 2420 3045 
Q 2306 3072 2169 3072 
Q 1681 3072 1420 2755 
Q 1159 2438 1159 1844 
L 1159 0 
L 581 0 
L 581 3500 
L 1159 3500 
L 1159 2956 
Q 1341 3275 1631 3429 
Q 1922 3584 2338 3584 
Q 2397 3584 2469 3576 
Q 2541 3569 2628 3553 
L 2631 2963 
z
" transform="scale(0.015625)"/>
       <path id="DejaVuSans-6f" d="M 1959 3097 
Q 1497 3097 1228 2736 
Q 959 2375 959 1747 
Q 959 1119 1226 758 
Q 1494 397 1959 397 
Q 2419 397 2687 759 
Q 2956 1122 2956 1747 
Q 2956 2369 2687 2733 
Q 2419 3097 1959 3097 
z
M 1959 3584 
Q 2709 3584 3137 3096 
Q 3566 2609 3566 1747 
Q 3566 888 3137 398 
Q 2709 -91 1959 -91 
Q 1206 -91 779 398 
Q 353 888 353 1747 
Q 353 2609 779 3096 
Q 1206 3584 1959 3584 
z
" transform="scale(0.015625)"/>
       <path id="DejaVuSans-62" d="M 3116 1747 
Q 3116 2381 2855 2742 
Q 2594 3103 2138 3103 
Q 1681 3103 1420 2742 
Q 1159 2381 1159 1747 
Q 1159 1113 1420 752 
Q 1681 391 2138 391 
Q 2594 391 2855 752 
Q 3116 1113 3116 1747 
z
M 1159 2969 
Q 1341 3281 1617 3432 
Q 1894 3584 2278 3584 
Q 2916 3584 3314 3078 
Q 3713 2572 3713 1747 
Q 3713 922 3314 415 
Q 2916 -91 2278 -91 
Q 1894 -91 1617 61 
Q 1341 213 1159 525 
L 1159 0 
L 581 0 
L 581 4863 
L 1159 4863 
L 1159 2969 
z
" transform="scale(0.015625)"/>
       <path id="DejaVuSans-79" d="M 2059 -325 
Q 1816 -950 1584 -1140 
Q 1353 -1331 966 -1331 
L 506 -1331 
L 506 -850 
L 844 -850 
Q 1081 -850 1212 -737 
Q 1344 -625 1503 -206 
L 1606 56 
L 191 3500 
L 800 3500 
L 1894 763 
L 2988 3500 
L 3597 3500 
L 2059 -325 
z
" transform="scale(0.015625)"/>
      </defs>
      <use xlink:href="#DejaVuSans-43"/>
      <use xlink:href="#DejaVuSans-75" transform="translate(69.824219 0)"/>
      <use xlink:href="#DejaVuSans-6d" transform="translate(133.203125 0)"/>
      <use xlink:href="#DejaVuSans-75" transform="translate(230.615234 0)"/>
      <use xlink:href="#DejaVuSans-6c" transform="translate(293.994141 0)"/>
      <use xlink:href="#DejaVuSans-61" transform="translate(321.777344 0)"/>
      <use xlink:href="#DejaVuSans-74" transform="translate(383.056641 0)"/>
      <use xlink:href="#DejaVuSans-69" transform="translate(422.265625 0)"/>
      <use xlink:href="#DejaVuSans-76" transform="translate(450.048828 0)"/>
      <use xlink:href="#DejaVuSans-65" transform="translate(509.228516 0)"/>
      <use xlink:href="#DejaVuSans-20" transform="translate(570.751953 0)"/>
      <use xlink:href="#DejaVuSans-50" transform="translate(602.539062 0)"/>
      <use xlink:href="#DejaVuSans-72" transform="translate(661.091797 0)"/>
      <use xlink:href="#DejaVuSans-6f" transform="translate(699.955078 0)"/>
      <use xlink:href="#DejaVuSans-62" transform="translate(761.136719 0)"/>
      <use xlink:href="#DejaVuSans-61" transform="translate(824.613281 0)"/>
      <use xlink:href="#DejaVuSans-62" transform="translate(885.892578 0)"/>
      <use xlink:href="#DejaVuSans-69" transform="translate(949.369141 0)"/>
      <use xlink:href="#DejaVuSans-6c" transform="translate(977.152344 0)"/>
      <use xlink:href="#DejaVuSans-69" transform="translate(1004.935547 0)"/>
      <use xlink:href="#DejaVuSans-74" transform="translate(1032.71875 0)"/>
      <use xlink:href="#DejaVuSans-79" transform="translate(1071.927734 0)"/>
     </g>
    </g>
   </g>
   <g id="line2d_31">
    <path d="M 67.942384 314.918125 
L 67.942384 314.651154 
L 72.595324 314.651154 
L 72.595324 314.384183 
L 72.888711 314.384183 
L 72.948306 313.850242 
L 74.227291 313.850242 
L 74.227291 313.583271 
L 76.725668 313.583271 
L 76.725668 313.3163 
L 77.119907 313.3163 
L 77.119907 313.049329 
L 78.797716 313.049329 
L 78.797716 312.782359 
L 86.379945 312.782359 
L 86.379945 312.515388 
L 86.833778 312.515388 
L 86.833778 312.248417 
L 91.294182 312.248417 
L 91.294182 311.981446 
L 93.9255 311.981446 
L 93.9255 311.714475 
L 99.655721 311.714475 
L 99.655721 311.447505 
L 102.777546 311.447505 
L 102.777546 311.180534 
L 104.661643 311.180534 
L 104.661643 310.913563 
L 109.218315 310.913563 
L 109.218315 310.646592 
L 109.346672 310.646592 
L 109.346672 310.379621 
L 110.4973 310.379621 
L 110.4973 310.112651 
L 112.803141 310.112651 
L 112.803141 309.84568 
L 112.972756 309.84568 
L 112.972756 309.578709 
L 113.19134 309.578709 
L 113.19134 309.311738 
L 123.039609 309.311738 
L 123.039609 309.044767 
L 124.419446 309.044767 
L 124.419446 308.777797 
L 134.089986 308.777797 
L 134.089986 308.510826 
L 135.751532 308.510826 
L 135.751532 308.243855 
L 136.058671 308.243855 
L 136.058671 307.976884 
L 138.401186 307.976884 
L 138.401186 307.709913 
L 139.32719 307.709913 
L 139.32719 307.442943 
L 140.014816 307.442943 
L 140.014816 307.175972 
L 140.807879 307.175972 
L 140.807879 306.909001 
L 141.390069 306.909001 
L 141.390069 306.64203 
L 141.848487 306.64203 
L 141.894329 306.108089 
L 142.398588 306.108089 
L 142.398588 305.841118 
L 142.811164 305.841118 
L 142.811164 305.574147 
L 143.452949 305.574147 
L 143.452949 305.307176 
L 143.728 305.307176 
L 143.728 305.040205 
L 143.911367 305.040205 
L 143.957209 304.506264 
L 144.140576 304.506264 
L 144.140576 304.239293 
L 144.369784 304.239293 
L 144.369784 303.972322 
L 144.553152 303.972322 
L 144.553152 303.705351 
L 145.149095 303.705351 
L 145.149095 303.43838 
L 145.277452 303.43838 
L 145.277452 303.17141 
L 145.699196 303.17141 
L 145.699196 302.904439 
L 145.836721 302.904439 
L 145.882563 302.370497 
L 145.974246 302.370497 
L 146.06593 301.302614 
L 146.111772 301.302614 
L 146.203455 300.501702 
L 146.256173 300.501702 
L 146.340981 299.96776 
L 146.432664 299.96776 
L 146.478506 299.433818 
L 146.570189 299.433818 
L 146.570189 299.166848 
L 146.707715 299.166848 
L 146.753557 298.632906 
L 147.074449 298.632906 
L 147.074449 298.365935 
L 147.211974 298.365935 
L 147.211974 298.098964 
L 147.3495 298.098964 
L 147.3495 297.831994 
L 147.487025 297.831994 
L 147.487025 297.298052 
L 147.62455 297.298052 
L 147.670392 296.76411 
L 147.807917 296.76411 
L 147.807917 296.49714 
L 147.963779 296.49714 
L 147.963779 296.230169 
L 148.358019 296.230169 
L 148.40386 295.696227 
L 148.770594 295.696227 
L 148.862278 294.361373 
L 149.412379 294.361373 
L 149.412379 294.094402 
L 149.549905 294.094402 
L 149.641588 293.026519 
L 149.733272 293.026519 
L 149.824955 291.424694 
L 150.191689 291.424694 
L 150.191689 291.157724 
L 150.329215 291.157724 
L 150.329215 290.890753 
L 150.970999 290.890753 
L 150.970999 290.623782 
L 151.108525 290.623782 
L 151.108525 290.356811 
L 151.475259 290.356811 
L 151.475259 290.08984 
L 151.841993 290.08984 
L 151.887835 289.555899 
L 152.02536 289.555899 
L 152.071202 289.021957 
L 152.208727 289.021957 
L 152.208727 288.754986 
L 152.392094 288.754986 
L 152.437936 288.221045 
L 152.52962 288.221045 
L 152.52962 287.954074 
L 152.988037 287.954074 
L 153.033879 287.420132 
L 153.217246 287.420132 
L 153.263088 286.886191 
L 153.538139 286.886191 
L 153.538139 286.61922 
L 153.813189 286.61922 
L 153.904873 285.818307 
L 154.179923 285.818307 
L 154.179923 285.551337 
L 154.317449 285.551337 
L 154.409132 285.017395 
L 154.546658 285.017395 
L 154.546658 284.750424 
L 154.821708 284.750424 
L 154.913392 284.216483 
L 155.005075 284.216483 
L 155.005075 283.949512 
L 155.142601 283.949512 
L 155.142601 283.682541 
L 155.692702 283.682541 
L 155.738544 283.148599 
L 155.89899 283.148599 
L 155.967752 282.347687 
L 156.15112 282.347687 
L 156.242803 281.813745 
L 156.288645 281.813745 
L 156.288645 281.279804 
L 156.609537 281.279804 
L 156.655379 280.211921 
L 156.792904 280.211921 
L 156.792904 279.94495 
L 156.93043 279.94495 
L 156.93043 279.677979 
L 157.113797 279.677979 
L 157.113797 279.411008 
L 157.343006 279.411008 
L 157.434689 278.877067 
L 157.526373 278.877067 
L 157.526373 278.610096 
L 157.663898 278.610096 
L 157.70974 278.076154 
L 157.847265 278.076154 
L 157.847265 277.809183 
L 158.213999 277.809183 
L 158.213999 277.542213 
L 158.443208 277.542213 
L 158.443208 277.275242 
L 158.626575 277.275242 
L 158.626575 277.008271 
L 158.855784 277.008271 
L 158.947468 276.474329 
L 159.26836 276.474329 
L 159.26836 276.207359 
L 159.635094 276.207359 
L 159.680936 275.673417 
L 159.818461 275.673417 
L 159.864303 274.605534 
L 160.735297 274.605534 
L 160.735297 274.071592 
L 161.193714 274.071592 
L 161.193714 273.804621 
L 161.881341 273.804621 
L 161.973024 273.27068 
L 162.11055 273.27068 
L 162.11055 272.736738 
L 162.248075 272.736738 
L 162.339759 272.202797 
L 162.431442 272.202797 
L 162.431442 271.935826 
L 162.660651 271.935826 
L 162.660651 271.668855 
L 162.798176 271.668855 
L 162.798176 271.401884 
L 163.027385 271.401884 
L 163.119069 270.600972 
L 163.760853 270.600972 
L 163.760853 270.334001 
L 164.035904 270.334001 
L 164.035904 270.06703 
L 164.219271 270.06703 
L 164.219271 269.800059 
L 164.430143 269.800059 
L 164.430143 269.533089 
L 164.723531 269.533089 
L 164.723531 269.266118 
L 164.906898 269.266118 
L 164.906898 268.999147 
L 165.181948 268.999147 
L 165.191117 268.465205 
L 165.411157 268.465205 
L 165.411157 268.198234 
L 165.869575 268.198234 
L 165.869575 267.931264 
L 166.373834 267.931264 
L 166.419676 267.397322 
L 166.648885 267.397322 
L 166.648885 267.130351 
L 166.832252 267.130351 
L 166.923936 266.329439 
L 167.244828 266.329439 
L 167.244828 266.062468 
L 167.428195 266.062468 
L 167.524921 265.261556 
L 167.657404 265.261556 
L 167.657404 264.994585 
L 168.184584 264.994585 
L 168.207505 264.460643 
L 168.405527 264.460643 
L 168.482556 263.926702 
L 168.803448 263.926702 
L 168.803448 263.659731 
L 169.353549 263.659731 
L 169.399391 263.125789 
L 169.766125 263.125789 
L 169.766125 262.591848 
L 170.362068 262.591848 
L 170.426247 262.057906 
L 170.499594 262.057906 
L 170.499594 261.790935 
L 170.637119 261.790935 
L 170.637119 261.523964 
L 170.91217 261.523964 
L 170.91217 261.256994 
L 171.278904 261.256994 
L 171.278904 260.990023 
L 171.508113 260.990023 
L 171.508113 260.723052 
L 172.195739 260.723052 
L 172.287423 260.18911 
L 172.379106 260.18911 
L 172.379106 259.92214 
L 172.562473 259.92214 
L 172.562473 259.655169 
L 172.791682 259.655169 
L 172.791682 259.388198 
L 172.947544 259.388198 
L 173.020891 258.320315 
L 173.112575 258.320315 
L 173.158416 257.786373 
L 173.2501 257.786373 
L 173.295942 257.252432 
L 174.020242 257.252432 
L 174.121094 256.71849 
L 174.166935 256.71849 
L 174.212777 256.184548 
L 174.309045 256.184548 
L 174.309045 255.917578 
L 174.664319 255.917578 
L 174.717037 255.116665 
L 174.946246 255.116665 
L 174.946246 254.849694 
L 175.083771 254.849694 
L 175.083771 254.582724 
L 175.239633 254.582724 
L 175.31298 253.51484 
L 175.358821 253.51484 
L 175.358821 253.24787 
L 175.954764 253.24787 
L 175.954764 252.980899 
L 176.183973 252.980899 
L 176.183973 252.713928 
L 176.459024 252.713928 
L 176.459024 252.446957 
L 176.779916 252.446957 
L 176.81659 251.646045 
L 177.146651 251.646045 
L 177.146651 251.379074 
L 177.788435 251.379074 
L 177.81594 250.845132 
L 178.017644 250.845132 
L 178.127664 250.311191 
L 178.182675 250.311191 
L 178.182675 249.777249 
L 178.567745 249.777249 
L 178.567745 249.510278 
L 178.93448 249.510278 
L 178.93448 249.243307 
L 179.072005 249.243307 
L 179.072005 248.709366 
L 179.392897 248.709366 
L 179.392897 248.442395 
L 179.530423 248.442395 
L 179.530423 248.175424 
L 179.812349 248.175424 
L 179.812349 247.908453 
L 179.98884 247.908453 
L 180.080524 247.374512 
L 180.190544 247.374512 
L 180.190544 247.107541 
L 180.743854 247.107541 
L 180.743854 246.84057 
L 181.052369 246.84057 
L 181.089043 246.306629 
L 181.226568 246.306629 
L 181.226568 246.039658 
L 181.364093 246.039658 
L 181.364093 245.772687 
L 181.501619 245.772687 
L 181.501619 245.505716 
L 182.235087 245.505716 
L 182.235087 245.238745 
L 182.876872 245.238745 
L 182.922714 244.704804 
L 183.289448 244.704804 
L 183.289448 244.437833 
L 184.343808 244.437833 
L 184.343808 243.36995 
L 185.16896 243.36995 
L 185.214802 242.302067 
L 185.535695 242.302067 
L 185.5632 241.768125 
L 185.67322 241.768125 
L 185.67322 241.501154 
L 185.94827 241.501154 
L 185.994112 240.967213 
L 186.315005 240.967213 
L 186.315005 240.700242 
L 187.048473 240.700242 
L 187.048473 240.433271 
L 187.644416 240.433271 
L 187.667337 239.632359 
L 188.102834 239.632359 
L 188.102834 239.365388 
L 188.973827 239.365388 
L 188.973827 239.098417 
L 189.157194 239.098417 
L 189.157194 238.831446 
L 189.464334 238.831446 
L 189.523929 238.030534 
L 189.936505 238.030534 
L 189.936505 237.763563 
L 190.624131 237.763563 
L 190.624131 237.496592 
L 191.265916 237.496592 
L 191.265916 237.229621 
L 191.508877 237.229621 
L 191.508877 236.962651 
L 191.738086 236.962651 
L 191.738086 236.69568 
L 191.861859 236.69568 
L 191.861859 236.428709 
L 192.389039 236.428709 
L 192.389039 236.161738 
L 192.778694 236.161738 
L 192.778694 235.894767 
L 194.291473 235.894767 
L 194.291473 235.627797 
L 194.428998 235.627797 
L 194.428998 235.360826 
L 195.492527 235.360826 
L 195.492527 235.093855 
L 195.740073 235.093855 
L 195.850093 233.49203 
L 196.015123 233.49203 
L 196.125144 232.691118 
L 196.170985 232.691118 
L 196.276421 231.890205 
L 196.308511 231.890205 
L 196.308511 231.623234 
L 196.537719 231.623234 
L 196.583561 231.089293 
L 196.799018 231.089293 
L 196.799018 230.822322 
L 196.996137 230.822322 
L 197.087821 230.28838 
L 197.179504 230.28838 
L 197.179504 230.02141 
L 197.362871 230.02141 
L 197.362871 229.754439 
L 197.500397 229.754439 
L 197.546238 229.220497 
L 197.683764 229.220497 
L 197.692932 228.686556 
L 197.867131 228.686556 
L 197.871715 228.152614 
L 198.03428 228.152614 
L 198.105508 227.618672 
L 198.295293 227.618672 
L 198.295293 227.351702 
L 198.440153 227.351702 
L 198.440153 227.084731 
L 198.591431 227.084731 
L 198.591431 226.81776 
L 198.829808 226.81776 
L 198.829808 226.283818 
L 199.013175 226.283818 
L 199.118611 225.482906 
L 199.425751 225.482906 
L 199.425751 225.215935 
L 199.563276 225.215935 
L 199.65496 224.415023 
L 199.781942 224.415023 
L 199.792485 223.881081 
L 199.930011 223.881081 
L 199.930011 223.61411 
L 200.296745 223.61411 
L 200.388428 223.080169 
L 200.411349 223.080169 
L 200.411349 222.813198 
L 200.571795 222.813198 
L 200.670355 221.745315 
L 201.172323 221.745315 
L 201.259422 221.211373 
L 201.337353 221.211373 
L 201.351105 220.677432 
L 201.566562 220.677432 
L 201.616988 220.14349 
L 201.947048 220.14349 
L 202.024979 218.808636 
L 202.061653 218.808636 
L 202.162505 218.274694 
L 202.680517 218.274694 
L 202.680517 217.740753 
L 202.883596 217.740753 
L 202.883596 217.473782 
L 203.184776 217.473782 
L 203.230618 216.405899 
L 203.303965 216.405899 
L 203.303965 216.138928 
L 203.734877 216.138928 
L 203.734877 215.604986 
L 203.872403 215.604986 
L 203.872403 215.338016 
L 203.996176 215.338016 
L 204.014512 214.270132 
L 204.229969 214.270132 
L 204.284979 213.736191 
L 204.530461 213.736191 
L 204.560029 213.202249 
L 204.697555 213.202249 
L 204.697555 212.935278 
L 204.83508 212.935278 
L 204.917595 212.401337 
L 204.972605 212.401337 
L 205.00011 211.600424 
L 205.105546 211.600424 
L 205.110131 211.066483 
L 205.385181 211.066483 
L 205.463112 210.26557 
L 205.563964 210.26557 
L 205.563964 209.998599 
L 205.728995 209.998599 
L 205.797757 209.197687 
L 205.843599 209.197687 
L 205.889441 208.129804 
L 206.022382 208.129804 
L 206.026966 207.595862 
L 206.256175 207.595862 
L 206.366195 206.261008 
L 206.453294 206.261008 
L 206.4808 205.727067 
L 206.577067 205.727067 
L 206.577067 205.460096 
L 207.127169 205.460096 
L 207.127169 204.926154 
L 207.283031 204.926154 
L 207.301367 204.392213 
L 207.420556 204.392213 
L 207.493903 203.858271 
L 207.56725 203.858271 
L 207.67727 203.324329 
L 207.741448 203.324329 
L 207.741448 203.057359 
L 207.920231 203.057359 
L 207.920231 202.790388 
L 208.135687 202.790388 
L 208.199866 202.256446 
L 208.364896 202.256446 
L 208.46804 201.455534 
L 208.502422 201.455534 
L 208.594105 200.921592 
L 208.626194 200.921592 
L 208.626194 200.654621 
L 208.951671 200.654621 
L 208.992929 200.12068 
L 209.272563 200.12068 
L 209.281732 199.319767 
L 209.396336 199.319767 
L 209.396336 199.052797 
L 209.556782 199.052797 
L 209.646428 198.251884 
L 209.671387 198.251884 
L 209.694308 197.717943 
L 209.909764 197.717943 
L 210.006032 196.383089 
L 210.051873 196.383089 
L 210.152725 195.849147 
L 210.290251 195.849147 
L 210.290251 195.582176 
L 210.51946 195.582176 
L 210.51946 195.315205 
L 210.757837 195.315205 
L 210.829075 194.514293 
L 211.023719 194.514293 
L 211.069561 193.980351 
L 211.161244 193.980351 
L 211.161244 193.71338 
L 211.546315 193.71338 
L 211.546315 193.44641 
L 211.821366 193.44641 
L 211.821366 193.179439 
L 211.986396 193.179439 
L 212.032238 192.111556 
L 212.169763 192.111556 
L 212.215605 191.043672 
L 212.325625 191.043672 
L 212.423727 189.708818 
L 212.444814 189.708818 
L 212.444814 189.441848 
L 212.582339 189.441848 
L 212.582339 188.907906 
L 212.719865 188.907906 
L 212.719865 188.640935 
L 212.994915 188.640935 
L 212.994915 188.106994 
L 213.407491 188.106994 
L 213.453333 186.505169 
L 213.6367 186.505169 
L 213.728383 185.971227 
L 213.85674 185.971227 
L 213.85674 185.704256 
L 214.003434 185.704256 
L 214.104286 184.903344 
L 214.186801 184.903344 
L 214.186801 184.636373 
L 214.301406 184.636373 
L 214.324327 184.102432 
L 214.52603 184.102432 
L 214.631466 183.034548 
L 214.984448 183.034548 
L 215.071547 181.966665 
L 215.378687 181.966665 
L 215.470371 181.165753 
L 215.529965 181.165753 
L 215.529965 180.898782 
L 215.97463 180.898782 
L 215.997551 180.36484 
L 216.112156 180.36484 
L 216.17175 179.296957 
L 216.235928 179.296957 
L 216.295523 178.496045 
L 216.361076 178.496045 
L 216.433048 177.962103 
L 216.492642 177.962103 
L 216.570573 176.360278 
L 216.983149 176.360278 
L 216.983149 175.826337 
L 217.14818 175.826337 
L 217.226111 174.758453 
L 217.349883 174.758453 
L 217.400309 174.224512 
L 217.468639 174.224512 
L 217.551587 173.69057 
L 217.817469 173.69057 
L 217.877064 172.088745 
L 218.161283 172.088745 
L 218.266719 171.287833 
L 218.770978 171.287833 
L 218.848909 170.486921 
L 219.046029 170.486921 
L 219.086442 169.952979 
L 219.211059 169.952979 
L 219.307327 168.885096 
L 219.550288 168.885096 
L 219.550288 168.618125 
L 219.73824 168.618125 
L 219.825339 167.817213 
L 219.917023 167.817213 
L 219.962864 167.283271 
L 220.10039 167.283271 
L 220.114142 166.749329 
L 220.223094 166.749329 
L 220.283757 165.147505 
L 220.37544 165.147505 
L 220.37544 164.880534 
L 220.966799 164.880534 
L 221.026393 163.812651 
L 221.764446 163.812651 
L 221.865298 163.278709 
L 221.888219 163.278709 
L 221.93406 162.744767 
L 222.011991 162.744767 
L 222.113302 162.210826 
L 222.140348 162.210826 
L 222.140348 161.943855 
L 222.346636 161.943855 
L 222.346636 161.409913 
L 222.484162 161.409913 
L 222.580429 160.609001 
L 222.667529 160.609001 
L 222.676697 160.075059 
L 222.942579 160.075059 
L 223.034263 157.939293 
L 223.066352 157.939293 
L 223.171788 156.87141 
L 223.245135 156.87141 
L 223.323066 155.803526 
L 223.533938 155.803526 
L 223.533938 155.269585 
L 223.694384 155.269585 
L 223.694384 155.002614 
L 223.859415 155.002614 
L 223.873167 154.468672 
L 223.99694 154.468672 
L 223.99694 153.934731 
L 224.180307 153.934731 
L 224.271991 152.332906 
L 224.336169 152.332906 
L 224.446189 151.798964 
L 224.455358 151.798964 
L 224.5012 150.731081 
L 224.748745 150.731081 
L 224.822092 148.862286 
L 224.913776 148.862286 
L 225.010043 148.328344 
L 225.051301 148.328344 
L 225.051301 148.061373 
L 225.179658 148.061373 
L 225.234668 147.527432 
L 225.422619 147.527432 
L 225.509719 146.726519 
L 225.541808 146.726519 
L 225.647244 145.925607 
L 225.738927 145.925607 
L 225.830611 145.391665 
L 225.922294 145.391665 
L 225.936047 144.857724 
L 226.105662 144.857724 
L 226.105662 144.590753 
L 226.243187 144.590753 
L 226.243187 144.323782 
L 226.472396 144.323782 
L 226.545743 143.52287 
L 226.609921 143.52287 
L 226.609921 143.255899 
L 226.83913 143.255899 
L 226.83913 142.988928 
L 227.031665 142.988928 
L 227.040834 142.454986 
L 227.187527 142.454986 
L 227.187527 142.188016 
L 227.412152 142.188016 
L 227.412152 141.921045 
L 227.526756 141.921045 
L 227.526756 141.654074 
L 227.801807 141.654074 
L 227.893491 140.586191 
L 227.948501 140.586191 
L 228.012679 140.052249 
L 228.148371 140.052249 
L 228.214383 138.984366 
L 228.443592 138.984366 
L 228.489434 138.183453 
L 228.599454 138.183453 
L 228.626959 137.382541 
L 228.764484 137.382541 
L 228.856168 135.780716 
L 228.90201 135.780716 
L 228.993693 134.712833 
L 229.085377 134.712833 
L 229.085377 134.445862 
L 229.268744 134.445862 
L 229.268744 134.178891 
L 229.392517 134.178891 
L 229.456695 133.111008 
L 229.543794 133.111008 
L 229.543794 132.844037 
L 229.68132 132.844037 
L 229.730829 132.310096 
L 230.002212 132.310096 
L 230.100772 131.242213 
L 230.135153 131.242213 
L 230.135153 130.975242 
L 230.273595 130.975242 
L 230.368946 130.174329 
L 230.414788 130.174329 
L 230.46063 128.572505 
L 230.552313 128.572505 
L 230.598155 127.237651 
L 230.772354 127.237651 
L 230.772354 126.97068 
L 230.896127 126.97068 
L 230.964889 126.169767 
L 231.056573 126.169767 
L 231.056573 125.902797 
L 231.23994 125.902797 
L 231.23994 124.300972 
L 231.469149 124.300972 
L 231.514991 123.500059 
L 231.606674 123.500059 
L 231.680021 122.699147 
L 231.744199 122.699147 
L 231.744199 122.432176 
L 231.863388 122.432176 
L 231.973408 121.898234 
L 232.01925 121.898234 
L 232.01925 121.631264 
L 232.156775 121.631264 
L 232.202617 120.56338 
L 232.280548 120.56338 
L 232.340142 120.029439 
L 232.435952 120.029439 
L 232.54643 118.160643 
L 232.569351 118.160643 
L 232.661035 117.626702 
L 232.706877 117.626702 
L 232.752718 116.825789 
L 232.85357 116.825789 
L 232.85357 116.558818 
L 232.981927 116.558818 
L 233.049315 115.757906 
L 233.348661 115.757906 
L 233.348661 115.490935 
L 233.460974 115.490935 
L 233.486187 114.956994 
L 233.715395 114.956994 
L 233.715395 114.690023 
L 233.852921 114.690023 
L 233.953773 113.088198 
L 234.127971 113.088198 
L 234.173813 112.287286 
L 234.348012 112.287286 
L 234.384685 111.486373 
L 234.513042 111.486373 
L 234.600142 110.41849 
L 234.632231 110.41849 
L 234.678073 109.884548 
L 234.769756 109.884548 
L 234.86144 108.015753 
L 234.907282 108.015753 
L 235.014551 106.413928 
L 235.090649 106.413928 
L 235.13649 105.079074 
L 235.228174 105.079074 
L 235.318024 104.278161 
L 235.594908 104.278161 
L 235.672839 103.210278 
L 235.732433 103.210278 
L 235.801196 102.676337 
L 235.869959 102.676337 
L 235.961642 101.074512 
L 236.053326 101.074512 
L 236.158762 97.870862 
L 236.179849 97.870862 
L 236.282535 97.06995 
L 236.291703 97.06995 
L 236.291703 96.802979 
L 236.410892 96.802979 
L 236.511744 96.002067 
L 236.58509 96.002067 
L 236.695111 95.201154 
L 236.699695 95.201154 
L 236.786794 94.400242 
L 236.832636 94.400242 
L 236.905983 93.599329 
L 237.016003 93.599329 
L 237.061845 92.531446 
L 237.153528 92.531446 
L 237.153528 91.730534 
L 237.291054 91.730534 
L 237.382737 91.196592 
L 237.474421 91.196592 
L 237.566104 90.39568 
L 237.659369 90.39568 
L 237.70363 89.594767 
L 237.816471 89.594767 
L 237.886997 87.459001 
L 237.932838 87.459001 
L 238.001601 86.124147 
L 238.118498 86.124147 
L 238.157463 85.590205 
L 238.253731 85.590205 
L 238.345414 84.522322 
L 238.437098 84.522322 
L 238.528781 83.98838 
L 238.574623 83.98838 
L 238.620465 82.653526 
L 238.782745 82.653526 
L 238.849674 81.852614 
L 238.895516 81.852614 
L 238.895516 81.585643 
L 239.051378 81.585643 
L 239.124724 80.784731 
L 239.170566 80.784731 
L 239.170566 80.51776 
L 239.335597 80.51776 
L 239.399775 79.716848 
L 239.491459 79.716848 
L 239.583142 78.115023 
L 239.628984 78.115023 
L 239.628984 77.581081 
L 239.766509 77.581081 
L 239.871945 77.04714 
L 239.904035 77.04714 
L 239.995718 75.979256 
L 240.179085 75.979256 
L 240.257671 75.178344 
L 240.408294 75.178344 
L 240.499978 74.644402 
L 240.608852 74.644402 
L 240.683345 73.576519 
L 240.729186 73.576519 
L 240.82087 72.508636 
L 240.866712 72.508636 
L 240.958395 71.974694 
L 241.187604 71.974694 
L 241.233446 71.173782 
L 241.554338 71.173782 
L 241.60018 70.105899 
L 241.691864 70.105899 
L 241.691864 69.038016 
L 241.921072 69.038016 
L 242.012756 68.237103 
L 242.076934 68.237103 
L 242.076934 67.970132 
L 242.333648 67.970132 
L 242.333648 67.703161 
L 242.562857 67.703161 
L 242.562857 67.16922 
L 242.746224 67.16922 
L 242.856245 66.101337 
L 242.860829 66.101337 
L 242.88375 65.567395 
L 242.986173 65.567395 
L 242.986894 65.033453 
L 243.1588 65.033453 
L 243.1588 64.766483 
L 243.388009 64.766483 
L 243.479693 63.96557 
L 243.708902 63.96557 
L 243.708902 63.698599 
L 243.892269 63.698599 
L 243.892269 63.431629 
L 244.029794 63.431629 
L 244.075636 62.630716 
L 244.259003 62.630716 
L 244.259003 61.829804 
L 244.550962 61.829804 
L 244.637197 60.761921 
L 244.689915 60.761921 
L 244.722005 59.694037 
L 244.854946 59.694037 
L 244.854946 59.427067 
L 244.992471 59.427067 
L 245.038313 58.626154 
L 245.129996 58.626154 
L 245.175838 57.558271 
L 245.267522 57.558271 
L 245.267522 57.2913 
L 245.680098 57.2913 
L 245.734191 56.757359 
L 245.909306 56.757359 
L 245.909306 56.490388 
L 246.092674 56.490388 
L 246.138515 55.689475 
L 246.413566 55.689475 
L 246.413566 55.422505 
L 246.551091 55.422505 
L 246.596933 54.087651 
L 246.734458 54.087651 
L 246.734458 53.82068 
L 246.917367 53.82068 
L 246.963667 51.951884 
L 247.052295 51.951884 
L 247.147034 51.150972 
L 247.28456 51.150972 
L 247.330401 50.083089 
L 247.422085 50.083089 
L 247.439716 49.015205 
L 247.55961 49.015205 
L 247.605452 47.947322 
L 247.742977 47.947322 
L 247.834661 46.612468 
L 247.880503 46.612468 
L 247.972186 45.544585 
L 248.155553 45.544585 
L 248.155553 45.277614 
L 248.306831 45.277614 
L 248.33892 44.476702 
L 248.56541 44.476702 
L 248.659813 43.675789 
L 248.797338 43.675789 
L 248.797338 43.408818 
L 249.11823 43.408818 
L 249.164072 42.073964 
L 249.439123 42.073964 
L 249.439123 41.806994 
L 250.126749 41.806994 
L 250.218433 41.006081 
L 250.355958 41.006081 
L 250.4018 40.47214 
L 250.539325 40.47214 
L 250.539325 40.205169 
L 250.722692 40.205169 
L 250.814376 39.671227 
L 250.997743 39.671227 
L 250.997743 39.404256 
L 251.226952 39.404256 
L 251.226952 38.336373 
L 251.410319 38.336373 
L 251.410319 37.802432 
L 251.547844 37.802432 
L 251.547844 37.535461 
L 251.914578 37.535461 
L 251.943459 37.001519 
L 252.052104 37.001519 
L 252.052104 36.734548 
L 252.299649 36.734548 
L 252.299649 36.467578 
L 252.515106 36.467578 
L 252.515106 36.200607 
L 253.060623 36.200607 
L 253.152306 35.399694 
L 253.289832 35.399694 
L 253.289832 35.132724 
L 253.610724 35.132724 
L 253.656566 34.331811 
L 254.940135 34.331811 
L 255.040987 33.79787 
L 255.169344 33.79787 
L 255.169344 33.530899 
L 255.352711 33.530899 
L 255.444395 32.996957 
L 255.58192 32.996957 
L 255.627762 32.463016 
L 255.847802 32.463016 
L 255.847802 32.196045 
L 257.323907 32.196045 
L 257.323907 31.929074 
L 259.432629 31.929074 
L 259.432629 31.662103 
L 260.807882 31.662103 
L 260.807882 31.395132 
L 261.082933 31.395132 
L 261.082933 31.128161 
L 261.403825 31.128161 
L 261.495509 30.327249 
L 263.512546 30.327249 
L 263.512546 30.060278 
L 264.200173 30.060278 
L 264.200173 29.793307 
L 266.125527 29.793307 
L 266.125527 29.526337 
L 266.492262 29.526337 
L 266.492262 29.259366 
L 267.695608 29.259366 
L 267.695608 28.992395 
L 267.821673 28.992395 
L 267.867515 28.458453 
L 270.34297 28.458453 
L 270.34297 28.191483 
L 271.62654 28.191483 
L 271.62654 27.924512 
L 272.589217 27.924512 
L 272.589217 27.657541 
L 277.035869 27.657541 
L 277.035869 27.39057 
L 277.952704 27.39057 
L 277.952704 27.123599 
L 280.382318 27.123599 
L 280.382318 26.856629 
L 281.711729 26.856629 
L 281.711729 26.055716 
L 282.811932 26.055716 
L 282.811932 25.788745 
L 287.785764 25.788745 
L 287.785764 25.521775 
L 291.109292 25.521775 
L 291.109292 25.254804 
L 296.426938 25.254804 
L 296.426938 24.987833 
L 297.022881 24.987833 
L 297.022881 24.720862 
L 298.352292 24.720862 
L 298.352292 24.453891 
L 304.861824 24.453891 
L 304.861824 24.186921 
L 308.620849 24.186921 
L 308.620849 23.91995 
L 333.23788 23.91995 
L 333.23788 23.652979 
L 336.400962 23.652979 
L 336.400962 23.386008 
L 342.921495 23.386008 
L 342.921495 23.119037 
L 356.433816 23.119037 
L 356.433816 22.852067 
L 390.563014 22.852067 
L 390.563014 22.585096 
L 394.34496 22.585096 
L 394.34496 22.318125 
L 394.34496 22.318125 
" clip-path="url(#pc3b9e53173)" style="fill: none; stroke: #0000ff; stroke-width: 1.5; stroke-linecap: square"/>
   </g>
   <g id="line2d_32">
    <path d="M 60.47476 314.918125 
L 60.502265 314.384183 
L 61.125713 314.384183 
L 61.125713 314.117213 
L 61.804171 314.117213 
L 61.804171 313.850242 
L 61.946281 313.850242 
L 61.946281 313.583271 
L 62.202995 313.583271 
L 62.202995 313.3163 
L 62.661412 313.3163 
L 62.661412 313.049329 
L 63.312366 313.049329 
L 63.312366 312.782359 
L 63.495733 312.782359 
L 63.495733 312.515388 
L 65.379829 312.515388 
L 65.379829 312.248417 
L 66.140803 312.248417 
L 66.140803 311.981446 
L 68.40997 311.981446 
L 68.40997 311.714475 
L 68.60709 311.714475 
L 68.60709 311.447505 
L 69.459747 311.447505 
L 69.459747 311.180534 
L 69.620193 311.180534 
L 69.620193 310.913563 
L 70.138205 310.913563 
L 70.138205 310.646592 
L 72.292768 310.646592 
L 72.292768 310.379621 
L 74.603194 310.379621 
L 74.603194 310.112651 
L 75.244979 310.112651 
L 75.244979 309.84568 
L 75.405425 309.84568 
L 75.405425 309.578709 
L 76.950292 309.578709 
L 76.950292 309.311738 
L 77.161165 309.311738 
L 77.161165 309.044767 
L 78.343882 309.044767 
L 78.343882 308.777797 
L 79.279054 308.777797 
L 79.279054 308.510826 
L 79.709967 308.510826 
L 79.709967 308.243855 
L 79.842908 308.243855 
L 79.842908 307.976884 
L 80.182137 307.976884 
L 80.182137 307.709913 
L 80.539703 307.709913 
L 80.539703 307.442943 
L 80.924774 307.442943 
L 81.002705 306.909001 
L 81.616985 306.909001 
L 81.616985 306.64203 
L 81.731589 306.64203 
L 81.827857 306.108089 
L 82.428384 306.108089 
L 82.428384 305.841118 
L 83.180189 305.841118 
L 83.180189 305.574147 
L 84.34457 305.574147 
L 84.372075 305.040205 
L 85.357673 305.040205 
L 85.357673 304.773234 
L 85.59605 304.773234 
L 85.706071 303.972322 
L 86.467044 303.972322 
L 86.467044 303.705351 
L 86.696253 303.705351 
L 86.755847 303.17141 
L 86.962135 303.17141 
L 86.962135 302.904439 
L 87.791871 302.904439 
L 87.874386 302.370497 
L 89.30465 302.370497 
L 89.30465 302.103526 
L 89.630126 302.103526 
L 89.68972 301.302614 
L 90.822012 301.302614 
L 90.822012 301.035643 
L 91.688422 301.035643 
L 91.688422 300.768672 
L 92.206434 300.768672 
L 92.206434 300.501702 
L 92.321038 300.501702 
L 92.321038 300.234731 
L 92.962823 300.234731 
L 93.008665 299.700789 
L 94.058441 299.700789 
L 94.058441 299.433818 
L 94.250977 299.433818 
L 94.250977 299.166848 
L 94.365581 299.166848 
L 94.365581 298.899877 
L 94.84692 298.899877 
L 94.84692 298.632906 
L 94.979861 298.632906 
L 94.979861 298.365935 
L 95.48412 298.365935 
L 95.48412 298.098964 
L 97.427811 298.098964 
L 97.501158 297.565023 
L 97.666189 297.565023 
L 97.734951 297.031081 
L 98.142943 297.031081 
L 98.193369 296.49714 
L 98.376736 296.49714 
L 98.376736 296.230169 
L 98.518845 296.230169 
L 98.541766 295.696227 
L 99.151462 295.696227 
L 99.151462 295.429256 
L 99.554869 295.429256 
L 99.554869 295.162286 
L 99.866594 295.162286 
L 99.866594 294.895315 
L 100.159981 294.895315 
L 100.159981 294.628344 
L 100.361685 294.628344 
L 100.361685 294.361373 
L 101.351867 294.361373 
L 101.351867 294.094402 
L 101.888216 294.094402 
L 101.888216 293.827432 
L 103.387242 293.827432 
L 103.387242 293.560461 
L 103.524767 293.560461 
L 103.602698 293.026519 
L 103.717302 293.026519 
L 103.717302 292.759548 
L 103.877748 292.759548 
L 103.877748 292.492578 
L 104.331582 292.492578 
L 104.423266 291.958636 
L 105.087971 291.958636 
L 105.087971 291.691665 
L 105.639218 291.691665 
L 105.639218 291.424694 
L 105.766429 291.424694 
L 105.812271 290.890753 
L 106.357788 290.890753 
L 106.357788 290.623782 
L 107.173772 290.623782 
L 107.173772 290.356811 
L 108.218964 290.356811 
L 108.246469 289.82287 
L 108.457341 289.82287 
L 108.516936 289.288928 
L 108.805739 289.288928 
L 108.805739 289.021957 
L 109.154136 289.021957 
L 109.154136 288.754986 
L 109.392513 288.754986 
L 109.392513 288.488016 
L 109.795921 288.488016 
L 109.795921 288.221045 
L 110.740262 288.221045 
L 110.740262 287.954074 
L 110.996975 287.954074 
L 110.996975 287.687103 
L 111.143669 287.687103 
L 111.143669 287.420132 
L 111.450809 287.420132 
L 111.514987 286.886191 
L 112.211782 286.886191 
L 112.211782 286.61922 
L 112.385981 286.61922 
L 112.385981 286.352249 
L 112.697705 286.352249 
L 112.697705 286.085278 
L 114.31592 286.085278 
L 114.31592 285.818307 
L 114.856853 285.818307 
L 114.934784 285.284366 
L 115.108982 285.284366 
L 115.163992 284.750424 
L 115.498637 284.750424 
L 115.498637 284.483453 
L 116.076244 284.483453 
L 116.122085 283.41557 
L 116.218353 283.41557 
L 116.268779 282.881629 
L 117.006832 282.881629 
L 117.006832 282.614658 
L 118.198718 282.614658 
L 118.198718 282.347687 
L 118.652551 282.347687 
L 118.680056 281.813745 
L 118.964275 281.813745 
L 118.964275 281.546775 
L 119.211821 281.546775 
L 119.211821 281.279804 
L 119.427277 281.279804 
L 119.427277 281.012833 
L 119.679407 281.012833 
L 119.679407 280.745862 
L 119.85819 280.745862 
L 119.936121 280.211921 
L 120.114904 280.211921 
L 120.146993 279.677979 
L 121.036323 279.677979 
L 121.128007 279.144037 
L 121.444315 279.144037 
L 121.444315 278.877067 
L 122.173199 278.877067 
L 122.173199 278.610096 
L 122.374903 278.610096 
L 122.374903 278.343125 
L 122.530765 278.343125 
L 122.530765 278.076154 
L 122.682272 278.076154 
L 122.682272 277.809183 
L 123.291738 277.809183 
L 123.332996 277.275242 
L 123.406343 277.275242 
L 123.406343 277.008271 
L 123.566789 277.008271 
L 123.566789 276.7413 
L 124.332347 276.7413 
L 124.332347 276.474329 
L 124.777012 276.474329 
L 124.777012 276.207359 
L 125.611332 276.207359 
L 125.611332 275.940388 
L 125.909303 275.940388 
L 125.909303 275.673417 
L 126.243948 275.673417 
L 126.266869 274.872505 
L 126.771129 274.872505 
L 126.84906 274.338563 
L 126.991169 274.338563 
L 127.059932 273.804621 
L 127.275388 273.804621 
L 127.275388 273.537651 
L 127.467924 273.537651 
L 127.495429 273.003709 
L 128.123461 273.003709 
L 128.123461 272.736738 
L 128.595631 272.736738 
L 128.595631 272.469767 
L 128.765246 272.469767 
L 128.765246 272.202797 
L 128.93486 272.202797 
L 128.93486 271.935826 
L 129.35202 271.935826 
L 129.402446 271.401884 
L 130.10841 271.401884 
L 130.117578 270.867943 
L 131.057334 270.867943 
L 131.057334 270.600972 
L 131.222365 270.600972 
L 131.332385 269.800059 
L 131.644109 269.800059 
L 131.644109 269.533089 
L 131.874235 269.533089 
L 131.874235 269.266118 
L 132.483013 269.266118 
L 132.483013 268.999147 
L 132.69847 268.999147 
L 132.69847 268.732176 
L 132.813074 268.732176 
L 132.813074 268.465205 
L 133.423686 268.465205 
L 133.423686 268.198234 
L 133.564879 268.198234 
L 133.564879 267.931264 
L 134.527556 267.931264 
L 134.527556 267.664293 
L 134.651329 267.664293 
L 134.651329 267.397322 
L 134.83928 267.397322 
L 134.83928 267.130351 
L 135.132668 267.130351 
L 135.132668 266.86338 
L 135.348124 266.86338 
L 135.348124 266.59641 
L 135.875304 266.59641 
L 135.875304 266.329439 
L 136.104513 266.329439 
L 136.104513 266.062468 
L 136.416237 266.062468 
L 136.416237 265.795497 
L 136.530842 265.795497 
L 136.530842 265.528526 
L 136.865487 265.528526 
L 136.865487 265.261556 
L 137.205037 265.261556 
L 137.205037 264.994585 
L 137.31932 264.994585 
L 137.31932 264.727614 
L 137.708975 264.727614 
L 137.708975 264.460643 
L 137.993194 264.460643 
L 137.993194 264.193672 
L 139.629745 264.193672 
L 139.629745 263.926702 
L 140.0194 263.926702 
L 140.0194 263.659731 
L 140.41364 263.659731 
L 140.41364 263.39276 
L 141.133585 263.39276 
L 141.215871 262.858818 
L 142.100617 262.858818 
L 142.100617 262.591848 
L 142.305988 262.591848 
L 142.305988 262.324877 
L 142.655302 262.324877 
L 142.655302 262.057906 
L 143.086215 262.057906 
L 143.16873 261.523964 
L 143.356681 261.523964 
L 143.356681 261.256994 
L 143.718831 261.256994 
L 143.718831 260.990023 
L 143.847188 260.990023 
L 143.847188 260.723052 
L 144.718182 260.723052 
L 144.718182 260.456081 
L 145.236194 260.456081 
L 145.236194 260.18911 
L 145.373719 260.18911 
L 145.373719 259.92214 
L 145.561671 259.92214 
L 145.561671 259.655169 
L 146.712299 259.655169 
L 146.721467 259.121227 
L 147.04236 259.121227 
L 147.056112 258.587286 
L 147.170717 258.587286 
L 147.248648 258.053344 
L 147.299074 258.053344 
L 147.299074 257.786373 
L 147.509946 257.786373 
L 147.509946 257.519402 
L 147.904185 257.519402 
L 147.954611 256.985461 
L 148.394692 256.985461 
L 148.394692 256.71849 
L 148.651406 256.71849 
L 148.651406 256.451519 
L 148.990635 256.451519 
L 149.082319 255.917578 
L 149.760777 255.917578 
L 149.760777 255.650607 
L 149.898302 255.650607 
L 149.898302 255.383636 
L 151.126861 255.383636 
L 151.232298 254.849694 
L 151.548606 254.849694 
L 151.580695 254.315753 
L 152.121628 254.315753 
L 152.227064 253.781811 
L 152.282074 253.781811 
L 152.300411 253.24787 
L 152.955948 253.24787 
L 152.955948 252.980899 
L 154.157003 252.980899 
L 154.189092 252.446957 
L 154.422885 252.446957 
L 154.422885 252.179986 
L 154.743777 252.179986 
L 154.743777 251.913016 
L 155.78897 251.913016 
L 155.78897 251.646045 
L 155.958584 251.646045 
L 155.990673 251.112103 
L 156.62329 251.112103 
L 156.62329 250.845132 
L 156.912093 250.845132 
L 156.912093 250.578161 
L 157.760166 250.578161 
L 157.760166 250.311191 
L 157.87477 250.311191 
L 157.87477 250.04422 
L 157.993959 250.04422 
L 157.993959 249.777249 
L 158.126304 249.777249 
L 158.126304 249.510278 
L 158.310267 249.510278 
L 158.310267 249.243307 
L 158.842031 249.243307 
L 158.842031 248.976337 
L 159.515906 248.976337 
L 159.515906 248.709366 
L 159.74053 248.709366 
L 159.74053 248.442395 
L 159.960571 248.442395 
L 159.960571 248.175424 
L 160.139354 248.175424 
L 160.226453 247.641483 
L 160.2998 247.641483 
L 160.2998 247.374512 
L 160.77197 247.374512 
L 160.77197 247.107541 
L 161.051605 247.107541 
L 161.051605 246.84057 
L 161.720895 246.84057 
L 161.720895 246.573599 
L 161.963856 246.573599 
L 161.963856 246.306629 
L 163.366614 246.306629 
L 163.41704 245.772687 
L 163.811279 245.772687 
L 163.811279 245.505716 
L 164.182598 245.505716 
L 164.233024 244.971775 
L 164.567669 244.971775 
L 164.567669 244.704804 
L 165.016918 244.704804 
L 165.016918 244.437833 
L 166.162962 244.437833 
L 166.162962 244.170862 
L 166.324554 244.170862 
L 166.324554 243.903891 
L 167.011035 243.903891 
L 167.079798 243.102979 
L 167.139392 243.102979 
L 167.244828 242.569037 
L 167.318175 242.569037 
L 167.318175 242.302067 
L 168.202921 242.302067 
L 168.202921 242.035096 
L 168.587992 242.035096 
L 168.587992 241.768125 
L 168.853874 241.768125 
L 168.853874 241.501154 
L 169.404663 241.501154 
L 169.509412 240.967213 
L 169.688194 240.967213 
L 169.688194 240.700242 
L 170.485841 240.700242 
L 170.557813 240.1663 
L 170.692129 240.1663 
L 170.771118 239.632359 
L 171.123042 239.632359 
L 171.123042 239.365388 
L 171.718985 239.365388 
L 171.760242 238.831446 
L 171.874847 238.831446 
L 171.874847 238.564475 
L 172.246165 238.564475 
L 172.30576 238.030534 
L 173.011723 238.030534 
L 173.08507 237.496592 
L 173.50223 237.496592 
L 173.607666 236.69568 
L 173.896469 236.69568 
L 173.896469 236.428709 
L 175.152533 236.428709 
L 175.152533 236.161738 
L 175.326732 236.161738 
L 175.377158 235.627797 
L 175.762229 235.627797 
L 175.762229 235.360826 
L 176.546123 235.360826 
L 176.546123 235.093855 
L 177.577563 235.093855 
L 177.577563 234.826884 
L 177.852614 234.826884 
L 177.852614 234.559913 
L 178.045149 234.559913 
L 178.045149 234.292943 
L 178.576914 234.292943 
L 178.576914 234.025972 
L 178.783202 234.025972 
L 178.783202 233.759001 
L 178.994074 233.759001 
L 178.994074 233.49203 
L 179.200362 233.49203 
L 179.304881 232.958089 
L 179.498333 232.958089 
L 179.498333 232.691118 
L 180.181376 232.691118 
L 180.181376 232.424147 
L 180.584783 232.424147 
L 180.584783 232.157176 
L 180.871753 232.157176 
L 180.871753 231.890205 
L 180.992775 231.890205 
L 180.992775 231.623234 
L 181.774123 231.623234 
L 181.836264 230.822322 
L 181.900442 230.822322 
L 181.977668 230.28838 
L 182.06914 230.28838 
L 182.157156 229.754439 
L 182.207582 229.754439 
L 182.207582 229.487468 
L 182.349691 229.487468 
L 182.386365 228.953526 
L 183.124417 228.953526 
L 183.124417 228.686556 
L 183.743281 228.686556 
L 183.743281 228.419585 
L 184.013748 228.419585 
L 184.099013 227.885643 
L 184.132936 227.885643 
L 184.132936 227.618672 
L 184.861821 227.618672 
L 184.861821 227.351702 
L 185.324822 227.351702 
L 185.343159 226.81776 
L 185.751151 226.81776 
L 185.833666 225.749877 
L 186.044538 225.749877 
L 186.044538 225.482906 
L 186.910948 225.482906 
L 186.910948 225.215935 
L 187.502306 225.215935 
L 187.502306 224.948964 
L 187.726931 224.948964 
L 187.740684 224.415023 
L 187.942387 224.415023 
L 187.942387 224.148052 
L 188.226606 224.148052 
L 188.226606 223.881081 
L 188.455815 223.881081 
L 188.478736 223.34714 
L 188.616262 223.34714 
L 188.616262 223.080169 
L 189.023245 223.080169 
L 189.024482 222.546227 
L 189.776058 222.546227 
L 189.826484 221.745315 
L 190.399506 221.745315 
L 190.399506 221.478344 
L 191.302589 221.478344 
L 191.366768 220.944402 
L 191.944374 220.944402 
L 192.026889 220.14349 
L 192.10482 220.14349 
L 192.10482 219.876519 
L 192.228593 219.876519 
L 192.24693 219.342578 
L 192.402792 219.342578 
L 192.460552 218.274694 
L 192.844569 218.274694 
L 192.93914 217.740753 
L 193.131676 217.740753 
L 193.131676 217.473782 
L 193.255449 217.473782 
L 193.255449 217.206811 
L 193.548836 217.206811 
L 193.548836 216.93984 
L 193.704698 216.93984 
L 193.704698 216.67287 
L 193.920154 216.67287 
L 193.988917 215.871957 
L 194.534434 215.871957 
L 194.589444 215.071045 
L 194.800316 215.071045 
L 194.879393 214.270132 
L 194.969931 214.270132 
L 194.969931 214.003161 
L 195.243148 214.003161 
L 195.318328 213.46922 
L 195.396259 213.46922 
L 195.492527 212.935278 
L 195.584211 212.935278 
L 195.6163 212.401337 
L 195.721736 212.401337 
L 195.804251 211.867395 
L 195.882182 211.867395 
L 195.983034 211.333453 
L 196.065549 211.333453 
L 196.079302 210.799512 
L 196.349768 210.799512 
L 196.446036 210.26557 
L 196.487294 210.26557 
L 196.487294 209.998599 
L 196.886117 209.998599 
L 196.950295 209.464658 
L 197.023642 209.464658 
L 197.023642 209.197687 
L 197.170336 209.197687 
L 197.170336 208.930716 
L 197.307861 208.930716 
L 197.307861 208.663745 
L 197.431634 208.663745 
L 197.431634 208.396775 
L 197.613591 208.396775 
L 197.711269 207.595862 
L 197.793784 207.595862 
L 197.884322 207.061921 
L 197.949646 207.061921 
L 198.00924 205.994037 
L 198.325549 205.994037 
L 198.325549 205.727067 
L 198.444737 205.727067 
L 198.444737 205.460096 
L 198.56851 205.460096 
L 198.669362 204.392213 
L 198.712838 204.392213 
L 198.802303 203.858271 
L 198.843561 203.858271 
L 198.912323 202.790388 
L 199.004007 202.790388 
L 199.004007 202.523417 
L 199.173621 202.523417 
L 199.173621 202.256446 
L 199.425751 202.256446 
L 199.51285 201.455534 
L 199.554108 201.455534 
L 199.659544 200.654621 
L 199.728307 200.654621 
L 199.810822 200.12068 
L 199.90709 200.12068 
L 200.007942 199.586738 
L 200.095041 199.586738 
L 200.147583 198.785826 
L 200.241735 198.785826 
L 200.241735 198.518855 
L 200.406765 198.518855 
L 200.406765 198.251884 
L 200.551808 198.251884 
L 200.551808 197.984913 
L 200.668063 197.984913 
L 200.777258 197.450972 
L 200.803755 197.450972 
L 200.897272 196.116118 
L 200.915609 196.116118 
L 200.915609 195.849147 
L 201.053134 195.849147 
L 201.163154 194.247322 
L 201.218164 194.247322 
L 201.276231 192.645497 
L 201.470294 192.645497 
L 201.470294 192.378526 
L 201.671015 192.378526 
L 201.782018 191.577614 
L 201.878286 191.577614 
L 201.960801 190.509731 
L 202.024979 190.509731 
L 202.024979 190.24276 
L 202.153336 190.24276 
L 202.263357 188.907906 
L 202.322951 188.907906 
L 202.35504 188.106994 
L 202.446724 188.106994 
L 202.520071 187.573052 
L 202.570497 187.573052 
L 202.680517 185.704256 
L 202.698395 185.704256 
L 202.698395 185.437286 
L 202.886805 185.437286 
L 202.996825 184.636373 
L 203.042667 184.636373 
L 203.125547 183.835461 
L 203.193945 183.835461 
L 203.253539 183.301519 
L 203.459827 183.301519 
L 203.537758 181.966665 
L 203.5836 181.966665 
L 203.620273 181.165753 
L 203.711957 181.165753 
L 203.771551 180.631811 
L 203.85865 180.631811 
L 203.904492 179.563928 
L 203.991591 179.563928 
L 204.032849 178.496045 
L 204.138285 178.496045 
L 204.225384 177.695132 
L 204.335405 177.695132 
L 204.422504 177.161191 
L 204.578366 177.161191 
L 204.683802 175.826337 
L 204.738812 175.826337 
L 204.848833 175.025424 
L 204.867169 175.025424 
L 204.967492 174.491483 
L 205.067498 174.491483 
L 205.14222 173.957541 
L 205.238488 173.957541 
L 205.330171 172.889658 
L 205.371429 172.889658 
L 205.481449 170.753891 
L 205.508954 170.753891 
L 205.573132 169.952979 
L 205.641895 169.952979 
L 205.706074 169.152067 
L 205.774836 169.152067 
L 205.820678 167.817213 
L 205.958203 167.817213 
L 206.059055 167.283271 
L 206.081976 167.283271 
L 206.081976 167.0163 
L 206.494552 167.0163 
L 206.581651 166.215388 
L 206.64583 166.215388 
L 206.677919 165.414475 
L 206.797108 165.414475 
L 206.874122 164.880534 
L 206.975891 164.880534 
L 207.072158 163.011738 
L 207.099663 163.011738 
L 207.182179 161.676884 
L 207.223436 161.676884 
L 207.329239 160.075059 
L 207.448061 160.075059 
L 207.525992 159.541118 
L 207.585586 159.541118 
L 207.636012 158.473234 
L 207.700191 158.473234 
L 207.810211 156.87141 
L 207.823963 156.87141 
L 207.920231 155.803526 
L 207.938568 155.803526 
L 208.011915 155.269585 
L 208.071509 155.269585 
L 208.168378 153.934731 
L 208.18703 153.934731 
L 208.20445 153.400789 
L 208.364896 153.400789 
L 208.470332 152.065935 
L 208.502422 152.065935 
L 208.607858 150.46411 
L 208.795809 150.46411 
L 208.809561 149.930169 
L 208.933334 149.930169 
L 209.028456 148.595315 
L 209.066275 148.595315 
L 209.080028 148.061373 
L 209.212969 148.061373 
L 209.313821 146.726519 
L 209.368831 146.726519 
L 209.474267 145.658636 
L 209.503102 145.658636 
L 209.612939 144.056811 
L 209.620961 144.056811 
L 209.620961 143.78984 
L 209.781407 143.78984 
L 209.891427 142.988928 
L 209.984715 142.988928 
L 210.061042 141.921045 
L 210.105508 141.921045 
L 210.12522 141.120132 
L 210.226072 141.120132 
L 210.281082 140.052249 
L 210.404855 140.052249 
L 210.491954 138.984366 
L 210.551549 138.984366 
L 210.643232 138.450424 
L 210.689074 138.450424 
L 210.799094 137.382541 
L 210.858689 137.382541 
L 210.913699 136.581629 
L 211.064977 136.581629 
L 211.110818 135.513745 
L 211.29877 135.513745 
L 211.40879 134.178891 
L 211.445463 134.178891 
L 211.550899 132.577067 
L 211.57382 132.577067 
L 211.674672 131.242213 
L 211.741143 131.242213 
L 211.845387 129.907359 
L 211.926802 129.907359 
L 211.979847 129.373417 
L 212.045991 129.373417 
L 212.156011 128.572505 
L 212.174347 128.572505 
L 212.284368 127.237651 
L 212.330209 127.237651 
L 212.398972 125.101884 
L 212.490656 125.101884 
L 212.600676 123.500059 
L 212.60526 123.500059 
L 212.651102 122.966118 
L 212.742785 122.966118 
L 212.848221 121.898234 
L 212.861974 121.898234 
L 212.96741 120.830351 
L 212.999499 120.830351 
L 213.095721 119.762468 
L 213.173698 119.762468 
L 213.279134 118.694585 
L 213.315808 118.694585 
L 213.38457 117.893672 
L 213.434996 117.893672 
L 213.47167 116.825789 
L 213.609195 116.825789 
L 213.687126 115.757906 
L 213.769641 115.757906 
L 213.877611 114.956994 
L 213.910834 114.956994 
L 213.971345 114.156081 
L 214.076781 114.156081 
L 214.186801 112.287286 
L 214.209722 112.287286 
L 214.209722 112.020315 
L 214.338079 112.020315 
L 214.438931 110.151519 
L 214.489357 110.151519 
L 214.521446 109.617578 
L 214.77816 109.617578 
L 214.837754 109.083636 
L 214.892764 109.083636 
L 214.971979 108.282724 
L 215.021121 108.282724 
L 215.021121 108.015753 
L 215.181568 108.015753 
L 215.28242 107.21484 
L 215.383271 107.21484 
L 215.456618 105.879986 
L 215.539133 105.879986 
L 215.594144 105.079074 
L 215.69958 105.079074 
L 215.791263 104.278161 
L 215.818768 104.278161 
L 215.892115 102.676337 
L 215.937957 102.676337 
L 216.006719 101.875424 
L 216.078538 101.875424 
L 216.167166 99.739658 
L 216.190087 99.739658 
L 216.295523 98.671775 
L 216.313859 98.671775 
L 216.400959 97.06995 
L 216.460553 97.06995 
L 216.501811 96.536008 
L 216.579742 96.536008 
L 216.625583 95.735096 
L 216.726435 95.735096 
L 216.813535 94.400242 
L 216.84104 94.400242 
L 216.923555 93.332359 
L 216.960228 93.332359 
L 216.969397 92.531446 
L 217.129843 92.531446 
L 217.239863 91.196592 
L 217.262784 91.196592 
L 217.294873 90.128709 
L 217.400309 90.128709 
L 217.400309 89.861738 
L 217.8954 89.861738 
L 217.977916 87.992943 
L 218.014589 87.992943 
L 218.115441 87.19203 
L 218.170451 87.19203 
L 218.275887 85.590205 
L 218.417997 85.590205 
L 218.514264 84.789293 
L 218.537185 84.789293 
L 218.633453 83.454439 
L 218.674711 83.454439 
L 218.784731 82.386556 
L 218.825988 82.386556 
L 218.92684 81.585643 
L 218.963514 81.585643 
L 219.004771 80.784731 
L 219.098747 80.784731 
L 219.101039 80.250789 
L 219.215643 80.250789 
L 219.307327 78.648964 
L 219.338499 78.648964 
L 219.444852 77.31411 
L 219.551552 77.31411 
L 219.637388 75.979256 
L 219.664893 75.979256 
L 219.756576 74.377432 
L 219.83084 74.377432 
L 219.921607 73.042578 
L 219.999538 73.042578 
L 219.999538 72.775607 
L 220.182905 72.775607 
L 220.182905 72.508636 
L 220.297509 72.508636 
L 220.311262 71.974694 
L 220.439619 71.974694 
L 220.439619 71.707724 
L 220.73759 71.707724 
L 220.788016 71.173782 
L 220.948462 71.173782 
L 221.021809 70.37287 
L 221.095156 70.37287 
L 221.131829 69.571957 
L 221.246434 69.571957 
L 221.278523 68.771045 
L 221.365622 68.771045 
L 221.448138 67.703161 
L 221.489395 67.703161 
L 221.530653 67.16922 
L 221.608584 67.16922 
L 221.704852 65.567395 
L 221.810288 65.567395 
L 221.874466 64.766483 
L 221.993655 64.766483 
L 222.057833 63.698599 
L 222.122012 63.698599 
L 222.218279 63.164658 
L 222.250369 63.164658 
L 222.337468 62.096775 
L 222.452072 62.096775 
L 222.502498 61.295862 
L 222.612519 61.295862 
L 222.644608 59.961008 
L 222.727123 59.961008 
L 222.750044 59.427067 
L 222.878401 59.427067 
L 222.947164 57.825242 
L 222.99759 57.825242 
L 223.075521 56.223417 
L 223.171788 56.223417 
L 223.27264 55.155534 
L 223.378076 55.155534 
L 223.396413 54.621592 
L 223.506433 54.621592 
L 223.602701 54.087651 
L 223.708137 54.087651 
L 223.708137 53.82068 
L 223.877752 53.82068 
L 223.923593 53.019767 
L 224.047366 53.019767 
L 224.134465 52.485826 
L 224.175723 52.485826 
L 224.175723 52.218855 
L 224.368258 52.218855 
L 224.409516 51.684913 
L 224.528705 51.684913 
L 224.629557 50.350059 
L 224.72124 50.350059 
L 224.785419 49.816118 
L 224.941281 49.816118 
L 224.982538 49.282176 
L 225.110895 49.282176 
L 225.216331 48.481264 
L 225.24842 48.481264 
L 225.298846 47.947322 
L 225.486798 47.947322 
L 225.491565 47.41338 
L 225.638076 47.41338 
L 225.716007 46.879439 
L 225.766432 46.879439 
L 225.766432 46.612468 
L 226.096493 46.612468 
L 226.096493 46.345497 
L 226.348623 46.345497 
L 226.380712 45.811556 
L 226.632842 45.811556 
L 226.632842 45.544585 
L 226.875803 45.544585 
L 226.972071 45.010643 
L 227.00416 45.010643 
L 227.00416 44.743672 
L 227.150854 44.743672 
L 227.242537 44.209731 
L 227.279211 44.209731 
L 227.279211 43.94276 
L 227.402984 43.94276 
L 227.402984 43.675789 
L 227.56343 43.675789 
L 227.56343 43.408818 
L 228.058521 43.408818 
L 228.058521 43.141848 
L 228.209799 43.141848 
L 228.273977 42.073964 
L 228.347324 42.073964 
L 228.379413 41.540023 
L 228.503186 41.540023 
L 228.503186 41.273052 
L 228.81491 41.273052 
L 228.897425 40.73911 
L 229.01203 40.73911 
L 229.01203 40.47214 
L 229.140387 40.47214 
L 229.163308 39.938198 
L 229.268744 39.938198 
L 229.268744 39.671227 
L 229.589636 39.671227 
L 229.690488 38.603344 
L 229.823429 38.603344 
L 229.823429 38.336373 
L 230.40562 38.336373 
L 230.492719 37.802432 
L 230.978642 37.802432 
L 230.978642 37.535461 
L 231.125335 37.535461 
L 231.125335 37.26849 
L 231.372881 37.26849 
L 231.400386 36.467578 
L 231.514991 36.467578 
L 231.514991 36.200607 
L 231.647932 36.200607 
L 231.647932 35.933636 
L 231.776289 35.933636 
L 231.776289 35.666665 
L 231.913814 35.666665 
L 231.913814 35.399694 
L 232.037587 35.399694 
L 232.037587 35.132724 
L 232.422658 35.132724 
L 232.422658 34.865753 
L 232.706877 34.865753 
L 232.784808 34.331811 
L 233.174921 34.331811 
L 233.174921 34.06484 
L 234.13714 34.06484 
L 234.141724 33.530899 
L 234.430527 33.530899 
L 234.430527 33.263928 
L 234.558884 33.263928 
L 234.558884 32.996957 
L 234.714746 32.996957 
L 234.714746 32.729986 
L 235.031054 32.729986 
L 235.035638 32.196045 
L 235.145659 32.196045 
L 235.145659 31.662103 
L 235.429878 31.662103 
L 235.429878 31.395132 
L 235.952474 31.395132 
L 235.952474 31.128161 
L 236.42006 31.128161 
L 236.42006 30.861191 
L 236.713447 30.861191 
L 236.818883 30.327249 
L 237.00225 30.327249 
L 237.075597 29.793307 
L 237.158112 29.793307 
L 237.158112 29.526337 
L 237.414826 29.526337 
L 237.446916 28.992395 
L 237.552352 28.992395 
L 237.644035 28.458453 
L 237.676124 28.458453 
L 237.676124 28.191483 
L 237.937423 28.191483 
L 237.969512 27.657541 
L 239.670242 27.657541 
L 239.670242 27.39057 
L 240.642087 27.39057 
L 240.642087 27.123599 
L 242.361153 27.123599 
L 242.361153 26.856629 
L 242.746224 26.856629 
L 242.746224 26.589658 
L 245.009433 26.589658 
L 245.009433 26.322687 
L 245.455473 26.322687 
L 245.455473 26.055716 
L 250.328453 26.055716 
L 250.328453 25.788745 
L 251.304883 25.788745 
L 251.304883 25.521775 
L 251.882489 25.521775 
L 251.882489 25.254804 
L 255.297701 25.254804 
L 255.297701 24.987833 
L 256.851737 24.987833 
L 256.851737 24.720862 
L 257.328492 24.720862 
L 257.328492 24.453891 
L 266.593113 24.453891 
L 266.593113 24.186921 
L 269.352788 24.186921 
L 269.352788 23.91995 
L 284.879396 23.91995 
L 284.879396 23.652979 
L 289.491078 23.652979 
L 289.491078 23.386008 
L 294.918744 23.386008 
L 294.918744 23.119037 
L 295.423003 23.119037 
L 295.423003 22.852067 
L 335.4337 22.852067 
L 335.4337 22.585096 
L 337.85873 22.585096 
L 337.85873 22.318125 
L 337.85873 22.318125 
" clip-path="url(#pc3b9e53173)" style="fill: none; stroke: #ff0000; stroke-width: 1.5; stroke-linecap: square"/>
   </g>
   <g id="patch_3">
    <path d="M 43.78125 314.918125 
L 43.78125 22.318125 
" style="fill: none; stroke: #000000; stroke-width: 0.8; stroke-linejoin: miter; stroke-linecap: square"/>
   </g>
   <g id="patch_4">
    <path d="M 411.03847 314.918125 
L 411.03847 22.318125 
" style="fill: none; stroke: #000000; stroke-width: 0.8; stroke-linejoin: miter; stroke-linecap: square"/>
   </g>
   <g id="patch_5">
    <path d="M 43.78125 314.918125 
L 411.03847 314.918125 
" style="fill: none; stroke: #000000; stroke-width: 0.8; stroke-linejoin: miter; stroke-linecap: square"/>
   </g>
   <g id="patch_6">
    <path d="M 43.78125 22.318125 
L 411.03847 22.318125 
" style="fill: none; stroke: #000000; stroke-width: 0.8; stroke-linejoin: miter; stroke-linecap: square"/>
   </g>
   <g id="text_18">
    <!-- ECDF Comparison (SIO2) -->
    <g transform="translate(152.81861 16.318125) scale(0.12 -0.12)">
     <defs>
      <path id="DejaVuSans-45" d="M 628 4666 
L 3578 4666 
L 3578 4134 
L 1259 4134 
L 1259 2753 
L 3481 2753 
L 3481 2222 
L 1259 2222 
L 1259 531 
L 3634 531 
L 3634 0 
L 628 0 
L 628 4666 
z
" transform="scale(0.015625)"/>
      <path id="DejaVuSans-44" d="M 1259 4147 
L 1259 519 
L 2022 519 
Q 2988 519 3436 956 
Q 3884 1394 3884 2338 
Q 3884 3275 3436 3711 
Q 2988 4147 2022 4147 
L 1259 4147 
z
M 628 4666 
L 1925 4666 
Q 3281 4666 3915 4102 
Q 4550 3538 4550 2338 
Q 4550 1131 3912 565 
Q 3275 0 1925 0 
L 628 0 
L 628 4666 
z
" transform="scale(0.015625)"/>
      <path id="DejaVuSans-46" d="M 628 4666 
L 3309 4666 
L 3309 4134 
L 1259 4134 
L 1259 2759 
L 3109 2759 
L 3109 2228 
L 1259 2228 
L 1259 0 
L 628 0 
L 628 4666 
z
" transform="scale(0.015625)"/>
      <path id="DejaVuSans-70" d="M 1159 525 
L 1159 -1331 
L 581 -1331 
L 581 3500 
L 1159 3500 
L 1159 2969 
Q 1341 3281 1617 3432 
Q 1894 3584 2278 3584 
Q 2916 3584 3314 3078 
Q 3713 2572 3713 1747 
Q 3713 922 3314 415 
Q 2916 -91 2278 -91 
Q 1894 -91 1617 61 
Q 1341 213 1159 525 
z
M 3116 1747 
Q 3116 2381 2855 2742 
Q 2594 3103 2138 3103 
Q 1681 3103 1420 2742 
Q 1159 2381 1159 1747 
Q 1159 1113 1420 752 
Q 1681 391 2138 391 
Q 2594 391 2855 752 
Q 3116 1113 3116 1747 
z
" transform="scale(0.015625)"/>
      <path id="DejaVuSans-73" d="M 2834 3397 
L 2834 2853 
Q 2591 2978 2328 3040 
Q 2066 3103 1784 3103 
Q 1356 3103 1142 2972 
Q 928 2841 928 2578 
Q 928 2378 1081 2264 
Q 1234 2150 1697 2047 
L 1894 2003 
Q 2506 1872 2764 1633 
Q 3022 1394 3022 966 
Q 3022 478 2636 193 
Q 2250 -91 1575 -91 
Q 1294 -91 989 -36 
Q 684 19 347 128 
L 347 722 
Q 666 556 975 473 
Q 1284 391 1588 391 
Q 1994 391 2212 530 
Q 2431 669 2431 922 
Q 2431 1156 2273 1281 
Q 2116 1406 1581 1522 
L 1381 1569 
Q 847 1681 609 1914 
Q 372 2147 372 2553 
Q 372 3047 722 3315 
Q 1072 3584 1716 3584 
Q 2034 3584 2315 3537 
Q 2597 3491 2834 3397 
z
" transform="scale(0.015625)"/>
      <path id="DejaVuSans-6e" d="M 3513 2113 
L 3513 0 
L 2938 0 
L 2938 2094 
Q 2938 2591 2744 2837 
Q 2550 3084 2163 3084 
Q 1697 3084 1428 2787 
Q 1159 2491 1159 1978 
L 1159 0 
L 581 0 
L 581 3500 
L 1159 3500 
L 1159 2956 
Q 1366 3272 1645 3428 
Q 1925 3584 2291 3584 
Q 2894 3584 3203 3211 
Q 3513 2838 3513 2113 
z
" transform="scale(0.015625)"/>
      <path id="DejaVuSans-28" d="M 1984 4856 
Q 1566 4138 1362 3434 
Q 1159 2731 1159 2009 
Q 1159 1288 1364 580 
Q 1569 -128 1984 -844 
L 1484 -844 
Q 1016 -109 783 600 
Q 550 1309 550 2009 
Q 550 2706 781 3412 
Q 1013 4119 1484 4856 
L 1984 4856 
z
" transform="scale(0.015625)"/>
      <path id="DejaVuSans-29" d="M 513 4856 
L 1013 4856 
Q 1481 4119 1714 3412 
Q 1947 2706 1947 2009 
Q 1947 1309 1714 600 
Q 1481 -109 1013 -844 
L 513 -844 
Q 928 -128 1133 580 
Q 1338 1288 1338 2009 
Q 1338 2731 1133 3434 
Q 928 4138 513 4856 
z
" transform="scale(0.015625)"/>
     </defs>
     <use xlink:href="#DejaVuSans-45"/>
     <use xlink:href="#DejaVuSans-43" transform="translate(63.183594 0)"/>
     <use xlink:href="#DejaVuSans-44" transform="translate(133.007812 0)"/>
     <use xlink:href="#DejaVuSans-46" transform="translate(210.009766 0)"/>
     <use xlink:href="#DejaVuSans-20" transform="translate(267.529297 0)"/>
     <use xlink:href="#DejaVuSans-43" transform="translate(299.316406 0)"/>
     <use xlink:href="#DejaVuSans-6f" transform="translate(369.140625 0)"/>
     <use xlink:href="#DejaVuSans-6d" transform="translate(430.322266 0)"/>
     <use xlink:href="#DejaVuSans-70" transform="translate(527.734375 0)"/>
     <use xlink:href="#DejaVuSans-61" transform="translate(591.210938 0)"/>
     <use xlink:href="#DejaVuSans-72" transform="translate(652.490234 0)"/>
     <use xlink:href="#DejaVuSans-69" transform="translate(693.603516 0)"/>
     <use xlink:href="#DejaVuSans-73" transform="translate(721.386719 0)"/>
     <use xlink:href="#DejaVuSans-6f" transform="translate(773.486328 0)"/>
     <use xlink:href="#DejaVuSans-6e" transform="translate(834.667969 0)"/>
     <use xlink:href="#DejaVuSans-20" transform="translate(898.046875 0)"/>
     <use xlink:href="#DejaVuSans-28" transform="translate(929.833984 0)"/>
     <use xlink:href="#DejaVuSans-53" transform="translate(968.847656 0)"/>
     <use xlink:href="#DejaVuSans-49" transform="translate(1032.324219 0)"/>
     <use xlink:href="#DejaVuSans-4f" transform="translate(1061.816406 0)"/>
     <use xlink:href="#DejaVuSans-32" transform="translate(1140.527344 0)"/>
     <use xlink:href="#DejaVuSans-29" transform="translate(1204.150391 0)"/>
    </g>
   </g>
   <g id="legend_1">
    <g id="patch_7">
     <path d="M 321.93847 59.674375 
L 404.03847 59.674375 
Q 406.03847 59.674375 406.03847 57.674375 
L 406.03847 29.318125 
Q 406.03847 27.318125 404.03847 27.318125 
L 321.93847 27.318125 
Q 319.93847 27.318125 319.93847 29.318125 
L 319.93847 57.674375 
Q 319.93847 59.674375 321.93847 59.674375 
z
" style="fill: #ffffff; opacity: 0.8; stroke: #cccccc; stroke-linejoin: miter"/>
    </g>
    <g id="line2d_33">
     <path d="M 323.93847 35.416562 
L 333.93847 35.416562 
L 333.93847 35.416562 
L 343.93847 35.416562 
L 343.93847 35.416562 
" style="fill: none; stroke: #0000ff; stroke-width: 1.5; stroke-linecap: square"/>
    </g>
    <g id="text_19">
     <!-- Base Hole -->
     <g transform="translate(351.93847 38.916562) scale(0.1 -0.1)">
      <defs>
       <path id="DejaVuSans-42" d="M 1259 2228 
L 1259 519 
L 2272 519 
Q 2781 519 3026 730 
Q 3272 941 3272 1375 
Q 3272 1813 3026 2020 
Q 2781 2228 2272 2228 
L 1259 2228 
z
M 1259 4147 
L 1259 2741 
L 2194 2741 
Q 2656 2741 2882 2914 
Q 3109 3088 3109 3444 
Q 3109 3797 2882 3972 
Q 2656 4147 2194 4147 
L 1259 4147 
z
M 628 4666 
L 2241 4666 
Q 2963 4666 3353 4366 
Q 3744 4066 3744 3513 
Q 3744 3084 3544 2831 
Q 3344 2578 2956 2516 
Q 3422 2416 3680 2098 
Q 3938 1781 3938 1306 
Q 3938 681 3513 340 
Q 3088 0 2303 0 
L 628 0 
L 628 4666 
z
" transform="scale(0.015625)"/>
       <path id="DejaVuSans-48" d="M 628 4666 
L 1259 4666 
L 1259 2753 
L 3553 2753 
L 3553 4666 
L 4184 4666 
L 4184 0 
L 3553 0 
L 3553 2222 
L 1259 2222 
L 1259 0 
L 628 0 
L 628 4666 
z
" transform="scale(0.015625)"/>
      </defs>
      <use xlink:href="#DejaVuSans-42"/>
      <use xlink:href="#DejaVuSans-61" transform="translate(68.603516 0)"/>
      <use xlink:href="#DejaVuSans-73" transform="translate(129.882812 0)"/>
      <use xlink:href="#DejaVuSans-65" transform="translate(181.982422 0)"/>
      <use xlink:href="#DejaVuSans-20" transform="translate(243.505859 0)"/>
      <use xlink:href="#DejaVuSans-48" transform="translate(275.292969 0)"/>
      <use xlink:href="#DejaVuSans-6f" transform="translate(350.488281 0)"/>
      <use xlink:href="#DejaVuSans-6c" transform="translate(411.669922 0)"/>
      <use xlink:href="#DejaVuSans-65" transform="translate(439.453125 0)"/>
     </g>
    </g>
    <g id="line2d_34">
     <path d="M 323.93847 50.094687 
L 333.93847 50.094687 
L 333.93847 50.094687 
L 343.93847 50.094687 
L 343.93847 50.094687 
" style="fill: none; stroke: #ff0000; stroke-width: 1.5; stroke-linecap: square"/>
    </g>
    <g id="text_20">
     <!-- Twin Hole -->
     <g transform="translate(351.93847 53.594687) scale(0.1 -0.1)">
      <defs>
       <path id="DejaVuSans-54" d="M -19 4666 
L 3928 4666 
L 3928 4134 
L 2272 4134 
L 2272 0 
L 1638 0 
L 1638 4134 
L -19 4134 
L -19 4666 
z
" transform="scale(0.015625)"/>
       <path id="DejaVuSans-77" d="M 269 3500 
L 844 3500 
L 1563 769 
L 2278 3500 
L 2956 3500 
L 3675 769 
L 4391 3500 
L 4966 3500 
L 4050 0 
L 3372 0 
L 2619 2869 
L 1863 0 
L 1184 0 
L 269 3500 
z
" transform="scale(0.015625)"/>
      </defs>
      <use xlink:href="#DejaVuSans-54"/>
      <use xlink:href="#DejaVuSans-77" transform="translate(44.583984 0)"/>
      <use xlink:href="#DejaVuSans-69" transform="translate(126.371094 0)"/>
      <use xlink:href="#DejaVuSans-6e" transform="translate(154.154297 0)"/>
      <use xlink:href="#DejaVuSans-20" transform="translate(217.533203 0)"/>
      <use xlink:href="#DejaVuSans-48" transform="translate(249.320312 0)"/>
      <use xlink:href="#DejaVuSans-6f" transform="translate(324.515625 0)"/>
      <use xlink:href="#DejaVuSans-6c" transform="translate(385.697266 0)"/>
      <use xlink:href="#DejaVuSans-65" transform="translate(413.480469 0)"/>
     </g>
    </g>
   </g>
  </g>
 </g>
 <defs>
  <clipPath id="pc3b9e53173">
   <rect x="43.78125" y="22.318125" width="367.25722" height="292.6"/>
  </clipPath>
 </defs>
</svg>
