<?xml version="1.0" encoding="utf-8" standalone="no"?>
<!DOCTYPE svg PUBLIC "-//W3C//DTD SVG 1.1//EN"
  "http://www.w3.org/Graphics/SVG/1.1/DTD/svg11.dtd">
<svg xmlns:xlink="http://www.w3.org/1999/xlink" width="424.37125pt" height="352.474375pt" viewBox="0 0 424.37125 352.474375" xmlns="http://www.w3.org/2000/svg" version="1.1">
 <metadata>
  <rdf:RDF xmlns:dc="http://purl.org/dc/elements/1.1/" xmlns:cc="http://creativecommons.org/ns#" xmlns:rdf="http://www.w3.org/1999/02/22-rdf-syntax-ns#">
   <cc:Work>
    <dc:type rdf:resource="http://purl.org/dc/dcmitype/StillImage"/>
    <dc:date>2025-11-04T10:24:52.869419</dc:date>
    <dc:format>image/svg+xml</dc:format>
    <dc:creator>
     <cc:Agent>
      <dc:title>Matplotlib v3.10.6, https://matplotlib.org/</dc:title>
     </cc:Agent>
    </dc:creator>
   </cc:Work>
  </rdf:RDF>
 </metadata>
 <defs>
  <style type="text/css">*{stroke-linejoin: round; stroke-linecap: butt}</style>
 </defs>
 <g id="figure_1">
  <g id="patch_1">
   <path d="M 0 352.474375 
L 424.37125 352.474375 
L 424.37125 0 
L 0 0 
z
" style="fill: #ffffff"/>
  </g>
  <g id="axes_1">
   <g id="patch_2">
    <path d="M 43.78125 314.918125 
L 417.17125 314.918125 
L 417.17125 22.318125 
L 43.78125 22.318125 
z
" style="fill: #ffffff"/>
   </g>
   <g id="matplotlib.axis_1">
    <g id="xtick_1">
     <g id="line2d_1">
      <path d="M 105.512506 314.918125 
L 105.512506 22.318125 
" clip-path="url(#p2c8c4326ef)" style="fill: none; stroke: #b0b0b0; stroke-opacity: 0.3; stroke-width: 0.8; stroke-linecap: square"/>
     </g>
     <g id="line2d_2">
      <defs>
       <path id="maa083a2754" d="M 0 0 
L 0 3.5 
" style="stroke: #000000; stroke-width: 0.8"/>
      </defs>
      <g>
       <use xlink:href="#maa083a2754" x="105.512506" y="314.918125" style="stroke: #000000; stroke-width: 0.8"/>
      </g>
     </g>
     <g id="text_1">
      <!-- 0.5 -->
      <g transform="translate(97.560943 329.516563) scale(0.1 -0.1)">
       <defs>
        <path id="DejaVuSans-30" d="M 2034 4250 
Q 1547 4250 1301 3770 
Q 1056 3291 1056 2328 
Q 1056 1369 1301 889 
Q 1547 409 2034 409 
Q 2525 409 2770 889 
Q 3016 1369 3016 2328 
Q 3016 3291 2770 3770 
Q 2525 4250 2034 4250 
z
M 2034 4750 
Q 2819 4750 3233 4129 
Q 3647 3509 3647 2328 
Q 3647 1150 3233 529 
Q 2819 -91 2034 -91 
Q 1250 -91 836 529 
Q 422 1150 422 2328 
Q 422 3509 836 4129 
Q 1250 4750 2034 4750 
z
" transform="scale(0.015625)"/>
        <path id="DejaVuSans-2e" d="M 684 794 
L 1344 794 
L 1344 0 
L 684 0 
L 684 794 
z
" transform="scale(0.015625)"/>
        <path id="DejaVuSans-35" d="M 691 4666 
L 3169 4666 
L 3169 4134 
L 1269 4134 
L 1269 2991 
Q 1406 3038 1543 3061 
Q 1681 3084 1819 3084 
Q 2600 3084 3056 2656 
Q 3513 2228 3513 1497 
Q 3513 744 3044 326 
Q 2575 -91 1722 -91 
Q 1428 -91 1123 -41 
Q 819 9 494 109 
L 494 744 
Q 775 591 1075 516 
Q 1375 441 1709 441 
Q 2250 441 2565 725 
Q 2881 1009 2881 1497 
Q 2881 1984 2565 2268 
Q 2250 2553 1709 2553 
Q 1456 2553 1204 2497 
Q 953 2441 691 2322 
L 691 4666 
z
" transform="scale(0.015625)"/>
       </defs>
       <use xlink:href="#DejaVuSans-30"/>
       <use xlink:href="#DejaVuSans-2e" transform="translate(63.623047 0)"/>
       <use xlink:href="#DejaVuSans-35" transform="translate(95.410156 0)"/>
      </g>
     </g>
    </g>
    <g id="xtick_2">
     <g id="line2d_3">
      <path d="M 175.014032 314.918125 
L 175.014032 22.318125 
" clip-path="url(#p2c8c4326ef)" style="fill: none; stroke: #b0b0b0; stroke-opacity: 0.3; stroke-width: 0.8; stroke-linecap: square"/>
     </g>
     <g id="line2d_4">
      <g>
       <use xlink:href="#maa083a2754" x="175.014032" y="314.918125" style="stroke: #000000; stroke-width: 0.8"/>
      </g>
     </g>
     <g id="text_2">
      <!-- 1.0 -->
      <g transform="translate(167.062469 329.516563) scale(0.1 -0.1)">
       <defs>
        <path id="DejaVuSans-31" d="M 794 531 
L 1825 531 
L 1825 4091 
L 703 3866 
L 703 4441 
L 1819 4666 
L 2450 4666 
L 2450 531 
L 3481 531 
L 3481 0 
L 794 0 
L 794 531 
z
" transform="scale(0.015625)"/>
       </defs>
       <use xlink:href="#DejaVuSans-31"/>
       <use xlink:href="#DejaVuSans-2e" transform="translate(63.623047 0)"/>
       <use xlink:href="#DejaVuSans-30" transform="translate(95.410156 0)"/>
      </g>
     </g>
    </g>
    <g id="xtick_3">
     <g id="line2d_5">
      <path d="M 244.515558 314.918125 
L 244.515558 22.318125 
" clip-path="url(#p2c8c4326ef)" style="fill: none; stroke: #b0b0b0; stroke-opacity: 0.3; stroke-width: 0.8; stroke-linecap: square"/>
     </g>
     <g id="line2d_6">
      <g>
       <use xlink:href="#maa083a2754" x="244.515558" y="314.918125" style="stroke: #000000; stroke-width: 0.8"/>
      </g>
     </g>
     <g id="text_3">
      <!-- 1.5 -->
      <g transform="translate(236.563996 329.516563) scale(0.1 -0.1)">
       <use xlink:href="#DejaVuSans-31"/>
       <use xlink:href="#DejaVuSans-2e" transform="translate(63.623047 0)"/>
       <use xlink:href="#DejaVuSans-35" transform="translate(95.410156 0)"/>
      </g>
     </g>
    </g>
    <g id="xtick_4">
     <g id="line2d_7">
      <path d="M 314.017085 314.918125 
L 314.017085 22.318125 
" clip-path="url(#p2c8c4326ef)" style="fill: none; stroke: #b0b0b0; stroke-opacity: 0.3; stroke-width: 0.8; stroke-linecap: square"/>
     </g>
     <g id="line2d_8">
      <g>
       <use xlink:href="#maa083a2754" x="314.017085" y="314.918125" style="stroke: #000000; stroke-width: 0.8"/>
      </g>
     </g>
     <g id="text_4">
      <!-- 2.0 -->
      <g transform="translate(306.065522 329.516563) scale(0.1 -0.1)">
       <defs>
        <path id="DejaVuSans-32" d="M 1228 531 
L 3431 531 
L 3431 0 
L 469 0 
L 469 531 
Q 828 903 1448 1529 
Q 2069 2156 2228 2338 
Q 2531 2678 2651 2914 
Q 2772 3150 2772 3378 
Q 2772 3750 2511 3984 
Q 2250 4219 1831 4219 
Q 1534 4219 1204 4116 
Q 875 4013 500 3803 
L 500 4441 
Q 881 4594 1212 4672 
Q 1544 4750 1819 4750 
Q 2544 4750 2975 4387 
Q 3406 4025 3406 3419 
Q 3406 3131 3298 2873 
Q 3191 2616 2906 2266 
Q 2828 2175 2409 1742 
Q 1991 1309 1228 531 
z
" transform="scale(0.015625)"/>
       </defs>
       <use xlink:href="#DejaVuSans-32"/>
       <use xlink:href="#DejaVuSans-2e" transform="translate(63.623047 0)"/>
       <use xlink:href="#DejaVuSans-30" transform="translate(95.410156 0)"/>
      </g>
     </g>
    </g>
    <g id="xtick_5">
     <g id="line2d_9">
      <path d="M 383.518611 314.918125 
L 383.518611 22.318125 
" clip-path="url(#p2c8c4326ef)" style="fill: none; stroke: #b0b0b0; stroke-opacity: 0.3; stroke-width: 0.8; stroke-linecap: square"/>
     </g>
     <g id="line2d_10">
      <g>
       <use xlink:href="#maa083a2754" x="383.518611" y="314.918125" style="stroke: #000000; stroke-width: 0.8"/>
      </g>
     </g>
     <g id="text_5">
      <!-- 2.5 -->
      <g transform="translate(375.567048 329.516563) scale(0.1 -0.1)">
       <use xlink:href="#DejaVuSans-32"/>
       <use xlink:href="#DejaVuSans-2e" transform="translate(63.623047 0)"/>
       <use xlink:href="#DejaVuSans-35" transform="translate(95.410156 0)"/>
      </g>
     </g>
    </g>
    <g id="text_6">
     <!-- NI -->
     <g transform="translate(225.260625 343.194687) scale(0.1 -0.1)">
      <defs>
       <path id="DejaVuSans-4e" d="M 628 4666 
L 1478 4666 
L 3547 763 
L 3547 4666 
L 4159 4666 
L 4159 0 
L 3309 0 
L 1241 3903 
L 1241 0 
L 628 0 
L 628 4666 
z
" transform="scale(0.015625)"/>
       <path id="DejaVuSans-49" d="M 628 4666 
L 1259 4666 
L 1259 0 
L 628 0 
L 628 4666 
z
" transform="scale(0.015625)"/>
      </defs>
      <use xlink:href="#DejaVuSans-4e"/>
      <use xlink:href="#DejaVuSans-49" transform="translate(74.804688 0)"/>
     </g>
    </g>
   </g>
   <g id="matplotlib.axis_2">
    <g id="ytick_1">
     <g id="line2d_11">
      <path d="M 43.78125 314.918125 
L 417.17125 314.918125 
" clip-path="url(#p2c8c4326ef)" style="fill: none; stroke: #b0b0b0; stroke-opacity: 0.3; stroke-width: 0.8; stroke-linecap: square"/>
     </g>
     <g id="line2d_12">
      <defs>
       <path id="m36a85f02e8" d="M 0 0 
L -3.5 0 
" style="stroke: #000000; stroke-width: 0.8"/>
      </defs>
      <g>
       <use xlink:href="#m36a85f02e8" x="43.78125" y="314.918125" style="stroke: #000000; stroke-width: 0.8"/>
      </g>
     </g>
     <g id="text_7">
      <!-- 0.0 -->
      <g transform="translate(20.878125 318.717344) scale(0.1 -0.1)">
       <use xlink:href="#DejaVuSans-30"/>
       <use xlink:href="#DejaVuSans-2e" transform="translate(63.623047 0)"/>
       <use xlink:href="#DejaVuSans-30" transform="translate(95.410156 0)"/>
      </g>
     </g>
    </g>
    <g id="ytick_2">
     <g id="line2d_13">
      <path d="M 43.78125 256.398125 
L 417.17125 256.398125 
" clip-path="url(#p2c8c4326ef)" style="fill: none; stroke: #b0b0b0; stroke-opacity: 0.3; stroke-width: 0.8; stroke-linecap: square"/>
     </g>
     <g id="line2d_14">
      <g>
       <use xlink:href="#m36a85f02e8" x="43.78125" y="256.398125" style="stroke: #000000; stroke-width: 0.8"/>
      </g>
     </g>
     <g id="text_8">
      <!-- 0.2 -->
      <g transform="translate(20.878125 260.197344) scale(0.1 -0.1)">
       <use xlink:href="#DejaVuSans-30"/>
       <use xlink:href="#DejaVuSans-2e" transform="translate(63.623047 0)"/>
       <use xlink:href="#DejaVuSans-32" transform="translate(95.410156 0)"/>
      </g>
     </g>
    </g>
    <g id="ytick_3">
     <g id="line2d_15">
      <path d="M 43.78125 197.878125 
L 417.17125 197.878125 
" clip-path="url(#p2c8c4326ef)" style="fill: none; stroke: #b0b0b0; stroke-opacity: 0.3; stroke-width: 0.8; stroke-linecap: square"/>
     </g>
     <g id="line2d_16">
      <g>
       <use xlink:href="#m36a85f02e8" x="43.78125" y="197.878125" style="stroke: #000000; stroke-width: 0.8"/>
      </g>
     </g>
     <g id="text_9">
      <!-- 0.4 -->
      <g transform="translate(20.878125 201.677344) scale(0.1 -0.1)">
       <defs>
        <path id="DejaVuSans-34" d="M 2419 4116 
L 825 1625 
L 2419 1625 
L 2419 4116 
z
M 2253 4666 
L 3047 4666 
L 3047 1625 
L 3713 1625 
L 3713 1100 
L 3047 1100 
L 3047 0 
L 2419 0 
L 2419 1100 
L 313 1100 
L 313 1709 
L 2253 4666 
z
" transform="scale(0.015625)"/>
       </defs>
       <use xlink:href="#DejaVuSans-30"/>
       <use xlink:href="#DejaVuSans-2e" transform="translate(63.623047 0)"/>
       <use xlink:href="#DejaVuSans-34" transform="translate(95.410156 0)"/>
      </g>
     </g>
    </g>
    <g id="ytick_4">
     <g id="line2d_17">
      <path d="M 43.78125 139.358125 
L 417.17125 139.358125 
" clip-path="url(#p2c8c4326ef)" style="fill: none; stroke: #b0b0b0; stroke-opacity: 0.3; stroke-width: 0.8; stroke-linecap: square"/>
     </g>
     <g id="line2d_18">
      <g>
       <use xlink:href="#m36a85f02e8" x="43.78125" y="139.358125" style="stroke: #000000; stroke-width: 0.8"/>
      </g>
     </g>
     <g id="text_10">
      <!-- 0.6 -->
      <g transform="translate(20.878125 143.157344) scale(0.1 -0.1)">
       <defs>
        <path id="DejaVuSans-36" d="M 2113 2584 
Q 1688 2584 1439 2293 
Q 1191 2003 1191 1497 
Q 1191 994 1439 701 
Q 1688 409 2113 409 
Q 2538 409 2786 701 
Q 3034 994 3034 1497 
Q 3034 2003 2786 2293 
Q 2538 2584 2113 2584 
z
M 3366 4563 
L 3366 3988 
Q 3128 4100 2886 4159 
Q 2644 4219 2406 4219 
Q 1781 4219 1451 3797 
Q 1122 3375 1075 2522 
Q 1259 2794 1537 2939 
Q 1816 3084 2150 3084 
Q 2853 3084 3261 2657 
Q 3669 2231 3669 1497 
Q 3669 778 3244 343 
Q 2819 -91 2113 -91 
Q 1303 -91 875 529 
Q 447 1150 447 2328 
Q 447 3434 972 4092 
Q 1497 4750 2381 4750 
Q 2619 4750 2861 4703 
Q 3103 4656 3366 4563 
z
" transform="scale(0.015625)"/>
       </defs>
       <use xlink:href="#DejaVuSans-30"/>
       <use xlink:href="#DejaVuSans-2e" transform="translate(63.623047 0)"/>
       <use xlink:href="#DejaVuSans-36" transform="translate(95.410156 0)"/>
      </g>
     </g>
    </g>
    <g id="ytick_5">
     <g id="line2d_19">
      <path d="M 43.78125 80.838125 
L 417.17125 80.838125 
" clip-path="url(#p2c8c4326ef)" style="fill: none; stroke: #b0b0b0; stroke-opacity: 0.3; stroke-width: 0.8; stroke-linecap: square"/>
     </g>
     <g id="line2d_20">
      <g>
       <use xlink:href="#m36a85f02e8" x="43.78125" y="80.838125" style="stroke: #000000; stroke-width: 0.8"/>
      </g>
     </g>
     <g id="text_11">
      <!-- 0.8 -->
      <g transform="translate(20.878125 84.637344) scale(0.1 -0.1)">
       <defs>
        <path id="DejaVuSans-38" d="M 2034 2216 
Q 1584 2216 1326 1975 
Q 1069 1734 1069 1313 
Q 1069 891 1326 650 
Q 1584 409 2034 409 
Q 2484 409 2743 651 
Q 3003 894 3003 1313 
Q 3003 1734 2745 1975 
Q 2488 2216 2034 2216 
z
M 1403 2484 
Q 997 2584 770 2862 
Q 544 3141 544 3541 
Q 544 4100 942 4425 
Q 1341 4750 2034 4750 
Q 2731 4750 3128 4425 
Q 3525 4100 3525 3541 
Q 3525 3141 3298 2862 
Q 3072 2584 2669 2484 
Q 3125 2378 3379 2068 
Q 3634 1759 3634 1313 
Q 3634 634 3220 271 
Q 2806 -91 2034 -91 
Q 1263 -91 848 271 
Q 434 634 434 1313 
Q 434 1759 690 2068 
Q 947 2378 1403 2484 
z
M 1172 3481 
Q 1172 3119 1398 2916 
Q 1625 2713 2034 2713 
Q 2441 2713 2670 2916 
Q 2900 3119 2900 3481 
Q 2900 3844 2670 4047 
Q 2441 4250 2034 4250 
Q 1625 4250 1398 4047 
Q 1172 3844 1172 3481 
z
" transform="scale(0.015625)"/>
       </defs>
       <use xlink:href="#DejaVuSans-30"/>
       <use xlink:href="#DejaVuSans-2e" transform="translate(63.623047 0)"/>
       <use xlink:href="#DejaVuSans-38" transform="translate(95.410156 0)"/>
      </g>
     </g>
    </g>
    <g id="ytick_6">
     <g id="line2d_21">
      <path d="M 43.78125 22.318125 
L 417.17125 22.318125 
" clip-path="url(#p2c8c4326ef)" style="fill: none; stroke: #b0b0b0; stroke-opacity: 0.3; stroke-width: 0.8; stroke-linecap: square"/>
     </g>
     <g id="line2d_22">
      <g>
       <use xlink:href="#m36a85f02e8" x="43.78125" y="22.318125" style="stroke: #000000; stroke-width: 0.8"/>
      </g>
     </g>
     <g id="text_12">
      <!-- 1.0 -->
      <g transform="translate(20.878125 26.117344) scale(0.1 -0.1)">
       <use xlink:href="#DejaVuSans-31"/>
       <use xlink:href="#DejaVuSans-2e" transform="translate(63.623047 0)"/>
       <use xlink:href="#DejaVuSans-30" transform="translate(95.410156 0)"/>
      </g>
     </g>
    </g>
    <g id="text_13">
     <!-- Cumulative Probability -->
     <g transform="translate(14.798438 225.173594) rotate(-90) scale(0.1 -0.1)">
      <defs>
       <path id="DejaVuSans-43" d="M 4122 4306 
L 4122 3641 
Q 3803 3938 3442 4084 
Q 3081 4231 2675 4231 
Q 1875 4231 1450 3742 
Q 1025 3253 1025 2328 
Q 1025 1406 1450 917 
Q 1875 428 2675 428 
Q 3081 428 3442 575 
Q 3803 722 4122 1019 
L 4122 359 
Q 3791 134 3420 21 
Q 3050 -91 2638 -91 
Q 1578 -91 968 557 
Q 359 1206 359 2328 
Q 359 3453 968 4101 
Q 1578 4750 2638 4750 
Q 3056 4750 3426 4639 
Q 3797 4528 4122 4306 
z
" transform="scale(0.015625)"/>
       <path id="DejaVuSans-75" d="M 544 1381 
L 544 3500 
L 1119 3500 
L 1119 1403 
Q 1119 906 1312 657 
Q 1506 409 1894 409 
Q 2359 409 2629 706 
Q 2900 1003 2900 1516 
L 2900 3500 
L 3475 3500 
L 3475 0 
L 2900 0 
L 2900 538 
Q 2691 219 2414 64 
Q 2138 -91 1772 -91 
Q 1169 -91 856 284 
Q 544 659 544 1381 
z
M 1991 3584 
L 1991 3584 
z
" transform="scale(0.015625)"/>
       <path id="DejaVuSans-6d" d="M 3328 2828 
Q 3544 3216 3844 3400 
Q 4144 3584 4550 3584 
Q 5097 3584 5394 3201 
Q 5691 2819 5691 2113 
L 5691 0 
L 5113 0 
L 5113 2094 
Q 5113 2597 4934 2840 
Q 4756 3084 4391 3084 
Q 3944 3084 3684 2787 
Q 3425 2491 3425 1978 
L 3425 0 
L 2847 0 
L 2847 2094 
Q 2847 2600 2669 2842 
Q 2491 3084 2119 3084 
Q 1678 3084 1418 2786 
Q 1159 2488 1159 1978 
L 1159 0 
L 581 0 
L 581 3500 
L 1159 3500 
L 1159 2956 
Q 1356 3278 1631 3431 
Q 1906 3584 2284 3584 
Q 2666 3584 2933 3390 
Q 3200 3197 3328 2828 
z
" transform="scale(0.015625)"/>
       <path id="DejaVuSans-6c" d="M 603 4863 
L 1178 4863 
L 1178 0 
L 603 0 
L 603 4863 
z
" transform="scale(0.015625)"/>
       <path id="DejaVuSans-61" d="M 2194 1759 
Q 1497 1759 1228 1600 
Q 959 1441 959 1056 
Q 959 750 1161 570 
Q 1363 391 1709 391 
Q 2188 391 2477 730 
Q 2766 1069 2766 1631 
L 2766 1759 
L 2194 1759 
z
M 3341 1997 
L 3341 0 
L 2766 0 
L 2766 531 
Q 2569 213 2275 61 
Q 1981 -91 1556 -91 
Q 1019 -91 701 211 
Q 384 513 384 1019 
Q 384 1609 779 1909 
Q 1175 2209 1959 2209 
L 2766 2209 
L 2766 2266 
Q 2766 2663 2505 2880 
Q 2244 3097 1772 3097 
Q 1472 3097 1187 3025 
Q 903 2953 641 2809 
L 641 3341 
Q 956 3463 1253 3523 
Q 1550 3584 1831 3584 
Q 2591 3584 2966 3190 
Q 3341 2797 3341 1997 
z
" transform="scale(0.015625)"/>
       <path id="DejaVuSans-74" d="M 1172 4494 
L 1172 3500 
L 2356 3500 
L 2356 3053 
L 1172 3053 
L 1172 1153 
Q 1172 725 1289 603 
Q 1406 481 1766 481 
L 2356 481 
L 2356 0 
L 1766 0 
Q 1100 0 847 248 
Q 594 497 594 1153 
L 594 3053 
L 172 3053 
L 172 3500 
L 594 3500 
L 594 4494 
L 1172 4494 
z
" transform="scale(0.015625)"/>
       <path id="DejaVuSans-69" d="M 603 3500 
L 1178 3500 
L 1178 0 
L 603 0 
L 603 3500 
z
M 603 4863 
L 1178 4863 
L 1178 4134 
L 603 4134 
L 603 4863 
z
" transform="scale(0.015625)"/>
       <path id="DejaVuSans-76" d="M 191 3500 
L 800 3500 
L 1894 563 
L 2988 3500 
L 3597 3500 
L 2284 0 
L 1503 0 
L 191 3500 
z
" transform="scale(0.015625)"/>
       <path id="DejaVuSans-65" d="M 3597 1894 
L 3597 1613 
L 953 1613 
Q 991 1019 1311 708 
Q 1631 397 2203 397 
Q 2534 397 2845 478 
Q 3156 559 3463 722 
L 3463 178 
Q 3153 47 2828 -22 
Q 2503 -91 2169 -91 
Q 1331 -91 842 396 
Q 353 884 353 1716 
Q 353 2575 817 3079 
Q 1281 3584 2069 3584 
Q 2775 3584 3186 3129 
Q 3597 2675 3597 1894 
z
M 3022 2063 
Q 3016 2534 2758 2815 
Q 2500 3097 2075 3097 
Q 1594 3097 1305 2825 
Q 1016 2553 972 2059 
L 3022 2063 
z
" transform="scale(0.015625)"/>
       <path id="DejaVuSans-20" transform="scale(0.015625)"/>
       <path id="DejaVuSans-50" d="M 1259 4147 
L 1259 2394 
L 2053 2394 
Q 2494 2394 2734 2622 
Q 2975 2850 2975 3272 
Q 2975 3691 2734 3919 
Q 2494 4147 2053 4147 
L 1259 4147 
z
M 628 4666 
L 2053 4666 
Q 2838 4666 3239 4311 
Q 3641 3956 3641 3272 
Q 3641 2581 3239 2228 
Q 2838 1875 2053 1875 
L 1259 1875 
L 1259 0 
L 628 0 
L 628 4666 
z
" transform="scale(0.015625)"/>
       <path id="DejaVuSans-72" d="M 2631 2963 
Q 2534 3019 2420 3045 
Q 2306 3072 2169 3072 
Q 1681 3072 1420 2755 
Q 1159 2438 1159 1844 
L 1159 0 
L 581 0 
L 581 3500 
L 1159 3500 
L 1159 2956 
Q 1341 3275 1631 3429 
Q 1922 3584 2338 3584 
Q 2397 3584 2469 3576 
Q 2541 3569 2628 3553 
L 2631 2963 
z
" transform="scale(0.015625)"/>
       <path id="DejaVuSans-6f" d="M 1959 3097 
Q 1497 3097 1228 2736 
Q 959 2375 959 1747 
Q 959 1119 1226 758 
Q 1494 397 1959 397 
Q 2419 397 2687 759 
Q 2956 1122 2956 1747 
Q 2956 2369 2687 2733 
Q 2419 3097 1959 3097 
z
M 1959 3584 
Q 2709 3584 3137 3096 
Q 3566 2609 3566 1747 
Q 3566 888 3137 398 
Q 2709 -91 1959 -91 
Q 1206 -91 779 398 
Q 353 888 353 1747 
Q 353 2609 779 3096 
Q 1206 3584 1959 3584 
z
" transform="scale(0.015625)"/>
       <path id="DejaVuSans-62" d="M 3116 1747 
Q 3116 2381 2855 2742 
Q 2594 3103 2138 3103 
Q 1681 3103 1420 2742 
Q 1159 2381 1159 1747 
Q 1159 1113 1420 752 
Q 1681 391 2138 391 
Q 2594 391 2855 752 
Q 3116 1113 3116 1747 
z
M 1159 2969 
Q 1341 3281 1617 3432 
Q 1894 3584 2278 3584 
Q 2916 3584 3314 3078 
Q 3713 2572 3713 1747 
Q 3713 922 3314 415 
Q 2916 -91 2278 -91 
Q 1894 -91 1617 61 
Q 1341 213 1159 525 
L 1159 0 
L 581 0 
L 581 4863 
L 1159 4863 
L 1159 2969 
z
" transform="scale(0.015625)"/>
       <path id="DejaVuSans-79" d="M 2059 -325 
Q 1816 -950 1584 -1140 
Q 1353 -1331 966 -1331 
L 506 -1331 
L 506 -850 
L 844 -850 
Q 1081 -850 1212 -737 
Q 1344 -625 1503 -206 
L 1606 56 
L 191 3500 
L 800 3500 
L 1894 763 
L 2988 3500 
L 3597 3500 
L 2059 -325 
z
" transform="scale(0.015625)"/>
      </defs>
      <use xlink:href="#DejaVuSans-43"/>
      <use xlink:href="#DejaVuSans-75" transform="translate(69.824219 0)"/>
      <use xlink:href="#DejaVuSans-6d" transform="translate(133.203125 0)"/>
      <use xlink:href="#DejaVuSans-75" transform="translate(230.615234 0)"/>
      <use xlink:href="#DejaVuSans-6c" transform="translate(293.994141 0)"/>
      <use xlink:href="#DejaVuSans-61" transform="translate(321.777344 0)"/>
      <use xlink:href="#DejaVuSans-74" transform="translate(383.056641 0)"/>
      <use xlink:href="#DejaVuSans-69" transform="translate(422.265625 0)"/>
      <use xlink:href="#DejaVuSans-76" transform="translate(450.048828 0)"/>
      <use xlink:href="#DejaVuSans-65" transform="translate(509.228516 0)"/>
      <use xlink:href="#DejaVuSans-20" transform="translate(570.751953 0)"/>
      <use xlink:href="#DejaVuSans-50" transform="translate(602.539062 0)"/>
      <use xlink:href="#DejaVuSans-72" transform="translate(661.091797 0)"/>
      <use xlink:href="#DejaVuSans-6f" transform="translate(699.955078 0)"/>
      <use xlink:href="#DejaVuSans-62" transform="translate(761.136719 0)"/>
      <use xlink:href="#DejaVuSans-61" transform="translate(824.613281 0)"/>
      <use xlink:href="#DejaVuSans-62" transform="translate(885.892578 0)"/>
      <use xlink:href="#DejaVuSans-69" transform="translate(949.369141 0)"/>
      <use xlink:href="#DejaVuSans-6c" transform="translate(977.152344 0)"/>
      <use xlink:href="#DejaVuSans-69" transform="translate(1004.935547 0)"/>
      <use xlink:href="#DejaVuSans-74" transform="translate(1032.71875 0)"/>
      <use xlink:href="#DejaVuSans-79" transform="translate(1071.927734 0)"/>
     </g>
    </g>
   </g>
   <g id="line2d_23">
    <path d="M 61.031529 314.918125 
L 61.031529 314.651154 
L 63.81159 314.651154 
L 63.81159 314.384183 
L 68.259688 314.384183 
L 68.259688 314.117213 
L 69.093706 314.117213 
L 69.093706 313.850242 
L 69.371712 313.850242 
L 69.371712 313.049329 
L 69.510715 313.049329 
L 69.510715 312.782359 
L 69.788721 312.782359 
L 69.788721 312.515388 
L 70.622739 312.515388 
L 70.622739 312.248417 
L 70.761743 312.248417 
L 70.761743 310.913563 
L 70.900746 310.913563 
L 70.900746 310.379621 
L 71.456758 310.379621 
L 71.456758 310.112651 
L 71.595761 310.112651 
L 71.595761 309.84568 
L 72.01277 309.84568 
L 72.01277 309.044767 
L 72.151773 309.044767 
L 72.151773 307.442943 
L 72.346377 307.442943 
L 72.346377 307.175972 
L 72.568782 307.175972 
L 72.568782 306.64203 
L 72.707785 306.64203 
L 72.707785 306.375059 
L 73.124794 306.375059 
L 73.124794 305.574147 
L 73.263797 305.574147 
L 73.263797 305.040205 
L 73.402801 305.040205 
L 73.402801 303.972322 
L 73.541804 303.972322 
L 73.622889 301.836556 
L 73.680807 301.836556 
L 73.680807 301.302614 
L 74.375822 301.302614 
L 74.375822 300.501702 
L 74.514825 300.501702 
L 74.514825 300.234731 
L 74.653828 300.234731 
L 74.653828 299.96776 
L 74.792831 299.96776 
L 74.792831 299.700789 
L 74.931834 299.700789 
L 74.931834 298.365935 
L 75.070837 298.365935 
L 75.070837 298.098964 
L 75.348843 298.098964 
L 75.348843 297.831994 
L 75.487846 297.831994 
L 75.487846 297.565023 
L 75.626849 297.565023 
L 75.626849 297.298052 
L 75.904855 297.298052 
L 75.904855 296.49714 
L 76.182862 296.49714 
L 76.182862 295.696227 
L 76.321865 295.696227 
L 76.321865 293.827432 
L 76.460868 293.827432 
L 76.460868 293.560461 
L 76.738874 293.560461 
L 76.738874 293.29349 
L 77.155883 293.29349 
L 77.155883 292.759548 
L 77.433889 292.759548 
L 77.433889 292.492578 
L 77.572892 292.492578 
L 77.572892 292.225607 
L 77.711895 292.225607 
L 77.711895 289.288928 
L 78.128904 289.288928 
L 78.128904 289.021957 
L 78.267907 289.021957 
L 78.267907 288.754986 
L 78.40691 288.754986 
L 78.40691 288.488016 
L 78.545913 288.488016 
L 78.545913 288.221045 
L 79.101926 288.221045 
L 79.101926 285.551337 
L 79.240929 285.551337 
L 79.240929 285.017395 
L 80.352953 285.017395 
L 80.352953 284.483453 
L 80.491956 284.483453 
L 80.491956 281.546775 
L 80.630959 281.546775 
L 80.714361 281.012833 
L 81.881987 281.012833 
L 81.881987 279.411008 
L 82.437999 279.411008 
L 82.437999 279.144037 
L 82.577002 279.144037 
L 82.577002 278.610096 
L 82.716005 278.610096 
L 82.716005 278.343125 
L 83.272017 278.343125 
L 83.272017 277.542213 
L 83.689026 277.542213 
L 83.689026 277.275242 
L 83.828029 277.275242 
L 83.828029 276.474329 
L 84.106036 276.474329 
L 84.106036 276.207359 
L 84.662048 276.207359 
L 84.662048 273.537651 
L 85.357063 273.537651 
L 85.357063 273.27068 
L 85.913075 273.27068 
L 85.913075 273.003709 
L 86.052078 273.003709 
L 86.052078 272.469767 
L 86.330084 272.469767 
L 86.330084 272.202797 
L 86.608091 272.202797 
L 86.608091 271.935826 
L 86.758214 271.935826 
L 86.758214 271.668855 
L 87.044957 271.668855 
L 87.044957 271.401884 
L 87.164103 271.401884 
L 87.164103 271.134913 
L 87.303106 271.134913 
L 87.303106 270.600972 
L 87.442109 270.600972 
L 87.442109 269.533089 
L 87.581112 269.533089 
L 87.581112 269.266118 
L 87.720115 269.266118 
L 87.720115 268.999147 
L 88.276127 268.999147 
L 88.276127 268.732176 
L 88.832139 268.732176 
L 88.832139 267.397322 
L 88.971142 267.397322 
L 88.971142 267.130351 
L 90.22217 267.130351 
L 90.22217 265.261556 
L 90.639179 265.261556 
L 90.639179 264.727614 
L 91.056188 264.727614 
L 91.056188 264.460643 
L 91.6122 264.460643 
L 91.6122 262.858818 
L 91.890207 262.858818 
L 91.959708 262.324877 
L 92.307216 262.324877 
L 92.307216 262.057906 
L 93.002231 262.057906 
L 93.002231 261.256994 
L 93.41924 261.256994 
L 93.41924 260.990023 
L 94.253258 260.990023 
L 94.253258 260.723052 
L 94.392261 260.723052 
L 94.392261 257.786373 
L 95.087277 257.786373 
L 95.087277 257.519402 
L 95.782292 257.519402 
L 95.782292 255.917578 
L 96.477307 255.917578 
L 96.477307 255.650607 
L 96.894316 255.650607 
L 96.894316 255.383636 
L 97.172323 255.383636 
L 97.172323 253.24787 
L 97.311326 253.24787 
L 97.311326 252.980899 
L 97.867338 252.980899 
L 97.867338 252.713928 
L 98.006341 252.713928 
L 98.006341 252.446957 
L 98.173144 252.446957 
L 98.173144 251.913016 
L 98.284347 251.913016 
L 98.284347 251.646045 
L 98.562353 251.646045 
L 98.562353 250.578161 
L 98.840359 250.578161 
L 98.840359 250.311191 
L 99.048864 250.311191 
L 99.048864 250.04422 
L 99.257368 250.04422 
L 99.257368 249.777249 
L 99.952384 249.777249 
L 99.952384 246.573599 
L 101.064408 246.573599 
L 101.064408 246.306629 
L 102.176432 246.306629 
L 102.176432 245.772687 
L 102.315435 245.772687 
L 102.315435 245.238745 
L 102.454439 245.238745 
L 102.454439 244.971775 
L 102.732445 244.971775 
L 102.732445 244.170862 
L 102.9896 244.170862 
L 102.9896 243.903891 
L 103.288457 243.903891 
L 103.288457 243.636921 
L 104.122475 243.636921 
L 104.122475 242.569037 
L 104.400481 242.569037 
L 104.400481 242.302067 
L 104.539484 242.302067 
L 104.539484 241.768125 
L 104.747989 241.768125 
L 104.747989 241.501154 
L 105.2345 241.501154 
L 105.2345 241.234183 
L 105.512506 241.234183 
L 105.512506 240.1663 
L 105.651509 240.1663 
L 105.651509 239.899329 
L 106.485527 239.899329 
L 106.485527 239.632359 
L 106.694032 239.632359 
L 106.694032 239.365388 
L 106.902536 239.365388 
L 106.902536 238.297505 
L 107.250044 238.297505 
L 107.250044 238.030534 
L 107.736555 238.030534 
L 107.736555 237.763563 
L 108.292567 237.763563 
L 108.292567 236.69568 
L 108.43157 236.69568 
L 108.43157 236.428709 
L 109.126585 236.428709 
L 109.126585 236.161738 
L 109.543594 236.161738 
L 109.543594 235.894767 
L 109.682597 235.894767 
L 109.682597 235.627797 
L 110.809945 235.627797 
L 110.809945 235.360826 
L 111.072628 235.360826 
L 111.072628 234.025972 
L 111.489637 234.025972 
L 111.489637 233.759001 
L 111.878845 233.759001 
L 111.976148 232.691118 
L 112.184652 232.691118 
L 112.184652 232.424147 
L 112.462658 232.424147 
L 112.462658 230.555351 
L 112.601661 230.555351 
L 112.601661 230.28838 
L 113.018671 230.28838 
L 113.018671 230.02141 
L 113.852689 230.02141 
L 113.852689 229.487468 
L 114.3392 229.487468 
L 114.3392 229.220497 
L 115.05317 229.220497 
L 115.05317 228.953526 
L 115.173218 228.953526 
L 115.242719 227.618672 
L 116.63275 227.618672 
L 116.63275 225.749877 
L 116.910756 225.749877 
L 116.910756 225.482906 
L 117.744774 225.482906 
L 117.744774 225.215935 
L 118.02278 225.215935 
L 118.02278 224.681994 
L 118.995802 224.681994 
L 118.995802 224.415023 
L 119.412811 224.415023 
L 119.412811 222.813198 
L 120.663838 222.813198 
L 120.663838 222.546227 
L 120.802841 222.546227 
L 120.802841 220.677432 
L 120.941845 220.677432 
L 120.941845 220.410461 
L 121.775863 220.410461 
L 121.775863 220.14349 
L 122.192872 220.14349 
L 122.192872 218.274694 
L 122.331875 218.274694 
L 122.331875 218.007724 
L 122.470878 218.007724 
L 122.470878 217.740753 
L 122.748884 217.740753 
L 122.748884 217.473782 
L 123.582903 217.473782 
L 123.582903 215.338016 
L 124.653226 215.338016 
L 124.653226 215.071045 
L 125.111936 215.071045 
L 125.111936 214.804074 
L 125.436277 214.804074 
L 125.436277 214.537103 
L 126.362964 214.537103 
L 126.362964 212.401337 
L 126.86851 212.401337 
L 126.86851 212.134366 
L 127.752994 212.134366 
L 127.752994 210.532541 
L 128.170003 210.532541 
L 128.170003 210.26557 
L 128.726015 210.26557 
L 128.726015 209.998599 
L 129.072212 209.998599 
L 129.143025 208.129804 
L 130.116046 208.129804 
L 130.116046 207.862833 
L 130.324551 207.862833 
L 130.324551 207.595862 
L 130.533055 207.595862 
L 130.533055 206.79495 
L 130.672058 206.79495 
L 130.672058 206.527979 
L 131.259249 206.527979 
L 131.367073 205.994037 
L 131.64508 205.994037 
L 131.64508 205.727067 
L 131.923086 205.727067 
L 131.923086 203.858271 
L 132.062089 203.858271 
L 132.062089 203.324329 
L 132.618101 203.324329 
L 132.618101 203.057359 
L 133.03511 203.057359 
L 133.03511 202.256446 
L 133.313116 202.256446 
L 133.313116 201.989475 
L 133.954669 201.989475 
L 133.954669 201.722505 
L 134.147135 201.722505 
L 134.147135 201.455534 
L 134.703147 201.455534 
L 134.703147 200.921592 
L 134.854786 200.921592 
L 134.854786 200.654621 
L 136.093177 200.654621 
L 136.093177 198.785826 
L 137.483208 198.785826 
L 137.483208 197.717943 
L 138.48403 197.717943 
L 138.48403 197.450972 
L 138.873238 197.450972 
L 138.873238 196.383089 
L 139.290247 196.383089 
L 139.290247 196.116118 
L 139.568254 196.116118 
L 139.568254 195.849147 
L 139.818459 195.849147 
L 139.818459 195.582176 
L 140.263269 195.582176 
L 140.263269 194.514293 
L 140.610776 194.514293 
L 140.610776 194.247322 
L 141.514296 194.247322 
L 141.514296 193.980351 
L 141.653299 193.980351 
L 141.653299 192.111556 
L 141.931305 192.111556 
L 141.931305 191.844585 
L 142.070309 191.844585 
L 142.070309 191.577614 
L 143.04333 191.577614 
L 143.04333 191.043672 
L 144.43336 191.043672 
L 144.43336 189.975789 
L 145.128376 189.975789 
L 145.128376 189.708818 
L 145.684388 189.708818 
L 145.684388 189.441848 
L 145.823391 189.441848 
L 145.823391 186.505169 
L 146.031896 186.505169 
L 146.031896 186.238198 
L 147.213421 186.238198 
L 147.213421 183.301519 
L 148.04744 183.301519 
L 148.04744 183.034548 
L 148.603452 183.034548 
L 148.603452 181.432724 
L 149.779632 181.432724 
L 149.779632 181.165753 
L 149.993483 181.165753 
L 149.993483 179.296957 
L 150.271489 179.296957 
L 150.271489 179.029986 
L 150.966504 179.029986 
L 150.966504 178.763016 
L 151.095921 178.763016 
L 151.095921 178.496045 
L 151.383513 178.496045 
L 151.383513 177.695132 
L 151.522516 177.695132 
L 151.522516 177.428161 
L 151.7676 177.428161 
L 151.7676 177.161191 
L 152.773544 177.161191 
L 152.773544 175.826337 
L 154.163574 175.826337 
L 154.163574 175.025424 
L 155.136595 175.025424 
L 155.136595 174.491483 
L 155.414602 174.491483 
L 155.414602 174.224512 
L 155.553605 174.224512 
L 155.553605 172.622687 
L 156.943635 172.622687 
L 156.943635 171.287833 
L 158.333666 171.287833 
L 158.333666 169.419037 
L 158.681173 169.419037 
L 158.681173 169.152067 
L 158.889678 169.152067 
L 158.889678 168.885096 
L 159.723696 168.885096 
L 159.723696 168.351154 
L 161.113727 168.351154 
L 161.113727 166.215388 
L 161.808742 166.215388 
L 161.808742 165.948417 
L 162.364754 165.948417 
L 162.364754 165.681446 
L 162.503757 165.681446 
L 162.503757 164.880534 
L 163.893788 164.880534 
L 163.893788 164.613563 
L 165.144815 164.613563 
L 165.144815 164.346592 
L 165.256018 164.346592 
L 165.283818 161.676884 
L 165.422821 161.676884 
L 165.422821 161.409913 
L 165.82593 161.409913 
L 165.82593 161.142943 
L 166.673849 161.142943 
L 166.673849 159.808089 
L 168.063879 159.808089 
L 168.063879 159.274147 
L 168.341885 159.274147 
L 168.341885 159.007176 
L 169.175904 159.007176 
L 169.175904 158.740205 
L 169.45391 158.740205 
L 169.45391 157.13838 
L 169.822268 157.13838 
L 169.822268 156.87141 
L 169.940421 156.87141 
L 170.009922 156.070497 
L 170.84394 156.070497 
L 170.84394 154.468672 
L 171.121947 154.468672 
L 171.121947 154.201702 
L 172.233971 154.201702 
L 172.233971 152.332906 
L 172.789983 152.332906 
L 172.789983 152.065935 
L 172.956787 152.065935 
L 172.956787 151.798964 
L 173.624001 151.798964 
L 173.624001 150.19714 
L 174.624823 150.19714 
L 174.624823 149.663198 
L 175.014032 149.663198 
L 175.014032 148.328344 
L 175.709047 148.328344 
L 175.709047 147.794402 
L 175.987053 147.794402 
L 175.987053 147.527432 
L 176.404063 147.527432 
L 176.404063 145.658636 
L 177.794093 145.658636 
L 177.794093 144.056811 
L 178.906117 144.056811 
L 178.906117 143.78984 
L 179.184124 143.78984 
L 179.184124 142.988928 
L 179.323127 142.988928 
L 179.323127 142.721957 
L 179.760986 142.721957 
L 179.760986 142.454986 
L 179.879139 142.454986 
L 179.879139 142.188016 
L 180.574154 142.188016 
L 180.574154 141.654074 
L 181.825182 141.654074 
L 181.825182 141.387103 
L 181.964185 141.387103 
L 181.964185 140.853161 
L 182.520197 140.853161 
L 182.555221 140.31922 
L 183.771224 140.31922 
L 183.771224 140.052249 
L 184.327237 140.052249 
L 184.327237 139.785278 
L 184.744246 139.785278 
L 184.744246 137.916483 
L 185.578264 137.916483 
L 185.578264 137.649512 
L 186.134276 137.649512 
L 186.134276 135.780716 
L 186.968295 135.780716 
L 186.968295 135.513745 
L 187.176799 135.513745 
L 187.176799 135.246775 
L 187.353226 135.246775 
L 187.353226 134.979804 
L 187.524307 134.979804 
L 187.524307 134.445862 
L 188.775334 134.445862 
L 188.775334 134.178891 
L 188.914337 134.178891 
L 188.914337 132.844037 
L 189.678854 132.844037 
L 189.678854 132.577067 
L 190.304368 132.577067 
L 190.304368 131.509183 
L 190.443371 131.509183 
L 190.443371 131.242213 
L 191.277389 131.242213 
L 191.277389 130.975242 
L 191.694398 130.975242 
L 191.694398 130.708271 
L 193.084429 130.708271 
L 193.181731 128.839475 
L 193.223432 128.839475 
L 193.223432 128.572505 
L 194.05745 128.572505 
L 194.05745 128.305534 
L 194.474459 128.305534 
L 194.474459 126.97068 
L 195.86449 126.97068 
L 195.933991 125.635826 
L 196.334801 125.635826 
L 196.420502 125.101884 
L 196.698508 125.101884 
L 196.698508 124.834913 
L 198.088539 124.834913 
L 198.088539 124.567943 
L 198.644551 124.567943 
L 198.644551 122.966118 
L 198.783554 122.966118 
L 198.783554 122.699147 
L 200.034581 122.699147 
L 200.034581 121.097322 
L 200.43769 121.097322 
L 200.43769 120.830351 
L 201.424612 120.830351 
L 201.424612 119.762468 
L 201.980624 119.762468 
L 201.980624 119.495497 
L 202.24473 119.495497 
L 202.24473 119.228526 
L 202.397633 119.228526 
L 202.397633 118.961556 
L 202.814643 118.961556 
L 202.814643 117.626702 
L 203.926667 117.626702 
L 203.926667 117.359731 
L 204.204673 117.359731 
L 204.204673 116.825789 
L 205.594704 116.825789 
L 205.594704 116.558818 
L 206.984734 116.558818 
L 206.984734 115.223964 
L 208.096759 115.223964 
L 208.096759 114.956994 
L 208.374765 114.956994 
L 208.374765 114.423052 
L 208.833475 114.423052 
L 208.833475 114.156081 
L 209.764795 114.156081 
L 209.764795 112.287286 
L 210.251306 112.287286 
L 210.251306 112.020315 
L 210.45981 112.020315 
L 210.45981 111.753344 
L 210.87682 111.753344 
L 210.87682 111.486373 
L 211.154826 111.486373 
L 211.154826 111.219402 
L 211.988844 111.219402 
L 211.988844 110.952432 
L 212.544856 110.952432 
L 212.544856 109.617578 
L 213.684681 109.617578 
L 213.684681 109.350607 
L 213.934887 109.350607 
L 213.934887 107.748782 
L 215.324917 107.748782 
L 215.324917 107.21484 
L 215.728026 107.21484 
L 215.728026 106.94787 
L 216.158936 106.94787 
L 216.158936 106.680899 
L 216.714948 106.680899 
L 216.714948 105.346045 
L 217.131957 105.346045 
L 217.193483 104.812103 
L 217.757471 104.812103 
L 217.757471 104.545132 
L 218.104978 104.545132 
L 218.104978 103.477249 
L 218.521987 103.477249 
L 218.521987 103.210278 
L 218.938997 103.210278 
L 218.938997 102.676337 
L 219.495009 102.676337 
L 219.495009 101.341483 
L 220.45413 101.341483 
L 220.45413 101.074512 
L 220.607033 101.074512 
L 220.607033 100.807541 
L 220.757951 100.807541 
L 220.757951 100.54057 
L 220.885039 100.54057 
L 220.885039 100.006629 
L 221.997064 100.006629 
L 221.997064 99.739658 
L 222.27507 99.739658 
L 222.27507 98.938745 
L 223.6651 98.938745 
L 223.6651 98.404804 
L 224.652022 98.404804 
L 224.652022 98.137833 
L 224.777125 98.137833 
L 224.777125 97.870862 
L 225.055131 97.870862 
L 225.055131 97.603891 
L 225.611143 97.603891 
L 225.611143 97.336921 
L 226.028152 97.336921 
L 226.028152 97.06995 
L 226.445161 97.06995 
L 226.445161 96.269037 
L 227.27918 96.269037 
L 227.27918 96.002067 
L 227.557186 96.002067 
L 227.557186 95.735096 
L 227.835192 95.735096 
L 227.835192 93.332359 
L 228.66921 93.332359 
L 228.66921 93.065388 
L 229.225223 93.065388 
L 229.225223 91.730534 
L 229.519721 91.730534 
L 229.519721 91.463563 
L 230.615253 91.463563 
L 230.615253 90.662651 
L 232.005284 90.662651 
L 232.005284 89.594767 
L 233.395314 89.594767 
L 233.395314 88.259913 
L 234.785345 88.259913 
L 234.785345 87.992943 
L 235.459509 87.992943 
L 235.459509 87.725972 
L 236.175375 87.725972 
L 236.175375 86.925059 
L 236.522883 86.925059 
L 236.522883 86.658089 
L 236.87039 86.658089 
L 236.87039 86.391118 
L 237.565406 86.391118 
L 237.565406 85.056264 
L 237.982415 85.056264 
L 237.982415 84.789293 
L 238.538427 84.789293 
L 238.538427 84.522322 
L 238.955436 84.522322 
L 238.955436 83.72141 
L 239.233442 83.72141 
L 239.233442 83.454439 
L 240.206464 83.454439 
L 240.206464 83.187468 
L 240.345467 83.187468 
L 240.345467 82.119585 
L 241.318488 82.119585 
L 241.318488 81.852614 
L 241.735497 81.852614 
L 241.735497 81.585643 
L 243.125528 81.585643 
L 243.125528 80.51776 
L 243.68154 80.51776 
L 243.68154 80.250789 
L 244.098549 80.250789 
L 244.098549 79.983818 
L 244.515558 79.983818 
L 244.515558 78.115023 
L 244.793564 78.115023 
L 244.793564 77.848052 
L 245.905589 77.848052 
L 245.905589 77.31411 
L 247.295619 77.31411 
L 247.295619 76.246227 
L 248.68565 76.246227 
L 248.68565 75.712286 
L 250.07568 75.712286 
L 250.07568 74.644402 
L 250.770696 74.644402 
L 250.770696 74.377432 
L 251.465711 74.377432 
L 251.465711 73.84349 
L 251.604714 73.84349 
L 251.604714 73.576519 
L 252.438732 73.576519 
L 252.438732 73.309548 
L 252.855741 73.309548 
L 252.855741 72.508636 
L 253.68976 72.508636 
L 253.68976 72.241665 
L 253.967766 72.241665 
L 253.967766 71.974694 
L 254.245772 71.974694 
L 254.245772 70.63984 
L 254.940787 70.63984 
L 254.940787 70.37287 
L 255.635803 70.37287 
L 255.635803 70.105899 
L 256.122313 70.105899 
L 256.122313 69.838928 
L 256.622724 69.838928 
L 256.622724 69.571957 
L 257.025833 69.571957 
L 257.025833 68.504074 
L 258.415864 68.504074 
L 258.415864 67.703161 
L 258.638268 67.703161 
L 258.638268 67.436191 
L 258.971876 67.436191 
L 258.971876 67.16922 
L 259.805894 67.16922 
L 259.805894 66.368307 
L 260.0839 66.368307 
L 260.0839 66.101337 
L 260.917919 66.101337 
L 260.917919 65.834366 
L 261.195925 65.834366 
L 261.195925 65.033453 
L 262.168946 65.033453 
L 262.168946 64.499512 
L 262.585955 64.499512 
L 262.585955 63.431629 
L 263.558977 63.431629 
L 263.558977 63.164658 
L 265.366016 63.164658 
L 265.366016 62.363745 
L 265.657923 62.363745 
L 265.657923 62.096775 
L 266.756047 62.096775 
L 266.756047 61.295862 
L 268.146077 61.295862 
L 268.146077 61.028891 
L 269.327603 61.028891 
L 269.327603 60.761921 
L 269.536108 60.761921 
L 269.536108 59.694037 
L 270.926138 59.694037 
L 270.926138 58.893125 
L 272.316169 58.893125 
L 272.316169 58.626154 
L 273.706199 58.626154 
L 273.706199 57.825242 
L 273.984205 57.825242 
L 273.984205 57.558271 
L 275.09623 57.558271 
L 275.09623 55.689475 
L 276.48626 55.689475 
L 276.48626 55.155534 
L 277.876291 55.155534 
L 277.876291 54.354621 
L 279.266321 54.354621 
L 279.266321 53.553709 
L 280.656352 53.553709 
L 280.656352 52.485826 
L 283.047205 52.485826 
L 283.047205 52.218855 
L 283.158407 52.218855 
L 283.158407 51.951884 
L 283.436413 51.951884 
L 283.436413 50.350059 
L 284.826444 50.350059 
L 284.826444 49.816118 
L 286.216474 49.816118 
L 286.216474 49.549147 
L 287.606505 49.549147 
L 287.606505 49.015205 
L 288.996535 49.015205 
L 288.996535 47.680351 
L 290.386566 47.680351 
L 290.386566 47.14641 
L 291.776596 47.14641 
L 291.776596 46.612468 
L 293.166627 46.612468 
L 293.166627 45.544585 
L 294.556657 45.544585 
L 294.556657 45.010643 
L 297.336718 45.010643 
L 297.336718 43.94276 
L 298.726749 43.94276 
L 298.726749 43.408818 
L 299.963876 43.408818 
L 299.963876 43.141848 
L 300.116779 43.141848 
L 300.116779 42.874877 
L 301.50681 42.874877 
L 301.50681 42.073964 
L 302.201825 42.073964 
L 302.201825 41.806994 
L 302.89684 41.806994 
L 302.89684 40.47214 
L 303.452853 40.47214 
L 303.452853 40.205169 
L 304.286871 40.205169 
L 304.286871 39.137286 
L 304.425874 39.137286 
L 304.425874 38.870315 
L 305.676901 38.870315 
L 305.676901 38.069402 
L 306.232914 38.069402 
L 306.232914 37.802432 
L 306.371917 37.802432 
L 306.371917 37.535461 
L 307.066932 37.535461 
L 307.066932 37.26849 
L 308.456963 37.26849 
L 308.456963 36.467578 
L 311.237024 36.467578 
L 311.237024 36.200607 
L 314.017085 36.200607 
L 314.017085 35.933636 
L 315.215387 35.933636 
L 315.215387 35.666665 
L 315.407115 35.666665 
L 315.407115 35.399694 
L 317.770167 35.399694 
L 317.770167 35.132724 
L 318.187176 35.132724 
L 318.187176 34.06484 
L 320.967237 34.06484 
L 320.967237 32.996957 
L 321.10624 32.996957 
L 321.10624 32.729986 
L 322.357268 32.729986 
L 322.357268 32.196045 
L 326.527359 32.196045 
L 326.527359 31.662103 
L 327.91739 31.662103 
L 327.91739 31.128161 
L 329.30742 31.128161 
L 329.30742 30.861191 
L 330.697451 30.861191 
L 330.697451 30.59422 
L 332.087481 30.59422 
L 332.087481 30.327249 
L 333.477512 30.327249 
L 333.477512 30.060278 
L 333.616515 30.060278 
L 333.616515 29.793307 
L 334.867543 29.793307 
L 334.867543 29.259366 
L 340.427665 29.259366 
L 340.427665 28.992395 
L 341.817695 28.992395 
L 341.817695 28.458453 
L 343.207726 28.458453 
L 343.207726 28.191483 
L 345.417874 28.191483 
L 345.417874 27.924512 
L 345.987787 27.924512 
L 345.987787 27.657541 
L 348.767848 27.657541 
L 348.767848 27.39057 
L 349.740869 27.39057 
L 349.740869 27.123599 
L 350.157878 27.123599 
L 350.157878 26.856629 
L 352.937939 26.856629 
L 352.937939 26.589658 
L 354.32797 26.589658 
L 354.32797 26.322687 
L 355.718 26.322687 
L 355.718 26.055716 
L 358.498061 26.055716 
L 358.498061 25.788745 
L 359.888092 25.788745 
L 359.888092 25.254804 
L 361.278123 25.254804 
L 361.278123 24.987833 
L 362.251144 24.987833 
L 362.251144 24.720862 
L 369.618306 24.720862 
L 369.618306 24.186921 
L 371.008336 24.186921 
L 371.008336 23.91995 
L 373.788397 23.91995 
L 373.788397 23.652979 
L 375.178428 23.652979 
L 375.178428 23.386008 
L 376.568458 23.386008 
L 376.568458 23.119037 
L 379.348519 23.119037 
L 379.348519 22.852067 
L 382.12858 22.852067 
L 382.12858 22.585096 
L 400.198977 22.585096 
L 400.198977 22.318125 
L 400.198977 22.318125 
" clip-path="url(#p2c8c4326ef)" style="fill: none; stroke: #0000ff; stroke-width: 1.5; stroke-linecap: square"/>
   </g>
   <g id="line2d_24">
    <path d="M 60.753523 314.918125 
L 60.753523 314.651154 
L 61.170532 314.651154 
L 61.170532 314.384183 
L 63.950593 314.384183 
L 63.950593 314.117213 
L 65.20162 314.117213 
L 65.20162 313.850242 
L 65.340623 313.850242 
L 65.340623 313.583271 
L 65.479627 313.583271 
L 65.479627 313.3163 
L 66.869657 313.3163 
L 66.869657 313.049329 
L 67.555557 313.049329 
L 67.555557 312.782359 
L 67.842678 312.782359 
L 67.842678 312.515388 
L 68.8157 312.515388 
L 68.856769 311.981446 
L 69.649718 311.981446 
L 69.649718 311.714475 
L 69.927724 311.714475 
L 69.927724 311.180534 
L 70.20573 311.180534 
L 70.20573 310.646592 
L 70.333613 310.646592 
L 70.333613 310.379621 
L 70.483736 310.379621 
L 70.483736 309.84568 
L 70.622739 309.84568 
L 70.622739 309.311738 
L 70.761743 309.311738 
L 70.761743 308.243855 
L 70.900746 308.243855 
L 70.900746 307.976884 
L 71.039749 307.976884 
L 71.10925 306.909001 
L 71.178752 306.909001 
L 71.248253 306.375059 
L 71.317755 306.375059 
L 71.317755 305.040205 
L 71.456758 305.040205 
L 71.456758 304.239293 
L 71.595761 304.239293 
L 71.665262 303.43838 
L 71.734764 303.43838 
L 71.734764 303.17141 
L 71.873767 303.17141 
L 71.873767 302.637468 
L 72.01277 302.637468 
L 72.01277 302.103526 
L 72.132313 302.103526 
L 72.151773 301.302614 
L 72.262975 301.302614 
L 72.290776 300.501702 
L 72.429779 300.501702 
L 72.429779 299.433818 
L 72.568782 299.433818 
L 72.568782 298.632906 
L 72.707785 298.632906 
L 72.707785 298.098964 
L 72.823621 298.098964 
L 72.846788 297.031081 
L 72.985791 297.031081 
L 73.063633 295.162286 
L 73.124794 295.162286 
L 73.124794 294.361373 
L 73.235997 294.361373 
L 73.235997 294.094402 
L 73.402801 294.094402 
L 73.402801 293.29349 
L 73.541804 293.29349 
L 73.541804 293.026519 
L 73.680807 293.026519 
L 73.680807 292.492578 
L 73.81981 292.492578 
L 73.81981 290.623782 
L 73.958813 290.623782 
L 73.972713 290.08984 
L 74.097816 290.08984 
L 74.097816 288.754986 
L 74.236819 288.754986 
L 74.236819 288.488016 
L 74.375822 288.488016 
L 74.375822 287.687103 
L 74.514825 287.687103 
L 74.514825 287.153161 
L 74.653828 287.153161 
L 74.653828 286.886191 
L 74.792831 286.886191 
L 74.792831 286.61922 
L 74.931834 286.61922 
L 74.931834 286.085278 
L 75.070837 286.085278 
L 75.140339 285.551337 
L 75.20984 285.551337 
L 75.20984 284.483453 
L 75.348843 284.483453 
L 75.348843 283.682541 
L 75.487846 283.682541 
L 75.487846 283.41557 
L 75.765852 283.41557 
L 75.824569 282.347687 
L 75.886725 282.347687 
L 75.904855 281.279804 
L 76.043859 281.279804 
L 76.043859 280.745862 
L 76.182862 280.745862 
L 76.210662 279.677979 
L 76.55261 279.677979 
L 76.662111 278.877067 
L 76.738874 278.877067 
L 76.738874 278.343125 
L 76.877877 278.343125 
L 76.877877 277.809183 
L 77.01688 277.809183 
L 77.01688 277.542213 
L 77.155883 277.542213 
L 77.155883 276.7413 
L 77.294886 276.7413 
L 77.322687 275.940388 
L 77.433889 275.940388 
L 77.433889 275.406446 
L 77.572892 275.406446 
L 77.681006 274.338563 
L 77.689655 274.338563 
L 77.762655 273.003709 
L 77.850898 273.003709 
L 77.95831 271.935826 
L 78.128904 271.935826 
L 78.128904 271.401884 
L 78.267907 271.401884 
L 78.267907 270.600972 
L 78.40691 270.600972 
L 78.40691 270.06703 
L 78.545913 270.06703 
L 78.545913 269.800059 
L 78.962923 269.800059 
L 78.962923 269.266118 
L 79.101926 269.266118 
L 79.166081 268.198234 
L 79.240929 268.198234 
L 79.240929 267.130351 
L 79.352131 267.130351 
L 79.379932 266.59641 
L 79.518935 266.59641 
L 79.518935 266.329439 
L 79.657938 266.329439 
L 79.657938 266.062468 
L 79.796941 266.062468 
L 79.796941 265.795497 
L 80.048216 265.795497 
L 80.048216 265.528526 
L 80.21395 265.528526 
L 80.21395 264.994585 
L 80.352953 264.994585 
L 80.352953 264.460643 
L 80.491956 264.460643 
L 80.491956 264.193672 
L 80.630959 264.193672 
L 80.630959 263.926702 
L 80.769962 263.926702 
L 80.769962 263.39276 
L 80.908965 263.39276 
L 80.908965 263.125789 
L 81.186971 263.125789 
L 81.186971 262.858818 
L 81.603981 262.858818 
L 81.603981 262.324877 
L 81.742984 262.324877 
L 81.742984 262.057906 
L 81.881987 262.057906 
L 81.881987 261.523964 
L 82.159993 261.523964 
L 82.159993 260.723052 
L 82.298996 260.723052 
L 82.298996 260.456081 
L 82.437999 260.456081 
L 82.437999 259.121227 
L 82.550441 259.121227 
L 82.577002 258.053344 
L 82.716005 258.053344 
L 82.716005 257.519402 
L 82.971771 257.519402 
L 82.994011 256.71849 
L 83.133014 256.71849 
L 83.133014 256.451519 
L 83.550023 256.451519 
L 83.550023 255.383636 
L 83.828029 255.383636 
L 83.85583 254.849694 
L 83.967033 254.849694 
L 83.967033 254.582724 
L 84.106036 254.582724 
L 84.106036 254.315753 
L 84.245039 254.315753 
L 84.245039 254.048782 
L 84.384042 254.048782 
L 84.384042 253.781811 
L 84.523045 253.781811 
L 84.523045 253.51484 
L 84.801051 253.51484 
L 84.801051 252.980899 
L 85.079057 252.980899 
L 85.079057 252.179986 
L 85.21806 252.179986 
L 85.21806 251.646045 
L 85.357063 251.646045 
L 85.357063 251.379074 
L 85.496066 251.379074 
L 85.496066 250.845132 
L 85.635069 250.845132 
L 85.635069 250.578161 
L 85.774072 250.578161 
L 85.818553 250.04422 
L 85.913075 250.04422 
L 85.913075 249.510278 
L 86.052078 249.510278 
L 86.052078 249.243307 
L 86.191081 249.243307 
L 86.191081 248.709366 
L 86.330084 248.709366 
L 86.330084 248.442395 
L 86.469087 248.442395 
L 86.469087 248.175424 
L 86.608091 248.175424 
L 86.608091 247.641483 
L 86.747094 247.641483 
L 86.747094 247.107541 
L 87.0251 247.107541 
L 87.0251 246.573599 
L 87.164103 246.573599 
L 87.164103 246.306629 
L 87.303106 246.306629 
L 87.303106 246.039658 
L 87.442109 246.039658 
L 87.442109 245.772687 
L 87.664514 245.772687 
L 87.720115 244.971775 
L 87.859118 244.971775 
L 87.859118 244.437833 
L 88.276127 244.437833 
L 88.276127 244.170862 
L 88.41513 244.170862 
L 88.41513 243.36995 
L 88.971142 243.36995 
L 88.971142 242.836008 
L 89.110145 242.836008 
L 89.110145 242.302067 
L 89.388152 242.302067 
L 89.388152 242.035096 
L 89.805161 242.035096 
L 89.805161 241.768125 
L 90.22217 241.768125 
L 90.22217 240.967213 
L 90.361173 240.967213 
L 90.361173 240.700242 
L 90.500176 240.700242 
L 90.500176 240.433271 
L 90.917185 240.433271 
L 90.917185 240.1663 
L 91.195191 240.1663 
L 91.260523 239.365388 
L 91.334194 239.365388 
L 91.334194 239.098417 
L 91.5844 239.098417 
L 91.6122 238.564475 
L 92.168213 238.564475 
L 92.168213 238.297505 
L 92.446219 238.297505 
L 92.446219 238.030534 
L 92.585222 238.030534 
L 92.585222 237.229621 
L 92.724225 237.229621 
L 92.724225 236.962651 
L 93.002231 236.962651 
L 93.002231 236.69568 
L 93.41924 236.69568 
L 93.41924 236.161738 
L 93.975252 236.161738 
L 93.975252 235.894767 
L 94.114255 235.894767 
L 94.114255 235.627797 
L 94.253258 235.627797 
L 94.34778 235.093855 
L 94.809271 235.093855 
L 94.809271 234.826884 
L 94.948274 234.826884 
L 94.948274 234.559913 
L 95.087277 234.559913 
L 95.087277 234.292943 
L 95.365283 234.292943 
L 95.365283 234.025972 
L 95.504286 234.025972 
L 95.504286 233.759001 
L 95.643289 233.759001 
L 95.643289 233.49203 
L 95.921295 233.49203 
L 95.921295 232.958089 
L 96.338304 232.958089 
L 96.338304 232.157176 
L 96.532908 232.157176 
L 96.532908 231.890205 
L 97.172323 231.890205 
L 97.172323 231.356264 
L 97.589332 231.356264 
L 97.589332 231.089293 
L 97.867338 231.089293 
L 97.867338 230.555351 
L 98.006341 230.555351 
L 98.006341 230.02141 
L 98.284347 230.02141 
L 98.284347 229.754439 
L 98.42335 229.754439 
L 98.42335 229.220497 
L 98.562353 229.220497 
L 98.562353 228.419585 
L 98.701356 228.419585 
L 98.701356 228.152614 
L 98.979362 228.152614 
L 98.979362 227.084731 
L 99.118365 227.084731 
L 99.118365 226.81776 
L 99.257368 226.81776 
L 99.257368 226.283818 
L 99.674377 226.283818 
L 99.674377 225.749877 
L 99.813381 225.749877 
L 99.813381 225.482906 
L 99.952384 225.482906 
L 99.952384 225.215935 
L 100.23039 225.215935 
L 100.23039 224.948964 
L 100.369393 224.948964 
L 100.369393 224.681994 
L 100.786402 224.681994 
L 100.786402 224.415023 
L 101.481417 224.415023 
L 101.481417 224.148052 
L 101.898426 224.148052 
L 101.898426 223.881081 
L 102.037429 223.881081 
L 102.037429 223.080169 
L 102.176432 223.080169 
L 102.176432 222.546227 
L 102.315435 222.546227 
L 102.315435 222.012286 
L 102.454439 222.012286 
L 102.454439 221.745315 
L 103.288457 221.745315 
L 103.288457 221.478344 
L 103.566463 221.478344 
L 103.566463 220.944402 
L 103.705466 220.944402 
L 103.705466 220.677432 
L 103.844469 220.677432 
L 103.844469 220.410461 
L 103.983472 220.410461 
L 103.983472 220.14349 
L 105.2345 220.14349 
L 105.2345 219.609548 
L 105.373503 219.609548 
L 105.373503 219.342578 
L 105.512506 219.342578 
L 105.512506 218.274694 
L 105.790512 218.274694 
L 105.790512 218.007724 
L 106.763533 218.007724 
L 106.763533 217.740753 
L 106.902536 217.740753 
L 106.902536 216.67287 
L 107.041539 216.67287 
L 107.041539 216.405899 
L 107.180542 216.405899 
L 107.180542 215.871957 
L 107.458548 215.871957 
L 107.458548 215.604986 
L 107.736555 215.604986 
L 107.736555 215.338016 
L 107.875558 215.338016 
L 107.875558 215.071045 
L 108.292567 215.071045 
L 108.292567 214.537103 
L 108.570573 214.537103 
L 108.570573 214.270132 
L 108.709576 214.270132 
L 108.709576 213.736191 
L 108.987582 213.736191 
L 108.987582 213.46922 
L 109.126585 213.46922 
L 109.126585 213.202249 
L 109.404591 213.202249 
L 109.404591 212.935278 
L 109.960603 212.935278 
L 109.960603 212.668307 
L 110.210809 212.668307 
L 110.301161 211.867395 
L 110.377613 211.867395 
L 110.377613 211.600424 
L 110.655619 211.600424 
L 110.655619 211.333453 
L 110.933625 211.333453 
L 111.024033 210.532541 
L 111.072628 210.532541 
L 111.114329 209.464658 
L 111.211631 209.464658 
L 111.211631 209.197687 
L 111.350634 209.197687 
L 111.350634 208.930716 
L 111.62864 208.930716 
L 111.62864 208.663745 
L 111.767643 208.663745 
L 111.767643 208.129804 
L 111.906646 208.129804 
L 111.906646 207.862833 
L 112.045649 207.862833 
L 112.045649 206.527979 
L 112.184652 206.527979 
L 112.184652 206.261008 
L 112.462658 206.261008 
L 112.51826 205.727067 
L 113.296677 205.727067 
L 113.296677 205.460096 
L 113.43568 205.460096 
L 113.43568 205.193125 
L 113.574683 205.193125 
L 113.574683 204.659183 
L 113.713686 204.659183 
L 113.713686 204.125242 
L 113.991692 204.125242 
L 113.991692 203.5913 
L 114.130695 203.5913 
L 114.130695 203.324329 
L 114.269698 203.324329 
L 114.269698 203.057359 
L 114.686707 203.057359 
L 114.761555 202.523417 
L 114.964713 202.523417 
L 114.964713 201.989475 
L 115.103716 201.989475 
L 115.103716 201.188563 
L 115.381722 201.188563 
L 115.381722 200.654621 
L 115.520725 200.654621 
L 115.520725 200.387651 
L 115.659729 200.387651 
L 115.659729 200.12068 
L 115.937735 200.12068 
L 115.937735 199.853709 
L 116.076738 199.853709 
L 116.076738 199.586738 
L 116.354744 199.586738 
L 116.354744 199.319767 
L 116.493747 199.319767 
L 116.493747 199.052797 
L 116.63275 199.052797 
L 116.63275 198.518855 
L 117.188762 198.518855 
L 117.188762 198.251884 
L 117.327765 198.251884 
L 117.327765 197.984913 
L 117.466768 197.984913 
L 117.466768 197.717943 
L 117.744774 197.717943 
L 117.744774 197.450972 
L 118.02278 197.450972 
L 118.02278 196.650059 
L 118.161783 196.650059 
L 118.161783 196.383089 
L 118.300787 196.383089 
L 118.300787 196.116118 
L 118.43979 196.116118 
L 118.43979 195.849147 
L 118.717796 195.849147 
L 118.717796 195.315205 
L 118.856799 195.315205 
L 118.856799 195.048234 
L 119.412811 195.048234 
L 119.412811 194.781264 
L 119.551814 194.781264 
L 119.551814 194.514293 
L 119.82982 194.514293 
L 119.82982 194.247322 
L 120.246829 194.247322 
L 120.246829 193.980351 
L 120.385832 193.980351 
L 120.385832 193.44641 
L 120.663838 193.44641 
L 120.663838 192.912468 
L 120.802841 192.912468 
L 120.802841 192.378526 
L 120.941845 192.378526 
L 120.941845 191.844585 
L 121.080848 191.844585 
L 121.080848 191.577614 
L 121.358854 191.577614 
L 121.358854 191.043672 
L 122.192872 191.043672 
L 122.192872 190.776702 
L 122.470878 190.776702 
L 122.470878 190.509731 
L 122.609881 190.509731 
L 122.609881 190.24276 
L 122.887887 190.24276 
L 122.887887 189.708818 
L 123.02689 189.708818 
L 123.02689 189.441848 
L 123.165893 189.441848 
L 123.165893 189.174877 
L 123.443899 189.174877 
L 123.443899 188.907906 
L 123.582903 188.907906 
L 123.582903 188.640935 
L 123.721906 188.640935 
L 123.721906 188.373964 
L 123.999912 188.373964 
L 123.999912 188.106994 
L 124.277918 188.106994 
L 124.277918 187.840023 
L 124.403021 187.840023 
L 124.416921 187.306081 
L 124.83393 187.306081 
L 124.83393 186.77214 
L 124.972933 186.77214 
L 124.972933 186.505169 
L 125.111936 186.505169 
L 125.111936 186.238198 
L 125.250939 186.238198 
L 125.250939 185.704256 
L 125.667948 185.704256 
L 125.667948 185.437286 
L 125.806951 185.437286 
L 125.806951 185.170315 
L 126.057157 185.170315 
L 126.084957 184.369402 
L 126.223961 184.369402 
L 126.223961 184.102432 
L 126.779973 184.102432 
L 126.779973 183.835461 
L 127.335985 183.835461 
L 127.335985 183.56849 
L 127.752994 183.56849 
L 127.752994 183.301519 
L 128.031 183.301519 
L 128.031 183.034548 
L 128.170003 183.034548 
L 128.170003 182.767578 
L 128.309006 182.767578 
L 128.354877 182.233636 
L 128.448009 182.233636 
L 128.448009 181.699694 
L 128.587012 181.699694 
L 128.587012 180.898782 
L 129.004022 180.898782 
L 129.004022 180.36484 
L 129.143025 180.36484 
L 129.143025 180.09787 
L 129.282028 180.09787 
L 129.282028 179.830899 
L 129.421031 179.830899 
L 129.421031 179.296957 
L 129.793165 179.296957 
L 129.793165 179.029986 
L 130.255049 179.029986 
L 130.255049 178.496045 
L 130.672058 178.496045 
L 130.672058 178.229074 
L 130.811061 178.229074 
L 130.811061 177.962103 
L 131.22807 177.962103 
L 131.22807 177.695132 
L 131.367073 177.695132 
L 131.367073 177.428161 
L 131.64508 177.428161 
L 131.714581 176.89422 
L 132.201092 176.89422 
L 132.201092 176.360278 
L 132.479098 176.360278 
L 132.479098 176.093307 
L 132.618101 176.093307 
L 132.618101 175.826337 
L 132.896107 175.826337 
L 132.896107 175.559366 
L 133.452119 175.559366 
L 133.452119 175.025424 
L 133.730125 175.025424 
L 133.730125 174.758453 
L 133.869128 174.758453 
L 133.869128 174.491483 
L 134.286138 174.491483 
L 134.286138 174.224512 
L 134.981153 174.224512 
L 134.981153 173.69057 
L 135.120156 173.69057 
L 135.120156 173.423599 
L 135.259159 173.423599 
L 135.259159 172.889658 
L 135.398162 172.889658 
L 135.445423 172.355716 
L 135.884673 172.355716 
L 135.884673 172.088745 
L 136.093177 172.088745 
L 136.093177 171.821775 
L 136.371183 171.821775 
L 136.371183 170.753891 
L 136.510186 170.753891 
L 136.510186 170.486921 
L 136.927196 170.486921 
L 136.927196 170.21995 
L 137.066199 170.21995 
L 137.066199 169.952979 
L 137.205202 169.952979 
L 137.205202 169.686008 
L 137.761214 169.686008 
L 137.761214 169.419037 
L 138.03922 169.419037 
L 138.03922 169.152067 
L 138.178223 169.152067 
L 138.178223 168.618125 
L 138.317226 168.618125 
L 138.317226 167.817213 
L 138.595232 167.817213 
L 138.595232 167.0163 
L 138.734235 167.0163 
L 138.734235 166.749329 
L 138.873238 166.749329 
L 138.873238 166.482359 
L 139.012241 166.482359 
L 139.012241 165.948417 
L 139.151244 165.948417 
L 139.151244 165.681446 
L 139.290247 165.681446 
L 139.290247 165.414475 
L 139.429251 165.414475 
L 139.489485 164.880534 
L 139.707257 164.880534 
L 139.790658 163.812651 
L 139.84626 163.812651 
L 139.84626 163.54568 
L 139.985263 163.54568 
L 139.985263 163.011738 
L 140.124266 163.011738 
L 140.124266 162.744767 
L 140.263269 162.744767 
L 140.263269 162.477797 
L 140.402272 162.477797 
L 140.402272 161.943855 
L 140.569076 161.943855 
L 140.569076 161.676884 
L 141.23629 161.676884 
L 141.23629 161.409913 
L 141.375293 161.409913 
L 141.375293 161.142943 
L 141.653299 161.142943 
L 141.653299 160.875972 
L 141.792302 160.875972 
L 141.792302 160.609001 
L 141.931305 160.609001 
L 141.931305 160.34203 
L 142.348315 160.34203 
L 142.348315 160.075059 
L 142.765324 160.075059 
L 142.765324 159.808089 
L 142.904327 159.808089 
L 142.904327 159.541118 
L 143.460339 159.541118 
L 143.460339 159.274147 
L 144.016351 159.274147 
L 144.016351 159.007176 
L 144.155354 159.007176 
L 144.155354 158.740205 
L 144.572363 158.740205 
L 144.572363 158.473234 
L 144.711367 158.473234 
L 144.711367 158.206264 
L 144.85037 158.206264 
L 144.85037 157.672322 
L 144.989373 157.672322 
L 144.989373 156.87141 
L 145.128376 156.87141 
L 145.128376 156.604439 
L 145.406382 156.604439 
L 145.406382 156.337468 
L 146.101397 156.337468 
L 146.101397 155.803526 
L 146.2404 155.803526 
L 146.2404 155.002614 
L 146.587908 155.002614 
L 146.587908 154.735643 
L 146.796412 154.735643 
L 146.796412 154.468672 
L 146.935415 154.468672 
L 146.935415 153.934731 
L 147.074418 153.934731 
L 147.074418 153.66776 
L 147.352425 153.66776 
L 147.352425 153.133818 
L 147.491428 153.133818 
L 147.491428 152.866848 
L 147.630431 152.866848 
L 147.630431 152.332906 
L 147.769434 152.332906 
L 147.769434 152.065935 
L 148.194867 152.065935 
L 148.194867 151.798964 
L 148.325446 151.798964 
L 148.325446 151.531994 
L 149.298467 151.531994 
L 149.298467 151.265023 
L 149.576473 151.265023 
L 149.576473 150.998052 
L 149.715476 150.998052 
L 149.715476 150.46411 
L 149.854479 150.46411 
L 149.854479 149.930169 
L 149.993483 149.930169 
L 149.993483 149.663198 
L 150.132486 149.663198 
L 150.132486 149.396227 
L 150.271489 149.396227 
L 150.271489 149.129256 
L 150.410492 149.129256 
L 150.410492 148.862286 
L 150.549495 148.862286 
L 150.549495 148.328344 
L 150.716298 148.328344 
L 150.716298 148.061373 
L 151.105507 148.061373 
L 151.18593 147.527432 
L 151.383513 147.527432 
L 151.383513 146.99349 
L 151.71712 146.99349 
L 151.71712 146.726519 
L 151.995126 146.726519 
L 152.078528 145.925607 
L 152.217531 145.925607 
L 152.217531 145.658636 
L 152.356534 145.658636 
L 152.356534 145.124694 
L 152.495537 145.124694 
L 152.495537 144.590753 
L 152.912547 144.590753 
L 152.912547 144.323782 
L 153.190553 144.323782 
L 153.232254 143.78984 
L 153.468559 143.78984 
L 153.468559 143.255899 
L 153.746565 143.255899 
L 153.802166 142.454986 
L 153.885568 142.454986 
L 153.885568 142.188016 
L 154.302577 142.188016 
L 154.302577 141.921045 
L 154.44158 141.921045 
L 154.44158 141.654074 
L 154.580583 141.654074 
L 154.580583 141.387103 
L 154.719586 141.387103 
L 154.719586 140.853161 
L 155.275599 140.853161 
L 155.275599 140.31922 
L 155.414602 140.31922 
L 155.414602 140.052249 
L 155.553605 140.052249 
L 155.553605 139.785278 
L 155.692608 139.785278 
L 155.692608 138.984366 
L 155.831611 138.984366 
L 155.831611 137.916483 
L 156.387623 137.916483 
L 156.387623 137.649512 
L 156.526626 137.649512 
L 156.526626 137.382541 
L 156.665629 137.382541 
L 156.665629 137.11557 
L 156.804632 137.11557 
L 156.804632 136.581629 
L 156.943635 136.581629 
L 156.943635 136.314658 
L 157.63865 136.314658 
L 157.63865 135.780716 
L 157.777653 135.780716 
L 157.874956 134.979804 
L 157.916657 134.979804 
L 157.916657 134.445862 
L 158.05566 134.445862 
L 158.05566 134.178891 
L 158.194663 134.178891 
L 158.194663 133.911921 
L 158.472669 133.911921 
L 158.472669 133.377979 
L 158.611672 133.377979 
L 158.611672 133.111008 
L 158.750675 133.111008 
L 158.750675 132.577067 
L 158.889678 132.577067 
L 158.889678 132.043125 
L 159.723696 132.043125 
L 159.723696 131.509183 
L 160.001702 131.509183 
L 160.001702 131.242213 
L 160.140705 131.242213 
L 160.140705 130.975242 
L 160.835721 130.975242 
L 160.835721 130.708271 
L 161.391733 130.708271 
L 161.456891 130.174329 
L 161.530736 130.174329 
L 161.530736 129.907359 
L 161.669739 129.907359 
L 161.669739 129.640388 
L 161.808742 129.640388 
L 161.832916 128.572505 
L 162.086748 128.572505 
L 162.086748 128.038563 
L 162.236444 128.038563 
L 162.236444 127.771592 
L 162.503757 127.771592 
L 162.503757 127.504621 
L 162.781763 127.504621 
L 162.781763 127.237651 
L 163.059769 127.237651 
L 163.059769 126.97068 
L 163.198773 126.97068 
L 163.198773 126.436738 
L 163.754785 126.436738 
L 163.754785 126.169767 
L 163.893788 126.169767 
L 163.893788 125.902797 
L 164.171794 125.902797 
L 164.171794 124.834913 
L 164.310797 124.834913 
L 164.310797 124.034001 
L 165.005812 124.034001 
L 165.005812 123.76703 
L 165.144815 123.76703 
L 165.144815 123.500059 
L 165.36722 123.500059 
L 165.36722 123.233089 
L 166.148055 123.233089 
L 166.25684 122.699147 
L 166.812852 122.699147 
L 166.882353 122.165205 
L 166.951855 122.165205 
L 166.951855 121.364293 
L 167.229861 121.364293 
L 167.313263 120.830351 
L 167.368864 120.830351 
L 167.368864 120.56338 
L 167.64687 120.56338 
L 167.64687 120.29641 
L 168.063879 120.29641 
L 168.063879 120.029439 
L 168.341885 120.029439 
L 168.341885 119.762468 
L 168.480889 119.762468 
L 168.480889 119.495497 
L 169.036901 119.495497 
L 169.036901 118.694585 
L 169.155311 118.694585 
L 169.155311 118.427614 
L 169.523411 118.427614 
L 169.523411 118.160643 
L 169.657781 118.160643 
L 169.657781 117.893672 
L 169.870919 117.893672 
L 169.870919 117.626702 
L 170.148925 117.626702 
L 170.148925 117.359731 
L 170.287928 117.359731 
L 170.287928 116.291848 
L 170.565934 116.291848 
L 170.565934 116.024877 
L 170.704937 116.024877 
L 170.704937 115.757906 
L 170.982943 115.757906 
L 170.982943 115.223964 
L 171.121947 115.223964 
L 171.121947 114.956994 
L 171.233149 114.956994 
L 171.233149 114.690023 
L 171.399953 114.690023 
L 171.399953 114.423052 
L 171.816962 114.423052 
L 171.816962 113.88911 
L 172.65098 113.88911 
L 172.65098 113.088198 
L 172.789983 113.088198 
L 172.789983 112.821227 
L 172.928986 112.821227 
L 172.928986 112.554256 
L 173.206992 112.554256 
L 173.206992 112.287286 
L 173.484998 112.287286 
L 173.484998 112.020315 
L 173.624001 112.020315 
L 173.624001 111.753344 
L 174.180014 111.753344 
L 174.180014 110.952432 
L 174.319017 110.952432 
L 174.319017 110.41849 
L 174.45802 110.41849 
L 174.45802 110.151519 
L 174.597023 110.151519 
L 174.597023 109.617578 
L 175.292038 109.617578 
L 175.292038 109.350607 
L 175.431041 109.350607 
L 175.431041 109.083636 
L 175.555665 109.083636 
L 175.555665 108.816665 
L 175.987053 108.816665 
L 175.987053 108.015753 
L 176.126056 108.015753 
L 176.126056 107.748782 
L 176.404063 107.748782 
L 176.404063 107.481811 
L 176.543066 107.481811 
L 176.543066 107.21484 
L 176.682069 107.21484 
L 176.682069 106.94787 
L 176.821072 106.94787 
L 176.821072 106.680899 
L 176.960075 106.680899 
L 176.960075 106.413928 
L 177.099078 106.413928 
L 177.099078 105.879986 
L 177.377084 105.879986 
L 177.377084 105.613016 
L 177.558392 105.613016 
L 177.558392 105.346045 
L 177.933096 105.346045 
L 177.933096 105.079074 
L 178.350105 105.079074 
L 178.350105 104.545132 
L 178.489108 104.545132 
L 178.489108 104.278161 
L 178.767114 104.278161 
L 178.767114 104.011191 
L 179.009249 104.011191 
L 179.009249 103.74422 
L 179.601133 103.74422 
L 179.601133 103.210278 
L 179.879139 103.210278 
L 179.879139 102.943307 
L 180.018142 102.943307 
L 180.018142 102.676337 
L 180.435151 102.676337 
L 180.435151 102.409366 
L 180.574154 102.409366 
L 180.574154 102.142395 
L 180.713157 102.142395 
L 180.713157 101.875424 
L 180.85216 101.875424 
L 180.85216 101.608453 
L 181.269169 101.608453 
L 181.269169 101.341483 
L 181.408172 101.341483 
L 181.408172 101.074512 
L 181.547175 101.074512 
L 181.547175 100.807541 
L 181.686179 100.807541 
L 181.686179 100.54057 
L 182.242191 100.54057 
L 182.242191 100.273599 
L 182.798203 100.273599 
L 182.798203 99.472687 
L 183.076209 99.472687 
L 183.076209 99.205716 
L 183.215212 99.205716 
L 183.215212 98.938745 
L 183.910227 98.938745 
L 183.910227 98.671775 
L 184.04923 98.671775 
L 184.04923 98.404804 
L 184.327237 98.404804 
L 184.388398 97.870862 
L 185.022252 97.870862 
L 185.022252 97.603891 
L 185.717267 97.603891 
L 185.717267 97.336921 
L 185.85627 97.336921 
L 185.85627 96.802979 
L 186.134276 96.802979 
L 186.134276 96.536008 
L 186.273279 96.536008 
L 186.273279 96.269037 
L 186.412282 96.269037 
L 186.412282 96.002067 
L 187.107298 96.002067 
L 187.107298 95.735096 
L 187.385304 95.735096 
L 187.385304 95.468125 
L 187.524307 95.468125 
L 187.524307 94.934183 
L 187.66331 94.934183 
L 187.66331 94.667213 
L 187.802313 94.667213 
L 187.802313 94.400242 
L 187.941316 94.400242 
L 187.941316 93.8663 
L 188.358325 93.8663 
L 188.358325 93.599329 
L 188.775334 93.599329 
L 188.775334 93.065388 
L 188.914337 93.065388 
L 188.914337 92.798417 
L 189.887359 92.798417 
L 189.887359 92.531446 
L 190.165365 92.531446 
L 190.165365 91.997505 
L 190.304368 91.997505 
L 190.304368 91.730534 
L 190.443371 91.730534 
L 190.443371 91.196592 
L 190.721377 91.196592 
L 190.721377 90.929621 
L 190.999383 90.929621 
L 190.999383 90.39568 
L 191.488468 90.39568 
L 191.488468 90.128709 
L 191.694398 90.128709 
L 191.694398 89.861738 
L 191.819501 89.861738 
L 191.833401 89.327797 
L 192.945426 89.327797 
L 192.945426 89.060826 
L 193.084429 89.060826 
L 193.084429 88.793855 
L 193.501438 88.793855 
L 193.501438 88.526884 
L 193.918447 88.526884 
L 193.918447 87.992943 
L 194.05745 87.992943 
L 194.05745 87.725972 
L 194.196453 87.725972 
L 194.196453 87.459001 
L 194.474459 87.459001 
L 194.474459 87.19203 
L 194.613462 87.19203 
L 194.613462 86.925059 
L 194.891469 86.925059 
L 194.891469 86.391118 
L 195.030472 86.391118 
L 195.030472 86.124147 
L 195.447481 86.124147 
L 195.447481 85.857176 
L 195.86449 85.857176 
L 195.86449 85.323234 
L 196.698508 85.323234 
L 196.698508 84.522322 
L 196.976514 84.522322 
L 196.976514 84.255351 
L 197.25452 84.255351 
L 197.265641 83.454439 
L 197.393523 83.454439 
L 197.393523 83.187468 
L 197.67153 83.187468 
L 197.67153 82.920497 
L 197.949536 82.920497 
L 197.949536 82.386556 
L 198.088539 82.386556 
L 198.088539 82.119585 
L 198.644551 82.119585 
L 198.644551 81.852614 
L 199.06156 81.852614 
L 199.06156 81.585643 
L 200.451591 81.585643 
L 200.451591 81.318672 
L 200.590594 81.318672 
L 200.590594 81.051702 
L 200.729597 81.051702 
L 200.729597 80.51776 
L 200.8686 80.51776 
L 200.8686 79.983818 
L 201.007603 79.983818 
L 201.007603 79.716848 
L 201.424612 79.716848 
L 201.424612 79.449877 
L 201.563615 79.449877 
L 201.563615 79.182906 
L 202.119627 79.182906 
L 202.119627 78.915935 
L 202.25863 78.915935 
L 202.25863 78.648964 
L 202.536636 78.648964 
L 202.536636 78.381994 
L 202.814643 78.381994 
L 202.814643 78.115023 
L 203.092649 78.115023 
L 203.092649 77.848052 
L 203.648661 77.848052 
L 203.648661 77.581081 
L 203.787664 77.581081 
L 203.787664 77.04714 
L 204.204673 77.04714 
L 204.204673 76.780169 
L 204.343676 76.780169 
L 204.343676 76.513198 
L 204.621682 76.513198 
L 204.621682 76.246227 
L 204.760685 76.246227 
L 204.760685 75.979256 
L 205.316697 75.979256 
L 205.316697 75.712286 
L 205.455701 75.712286 
L 205.455701 75.445315 
L 205.594704 75.445315 
L 205.594704 74.911373 
L 205.733707 74.911373 
L 205.733707 74.644402 
L 206.150716 74.644402 
L 206.150716 74.377432 
L 206.706728 74.377432 
L 206.706728 74.110461 
L 206.984734 74.110461 
L 206.984734 73.84349 
L 207.818752 73.84349 
L 207.818752 73.309548 
L 207.957755 73.309548 
L 207.957755 73.042578 
L 208.374765 73.042578 
L 208.374765 72.775607 
L 209.208783 72.775607 
L 209.313035 72.241665 
L 209.764795 72.241665 
L 209.764795 71.974694 
L 209.924649 71.974694 
L 209.924649 71.707724 
L 210.042801 71.707724 
L 210.042801 71.440753 
L 210.181804 71.440753 
L 210.181804 71.173782 
L 210.45981 71.173782 
L 210.45981 70.906811 
L 210.87682 70.906811 
L 210.87682 70.63984 
L 211.432832 70.63984 
L 211.432832 70.37287 
L 211.849841 70.37287 
L 211.849841 70.105899 
L 211.988844 70.105899 
L 211.988844 69.838928 
L 212.127847 69.838928 
L 212.127847 69.571957 
L 213.100868 69.571957 
L 213.100868 69.304986 
L 213.656881 69.304986 
L 213.656881 69.038016 
L 213.934887 69.038016 
L 213.934887 68.771045 
L 214.212893 68.771045 
L 214.212893 68.504074 
L 214.490899 68.504074 
L 214.490899 68.237103 
L 214.768905 68.237103 
L 214.768905 67.970132 
L 214.907908 67.970132 
L 214.907908 67.703161 
L 215.185914 67.703161 
L 215.185914 67.16922 
L 215.46392 67.16922 
L 215.46392 66.902249 
L 215.880929 66.902249 
L 215.880929 66.635278 
L 216.436942 66.635278 
L 216.436942 66.101337 
L 216.714948 66.101337 
L 216.714948 65.834366 
L 216.853951 65.834366 
L 216.853951 65.567395 
L 216.992954 65.567395 
L 216.992954 65.300424 
L 217.409963 65.300424 
L 217.409963 64.766483 
L 217.826972 64.766483 
L 217.826972 64.499512 
L 217.965975 64.499512 
L 217.965975 64.232541 
L 218.104978 64.232541 
L 218.104978 63.698599 
L 218.382984 63.698599 
L 218.382984 63.431629 
L 218.521987 63.431629 
L 218.521987 63.164658 
L 218.799994 63.164658 
L 218.799994 62.897687 
L 218.938997 62.897687 
L 218.938997 62.630716 
L 219.356006 62.630716 
L 219.356006 62.363745 
L 219.814716 62.363745 
L 219.912018 61.562833 
L 220.190024 61.562833 
L 220.190024 61.295862 
L 220.329027 61.295862 
L 220.329027 61.028891 
L 220.607033 61.028891 
L 220.607033 60.761921 
L 220.746036 60.761921 
L 220.746036 60.49495 
L 221.302049 60.49495 
L 221.302049 60.227979 
L 222.414073 60.227979 
L 222.414073 59.961008 
L 222.970085 59.961008 
L 222.970085 59.694037 
L 224.777125 59.694037 
L 224.777125 59.160096 
L 224.916128 59.160096 
L 224.916128 58.893125 
L 225.333137 58.893125 
L 225.333137 58.626154 
L 225.611143 58.626154 
L 225.611143 58.359183 
L 225.854398 58.359183 
L 225.854398 58.092213 
L 226.028152 58.092213 
L 226.028152 57.825242 
L 226.167155 57.825242 
L 226.167155 57.558271 
L 226.306158 57.558271 
L 226.306158 57.024329 
L 227.418183 57.024329 
L 227.418183 56.757359 
L 227.557186 56.757359 
L 227.557186 56.490388 
L 227.835192 56.490388 
L 227.835192 55.956446 
L 227.974195 55.956446 
L 227.974195 55.422505 
L 228.530207 55.422505 
L 228.530207 55.155534 
L 228.947216 55.155534 
L 228.947216 54.888563 
L 229.086219 54.888563 
L 229.086219 54.621592 
L 229.225223 54.621592 
L 229.225223 54.354621 
L 229.781235 54.354621 
L 229.781235 54.087651 
L 230.198244 54.087651 
L 230.198244 53.82068 
L 230.615253 53.82068 
L 230.615253 53.553709 
L 231.032262 53.553709 
L 231.032262 53.286738 
L 231.171265 53.286738 
L 231.171265 53.019767 
L 231.866281 53.019767 
L 231.866281 52.752797 
L 232.700299 52.752797 
L 232.700299 52.485826 
L 233.395314 52.485826 
L 233.395314 52.218855 
L 233.812323 52.218855 
L 233.812323 51.951884 
L 234.062529 51.951884 
L 234.062529 51.684913 
L 235.063351 51.684913 
L 235.063351 51.150972 
L 235.619363 51.150972 
L 235.619363 50.884001 
L 236.175375 50.884001 
L 236.175375 50.61703 
L 236.314378 50.61703 
L 236.314378 50.350059 
L 236.731387 50.350059 
L 236.731387 50.083089 
L 236.87039 50.083089 
L 236.87039 49.816118 
L 237.843412 49.816118 
L 237.843412 49.282176 
L 238.260421 49.282176 
L 238.260421 49.015205 
L 239.372445 49.015205 
L 239.372445 48.748234 
L 239.483648 48.748234 
L 239.483648 48.481264 
L 239.650451 48.481264 
L 239.650451 48.214293 
L 240.345467 48.214293 
L 240.345467 47.947322 
L 240.762476 47.947322 
L 240.762476 47.680351 
L 241.318488 47.680351 
L 241.318488 47.41338 
L 242.569516 47.41338 
L 242.569516 47.14641 
L 242.847522 47.14641 
L 242.847522 46.612468 
L 243.542537 46.612468 
L 243.542537 46.345497 
L 243.959546 46.345497 
L 243.959546 46.078526 
L 244.237552 46.078526 
L 244.237552 45.811556 
L 244.932567 45.811556 
L 244.932567 45.544585 
L 245.071571 45.544585 
L 245.071571 45.277614 
L 245.349577 45.277614 
L 245.349577 45.010643 
L 245.48858 45.010643 
L 245.48858 44.743672 
L 246.461601 44.743672 
L 246.461601 44.476702 
L 247.156616 44.476702 
L 247.156616 44.209731 
L 247.712629 44.209731 
L 247.712629 43.94276 
L 248.407644 43.94276 
L 248.407644 43.141848 
L 249.658671 43.141848 
L 249.658671 42.874877 
L 250.49269 42.874877 
L 250.49269 42.340935 
L 251.048702 42.340935 
L 251.048702 42.073964 
L 251.88272 42.073964 
L 251.88272 41.540023 
L 254.523778 41.540023 
L 254.523778 41.273052 
L 254.940787 41.273052 
L 254.940787 41.006081 
L 255.07979 41.006081 
L 255.07979 40.73911 
L 256.330818 40.73911 
L 256.330818 40.47214 
L 259.527888 40.47214 
L 259.527888 40.205169 
L 259.944897 40.205169 
L 259.944897 39.938198 
L 260.222903 39.938198 
L 260.222903 39.404256 
L 261.056922 39.404256 
L 261.056922 39.137286 
L 261.89094 39.137286 
L 261.89094 38.870315 
L 262.029943 38.870315 
L 262.029943 38.603344 
L 262.307949 38.603344 
L 262.307949 38.336373 
L 263.558977 38.336373 
L 263.558977 38.069402 
L 263.69798 38.069402 
L 263.69798 37.802432 
L 264.671001 37.802432 
L 264.671001 37.535461 
L 265.227013 37.535461 
L 265.227013 37.26849 
L 266.061031 37.26849 
L 266.061031 37.001519 
L 266.200035 37.001519 
L 266.200035 36.734548 
L 266.617044 36.734548 
L 266.617044 36.467578 
L 266.89505 36.467578 
L 266.89505 36.200607 
L 267.451062 36.200607 
L 267.451062 35.933636 
L 272.726228 35.933636 
L 272.726228 35.666665 
L 273.706199 35.666665 
L 273.775701 34.865753 
L 274.123209 34.865753 
L 274.123209 34.598782 
L 274.262212 34.598782 
L 274.296962 34.06484 
L 276.48626 34.06484 
L 276.48626 33.79787 
L 276.764267 33.79787 
L 276.764267 33.530899 
L 278.432303 33.530899 
L 278.432303 33.263928 
L 278.571306 33.263928 
L 278.571306 32.996957 
L 280.239343 32.996957 
L 280.239343 32.729986 
L 280.517349 32.729986 
L 280.517349 32.196045 
L 281.49037 32.196045 
L 281.49037 31.929074 
L 281.629373 31.929074 
L 281.629373 31.662103 
L 281.768376 31.662103 
L 281.768376 31.395132 
L 282.324389 31.395132 
L 282.324389 31.128161 
L 285.243453 31.128161 
L 285.243453 30.861191 
L 285.799465 30.861191 
L 285.799465 30.59422 
L 289.969557 30.59422 
L 289.969557 30.327249 
L 291.915599 30.327249 
L 291.915599 30.060278 
L 292.610615 30.060278 
L 292.610615 29.793307 
L 293.444633 29.793307 
L 293.444633 29.526337 
L 293.722639 29.526337 
L 293.722639 29.259366 
L 295.529679 29.259366 
L 295.529679 28.992395 
L 296.641703 28.992395 
L 296.641703 28.725424 
L 297.197715 28.725424 
L 297.197715 28.458453 
L 297.475721 28.458453 
L 297.475721 28.191483 
L 300.116779 28.191483 
L 300.116779 27.657541 
L 301.923819 27.657541 
L 301.923819 27.39057 
L 303.452853 27.39057 
L 303.452853 27.123599 
L 303.730859 27.123599 
L 303.730859 26.856629 
L 303.869862 26.856629 
L 303.869862 26.589658 
L 305.537898 26.589658 
L 305.537898 26.322687 
L 307.483941 26.322687 
L 307.483941 26.055716 
L 307.761947 26.055716 
L 307.761947 25.788745 
L 308.873972 25.788745 
L 308.873972 25.521775 
L 309.985996 25.521775 
L 309.985996 25.254804 
L 311.51503 25.254804 
L 311.51503 24.987833 
L 312.488051 24.987833 
L 312.488051 24.720862 
L 313.183066 24.720862 
L 313.183066 24.453891 
L 315.129109 24.453891 
L 315.129109 24.186921 
L 319.577207 24.186921 
L 319.577207 23.91995 
L 319.855213 23.91995 
L 319.855213 23.652979 
L 323.191286 23.652979 
L 323.191286 23.386008 
L 330.419445 23.386008 
L 330.419445 23.119037 
L 331.809475 23.119037 
L 331.809475 22.852067 
L 345.431775 22.852067 
L 345.431775 22.585096 
L 380.460544 22.585096 
L 380.460544 22.318125 
L 380.460544 22.318125 
" clip-path="url(#p2c8c4326ef)" style="fill: none; stroke: #ff0000; stroke-width: 1.5; stroke-linecap: square"/>
   </g>
   <g id="patch_3">
    <path d="M 43.78125 314.918125 
L 43.78125 22.318125 
" style="fill: none; stroke: #000000; stroke-width: 0.8; stroke-linejoin: miter; stroke-linecap: square"/>
   </g>
   <g id="patch_4">
    <path d="M 417.17125 314.918125 
L 417.17125 22.318125 
" style="fill: none; stroke: #000000; stroke-width: 0.8; stroke-linejoin: miter; stroke-linecap: square"/>
   </g>
   <g id="patch_5">
    <path d="M 43.78125 314.918125 
L 417.17125 314.918125 
" style="fill: none; stroke: #000000; stroke-width: 0.8; stroke-linejoin: miter; stroke-linecap: square"/>
   </g>
   <g id="patch_6">
    <path d="M 43.78125 22.318125 
L 417.17125 22.318125 
" style="fill: none; stroke: #000000; stroke-width: 0.8; stroke-linejoin: miter; stroke-linecap: square"/>
   </g>
   <g id="text_14">
    <!-- ECDF Comparison (NI) -->
    <g transform="translate(163.745937 16.318125) scale(0.12 -0.12)">
     <defs>
      <path id="DejaVuSans-45" d="M 628 4666 
L 3578 4666 
L 3578 4134 
L 1259 4134 
L 1259 2753 
L 3481 2753 
L 3481 2222 
L 1259 2222 
L 1259 531 
L 3634 531 
L 3634 0 
L 628 0 
L 628 4666 
z
" transform="scale(0.015625)"/>
      <path id="DejaVuSans-44" d="M 1259 4147 
L 1259 519 
L 2022 519 
Q 2988 519 3436 956 
Q 3884 1394 3884 2338 
Q 3884 3275 3436 3711 
Q 2988 4147 2022 4147 
L 1259 4147 
z
M 628 4666 
L 1925 4666 
Q 3281 4666 3915 4102 
Q 4550 3538 4550 2338 
Q 4550 1131 3912 565 
Q 3275 0 1925 0 
L 628 0 
L 628 4666 
z
" transform="scale(0.015625)"/>
      <path id="DejaVuSans-46" d="M 628 4666 
L 3309 4666 
L 3309 4134 
L 1259 4134 
L 1259 2759 
L 3109 2759 
L 3109 2228 
L 1259 2228 
L 1259 0 
L 628 0 
L 628 4666 
z
" transform="scale(0.015625)"/>
      <path id="DejaVuSans-70" d="M 1159 525 
L 1159 -1331 
L 581 -1331 
L 581 3500 
L 1159 3500 
L 1159 2969 
Q 1341 3281 1617 3432 
Q 1894 3584 2278 3584 
Q 2916 3584 3314 3078 
Q 3713 2572 3713 1747 
Q 3713 922 3314 415 
Q 2916 -91 2278 -91 
Q 1894 -91 1617 61 
Q 1341 213 1159 525 
z
M 3116 1747 
Q 3116 2381 2855 2742 
Q 2594 3103 2138 3103 
Q 1681 3103 1420 2742 
Q 1159 2381 1159 1747 
Q 1159 1113 1420 752 
Q 1681 391 2138 391 
Q 2594 391 2855 752 
Q 3116 1113 3116 1747 
z
" transform="scale(0.015625)"/>
      <path id="DejaVuSans-73" d="M 2834 3397 
L 2834 2853 
Q 2591 2978 2328 3040 
Q 2066 3103 1784 3103 
Q 1356 3103 1142 2972 
Q 928 2841 928 2578 
Q 928 2378 1081 2264 
Q 1234 2150 1697 2047 
L 1894 2003 
Q 2506 1872 2764 1633 
Q 3022 1394 3022 966 
Q 3022 478 2636 193 
Q 2250 -91 1575 -91 
Q 1294 -91 989 -36 
Q 684 19 347 128 
L 347 722 
Q 666 556 975 473 
Q 1284 391 1588 391 
Q 1994 391 2212 530 
Q 2431 669 2431 922 
Q 2431 1156 2273 1281 
Q 2116 1406 1581 1522 
L 1381 1569 
Q 847 1681 609 1914 
Q 372 2147 372 2553 
Q 372 3047 722 3315 
Q 1072 3584 1716 3584 
Q 2034 3584 2315 3537 
Q 2597 3491 2834 3397 
z
" transform="scale(0.015625)"/>
      <path id="DejaVuSans-6e" d="M 3513 2113 
L 3513 0 
L 2938 0 
L 2938 2094 
Q 2938 2591 2744 2837 
Q 2550 3084 2163 3084 
Q 1697 3084 1428 2787 
Q 1159 2491 1159 1978 
L 1159 0 
L 581 0 
L 581 3500 
L 1159 3500 
L 1159 2956 
Q 1366 3272 1645 3428 
Q 1925 3584 2291 3584 
Q 2894 3584 3203 3211 
Q 3513 2838 3513 2113 
z
" transform="scale(0.015625)"/>
      <path id="DejaVuSans-28" d="M 1984 4856 
Q 1566 4138 1362 3434 
Q 1159 2731 1159 2009 
Q 1159 1288 1364 580 
Q 1569 -128 1984 -844 
L 1484 -844 
Q 1016 -109 783 600 
Q 550 1309 550 2009 
Q 550 2706 781 3412 
Q 1013 4119 1484 4856 
L 1984 4856 
z
" transform="scale(0.015625)"/>
      <path id="DejaVuSans-29" d="M 513 4856 
L 1013 4856 
Q 1481 4119 1714 3412 
Q 1947 2706 1947 2009 
Q 1947 1309 1714 600 
Q 1481 -109 1013 -844 
L 513 -844 
Q 928 -128 1133 580 
Q 1338 1288 1338 2009 
Q 1338 2731 1133 3434 
Q 928 4138 513 4856 
z
" transform="scale(0.015625)"/>
     </defs>
     <use xlink:href="#DejaVuSans-45"/>
     <use xlink:href="#DejaVuSans-43" transform="translate(63.183594 0)"/>
     <use xlink:href="#DejaVuSans-44" transform="translate(133.007812 0)"/>
     <use xlink:href="#DejaVuSans-46" transform="translate(210.009766 0)"/>
     <use xlink:href="#DejaVuSans-20" transform="translate(267.529297 0)"/>
     <use xlink:href="#DejaVuSans-43" transform="translate(299.316406 0)"/>
     <use xlink:href="#DejaVuSans-6f" transform="translate(369.140625 0)"/>
     <use xlink:href="#DejaVuSans-6d" transform="translate(430.322266 0)"/>
     <use xlink:href="#DejaVuSans-70" transform="translate(527.734375 0)"/>
     <use xlink:href="#DejaVuSans-61" transform="translate(591.210938 0)"/>
     <use xlink:href="#DejaVuSans-72" transform="translate(652.490234 0)"/>
     <use xlink:href="#DejaVuSans-69" transform="translate(693.603516 0)"/>
     <use xlink:href="#DejaVuSans-73" transform="translate(721.386719 0)"/>
     <use xlink:href="#DejaVuSans-6f" transform="translate(773.486328 0)"/>
     <use xlink:href="#DejaVuSans-6e" transform="translate(834.667969 0)"/>
     <use xlink:href="#DejaVuSans-20" transform="translate(898.046875 0)"/>
     <use xlink:href="#DejaVuSans-28" transform="translate(929.833984 0)"/>
     <use xlink:href="#DejaVuSans-4e" transform="translate(968.847656 0)"/>
     <use xlink:href="#DejaVuSans-49" transform="translate(1043.652344 0)"/>
     <use xlink:href="#DejaVuSans-29" transform="translate(1073.144531 0)"/>
    </g>
   </g>
   <g id="legend_1">
    <g id="patch_7">
     <path d="M 50.78125 59.674375 
L 132.88125 59.674375 
Q 134.88125 59.674375 134.88125 57.674375 
L 134.88125 29.318125 
Q 134.88125 27.318125 132.88125 27.318125 
L 50.78125 27.318125 
Q 48.78125 27.318125 48.78125 29.318125 
L 48.78125 57.674375 
Q 48.78125 59.674375 50.78125 59.674375 
z
" style="fill: #ffffff; opacity: 0.8; stroke: #cccccc; stroke-linejoin: miter"/>
    </g>
    <g id="line2d_25">
     <path d="M 52.78125 35.416562 
L 62.78125 35.416562 
L 62.78125 35.416562 
L 72.78125 35.416562 
L 72.78125 35.416562 
" style="fill: none; stroke: #0000ff; stroke-width: 1.5; stroke-linecap: square"/>
    </g>
    <g id="text_15">
     <!-- Base Hole -->
     <g transform="translate(80.78125 38.916562) scale(0.1 -0.1)">
      <defs>
       <path id="DejaVuSans-42" d="M 1259 2228 
L 1259 519 
L 2272 519 
Q 2781 519 3026 730 
Q 3272 941 3272 1375 
Q 3272 1813 3026 2020 
Q 2781 2228 2272 2228 
L 1259 2228 
z
M 1259 4147 
L 1259 2741 
L 2194 2741 
Q 2656 2741 2882 2914 
Q 3109 3088 3109 3444 
Q 3109 3797 2882 3972 
Q 2656 4147 2194 4147 
L 1259 4147 
z
M 628 4666 
L 2241 4666 
Q 2963 4666 3353 4366 
Q 3744 4066 3744 3513 
Q 3744 3084 3544 2831 
Q 3344 2578 2956 2516 
Q 3422 2416 3680 2098 
Q 3938 1781 3938 1306 
Q 3938 681 3513 340 
Q 3088 0 2303 0 
L 628 0 
L 628 4666 
z
" transform="scale(0.015625)"/>
       <path id="DejaVuSans-48" d="M 628 4666 
L 1259 4666 
L 1259 2753 
L 3553 2753 
L 3553 4666 
L 4184 4666 
L 4184 0 
L 3553 0 
L 3553 2222 
L 1259 2222 
L 1259 0 
L 628 0 
L 628 4666 
z
" transform="scale(0.015625)"/>
      </defs>
      <use xlink:href="#DejaVuSans-42"/>
      <use xlink:href="#DejaVuSans-61" transform="translate(68.603516 0)"/>
      <use xlink:href="#DejaVuSans-73" transform="translate(129.882812 0)"/>
      <use xlink:href="#DejaVuSans-65" transform="translate(181.982422 0)"/>
      <use xlink:href="#DejaVuSans-20" transform="translate(243.505859 0)"/>
      <use xlink:href="#DejaVuSans-48" transform="translate(275.292969 0)"/>
      <use xlink:href="#DejaVuSans-6f" transform="translate(350.488281 0)"/>
      <use xlink:href="#DejaVuSans-6c" transform="translate(411.669922 0)"/>
      <use xlink:href="#DejaVuSans-65" transform="translate(439.453125 0)"/>
     </g>
    </g>
    <g id="line2d_26">
     <path d="M 52.78125 50.094687 
L 62.78125 50.094687 
L 62.78125 50.094687 
L 72.78125 50.094687 
L 72.78125 50.094687 
" style="fill: none; stroke: #ff0000; stroke-width: 1.5; stroke-linecap: square"/>
    </g>
    <g id="text_16">
     <!-- Twin Hole -->
     <g transform="translate(80.78125 53.594687) scale(0.1 -0.1)">
      <defs>
       <path id="DejaVuSans-54" d="M -19 4666 
L 3928 4666 
L 3928 4134 
L 2272 4134 
L 2272 0 
L 1638 0 
L 1638 4134 
L -19 4134 
L -19 4666 
z
" transform="scale(0.015625)"/>
       <path id="DejaVuSans-77" d="M 269 3500 
L 844 3500 
L 1563 769 
L 2278 3500 
L 2956 3500 
L 3675 769 
L 4391 3500 
L 4966 3500 
L 4050 0 
L 3372 0 
L 2619 2869 
L 1863 0 
L 1184 0 
L 269 3500 
z
" transform="scale(0.015625)"/>
      </defs>
      <use xlink:href="#DejaVuSans-54"/>
      <use xlink:href="#DejaVuSans-77" transform="translate(44.583984 0)"/>
      <use xlink:href="#DejaVuSans-69" transform="translate(126.371094 0)"/>
      <use xlink:href="#DejaVuSans-6e" transform="translate(154.154297 0)"/>
      <use xlink:href="#DejaVuSans-20" transform="translate(217.533203 0)"/>
      <use xlink:href="#DejaVuSans-48" transform="translate(249.320312 0)"/>
      <use xlink:href="#DejaVuSans-6f" transform="translate(324.515625 0)"/>
      <use xlink:href="#DejaVuSans-6c" transform="translate(385.697266 0)"/>
      <use xlink:href="#DejaVuSans-65" transform="translate(413.480469 0)"/>
     </g>
    </g>
   </g>
  </g>
 </g>
 <defs>
  <clipPath id="p2c8c4326ef">
   <rect x="43.78125" y="22.318125" width="373.39" height="292.6"/>
  </clipPath>
 </defs>
</svg>
