<?xml version="1.0" encoding="utf-8" standalone="no"?>
<!DOCTYPE svg PUBLIC "-//W3C//DTD SVG 1.1//EN"
  "http://www.w3.org/Graphics/SVG/1.1/DTD/svg11.dtd">
<svg xmlns:xlink="http://www.w3.org/1999/xlink" width="424.37125pt" height="352.474375pt" viewBox="0 0 424.37125 352.474375" xmlns="http://www.w3.org/2000/svg" version="1.1">
 <metadata>
  <rdf:RDF xmlns:dc="http://purl.org/dc/elements/1.1/" xmlns:cc="http://creativecommons.org/ns#" xmlns:rdf="http://www.w3.org/1999/02/22-rdf-syntax-ns#">
   <cc:Work>
    <dc:type rdf:resource="http://purl.org/dc/dcmitype/StillImage"/>
    <dc:date>2025-11-04T10:24:53.184274</dc:date>
    <dc:format>image/svg+xml</dc:format>
    <dc:creator>
     <cc:Agent>
      <dc:title>Matplotlib v3.10.6, https://matplotlib.org/</dc:title>
     </cc:Agent>
    </dc:creator>
   </cc:Work>
  </rdf:RDF>
 </metadata>
 <defs>
  <style type="text/css">*{stroke-linejoin: round; stroke-linecap: butt}</style>
 </defs>
 <g id="figure_1">
  <g id="patch_1">
   <path d="M 0 352.474375 
L 424.37125 352.474375 
L 424.37125 0 
L 0 0 
z
" style="fill: #ffffff"/>
  </g>
  <g id="axes_1">
   <g id="patch_2">
    <path d="M 43.78125 314.918125 
L 417.17125 314.918125 
L 417.17125 22.318125 
L 43.78125 22.318125 
z
" style="fill: #ffffff"/>
   </g>
   <g id="matplotlib.axis_1">
    <g id="xtick_1">
     <g id="line2d_1">
      <path d="M 100.111816 314.918125 
L 100.111816 22.318125 
" clip-path="url(#p7dd92b41df)" style="fill: none; stroke: #b0b0b0; stroke-opacity: 0.3; stroke-width: 0.8; stroke-linecap: square"/>
     </g>
     <g id="line2d_2">
      <defs>
       <path id="m466cd1a718" d="M 0 0 
L 0 3.5 
" style="stroke: #000000; stroke-width: 0.8"/>
      </defs>
      <g>
       <use xlink:href="#m466cd1a718" x="100.111816" y="314.918125" style="stroke: #000000; stroke-width: 0.8"/>
      </g>
     </g>
     <g id="text_1">
      <!-- 10 -->
      <g transform="translate(93.749316 329.516563) scale(0.1 -0.1)">
       <defs>
        <path id="DejaVuSans-31" d="M 794 531 
L 1825 531 
L 1825 4091 
L 703 3866 
L 703 4441 
L 1819 4666 
L 2450 4666 
L 2450 531 
L 3481 531 
L 3481 0 
L 794 0 
L 794 531 
z
" transform="scale(0.015625)"/>
        <path id="DejaVuSans-30" d="M 2034 4250 
Q 1547 4250 1301 3770 
Q 1056 3291 1056 2328 
Q 1056 1369 1301 889 
Q 1547 409 2034 409 
Q 2525 409 2770 889 
Q 3016 1369 3016 2328 
Q 3016 3291 2770 3770 
Q 2525 4250 2034 4250 
z
M 2034 4750 
Q 2819 4750 3233 4129 
Q 3647 3509 3647 2328 
Q 3647 1150 3233 529 
Q 2819 -91 2034 -91 
Q 1250 -91 836 529 
Q 422 1150 422 2328 
Q 422 3509 836 4129 
Q 1250 4750 2034 4750 
z
" transform="scale(0.015625)"/>
       </defs>
       <use xlink:href="#DejaVuSans-31"/>
       <use xlink:href="#DejaVuSans-30" transform="translate(63.623047 0)"/>
      </g>
     </g>
    </g>
    <g id="xtick_2">
     <g id="line2d_3">
      <path d="M 163.54178 314.918125 
L 163.54178 22.318125 
" clip-path="url(#p7dd92b41df)" style="fill: none; stroke: #b0b0b0; stroke-opacity: 0.3; stroke-width: 0.8; stroke-linecap: square"/>
     </g>
     <g id="line2d_4">
      <g>
       <use xlink:href="#m466cd1a718" x="163.54178" y="314.918125" style="stroke: #000000; stroke-width: 0.8"/>
      </g>
     </g>
     <g id="text_2">
      <!-- 20 -->
      <g transform="translate(157.17928 329.516563) scale(0.1 -0.1)">
       <defs>
        <path id="DejaVuSans-32" d="M 1228 531 
L 3431 531 
L 3431 0 
L 469 0 
L 469 531 
Q 828 903 1448 1529 
Q 2069 2156 2228 2338 
Q 2531 2678 2651 2914 
Q 2772 3150 2772 3378 
Q 2772 3750 2511 3984 
Q 2250 4219 1831 4219 
Q 1534 4219 1204 4116 
Q 875 4013 500 3803 
L 500 4441 
Q 881 4594 1212 4672 
Q 1544 4750 1819 4750 
Q 2544 4750 2975 4387 
Q 3406 4025 3406 3419 
Q 3406 3131 3298 2873 
Q 3191 2616 2906 2266 
Q 2828 2175 2409 1742 
Q 1991 1309 1228 531 
z
" transform="scale(0.015625)"/>
       </defs>
       <use xlink:href="#DejaVuSans-32"/>
       <use xlink:href="#DejaVuSans-30" transform="translate(63.623047 0)"/>
      </g>
     </g>
    </g>
    <g id="xtick_3">
     <g id="line2d_5">
      <path d="M 226.971744 314.918125 
L 226.971744 22.318125 
" clip-path="url(#p7dd92b41df)" style="fill: none; stroke: #b0b0b0; stroke-opacity: 0.3; stroke-width: 0.8; stroke-linecap: square"/>
     </g>
     <g id="line2d_6">
      <g>
       <use xlink:href="#m466cd1a718" x="226.971744" y="314.918125" style="stroke: #000000; stroke-width: 0.8"/>
      </g>
     </g>
     <g id="text_3">
      <!-- 30 -->
      <g transform="translate(220.609244 329.516563) scale(0.1 -0.1)">
       <defs>
        <path id="DejaVuSans-33" d="M 2597 2516 
Q 3050 2419 3304 2112 
Q 3559 1806 3559 1356 
Q 3559 666 3084 287 
Q 2609 -91 1734 -91 
Q 1441 -91 1130 -33 
Q 819 25 488 141 
L 488 750 
Q 750 597 1062 519 
Q 1375 441 1716 441 
Q 2309 441 2620 675 
Q 2931 909 2931 1356 
Q 2931 1769 2642 2001 
Q 2353 2234 1838 2234 
L 1294 2234 
L 1294 2753 
L 1863 2753 
Q 2328 2753 2575 2939 
Q 2822 3125 2822 3475 
Q 2822 3834 2567 4026 
Q 2313 4219 1838 4219 
Q 1578 4219 1281 4162 
Q 984 4106 628 3988 
L 628 4550 
Q 988 4650 1302 4700 
Q 1616 4750 1894 4750 
Q 2613 4750 3031 4423 
Q 3450 4097 3450 3541 
Q 3450 3153 3228 2886 
Q 3006 2619 2597 2516 
z
" transform="scale(0.015625)"/>
       </defs>
       <use xlink:href="#DejaVuSans-33"/>
       <use xlink:href="#DejaVuSans-30" transform="translate(63.623047 0)"/>
      </g>
     </g>
    </g>
    <g id="xtick_4">
     <g id="line2d_7">
      <path d="M 290.401709 314.918125 
L 290.401709 22.318125 
" clip-path="url(#p7dd92b41df)" style="fill: none; stroke: #b0b0b0; stroke-opacity: 0.3; stroke-width: 0.8; stroke-linecap: square"/>
     </g>
     <g id="line2d_8">
      <g>
       <use xlink:href="#m466cd1a718" x="290.401709" y="314.918125" style="stroke: #000000; stroke-width: 0.8"/>
      </g>
     </g>
     <g id="text_4">
      <!-- 40 -->
      <g transform="translate(284.039209 329.516563) scale(0.1 -0.1)">
       <defs>
        <path id="DejaVuSans-34" d="M 2419 4116 
L 825 1625 
L 2419 1625 
L 2419 4116 
z
M 2253 4666 
L 3047 4666 
L 3047 1625 
L 3713 1625 
L 3713 1100 
L 3047 1100 
L 3047 0 
L 2419 0 
L 2419 1100 
L 313 1100 
L 313 1709 
L 2253 4666 
z
" transform="scale(0.015625)"/>
       </defs>
       <use xlink:href="#DejaVuSans-34"/>
       <use xlink:href="#DejaVuSans-30" transform="translate(63.623047 0)"/>
      </g>
     </g>
    </g>
    <g id="xtick_5">
     <g id="line2d_9">
      <path d="M 353.831673 314.918125 
L 353.831673 22.318125 
" clip-path="url(#p7dd92b41df)" style="fill: none; stroke: #b0b0b0; stroke-opacity: 0.3; stroke-width: 0.8; stroke-linecap: square"/>
     </g>
     <g id="line2d_10">
      <g>
       <use xlink:href="#m466cd1a718" x="353.831673" y="314.918125" style="stroke: #000000; stroke-width: 0.8"/>
      </g>
     </g>
     <g id="text_5">
      <!-- 50 -->
      <g transform="translate(347.469173 329.516563) scale(0.1 -0.1)">
       <defs>
        <path id="DejaVuSans-35" d="M 691 4666 
L 3169 4666 
L 3169 4134 
L 1269 4134 
L 1269 2991 
Q 1406 3038 1543 3061 
Q 1681 3084 1819 3084 
Q 2600 3084 3056 2656 
Q 3513 2228 3513 1497 
Q 3513 744 3044 326 
Q 2575 -91 1722 -91 
Q 1428 -91 1123 -41 
Q 819 9 494 109 
L 494 744 
Q 775 591 1075 516 
Q 1375 441 1709 441 
Q 2250 441 2565 725 
Q 2881 1009 2881 1497 
Q 2881 1984 2565 2268 
Q 2250 2553 1709 2553 
Q 1456 2553 1204 2497 
Q 953 2441 691 2322 
L 691 4666 
z
" transform="scale(0.015625)"/>
       </defs>
       <use xlink:href="#DejaVuSans-35"/>
       <use xlink:href="#DejaVuSans-30" transform="translate(63.623047 0)"/>
      </g>
     </g>
    </g>
    <g id="text_6">
     <!-- FE -->
     <g transform="translate(224.441094 343.194687) scale(0.1 -0.1)">
      <defs>
       <path id="DejaVuSans-46" d="M 628 4666 
L 3309 4666 
L 3309 4134 
L 1259 4134 
L 1259 2759 
L 3109 2759 
L 3109 2228 
L 1259 2228 
L 1259 0 
L 628 0 
L 628 4666 
z
" transform="scale(0.015625)"/>
       <path id="DejaVuSans-45" d="M 628 4666 
L 3578 4666 
L 3578 4134 
L 1259 4134 
L 1259 2753 
L 3481 2753 
L 3481 2222 
L 1259 2222 
L 1259 531 
L 3634 531 
L 3634 0 
L 628 0 
L 628 4666 
z
" transform="scale(0.015625)"/>
      </defs>
      <use xlink:href="#DejaVuSans-46"/>
      <use xlink:href="#DejaVuSans-45" transform="translate(57.519531 0)"/>
     </g>
    </g>
   </g>
   <g id="matplotlib.axis_2">
    <g id="ytick_1">
     <g id="line2d_11">
      <path d="M 43.78125 314.918125 
L 417.17125 314.918125 
" clip-path="url(#p7dd92b41df)" style="fill: none; stroke: #b0b0b0; stroke-opacity: 0.3; stroke-width: 0.8; stroke-linecap: square"/>
     </g>
     <g id="line2d_12">
      <defs>
       <path id="m809dd06d42" d="M 0 0 
L -3.5 0 
" style="stroke: #000000; stroke-width: 0.8"/>
      </defs>
      <g>
       <use xlink:href="#m809dd06d42" x="43.78125" y="314.918125" style="stroke: #000000; stroke-width: 0.8"/>
      </g>
     </g>
     <g id="text_7">
      <!-- 0.0 -->
      <g transform="translate(20.878125 318.717344) scale(0.1 -0.1)">
       <defs>
        <path id="DejaVuSans-2e" d="M 684 794 
L 1344 794 
L 1344 0 
L 684 0 
L 684 794 
z
" transform="scale(0.015625)"/>
       </defs>
       <use xlink:href="#DejaVuSans-30"/>
       <use xlink:href="#DejaVuSans-2e" transform="translate(63.623047 0)"/>
       <use xlink:href="#DejaVuSans-30" transform="translate(95.410156 0)"/>
      </g>
     </g>
    </g>
    <g id="ytick_2">
     <g id="line2d_13">
      <path d="M 43.78125 256.398125 
L 417.17125 256.398125 
" clip-path="url(#p7dd92b41df)" style="fill: none; stroke: #b0b0b0; stroke-opacity: 0.3; stroke-width: 0.8; stroke-linecap: square"/>
     </g>
     <g id="line2d_14">
      <g>
       <use xlink:href="#m809dd06d42" x="43.78125" y="256.398125" style="stroke: #000000; stroke-width: 0.8"/>
      </g>
     </g>
     <g id="text_8">
      <!-- 0.2 -->
      <g transform="translate(20.878125 260.197344) scale(0.1 -0.1)">
       <use xlink:href="#DejaVuSans-30"/>
       <use xlink:href="#DejaVuSans-2e" transform="translate(63.623047 0)"/>
       <use xlink:href="#DejaVuSans-32" transform="translate(95.410156 0)"/>
      </g>
     </g>
    </g>
    <g id="ytick_3">
     <g id="line2d_15">
      <path d="M 43.78125 197.878125 
L 417.17125 197.878125 
" clip-path="url(#p7dd92b41df)" style="fill: none; stroke: #b0b0b0; stroke-opacity: 0.3; stroke-width: 0.8; stroke-linecap: square"/>
     </g>
     <g id="line2d_16">
      <g>
       <use xlink:href="#m809dd06d42" x="43.78125" y="197.878125" style="stroke: #000000; stroke-width: 0.8"/>
      </g>
     </g>
     <g id="text_9">
      <!-- 0.4 -->
      <g transform="translate(20.878125 201.677344) scale(0.1 -0.1)">
       <use xlink:href="#DejaVuSans-30"/>
       <use xlink:href="#DejaVuSans-2e" transform="translate(63.623047 0)"/>
       <use xlink:href="#DejaVuSans-34" transform="translate(95.410156 0)"/>
      </g>
     </g>
    </g>
    <g id="ytick_4">
     <g id="line2d_17">
      <path d="M 43.78125 139.358125 
L 417.17125 139.358125 
" clip-path="url(#p7dd92b41df)" style="fill: none; stroke: #b0b0b0; stroke-opacity: 0.3; stroke-width: 0.8; stroke-linecap: square"/>
     </g>
     <g id="line2d_18">
      <g>
       <use xlink:href="#m809dd06d42" x="43.78125" y="139.358125" style="stroke: #000000; stroke-width: 0.8"/>
      </g>
     </g>
     <g id="text_10">
      <!-- 0.6 -->
      <g transform="translate(20.878125 143.157344) scale(0.1 -0.1)">
       <defs>
        <path id="DejaVuSans-36" d="M 2113 2584 
Q 1688 2584 1439 2293 
Q 1191 2003 1191 1497 
Q 1191 994 1439 701 
Q 1688 409 2113 409 
Q 2538 409 2786 701 
Q 3034 994 3034 1497 
Q 3034 2003 2786 2293 
Q 2538 2584 2113 2584 
z
M 3366 4563 
L 3366 3988 
Q 3128 4100 2886 4159 
Q 2644 4219 2406 4219 
Q 1781 4219 1451 3797 
Q 1122 3375 1075 2522 
Q 1259 2794 1537 2939 
Q 1816 3084 2150 3084 
Q 2853 3084 3261 2657 
Q 3669 2231 3669 1497 
Q 3669 778 3244 343 
Q 2819 -91 2113 -91 
Q 1303 -91 875 529 
Q 447 1150 447 2328 
Q 447 3434 972 4092 
Q 1497 4750 2381 4750 
Q 2619 4750 2861 4703 
Q 3103 4656 3366 4563 
z
" transform="scale(0.015625)"/>
       </defs>
       <use xlink:href="#DejaVuSans-30"/>
       <use xlink:href="#DejaVuSans-2e" transform="translate(63.623047 0)"/>
       <use xlink:href="#DejaVuSans-36" transform="translate(95.410156 0)"/>
      </g>
     </g>
    </g>
    <g id="ytick_5">
     <g id="line2d_19">
      <path d="M 43.78125 80.838125 
L 417.17125 80.838125 
" clip-path="url(#p7dd92b41df)" style="fill: none; stroke: #b0b0b0; stroke-opacity: 0.3; stroke-width: 0.8; stroke-linecap: square"/>
     </g>
     <g id="line2d_20">
      <g>
       <use xlink:href="#m809dd06d42" x="43.78125" y="80.838125" style="stroke: #000000; stroke-width: 0.8"/>
      </g>
     </g>
     <g id="text_11">
      <!-- 0.8 -->
      <g transform="translate(20.878125 84.637344) scale(0.1 -0.1)">
       <defs>
        <path id="DejaVuSans-38" d="M 2034 2216 
Q 1584 2216 1326 1975 
Q 1069 1734 1069 1313 
Q 1069 891 1326 650 
Q 1584 409 2034 409 
Q 2484 409 2743 651 
Q 3003 894 3003 1313 
Q 3003 1734 2745 1975 
Q 2488 2216 2034 2216 
z
M 1403 2484 
Q 997 2584 770 2862 
Q 544 3141 544 3541 
Q 544 4100 942 4425 
Q 1341 4750 2034 4750 
Q 2731 4750 3128 4425 
Q 3525 4100 3525 3541 
Q 3525 3141 3298 2862 
Q 3072 2584 2669 2484 
Q 3125 2378 3379 2068 
Q 3634 1759 3634 1313 
Q 3634 634 3220 271 
Q 2806 -91 2034 -91 
Q 1263 -91 848 271 
Q 434 634 434 1313 
Q 434 1759 690 2068 
Q 947 2378 1403 2484 
z
M 1172 3481 
Q 1172 3119 1398 2916 
Q 1625 2713 2034 2713 
Q 2441 2713 2670 2916 
Q 2900 3119 2900 3481 
Q 2900 3844 2670 4047 
Q 2441 4250 2034 4250 
Q 1625 4250 1398 4047 
Q 1172 3844 1172 3481 
z
" transform="scale(0.015625)"/>
       </defs>
       <use xlink:href="#DejaVuSans-30"/>
       <use xlink:href="#DejaVuSans-2e" transform="translate(63.623047 0)"/>
       <use xlink:href="#DejaVuSans-38" transform="translate(95.410156 0)"/>
      </g>
     </g>
    </g>
    <g id="ytick_6">
     <g id="line2d_21">
      <path d="M 43.78125 22.318125 
L 417.17125 22.318125 
" clip-path="url(#p7dd92b41df)" style="fill: none; stroke: #b0b0b0; stroke-opacity: 0.3; stroke-width: 0.8; stroke-linecap: square"/>
     </g>
     <g id="line2d_22">
      <g>
       <use xlink:href="#m809dd06d42" x="43.78125" y="22.318125" style="stroke: #000000; stroke-width: 0.8"/>
      </g>
     </g>
     <g id="text_12">
      <!-- 1.0 -->
      <g transform="translate(20.878125 26.117344) scale(0.1 -0.1)">
       <use xlink:href="#DejaVuSans-31"/>
       <use xlink:href="#DejaVuSans-2e" transform="translate(63.623047 0)"/>
       <use xlink:href="#DejaVuSans-30" transform="translate(95.410156 0)"/>
      </g>
     </g>
    </g>
    <g id="text_13">
     <!-- Cumulative Probability -->
     <g transform="translate(14.798438 225.173594) rotate(-90) scale(0.1 -0.1)">
      <defs>
       <path id="DejaVuSans-43" d="M 4122 4306 
L 4122 3641 
Q 3803 3938 3442 4084 
Q 3081 4231 2675 4231 
Q 1875 4231 1450 3742 
Q 1025 3253 1025 2328 
Q 1025 1406 1450 917 
Q 1875 428 2675 428 
Q 3081 428 3442 575 
Q 3803 722 4122 1019 
L 4122 359 
Q 3791 134 3420 21 
Q 3050 -91 2638 -91 
Q 1578 -91 968 557 
Q 359 1206 359 2328 
Q 359 3453 968 4101 
Q 1578 4750 2638 4750 
Q 3056 4750 3426 4639 
Q 3797 4528 4122 4306 
z
" transform="scale(0.015625)"/>
       <path id="DejaVuSans-75" d="M 544 1381 
L 544 3500 
L 1119 3500 
L 1119 1403 
Q 1119 906 1312 657 
Q 1506 409 1894 409 
Q 2359 409 2629 706 
Q 2900 1003 2900 1516 
L 2900 3500 
L 3475 3500 
L 3475 0 
L 2900 0 
L 2900 538 
Q 2691 219 2414 64 
Q 2138 -91 1772 -91 
Q 1169 -91 856 284 
Q 544 659 544 1381 
z
M 1991 3584 
L 1991 3584 
z
" transform="scale(0.015625)"/>
       <path id="DejaVuSans-6d" d="M 3328 2828 
Q 3544 3216 3844 3400 
Q 4144 3584 4550 3584 
Q 5097 3584 5394 3201 
Q 5691 2819 5691 2113 
L 5691 0 
L 5113 0 
L 5113 2094 
Q 5113 2597 4934 2840 
Q 4756 3084 4391 3084 
Q 3944 3084 3684 2787 
Q 3425 2491 3425 1978 
L 3425 0 
L 2847 0 
L 2847 2094 
Q 2847 2600 2669 2842 
Q 2491 3084 2119 3084 
Q 1678 3084 1418 2786 
Q 1159 2488 1159 1978 
L 1159 0 
L 581 0 
L 581 3500 
L 1159 3500 
L 1159 2956 
Q 1356 3278 1631 3431 
Q 1906 3584 2284 3584 
Q 2666 3584 2933 3390 
Q 3200 3197 3328 2828 
z
" transform="scale(0.015625)"/>
       <path id="DejaVuSans-6c" d="M 603 4863 
L 1178 4863 
L 1178 0 
L 603 0 
L 603 4863 
z
" transform="scale(0.015625)"/>
       <path id="DejaVuSans-61" d="M 2194 1759 
Q 1497 1759 1228 1600 
Q 959 1441 959 1056 
Q 959 750 1161 570 
Q 1363 391 1709 391 
Q 2188 391 2477 730 
Q 2766 1069 2766 1631 
L 2766 1759 
L 2194 1759 
z
M 3341 1997 
L 3341 0 
L 2766 0 
L 2766 531 
Q 2569 213 2275 61 
Q 1981 -91 1556 -91 
Q 1019 -91 701 211 
Q 384 513 384 1019 
Q 384 1609 779 1909 
Q 1175 2209 1959 2209 
L 2766 2209 
L 2766 2266 
Q 2766 2663 2505 2880 
Q 2244 3097 1772 3097 
Q 1472 3097 1187 3025 
Q 903 2953 641 2809 
L 641 3341 
Q 956 3463 1253 3523 
Q 1550 3584 1831 3584 
Q 2591 3584 2966 3190 
Q 3341 2797 3341 1997 
z
" transform="scale(0.015625)"/>
       <path id="DejaVuSans-74" d="M 1172 4494 
L 1172 3500 
L 2356 3500 
L 2356 3053 
L 1172 3053 
L 1172 1153 
Q 1172 725 1289 603 
Q 1406 481 1766 481 
L 2356 481 
L 2356 0 
L 1766 0 
Q 1100 0 847 248 
Q 594 497 594 1153 
L 594 3053 
L 172 3053 
L 172 3500 
L 594 3500 
L 594 4494 
L 1172 4494 
z
" transform="scale(0.015625)"/>
       <path id="DejaVuSans-69" d="M 603 3500 
L 1178 3500 
L 1178 0 
L 603 0 
L 603 3500 
z
M 603 4863 
L 1178 4863 
L 1178 4134 
L 603 4134 
L 603 4863 
z
" transform="scale(0.015625)"/>
       <path id="DejaVuSans-76" d="M 191 3500 
L 800 3500 
L 1894 563 
L 2988 3500 
L 3597 3500 
L 2284 0 
L 1503 0 
L 191 3500 
z
" transform="scale(0.015625)"/>
       <path id="DejaVuSans-65" d="M 3597 1894 
L 3597 1613 
L 953 1613 
Q 991 1019 1311 708 
Q 1631 397 2203 397 
Q 2534 397 2845 478 
Q 3156 559 3463 722 
L 3463 178 
Q 3153 47 2828 -22 
Q 2503 -91 2169 -91 
Q 1331 -91 842 396 
Q 353 884 353 1716 
Q 353 2575 817 3079 
Q 1281 3584 2069 3584 
Q 2775 3584 3186 3129 
Q 3597 2675 3597 1894 
z
M 3022 2063 
Q 3016 2534 2758 2815 
Q 2500 3097 2075 3097 
Q 1594 3097 1305 2825 
Q 1016 2553 972 2059 
L 3022 2063 
z
" transform="scale(0.015625)"/>
       <path id="DejaVuSans-20" transform="scale(0.015625)"/>
       <path id="DejaVuSans-50" d="M 1259 4147 
L 1259 2394 
L 2053 2394 
Q 2494 2394 2734 2622 
Q 2975 2850 2975 3272 
Q 2975 3691 2734 3919 
Q 2494 4147 2053 4147 
L 1259 4147 
z
M 628 4666 
L 2053 4666 
Q 2838 4666 3239 4311 
Q 3641 3956 3641 3272 
Q 3641 2581 3239 2228 
Q 2838 1875 2053 1875 
L 1259 1875 
L 1259 0 
L 628 0 
L 628 4666 
z
" transform="scale(0.015625)"/>
       <path id="DejaVuSans-72" d="M 2631 2963 
Q 2534 3019 2420 3045 
Q 2306 3072 2169 3072 
Q 1681 3072 1420 2755 
Q 1159 2438 1159 1844 
L 1159 0 
L 581 0 
L 581 3500 
L 1159 3500 
L 1159 2956 
Q 1341 3275 1631 3429 
Q 1922 3584 2338 3584 
Q 2397 3584 2469 3576 
Q 2541 3569 2628 3553 
L 2631 2963 
z
" transform="scale(0.015625)"/>
       <path id="DejaVuSans-6f" d="M 1959 3097 
Q 1497 3097 1228 2736 
Q 959 2375 959 1747 
Q 959 1119 1226 758 
Q 1494 397 1959 397 
Q 2419 397 2687 759 
Q 2956 1122 2956 1747 
Q 2956 2369 2687 2733 
Q 2419 3097 1959 3097 
z
M 1959 3584 
Q 2709 3584 3137 3096 
Q 3566 2609 3566 1747 
Q 3566 888 3137 398 
Q 2709 -91 1959 -91 
Q 1206 -91 779 398 
Q 353 888 353 1747 
Q 353 2609 779 3096 
Q 1206 3584 1959 3584 
z
" transform="scale(0.015625)"/>
       <path id="DejaVuSans-62" d="M 3116 1747 
Q 3116 2381 2855 2742 
Q 2594 3103 2138 3103 
Q 1681 3103 1420 2742 
Q 1159 2381 1159 1747 
Q 1159 1113 1420 752 
Q 1681 391 2138 391 
Q 2594 391 2855 752 
Q 3116 1113 3116 1747 
z
M 1159 2969 
Q 1341 3281 1617 3432 
Q 1894 3584 2278 3584 
Q 2916 3584 3314 3078 
Q 3713 2572 3713 1747 
Q 3713 922 3314 415 
Q 2916 -91 2278 -91 
Q 1894 -91 1617 61 
Q 1341 213 1159 525 
L 1159 0 
L 581 0 
L 581 4863 
L 1159 4863 
L 1159 2969 
z
" transform="scale(0.015625)"/>
       <path id="DejaVuSans-79" d="M 2059 -325 
Q 1816 -950 1584 -1140 
Q 1353 -1331 966 -1331 
L 506 -1331 
L 506 -850 
L 844 -850 
Q 1081 -850 1212 -737 
Q 1344 -625 1503 -206 
L 1606 56 
L 191 3500 
L 800 3500 
L 1894 763 
L 2988 3500 
L 3597 3500 
L 2059 -325 
z
" transform="scale(0.015625)"/>
      </defs>
      <use xlink:href="#DejaVuSans-43"/>
      <use xlink:href="#DejaVuSans-75" transform="translate(69.824219 0)"/>
      <use xlink:href="#DejaVuSans-6d" transform="translate(133.203125 0)"/>
      <use xlink:href="#DejaVuSans-75" transform="translate(230.615234 0)"/>
      <use xlink:href="#DejaVuSans-6c" transform="translate(293.994141 0)"/>
      <use xlink:href="#DejaVuSans-61" transform="translate(321.777344 0)"/>
      <use xlink:href="#DejaVuSans-74" transform="translate(383.056641 0)"/>
      <use xlink:href="#DejaVuSans-69" transform="translate(422.265625 0)"/>
      <use xlink:href="#DejaVuSans-76" transform="translate(450.048828 0)"/>
      <use xlink:href="#DejaVuSans-65" transform="translate(509.228516 0)"/>
      <use xlink:href="#DejaVuSans-20" transform="translate(570.751953 0)"/>
      <use xlink:href="#DejaVuSans-50" transform="translate(602.539062 0)"/>
      <use xlink:href="#DejaVuSans-72" transform="translate(661.091797 0)"/>
      <use xlink:href="#DejaVuSans-6f" transform="translate(699.955078 0)"/>
      <use xlink:href="#DejaVuSans-62" transform="translate(761.136719 0)"/>
      <use xlink:href="#DejaVuSans-61" transform="translate(824.613281 0)"/>
      <use xlink:href="#DejaVuSans-62" transform="translate(885.892578 0)"/>
      <use xlink:href="#DejaVuSans-69" transform="translate(949.369141 0)"/>
      <use xlink:href="#DejaVuSans-6c" transform="translate(977.152344 0)"/>
      <use xlink:href="#DejaVuSans-69" transform="translate(1004.935547 0)"/>
      <use xlink:href="#DejaVuSans-74" transform="translate(1032.71875 0)"/>
      <use xlink:href="#DejaVuSans-79" transform="translate(1071.927734 0)"/>
     </g>
    </g>
   </g>
   <g id="line2d_23">
    <path d="M 60.753523 314.918125 
L 60.753523 314.651154 
L 62.180697 314.651154 
L 62.180697 314.384183 
L 62.688137 314.384183 
L 62.688137 314.117213 
L 66.367075 314.117213 
L 66.367075 313.850242 
L 67.508814 313.850242 
L 67.508814 313.583271 
L 69.173851 313.583271 
L 69.173851 313.3163 
L 69.475143 313.3163 
L 69.475143 313.049329 
L 69.938182 313.049329 
L 69.938182 312.782359 
L 70.141157 312.782359 
L 70.172872 311.981446 
L 70.299732 311.981446 
L 70.299732 311.714475 
L 70.743742 311.714475 
L 70.769114 311.180534 
L 70.870602 311.180534 
L 70.870602 310.646592 
L 71.365356 310.646592 
L 71.365356 310.379621 
L 71.504902 310.379621 
L 71.587361 309.84568 
L 71.66982 309.84568 
L 71.758622 308.510826 
L 71.885481 308.510826 
L 71.885481 308.243855 
L 72.113829 308.243855 
L 72.139201 307.709913 
L 72.392921 307.709913 
L 72.456351 307.175972 
L 72.805216 307.175972 
L 72.805216 306.909001 
L 73.090651 306.909001 
L 73.179453 306.108089 
L 73.223854 306.108089 
L 73.331685 305.574147 
L 73.534661 305.574147 
L 73.534661 305.040205 
L 73.731293 305.040205 
L 73.801066 304.506264 
L 73.85181 304.506264 
L 73.959641 302.637468 
L 73.97867 302.637468 
L 73.97867 302.103526 
L 74.099187 302.103526 
L 74.099187 301.836556 
L 74.23239 301.836556 
L 74.29582 301.035643 
L 74.390965 301.035643 
L 74.473424 299.700789 
L 74.54954 299.700789 
L 74.54954 299.433818 
L 74.6764 299.433818 
L 74.727144 298.632906 
L 74.80326 298.632906 
L 74.828632 298.098964 
L 75.031608 298.098964 
L 75.05698 296.49714 
L 75.24727 296.49714 
L 75.3107 295.963198 
L 75.378887 295.963198 
L 75.437559 294.895315 
L 75.500989 294.895315 
L 75.564419 294.361373 
L 75.634192 294.361373 
L 75.73568 293.026519 
L 75.747098 293.026519 
L 75.754709 292.225607 
L 75.875226 292.225607 
L 75.944999 290.890753 
L 76.040144 290.890753 
L 76.040144 290.623782 
L 76.389009 290.623782 
L 76.389009 290.356811 
L 76.680787 290.356811 
L 76.756903 289.555899 
L 76.826676 289.555899 
L 76.845705 289.021957 
L 76.959879 289.021957 
L 77.042338 287.954074 
L 77.143826 287.954074 
L 77.181884 287.420132 
L 77.277028 287.420132 
L 77.296057 286.886191 
L 77.467318 286.886191 
L 77.467318 286.085278 
L 77.721038 286.085278 
L 77.822526 284.483453 
L 77.974758 284.483453 
L 78.038188 283.682541 
L 78.088932 283.682541 
L 78.196763 283.148599 
L 78.291908 283.148599 
L 78.291908 282.881629 
L 78.437797 282.881629 
L 78.545628 281.546775 
L 78.577343 281.546775 
L 78.63443 280.745862 
L 78.770804 280.745862 
L 78.799348 280.211921 
L 78.970609 280.211921 
L 79.046724 279.677979 
L 79.129183 279.677979 
L 79.179927 279.144037 
L 79.243357 279.144037 
L 79.306787 278.076154 
L 79.370217 278.076154 
L 79.370217 277.542213 
L 79.497077 277.542213 
L 79.597931 276.7413 
L 79.623937 276.7413 
L 79.623937 276.474329 
L 79.776169 276.474329 
L 79.814227 275.940388 
L 80.012129 275.940388 
L 80.012129 275.673417 
L 80.258237 275.673417 
L 80.258237 275.139475 
L 80.385097 275.139475 
L 80.385097 274.605534 
L 80.702247 274.605534 
L 80.714933 274.071592 
L 80.955966 274.071592 
L 81.038425 273.537651 
L 81.082826 273.537651 
L 81.146256 273.003709 
L 81.254087 273.003709 
L 81.304831 272.202797 
L 81.45072 272.202797 
L 81.526836 271.668855 
L 81.590266 271.668855 
L 81.698097 270.867943 
L 81.783439 270.867943 
L 81.783439 270.600972 
L 81.907416 270.600972 
L 81.95816 270.06703 
L 82.027933 270.06703 
L 82.106767 269.266118 
L 82.605145 269.266118 
L 82.605145 268.732176 
L 82.852522 268.732176 
L 82.852522 268.465205 
L 83.061841 268.465205 
L 83.149375 267.664293 
L 83.493165 267.664293 
L 83.550252 267.130351 
L 83.64286 267.130351 
L 83.64286 266.86338 
L 83.7786 266.86338 
L 83.797629 266.062468 
L 83.937175 266.062468 
L 83.937175 265.528526 
L 84.127465 265.528526 
L 84.22261 264.994585 
L 84.463643 264.994585 
L 84.54902 264.460643 
L 84.58416 264.460643 
L 84.653933 263.926702 
L 84.768107 263.926702 
L 84.768107 263.659731 
L 84.907653 263.659731 
L 85.015484 262.591848 
L 85.047199 262.591848 
L 85.142344 261.256994 
L 85.269204 261.256994 
L 85.332634 260.723052 
L 85.459494 260.723052 
L 85.548296 259.92214 
L 85.776644 259.92214 
L 85.827388 259.388198 
L 85.998649 259.388198 
L 85.998649 259.121227 
L 86.157223 259.121227 
L 86.220653 258.053344 
L 86.550489 258.053344 
L 86.550489 257.786373 
L 86.791523 257.786373 
L 86.791523 257.519402 
L 87.172103 257.519402 
L 87.235533 256.184548 
L 87.415674 256.184548 
L 87.508282 255.383636 
L 87.749316 255.383636 
L 87.787374 254.849694 
L 88.085494 254.849694 
L 88.186982 254.315753 
L 88.223772 254.315753 
L 88.313842 253.781811 
L 88.401999 253.781811 
L 88.466074 252.980899 
L 88.567562 252.980899 
L 88.573187 252.446957 
L 88.757852 252.446957 
L 88.821282 251.913016 
L 88.948142 251.913016 
L 88.948142 251.646045 
L 89.138432 251.646045 
L 89.138432 251.379074 
L 89.265292 251.379074 
L 89.265292 251.112103 
L 89.392152 251.112103 
L 89.392152 250.845132 
L 89.595128 250.845132 
L 89.645872 250.311191 
L 90.013765 250.311191 
L 90.013765 250.04422 
L 90.153311 250.04422 
L 90.216741 249.510278 
L 90.267485 249.510278 
L 90.267485 249.243307 
L 90.724181 249.243307 
L 90.724181 248.442395 
L 90.914471 248.442395 
L 90.914471 248.175424 
L 91.168191 248.175424 
L 91.190391 247.641483 
L 91.295051 247.641483 
L 91.295051 247.374512 
L 91.48534 247.374512 
L 91.48534 247.107541 
L 91.67563 247.107541 
L 91.758089 246.039658 
L 91.92935 246.039658 
L 91.949014 245.238745 
L 92.11964 245.238745 
L 92.122177 244.704804 
L 92.2465 244.704804 
L 92.316907 243.903891 
L 92.43679 243.903891 
L 92.43679 243.636921 
L 92.56365 243.636921 
L 92.56365 243.36995 
L 93.13452 243.36995 
L 93.223322 242.569037 
L 93.578529 242.569037 
L 93.680017 241.768125 
L 93.832249 241.768125 
L 93.851278 240.967213 
L 94.263573 240.967213 
L 94.263573 240.700242 
L 94.422148 240.700242 
L 94.472892 239.899329 
L 94.593409 239.899329 
L 94.593409 239.632359 
L 95.005704 239.632359 
L 95.005704 239.365388 
L 95.354568 239.365388 
L 95.456056 238.297505 
L 95.481428 238.297505 
L 95.481428 238.030534 
L 95.608288 238.030534 
L 95.608288 237.763563 
L 95.735148 237.763563 
L 95.735148 237.496592 
L 96.020583 237.496592 
L 96.020583 237.229621 
L 96.306018 237.229621 
L 96.306018 236.69568 
L 96.496308 236.69568 
L 96.559738 236.161738 
L 96.623168 236.161738 
L 96.687322 235.627797 
L 96.833435 235.627797 
L 96.940317 235.093855 
L 97.067177 235.093855 
L 97.067177 234.826884 
L 97.213066 234.826884 
L 97.257467 234.292943 
L 97.384327 234.292943 
L 97.384327 233.49203 
L 97.511187 233.49203 
L 97.511187 233.225059 
L 97.758564 233.225059 
L 97.828337 232.424147 
L 97.891767 232.424147 
L 97.891767 232.157176 
L 98.15183 232.157176 
L 98.15183 231.890205 
L 98.272347 231.890205 
L 98.272347 231.623234 
L 98.462637 231.623234 
L 98.462637 231.356264 
L 98.589496 231.356264 
L 98.589496 231.089293 
L 98.805158 231.089293 
L 98.805158 230.822322 
L 98.925675 230.822322 
L 99.033506 230.28838 
L 99.052535 230.28838 
L 99.160366 229.487468 
L 99.201596 229.487468 
L 99.287226 228.953526 
L 99.579004 228.953526 
L 99.579004 228.686556 
L 99.820038 228.686556 
L 99.928845 228.152614 
L 99.984956 228.152614 
L 100.048386 227.618672 
L 100.102935 227.618672 
L 100.175246 227.084731 
L 100.238676 227.084731 
L 100.257705 226.550789 
L 100.365536 226.550789 
L 100.365536 226.283818 
L 100.663656 226.283818 
L 100.663656 226.016848 
L 101.190125 226.016848 
L 101.190125 225.215935 
L 101.589734 225.215935 
L 101.589734 224.948964 
L 102.078145 224.948964 
L 102.078145 224.415023 
L 102.458724 224.415023 
L 102.458724 224.148052 
L 102.585584 224.148052 
L 102.649014 223.080169 
L 102.775874 223.080169 
L 102.775874 222.813198 
L 102.959821 222.813198 
L 102.966164 222.012286 
L 103.093024 222.012286 
L 103.156454 220.677432 
L 103.327715 220.677432 
L 103.346744 220.14349 
L 103.473604 220.14349 
L 103.537034 219.609548 
L 103.644865 219.609548 
L 103.663894 219.075607 
L 103.917614 219.075607 
L 103.962014 218.541665 
L 104.060087 218.541665 
L 104.060087 218.274694 
L 104.171333 218.274694 
L 104.171333 217.740753 
L 104.602657 217.740753 
L 104.602657 217.473782 
L 104.910292 217.473782 
L 105.014952 216.93984 
L 105.173527 216.93984 
L 105.249643 215.871957 
L 105.566793 215.871957 
L 105.630223 215.071045 
L 105.820512 215.071045 
L 105.85857 214.537103 
L 105.991773 214.537103 
L 106.074232 213.46922 
L 106.334295 213.46922 
L 106.391382 212.668307 
L 106.708532 212.668307 
L 106.771962 212.134366 
L 107.071351 212.134366 
L 107.071351 211.867395 
L 107.406262 211.867395 
L 107.469692 211.333453 
L 107.596551 211.333453 
L 107.658713 210.532541 
L 107.824899 210.532541 
L 107.824899 210.26557 
L 107.945416 210.26557 
L 107.945416 209.998599 
L 108.065933 209.998599 
L 108.167421 209.197687 
L 108.801721 209.197687 
L 108.865151 208.396775 
L 108.992011 208.396775 
L 109.060515 206.79495 
L 109.180081 206.79495 
L 109.182301 205.994037 
L 109.326318 205.994037 
L 109.359904 205.460096 
L 109.515308 205.460096 
L 109.62631 204.392213 
L 109.68974 204.392213 
L 109.75317 203.858271 
L 110.00689 203.858271 
L 110.00689 203.5913 
L 110.162184 203.5913 
L 110.26061 203.057359 
L 110.32404 203.057359 
L 110.38747 202.256446 
L 110.51433 202.256446 
L 110.57776 201.455534 
L 110.64119 201.455534 
L 110.64119 201.188563 
L 111.202545 201.188563 
L 111.275489 200.654621 
L 111.415035 200.654621 
L 111.415035 200.12068 
L 111.592639 200.12068 
L 111.651841 199.586738 
L 111.782929 199.586738 
L 111.782929 199.319767 
L 111.909789 199.319767 
L 111.960533 198.785826 
L 112.036649 198.785826 
L 112.036649 198.518855 
L 112.353799 198.518855 
L 112.417229 197.184001 
L 112.607519 197.184001 
L 112.607519 196.91703 
L 112.924668 196.91703 
L 112.924668 196.650059 
L 113.051528 196.650059 
L 113.11813 195.849147 
L 113.305248 195.849147 
L 113.375021 195.048234 
L 113.749258 195.048234 
L 113.749258 194.781264 
L 114.446988 194.781264 
L 114.446988 194.514293 
L 114.567505 194.514293 
L 114.637277 193.44641 
L 115.081287 193.44641 
L 115.081287 193.179439 
L 115.284263 193.179439 
L 115.284263 192.912468 
L 115.398437 192.912468 
L 115.398437 192.645497 
L 115.969307 192.645497 
L 116.032737 191.577614 
L 116.172283 191.577614 
L 116.248399 191.043672 
L 116.349887 191.043672 
L 116.349887 190.776702 
L 116.476746 190.776702 
L 116.540176 190.24276 
L 116.920756 190.24276 
L 116.920756 189.975789 
L 117.333051 189.975789 
L 117.364766 189.174877 
L 117.491626 189.174877 
L 117.555056 188.640935 
L 117.650201 188.640935 
L 117.650201 188.373964 
L 117.808776 188.373964 
L 117.872206 187.306081 
L 118.087868 187.306081 
L 118.189356 186.77214 
L 118.252785 186.77214 
L 118.252785 186.505169 
L 118.569935 186.505169 
L 118.614336 185.971227 
L 118.760225 185.971227 
L 118.829998 185.170315 
L 119.077375 185.170315 
L 119.077375 184.903344 
L 119.394525 184.903344 
L 119.48967 184.369402 
L 119.584815 184.369402 
L 119.648245 183.835461 
L 119.762419 183.835461 
L 119.857134 181.966665 
L 119.965395 181.966665 
L 119.965395 181.699694 
L 120.409404 181.699694 
L 120.409404 181.432724 
L 120.726554 181.432724 
L 120.789984 180.898782 
L 120.980274 180.898782 
L 120.980274 180.09787 
L 121.195302 180.09787 
L 121.269047 179.563928 
L 121.424284 179.563928 
L 121.424284 179.296957 
L 121.551144 179.296957 
L 121.551144 179.029986 
L 121.978091 179.029986 
L 121.978091 178.763016 
L 122.185443 178.763016 
L 122.185443 177.695132 
L 122.375733 177.695132 
L 122.375733 177.161191 
L 122.77217 177.161191 
L 122.77217 176.89422 
L 123.010033 176.89422 
L 123.010033 176.627249 
L 123.232038 176.627249 
L 123.232038 176.360278 
L 123.390613 176.360278 
L 123.390613 176.093307 
L 123.517473 176.093307 
L 123.517473 175.826337 
L 123.761678 175.826337 
L 123.761678 175.559366 
L 124.088342 175.559366 
L 124.088342 175.292395 
L 124.405492 175.292395 
L 124.405492 174.758453 
L 124.659212 174.758453 
L 124.722642 173.69057 
L 124.976362 173.69057 
L 125.084193 173.156629 
L 125.166652 173.156629 
L 125.166652 172.889658 
L 126.054671 172.889658 
L 126.054671 172.622687 
L 126.181531 172.622687 
L 126.257647 172.088745 
L 126.498681 172.088745 
L 126.562111 171.554804 
L 126.625541 171.554804 
L 126.688971 171.020862 
L 126.752401 171.020862 
L 126.752401 170.753891 
L 127.469159 170.753891 
L 127.469159 170.486921 
L 127.786309 170.486921 
L 127.786309 170.21995 
L 127.95757 170.21995 
L 127.95757 169.952979 
L 128.21129 169.952979 
L 128.21129 169.686008 
L 128.46501 169.686008 
L 128.46501 169.419037 
L 128.617242 169.419037 
L 128.623585 168.885096 
L 128.78216 168.885096 
L 128.78216 168.351154 
L 129.162739 168.351154 
L 129.162739 168.084183 
L 129.467203 168.084183 
L 129.467203 167.817213 
L 129.657493 167.817213 
L 129.670179 167.283271 
L 130.367909 167.283271 
L 130.367909 167.0163 
L 130.480814 167.0163 
L 130.480814 166.749329 
L 130.908332 166.749329 
L 130.932435 166.215388 
L 131.129068 166.215388 
L 131.192498 165.414475 
L 131.623822 165.414475 
L 131.623822 165.147505 
L 131.947315 165.147505 
L 131.947315 164.880534 
L 132.270808 164.880534 
L 132.308866 164.346592 
L 132.587957 164.346592 
L 132.587957 164.079621 
L 132.702131 164.079621 
L 132.714817 163.278709 
L 133.158827 163.278709 
L 133.158827 163.011738 
L 133.349117 163.011738 
L 133.349117 162.744767 
L 133.539407 162.744767 
L 133.602837 162.210826 
L 134.41474 162.210826 
L 134.41474 161.943855 
L 134.868265 161.943855 
L 134.868265 161.676884 
L 135.061726 161.676884 
L 135.164526 161.142943 
L 135.499393 161.142943 
L 135.499393 160.875972 
L 135.753113 160.875972 
L 135.822886 160.075059 
L 136.070262 160.075059 
L 136.070262 159.808089 
L 136.203465 159.808089 
L 136.203465 159.541118 
L 136.393755 159.541118 
L 136.441328 159.007176 
L 136.977311 159.007176 
L 136.977311 158.740205 
L 137.091485 158.740205 
L 137.091485 158.473234 
L 137.281775 158.473234 
L 137.281775 157.939293 
L 137.617954 157.939293 
L 137.617954 157.672322 
L 137.916074 157.672322 
L 137.916074 157.405351 
L 138.486944 157.405351 
L 138.486944 157.13838 
L 138.930954 157.13838 
L 138.930954 156.87141 
L 139.444737 156.87141 
L 139.444737 156.604439 
L 139.692113 156.604439 
L 139.692113 156.337468 
L 139.919919 156.337468 
L 139.919919 156.070497 
L 140.453273 156.070497 
L 140.453273 155.803526 
L 140.643563 155.803526 
L 140.643563 155.536556 
L 140.770423 155.536556 
L 140.770423 155.269585 
L 140.960713 155.269585 
L 141.024143 154.735643 
L 141.214433 154.735643 
L 141.258834 154.201702 
L 141.404722 154.201702 
L 141.468152 153.66776 
L 141.531582 153.66776 
L 141.531582 153.400789 
L 141.893133 153.400789 
L 141.975592 152.599877 
L 142.165882 152.599877 
L 142.165882 152.332906 
L 142.292742 152.332906 
L 142.292742 151.798964 
L 142.483032 151.798964 
L 142.483032 151.531994 
L 142.736752 151.531994 
L 142.800182 149.396227 
L 143.244191 149.396227 
L 143.244191 148.862286 
L 143.434481 148.862286 
L 143.485225 148.328344 
L 144.068781 148.328344 
L 144.068781 148.061373 
L 144.259071 148.061373 
L 144.259071 147.794402 
L 144.430332 147.794402 
L 144.430332 147.527432 
L 144.59525 147.527432 
L 144.703081 146.99349 
L 144.766511 146.99349 
L 144.766511 146.726519 
L 144.893371 146.726519 
L 144.893371 145.925607 
L 145.46424 145.925607 
L 145.559385 145.391665 
L 145.71796 145.391665 
L 145.71796 145.124694 
L 146.430723 145.124694 
L 146.430723 144.857724 
L 147.668431 144.857724 
L 147.668431 144.590753 
L 147.98241 144.590753 
L 148.064869 143.255899 
L 148.382019 143.255899 
L 148.382019 142.988928 
L 148.572308 142.988928 
L 148.572308 142.454986 
L 149.016318 142.454986 
L 149.016318 142.188016 
L 149.396898 142.188016 
L 149.396898 141.921045 
L 149.523758 141.921045 
L 149.523758 141.654074 
L 150.158058 141.654074 
L 150.158058 141.387103 
L 150.475207 141.387103 
L 150.475207 141.120132 
L 150.665497 141.120132 
L 150.665497 140.853161 
L 150.919217 140.853161 
L 150.919217 140.586191 
L 151.426657 140.586191 
L 151.426657 140.31922 
L 151.553517 140.31922 
L 151.553517 140.052249 
L 151.870667 140.052249 
L 151.870667 139.785278 
L 152.042562 139.785278 
L 152.042562 139.518307 
L 152.885546 139.518307 
L 152.942633 138.717395 
L 153.012406 138.717395 
L 153.012406 138.450424 
L 153.827481 138.450424 
L 153.900425 137.916483 
L 154.154145 137.916483 
L 154.24929 137.382541 
L 155.219769 137.382541 
L 155.219769 137.11557 
L 155.739894 137.11557 
L 155.803324 136.581629 
L 155.866754 136.581629 
L 155.930184 136.047687 
L 156.120474 136.047687 
L 156.183904 135.513745 
L 156.247334 135.513745 
L 156.247334 135.246775 
L 157.325644 135.246775 
L 157.325644 134.979804 
L 157.642793 134.979804 
L 157.642793 134.712833 
L 158.474994 134.712833 
L 158.474994 134.445862 
L 159.634494 134.445862 
L 159.735982 133.911921 
L 159.862842 133.911921 
L 159.926272 133.111008 
L 159.989702 133.111008 
L 160.053132 132.310096 
L 160.103876 132.310096 
L 160.103876 132.043125 
L 160.571672 132.043125 
L 160.571672 131.776154 
L 160.687432 131.776154 
L 160.750862 131.242213 
L 160.877722 131.242213 
L 160.877722 130.975242 
L 161.321731 130.975242 
L 161.321731 130.4413 
L 161.575451 130.4413 
L 161.575451 130.174329 
L 162.019461 130.174329 
L 162.095577 129.640388 
L 162.526901 129.640388 
L 162.526901 129.373417 
L 162.653761 129.373417 
L 162.653761 129.106446 
L 162.97091 129.106446 
L 162.97091 128.839475 
L 163.47835 128.839475 
L 163.54178 128.305534 
L 163.73207 128.305534 
L 163.73207 128.038563 
L 164.17608 128.038563 
L 164.17608 127.771592 
L 164.36637 127.771592 
L 164.36637 127.504621 
L 164.620089 127.504621 
L 164.620089 127.237651 
L 165.381249 127.237651 
L 165.444679 126.703709 
L 165.825259 126.703709 
L 165.825259 126.436738 
L 166.205839 126.436738 
L 166.205839 125.902797 
L 166.396128 125.902797 
L 166.396128 125.635826 
L 166.776708 125.635826 
L 166.776708 125.368855 
L 167.157288 125.368855 
L 167.157288 125.101884 
L 167.639356 125.101884 
L 167.639356 124.834913 
L 167.918448 124.834913 
L 167.918448 124.567943 
L 168.172167 124.567943 
L 168.172167 124.034001 
L 169.187047 124.034001 
L 169.187047 123.76703 
L 169.377337 123.76703 
L 169.377337 123.500059 
L 169.694487 123.500059 
L 169.694487 123.233089 
L 170.138496 123.233089 
L 170.138496 122.966118 
L 170.645936 122.966118 
L 170.753767 122.432176 
L 170.772796 122.432176 
L 170.772796 122.165205 
L 171.787675 122.165205 
L 171.787675 121.898234 
L 172.739125 121.898234 
L 172.739125 121.631264 
L 173.119705 121.631264 
L 173.183135 121.097322 
L 173.436855 121.097322 
L 173.436855 120.56338 
L 173.880864 120.56338 
L 173.880864 120.029439 
L 174.493598 120.029439 
L 174.493598 119.762468 
L 174.642024 119.762468 
L 174.642024 119.495497 
L 175.086034 119.495497 
L 175.149464 118.961556 
L 175.847193 118.961556 
L 175.847193 118.694585 
L 176.652754 118.694585 
L 176.652754 118.427614 
L 176.836701 118.427614 
L 176.836701 118.160643 
L 177.813522 118.160643 
L 177.813522 117.893672 
L 178.701542 117.893672 
L 178.701542 117.626702 
L 179.082121 117.626702 
L 179.082121 117.359731 
L 179.266068 117.359731 
L 179.266068 117.09276 
L 180.033571 117.09276 
L 180.033571 116.825789 
L 180.664699 116.825789 
L 180.66787 116.291848 
L 181.55589 116.291848 
L 181.55589 115.490935 
L 181.74618 115.490935 
L 181.74618 114.956994 
L 182.12676 114.956994 
L 182.12676 114.690023 
L 182.25362 114.690023 
L 182.25362 114.423052 
L 182.86889 114.423052 
L 182.86889 114.156081 
L 183.160668 114.156081 
L 183.160668 113.88911 
L 183.522219 113.88911 
L 183.522219 113.62214 
L 183.966229 113.62214 
L 184.067717 113.088198 
L 184.346808 113.088198 
L 184.346808 112.821227 
L 185.107968 112.821227 
L 185.107968 112.554256 
L 185.488548 112.554256 
L 185.539292 112.020315 
L 186.059417 112.020315 
L 186.059417 111.753344 
L 186.439997 111.753344 
L 186.439997 111.486373 
L 186.947437 111.486373 
L 186.947437 111.219402 
L 187.328017 111.219402 
L 187.328017 110.952432 
L 187.581737 110.952432 
L 187.581737 110.685461 
L 188.723476 110.685461 
L 188.723476 109.617578 
L 189.040626 109.617578 
L 189.040626 109.350607 
L 189.548065 109.350607 
L 189.548065 108.816665 
L 189.738355 108.816665 
L 189.738355 108.549694 
L 189.928645 108.549694 
L 189.928645 108.282724 
L 191.133815 108.282724 
L 191.133815 108.015753 
L 191.768114 108.015753 
L 191.768114 107.748782 
L 191.894974 107.748782 
L 191.894974 107.481811 
L 192.148694 107.481811 
L 192.173115 106.94787 
L 192.973284 106.94787 
L 192.973284 106.680899 
L 193.290433 106.680899 
L 193.353863 106.146957 
L 193.861303 106.146957 
L 193.924733 105.613016 
L 194.470231 105.613016 
L 194.470231 105.346045 
L 195.256762 105.346045 
L 195.256762 105.079074 
L 195.383622 105.079074 
L 195.383622 104.812103 
L 195.573912 104.812103 
L 195.573912 104.545132 
L 195.700772 104.545132 
L 195.700772 104.011191 
L 195.827632 104.011191 
L 195.891062 103.477249 
L 196.144782 103.477249 
L 196.144782 103.210278 
L 196.335072 103.210278 
L 196.335072 102.943307 
L 196.461932 102.943307 
L 196.525362 102.409366 
L 196.842511 102.409366 
L 196.842511 102.142395 
L 197.349951 102.142395 
L 197.349951 101.875424 
L 198.301401 101.875424 
L 198.301401 101.608453 
L 198.87227 101.608453 
L 198.87227 101.341483 
L 199.57 101.341483 
L 199.57 101.074512 
L 199.69686 101.074512 
L 199.69686 100.807541 
L 201.174778 100.807541 
L 201.219179 100.006629 
L 202.234058 100.006629 
L 202.234058 99.739658 
L 202.360918 99.739658 
L 202.360918 99.472687 
L 202.678068 99.472687 
L 202.761173 98.938745 
L 203.248938 98.938745 
L 203.248938 98.671775 
L 205.488016 98.671775 
L 205.488016 98.404804 
L 205.871767 98.404804 
L 205.871767 98.137833 
L 206.166716 98.137833 
L 206.166716 97.870862 
L 206.991306 97.870862 
L 206.991306 97.603891 
L 208.703915 97.603891 
L 208.703915 97.336921 
L 210.670244 97.336921 
L 210.670244 97.06995 
L 210.854191 97.06995 
L 210.854191 96.802979 
L 211.367973 96.802979 
L 211.367973 96.536008 
L 212.002273 96.536008 
L 212.002273 96.002067 
L 212.192563 96.002067 
L 212.192563 95.468125 
L 213.207442 95.468125 
L 213.207442 95.201154 
L 213.397732 95.201154 
L 213.397732 94.934183 
L 213.841742 94.934183 
L 213.841742 94.667213 
L 213.968602 94.667213 
L 213.968602 94.133271 
L 214.920051 94.133271 
L 214.920051 93.8663 
L 216.63266 93.8663 
L 216.63266 93.599329 
L 217.070327 93.599329 
L 217.070327 93.332359 
L 218.852709 93.332359 
L 218.916139 92.798417 
L 219.042999 92.798417 
L 219.112772 92.264475 
L 219.296719 92.264475 
L 219.391864 91.730534 
L 219.550439 91.730534 
L 219.550439 91.463563 
L 219.867588 91.463563 
L 219.867588 91.196592 
L 220.184738 91.196592 
L 220.184738 90.929621 
L 220.311598 90.929621 
L 220.375028 90.39568 
L 220.438458 90.39568 
L 220.438458 90.128709 
L 221.516768 90.128709 
L 221.516768 89.861738 
L 221.852946 89.861738 
L 221.852946 89.594767 
L 223.381608 89.594767 
L 223.483096 88.793855 
L 223.863676 88.793855 
L 223.863676 88.259913 
L 224.180826 88.259913 
L 224.180826 87.992943 
L 224.878556 87.992943 
L 224.878556 87.459001 
L 225.195705 87.459001 
L 225.195705 87.19203 
L 226.090068 87.19203 
L 226.090068 86.925059 
L 227.415754 86.925059 
L 227.415754 86.391118 
L 227.542614 86.391118 
L 227.542614 86.124147 
L 227.796334 86.124147 
L 227.796334 85.857176 
L 228.430634 85.857176 
L 228.430634 85.590205 
L 229.064933 85.590205 
L 229.064933 85.323234 
L 229.445513 85.323234 
L 229.445513 85.056264 
L 229.826093 85.056264 
L 229.826093 84.789293 
L 231.221552 84.789293 
L 231.221552 84.522322 
L 231.728992 84.522322 
L 231.728992 84.255351 
L 232.363291 84.255351 
L 232.363291 83.98838 
L 232.680441 83.98838 
L 232.680441 83.72141 
L 232.870731 83.72141 
L 232.934161 83.187468 
L 233.885611 83.187468 
L 233.885611 82.920497 
L 234.012471 82.920497 
L 234.012471 82.653526 
L 234.45648 82.653526 
L 234.45648 82.386556 
L 235.737766 82.386556 
L 235.737766 81.852614 
L 237.247399 81.852614 
L 237.247399 81.585643 
L 237.437689 81.585643 
L 237.437689 81.318672 
L 237.615292 81.318672 
L 237.615292 80.784731 
L 238.896578 80.784731 
L 238.960008 80.250789 
L 239.340588 80.250789 
L 239.36596 79.716848 
L 239.594307 79.716848 
L 239.594307 79.449877 
L 239.848027 79.449877 
L 239.848027 79.182906 
L 240.36181 79.182906 
L 240.36181 78.915935 
L 240.653588 78.915935 
L 240.653588 78.648964 
L 240.926337 78.648964 
L 240.926337 78.381994 
L 241.180056 78.381994 
L 241.243486 77.581081 
L 242.480371 77.581081 
L 242.480371 77.31411 
L 243.209815 77.31411 
L 243.209815 76.780169 
L 243.400105 76.780169 
L 243.463535 76.246227 
L 243.653825 76.246227 
L 243.653825 75.979256 
L 244.034405 75.979256 
L 244.034405 75.712286 
L 244.224695 75.712286 
L 244.224695 75.178344 
L 244.414985 75.178344 
L 244.478415 74.644402 
L 244.541845 74.644402 
L 244.541845 74.377432 
L 244.819034 74.377432 
L 244.819034 74.110461 
L 245.810444 74.110461 
L 245.810444 73.84349 
L 246.000734 73.84349 
L 246.000734 73.576519 
L 246.254454 73.576519 
L 246.254454 73.309548 
L 248.131981 73.309548 
L 248.131981 73.042578 
L 248.943884 73.042578 
L 249.045372 72.508636 
L 249.489382 72.508636 
L 249.489382 72.241665 
L 249.806532 72.241665 
L 249.869962 71.707724 
L 250.631121 71.707724 
L 250.694551 71.173782 
L 251.201991 71.173782 
L 251.265421 70.105899 
L 252.2803 70.105899 
L 252.2803 69.838928 
L 252.420587 69.838928 
L 252.47059 69.304986 
L 252.9146 69.304986 
L 252.9146 69.038016 
L 254.817499 69.038016 
L 254.880929 68.504074 
L 255.007789 68.504074 
L 255.007789 68.237103 
L 256.656968 68.237103 
L 256.656968 67.703161 
L 258.150743 67.703161 
L 258.150743 67.436191 
L 258.559867 67.436191 
L 258.559867 67.16922 
L 259.828466 67.16922 
L 259.828466 66.902249 
L 260.399336 66.902249 
L 260.399336 66.635278 
L 261.414215 66.635278 
L 261.414215 66.368307 
L 261.541075 66.368307 
L 261.541075 66.101337 
L 261.693307 66.101337 
L 261.693307 65.834366 
L 263.190254 65.834366 
L 263.190254 65.567395 
L 263.317114 65.567395 
L 263.317114 65.300424 
L 263.443974 65.300424 
L 263.443974 65.033453 
L 264.141704 65.033453 
L 264.141704 64.766483 
L 264.268564 64.766483 
L 264.268564 64.499512 
L 264.966293 64.499512 
L 264.966293 64.232541 
L 265.188298 64.232541 
L 265.283443 63.698599 
L 265.537163 63.698599 
L 265.537163 63.431629 
L 266.488612 63.431629 
L 266.488612 63.164658 
L 266.71696 63.164658 
L 266.742332 62.630716 
L 266.869192 62.630716 
L 266.869192 62.363745 
L 267.165727 62.363745 
L 267.165727 62.096775 
L 267.757212 62.096775 
L 267.757212 61.829804 
L 268.074361 61.829804 
L 268.074361 61.562833 
L 268.581801 61.562833 
L 268.581801 61.028891 
L 268.962381 61.028891 
L 268.962381 60.761921 
L 269.406391 60.761921 
L 269.406391 60.49495 
L 269.78697 60.49495 
L 269.78697 60.227979 
L 271.05557 60.227979 
L 271.05557 59.961008 
L 271.537637 59.961008 
L 271.537637 59.694037 
L 272.451029 59.694037 
L 272.451029 59.427067 
L 273.719628 59.427067 
L 273.783058 58.893125 
L 273.846488 58.893125 
L 273.846488 58.626154 
L 274.100208 58.626154 
L 274.100208 58.359183 
L 274.227068 58.359183 
L 274.290498 57.825242 
L 275.178517 57.825242 
L 275.178517 57.2913 
L 275.521039 57.2913 
L 275.521039 57.024329 
L 276.193397 57.024329 
L 276.193397 56.757359 
L 276.827696 56.757359 
L 276.827696 56.490388 
L 278.096296 56.490388 
L 278.096296 56.223417 
L 279.364895 56.223417 
L 279.364895 55.956446 
L 281.420026 55.956446 
L 281.420026 55.689475 
L 281.648374 55.689475 
L 281.648374 55.422505 
L 282.092384 55.422505 
L 282.092384 55.155534 
L 282.346103 55.155534 
L 282.346103 54.888563 
L 283.234123 54.888563 
L 283.234123 54.621592 
L 283.424413 54.621592 
L 283.424413 54.354621 
L 283.741563 54.354621 
L 283.741563 54.087651 
L 284.122142 54.087651 
L 284.122142 53.82068 
L 284.946732 53.82068 
L 284.946732 53.553709 
L 285.707892 53.553709 
L 285.707892 53.286738 
L 287.039921 53.286738 
L 287.039921 53.019767 
L 287.166781 53.019767 
L 287.166781 52.752797 
L 287.67422 52.752797 
L 287.73765 52.218855 
L 288.62567 52.218855 
L 288.62567 51.951884 
L 289.323399 51.951884 
L 289.386829 51.417943 
L 289.767409 51.417943 
L 289.767409 50.884001 
L 290.401709 50.884001 
L 290.401709 50.61703 
L 291.226298 50.61703 
L 291.289728 50.083089 
L 291.69568 50.083089 
L 291.69568 49.816118 
L 291.892313 49.816118 
L 291.924028 49.282176 
L 293.890357 49.282176 
L 293.972816 48.481264 
L 294.017217 48.481264 
L 294.017217 48.214293 
L 295.476106 48.214293 
L 295.476106 47.947322 
L 296.554415 47.947322 
L 296.554415 47.680351 
L 299.586368 47.680351 
L 299.586368 47.41338 
L 300.106493 47.41338 
L 300.214324 46.879439 
L 300.487073 46.879439 
L 300.487073 46.612468 
L 301.882532 46.612468 
L 301.882532 46.345497 
L 303.341422 46.345497 
L 303.341422 46.078526 
L 303.690286 46.078526 
L 303.690286 45.811556 
L 305.94205 45.811556 
L 306.00548 45.277614 
L 307.591229 45.277614 
L 307.591229 45.010643 
L 307.870321 45.010643 
L 307.870321 44.743672 
L 308.796399 44.743672 
L 308.796399 44.476702 
L 310.001568 44.476702 
L 310.001568 44.209731 
L 310.388491 44.209731 
L 310.388491 43.94276 
L 310.692954 43.94276 
L 310.692954 43.675789 
L 312.285047 43.675789 
L 312.285047 43.141848 
L 313.490216 43.141848 
L 313.490216 42.874877 
L 313.617076 42.874877 
L 313.617076 42.607906 
L 315.393115 42.607906 
L 315.393115 42.340935 
L 315.773695 42.340935 
L 315.773695 42.073964 
L 316.065472 42.073964 
L 316.154274 41.540023 
L 317.232584 41.540023 
L 317.232584 41.273052 
L 317.549734 41.273052 
L 317.549734 41.006081 
L 318.374323 41.006081 
L 318.374323 40.73911 
L 319.706352 40.73911 
L 319.706352 40.47214 
L 320.150362 40.47214 
L 320.150362 40.205169 
L 320.530942 40.205169 
L 320.530942 39.938198 
L 321.038382 39.938198 
L 321.038382 39.671227 
L 322.814421 39.671227 
L 322.814421 39.404256 
L 323.004711 39.404256 
L 323.004711 39.137286 
L 323.131571 39.137286 
L 323.131571 38.870315 
L 326.239639 38.870315 
L 326.239639 38.603344 
L 331.314036 38.603344 
L 331.314036 38.336373 
L 331.567756 38.336373 
L 331.567756 38.069402 
L 333.978094 38.069402 
L 333.978094 37.802432 
L 334.358674 37.802432 
L 334.358674 37.535461 
L 334.485534 37.535461 
L 334.485534 37.26849 
L 335.297438 37.26849 
L 335.297438 37.001519 
L 335.817563 37.001519 
L 335.817563 36.200607 
L 336.451863 36.200607 
L 336.515293 35.399694 
L 336.578723 35.399694 
L 336.578723 35.132724 
L 336.832443 35.132724 
L 336.832443 34.865753 
L 337.657032 34.865753 
L 337.657032 34.598782 
L 338.608482 34.598782 
L 338.608482 34.331811 
L 338.798772 34.331811 
L 338.798772 34.06484 
L 339.350612 34.06484 
L 339.350612 33.79787 
L 340.003941 33.79787 
L 340.003941 33.530899 
L 340.955391 33.530899 
L 340.955391 33.263928 
L 342.794859 33.263928 
L 342.794859 32.996957 
L 343.873169 32.996957 
L 343.936599 32.463016 
L 345.585778 32.463016 
L 345.585778 31.929074 
L 348.757276 31.929074 
L 348.757276 31.662103 
L 350.279595 31.662103 
L 350.279595 31.395132 
L 352.816794 31.395132 
L 352.816794 31.128161 
L 353.768243 31.128161 
L 353.768243 30.861191 
L 354.113937 30.861191 
L 354.212253 30.327249 
L 354.909983 30.327249 
L 354.909983 30.060278 
L 355.798002 30.060278 
L 355.798002 29.793307 
L 355.924862 29.793307 
L 355.924862 29.526337 
L 356.939742 29.526337 
L 356.939742 29.259366 
L 358.208341 29.259366 
L 358.208341 28.992395 
L 359.15979 28.992395 
L 359.15979 28.725424 
L 361.823849 28.725424 
L 361.823849 28.458453 
L 365.629647 28.458453 
L 365.629647 28.191483 
L 366.073656 28.191483 
L 366.073656 27.924512 
L 366.581096 27.924512 
L 366.581096 27.657541 
L 367.849695 27.657541 
L 367.849695 27.39057 
L 369.435445 27.39057 
L 369.435445 27.123599 
L 369.752594 27.123599 
L 369.752594 26.856629 
L 370.260034 26.856629 
L 370.260034 26.589658 
L 370.513754 26.589658 
L 370.513754 26.322687 
L 371.845783 26.322687 
L 371.845783 26.055716 
L 372.099503 26.055716 
L 372.099503 25.788745 
L 373.938972 25.788745 
L 374.002402 25.254804 
L 376.603031 25.254804 
L 376.603031 24.987833 
L 376.72989 24.987833 
L 376.72989 24.720862 
L 377.99849 24.720862 
L 377.99849 24.453891 
L 379.013369 24.453891 
L 379.013369 24.186921 
L 380.028249 24.186921 
L 380.028249 23.91995 
L 381.931148 23.91995 
L 381.931148 23.652979 
L 382.882597 23.652979 
L 382.882597 23.386008 
L 385.419796 23.386008 
L 385.419796 23.119037 
L 387.512984 23.119037 
L 387.512984 22.852067 
L 389.542743 22.852067 
L 389.542743 22.585096 
L 400.198977 22.585096 
L 400.198977 22.318125 
L 400.198977 22.318125 
" clip-path="url(#p7dd92b41df)" style="fill: none; stroke: #0000ff; stroke-width: 1.5; stroke-linecap: square"/>
   </g>
   <g id="line2d_24">
    <path d="M 61.704972 314.918125 
L 61.704972 314.651154 
L 67.153606 314.651154 
L 67.153606 314.384183 
L 69.354626 314.384183 
L 69.354626 314.117213 
L 70.299732 314.117213 
L 70.299732 313.850242 
L 70.700797 313.850242 
L 70.700797 313.583271 
L 70.857916 313.583271 
L 70.902317 313.049329 
L 71.079921 313.049329 
L 71.079921 312.782359 
L 71.38388 312.782359 
L 71.38388 312.515388 
L 71.581018 312.515388 
L 71.676163 311.714475 
L 72.126515 311.714475 
L 72.234346 310.379621 
L 72.297776 310.379621 
L 72.367549 309.84568 
L 72.494409 309.84568 
L 72.551496 308.510826 
L 72.66567 308.510826 
L 72.767158 306.909001 
L 72.79253 306.909001 
L 72.887675 305.307176 
L 72.957448 305.307176 
L 73.033564 304.506264 
L 73.198482 304.506264 
L 73.287284 302.637468 
L 73.350714 302.637468 
L 73.407801 301.569585 
L 73.477574 301.569585 
L 73.551914 300.501702 
L 73.655177 300.501702 
L 73.72495 299.700789 
L 73.782037 299.700789 
L 73.882003 298.365935 
L 73.91524 298.365935 
L 74.023071 296.49714 
L 74.029414 296.49714 
L 74.130902 295.696227 
L 74.181646 295.696227 
L 74.276791 294.361373 
L 74.397308 294.361373 
L 74.498796 293.29349 
L 74.54954 293.29349 
L 74.61297 292.492578 
L 74.752516 292.492578 
L 74.777888 291.958636 
L 74.86669 291.958636 
L 74.911091 291.157724 
L 75.107724 291.157724 
L 75.209212 290.08984 
L 75.228241 290.08984 
L 75.323386 289.555899 
L 75.342415 289.555899 
L 75.437559 287.954074 
L 75.469274 287.954074 
L 75.532704 287.420132 
L 75.621506 287.420132 
L 75.722994 285.551337 
L 75.774176 285.551337 
L 75.774176 285.284366 
L 75.901175 285.284366 
L 76.008429 284.483453 
L 76.147975 284.483453 
L 76.160661 283.949512 
L 76.331922 283.949512 
L 76.43341 283.148599 
L 76.446096 283.148599 
L 76.49684 282.347687 
L 76.75056 282.347687 
L 76.858391 281.279804 
L 76.864734 281.279804 
L 76.972565 279.677979 
L 77.035995 279.677979 
L 77.118454 278.877067 
L 77.150169 278.877067 
L 77.251656 277.809183 
L 77.263587 277.809183 
L 77.3024 277.008271 
L 77.384859 277.008271 
L 77.448289 276.207359 
L 77.56783 276.207359 
L 77.600521 275.406446 
L 77.755572 275.406446 
L 77.854241 274.338563 
L 77.924014 274.338563 
L 78.025502 272.736738 
L 78.057217 272.736738 
L 78.133333 271.935826 
L 78.171391 271.935826 
L 78.279222 270.600972 
L 78.298251 270.600972 
L 78.382232 269.266118 
L 78.437797 269.266118 
L 78.532942 268.198234 
L 78.602715 268.198234 
L 78.66107 267.664293 
L 78.723232 267.664293 
L 78.799348 266.86338 
L 78.862778 266.86338 
L 78.88815 266.329439 
L 79.021352 266.329439 
L 79.072096 265.795497 
L 79.151807 265.795497 
L 79.243357 264.727614 
L 79.294101 264.727614 
L 79.401932 263.926702 
L 79.420961 263.926702 
L 79.471705 262.858818 
L 79.535135 262.858818 
L 79.642966 262.324877 
L 79.649309 262.324877 
L 79.755871 261.256994 
L 79.763483 261.256994 
L 79.763483 260.990023 
L 80.004517 260.990023 
L 80.004517 260.723052 
L 80.125034 260.723052 
L 80.213836 259.655169 
L 80.239208 259.655169 
L 80.347039 259.121227 
L 80.429498 259.121227 
L 80.5183 258.320315 
L 80.613445 258.320315 
L 80.683218 257.252432 
L 80.727619 257.252432 
L 80.784705 256.71849 
L 80.87985 256.71849 
L 80.924251 256.184548 
L 81.095512 256.184548 
L 81.146256 255.116665 
L 81.223387 255.116665 
L 81.3061 254.582724 
L 81.368261 254.582724 
L 81.444377 254.048782 
L 81.621981 254.048782 
L 81.621981 253.781811 
L 81.736155 253.781811 
L 81.818614 252.980899 
L 81.913759 252.980899 
L 82.02159 252.179986 
L 82.034276 252.179986 
L 82.034276 251.913016 
L 82.14845 251.913016 
L 82.243595 251.379074 
L 82.307025 251.379074 
L 82.332397 250.845132 
L 82.554401 250.845132 
L 82.554401 250.578161 
L 82.687604 250.578161 
L 82.744691 249.510278 
L 82.808121 249.510278 
L 82.907072 248.709366 
L 82.947667 248.709366 
L 83.049155 247.908453 
L 83.214073 247.908453 
L 83.214073 247.641483 
L 83.328247 247.641483 
L 83.39802 247.107541 
L 83.505851 247.107541 
L 83.600996 246.039658 
L 83.644763 246.039658 
L 83.734199 244.704804 
L 83.899117 244.704804 
L 84.000605 243.636921 
L 84.171866 243.636921 
L 84.190895 243.102979 
L 84.31934 243.102979 
L 84.31934 242.836008 
L 84.622218 242.836008 
L 84.622218 242.569037 
L 84.913996 242.569037 
L 84.952054 241.768125 
L 85.059885 241.768125 
L 85.105555 241.234183 
L 85.21846 241.234183 
L 85.313605 240.700242 
L 85.402407 240.700242 
L 85.497552 240.1663 
L 85.649784 240.1663 
L 85.744929 239.098417 
L 85.778166 239.098417 
L 85.859103 238.297505 
L 86.004992 238.297505 
L 86.004992 238.030534 
L 86.201624 238.030534 
L 86.201624 237.763563 
L 86.312817 237.763563 
L 86.312817 237.496592 
L 86.493402 237.496592 
L 86.525117 236.962651 
L 86.620262 236.962651 
L 86.709064 236.428709 
L 86.988156 236.428709 
L 87.095987 235.894767 
L 87.140388 235.894767 
L 87.216504 235.093855 
L 87.324335 235.093855 
L 87.337021 234.559913 
L 87.457538 234.559913 
L 87.530386 234.025972 
L 87.723944 234.025972 
L 87.723944 233.49203 
L 87.977663 233.49203 
L 87.977663 233.225059 
L 88.193325 233.225059 
L 88.294813 232.691118 
L 88.396301 232.691118 
L 88.396301 232.424147 
L 88.54219 232.424147 
L 88.624649 231.890205 
L 88.656364 231.890205 
L 88.73248 231.356264 
L 88.941799 231.356264 
L 88.941799 231.089293 
L 89.373123 231.089293 
L 89.483427 230.555351 
L 89.595128 230.555351 
L 89.595128 230.28838 
L 89.779074 230.28838 
L 89.798103 229.754439 
L 90.007422 229.754439 
L 90.077195 228.953526 
L 90.17234 228.953526 
L 90.273828 228.152614 
L 90.2992 228.152614 
L 90.400688 227.351702 
L 90.508519 227.351702 
L 90.599858 226.550789 
L 90.660751 226.550789 
L 90.768582 225.749877 
L 90.812983 225.749877 
L 90.901785 224.148052 
L 90.965215 224.148052 
L 91.028645 223.61411 
L 91.155505 223.61411 
L 91.155505 223.34714 
L 91.288708 223.34714 
L 91.390196 222.813198 
L 91.402882 222.813198 
L 91.459968 222.012286 
L 91.595709 222.012286 
L 91.595709 221.745315 
L 91.713688 221.745315 
L 91.751746 221.211373 
L 91.913691 221.211373 
L 91.99278 220.410461 
L 92.062553 220.410461 
L 92.170384 219.342578 
L 92.2465 219.342578 
L 92.30993 218.541665 
L 92.417761 218.541665 
L 92.417761 218.274694 
L 92.718842 218.274694 
L 92.804684 217.473782 
L 92.893486 217.473782 
L 92.925201 216.67287 
L 93.039375 216.67287 
L 93.121834 215.871957 
L 93.470698 215.871957 
L 93.470698 215.604986 
L 93.591215 215.604986 
L 93.591215 215.338016 
L 93.756133 215.338016 
L 93.756133 215.071045 
L 93.895679 215.071045 
L 93.914708 214.537103 
L 94.136713 214.537103 
L 94.238201 213.46922 
L 94.32066 213.46922 
L 94.32066 213.202249 
L 94.441177 213.202249 
L 94.523636 212.668307 
L 94.57438 212.668307 
L 94.57438 212.401337 
L 94.760864 212.401337 
L 94.840786 211.600424 
L 94.942274 211.600424 
L 94.993018 210.799512 
L 95.195993 210.799512 
L 95.195993 210.532541 
L 95.386283 210.532541 
L 95.392626 209.998599 
L 95.620974 209.998599 
L 95.620974 209.731629 
L 96.109385 209.731629 
L 96.166472 209.197687 
L 96.312361 209.197687 
L 96.413849 208.396775 
L 96.578767 208.396775 
L 96.680255 207.862833 
L 96.692941 207.862833 
L 96.705627 207.328891 
L 96.832486 207.328891 
L 96.933974 206.261008 
L 96.94666 206.261008 
L 97.003747 205.460096 
L 97.079863 205.460096 
L 97.149636 204.926154 
L 97.20038 204.926154 
L 97.244781 204.392213 
L 97.346269 204.392213 
L 97.447757 203.858271 
L 97.485815 203.858271 
L 97.593646 203.324329 
L 97.695134 203.324329 
L 97.790279 202.256446 
L 97.866395 202.256446 
L 97.96154 201.722505 
L 97.980569 201.722505 
L 98.037656 200.921592 
L 98.183545 200.921592 
L 98.253318 200.12068 
L 98.335777 200.12068 
L 98.367492 199.586738 
L 98.46898 199.586738 
L 98.564125 198.251884 
L 98.621211 198.251884 
L 98.621211 197.984913 
L 98.83053 197.984913 
L 98.912989 196.91703 
L 99.001791 196.91703 
L 99.02082 196.383089 
L 99.236736 196.383089 
L 99.236736 196.116118 
L 99.376028 196.116118 
L 99.382371 195.582176 
L 99.547289 195.582176 
L 99.648777 194.781264 
L 99.67288 194.781264 
L 99.680492 194.247322 
L 99.864439 194.247322 
L 99.864439 193.980351 
L 99.978613 193.980351 
L 100.059364 193.179439 
L 100.09913 193.179439 
L 100.206961 191.844585 
L 100.283077 191.844585 
L 100.35285 191.310643 
L 100.467023 191.310643 
L 100.555825 190.776702 
L 100.860289 190.776702 
L 100.898347 190.24276 
L 101.171096 190.24276 
L 101.171096 189.975789 
L 101.374072 189.975789 
L 101.462874 189.441848 
L 101.894198 189.441848 
L 101.906884 188.907906 
L 102.059116 188.907906 
L 102.097174 188.373964 
L 102.262091 188.373964 
L 102.287463 187.840023 
L 102.439695 187.840023 
L 102.515811 187.306081 
L 102.826618 187.306081 
L 102.928106 186.77214 
L 103.10571 186.77214 
L 103.124739 186.238198 
L 103.226227 186.238198 
L 103.257942 185.437286 
L 103.340401 185.437286 
L 103.340401 185.170315 
L 103.682923 185.170315 
L 103.74001 184.636373 
L 103.938545 184.636373 
L 104.044473 184.102432 
L 104.120589 184.102432 
L 104.120589 183.835461 
L 104.254427 183.835461 
L 104.254427 183.56849 
L 104.374309 183.56849 
L 104.475797 183.034548 
L 104.589971 183.034548 
L 104.67243 181.966665 
L 104.780261 181.966665 
L 104.780261 181.699694 
L 105.072039 181.699694 
L 105.135469 180.898782 
L 105.236957 180.898782 
L 105.294044 180.36484 
L 105.363817 180.36484 
L 105.446276 179.830899 
L 105.516049 179.830899 
L 105.516049 179.563928 
L 105.706339 179.563928 
L 105.706339 179.296957 
L 105.998116 179.296957 
L 105.998116 179.029986 
L 106.373833 179.029986 
L 106.442126 178.496045 
L 106.505556 178.496045 
L 106.5563 177.962103 
L 106.995415 177.962103 
L 107.038368 177.161191 
L 107.12717 177.161191 
L 107.12717 176.89422 
L 107.321583 176.89422 
L 107.349175 176.093307 
L 107.514092 176.093307 
L 107.571179 175.292395 
L 107.653638 175.292395 
L 107.653638 175.025424 
L 107.774155 175.025424 
L 107.831242 174.491483 
L 108.110334 174.491483 
L 108.110334 174.224512 
L 108.5036 174.224512 
L 108.586059 173.69057 
L 108.643146 173.69057 
L 108.725605 173.156629 
L 108.814407 173.156629 
L 108.814407 172.889658 
L 109.017383 172.889658 
L 109.017383 172.622687 
L 109.429677 172.622687 
L 109.518479 171.821775 
L 109.683397 171.821775 
L 109.683397 171.554804 
L 109.899059 171.554804 
L 109.924431 171.020862 
L 110.178151 171.020862 
L 110.178151 170.753891 
L 110.438214 170.753891 
L 110.438214 170.486921 
L 110.679248 170.486921 
L 110.749021 169.952979 
L 110.812451 169.952979 
L 110.812451 169.686008 
L 110.996398 169.686008 
L 111.085199 168.351154 
L 111.174001 168.351154 
L 111.174001 168.084183 
L 111.300861 168.084183 
L 111.345262 167.550242 
L 111.833673 167.550242 
L 111.916132 166.749329 
L 112.239625 166.749329 
L 112.239625 166.482359 
L 112.372828 166.482359 
L 112.46163 165.948417 
L 112.512374 165.948417 
L 112.607519 165.147505 
L 112.632891 165.147505 
L 112.632891 164.880534 
L 113.127644 164.880534 
L 113.127644 164.613563 
L 113.666799 164.613563 
L 113.666799 164.346592 
L 113.825374 164.346592 
L 113.825374 164.079621 
L 113.939548 164.079621 
L 113.939548 163.812651 
L 114.072751 163.812651 
L 114.167896 163.011738 
L 114.351843 163.011738 
L 114.434302 162.210826 
L 114.561162 162.210826 
L 114.573848 161.409913 
L 115.128479 161.409913 
L 115.233519 160.875972 
L 115.258891 160.875972 
L 115.322321 159.274147 
L 115.525297 159.274147 
L 115.525297 159.007176 
L 115.772674 159.007176 
L 115.772674 158.740205 
L 115.91222 158.740205 
L 115.91222 158.206264 
L 116.064452 158.206264 
L 116.146911 157.405351 
L 116.299143 157.405351 
L 116.35623 156.604439 
L 116.552862 156.604439 
L 116.641664 155.803526 
L 116.749495 155.803526 
L 116.755838 155.269585 
L 116.870012 155.269585 
L 116.870012 155.002614 
L 117.029856 155.002614 
L 117.029856 154.735643 
L 117.14847 154.735643 
L 117.250592 154.201702 
L 117.402824 154.201702 
L 117.47894 153.66776 
L 117.713631 153.66776 
L 117.713631 153.400789 
L 117.85952 153.400789 
L 117.903921 152.599877 
L 118.208384 152.599877 
L 118.208384 152.332906 
L 118.430389 152.332906 
L 118.430389 152.065935 
L 118.85537 152.065935 
L 118.931486 151.265023 
L 119.210578 151.265023 
L 119.210578 150.998052 
L 119.768762 150.998052 
L 119.838535 150.19714 
L 119.93368 150.19714 
L 119.93368 149.930169 
L 120.35866 149.930169 
L 120.35866 149.663198 
L 120.555293 149.663198 
L 120.637752 149.129256 
L 120.707525 149.129256 
L 120.707525 148.862286 
L 121.018332 148.862286 
L 121.037361 148.328344 
L 121.202279 148.328344 
L 121.202279 148.061373 
L 121.544801 148.061373 
L 121.544801 147.794402 
L 121.728748 147.794402 
L 121.779491 146.99349 
L 121.854339 146.99349 
L 121.952021 146.192578 
L 122.064926 146.192578 
L 122.096641 145.391665 
L 123.035405 145.391665 
L 123.143236 144.857724 
L 123.25741 144.857724 
L 123.25741 144.590753 
L 123.758506 144.590753 
L 123.847308 144.056811 
L 123.917081 144.056811 
L 123.993197 143.52287 
L 124.094685 143.52287 
L 124.138677 142.988928 
L 124.354748 142.988928 
L 124.354748 142.721957 
L 124.652869 142.721957 
L 124.652869 142.454986 
L 124.862188 142.454986 
L 124.970019 141.654074 
L 125.547231 141.654074 
L 125.547231 141.387103 
L 125.75655 141.387103 
L 125.75655 141.120132 
L 125.88341 141.120132 
L 125.991241 140.586191 
L 126.422565 140.586191 
L 126.430874 140.052249 
L 126.58114 140.052249 
L 126.663599 139.518307 
L 126.796802 139.518307 
L 126.796802 139.251337 
L 127.044179 139.251337 
L 127.044179 138.984366 
L 127.173576 138.984366 
L 127.221782 138.450424 
L 127.285212 138.450424 
L 127.374014 137.916483 
L 127.500874 137.916483 
L 127.526246 137.382541 
L 127.64042 137.382541 
L 127.64042 137.11557 
L 127.798995 137.11557 
L 127.798995 136.848599 
L 128.185918 136.848599 
L 128.192261 136.314658 
L 128.382551 136.314658 
L 128.415205 135.780716 
L 128.541126 135.780716 
L 128.629928 135.246775 
L 128.744102 135.246775 
L 128.744102 134.979804 
L 128.991478 134.979804 
L 128.991478 134.712833 
L 129.257884 134.712833 
L 129.257884 134.445862 
L 129.498918 134.445862 
L 129.562348 133.911921 
L 129.860469 133.911921 
L 129.860469 133.377979 
L 130.164933 133.377979 
L 130.164933 133.111008 
L 130.488426 133.111008 
L 130.488426 132.844037 
L 130.608943 132.844037 
L 130.627972 132.310096 
L 130.780203 132.310096 
L 130.780203 132.043125 
L 131.293986 132.043125 
L 131.293986 131.776154 
L 131.801426 131.776154 
L 131.801426 131.509183 
L 132.027871 131.509183 
L 132.080518 130.975242 
L 132.201035 130.975242 
L 132.239093 130.4413 
L 132.72116 130.4413 
L 132.72116 130.174329 
L 133.089054 130.174329 
L 133.089054 129.907359 
L 133.342774 129.907359 
L 133.450605 129.373417 
L 133.488663 129.373417 
L 133.558436 128.572505 
L 134.141992 128.572505 
L 134.141992 128.305534 
L 134.509885 128.305534 
L 134.509885 128.038563 
L 134.674803 128.038563 
L 134.674803 127.771592 
L 134.846064 127.771592 
L 134.846064 127.504621 
L 135.184463 127.504621 
L 135.264702 126.97068 
L 135.727741 126.97068 
L 135.727741 126.703709 
L 135.911688 126.703709 
L 135.924374 125.635826 
L 136.920224 125.635826 
L 136.920224 125.368855 
L 137.080385 125.368855 
L 137.080385 125.101884 
L 137.262746 125.101884 
L 137.300804 124.567943 
L 138.258596 124.567943 
L 138.258596 124.300972 
L 138.779698 124.300972 
L 138.823123 123.76703 
L 138.981698 123.76703 
L 138.981698 123.500059 
L 139.742857 123.500059 
L 139.742857 123.233089 
L 140.694307 123.233089 
L 140.694307 122.966118 
L 141.334462 122.966118 
L 141.334462 122.699147 
L 141.512553 122.699147 
L 141.512553 122.432176 
L 142.736752 122.432176 
L 142.736752 122.165205 
L 143.529626 122.165205 
L 143.568319 121.364293 
L 143.783346 121.364293 
L 143.783346 121.097322 
L 144.221013 121.097322 
L 144.221013 120.830351 
L 144.34153 120.830351 
L 144.347873 120.29641 
L 144.620622 120.29641 
L 144.620622 120.029439 
L 144.734796 120.029439 
L 144.734796 119.762468 
L 144.944114 119.762468 
L 144.944114 119.495497 
L 145.299322 119.495497 
L 145.394467 118.694585 
L 145.857506 118.694585 
L 145.857506 118.427614 
L 146.326888 118.427614 
L 146.326888 118.160643 
L 146.447405 118.160643 
L 146.447405 117.893672 
L 146.716855 117.893672 
L 146.716855 117.626702 
L 146.923129 117.626702 
L 146.923129 117.359731 
L 147.28468 117.359731 
L 147.28468 117.09276 
L 148.090241 117.09276 
L 148.090241 116.558818 
L 148.470821 116.558818 
L 148.470821 116.291848 
L 148.616709 116.291848 
L 148.616709 116.024877 
L 148.91483 116.024877 
L 148.91483 115.757906 
L 149.625246 115.757906 
L 149.625246 115.490935 
L 150.931903 115.490935 
L 150.931903 115.223964 
L 151.509116 115.223964 
L 151.587769 114.423052 
L 151.699406 114.423052 
L 151.699406 114.156081 
L 151.946783 114.156081 
L 151.946783 113.62214 
L 152.295647 113.62214 
L 152.295647 113.355169 
L 152.910918 113.355169 
L 152.910918 113.088198 
L 153.583276 113.088198 
L 153.583276 112.821227 
L 153.754537 112.821227 
L 153.754537 112.554256 
L 154.116087 112.554256 
L 154.116087 112.287286 
L 154.410927 112.287286 
L 154.410927 112.020315 
L 154.661585 112.020315 
L 154.661585 111.753344 
L 154.845532 111.753344 
L 154.845532 111.486373 
L 154.976198 111.486373 
L 154.976198 111.219402 
L 155.283199 111.219402 
L 155.283199 110.952432 
L 155.809667 110.952432 
L 155.809667 110.685461 
L 155.949213 110.685461 
L 155.949213 110.41849 
L 156.412252 110.41849 
L 156.437624 109.884548 
L 156.621571 109.884548 
L 156.697687 109.350607 
L 156.799175 109.350607 
L 156.799175 109.083636 
L 157.046552 109.083636 
L 157.046552 108.816665 
L 157.484218 108.816665 
L 157.484218 108.549694 
L 157.795025 108.549694 
L 157.864798 108.015753 
L 158.010687 108.015753 
L 158.08046 107.481811 
L 158.556185 107.481811 
L 158.556185 107.21484 
L 159.165113 107.21484 
L 159.165113 106.94787 
L 159.326445 106.94787 
L 159.326445 106.680899 
L 159.533006 106.680899 
L 159.533006 106.413928 
L 159.64718 106.413928 
L 159.64718 106.146957 
L 160.021417 106.146957 
L 160.021417 105.879986 
L 160.554229 105.879986 
L 160.554229 105.613016 
L 160.865036 105.613016 
L 160.865036 105.346045 
L 160.985552 105.346045 
L 160.985552 105.079074 
L 161.156813 105.079074 
L 161.156813 104.812103 
L 161.499335 104.812103 
L 161.524707 104.011191 
L 162.22878 104.011191 
L 162.22878 103.74422 
L 162.360714 103.74422 
L 162.360714 103.477249 
L 162.628389 103.477249 
L 162.679133 102.943307 
L 162.761591 102.943307 
L 162.761591 102.676337 
L 163.973104 102.676337 
L 163.973104 102.409366 
L 164.264882 102.409366 
L 164.264882 102.142395 
L 165.305133 102.142395 
L 165.305133 101.875424 
L 165.634969 101.875424 
L 165.634969 101.608453 
L 166.700592 101.608453 
L 166.700592 101.341483 
L 166.852824 101.341483 
L 166.852824 101.074512 
L 167.017742 101.074512 
L 167.017742 100.807541 
L 167.404665 100.807541 
L 167.512496 100.273599 
L 167.797931 100.273599 
L 167.797931 100.006629 
L 168.038965 100.006629 
L 168.038965 99.739658 
L 168.318056 99.739658 
L 168.318056 99.472687 
L 168.482974 99.472687 
L 168.482974 99.205716 
L 168.724008 99.205716 
L 168.724008 98.938745 
L 169.117274 98.938745 
L 169.117274 98.671775 
L 169.516883 98.671775 
L 169.516883 98.404804 
L 170.373187 98.404804 
L 170.373187 98.137833 
L 170.741081 98.137833 
L 170.810854 97.603891 
L 171.774989 97.603891 
L 171.774989 97.336921 
L 172.013169 97.336921 
L 172.013169 97.06995 
L 172.77084 97.06995 
L 172.77084 96.802979 
L 174.261444 96.802979 
L 174.27413 96.269037 
L 174.420019 96.269037 
L 174.420019 96.002067 
L 174.622995 96.002067 
L 174.622995 95.735096 
L 174.768884 95.735096 
L 174.768884 95.468125 
L 175.46027 95.468125 
L 175.46027 95.201154 
L 175.872565 95.201154 
L 175.872565 94.934183 
L 176.335604 94.934183 
L 176.335604 94.667213 
L 177.014304 94.667213 
L 177.014304 94.400242 
L 177.502715 94.400242 
L 177.502715 94.133271 
L 178.320962 94.133271 
L 178.346334 93.599329 
L 178.523938 93.599329 
L 178.625426 92.798417 
L 180.122373 92.798417 
L 180.122373 92.531446 
L 180.280948 92.531446 
L 180.280948 92.264475 
L 181.435373 92.264475 
L 181.517832 91.730534 
L 181.638349 91.730534 
L 181.638349 91.463563 
L 181.911098 91.463563 
L 181.911098 91.196592 
L 182.925977 91.196592 
L 182.983064 90.662651 
L 183.966229 90.662651 
L 183.966229 90.39568 
L 184.365837 90.39568 
L 184.460982 89.861738 
L 184.822533 89.861738 
L 184.917678 89.327797 
L 185.368031 89.327797 
L 185.475862 88.793855 
L 187.302645 88.793855 
L 187.302645 88.526884 
L 188.235065 88.526884 
L 188.235065 88.259913 
L 188.444384 88.259913 
L 188.444384 87.992943 
L 188.609302 87.992943 
L 188.609302 87.725972 
L 188.958167 87.725972 
L 188.989882 87.19203 
L 190.137964 87.19203 
L 190.137964 86.925059 
L 190.461457 86.925059 
L 190.461457 86.658089 
L 191.362162 86.658089 
L 191.362162 86.391118 
L 192.047206 86.391118 
L 192.047206 86.124147 
L 192.599047 86.124147 
L 192.599047 85.857176 
L 192.79568 85.857176 
L 192.833738 85.323234 
L 193.303119 85.323234 
L 193.322148 84.789293 
L 193.607583 84.789293 
L 193.607583 84.522322 
L 193.886675 84.522322 
L 193.886675 84.255351 
L 194.85081 84.255351 
L 194.85081 83.98838 
L 195.326535 83.98838 
L 195.402651 83.454439 
L 195.61197 83.454439 
L 195.61197 83.187468 
L 196.170154 83.187468 
L 196.250393 82.386556 
L 196.544391 82.386556 
L 196.544391 82.119585 
L 196.67125 82.119585 
L 196.67125 81.852614 
L 196.92497 81.852614 
L 196.994743 81.051702 
L 197.210405 81.051702 
L 197.210405 80.784731 
L 197.584642 80.784731 
L 197.584642 80.51776 
L 197.736874 80.51776 
L 197.736874 80.250789 
L 198.99913 80.250789 
L 199.011816 79.716848 
L 199.271879 79.716848 
L 199.271879 79.449877 
L 200.832256 79.449877 
L 200.857628 78.915935 
L 202.25943 78.915935 
L 202.25943 78.648964 
L 202.747841 78.648964 
L 202.747841 78.381994 
L 203.14745 78.381994 
L 203.242595 77.848052 
L 203.293339 77.848052 
L 203.293339 77.581081 
L 203.4646 77.581081 
L 203.4646 77.31411 
L 204.428735 77.31411 
L 204.428735 77.04714 
L 204.879088 77.04714 
L 204.879088 76.780169 
L 205.088407 76.780169 
L 205.088407 76.513198 
L 205.286625 76.513198 
L 205.329441 75.979256 
L 205.887624 75.979256 
L 205.887624 75.712286 
L 206.249175 75.712286 
L 206.249175 75.445315 
L 206.839074 75.445315 
L 206.839074 75.178344 
L 207.390914 75.178344 
L 207.390914 74.911373 
L 207.777837 74.911373 
L 207.84761 74.377432 
L 208.050586 74.377432 
L 208.050586 74.110461 
L 208.500939 74.110461 
L 208.500939 73.84349 
L 209.528504 73.84349 
L 209.528504 73.576519 
L 209.661707 73.576519 
L 209.661707 73.309548 
L 210.860534 73.309548 
L 210.860534 73.042578 
L 211.279171 73.042578 
L 211.279171 72.775607 
L 211.475804 72.775607 
L 211.475804 72.508636 
L 212.116447 72.508636 
L 212.12279 71.974694 
L 212.452626 71.974694 
L 212.452626 71.707724 
L 213.067896 71.707724 
L 213.067896 71.440753 
L 213.37236 71.440753 
L 213.37236 71.173782 
L 214.279409 71.173782 
L 214.279409 70.906811 
L 215.592409 70.906811 
L 215.592409 70.63984 
L 215.922245 70.63984 
L 215.922245 70.37287 
L 216.055448 70.37287 
L 216.055448 70.105899 
L 216.258423 70.105899 
L 216.258423 69.838928 
L 216.645346 69.838928 
L 216.645346 69.571957 
L 216.956153 69.571957 
L 216.956153 69.304986 
L 217.514337 69.304986 
L 217.514337 69.038016 
L 218.269153 69.038016 
L 218.269153 68.771045 
L 219.303062 68.771045 
L 219.315748 68.237103 
L 219.715357 68.237103 
L 219.715357 67.970132 
L 220.882468 67.970132 
L 220.882468 67.703161 
L 221.948091 67.703161 
L 221.948091 67.436191 
L 223.711444 67.436191 
L 223.711444 67.16922 
L 224.371116 67.16922 
L 224.396488 66.635278 
L 224.504319 66.635278 
L 224.529691 66.101337 
L 224.986387 66.101337 
L 224.986387 65.834366 
L 225.474797 65.834366 
L 225.506512 65.300424 
L 226.451619 65.300424 
L 226.499826 64.766483 
L 227.821706 64.766483 
L 227.821706 64.499512 
L 228.519436 64.499512 
L 228.519436 64.232541 
L 228.861957 64.232541 
L 228.861957 63.96557 
L 229.940267 63.96557 
L 229.940267 63.698599 
L 230.054441 63.698599 
L 230.054441 63.431629 
L 230.993204 63.431629 
L 230.993204 63.164658 
L 231.208866 63.164658 
L 231.208866 62.897687 
L 231.671905 62.897687 
L 231.671905 62.630716 
L 231.805108 62.630716 
L 231.805108 62.363745 
L 231.976686 62.363745 
L 231.989055 61.829804 
L 232.521866 61.829804 
L 232.521866 61.562833 
L 232.737528 61.562833 
L 232.769243 61.028891 
L 233.33377 61.028891 
L 233.33377 60.761921 
L 233.879268 60.761921 
L 233.987099 60.227979 
L 234.424765 60.227979 
L 234.424765 59.961008 
L 235.122495 59.961008 
L 235.122495 59.694037 
L 235.915369 59.694037 
L 235.915369 59.427067 
L 236.575041 59.427067 
L 236.575041 59.160096 
L 236.714587 59.160096 
L 236.714587 58.893125 
L 237.983186 58.893125 
L 237.983186 58.626154 
L 238.122732 58.626154 
L 238.148104 58.092213 
L 238.363766 58.092213 
L 238.420853 57.558271 
L 239.480133 57.558271 
L 239.480133 57.2913 
L 239.962201 57.2913 
L 239.962201 57.024329 
L 240.120776 57.024329 
L 240.120776 56.757359 
L 240.894622 56.757359 
L 240.93268 56.223417 
L 241.015139 56.223417 
L 241.015139 55.956446 
L 241.636752 55.956446 
L 241.636752 55.689475 
L 241.814356 55.689475 
L 241.814356 55.422505 
L 242.30911 55.422505 
L 242.378883 54.888563 
L 242.474028 54.888563 
L 242.474028 54.621592 
L 242.841922 54.621592 
L 242.886323 54.087651 
L 243.349361 54.087651 
L 243.349361 53.82068 
L 243.704569 53.82068 
L 243.8124 53.286738 
L 243.926574 53.286738 
L 243.926574 53.019767 
L 245.455236 53.019767 
L 245.455236 52.752797 
L 246.197367 52.752797 
L 246.197367 52.485826 
L 246.368628 52.485826 
L 246.368628 52.218855 
L 248.633077 52.218855 
L 248.633077 51.951884 
L 249.914363 51.951884 
L 249.914363 51.684913 
L 250.047566 51.684913 
L 250.085623 51.150972 
L 250.168082 51.150972 
L 250.237855 50.61703 
L 251.455711 50.61703 
L 251.455711 50.350059 
L 251.582571 50.350059 
L 251.582571 50.083089 
L 252.825798 50.083089 
L 252.825798 49.816118 
L 253.866049 49.816118 
L 253.897764 49.282176 
L 254.03731 49.282176 
L 254.03731 49.015205 
L 254.468634 49.015205 
L 254.468634 48.748234 
L 254.976074 48.748234 
L 254.976074 48.481264 
L 255.223451 48.481264 
L 255.223451 48.214293 
L 255.464484 48.214293 
L 255.464484 47.947322 
L 256.331889 47.947322 
L 256.331889 47.680351 
L 256.55548 47.680351 
L 256.55548 47.41338 
L 257.722591 47.41338 
L 257.722591 47.14641 
L 258.153915 47.14641 
L 258.153915 46.879439 
L 258.388606 46.879439 
L 258.388606 46.612468 
L 258.62964 46.612468 
L 258.62964 46.345497 
L 259.162451 46.345497 
L 259.162451 46.078526 
L 259.600118 46.078526 
L 259.600118 45.811556 
L 261.046321 45.811556 
L 261.046321 45.544585 
L 261.997771 45.544585 
L 261.997771 45.277614 
L 262.429095 45.277614 
L 262.429095 45.010643 
L 265.78454 45.010643 
L 265.78454 44.743672 
L 265.993859 44.743672 
L 265.993859 44.476702 
L 268.226593 44.476702 
L 268.226593 44.209731 
L 269.209758 44.209731 
L 269.216101 43.675789 
L 269.368333 43.675789 
L 269.368333 43.408818 
L 269.958231 43.408818 
L 269.958231 43.141848 
L 270.586188 43.141848 
L 270.586188 42.874877 
L 270.947739 42.874877 
L 270.947739 42.607906 
L 271.531294 42.607906 
L 271.531294 42.340935 
L 272.704749 42.340935 
L 272.704749 42.073964 
L 273.205846 42.073964 
L 273.205846 41.806994 
L 273.840145 41.806994 
L 273.840145 41.540023 
L 274.233411 41.540023 
L 274.233411 41.273052 
L 274.683764 41.273052 
L 274.683764 41.006081 
L 275.432237 41.006081 
L 275.432237 40.73911 
L 276.789639 40.73911 
L 276.789639 40.47214 
L 277.836233 40.47214 
L 277.848919 39.938198 
L 277.988465 39.938198 
L 277.988465 39.671227 
L 278.470533 39.671227 
L 278.470533 39.404256 
L 278.844769 39.404256 
L 278.844769 39.137286 
L 283.094577 39.137286 
L 283.094577 38.870315 
L 283.468814 38.870315 
L 283.468814 38.603344 
L 283.785964 38.603344 
L 283.785964 38.336373 
L 284.781814 38.336373 
L 284.781814 38.069402 
L 284.997476 38.069402 
L 284.997476 37.802432 
L 286.266075 37.802432 
L 286.266075 37.535461 
L 286.779858 37.535461 
L 286.798887 37.001519 
L 287.12238 37.001519 
L 287.230211 36.467578 
L 288.010399 36.467578 
L 288.010399 36.200607 
L 288.441723 36.200607 
L 288.441723 35.933636 
L 292.71056 35.933636 
L 292.767647 35.399694 
L 292.989651 35.399694 
L 292.989651 35.132724 
L 293.2624 35.132724 
L 293.306801 34.598782 
L 294.017217 34.598782 
L 294.017217 34.331811 
L 294.194821 34.331811 
L 294.194821 34.06484 
L 294.753004 34.06484 
L 294.778376 33.530899 
L 295.177985 33.530899 
L 295.235072 32.996957 
L 297.734213 32.996957 
L 297.734213 32.729986 
L 299.129672 32.729986 
L 299.129672 32.463016 
L 300.322155 32.463016 
L 300.322155 32.196045 
L 304.851055 32.196045 
L 304.851055 31.929074 
L 305.491697 31.929074 
L 305.491697 31.662103 
L 305.656615 31.662103 
L 305.656615 31.395132 
L 305.87862 31.395132 
L 305.87862 31.128161 
L 306.63978 31.128161 
L 306.63978 30.861191 
L 308.859829 30.861191 
L 308.859829 30.59422 
L 309.804935 30.59422 
L 309.804935 30.327249 
L 310.692954 30.327249 
L 310.692954 30.060278 
L 312.386535 30.060278 
L 312.386535 29.793307 
L 314.384578 29.793307 
L 314.384578 29.526337 
L 316.661714 29.526337 
L 316.661714 29.259366 
L 317.847854 29.259366 
L 317.847854 28.992395 
L 318.11426 28.992395 
L 318.11426 28.725424 
L 319.941043 28.725424 
L 319.99813 28.191483 
L 320.055217 28.191483 
L 320.086932 27.657541 
L 321.209643 27.657541 
L 321.209643 27.39057 
L 321.723425 27.39057 
L 321.723425 27.123599 
L 323.987875 27.123599 
L 323.987875 26.856629 
L 324.247938 26.856629 
L 324.247938 26.589658 
L 324.863209 26.589658 
L 324.863209 26.322687 
L 325.96689 26.322687 
L 325.96689 26.055716 
L 330.134239 26.055716 
L 330.184983 25.521775 
L 332.665094 25.521775 
L 332.665094 25.254804 
L 333.223278 25.254804 
L 333.286708 24.720862 
L 337.238395 24.720862 
L 337.238395 24.453891 
L 341.799009 24.453891 
L 341.799009 24.186921 
L 342.014671 24.186921 
L 342.014671 23.91995 
L 342.553826 23.91995 
L 342.553826 23.652979 
L 345.458918 23.652979 
L 345.458918 23.386008 
L 346.492826 23.386008 
L 346.492826 23.119037 
L 351.028069 23.119037 
L 351.091499 22.585096 
L 359.001215 22.585096 
L 359.001215 22.318125 
L 359.001215 22.318125 
" clip-path="url(#p7dd92b41df)" style="fill: none; stroke: #ff0000; stroke-width: 1.5; stroke-linecap: square"/>
   </g>
   <g id="patch_3">
    <path d="M 43.78125 314.918125 
L 43.78125 22.318125 
" style="fill: none; stroke: #000000; stroke-width: 0.8; stroke-linejoin: miter; stroke-linecap: square"/>
   </g>
   <g id="patch_4">
    <path d="M 417.17125 314.918125 
L 417.17125 22.318125 
" style="fill: none; stroke: #000000; stroke-width: 0.8; stroke-linejoin: miter; stroke-linecap: square"/>
   </g>
   <g id="patch_5">
    <path d="M 43.78125 314.918125 
L 417.17125 314.918125 
" style="fill: none; stroke: #000000; stroke-width: 0.8; stroke-linejoin: miter; stroke-linecap: square"/>
   </g>
   <g id="patch_6">
    <path d="M 43.78125 22.318125 
L 417.17125 22.318125 
" style="fill: none; stroke: #000000; stroke-width: 0.8; stroke-linejoin: miter; stroke-linecap: square"/>
   </g>
   <g id="text_14">
    <!-- ECDF Comparison (FE) -->
    <g transform="translate(162.7625 16.318125) scale(0.12 -0.12)">
     <defs>
      <path id="DejaVuSans-44" d="M 1259 4147 
L 1259 519 
L 2022 519 
Q 2988 519 3436 956 
Q 3884 1394 3884 2338 
Q 3884 3275 3436 3711 
Q 2988 4147 2022 4147 
L 1259 4147 
z
M 628 4666 
L 1925 4666 
Q 3281 4666 3915 4102 
Q 4550 3538 4550 2338 
Q 4550 1131 3912 565 
Q 3275 0 1925 0 
L 628 0 
L 628 4666 
z
" transform="scale(0.015625)"/>
      <path id="DejaVuSans-70" d="M 1159 525 
L 1159 -1331 
L 581 -1331 
L 581 3500 
L 1159 3500 
L 1159 2969 
Q 1341 3281 1617 3432 
Q 1894 3584 2278 3584 
Q 2916 3584 3314 3078 
Q 3713 2572 3713 1747 
Q 3713 922 3314 415 
Q 2916 -91 2278 -91 
Q 1894 -91 1617 61 
Q 1341 213 1159 525 
z
M 3116 1747 
Q 3116 2381 2855 2742 
Q 2594 3103 2138 3103 
Q 1681 3103 1420 2742 
Q 1159 2381 1159 1747 
Q 1159 1113 1420 752 
Q 1681 391 2138 391 
Q 2594 391 2855 752 
Q 3116 1113 3116 1747 
z
" transform="scale(0.015625)"/>
      <path id="DejaVuSans-73" d="M 2834 3397 
L 2834 2853 
Q 2591 2978 2328 3040 
Q 2066 3103 1784 3103 
Q 1356 3103 1142 2972 
Q 928 2841 928 2578 
Q 928 2378 1081 2264 
Q 1234 2150 1697 2047 
L 1894 2003 
Q 2506 1872 2764 1633 
Q 3022 1394 3022 966 
Q 3022 478 2636 193 
Q 2250 -91 1575 -91 
Q 1294 -91 989 -36 
Q 684 19 347 128 
L 347 722 
Q 666 556 975 473 
Q 1284 391 1588 391 
Q 1994 391 2212 530 
Q 2431 669 2431 922 
Q 2431 1156 2273 1281 
Q 2116 1406 1581 1522 
L 1381 1569 
Q 847 1681 609 1914 
Q 372 2147 372 2553 
Q 372 3047 722 3315 
Q 1072 3584 1716 3584 
Q 2034 3584 2315 3537 
Q 2597 3491 2834 3397 
z
" transform="scale(0.015625)"/>
      <path id="DejaVuSans-6e" d="M 3513 2113 
L 3513 0 
L 2938 0 
L 2938 2094 
Q 2938 2591 2744 2837 
Q 2550 3084 2163 3084 
Q 1697 3084 1428 2787 
Q 1159 2491 1159 1978 
L 1159 0 
L 581 0 
L 581 3500 
L 1159 3500 
L 1159 2956 
Q 1366 3272 1645 3428 
Q 1925 3584 2291 3584 
Q 2894 3584 3203 3211 
Q 3513 2838 3513 2113 
z
" transform="scale(0.015625)"/>
      <path id="DejaVuSans-28" d="M 1984 4856 
Q 1566 4138 1362 3434 
Q 1159 2731 1159 2009 
Q 1159 1288 1364 580 
Q 1569 -128 1984 -844 
L 1484 -844 
Q 1016 -109 783 600 
Q 550 1309 550 2009 
Q 550 2706 781 3412 
Q 1013 4119 1484 4856 
L 1984 4856 
z
" transform="scale(0.015625)"/>
      <path id="DejaVuSans-29" d="M 513 4856 
L 1013 4856 
Q 1481 4119 1714 3412 
Q 1947 2706 1947 2009 
Q 1947 1309 1714 600 
Q 1481 -109 1013 -844 
L 513 -844 
Q 928 -128 1133 580 
Q 1338 1288 1338 2009 
Q 1338 2731 1133 3434 
Q 928 4138 513 4856 
z
" transform="scale(0.015625)"/>
     </defs>
     <use xlink:href="#DejaVuSans-45"/>
     <use xlink:href="#DejaVuSans-43" transform="translate(63.183594 0)"/>
     <use xlink:href="#DejaVuSans-44" transform="translate(133.007812 0)"/>
     <use xlink:href="#DejaVuSans-46" transform="translate(210.009766 0)"/>
     <use xlink:href="#DejaVuSans-20" transform="translate(267.529297 0)"/>
     <use xlink:href="#DejaVuSans-43" transform="translate(299.316406 0)"/>
     <use xlink:href="#DejaVuSans-6f" transform="translate(369.140625 0)"/>
     <use xlink:href="#DejaVuSans-6d" transform="translate(430.322266 0)"/>
     <use xlink:href="#DejaVuSans-70" transform="translate(527.734375 0)"/>
     <use xlink:href="#DejaVuSans-61" transform="translate(591.210938 0)"/>
     <use xlink:href="#DejaVuSans-72" transform="translate(652.490234 0)"/>
     <use xlink:href="#DejaVuSans-69" transform="translate(693.603516 0)"/>
     <use xlink:href="#DejaVuSans-73" transform="translate(721.386719 0)"/>
     <use xlink:href="#DejaVuSans-6f" transform="translate(773.486328 0)"/>
     <use xlink:href="#DejaVuSans-6e" transform="translate(834.667969 0)"/>
     <use xlink:href="#DejaVuSans-20" transform="translate(898.046875 0)"/>
     <use xlink:href="#DejaVuSans-28" transform="translate(929.833984 0)"/>
     <use xlink:href="#DejaVuSans-46" transform="translate(968.847656 0)"/>
     <use xlink:href="#DejaVuSans-45" transform="translate(1026.367188 0)"/>
     <use xlink:href="#DejaVuSans-29" transform="translate(1089.550781 0)"/>
    </g>
   </g>
   <g id="legend_1">
    <g id="patch_7">
     <path d="M 50.78125 59.674375 
L 132.88125 59.674375 
Q 134.88125 59.674375 134.88125 57.674375 
L 134.88125 29.318125 
Q 134.88125 27.318125 132.88125 27.318125 
L 50.78125 27.318125 
Q 48.78125 27.318125 48.78125 29.318125 
L 48.78125 57.674375 
Q 48.78125 59.674375 50.78125 59.674375 
z
" style="fill: #ffffff; opacity: 0.8; stroke: #cccccc; stroke-linejoin: miter"/>
    </g>
    <g id="line2d_25">
     <path d="M 52.78125 35.416562 
L 62.78125 35.416562 
L 62.78125 35.416562 
L 72.78125 35.416562 
L 72.78125 35.416562 
" style="fill: none; stroke: #0000ff; stroke-width: 1.5; stroke-linecap: square"/>
    </g>
    <g id="text_15">
     <!-- Base Hole -->
     <g transform="translate(80.78125 38.916562) scale(0.1 -0.1)">
      <defs>
       <path id="DejaVuSans-42" d="M 1259 2228 
L 1259 519 
L 2272 519 
Q 2781 519 3026 730 
Q 3272 941 3272 1375 
Q 3272 1813 3026 2020 
Q 2781 2228 2272 2228 
L 1259 2228 
z
M 1259 4147 
L 1259 2741 
L 2194 2741 
Q 2656 2741 2882 2914 
Q 3109 3088 3109 3444 
Q 3109 3797 2882 3972 
Q 2656 4147 2194 4147 
L 1259 4147 
z
M 628 4666 
L 2241 4666 
Q 2963 4666 3353 4366 
Q 3744 4066 3744 3513 
Q 3744 3084 3544 2831 
Q 3344 2578 2956 2516 
Q 3422 2416 3680 2098 
Q 3938 1781 3938 1306 
Q 3938 681 3513 340 
Q 3088 0 2303 0 
L 628 0 
L 628 4666 
z
" transform="scale(0.015625)"/>
       <path id="DejaVuSans-48" d="M 628 4666 
L 1259 4666 
L 1259 2753 
L 3553 2753 
L 3553 4666 
L 4184 4666 
L 4184 0 
L 3553 0 
L 3553 2222 
L 1259 2222 
L 1259 0 
L 628 0 
L 628 4666 
z
" transform="scale(0.015625)"/>
      </defs>
      <use xlink:href="#DejaVuSans-42"/>
      <use xlink:href="#DejaVuSans-61" transform="translate(68.603516 0)"/>
      <use xlink:href="#DejaVuSans-73" transform="translate(129.882812 0)"/>
      <use xlink:href="#DejaVuSans-65" transform="translate(181.982422 0)"/>
      <use xlink:href="#DejaVuSans-20" transform="translate(243.505859 0)"/>
      <use xlink:href="#DejaVuSans-48" transform="translate(275.292969 0)"/>
      <use xlink:href="#DejaVuSans-6f" transform="translate(350.488281 0)"/>
      <use xlink:href="#DejaVuSans-6c" transform="translate(411.669922 0)"/>
      <use xlink:href="#DejaVuSans-65" transform="translate(439.453125 0)"/>
     </g>
    </g>
    <g id="line2d_26">
     <path d="M 52.78125 50.094687 
L 62.78125 50.094687 
L 62.78125 50.094687 
L 72.78125 50.094687 
L 72.78125 50.094687 
" style="fill: none; stroke: #ff0000; stroke-width: 1.5; stroke-linecap: square"/>
    </g>
    <g id="text_16">
     <!-- Twin Hole -->
     <g transform="translate(80.78125 53.594687) scale(0.1 -0.1)">
      <defs>
       <path id="DejaVuSans-54" d="M -19 4666 
L 3928 4666 
L 3928 4134 
L 2272 4134 
L 2272 0 
L 1638 0 
L 1638 4134 
L -19 4134 
L -19 4666 
z
" transform="scale(0.015625)"/>
       <path id="DejaVuSans-77" d="M 269 3500 
L 844 3500 
L 1563 769 
L 2278 3500 
L 2956 3500 
L 3675 769 
L 4391 3500 
L 4966 3500 
L 4050 0 
L 3372 0 
L 2619 2869 
L 1863 0 
L 1184 0 
L 269 3500 
z
" transform="scale(0.015625)"/>
      </defs>
      <use xlink:href="#DejaVuSans-54"/>
      <use xlink:href="#DejaVuSans-77" transform="translate(44.583984 0)"/>
      <use xlink:href="#DejaVuSans-69" transform="translate(126.371094 0)"/>
      <use xlink:href="#DejaVuSans-6e" transform="translate(154.154297 0)"/>
      <use xlink:href="#DejaVuSans-20" transform="translate(217.533203 0)"/>
      <use xlink:href="#DejaVuSans-48" transform="translate(249.320312 0)"/>
      <use xlink:href="#DejaVuSans-6f" transform="translate(324.515625 0)"/>
      <use xlink:href="#DejaVuSans-6c" transform="translate(385.697266 0)"/>
      <use xlink:href="#DejaVuSans-65" transform="translate(413.480469 0)"/>
     </g>
    </g>
   </g>
  </g>
 </g>
 <defs>
  <clipPath id="p7dd92b41df">
   <rect x="43.78125" y="22.318125" width="373.39" height="292.6"/>
  </clipPath>
 </defs>
</svg>
