<?xml version="1.0" encoding="utf-8" standalone="no"?>
<!DOCTYPE svg PUBLIC "-//W3C//DTD SVG 1.1//EN"
  "http://www.w3.org/Graphics/SVG/1.1/DTD/svg11.dtd">
<svg xmlns:xlink="http://www.w3.org/1999/xlink" width="424.37125pt" height="352.474375pt" viewBox="0 0 424.37125 352.474375" xmlns="http://www.w3.org/2000/svg" version="1.1">
 <metadata>
  <rdf:RDF xmlns:dc="http://purl.org/dc/elements/1.1/" xmlns:cc="http://creativecommons.org/ns#" xmlns:rdf="http://www.w3.org/1999/02/22-rdf-syntax-ns#">
   <cc:Work>
    <dc:type rdf:resource="http://purl.org/dc/dcmitype/StillImage"/>
    <dc:date>2025-11-04T10:24:53.503586</dc:date>
    <dc:format>image/svg+xml</dc:format>
    <dc:creator>
     <cc:Agent>
      <dc:title>Matplotlib v3.10.6, https://matplotlib.org/</dc:title>
     </cc:Agent>
    </dc:creator>
   </cc:Work>
  </rdf:RDF>
 </metadata>
 <defs>
  <style type="text/css">*{stroke-linejoin: round; stroke-linecap: butt}</style>
 </defs>
 <g id="figure_1">
  <g id="patch_1">
   <path d="M 0 352.474375 
L 424.37125 352.474375 
L 424.37125 0 
L 0 0 
z
" style="fill: #ffffff"/>
  </g>
  <g id="axes_1">
   <g id="patch_2">
    <path d="M 43.78125 314.918125 
L 417.17125 314.918125 
L 417.17125 22.318125 
L 43.78125 22.318125 
z
" style="fill: #ffffff"/>
   </g>
   <g id="matplotlib.axis_1">
    <g id="xtick_1">
     <g id="line2d_1">
      <path d="M 60.599736 314.918125 
L 60.599736 22.318125 
" clip-path="url(#pa4537ac17d)" style="fill: none; stroke: #b0b0b0; stroke-opacity: 0.3; stroke-width: 0.8; stroke-linecap: square"/>
     </g>
     <g id="line2d_2">
      <defs>
       <path id="m154e189762" d="M 0 0 
L 0 3.5 
" style="stroke: #000000; stroke-width: 0.8"/>
      </defs>
      <g>
       <use xlink:href="#m154e189762" x="60.599736" y="314.918125" style="stroke: #000000; stroke-width: 0.8"/>
      </g>
     </g>
     <g id="text_1">
      <!-- 0 -->
      <g transform="translate(57.418486 329.516563) scale(0.1 -0.1)">
       <defs>
        <path id="DejaVuSans-30" d="M 2034 4250 
Q 1547 4250 1301 3770 
Q 1056 3291 1056 2328 
Q 1056 1369 1301 889 
Q 1547 409 2034 409 
Q 2525 409 2770 889 
Q 3016 1369 3016 2328 
Q 3016 3291 2770 3770 
Q 2525 4250 2034 4250 
z
M 2034 4750 
Q 2819 4750 3233 4129 
Q 3647 3509 3647 2328 
Q 3647 1150 3233 529 
Q 2819 -91 2034 -91 
Q 1250 -91 836 529 
Q 422 1150 422 2328 
Q 422 3509 836 4129 
Q 1250 4750 2034 4750 
z
" transform="scale(0.015625)"/>
       </defs>
       <use xlink:href="#DejaVuSans-30"/>
      </g>
     </g>
    </g>
    <g id="xtick_2">
     <g id="line2d_3">
      <path d="M 137.493032 314.918125 
L 137.493032 22.318125 
" clip-path="url(#pa4537ac17d)" style="fill: none; stroke: #b0b0b0; stroke-opacity: 0.3; stroke-width: 0.8; stroke-linecap: square"/>
     </g>
     <g id="line2d_4">
      <g>
       <use xlink:href="#m154e189762" x="137.493032" y="314.918125" style="stroke: #000000; stroke-width: 0.8"/>
      </g>
     </g>
     <g id="text_2">
      <!-- 20 -->
      <g transform="translate(131.130532 329.516563) scale(0.1 -0.1)">
       <defs>
        <path id="DejaVuSans-32" d="M 1228 531 
L 3431 531 
L 3431 0 
L 469 0 
L 469 531 
Q 828 903 1448 1529 
Q 2069 2156 2228 2338 
Q 2531 2678 2651 2914 
Q 2772 3150 2772 3378 
Q 2772 3750 2511 3984 
Q 2250 4219 1831 4219 
Q 1534 4219 1204 4116 
Q 875 4013 500 3803 
L 500 4441 
Q 881 4594 1212 4672 
Q 1544 4750 1819 4750 
Q 2544 4750 2975 4387 
Q 3406 4025 3406 3419 
Q 3406 3131 3298 2873 
Q 3191 2616 2906 2266 
Q 2828 2175 2409 1742 
Q 1991 1309 1228 531 
z
" transform="scale(0.015625)"/>
       </defs>
       <use xlink:href="#DejaVuSans-32"/>
       <use xlink:href="#DejaVuSans-30" transform="translate(63.623047 0)"/>
      </g>
     </g>
    </g>
    <g id="xtick_3">
     <g id="line2d_5">
      <path d="M 214.386328 314.918125 
L 214.386328 22.318125 
" clip-path="url(#pa4537ac17d)" style="fill: none; stroke: #b0b0b0; stroke-opacity: 0.3; stroke-width: 0.8; stroke-linecap: square"/>
     </g>
     <g id="line2d_6">
      <g>
       <use xlink:href="#m154e189762" x="214.386328" y="314.918125" style="stroke: #000000; stroke-width: 0.8"/>
      </g>
     </g>
     <g id="text_3">
      <!-- 40 -->
      <g transform="translate(208.023828 329.516563) scale(0.1 -0.1)">
       <defs>
        <path id="DejaVuSans-34" d="M 2419 4116 
L 825 1625 
L 2419 1625 
L 2419 4116 
z
M 2253 4666 
L 3047 4666 
L 3047 1625 
L 3713 1625 
L 3713 1100 
L 3047 1100 
L 3047 0 
L 2419 0 
L 2419 1100 
L 313 1100 
L 313 1709 
L 2253 4666 
z
" transform="scale(0.015625)"/>
       </defs>
       <use xlink:href="#DejaVuSans-34"/>
       <use xlink:href="#DejaVuSans-30" transform="translate(63.623047 0)"/>
      </g>
     </g>
    </g>
    <g id="xtick_4">
     <g id="line2d_7">
      <path d="M 291.279624 314.918125 
L 291.279624 22.318125 
" clip-path="url(#pa4537ac17d)" style="fill: none; stroke: #b0b0b0; stroke-opacity: 0.3; stroke-width: 0.8; stroke-linecap: square"/>
     </g>
     <g id="line2d_8">
      <g>
       <use xlink:href="#m154e189762" x="291.279624" y="314.918125" style="stroke: #000000; stroke-width: 0.8"/>
      </g>
     </g>
     <g id="text_4">
      <!-- 60 -->
      <g transform="translate(284.917124 329.516563) scale(0.1 -0.1)">
       <defs>
        <path id="DejaVuSans-36" d="M 2113 2584 
Q 1688 2584 1439 2293 
Q 1191 2003 1191 1497 
Q 1191 994 1439 701 
Q 1688 409 2113 409 
Q 2538 409 2786 701 
Q 3034 994 3034 1497 
Q 3034 2003 2786 2293 
Q 2538 2584 2113 2584 
z
M 3366 4563 
L 3366 3988 
Q 3128 4100 2886 4159 
Q 2644 4219 2406 4219 
Q 1781 4219 1451 3797 
Q 1122 3375 1075 2522 
Q 1259 2794 1537 2939 
Q 1816 3084 2150 3084 
Q 2853 3084 3261 2657 
Q 3669 2231 3669 1497 
Q 3669 778 3244 343 
Q 2819 -91 2113 -91 
Q 1303 -91 875 529 
Q 447 1150 447 2328 
Q 447 3434 972 4092 
Q 1497 4750 2381 4750 
Q 2619 4750 2861 4703 
Q 3103 4656 3366 4563 
z
" transform="scale(0.015625)"/>
       </defs>
       <use xlink:href="#DejaVuSans-36"/>
       <use xlink:href="#DejaVuSans-30" transform="translate(63.623047 0)"/>
      </g>
     </g>
    </g>
    <g id="xtick_5">
     <g id="line2d_9">
      <path d="M 368.17292 314.918125 
L 368.17292 22.318125 
" clip-path="url(#pa4537ac17d)" style="fill: none; stroke: #b0b0b0; stroke-opacity: 0.3; stroke-width: 0.8; stroke-linecap: square"/>
     </g>
     <g id="line2d_10">
      <g>
       <use xlink:href="#m154e189762" x="368.17292" y="314.918125" style="stroke: #000000; stroke-width: 0.8"/>
      </g>
     </g>
     <g id="text_5">
      <!-- 80 -->
      <g transform="translate(361.81042 329.516563) scale(0.1 -0.1)">
       <defs>
        <path id="DejaVuSans-38" d="M 2034 2216 
Q 1584 2216 1326 1975 
Q 1069 1734 1069 1313 
Q 1069 891 1326 650 
Q 1584 409 2034 409 
Q 2484 409 2743 651 
Q 3003 894 3003 1313 
Q 3003 1734 2745 1975 
Q 2488 2216 2034 2216 
z
M 1403 2484 
Q 997 2584 770 2862 
Q 544 3141 544 3541 
Q 544 4100 942 4425 
Q 1341 4750 2034 4750 
Q 2731 4750 3128 4425 
Q 3525 4100 3525 3541 
Q 3525 3141 3298 2862 
Q 3072 2584 2669 2484 
Q 3125 2378 3379 2068 
Q 3634 1759 3634 1313 
Q 3634 634 3220 271 
Q 2806 -91 2034 -91 
Q 1263 -91 848 271 
Q 434 634 434 1313 
Q 434 1759 690 2068 
Q 947 2378 1403 2484 
z
M 1172 3481 
Q 1172 3119 1398 2916 
Q 1625 2713 2034 2713 
Q 2441 2713 2670 2916 
Q 2900 3119 2900 3481 
Q 2900 3844 2670 4047 
Q 2441 4250 2034 4250 
Q 1625 4250 1398 4047 
Q 1172 3844 1172 3481 
z
" transform="scale(0.015625)"/>
       </defs>
       <use xlink:href="#DejaVuSans-38"/>
       <use xlink:href="#DejaVuSans-30" transform="translate(63.623047 0)"/>
      </g>
     </g>
    </g>
    <g id="text_6">
     <!-- MGO -->
     <g transform="translate(218.352031 343.194687) scale(0.1 -0.1)">
      <defs>
       <path id="DejaVuSans-4d" d="M 628 4666 
L 1569 4666 
L 2759 1491 
L 3956 4666 
L 4897 4666 
L 4897 0 
L 4281 0 
L 4281 4097 
L 3078 897 
L 2444 897 
L 1241 4097 
L 1241 0 
L 628 0 
L 628 4666 
z
" transform="scale(0.015625)"/>
       <path id="DejaVuSans-47" d="M 3809 666 
L 3809 1919 
L 2778 1919 
L 2778 2438 
L 4434 2438 
L 4434 434 
Q 4069 175 3628 42 
Q 3188 -91 2688 -91 
Q 1594 -91 976 548 
Q 359 1188 359 2328 
Q 359 3472 976 4111 
Q 1594 4750 2688 4750 
Q 3144 4750 3555 4637 
Q 3966 4525 4313 4306 
L 4313 3634 
Q 3963 3931 3569 4081 
Q 3175 4231 2741 4231 
Q 1884 4231 1454 3753 
Q 1025 3275 1025 2328 
Q 1025 1384 1454 906 
Q 1884 428 2741 428 
Q 3075 428 3337 486 
Q 3600 544 3809 666 
z
" transform="scale(0.015625)"/>
       <path id="DejaVuSans-4f" d="M 2522 4238 
Q 1834 4238 1429 3725 
Q 1025 3213 1025 2328 
Q 1025 1447 1429 934 
Q 1834 422 2522 422 
Q 3209 422 3611 934 
Q 4013 1447 4013 2328 
Q 4013 3213 3611 3725 
Q 3209 4238 2522 4238 
z
M 2522 4750 
Q 3503 4750 4090 4092 
Q 4678 3434 4678 2328 
Q 4678 1225 4090 567 
Q 3503 -91 2522 -91 
Q 1538 -91 948 565 
Q 359 1222 359 2328 
Q 359 3434 948 4092 
Q 1538 4750 2522 4750 
z
" transform="scale(0.015625)"/>
      </defs>
      <use xlink:href="#DejaVuSans-4d"/>
      <use xlink:href="#DejaVuSans-47" transform="translate(86.279297 0)"/>
      <use xlink:href="#DejaVuSans-4f" transform="translate(163.769531 0)"/>
     </g>
    </g>
   </g>
   <g id="matplotlib.axis_2">
    <g id="ytick_1">
     <g id="line2d_11">
      <path d="M 43.78125 314.918125 
L 417.17125 314.918125 
" clip-path="url(#pa4537ac17d)" style="fill: none; stroke: #b0b0b0; stroke-opacity: 0.3; stroke-width: 0.8; stroke-linecap: square"/>
     </g>
     <g id="line2d_12">
      <defs>
       <path id="m67411bc99b" d="M 0 0 
L -3.5 0 
" style="stroke: #000000; stroke-width: 0.8"/>
      </defs>
      <g>
       <use xlink:href="#m67411bc99b" x="43.78125" y="314.918125" style="stroke: #000000; stroke-width: 0.8"/>
      </g>
     </g>
     <g id="text_7">
      <!-- 0.0 -->
      <g transform="translate(20.878125 318.717344) scale(0.1 -0.1)">
       <defs>
        <path id="DejaVuSans-2e" d="M 684 794 
L 1344 794 
L 1344 0 
L 684 0 
L 684 794 
z
" transform="scale(0.015625)"/>
       </defs>
       <use xlink:href="#DejaVuSans-30"/>
       <use xlink:href="#DejaVuSans-2e" transform="translate(63.623047 0)"/>
       <use xlink:href="#DejaVuSans-30" transform="translate(95.410156 0)"/>
      </g>
     </g>
    </g>
    <g id="ytick_2">
     <g id="line2d_13">
      <path d="M 43.78125 256.398125 
L 417.17125 256.398125 
" clip-path="url(#pa4537ac17d)" style="fill: none; stroke: #b0b0b0; stroke-opacity: 0.3; stroke-width: 0.8; stroke-linecap: square"/>
     </g>
     <g id="line2d_14">
      <g>
       <use xlink:href="#m67411bc99b" x="43.78125" y="256.398125" style="stroke: #000000; stroke-width: 0.8"/>
      </g>
     </g>
     <g id="text_8">
      <!-- 0.2 -->
      <g transform="translate(20.878125 260.197344) scale(0.1 -0.1)">
       <use xlink:href="#DejaVuSans-30"/>
       <use xlink:href="#DejaVuSans-2e" transform="translate(63.623047 0)"/>
       <use xlink:href="#DejaVuSans-32" transform="translate(95.410156 0)"/>
      </g>
     </g>
    </g>
    <g id="ytick_3">
     <g id="line2d_15">
      <path d="M 43.78125 197.878125 
L 417.17125 197.878125 
" clip-path="url(#pa4537ac17d)" style="fill: none; stroke: #b0b0b0; stroke-opacity: 0.3; stroke-width: 0.8; stroke-linecap: square"/>
     </g>
     <g id="line2d_16">
      <g>
       <use xlink:href="#m67411bc99b" x="43.78125" y="197.878125" style="stroke: #000000; stroke-width: 0.8"/>
      </g>
     </g>
     <g id="text_9">
      <!-- 0.4 -->
      <g transform="translate(20.878125 201.677344) scale(0.1 -0.1)">
       <use xlink:href="#DejaVuSans-30"/>
       <use xlink:href="#DejaVuSans-2e" transform="translate(63.623047 0)"/>
       <use xlink:href="#DejaVuSans-34" transform="translate(95.410156 0)"/>
      </g>
     </g>
    </g>
    <g id="ytick_4">
     <g id="line2d_17">
      <path d="M 43.78125 139.358125 
L 417.17125 139.358125 
" clip-path="url(#pa4537ac17d)" style="fill: none; stroke: #b0b0b0; stroke-opacity: 0.3; stroke-width: 0.8; stroke-linecap: square"/>
     </g>
     <g id="line2d_18">
      <g>
       <use xlink:href="#m67411bc99b" x="43.78125" y="139.358125" style="stroke: #000000; stroke-width: 0.8"/>
      </g>
     </g>
     <g id="text_10">
      <!-- 0.6 -->
      <g transform="translate(20.878125 143.157344) scale(0.1 -0.1)">
       <use xlink:href="#DejaVuSans-30"/>
       <use xlink:href="#DejaVuSans-2e" transform="translate(63.623047 0)"/>
       <use xlink:href="#DejaVuSans-36" transform="translate(95.410156 0)"/>
      </g>
     </g>
    </g>
    <g id="ytick_5">
     <g id="line2d_19">
      <path d="M 43.78125 80.838125 
L 417.17125 80.838125 
" clip-path="url(#pa4537ac17d)" style="fill: none; stroke: #b0b0b0; stroke-opacity: 0.3; stroke-width: 0.8; stroke-linecap: square"/>
     </g>
     <g id="line2d_20">
      <g>
       <use xlink:href="#m67411bc99b" x="43.78125" y="80.838125" style="stroke: #000000; stroke-width: 0.8"/>
      </g>
     </g>
     <g id="text_11">
      <!-- 0.8 -->
      <g transform="translate(20.878125 84.637344) scale(0.1 -0.1)">
       <use xlink:href="#DejaVuSans-30"/>
       <use xlink:href="#DejaVuSans-2e" transform="translate(63.623047 0)"/>
       <use xlink:href="#DejaVuSans-38" transform="translate(95.410156 0)"/>
      </g>
     </g>
    </g>
    <g id="ytick_6">
     <g id="line2d_21">
      <path d="M 43.78125 22.318125 
L 417.17125 22.318125 
" clip-path="url(#pa4537ac17d)" style="fill: none; stroke: #b0b0b0; stroke-opacity: 0.3; stroke-width: 0.8; stroke-linecap: square"/>
     </g>
     <g id="line2d_22">
      <g>
       <use xlink:href="#m67411bc99b" x="43.78125" y="22.318125" style="stroke: #000000; stroke-width: 0.8"/>
      </g>
     </g>
     <g id="text_12">
      <!-- 1.0 -->
      <g transform="translate(20.878125 26.117344) scale(0.1 -0.1)">
       <defs>
        <path id="DejaVuSans-31" d="M 794 531 
L 1825 531 
L 1825 4091 
L 703 3866 
L 703 4441 
L 1819 4666 
L 2450 4666 
L 2450 531 
L 3481 531 
L 3481 0 
L 794 0 
L 794 531 
z
" transform="scale(0.015625)"/>
       </defs>
       <use xlink:href="#DejaVuSans-31"/>
       <use xlink:href="#DejaVuSans-2e" transform="translate(63.623047 0)"/>
       <use xlink:href="#DejaVuSans-30" transform="translate(95.410156 0)"/>
      </g>
     </g>
    </g>
    <g id="text_13">
     <!-- Cumulative Probability -->
     <g transform="translate(14.798438 225.173594) rotate(-90) scale(0.1 -0.1)">
      <defs>
       <path id="DejaVuSans-43" d="M 4122 4306 
L 4122 3641 
Q 3803 3938 3442 4084 
Q 3081 4231 2675 4231 
Q 1875 4231 1450 3742 
Q 1025 3253 1025 2328 
Q 1025 1406 1450 917 
Q 1875 428 2675 428 
Q 3081 428 3442 575 
Q 3803 722 4122 1019 
L 4122 359 
Q 3791 134 3420 21 
Q 3050 -91 2638 -91 
Q 1578 -91 968 557 
Q 359 1206 359 2328 
Q 359 3453 968 4101 
Q 1578 4750 2638 4750 
Q 3056 4750 3426 4639 
Q 3797 4528 4122 4306 
z
" transform="scale(0.015625)"/>
       <path id="DejaVuSans-75" d="M 544 1381 
L 544 3500 
L 1119 3500 
L 1119 1403 
Q 1119 906 1312 657 
Q 1506 409 1894 409 
Q 2359 409 2629 706 
Q 2900 1003 2900 1516 
L 2900 3500 
L 3475 3500 
L 3475 0 
L 2900 0 
L 2900 538 
Q 2691 219 2414 64 
Q 2138 -91 1772 -91 
Q 1169 -91 856 284 
Q 544 659 544 1381 
z
M 1991 3584 
L 1991 3584 
z
" transform="scale(0.015625)"/>
       <path id="DejaVuSans-6d" d="M 3328 2828 
Q 3544 3216 3844 3400 
Q 4144 3584 4550 3584 
Q 5097 3584 5394 3201 
Q 5691 2819 5691 2113 
L 5691 0 
L 5113 0 
L 5113 2094 
Q 5113 2597 4934 2840 
Q 4756 3084 4391 3084 
Q 3944 3084 3684 2787 
Q 3425 2491 3425 1978 
L 3425 0 
L 2847 0 
L 2847 2094 
Q 2847 2600 2669 2842 
Q 2491 3084 2119 3084 
Q 1678 3084 1418 2786 
Q 1159 2488 1159 1978 
L 1159 0 
L 581 0 
L 581 3500 
L 1159 3500 
L 1159 2956 
Q 1356 3278 1631 3431 
Q 1906 3584 2284 3584 
Q 2666 3584 2933 3390 
Q 3200 3197 3328 2828 
z
" transform="scale(0.015625)"/>
       <path id="DejaVuSans-6c" d="M 603 4863 
L 1178 4863 
L 1178 0 
L 603 0 
L 603 4863 
z
" transform="scale(0.015625)"/>
       <path id="DejaVuSans-61" d="M 2194 1759 
Q 1497 1759 1228 1600 
Q 959 1441 959 1056 
Q 959 750 1161 570 
Q 1363 391 1709 391 
Q 2188 391 2477 730 
Q 2766 1069 2766 1631 
L 2766 1759 
L 2194 1759 
z
M 3341 1997 
L 3341 0 
L 2766 0 
L 2766 531 
Q 2569 213 2275 61 
Q 1981 -91 1556 -91 
Q 1019 -91 701 211 
Q 384 513 384 1019 
Q 384 1609 779 1909 
Q 1175 2209 1959 2209 
L 2766 2209 
L 2766 2266 
Q 2766 2663 2505 2880 
Q 2244 3097 1772 3097 
Q 1472 3097 1187 3025 
Q 903 2953 641 2809 
L 641 3341 
Q 956 3463 1253 3523 
Q 1550 3584 1831 3584 
Q 2591 3584 2966 3190 
Q 3341 2797 3341 1997 
z
" transform="scale(0.015625)"/>
       <path id="DejaVuSans-74" d="M 1172 4494 
L 1172 3500 
L 2356 3500 
L 2356 3053 
L 1172 3053 
L 1172 1153 
Q 1172 725 1289 603 
Q 1406 481 1766 481 
L 2356 481 
L 2356 0 
L 1766 0 
Q 1100 0 847 248 
Q 594 497 594 1153 
L 594 3053 
L 172 3053 
L 172 3500 
L 594 3500 
L 594 4494 
L 1172 4494 
z
" transform="scale(0.015625)"/>
       <path id="DejaVuSans-69" d="M 603 3500 
L 1178 3500 
L 1178 0 
L 603 0 
L 603 3500 
z
M 603 4863 
L 1178 4863 
L 1178 4134 
L 603 4134 
L 603 4863 
z
" transform="scale(0.015625)"/>
       <path id="DejaVuSans-76" d="M 191 3500 
L 800 3500 
L 1894 563 
L 2988 3500 
L 3597 3500 
L 2284 0 
L 1503 0 
L 191 3500 
z
" transform="scale(0.015625)"/>
       <path id="DejaVuSans-65" d="M 3597 1894 
L 3597 1613 
L 953 1613 
Q 991 1019 1311 708 
Q 1631 397 2203 397 
Q 2534 397 2845 478 
Q 3156 559 3463 722 
L 3463 178 
Q 3153 47 2828 -22 
Q 2503 -91 2169 -91 
Q 1331 -91 842 396 
Q 353 884 353 1716 
Q 353 2575 817 3079 
Q 1281 3584 2069 3584 
Q 2775 3584 3186 3129 
Q 3597 2675 3597 1894 
z
M 3022 2063 
Q 3016 2534 2758 2815 
Q 2500 3097 2075 3097 
Q 1594 3097 1305 2825 
Q 1016 2553 972 2059 
L 3022 2063 
z
" transform="scale(0.015625)"/>
       <path id="DejaVuSans-20" transform="scale(0.015625)"/>
       <path id="DejaVuSans-50" d="M 1259 4147 
L 1259 2394 
L 2053 2394 
Q 2494 2394 2734 2622 
Q 2975 2850 2975 3272 
Q 2975 3691 2734 3919 
Q 2494 4147 2053 4147 
L 1259 4147 
z
M 628 4666 
L 2053 4666 
Q 2838 4666 3239 4311 
Q 3641 3956 3641 3272 
Q 3641 2581 3239 2228 
Q 2838 1875 2053 1875 
L 1259 1875 
L 1259 0 
L 628 0 
L 628 4666 
z
" transform="scale(0.015625)"/>
       <path id="DejaVuSans-72" d="M 2631 2963 
Q 2534 3019 2420 3045 
Q 2306 3072 2169 3072 
Q 1681 3072 1420 2755 
Q 1159 2438 1159 1844 
L 1159 0 
L 581 0 
L 581 3500 
L 1159 3500 
L 1159 2956 
Q 1341 3275 1631 3429 
Q 1922 3584 2338 3584 
Q 2397 3584 2469 3576 
Q 2541 3569 2628 3553 
L 2631 2963 
z
" transform="scale(0.015625)"/>
       <path id="DejaVuSans-6f" d="M 1959 3097 
Q 1497 3097 1228 2736 
Q 959 2375 959 1747 
Q 959 1119 1226 758 
Q 1494 397 1959 397 
Q 2419 397 2687 759 
Q 2956 1122 2956 1747 
Q 2956 2369 2687 2733 
Q 2419 3097 1959 3097 
z
M 1959 3584 
Q 2709 3584 3137 3096 
Q 3566 2609 3566 1747 
Q 3566 888 3137 398 
Q 2709 -91 1959 -91 
Q 1206 -91 779 398 
Q 353 888 353 1747 
Q 353 2609 779 3096 
Q 1206 3584 1959 3584 
z
" transform="scale(0.015625)"/>
       <path id="DejaVuSans-62" d="M 3116 1747 
Q 3116 2381 2855 2742 
Q 2594 3103 2138 3103 
Q 1681 3103 1420 2742 
Q 1159 2381 1159 1747 
Q 1159 1113 1420 752 
Q 1681 391 2138 391 
Q 2594 391 2855 752 
Q 3116 1113 3116 1747 
z
M 1159 2969 
Q 1341 3281 1617 3432 
Q 1894 3584 2278 3584 
Q 2916 3584 3314 3078 
Q 3713 2572 3713 1747 
Q 3713 922 3314 415 
Q 2916 -91 2278 -91 
Q 1894 -91 1617 61 
Q 1341 213 1159 525 
L 1159 0 
L 581 0 
L 581 4863 
L 1159 4863 
L 1159 2969 
z
" transform="scale(0.015625)"/>
       <path id="DejaVuSans-79" d="M 2059 -325 
Q 1816 -950 1584 -1140 
Q 1353 -1331 966 -1331 
L 506 -1331 
L 506 -850 
L 844 -850 
Q 1081 -850 1212 -737 
Q 1344 -625 1503 -206 
L 1606 56 
L 191 3500 
L 800 3500 
L 1894 763 
L 2988 3500 
L 3597 3500 
L 2059 -325 
z
" transform="scale(0.015625)"/>
      </defs>
      <use xlink:href="#DejaVuSans-43"/>
      <use xlink:href="#DejaVuSans-75" transform="translate(69.824219 0)"/>
      <use xlink:href="#DejaVuSans-6d" transform="translate(133.203125 0)"/>
      <use xlink:href="#DejaVuSans-75" transform="translate(230.615234 0)"/>
      <use xlink:href="#DejaVuSans-6c" transform="translate(293.994141 0)"/>
      <use xlink:href="#DejaVuSans-61" transform="translate(321.777344 0)"/>
      <use xlink:href="#DejaVuSans-74" transform="translate(383.056641 0)"/>
      <use xlink:href="#DejaVuSans-69" transform="translate(422.265625 0)"/>
      <use xlink:href="#DejaVuSans-76" transform="translate(450.048828 0)"/>
      <use xlink:href="#DejaVuSans-65" transform="translate(509.228516 0)"/>
      <use xlink:href="#DejaVuSans-20" transform="translate(570.751953 0)"/>
      <use xlink:href="#DejaVuSans-50" transform="translate(602.539062 0)"/>
      <use xlink:href="#DejaVuSans-72" transform="translate(661.091797 0)"/>
      <use xlink:href="#DejaVuSans-6f" transform="translate(699.955078 0)"/>
      <use xlink:href="#DejaVuSans-62" transform="translate(761.136719 0)"/>
      <use xlink:href="#DejaVuSans-61" transform="translate(824.613281 0)"/>
      <use xlink:href="#DejaVuSans-62" transform="translate(885.892578 0)"/>
      <use xlink:href="#DejaVuSans-69" transform="translate(949.369141 0)"/>
      <use xlink:href="#DejaVuSans-6c" transform="translate(977.152344 0)"/>
      <use xlink:href="#DejaVuSans-69" transform="translate(1004.935547 0)"/>
      <use xlink:href="#DejaVuSans-74" transform="translate(1032.71875 0)"/>
      <use xlink:href="#DejaVuSans-79" transform="translate(1071.927734 0)"/>
     </g>
    </g>
   </g>
   <g id="line2d_23">
    <path d="M 60.753523 314.918125 
L 60.791969 313.850242 
L 60.907309 313.850242 
L 60.945756 313.049329 
L 61.061096 313.049329 
L 61.061096 312.782359 
L 61.368669 312.782359 
L 61.368669 312.515388 
L 61.484009 312.515388 
L 61.522456 311.981446 
L 61.791582 311.981446 
L 61.830029 311.180534 
L 61.906922 311.180534 
L 61.945369 310.646592 
L 62.060709 310.646592 
L 62.099155 310.112651 
L 62.214495 310.112651 
L 62.245253 309.311738 
L 62.329835 309.311738 
L 62.406729 308.243855 
L 62.445175 308.243855 
L 62.522069 307.442943 
L 62.791195 307.442943 
L 62.829642 306.375059 
L 62.906535 306.375059 
L 62.906535 305.841118 
L 63.021875 305.841118 
L 63.098768 305.040205 
L 63.137215 305.040205 
L 63.214108 304.506264 
L 63.291001 304.506264 
L 63.367895 303.972322 
L 63.444788 303.972322 
L 63.444788 303.705351 
L 63.713915 303.705351 
L 63.752361 303.17141 
L 63.867701 303.17141 
L 63.867701 302.637468 
L 64.059934 302.637468 
L 64.136828 302.103526 
L 64.213721 302.103526 
L 64.290614 300.768672 
L 64.405954 300.768672 
L 64.482848 300.234731 
L 64.598188 300.234731 
L 64.675081 299.700789 
L 64.751974 299.700789 
L 64.828867 298.899877 
L 64.867314 298.899877 
L 64.867314 298.632906 
L 64.982654 298.632906 
L 65.059547 298.098964 
L 65.097994 298.098964 
L 65.097994 297.831994 
L 65.290227 297.831994 
L 65.290227 297.565023 
L 65.405567 297.565023 
L 65.405567 297.298052 
L 65.559354 297.298052 
L 65.636247 296.49714 
L 65.751587 296.49714 
L 65.82848 295.963198 
L 65.905374 295.963198 
L 65.982267 295.429256 
L 66.097607 295.429256 
L 66.1745 294.628344 
L 66.247549 294.628344 
L 66.297529 293.827432 
L 66.362889 293.827432 
L 66.40518 293.026519 
L 66.52052 293.026519 
L 66.52052 292.759548 
L 66.69353 292.759548 
L 66.712753 292.225607 
L 66.904986 292.225607 
L 66.98188 291.691665 
L 67.404793 291.691665 
L 67.481686 291.157724 
L 67.635473 291.157724 
L 67.635473 290.623782 
L 67.846929 290.623782 
L 67.943046 290.08984 
L 68.000716 290.08984 
L 68.000716 289.82287 
L 68.135279 289.82287 
L 68.173726 289.288928 
L 68.404406 289.288928 
L 68.404406 288.754986 
L 68.519746 288.754986 
L 68.558192 287.954074 
L 68.788872 287.954074 
L 68.881144 287.420132 
L 68.942659 287.420132 
L 68.981105 286.886191 
L 69.134892 286.886191 
L 69.173339 286.352249 
L 69.365572 286.352249 
L 69.365572 286.085278 
L 69.673145 286.085278 
L 69.673145 285.818307 
L 69.819242 285.818307 
L 69.819242 285.551337 
L 70.096058 285.551337 
L 70.103748 285.017395 
L 70.288291 285.017395 
L 70.288291 284.750424 
L 70.480525 284.750424 
L 70.480525 284.483453 
L 70.672758 284.483453 
L 70.672758 284.216483 
L 70.941884 284.216483 
L 70.941884 283.949512 
L 71.557031 283.949512 
L 71.595477 283.41557 
L 71.864604 283.41557 
L 71.864604 283.148599 
L 72.441304 283.148599 
L 72.518197 282.614658 
L 72.729654 282.614658 
L 72.729654 282.347687 
L 73.05645 282.347687 
L 73.05645 282.080716 
L 73.17179 282.080716 
L 73.248683 281.546775 
L 73.28713 281.546775 
L 73.28713 281.279804 
L 73.613172 281.279804 
L 73.671596 280.745862 
L 73.80616 280.745862 
L 73.80616 280.478891 
L 73.940723 280.478891 
L 73.940723 279.94495 
L 74.221383 279.94495 
L 74.286743 279.144037 
L 74.363636 279.144037 
L 74.363636 278.610096 
L 75.493968 278.610096 
L 75.555482 278.076154 
L 75.786162 278.076154 
L 75.863055 277.275242 
L 75.939949 277.275242 
L 75.978395 276.7413 
L 76.259056 276.7413 
L 76.259056 276.474329 
L 76.631988 276.474329 
L 76.631988 276.207359 
L 76.901115 276.207359 
L 76.939562 275.673417 
L 77.400921 275.673417 
L 77.400921 275.406446 
L 77.977621 275.406446 
L 78.054514 274.872505 
L 78.246748 274.872505 
L 78.246748 274.605534 
L 78.362087 274.605534 
L 78.362087 274.338563 
L 78.838826 274.338563 
L 78.838826 274.071592 
L 78.977234 274.071592 
L 78.977234 273.804621 
L 79.088729 273.804621 
L 79.088729 273.537651 
L 79.82306 273.537651 
L 79.82306 273.27068 
L 80.74578 273.27068 
L 80.784226 272.736738 
L 80.914945 272.736738 
L 80.914945 272.469767 
L 81.264809 272.469767 
L 81.264809 272.202797 
L 82.168306 272.202797 
L 82.212519 271.668855 
L 82.414364 271.668855 
L 82.514325 271.134913 
L 83.052579 271.134913 
L 83.052579 270.867943 
L 83.360152 270.867943 
L 83.360152 270.600972 
L 83.72155 270.600972 
L 83.744618 270.06703 
L 84.013745 270.06703 
L 84.013745 269.533089 
L 84.129085 269.533089 
L 84.205978 268.999147 
L 85.359377 268.999147 
L 85.436271 268.465205 
L 86.051417 268.465205 
L 86.089864 267.931264 
L 87.243263 267.931264 
L 87.243263 267.664293 
L 87.51239 267.664293 
L 87.589283 267.130351 
L 87.681555 267.130351 
L 87.681555 266.86338 
L 87.973749 266.86338 
L 87.973749 266.329439 
L 88.358216 266.329439 
L 88.358216 266.062468 
L 89.011809 266.062468 
L 89.011809 265.795497 
L 89.696159 265.795497 
L 89.696159 265.528526 
L 89.934529 265.528526 
L 89.934529 265.261556 
L 90.088315 265.261556 
L 90.088315 264.994585 
L 90.26517 264.994585 
L 90.26517 264.727614 
L 91.510841 264.727614 
L 91.510841 264.193672 
L 91.895308 264.193672 
L 91.895308 263.926702 
L 92.241327 263.926702 
L 92.279774 263.39276 
L 92.433561 263.39276 
L 92.433561 263.125789 
L 92.702687 263.125789 
L 92.806493 262.591848 
L 92.956051 262.591848 
L 92.956051 262.324877 
L 93.321678 262.324877 
L 93.321678 262.057906 
L 93.663853 262.057906 
L 93.663853 261.790935 
L 95.201719 261.790935 
L 95.201719 261.523964 
L 95.432399 261.523964 
L 95.509292 260.990023 
L 95.789953 260.990023 
L 95.855312 260.18911 
L 95.970652 260.18911 
L 95.970652 259.92214 
L 96.239779 259.92214 
L 96.239779 259.388198 
L 96.854925 259.388198 
L 96.854925 259.121227 
L 97.162498 259.121227 
L 97.162498 258.587286 
L 97.316285 258.587286 
L 97.354732 258.053344 
L 97.546965 258.053344 
L 97.546965 257.786373 
L 97.662305 257.786373 
L 97.662305 257.519402 
L 98.796481 257.519402 
L 98.865685 256.985461 
L 99.007937 256.985461 
L 99.084831 256.451519 
L 99.277064 256.451519 
L 99.353957 255.650607 
L 99.846074 255.650607 
L 99.846074 255.383636 
L 100.35357 255.383636 
L 100.430463 254.315753 
L 100.507357 254.315753 
L 100.507357 254.048782 
L 100.776483 254.048782 
L 100.776483 253.781811 
L 100.93027 253.781811 
L 100.93027 253.51484 
L 101.468523 253.51484 
L 101.545416 252.980899 
L 101.737649 252.980899 
L 101.843378 251.913016 
L 101.987553 251.913016 
L 102.006776 250.845132 
L 102.660369 250.845132 
L 102.698816 250.311191 
L 103.467749 250.311191 
L 103.544642 249.510278 
L 103.621535 249.510278 
L 103.621535 249.243307 
L 103.852215 249.243307 
L 103.852215 248.709366 
L 104.006002 248.709366 
L 104.036759 247.908453 
L 104.159788 247.908453 
L 104.251676 247.374512 
L 104.525031 247.374512 
L 104.525031 247.107541 
L 105.105576 247.107541 
L 105.105576 246.84057 
L 105.251673 246.84057 
L 105.251673 246.573599 
L 105.582314 246.573599 
L 105.659208 246.039658 
L 105.889887 246.039658 
L 105.889887 245.505716 
L 106.043674 245.505716 
L 106.043674 245.238745 
L 106.235907 245.238745 
L 106.312801 243.903891 
L 106.389694 243.903891 
L 106.389694 243.636921 
L 106.54348 243.636921 
L 106.54348 243.36995 
L 106.735714 243.36995 
L 106.735714 243.102979 
L 106.851054 243.102979 
L 106.851054 242.569037 
L 107.23552 242.569037 
L 107.312413 242.035096 
L 107.389307 242.035096 
L 107.4662 241.234183 
L 107.504647 241.234183 
L 107.543093 240.700242 
L 107.619987 240.700242 
L 107.619987 240.433271 
L 107.846822 240.433271 
L 107.850666 239.632359 
L 107.966006 239.632359 
L 107.966006 239.365388 
L 108.235133 239.365388 
L 108.312026 238.831446 
L 108.581153 238.831446 
L 108.619599 238.297505 
L 108.696493 238.297505 
L 108.696493 238.030534 
L 109.311639 238.030534 
L 109.311639 237.763563 
L 109.657659 237.763563 
L 109.759543 236.69568 
L 109.888339 236.69568 
L 109.965232 235.894767 
L 109.999834 235.894767 
L 110.003679 235.360826 
L 110.157465 235.360826 
L 110.157465 234.826884 
L 110.426592 234.826884 
L 110.426592 234.559913 
L 110.657272 234.559913 
L 110.734165 233.759001 
L 110.887952 233.759001 
L 110.887952 233.225059 
L 111.157078 233.225059 
L 111.157078 232.958089 
L 111.310865 232.958089 
L 111.310865 232.691118 
L 111.566535 232.691118 
L 111.656885 231.890205 
L 111.849118 231.890205 
L 111.849118 231.356264 
L 112.002904 231.356264 
L 112.099021 230.822322 
L 112.149002 230.822322 
L 112.149002 230.555351 
L 112.267033 230.555351 
L 112.310478 230.02141 
L 112.464264 230.02141 
L 112.464264 229.754439 
L 112.579604 229.754439 
L 112.579604 229.487468 
L 112.841041 229.487468 
L 112.841041 229.220497 
L 113.233197 229.220497 
L 113.233197 228.953526 
L 113.348537 228.953526 
L 113.348537 228.686556 
L 113.559994 228.686556 
L 113.65611 228.152614 
L 113.694557 228.152614 
L 113.77145 227.351702 
L 114.079023 227.351702 
L 114.079023 227.084731 
L 114.271257 227.084731 
L 114.271257 226.81776 
L 114.69417 226.81776 
L 114.69417 226.283818 
L 114.972847 226.283818 
L 114.972847 226.016848 
L 115.09786 226.016848 
L 115.09786 225.749877 
L 115.424656 225.749877 
L 115.463103 224.681994 
L 115.616889 224.681994 
L 115.616889 224.148052 
L 115.732229 224.148052 
L 115.736074 223.61411 
L 116.078249 223.61411 
L 116.078249 223.34714 
L 116.258948 223.34714 
L 116.347376 222.813198 
L 116.385822 222.813198 
L 116.462716 221.745315 
L 116.501162 221.745315 
L 116.578056 221.211373 
L 116.616502 221.211373 
L 116.616502 220.944402 
L 116.731842 220.944402 
L 116.731842 220.410461 
L 117.077862 220.410461 
L 117.077862 220.14349 
L 117.346988 220.14349 
L 117.423882 219.075607 
L 118.192815 219.075607 
L 118.192815 218.808636 
L 118.807961 218.808636 
L 118.807961 218.274694 
L 118.923301 218.274694 
L 118.923301 218.007724 
L 119.200117 218.007724 
L 119.200117 217.740753 
L 119.722991 217.740753 
L 119.752595 217.206811 
L 120.038254 217.206811 
L 120.038254 216.93984 
L 120.268934 216.93984 
L 120.268934 216.67287 
L 120.614954 216.67287 
L 120.630332 216.138928 
L 120.807187 216.138928 
L 120.807187 215.604986 
L 121.037867 215.604986 
L 121.141673 214.804074 
L 121.191653 214.804074 
L 121.191653 214.537103 
L 121.599188 214.537103 
L 121.599188 214.003161 
L 121.8068 214.003161 
L 121.8068 213.736191 
L 121.960586 213.736191 
L 121.960586 213.46922 
L 122.091305 213.46922 
L 122.191266 212.668307 
L 122.345053 212.668307 
L 122.345053 212.401337 
L 122.537286 212.401337 
L 122.537286 212.134366 
L 122.729519 212.134366 
L 122.729519 211.867395 
L 122.929442 211.867395 
L 122.960199 211.333453 
L 123.113986 211.333453 
L 123.113986 211.066483 
L 123.410025 211.066483 
L 123.410025 210.799512 
L 123.852161 210.799512 
L 123.882919 210.26557 
L 124.125133 210.26557 
L 124.228938 209.731629 
L 124.382725 209.731629 
L 124.382725 209.464658 
L 124.536512 209.464658 
L 124.574958 208.930716 
L 124.651852 208.930716 
L 124.728745 208.129804 
L 124.844085 208.129804 
L 124.920978 207.595862 
L 125.074765 207.595862 
L 125.074765 207.328891 
L 125.190105 207.328891 
L 125.190105 207.061921 
L 125.355425 207.061921 
L 125.382338 206.527979 
L 125.477686 206.527979 
L 125.555348 205.994037 
L 125.651464 205.994037 
L 125.651464 205.727067 
L 126.035931 205.727067 
L 126.035931 205.460096 
L 126.189717 205.460096 
L 126.285834 204.659183 
L 126.462689 204.659183 
L 126.462689 204.392213 
L 126.574184 204.392213 
L 126.574184 204.125242 
L 126.843311 204.125242 
L 126.843311 203.858271 
L 127.150884 203.858271 
L 127.150884 203.324329 
L 127.496904 203.324329 
L 127.562263 202.523417 
L 127.689137 202.523417 
L 127.689137 202.256446 
L 127.88137 202.256446 
L 127.958263 201.188563 
L 127.99671 201.188563 
L 128.035157 200.387651 
L 128.150497 200.387651 
L 128.22739 199.853709 
L 128.381176 199.853709 
L 128.381176 199.586738 
L 128.727196 199.586738 
L 128.727196 199.319767 
L 129.073216 199.319767 
L 129.150109 198.785826 
L 129.265449 198.785826 
L 129.342343 198.251884 
L 129.380789 198.251884 
L 129.380789 197.717943 
L 129.649916 197.717943 
L 129.726809 196.91703 
L 129.922887 196.91703 
L 129.995936 196.383089 
L 130.649529 196.383089 
L 130.726422 195.849147 
L 130.841762 195.849147 
L 130.880209 195.048234 
L 131.187782 195.048234 
L 131.26083 194.247322 
L 131.372326 194.247322 
L 131.372326 193.980351 
L 131.495355 193.980351 
L 131.591472 193.44641 
L 131.610695 193.44641 
L 131.610695 193.179439 
L 131.918268 193.179439 
L 132.025283 192.378526 
L 132.033608 192.378526 
L 132.033608 192.111556 
L 132.156637 192.111556 
L 132.156637 191.844585 
L 132.418074 191.844585 
L 132.418074 191.577614 
L 132.571861 191.577614 
L 132.648754 191.043672 
L 132.687201 191.043672 
L 132.767939 190.24276 
L 132.917881 190.24276 
L 132.917881 189.975789 
L 133.379241 189.975789 
L 133.379241 189.708818 
L 133.686814 189.708818 
L 133.713342 189.174877 
L 133.8406 189.174877 
L 133.8406 188.640935 
L 133.971319 188.640935 
L 133.994387 188.106994 
L 134.109727 188.106994 
L 134.19431 186.77214 
L 134.413455 186.77214 
L 134.413455 186.505169 
L 134.551863 186.505169 
L 134.551863 186.238198 
L 134.682582 186.238198 
L 134.724873 185.704256 
L 135.236214 185.704256 
L 135.236214 185.437286 
L 135.378466 185.437286 
L 135.378466 185.170315 
L 135.724486 185.170315 
L 135.791768 184.636373 
L 135.839826 184.636373 
L 135.939787 183.56849 
L 136.185846 183.56849 
L 136.262739 182.500607 
L 136.339633 182.500607 
L 136.447283 181.966665 
L 136.724099 181.966665 
L 136.724099 181.699694 
L 136.954779 181.699694 
L 137.056278 180.631811 
L 137.070119 180.631811 
L 137.093187 180.09787 
L 137.377692 180.09787 
L 137.410372 179.563928 
L 137.608372 179.563928 
L 137.685265 178.763016 
L 137.877498 178.763016 
L 137.973615 177.962103 
L 137.991685 177.962103 
L 137.991685 177.695132 
L 138.146625 177.695132 
L 138.146625 177.428161 
L 138.492645 177.428161 
L 138.569538 176.89422 
L 138.619519 176.89422 
L 138.646431 176.360278 
L 138.792529 176.360278 
L 138.792529 176.093307 
L 138.915558 176.093307 
L 138.946315 175.559366 
L 139.300024 175.559366 
L 139.300024 175.292395 
L 139.453811 175.292395 
L 139.453811 174.758453 
L 139.569151 174.758453 
L 139.607598 173.957541 
L 139.722938 173.957541 
L 139.722938 173.156629 
L 139.915171 173.156629 
L 139.953617 172.622687 
L 140.030511 172.622687 
L 140.030511 172.355716 
L 140.145851 172.355716 
L 140.145851 170.753891 
L 140.315016 170.753891 
L 140.403443 169.686008 
L 140.491871 169.686008 
L 140.568764 168.618125 
L 140.684104 168.618125 
L 140.684104 168.351154 
L 140.799444 168.351154 
L 140.867465 167.550242 
L 141.303095 167.550242 
L 141.406901 167.0163 
L 141.64527 167.0163 
L 141.672183 166.215388 
L 142.33731 166.215388 
L 142.33731 165.948417 
L 142.711396 165.948417 
L 142.721776 165.414475 
L 142.971679 165.414475 
L 143.05719 164.613563 
L 143.106243 164.613563 
L 143.106243 164.346592 
L 143.260029 164.346592 
L 143.260029 163.812651 
L 143.567602 163.812651 
L 143.644496 163.278709 
L 144.182749 163.278709 
L 144.182749 163.011738 
L 144.523002 163.011738 
L 144.567215 162.477797 
L 144.644109 162.477797 
L 144.644109 162.210826 
L 144.759448 162.210826 
L 144.759448 161.943855 
L 144.874788 161.943855 
L 144.874788 161.676884 
L 145.097779 161.676884 
L 145.143915 160.875972 
L 145.220808 160.875972 
L 145.25541 160.075059 
L 145.355371 160.075059 
L 145.355371 159.808089 
L 145.574517 159.808089 
L 145.682168 159.274147 
L 145.720615 159.274147 
L 145.797508 158.473234 
L 146.181974 158.473234 
L 146.23803 157.939293 
L 146.604888 157.939293 
L 146.627956 157.405351 
L 146.745218 157.405351 
L 146.745218 157.13838 
L 146.950907 157.13838 
L 147.027801 155.803526 
L 147.066247 155.803526 
L 147.066247 155.536556 
L 147.364209 155.536556 
L 147.364209 155.269585 
L 147.83518 155.269585 
L 147.873627 154.735643 
L 147.95052 154.735643 
L 148.027414 153.934731 
L 148.29654 153.934731 
L 148.29654 153.66776 
L 148.478393 153.66776 
L 148.565667 152.866848 
L 148.604113 152.866848 
L 148.621414 152.332906 
L 148.727143 152.332906 
L 148.796346 150.998052 
L 149.065473 150.998052 
L 149.065473 150.731081 
L 149.642173 150.731081 
L 149.642173 149.930169 
L 149.757513 149.930169 
L 149.757513 149.663198 
L 149.911299 149.663198 
L 149.988193 148.595315 
L 150.141979 148.595315 
L 150.199649 148.061373 
L 150.257319 148.061373 
L 150.257319 147.794402 
L 150.411106 147.794402 
L 150.487999 146.99349 
L 150.641786 146.99349 
L 150.680232 145.658636 
L 150.791728 145.658636 
L 150.791728 145.391665 
L 151.141592 145.391665 
L 151.237709 144.590753 
L 151.256932 144.590753 
L 151.306913 144.056811 
L 151.449165 144.056811 
L 151.449165 143.78984 
L 151.718292 143.78984 
L 151.718292 143.255899 
L 151.915578 143.255899 
L 151.915578 142.988928 
L 152.027595 142.988928 
L 152.027595 142.721957 
L 152.141205 142.721957 
L 152.19503 142.188016 
L 152.294991 142.188016 
L 152.294991 141.921045 
L 152.410331 141.921045 
L 152.410331 141.654074 
L 152.690992 141.654074 
L 152.794798 140.853161 
L 152.910138 140.853161 
L 153.010099 140.052249 
L 153.025478 140.052249 
L 153.025478 139.518307 
L 153.140818 139.518307 
L 153.140818 139.251337 
L 153.256158 139.251337 
L 153.333051 138.717395 
L 153.459925 138.717395 
L 153.563731 137.916483 
L 153.702139 137.916483 
L 153.748275 137.382541 
L 153.871304 137.382541 
L 153.871304 137.11557 
L 154.135432 137.11557 
L 154.140431 136.581629 
L 154.563344 136.581629 
L 154.640237 136.047687 
L 154.794024 136.047687 
L 154.794024 135.780716 
L 154.909363 135.780716 
L 154.924742 134.979804 
L 155.066995 134.979804 
L 155.068917 134.445862 
L 155.451461 134.445862 
L 155.451461 134.178891 
L 155.63985 134.178891 
L 155.63985 133.64495 
L 155.847462 133.64495 
L 155.932044 132.844037 
L 155.98587 132.844037 
L 155.98587 132.577067 
L 156.10121 132.577067 
L 156.139656 131.776154 
L 156.322278 131.776154 
L 156.331889 131.242213 
L 156.447229 131.242213 
L 156.447229 130.975242 
L 156.750958 130.975242 
L 156.750958 130.708271 
L 156.947036 130.708271 
L 157.023929 129.907359 
L 157.293056 129.907359 
L 157.293056 129.640388 
L 157.523736 129.640388 
L 157.523736 129.373417 
L 157.833616 129.373417 
L 157.833616 129.106446 
L 157.97171 129.106446 
L 157.97171 128.839475 
L 158.331115 128.839475 
L 158.331115 128.572505 
L 158.446455 128.572505 
L 158.446455 128.305534 
L 158.646378 128.305534 
L 158.677135 127.771592 
L 158.792475 127.771592 
L 158.869368 126.97068 
L 158.980864 126.97068 
L 159.015987 126.436738 
L 159.468786 126.436738 
L 159.546029 125.902797 
L 159.676748 125.902797 
L 159.709892 125.101884 
L 159.830534 125.101884 
L 159.830534 124.834913 
L 159.945874 124.834913 
L 160.055857 124.300972 
L 160.061214 124.300972 
L 160.138108 123.500059 
L 160.176554 123.500059 
L 160.241914 122.432176 
L 160.399545 122.432176 
L 160.484127 121.631264 
L 160.516807 121.631264 
L 160.614846 121.097322 
L 160.830147 121.097322 
L 160.93972 120.29641 
L 161.130031 120.29641 
L 161.130031 120.029439 
L 161.301888 120.029439 
L 161.3684 119.495497 
L 161.59908 119.495497 
L 161.675974 118.694585 
L 161.852828 118.694585 
L 161.906653 117.893672 
L 161.983547 117.893672 
L 162.079663 117.359731 
L 162.098887 117.359731 
L 162.098887 116.825789 
L 162.253058 116.825789 
L 162.253058 116.558818 
L 162.598693 116.558818 
L 162.63714 116.024877 
L 162.772856 116.024877 
L 162.772856 115.490935 
L 163.136946 115.490935 
L 163.136946 115.223964 
L 163.252286 115.223964 
L 163.252286 114.690023 
L 163.406073 114.690023 
L 163.406073 114.156081 
L 163.847703 114.156081 
L 163.944326 113.62214 
L 164.021219 113.62214 
L 164.059666 113.088198 
L 164.213452 113.088198 
L 164.213452 112.821227 
L 164.386462 112.821227 
L 164.386462 112.554256 
L 164.893958 112.554256 
L 164.893958 112.287286 
L 165.020832 112.287286 
L 165.041978 111.486373 
L 165.20922 111.486373 
L 165.263046 110.952432 
L 165.328405 110.952432 
L 165.328405 110.685461 
L 165.6206 110.685461 
L 165.67827 109.884548 
L 165.828212 109.884548 
L 165.828212 109.617578 
L 166.020445 109.617578 
L 166.020445 109.350607 
L 166.289571 109.350607 
L 166.366465 108.282724 
L 166.612523 108.282724 
L 166.712484 107.748782 
L 166.797067 107.748782 
L 166.81629 107.21484 
L 167.020058 107.21484 
L 167.038854 106.680899 
L 167.462194 106.680899 
L 167.462194 106.413928 
L 167.635204 106.413928 
L 167.635204 106.146957 
L 167.750544 106.146957 
L 167.782631 105.613016 
L 167.865884 105.613016 
L 167.865884 105.346045 
L 168.096564 105.346045 
L 168.161923 103.477249 
L 168.411826 103.477249 
L 168.484875 102.943307 
L 168.59637 102.943307 
L 168.684797 102.142395 
L 168.780914 102.142395 
L 168.837046 101.608453 
L 168.957769 101.608453 
L 169.05773 100.807541 
L 169.326856 100.807541 
L 169.326856 100.54057 
L 169.51909 100.54057 
L 169.51909 100.273599 
L 169.63443 100.273599 
L 169.63443 100.006629 
L 169.74977 100.006629 
L 169.74977 99.739658 
L 169.86511 99.739658 
L 169.86511 99.472687 
L 170.095789 99.472687 
L 170.095789 99.205716 
L 170.249576 99.205716 
L 170.249576 98.671775 
L 170.395673 98.671775 
L 170.481467 98.137833 
L 170.622509 98.137833 
L 170.672489 97.603891 
L 170.914703 97.603891 
L 170.914703 97.336921 
L 171.056956 97.336921 
L 171.127697 96.802979 
L 171.188059 96.802979 
L 171.249189 95.735096 
L 171.395286 95.735096 
L 171.499092 95.201154 
L 171.545228 95.201154 
L 171.545228 94.934183 
L 171.672102 94.934183 
L 171.672102 94.667213 
L 171.814355 94.667213 
L 171.820506 94.133271 
L 171.979675 94.133271 
L 171.979675 93.8663 
L 172.194976 93.8663 
L 172.194976 93.599329 
L 172.306472 93.599329 
L 172.306472 93.065388 
L 172.556375 93.065388 
L 172.594822 91.997505 
L 172.787055 91.997505 
L 172.863948 91.463563 
L 172.940841 91.463563 
L 173.017735 90.662651 
L 173.063871 90.662651 
L 173.102317 90.128709 
L 173.179211 90.128709 
L 173.179211 89.861738 
L 173.325308 89.861738 
L 173.402201 89.327797 
L 173.863561 89.327797 
L 173.863561 89.060826 
L 174.076496 89.060826 
L 174.174979 88.526884 
L 174.286474 88.526884 
L 174.286474 87.725972 
L 174.478707 87.725972 
L 174.555601 86.925059 
L 174.778591 86.925059 
L 174.863174 86.391118 
L 174.905465 86.391118 
L 174.940067 85.857176 
L 175.182281 85.857176 
L 175.209194 85.323234 
L 175.516767 85.323234 
L 175.609039 84.255351 
L 175.901233 84.255351 
L 176.001195 83.454439 
L 176.17036 83.454439 
L 176.17036 83.187468 
L 176.51638 83.187468 
L 176.57405 82.386556 
L 176.654788 82.386556 
L 176.720147 81.852614 
L 176.823953 81.852614 
L 176.823953 81.585643 
L 177.093079 81.585643 
L 177.131526 80.784731 
L 177.427565 80.784731 
L 177.427565 80.51776 
L 177.569818 80.51776 
L 177.623643 79.716848 
L 177.708226 79.716848 
L 177.708226 79.449877 
L 177.961974 79.449877 
L 178.046556 78.648964 
L 178.192653 78.648964 
L 178.284925 77.848052 
L 178.396421 77.848052 
L 178.477159 76.780169 
L 178.51945 76.780169 
L 178.627101 76.246227 
L 178.669392 76.246227 
L 178.715528 75.445315 
L 178.861625 75.445315 
L 178.861625 75.178344 
L 178.985246 75.178344 
L 179.03848 74.644402 
L 179.169198 74.644402 
L 179.169198 74.377432 
L 179.322985 74.377432 
L 179.322985 74.110461 
L 179.658624 74.110461 
L 179.658624 73.84349 
L 179.784345 73.84349 
L 179.822791 73.309548 
L 179.930442 73.309548 
L 179.976578 72.775607 
L 180.161122 72.775607 
L 180.213025 72.241665 
L 180.314908 72.241665 
L 180.314908 71.974694 
L 180.468695 71.974694 
L 180.468695 71.707724 
L 180.676307 71.707724 
L 180.783958 70.906811 
L 180.887764 70.906811 
L 180.887764 70.63984 
L 181.009255 70.63984 
L 181.060773 69.571957 
L 181.168424 69.571957 
L 181.168424 68.771045 
L 181.283764 68.771045 
L 181.287609 68.237103 
L 181.518289 68.237103 
L 181.591337 67.703161 
L 181.629784 67.703161 
L 181.706677 66.902249 
L 181.745124 66.902249 
L 181.78357 66.368307 
L 181.96427 66.368307 
L 182.052697 65.567395 
L 182.094988 65.567395 
L 182.175726 64.766483 
L 182.283377 64.766483 
L 182.283377 64.499512 
L 182.540969 64.499512 
L 182.614018 63.96557 
L 182.713979 63.96557 
L 182.810096 63.431629 
L 182.860077 63.431629 
L 182.93697 62.897687 
L 183.129203 62.897687 
L 183.152271 62.096775 
L 183.28299 62.096775 
L 183.28299 61.829804 
L 183.602097 61.829804 
L 183.602097 61.562833 
L 183.752039 61.562833 
L 183.786641 60.761921 
L 183.913515 60.761921 
L 183.913515 60.49495 
L 184.051923 60.49495 
L 184.128816 59.961008 
L 184.297981 59.961008 
L 184.347962 59.427067 
L 184.551729 59.427067 
L 184.574797 58.893125 
L 184.897749 58.893125 
L 184.95811 58.092213 
L 185.359109 58.092213 
L 185.359109 57.825242 
L 185.705128 57.825242 
L 185.705128 57.558271 
L 185.947342 57.558271 
L 186.012702 57.024329 
L 186.281828 57.024329 
L 186.281828 56.757359 
L 186.51866 56.757359 
L 186.622081 55.155534 
L 186.831615 55.155534 
L 186.939266 54.354621 
L 187.006163 54.354621 
L 187.006163 54.087651 
L 187.379096 54.087651 
L 187.481364 53.553709 
L 187.589014 53.553709 
L 187.627461 53.019767 
L 187.704354 53.019767 
L 187.704354 52.485826 
L 188.259908 52.485826 
L 188.281054 51.684913 
L 188.396394 51.684913 
L 188.43484 50.884001 
L 188.588627 50.884001 
L 188.588627 50.61703 
L 188.862559 50.61703 
L 188.862559 50.350059 
L 188.98655 50.350059 
L 189.088434 49.816118 
L 189.146103 49.816118 
L 189.146103 49.549147 
L 189.319113 49.549147 
L 189.349871 49.015205 
L 190.241833 49.015205 
L 190.241833 47.947322 
L 190.39562 47.947322 
L 190.39562 47.680351 
L 190.714727 47.680351 
L 190.818533 47.14641 
L 191.087659 47.14641 
L 191.087659 46.879439 
L 191.268908 46.879439 
L 191.268908 46.612468 
L 191.741252 46.612468 
L 191.833874 45.811556 
L 192.087272 45.811556 
L 192.087272 45.277614 
L 192.212224 45.277614 
L 192.212224 45.010643 
L 192.433292 45.010643 
L 192.433292 44.743672 
L 193.586691 44.743672 
L 193.586691 43.94276 
L 193.702031 43.94276 
L 193.702031 43.675789 
L 193.99807 43.675789 
L 194.004991 43.141848 
L 194.163391 43.141848 
L 194.163391 42.874877 
L 195.470577 42.874877 
L 195.470577 42.607906 
L 195.739704 42.607906 
L 195.739704 42.340935 
L 195.970383 42.340935 
L 196.047277 41.806994 
L 196.393297 41.806994 
L 196.393297 41.540023 
L 196.654734 41.540023 
L 196.654734 41.006081 
L 196.81621 41.006081 
L 196.81621 40.205169 
L 198.238736 40.205169 
L 198.238736 39.938198 
L 198.815435 39.938198 
L 198.815435 39.671227 
L 199.199902 39.671227 
L 199.199902 39.404256 
L 199.430582 39.404256 
L 199.507475 38.603344 
L 200.007282 38.603344 
L 200.007282 38.336373 
L 200.314855 38.336373 
L 200.314855 38.069402 
L 201.199128 38.069402 
L 201.199128 37.802432 
L 201.968061 37.802432 
L 201.968061 37.535461 
L 203.00612 37.535461 
L 203.00612 37.26849 
L 204.582433 37.26849 
L 204.582433 36.734548 
L 205.312919 36.734548 
L 205.312919 36.467578 
L 205.543599 36.467578 
L 205.543599 36.200607 
L 205.851172 36.200607 
L 205.889619 35.666665 
L 206.312532 35.666665 
L 206.422105 35.132724 
L 206.581658 35.132724 
L 206.581658 34.865753 
L 207.004571 34.865753 
L 207.004571 34.598782 
L 207.312145 34.598782 
L 207.312145 34.331811 
L 208.273311 34.331811 
L 208.357893 33.79787 
L 208.773117 33.79787 
L 208.773117 33.530899 
L 209.31137 33.530899 
L 209.349817 32.196045 
L 210.00341 32.196045 
L 210.00341 31.929074 
L 210.58011 31.929074 
L 210.58011 31.662103 
L 212.463995 31.662103 
L 212.502442 30.59422 
L 213.117588 30.59422 
L 213.117588 30.327249 
L 213.655842 30.327249 
L 213.655842 30.060278 
L 214.270988 30.060278 
L 214.270988 29.793307 
L 215.155261 29.793307 
L 215.155261 29.526337 
L 215.478213 29.526337 
L 215.478213 29.259366 
L 216.181786 29.259366 
L 216.181786 28.992395 
L 217.5774 28.992395 
L 217.654293 28.458453 
L 218.115653 28.458453 
L 218.115653 28.191483 
L 218.846139 28.191483 
L 218.846139 27.924512 
L 219.538179 27.924512 
L 219.538179 27.657541 
L 220.153325 27.657541 
L 220.153325 27.39057 
L 220.768471 27.39057 
L 220.768471 27.123599 
L 220.922258 27.123599 
L 220.922258 26.856629 
L 221.537404 26.856629 
L 221.537404 26.589658 
L 222.421677 26.589658 
L 222.421677 26.322687 
L 222.61391 26.322687 
L 222.61391 26.055716 
L 223.575077 26.055716 
L 223.575077 25.788745 
L 223.728863 25.788745 
L 223.728863 25.521775 
L 227.611975 25.521775 
L 227.611975 24.987833 
L 229.188287 24.987833 
L 229.188287 24.720862 
L 236.472005 24.720862 
L 236.472005 24.453891 
L 238.33859 24.453891 
L 238.33859 23.652979 
L 249.718797 23.652979 
L 249.718797 23.386008 
L 279.198149 23.386008 
L 279.198149 23.119037 
L 358.753491 23.119037 
L 358.753491 22.852067 
L 371.863798 22.852067 
L 371.863798 22.585096 
L 400.198977 22.585096 
L 400.198977 22.318125 
L 400.198977 22.318125 
" clip-path="url(#pa4537ac17d)" style="fill: none; stroke: #0000ff; stroke-width: 1.5; stroke-linecap: square"/>
   </g>
   <g id="line2d_24">
    <path d="M 63.091079 314.918125 
L 63.194885 314.384183 
L 63.310225 314.384183 
L 63.310225 314.117213 
L 63.471701 314.117213 
L 63.560128 313.049329 
L 63.587041 313.049329 
L 63.675468 312.248417 
L 63.729293 312.248417 
L 63.760051 311.714475 
L 63.840789 311.714475 
L 63.88308 309.84568 
L 63.994575 309.84568 
L 64.052245 309.044767 
L 64.109915 309.044767 
L 64.16374 307.976884 
L 64.252168 307.976884 
L 64.355974 305.574147 
L 64.417488 305.574147 
L 64.525139 304.506264 
L 64.540518 304.506264 
L 64.628945 303.43838 
L 64.690459 303.43838 
L 64.767353 302.637468 
L 64.817333 302.637468 
L 64.905761 301.836556 
L 64.932673 301.836556 
L 65.040324 301.035643 
L 65.097994 301.035643 
L 65.190266 299.700789 
L 65.236402 299.700789 
L 65.328674 297.298052 
L 65.370965 297.298052 
L 65.428635 296.230169 
L 65.563198 296.230169 
L 65.659315 295.162286 
L 65.716985 295.162286 
L 65.820791 294.094402 
L 65.913063 294.094402 
L 65.993801 292.492578 
L 66.043781 292.492578 
L 66.132209 291.157724 
L 66.162966 291.157724 
L 66.162966 290.890753 
L 66.278306 290.890753 
L 66.343665 290.08984 
L 66.443627 290.08984 
L 66.543588 288.488016 
L 66.562811 288.488016 
L 66.589724 287.954074 
L 66.701219 287.954074 
L 66.716598 287.153161 
L 66.824248 287.153161 
L 66.881918 286.352249 
L 66.954967 286.352249 
L 67.054928 284.483453 
L 67.070307 284.483453 
L 67.09722 283.949512 
L 67.37788 283.949512 
L 67.447084 283.148599 
L 67.570113 283.148599 
L 67.627783 282.347687 
L 67.704677 282.347687 
L 67.704677 282.080716 
L 67.973803 282.080716 
L 68.008405 281.546775 
L 68.17757 281.546775 
L 68.192949 281.012833 
L 68.29291 281.012833 
L 68.392872 280.211921 
L 68.419784 280.211921 
L 68.504367 279.677979 
L 68.654309 279.677979 
L 68.746581 279.144037 
L 68.842697 279.144037 
L 68.942659 278.610096 
L 69.027241 278.610096 
L 69.084911 277.809183 
L 69.146426 277.809183 
L 69.146426 277.542213 
L 69.311747 277.542213 
L 69.369417 277.008271 
L 69.488601 277.008271 
L 69.530892 276.474329 
L 69.719281 276.474329 
L 69.719281 276.207359 
L 69.857689 276.207359 
L 69.857689 275.940388 
L 70.084524 275.940388 
L 70.180641 274.605534 
L 70.257534 274.605534 
L 70.257534 274.338563 
L 70.376719 274.338563 
L 70.376719 274.071592 
L 70.722739 274.071592 
L 70.738117 273.27068 
L 71.353264 273.27068 
L 71.422468 272.736738 
L 71.576254 272.736738 
L 71.607011 272.202797 
L 71.706973 272.202797 
L 71.706973 271.935826 
L 71.818468 271.935826 
L 71.822313 271.401884 
L 72.110663 271.401884 
L 72.202934 270.600972 
L 72.322119 270.600972 
L 72.345187 270.06703 
L 72.664294 270.06703 
L 72.771945 269.266118 
L 72.875751 269.266118 
L 72.894974 268.732176 
L 73.244839 268.732176 
L 73.252528 268.198234 
L 73.410159 268.198234 
L 73.502431 267.130351 
L 73.875364 267.130351 
L 73.929189 266.59641 
L 74.182937 266.59641 
L 74.252141 266.062468 
L 74.628918 266.062468 
L 74.701967 265.528526 
L 75.071054 265.528526 
L 75.144103 264.460643 
L 75.294045 264.460643 
L 75.294045 264.193672 
L 75.443987 264.193672 
L 75.443987 263.926702 
L 75.80923 263.926702 
L 75.80923 263.659731 
L 76.066823 263.659731 
L 76.066823 263.39276 
L 76.278279 263.39276 
L 76.278279 263.125789 
L 76.524338 263.125789 
L 76.524338 262.858818 
L 77.047212 262.858818 
L 77.047212 262.591848 
L 77.235601 262.591848 
L 77.235601 262.324877 
L 77.512417 262.324877 
L 77.570087 261.790935 
L 77.735407 261.790935 
L 77.735407 261.523964 
L 78.096806 261.523964 
L 78.104495 260.990023 
L 78.219835 260.990023 
L 78.246748 260.456081 
L 78.523563 260.456081 
L 78.523563 260.18911 
L 78.681195 260.18911 
L 78.773467 259.655169 
L 78.838826 259.655169 
L 78.884962 259.121227 
L 79.230982 259.121227 
L 79.230982 258.854256 
L 79.769235 258.854256 
L 79.769235 258.587286 
L 79.896109 258.587286 
L 79.896109 258.320315 
L 80.334401 258.320315 
L 80.403604 257.786373 
L 80.526634 257.786373 
L 80.526634 257.519402 
L 81.380149 257.519402 
L 81.460887 256.451519 
L 81.518557 256.451519 
L 81.522402 255.917578 
L 81.71848 255.917578 
L 81.806907 255.383636 
L 81.960694 255.383636 
L 81.960694 255.116665 
L 82.191374 255.116665 
L 82.245199 254.582724 
L 82.391296 254.582724 
L 82.398986 254.048782 
L 82.618131 254.048782 
L 82.618131 253.781811 
L 82.786143 253.781811 
L 82.786143 253.51484 
L 82.914171 253.51484 
L 82.97953 252.980899 
L 83.410132 252.980899 
L 83.410132 252.713928 
L 83.575453 252.713928 
L 83.575453 252.446957 
L 83.929162 252.446957 
L 83.929162 252.179986 
L 84.117551 252.179986 
L 84.213667 251.646045 
L 84.305939 251.646045 
L 84.405901 251.112103 
L 84.75192 251.112103 
L 84.75192 250.845132 
L 84.986445 250.845132 
L 84.986445 250.578161 
L 85.463183 250.578161 
L 85.463183 250.311191 
L 85.605436 250.311191 
L 85.605436 250.04422 
L 85.947611 250.04422 
L 86.005281 249.510278 
L 86.328233 249.510278 
L 86.328233 249.243307 
L 86.501243 249.243307 
L 86.501243 248.976337 
L 86.747301 248.976337 
L 86.754991 248.442395 
L 87.439341 248.442395 
L 87.439341 248.175424 
L 87.558526 248.175424 
L 87.616196 247.641483 
L 87.946837 247.641483 
L 87.946837 247.374512 
L 88.077555 247.374512 
L 88.077555 247.107541 
L 88.331303 247.107541 
L 88.331303 246.84057 
L 88.473556 246.84057 
L 88.473556 246.573599 
L 88.642721 246.573599 
L 88.642721 246.306629 
L 89.300159 246.306629 
L 89.300159 246.039658 
L 89.57313 246.039658 
L 89.57313 245.772687 
L 89.86148 245.772687 
L 89.934529 245.238745 
L 90.019111 245.238745 
L 90.019111 244.971775 
L 90.368976 244.971775 
L 90.403578 244.437833 
L 90.563323 244.437833 
L 90.641947 243.903891 
L 92.583503 243.903891 
L 92.583503 243.636921 
L 92.987192 243.636921 
L 93.064086 243.102979 
L 93.13329 243.102979 
L 93.237096 242.569037 
L 94.909525 242.569037 
L 94.909525 242.302067 
L 95.055622 242.302067 
L 95.055622 242.035096 
L 95.263234 242.035096 
L 95.263234 241.768125 
L 95.82071 241.768125 
L 95.874536 241.234183 
L 96.05908 241.234183 
L 96.05908 240.967213 
L 96.351274 240.967213 
L 96.351274 240.700242 
L 96.539663 240.700242 
L 96.578109 240.1663 
L 97.739198 240.1663 
L 97.739198 239.899329 
L 98.185179 239.899329 
L 98.185179 239.632359 
L 98.608092 239.632359 
L 98.669607 239.098417 
L 99.088675 239.098417 
L 99.088675 238.831446 
L 99.334734 238.831446 
L 99.334734 238.564475 
L 99.657686 238.564475 
L 99.723045 238.030534 
L 99.83454 238.030534 
L 99.922968 237.496592 
L 100.12289 237.496592 
L 100.12289 237.229621 
L 100.365104 237.229621 
L 100.365104 236.962651 
L 100.480444 236.962651 
L 100.545803 236.428709 
L 100.8726 236.428709 
L 100.8726 236.161738 
L 101.172484 236.161738 
L 101.172484 235.894767 
L 101.50697 235.894767 
L 101.568484 235.360826 
L 101.914504 235.360826 
L 101.914504 235.093855 
L 102.202854 235.093855 
L 102.295126 234.559913 
L 102.756486 234.559913 
L 102.756486 234.292943 
L 102.906428 234.292943 
L 102.906428 234.025972 
L 103.717652 234.025972 
L 103.717652 233.759001 
L 103.986778 233.759001 
L 103.986778 233.49203 
L 105.213226 233.49203 
L 105.213226 233.225059 
L 105.40546 233.225059 
L 105.40546 232.958089 
L 105.689965 232.958089 
L 105.797615 232.157176 
L 106.412762 232.157176 
L 106.505034 231.623234 
L 106.593461 231.623234 
L 106.628063 231.089293 
L 107.193229 231.089293 
L 107.205724 230.555351 
L 107.483885 230.555351 
L 107.483885 230.28838 
L 107.704569 230.28838 
L 107.704569 230.02141 
L 108.081346 230.02141 
L 108.081346 229.754439 
L 108.308182 229.754439 
L 108.346628 229.220497 
L 108.485036 229.220497 
L 108.500415 228.686556 
L 108.673425 228.686556 
L 108.673425 228.419585 
L 108.815677 228.419585 
L 108.84259 227.885643 
L 109.088649 227.885643 
L 109.177076 227.351702 
L 109.392377 227.351702 
L 109.407756 226.81776 
L 110.122863 226.81776 
L 110.134397 226.283818 
L 110.245893 226.283818 
L 110.245893 226.016848 
L 110.403524 226.016848 
L 110.445815 225.215935 
L 110.831127 225.215935 
L 110.876418 224.681994 
L 111.068651 224.681994 
L 111.157078 223.881081 
L 111.599215 223.881081 
L 111.599215 223.61411 
L 111.868341 223.61411 
L 111.868341 223.34714 
L 112.075953 223.34714 
L 112.075953 223.080169 
L 112.33739 223.080169 
L 112.421973 222.546227 
L 112.479643 222.546227 
L 112.479643 222.279256 
L 113.333158 222.279256 
L 113.333158 222.012286 
L 114.17514 222.012286 
L 114.17514 221.745315 
L 114.478869 221.745315 
L 114.482713 221.211373 
L 114.655723 221.211373 
L 114.750879 220.677432 
L 114.97483 220.677432 
L 114.97483 220.410461 
L 115.705317 220.410461 
L 115.705317 220.14349 
L 116.40889 220.14349 
L 116.40889 219.876519 
L 116.670327 219.876519 
L 116.670327 219.609548 
L 117.816038 219.609548 
L 117.892931 219.075607 
L 118.004426 219.075607 
L 118.004426 218.808636 
L 118.273553 218.808636 
L 118.273553 218.541665 
L 119.025185 218.541665 
L 119.077088 218.007724 
L 119.261632 218.007724 
L 119.273166 217.473782 
L 119.434641 217.473782 
L 119.434641 217.206811 
L 119.584583 217.206811 
L 119.584583 216.93984 
L 120.049788 216.93984 
L 120.049788 216.67287 
L 120.188196 216.67287 
L 120.188196 216.405899 
L 120.805649 216.405899 
L 120.805649 216.138928 
L 121.072469 216.138928 
L 121.118605 215.338016 
L 121.199343 215.338016 
L 121.199343 215.071045 
L 121.51845 215.071045 
L 121.51845 214.804074 
L 122.055742 214.804074 
L 122.110528 214.270132 
L 122.391189 214.270132 
L 122.391189 214.003161 
L 122.587267 214.003161 
L 122.66416 213.46922 
L 122.902529 213.46922 
L 122.902529 213.202249 
L 123.056316 213.202249 
L 123.121675 212.668307 
L 123.237015 212.668307 
L 123.237015 212.401337 
L 123.621481 212.401337 
L 123.725287 211.867395 
L 123.825249 211.867395 
L 123.825249 211.600424 
L 124.355812 211.600424 
L 124.355812 211.333453 
L 124.486531 211.333453 
L 124.486531 211.066483 
L 125.036318 211.066483 
L 125.036318 210.799512 
L 125.259309 210.799512 
L 125.259309 210.532541 
L 125.493833 210.532541 
L 125.493833 210.26557 
L 125.75527 210.26557 
L 125.847542 209.731629 
L 125.92828 209.731629 
L 125.939814 209.197687 
L 126.251232 209.197687 
L 126.328125 208.396775 
L 126.528048 208.396775 
L 126.566495 207.862833 
L 126.993252 207.862833 
L 127.08168 207.328891 
L 127.120126 207.328891 
L 127.120126 207.061921 
L 127.277758 207.061921 
L 127.277758 206.79495 
L 127.612243 206.79495 
L 127.612243 206.527979 
L 127.904438 206.527979 
L 127.904438 206.261008 
L 128.27737 206.261008 
L 128.330235 205.727067 
L 128.423852 205.727067 
L 128.423852 205.460096 
L 128.876078 205.460096 
L 128.946342 204.926154 
L 129.073216 204.926154 
L 129.165488 204.125242 
L 129.326964 204.125242 
L 129.326964 203.858271 
L 129.457683 203.858271 
L 129.457683 203.5913 
L 129.830615 203.5913 
L 129.830615 203.324329 
L 130.330421 203.324329 
L 130.353489 202.790388 
L 130.572635 202.790388 
L 130.595703 202.256446 
L 131.091665 202.256446 
L 131.091665 201.989475 
L 131.317909 201.989475 
L 131.3185 201.455534 
L 131.533802 201.455534 
L 131.537646 200.921592 
L 131.776015 200.921592 
L 131.776015 200.654621 
L 131.937491 200.654621 
L 131.937491 200.387651 
L 132.24122 200.387651 
L 132.318113 199.853709 
L 132.383472 199.853709 
L 132.383472 199.586738 
L 132.594929 199.586738 
L 132.641065 199.052797 
L 133.206231 199.052797 
L 133.302347 198.518855 
L 133.498425 198.518855 
L 133.498425 198.251884 
L 133.812919 198.251884 
L 133.812919 197.984913 
L 134.36732 197.984913 
L 134.371164 197.450972 
L 134.505727 197.450972 
L 134.505727 197.184001 
L 134.724873 197.184001 
L 134.724873 196.91703 
L 135.240058 196.91703 
L 135.240058 196.650059 
L 135.360413 196.650059 
L 135.360413 196.383089 
L 135.539942 196.383089 
L 135.539942 196.116118 
L 135.970545 196.116118 
L 135.970545 195.849147 
L 136.114572 195.849147 
L 136.131736 195.315205 
L 136.243516 195.315205 
L 136.243516 195.048234 
L 136.578002 195.048234 
L 136.631827 194.514293 
L 136.835594 194.514293 
L 136.835594 194.247322 
L 137.104721 194.247322 
L 137.11241 193.71338 
L 137.223905 193.71338 
L 137.304259 192.912468 
L 137.396915 192.912468 
L 137.396915 192.645497 
L 137.519945 192.645497 
L 137.558391 192.111556 
L 137.646819 192.111556 
L 137.708333 191.310643 
L 138.004372 191.310643 
L 138.004372 191.043672 
L 138.119712 191.043672 
L 138.119712 190.776702 
L 138.354237 190.776702 
L 138.450354 189.975789 
L 138.515713 189.975789 
L 138.515713 189.708818 
L 138.638742 189.708818 
L 138.692567 188.640935 
L 138.801141 188.640935 
L 138.801141 188.373964 
L 139.023209 188.373964 
L 139.0655 187.573052 
L 139.134704 187.573052 
L 139.159694 187.03911 
L 139.253888 187.03911 
L 139.253888 186.77214 
L 139.380762 186.77214 
L 139.380762 186.505169 
L 139.503792 186.505169 
L 139.542238 185.971227 
L 139.878262 185.971227 
L 139.930549 185.437286 
L 140.065113 185.437286 
L 140.142006 184.903344 
L 140.284259 184.903344 
L 140.284259 184.636373 
L 140.495715 184.636373 
L 140.495715 184.369402 
L 140.84558 184.369402 
L 140.918628 183.56849 
L 141.030124 183.56849 
L 141.103172 183.034548 
L 141.445347 183.034548 
L 141.445347 182.767578 
L 141.679872 182.767578 
L 141.757534 181.966665 
L 141.864416 181.966665 
L 141.87595 181.432724 
L 142.114319 181.432724 
L 142.191981 180.898782 
L 142.375756 180.898782 
L 142.38729 180.36484 
L 142.687174 180.36484 
L 142.687174 180.09787 
L 142.860184 180.09787 
L 142.879407 179.563928 
L 143.240037 179.563928 
L 143.240037 179.296957 
L 143.64834 179.296957 
L 143.748302 178.496045 
L 143.852108 178.496045 
L 143.855952 177.962103 
L 144.194283 177.962103 
L 144.194283 177.695132 
L 144.325001 177.695132 
L 144.383594 177.161191 
L 144.51339 177.161191 
L 144.566719 176.360278 
L 144.705623 176.360278 
L 144.790206 175.826337 
L 144.83961 175.826337 
L 144.83961 175.559366 
L 145.0824 175.559366 
L 145.0824 175.292395 
L 145.382284 175.292395 
L 145.382284 175.025424 
L 145.520692 175.025424 
L 145.528381 174.491483 
L 145.643721 174.491483 
L 145.743683 173.957541 
L 145.94745 173.957541 
L 146.00512 173.423599 
L 146.105081 173.423599 
L 146.105081 173.156629 
L 146.35114 173.156629 
L 146.454946 172.622687 
L 146.585664 172.622687 
L 146.63949 171.821775 
L 146.716383 171.821775 
L 146.785587 171.020862 
L 146.877859 171.020862 
L 146.976282 170.21995 
L 147.000696 170.21995 
L 147.000696 169.952979 
L 147.15083 169.952979 
L 147.177743 169.419037 
L 147.354597 169.419037 
L 147.354597 169.152067 
L 147.493005 169.152067 
L 147.54683 168.351154 
L 147.622967 168.351154 
L 147.622967 168.084183 
L 147.735219 168.084183 
L 147.735219 167.817213 
L 147.942831 167.817213 
L 148.00819 167.283271 
L 148.169666 167.283271 
L 148.192734 166.749329 
L 148.290965 166.749329 
L 148.400346 165.948417 
L 148.481084 165.948417 
L 148.500307 165.414475 
L 148.746366 165.414475 
L 148.746366 165.147505 
L 148.915531 165.147505 
L 149.003958 164.346592 
L 149.088541 164.346592 
L 149.173124 163.54568 
L 149.218491 163.54568 
L 149.303842 162.744767 
L 149.476852 162.744767 
L 149.519143 162.210826 
L 149.611415 162.210826 
L 149.611415 161.943855 
L 150.015105 161.943855 
L 150.107377 161.409913 
L 150.295766 161.409913 
L 150.295766 161.142943 
L 150.495688 161.142943 
L 150.495688 160.875972 
L 150.745592 160.875972 
L 150.745592 160.609001 
L 150.87631 160.609001 
L 150.983961 159.808089 
L 151.130058 159.808089 
L 151.230019 159.007176 
L 151.410719 159.007176 
L 151.495301 158.206264 
L 151.668311 158.206264 
L 151.756738 157.405351 
L 151.79134 157.405351 
L 151.822098 156.604439 
L 151.902836 156.604439 
L 151.991263 155.803526 
L 152.02202 155.803526 
L 152.02202 155.536556 
L 152.179651 155.536556 
L 152.256545 155.002614 
L 152.333438 155.002614 
L 152.416867 154.468672 
L 152.521827 154.468672 
L 152.567963 153.400789 
L 152.687147 153.400789 
L 152.706371 152.866848 
L 152.871691 152.866848 
L 152.871691 152.599877 
L 152.991445 152.599877 
L 153.075458 152.065935 
L 153.179264 152.065935 
L 153.275381 150.731081 
L 153.43804 150.731081 
L 153.479148 149.930169 
L 153.602177 149.930169 
L 153.671381 149.129256 
L 153.771343 149.129256 
L 153.852081 148.595315 
L 154.236547 148.595315 
L 154.271149 148.061373 
L 154.459538 148.061373 
L 154.474916 147.527432 
L 154.613324 147.527432 
L 154.694062 146.459548 
L 154.78249 146.459548 
L 154.790179 145.925607 
L 155.113131 145.925607 
L 155.213092 145.391665 
L 155.251539 145.391665 
L 155.328432 144.056811 
L 155.389947 144.056811 
L 155.389947 143.78984 
L 155.982025 143.78984 
L 156.074297 142.721957 
L 156.162724 142.721957 
L 156.162724 142.454986 
L 156.339579 142.454986 
L 156.339579 142.188016 
L 156.504899 142.188016 
L 156.61255 140.853161 
L 156.658686 140.853161 
L 156.735579 140.052249 
L 156.839385 140.052249 
L 156.885521 138.984366 
L 156.981638 138.984366 
L 157.077754 138.183453 
L 157.173871 138.183453 
L 157.250764 137.11557 
L 157.550648 137.11557 
L 157.573716 136.581629 
L 157.712124 136.581629 
L 157.712124 136.314658 
L 157.869755 136.314658 
L 157.896668 135.513745 
L 157.996629 135.513745 
L 157.996629 135.246775 
L 158.181173 135.246775 
L 158.234999 134.178891 
L 158.296513 134.178891 
L 158.346494 133.64495 
L 158.434921 133.64495 
L 158.484902 133.111008 
L 158.584863 133.111008 
L 158.584863 132.844037 
L 158.696358 132.844037 
L 158.715582 132.043125 
L 158.896281 132.043125 
L 158.977019 131.509183 
L 159.184631 131.509183 
L 159.230767 130.708271 
L 159.30766 130.708271 
L 159.396087 130.174329 
L 159.592165 130.174329 
L 159.615233 129.640388 
L 159.726728 129.640388 
L 159.742107 129.106446 
L 159.888204 129.106446 
L 159.888204 128.839475 
L 160.076593 128.839475 
L 160.126574 128.038563 
L 160.226535 128.038563 
L 160.307273 127.237651 
L 160.457215 127.237651 
L 160.476438 126.703709 
L 160.584089 126.703709 
L 160.660982 125.368855 
L 160.822458 125.368855 
L 160.907041 124.567943 
L 160.940361 124.567943 
L 161.049293 123.233089 
L 161.237682 123.233089 
L 161.299196 122.432176 
L 161.353022 122.432176 
L 161.398004 121.898234 
L 161.533721 121.898234 
L 161.533721 121.631264 
L 161.737488 121.631264 
L 161.785546 120.830351 
L 161.948945 120.830351 
L 161.948945 120.56338 
L 162.079663 120.56338 
L 162.110421 120.029439 
L 162.271897 120.029439 
L 162.333411 119.495497 
L 162.417994 119.495497 
L 162.491042 118.961556 
L 162.567936 118.961556 
L 162.667897 118.160643 
L 162.69481 118.160643 
L 162.74479 117.626702 
L 162.817839 117.626702 
L 162.887043 117.09276 
L 162.970288 117.09276 
L 162.99008 116.558818 
L 163.106189 116.558818 
L 163.140791 116.024877 
L 163.421451 116.024877 
L 163.4945 115.490935 
L 163.567549 115.490935 
L 163.671355 114.956994 
L 163.736714 114.956994 
L 163.819297 114.156081 
L 163.998151 114.156081 
L 164.105802 113.088198 
L 164.167316 113.088198 
L 164.213452 112.554256 
L 164.290346 112.554256 
L 164.29419 112.020315 
L 164.567711 112.020315 
L 164.567711 111.753344 
L 164.717103 111.753344 
L 164.717103 111.486373 
L 164.851667 111.486373 
L 164.901647 110.952432 
L 164.993919 110.952432 
L 165.020832 110.41849 
L 165.243822 110.41849 
L 165.243822 110.151519 
L 165.416832 110.151519 
L 165.455279 109.350607 
L 165.647512 109.350607 
L 165.73594 108.549694 
L 165.759008 108.549694 
L 165.847435 107.748782 
L 166.020445 107.748782 
L 166.039668 107.21484 
L 166.212678 107.21484 
L 166.224212 106.680899 
L 166.404911 106.680899 
L 166.404911 106.413928 
L 166.547164 106.413928 
L 166.647125 105.879986 
L 166.704795 105.879986 
L 166.747086 105.346045 
L 166.835514 105.346045 
L 166.943164 104.812103 
L 167.035436 104.812103 
L 167.127708 104.011191 
L 167.242815 104.011191 
L 167.286108 103.477249 
L 167.400679 103.477249 
L 167.400679 103.210278 
L 167.546777 103.210278 
L 167.592913 102.676337 
L 167.696719 102.676337 
L 167.696719 102.409366 
L 167.935088 102.409366 
L 167.935088 102.142395 
L 168.073496 102.142395 
L 168.18024 101.341483 
L 168.273418 101.341483 
L 168.273418 101.074512 
L 168.469496 101.074512 
L 168.469496 100.807541 
L 168.611749 100.807541 
L 168.615593 100.273599 
L 168.765535 100.273599 
L 168.765535 100.006629 
L 168.919322 100.006629 
L 169.026973 99.205716 
L 169.130779 99.205716 
L 169.184604 98.671775 
L 169.372992 98.671775 
L 169.372992 98.404804 
L 169.492177 98.404804 
L 169.492177 98.137833 
L 169.695944 98.137833 
L 169.74208 97.603891 
L 169.957381 97.603891 
L 169.999673 97.06995 
L 170.163672 97.06995 
L 170.172683 96.536008 
L 170.303401 96.536008 
L 170.303401 96.269037 
L 170.453343 96.269037 
L 170.551382 95.468125 
L 170.582832 95.468125 
L 170.637887 94.934183 
L 170.703246 94.934183 
L 170.741693 94.400242 
L 170.880101 94.400242 
L 170.956994 93.599329 
L 171.149228 93.599329 
L 171.149228 93.332359 
L 171.322237 93.332359 
L 171.322237 93.065388 
L 171.652879 93.065388 
L 171.741306 92.531446 
L 172.048879 92.531446 
L 172.100859 91.997505 
L 172.221889 91.997505 
L 172.221889 91.463563 
L 172.521773 91.463563 
L 172.594822 90.39568 
L 172.710161 90.39568 
L 172.710161 90.128709 
L 172.837035 90.128709 
L 172.837035 89.861738 
L 172.967754 89.861738 
L 172.979288 89.327797 
L 173.202279 89.327797 
L 173.273405 88.259913 
L 173.513696 88.259913 
L 173.559832 87.725972 
L 173.679017 87.725972 
L 173.725153 87.19203 
L 173.867406 87.19203 
L 173.87894 86.658089 
L 174.028882 86.658089 
L 174.117309 85.590205 
L 174.244183 85.590205 
L 174.309542 84.789293 
L 174.386435 84.789293 
L 174.39028 84.255351 
L 174.616154 84.255351 
L 174.616154 83.98838 
L 174.855484 83.98838 
L 174.897776 83.187468 
L 175.005426 83.187468 
L 175.032339 82.386556 
L 175.201504 82.386556 
L 175.301466 81.585643 
L 175.320689 81.585643 
L 175.336068 81.051702 
L 175.432184 81.051702 
L 175.462941 80.51776 
L 175.559058 80.51776 
L 175.559058 80.250789 
L 175.724379 80.250789 
L 175.724379 79.983818 
L 175.893544 79.983818 
L 175.893544 79.716848 
L 176.028107 79.716848 
L 176.120379 78.381994 
L 176.34337 78.381994 
L 176.34337 78.115023 
L 176.558671 78.115023 
L 176.604807 77.31411 
L 176.847021 77.31411 
L 176.847021 77.04714 
L 176.962361 77.04714 
L 176.962361 76.780169 
L 177.108458 76.780169 
L 177.193041 76.246227 
L 177.454478 76.246227 
L 177.554439 75.712286 
L 177.66209 75.712286 
L 177.665934 75.178344 
L 177.775123 75.178344 
L 177.823566 74.644402 
L 178.092692 74.644402 
L 178.192653 73.576519 
L 178.213799 73.576519 
L 178.213799 73.309548 
L 178.34644 73.309548 
L 178.431023 72.241665 
L 178.496382 72.241665 
L 178.523295 71.707724 
L 178.661703 71.707724 
L 178.715528 71.173782 
L 178.819334 71.173782 
L 178.877004 70.105899 
L 178.934674 70.105899 
L 178.969276 69.038016 
L 179.184577 69.038016 
L 179.238402 68.237103 
L 179.419102 68.237103 
L 179.515218 67.16922 
L 179.630558 67.16922 
L 179.703607 66.368307 
L 179.757432 66.368307 
L 179.826636 65.834366 
L 179.903529 65.834366 
L 179.934287 65.300424 
L 180.253394 65.300424 
L 180.337976 64.232541 
L 180.395646 64.232541 
L 180.46485 63.431629 
L 180.737822 63.431629 
L 180.814715 62.096775 
L 181.114599 62.096775 
L 181.114599 61.829804 
L 181.229939 61.829804 
L 181.307601 61.295862 
L 181.360657 61.295862 
L 181.433706 60.227979 
L 181.61825 60.227979 
L 181.629784 59.694037 
L 181.775881 59.694037 
L 181.797559 59.160096 
L 181.89891 59.160096 
L 181.979648 58.359183 
L 182.083454 58.359183 
L 182.099602 57.825242 
L 182.317979 57.825242 
L 182.364884 56.757359 
L 182.456387 56.757359 
L 182.536506 55.422505 
L 182.779339 55.422505 
L 182.813941 54.888563 
L 182.960038 54.888563 
L 183.029242 54.087651 
L 183.113824 54.087651 
L 183.21763 52.752797 
L 183.233009 52.752797 
L 183.233009 52.485826 
L 183.386796 52.485826 
L 183.482912 51.684913 
L 183.602097 51.684913 
L 183.602097 51.417943 
L 183.73666 51.417943 
L 183.798175 50.61703 
L 183.882757 50.61703 
L 183.986563 49.816118 
L 184.144195 49.816118 
L 184.171107 49.282176 
L 184.271069 49.282176 
L 184.37103 48.214293 
L 184.409476 48.214293 
L 184.509438 47.41338 
L 184.581717 47.41338 
L 184.645923 46.345497 
L 184.697826 46.345497 
L 184.70936 45.811556 
L 184.866992 45.811556 
L 184.866992 45.544585 
L 185.047691 45.544585 
L 185.128429 44.209731 
L 185.236079 44.209731 
L 185.332196 43.141848 
L 185.45907 43.141848 
L 185.505206 42.607906 
L 185.697439 42.607906 
L 185.697439 42.340935 
L 185.842896 42.340935 
L 185.939653 41.540023 
L 185.989634 41.540023 
L 186.051148 41.006081 
L 186.144596 41.006081 
L 186.224158 40.47214 
L 186.301052 40.47214 
L 186.335654 39.938198 
L 186.420236 39.938198 
L 186.504819 39.137286 
L 186.536345 39.137286 
L 186.641151 38.336373 
L 186.72012 38.336373 
L 186.72012 38.069402 
L 186.931577 38.069402 
L 186.947842 37.535461 
L 187.266062 37.535461 
L 187.312198 36.734548 
L 187.508276 36.734548 
L 187.550568 35.933636 
L 187.735111 35.933636 
L 187.843392 34.598782 
L 187.886402 34.598782 
L 187.927345 34.06484 
L 188.100355 34.06484 
L 188.200316 33.263928 
L 188.232265 33.263928 
L 188.232265 32.996957 
L 188.469442 32.996957 
L 188.542491 32.463016 
L 188.688588 32.463016 
L 188.738569 31.662103 
L 188.84622 31.662103 
L 188.930802 30.861191 
L 188.980783 30.861191 
L 189.0769 30.327249 
L 189.457521 30.327249 
L 189.553638 29.526337 
L 189.626687 29.526337 
L 189.638221 28.992395 
L 189.765095 28.992395 
L 189.865056 28.191483 
L 189.965017 28.191483 
L 190.061134 27.39057 
L 190.16494 27.39057 
L 190.16494 27.123599 
L 190.341794 27.123599 
L 190.341794 26.856629 
L 190.614765 26.856629 
L 190.614765 26.589658 
L 190.805251 26.589658 
L 190.805251 26.322687 
L 191.072281 26.322687 
L 191.072281 26.055716 
L 191.206844 26.055716 
L 191.206844 25.788745 
L 191.914262 25.788745 
L 191.983466 24.987833 
L 192.085933 24.987833 
L 192.085933 24.720862 
L 192.244903 24.720862 
L 192.244903 24.453891 
L 192.463454 24.453891 
L 192.507302 23.91995 
L 192.652438 23.91995 
L 192.717797 23.386008 
L 192.824448 23.386008 
L 192.824448 23.119037 
L 194.263352 23.119037 
L 194.263352 22.852067 
L 194.759314 22.852067 
L 194.759314 22.585096 
L 196.131859 22.585096 
L 196.131859 22.318125 
L 196.131859 22.318125 
" clip-path="url(#pa4537ac17d)" style="fill: none; stroke: #ff0000; stroke-width: 1.5; stroke-linecap: square"/>
   </g>
   <g id="patch_3">
    <path d="M 43.78125 314.918125 
L 43.78125 22.318125 
" style="fill: none; stroke: #000000; stroke-width: 0.8; stroke-linejoin: miter; stroke-linecap: square"/>
   </g>
   <g id="patch_4">
    <path d="M 417.17125 314.918125 
L 417.17125 22.318125 
" style="fill: none; stroke: #000000; stroke-width: 0.8; stroke-linejoin: miter; stroke-linecap: square"/>
   </g>
   <g id="patch_5">
    <path d="M 43.78125 314.918125 
L 417.17125 314.918125 
" style="fill: none; stroke: #000000; stroke-width: 0.8; stroke-linejoin: miter; stroke-linecap: square"/>
   </g>
   <g id="patch_6">
    <path d="M 43.78125 22.318125 
L 417.17125 22.318125 
" style="fill: none; stroke: #000000; stroke-width: 0.8; stroke-linejoin: miter; stroke-linecap: square"/>
   </g>
   <g id="text_14">
    <!-- ECDF Comparison (MGO) -->
    <g transform="translate(155.455625 16.318125) scale(0.12 -0.12)">
     <defs>
      <path id="DejaVuSans-45" d="M 628 4666 
L 3578 4666 
L 3578 4134 
L 1259 4134 
L 1259 2753 
L 3481 2753 
L 3481 2222 
L 1259 2222 
L 1259 531 
L 3634 531 
L 3634 0 
L 628 0 
L 628 4666 
z
" transform="scale(0.015625)"/>
      <path id="DejaVuSans-44" d="M 1259 4147 
L 1259 519 
L 2022 519 
Q 2988 519 3436 956 
Q 3884 1394 3884 2338 
Q 3884 3275 3436 3711 
Q 2988 4147 2022 4147 
L 1259 4147 
z
M 628 4666 
L 1925 4666 
Q 3281 4666 3915 4102 
Q 4550 3538 4550 2338 
Q 4550 1131 3912 565 
Q 3275 0 1925 0 
L 628 0 
L 628 4666 
z
" transform="scale(0.015625)"/>
      <path id="DejaVuSans-46" d="M 628 4666 
L 3309 4666 
L 3309 4134 
L 1259 4134 
L 1259 2759 
L 3109 2759 
L 3109 2228 
L 1259 2228 
L 1259 0 
L 628 0 
L 628 4666 
z
" transform="scale(0.015625)"/>
      <path id="DejaVuSans-70" d="M 1159 525 
L 1159 -1331 
L 581 -1331 
L 581 3500 
L 1159 3500 
L 1159 2969 
Q 1341 3281 1617 3432 
Q 1894 3584 2278 3584 
Q 2916 3584 3314 3078 
Q 3713 2572 3713 1747 
Q 3713 922 3314 415 
Q 2916 -91 2278 -91 
Q 1894 -91 1617 61 
Q 1341 213 1159 525 
z
M 3116 1747 
Q 3116 2381 2855 2742 
Q 2594 3103 2138 3103 
Q 1681 3103 1420 2742 
Q 1159 2381 1159 1747 
Q 1159 1113 1420 752 
Q 1681 391 2138 391 
Q 2594 391 2855 752 
Q 3116 1113 3116 1747 
z
" transform="scale(0.015625)"/>
      <path id="DejaVuSans-73" d="M 2834 3397 
L 2834 2853 
Q 2591 2978 2328 3040 
Q 2066 3103 1784 3103 
Q 1356 3103 1142 2972 
Q 928 2841 928 2578 
Q 928 2378 1081 2264 
Q 1234 2150 1697 2047 
L 1894 2003 
Q 2506 1872 2764 1633 
Q 3022 1394 3022 966 
Q 3022 478 2636 193 
Q 2250 -91 1575 -91 
Q 1294 -91 989 -36 
Q 684 19 347 128 
L 347 722 
Q 666 556 975 473 
Q 1284 391 1588 391 
Q 1994 391 2212 530 
Q 2431 669 2431 922 
Q 2431 1156 2273 1281 
Q 2116 1406 1581 1522 
L 1381 1569 
Q 847 1681 609 1914 
Q 372 2147 372 2553 
Q 372 3047 722 3315 
Q 1072 3584 1716 3584 
Q 2034 3584 2315 3537 
Q 2597 3491 2834 3397 
z
" transform="scale(0.015625)"/>
      <path id="DejaVuSans-6e" d="M 3513 2113 
L 3513 0 
L 2938 0 
L 2938 2094 
Q 2938 2591 2744 2837 
Q 2550 3084 2163 3084 
Q 1697 3084 1428 2787 
Q 1159 2491 1159 1978 
L 1159 0 
L 581 0 
L 581 3500 
L 1159 3500 
L 1159 2956 
Q 1366 3272 1645 3428 
Q 1925 3584 2291 3584 
Q 2894 3584 3203 3211 
Q 3513 2838 3513 2113 
z
" transform="scale(0.015625)"/>
      <path id="DejaVuSans-28" d="M 1984 4856 
Q 1566 4138 1362 3434 
Q 1159 2731 1159 2009 
Q 1159 1288 1364 580 
Q 1569 -128 1984 -844 
L 1484 -844 
Q 1016 -109 783 600 
Q 550 1309 550 2009 
Q 550 2706 781 3412 
Q 1013 4119 1484 4856 
L 1984 4856 
z
" transform="scale(0.015625)"/>
      <path id="DejaVuSans-29" d="M 513 4856 
L 1013 4856 
Q 1481 4119 1714 3412 
Q 1947 2706 1947 2009 
Q 1947 1309 1714 600 
Q 1481 -109 1013 -844 
L 513 -844 
Q 928 -128 1133 580 
Q 1338 1288 1338 2009 
Q 1338 2731 1133 3434 
Q 928 4138 513 4856 
z
" transform="scale(0.015625)"/>
     </defs>
     <use xlink:href="#DejaVuSans-45"/>
     <use xlink:href="#DejaVuSans-43" transform="translate(63.183594 0)"/>
     <use xlink:href="#DejaVuSans-44" transform="translate(133.007812 0)"/>
     <use xlink:href="#DejaVuSans-46" transform="translate(210.009766 0)"/>
     <use xlink:href="#DejaVuSans-20" transform="translate(267.529297 0)"/>
     <use xlink:href="#DejaVuSans-43" transform="translate(299.316406 0)"/>
     <use xlink:href="#DejaVuSans-6f" transform="translate(369.140625 0)"/>
     <use xlink:href="#DejaVuSans-6d" transform="translate(430.322266 0)"/>
     <use xlink:href="#DejaVuSans-70" transform="translate(527.734375 0)"/>
     <use xlink:href="#DejaVuSans-61" transform="translate(591.210938 0)"/>
     <use xlink:href="#DejaVuSans-72" transform="translate(652.490234 0)"/>
     <use xlink:href="#DejaVuSans-69" transform="translate(693.603516 0)"/>
     <use xlink:href="#DejaVuSans-73" transform="translate(721.386719 0)"/>
     <use xlink:href="#DejaVuSans-6f" transform="translate(773.486328 0)"/>
     <use xlink:href="#DejaVuSans-6e" transform="translate(834.667969 0)"/>
     <use xlink:href="#DejaVuSans-20" transform="translate(898.046875 0)"/>
     <use xlink:href="#DejaVuSans-28" transform="translate(929.833984 0)"/>
     <use xlink:href="#DejaVuSans-4d" transform="translate(968.847656 0)"/>
     <use xlink:href="#DejaVuSans-47" transform="translate(1055.126953 0)"/>
     <use xlink:href="#DejaVuSans-4f" transform="translate(1132.617188 0)"/>
     <use xlink:href="#DejaVuSans-29" transform="translate(1211.328125 0)"/>
    </g>
   </g>
   <g id="legend_1">
    <g id="patch_7">
     <path d="M 328.07125 59.674375 
L 410.17125 59.674375 
Q 412.17125 59.674375 412.17125 57.674375 
L 412.17125 29.318125 
Q 412.17125 27.318125 410.17125 27.318125 
L 328.07125 27.318125 
Q 326.07125 27.318125 326.07125 29.318125 
L 326.07125 57.674375 
Q 326.07125 59.674375 328.07125 59.674375 
z
" style="fill: #ffffff; opacity: 0.8; stroke: #cccccc; stroke-linejoin: miter"/>
    </g>
    <g id="line2d_25">
     <path d="M 330.07125 35.416562 
L 340.07125 35.416562 
L 340.07125 35.416562 
L 350.07125 35.416562 
L 350.07125 35.416562 
" style="fill: none; stroke: #0000ff; stroke-width: 1.5; stroke-linecap: square"/>
    </g>
    <g id="text_15">
     <!-- Base Hole -->
     <g transform="translate(358.07125 38.916562) scale(0.1 -0.1)">
      <defs>
       <path id="DejaVuSans-42" d="M 1259 2228 
L 1259 519 
L 2272 519 
Q 2781 519 3026 730 
Q 3272 941 3272 1375 
Q 3272 1813 3026 2020 
Q 2781 2228 2272 2228 
L 1259 2228 
z
M 1259 4147 
L 1259 2741 
L 2194 2741 
Q 2656 2741 2882 2914 
Q 3109 3088 3109 3444 
Q 3109 3797 2882 3972 
Q 2656 4147 2194 4147 
L 1259 4147 
z
M 628 4666 
L 2241 4666 
Q 2963 4666 3353 4366 
Q 3744 4066 3744 3513 
Q 3744 3084 3544 2831 
Q 3344 2578 2956 2516 
Q 3422 2416 3680 2098 
Q 3938 1781 3938 1306 
Q 3938 681 3513 340 
Q 3088 0 2303 0 
L 628 0 
L 628 4666 
z
" transform="scale(0.015625)"/>
       <path id="DejaVuSans-48" d="M 628 4666 
L 1259 4666 
L 1259 2753 
L 3553 2753 
L 3553 4666 
L 4184 4666 
L 4184 0 
L 3553 0 
L 3553 2222 
L 1259 2222 
L 1259 0 
L 628 0 
L 628 4666 
z
" transform="scale(0.015625)"/>
      </defs>
      <use xlink:href="#DejaVuSans-42"/>
      <use xlink:href="#DejaVuSans-61" transform="translate(68.603516 0)"/>
      <use xlink:href="#DejaVuSans-73" transform="translate(129.882812 0)"/>
      <use xlink:href="#DejaVuSans-65" transform="translate(181.982422 0)"/>
      <use xlink:href="#DejaVuSans-20" transform="translate(243.505859 0)"/>
      <use xlink:href="#DejaVuSans-48" transform="translate(275.292969 0)"/>
      <use xlink:href="#DejaVuSans-6f" transform="translate(350.488281 0)"/>
      <use xlink:href="#DejaVuSans-6c" transform="translate(411.669922 0)"/>
      <use xlink:href="#DejaVuSans-65" transform="translate(439.453125 0)"/>
     </g>
    </g>
    <g id="line2d_26">
     <path d="M 330.07125 50.094687 
L 340.07125 50.094687 
L 340.07125 50.094687 
L 350.07125 50.094687 
L 350.07125 50.094687 
" style="fill: none; stroke: #ff0000; stroke-width: 1.5; stroke-linecap: square"/>
    </g>
    <g id="text_16">
     <!-- Twin Hole -->
     <g transform="translate(358.07125 53.594687) scale(0.1 -0.1)">
      <defs>
       <path id="DejaVuSans-54" d="M -19 4666 
L 3928 4666 
L 3928 4134 
L 2272 4134 
L 2272 0 
L 1638 0 
L 1638 4134 
L -19 4134 
L -19 4666 
z
" transform="scale(0.015625)"/>
       <path id="DejaVuSans-77" d="M 269 3500 
L 844 3500 
L 1563 769 
L 2278 3500 
L 2956 3500 
L 3675 769 
L 4391 3500 
L 4966 3500 
L 4050 0 
L 3372 0 
L 2619 2869 
L 1863 0 
L 1184 0 
L 269 3500 
z
" transform="scale(0.015625)"/>
      </defs>
      <use xlink:href="#DejaVuSans-54"/>
      <use xlink:href="#DejaVuSans-77" transform="translate(44.583984 0)"/>
      <use xlink:href="#DejaVuSans-69" transform="translate(126.371094 0)"/>
      <use xlink:href="#DejaVuSans-6e" transform="translate(154.154297 0)"/>
      <use xlink:href="#DejaVuSans-20" transform="translate(217.533203 0)"/>
      <use xlink:href="#DejaVuSans-48" transform="translate(249.320312 0)"/>
      <use xlink:href="#DejaVuSans-6f" transform="translate(324.515625 0)"/>
      <use xlink:href="#DejaVuSans-6c" transform="translate(385.697266 0)"/>
      <use xlink:href="#DejaVuSans-65" transform="translate(413.480469 0)"/>
     </g>
    </g>
   </g>
  </g>
 </g>
 <defs>
  <clipPath id="pa4537ac17d">
   <rect x="43.78125" y="22.318125" width="373.39" height="292.6"/>
  </clipPath>
 </defs>
</svg>
